<?xml version="1.0" encoding="utf-8"?>
<!-- Generator: Adobe Illustrator 24.3.0, SVG Export Plug-In . SVG Version: 6.00 Build 0)  -->
<svg version="1.1" id="Слой_1" xmlns="http://www.w3.org/2000/svg" xmlns:xlink="http://www.w3.org/1999/xlink" x="0px" y="0px"
	 viewBox="0 0 512 512" style="enable-background:new 0 0 512 512;" xml:space="preserve">
<g transform="translate(0.000000,96.000000) scale(0.100000,-0.100000)">
	<path d="M1984.8,557C1105,151,868.2-965.5,1511.1-1669.2l223.3-243.6l-297.7-189.5c-365.4-230.1-676.7-649.6-805.2-1089.4
		c-148.9-507.5-135.3-588.7,101.5-588.7c142.1,0,203,33.8,203,108.3c0,277.4,182.7,676.7,446.6,967.6l284.2,311.3l148.9-189.5
		c406-507.5,1082.7-507.5,1488.7,0l148.9,189.5l284.2-311.3c263.9-291,446.6-690.2,446.6-967.6c0-74.4,60.9-108.3,203-108.3
		c236.8,0,250.4,81.2,101.5,588.7c-128.6,439.8-439.8,859.4-805.2,1089.4l-297.9,189.5l223.3,243.6
		c480.4,521,487.2,1319.5,13.5,1860.8C3209.6,658.5,2532.9,814.2,1984.8,557z M3033.6,144.3c304.5-155.6,541.3-541.3,541.3-879.7
		c0-514.3-500.7-1015-1021.8-1015c-494,0-1008.2,514.3-1008.2,1015c0,324.8,236.8,724,527.8,872.9
		C2397.6,313.4,2702.1,313.4,3033.6,144.3z M2952.4-2217.3c135.3-81.2-162.4-345.1-392.5-345.1c-94.7,0-250.4,67.7-331.6,142.1
		c-196.2,182.7-101.5,263.9,331.6,263.9C2729.1-2156.4,2905.1-2183.5,2952.4-2217.3z"/>
</g>
</svg>
