<?xml version="1.0" encoding="utf-8"?>
<!-- Generator: Adobe Illustrator 24.3.0, SVG Export Plug-In . SVG Version: 6.00 Build 0)  -->
<svg version="1.1" id="Слой_1" xmlns="http://www.w3.org/2000/svg" xmlns:xlink="http://www.w3.org/1999/xlink" x="0px" y="0px"
	 viewBox="0 0 64 64" style="enable-background:new 0 0 64 64;" xml:space="preserve">
<g transform="translate(0.000000,64.000000) scale(0.100000,-0.100000)">
	<path d="M101,558c-22-60-62-338-59-413l3-80h275h275l3,80c3,75-37,353-59,413c-8,22-10,22-219,22S109,580,101,558z M525,538
		c3-13,14-77,26-143c11-66,22-128,25-137c5-17-12-18-256-18s-261,1-256,18c3,9,14,71,25,137c12,66,23,130,26,143c5,22,6,22,205,22
		S520,560,525,538z M580,150V80H320H60v70v70h260h260V150z"/>
	<path d="M484,166c-10-26,4-48,28-44c17,2,23,10,23,28s-6,26-23,28C499,180,487,175,484,166z M520,150c0-5-4-10-10-10
		c-5,0-10,5-10,10c0,6,5,10,10,10C516,160,520,156,520,150z"/>
	<path d="M100,145v-25h160h160v25c0,14-4,25-10,25c-5,0-10-7-10-15s-7-15-15-15s-15,7-15,15s-4,15-10,15c-5,0-10-7-10-15
		s-7-15-15-15s-15,7-15,15s-4,15-10,15c-5,0-10-7-10-15s-7-15-15-15s-15,7-15,15s-4,15-10,15c-5,0-10-7-10-15s-7-15-15-15
		s-15,7-15,15s-4,15-10,15c-5,0-10-7-10-15s-7-15-15-15s-15,7-15,15s-4,15-10,15c-5,0-10-7-10-15s-7-15-15-15s-15,7-15,15
		s-4,15-10,15C105,170,100,159,100,145z"/>
</g>
<g transform="translate(0.000000,100.000000) scale(0.100000,-0.100000)">
	<path d="M205.1,897.6c0-4.3,3.2-6.6,12.4-9.2c51.8-15.5,82.4-59,89.8-129l2-18.1H280c-16.1,0-28.8-1.2-28.2-2.6
		c1.4-4,89.8-120.9,91.6-120.9s90.1,116.9,91.6,120.9c0.6,1.4-11.8,2.6-27.4,2.6H379l-4.6,27.4c-6,36-17.6,60.2-39.7,83.2
		c-26.8,27.9-64.5,44.9-109.1,49.5C206.5,903.1,205.1,902.8,205.1,897.6z M291.5,870c44.9-21.3,74.6-71.7,74.9-126.4v-13.8h23
		c12.7,0,23-0.9,23-1.7c0-2.9-66.8-89-69.1-89c-2.3,0-69.1,86.1-69.1,89c0,0.9,10.7,1.7,23.3,1.7h23.6l-1.7,25.3
		c-3.7,49.2-18.1,85.5-44.3,112C257.2,884.9,259.5,885.5,291.5,870z"/>
</g>
</svg>
