<?xml version="1.0" encoding="UTF-8"?>
<svg xmlns="http://www.w3.org/2000/svg" xmlns:xlink="http://www.w3.org/1999/xlink" width="60px" height="60px" viewBox="0 0 60 60" version="1.1">
<g id="surface1">
<path style=" stroke:none;fill-rule:nonzero;fill:rgb(0%,0%,0%);fill-opacity:1;" d="M 8.199219 6.699219 C 8.300781 6.699219 8.398438 6.699219 8.601562 6.699219 C 8.800781 6.699219 8.800781 6.699219 9 6.699219 C 9.101562 6.699219 9.300781 6.699219 9.398438 6.699219 C 9.800781 6.699219 10.199219 6.699219 10.5 6.699219 C 10.898438 6.699219 11.300781 6.699219 11.699219 6.699219 C 12.398438 6.699219 13 6.699219 13.699219 6.699219 C 14.5 6.699219 15.300781 6.699219 16 6.699219 C 16.699219 6.699219 17.300781 6.699219 18 6.699219 C 18.398438 6.699219 18.800781 6.699219 19.199219 6.699219 C 19.601562 6.699219 20 6.699219 20.300781 6.699219 C 20.5 6.699219 20.699219 6.699219 20.898438 6.699219 C 21.101562 6.699219 21.101562 6.699219 21.300781 6.699219 L 21.601562 6.699219 C 21.898438 6.800781 22.101562 6.898438 22.300781 7.199219 C 22.398438 7.398438 22.5 7.601562 22.601562 7.800781 C 22.800781 8 22.800781 8 22.898438 8.199219 C 22.898438 8.300781 23 8.300781 23 8.398438 C 23.101562 8.601562 23.199219 8.800781 23.300781 9 C 23.601562 9.699219 23.699219 9.898438 23.800781 10 C 23.800781 10.101562 23.898438 10.199219 24 10.199219 C 27.601562 10.199219 31.199219 10.199219 34.800781 10.199219 C 35.199219 10.199219 35.699219 10.199219 36.101562 10.199219 C 36.199219 10.199219 36.300781 10.199219 36.398438 10.199219 C 37.800781 10.199219 39.199219 10.199219 40.601562 10.199219 C 42 10.199219 43.398438 10.199219 44.898438 10.199219 C 45.800781 10.199219 46.699219 10.199219 47.5 10.199219 C 48.101562 10.199219 48.699219 10.199219 49.300781 10.199219 C 49.601562 10.199219 50 10.199219 50.300781 10.199219 C 50.699219 10.199219 51.101562 10.199219 51.398438 10.199219 C 51.5 10.199219 51.601562 10.199219 51.699219 10.199219 C 52.398438 10.199219 52.398438 10.199219 52.699219 10.398438 C 52.699219 10.398438 52.699219 10.398438 52.800781 10.5 C 53 10.800781 53 11 53 11.398438 C 53 11.601562 53 11.601562 53 11.800781 C 53 11.898438 53 12.101562 53 12.199219 C 53 12.300781 53 12.5 53 12.601562 C 53 12.898438 53 13.199219 53 13.398438 C 53 13.5 53.101562 13.601562 53.199219 13.601562 L 53.300781 13.601562 C 53.699219 13.601562 54.101562 13.601562 54.5 13.601562 C 54.601562 13.601562 54.800781 13.601562 54.898438 13.601562 C 55 13.601562 55.199219 13.601562 55.300781 13.601562 L 55.699219 13.601562 C 56.101562 13.699219 56.199219 13.800781 56.398438 14 C 56.398438 14 56.398438 14.101562 56.398438 14.101562 C 56.398438 14.300781 56.398438 14.398438 56.398438 14.699219 C 56.398438 14.800781 56.398438 15 56.398438 15.101562 C 56.398438 15.199219 56.398438 15.398438 56.398438 15.5 C 56.398438 15.699219 56.398438 15.800781 56.398438 16 C 56.398438 16.398438 56.398438 16.800781 56.398438 17.199219 C 56.398438 17.601562 56.398438 18.101562 56.398438 18.5 C 56.398438 19.398438 56.398438 20.199219 56.398438 21.101562 C 56.398438 21.800781 56.398438 22.5 56.398438 23.199219 C 56.398438 23.300781 56.398438 23.398438 56.398438 23.5 C 56.398438 23.699219 56.398438 23.898438 56.398438 24.101562 C 56.398438 26 56.398438 27.898438 56.398438 29.898438 C 56.398438 31.5 56.398438 33.199219 56.398438 34.800781 C 56.398438 36.699219 56.398438 38.601562 56.398438 40.5 C 56.398438 40.699219 56.398438 40.898438 56.398438 41.101562 C 56.398438 41.300781 56.398438 41.300781 56.398438 41.398438 C 56.398438 42.101562 56.398438 42.800781 56.398438 43.5 C 56.398438 44.398438 56.398438 45.199219 56.398438 46.101562 C 56.398438 46.5 56.398438 47 56.398438 47.398438 C 56.398438 47.800781 56.398438 48.199219 56.398438 48.601562 C 56.398438 48.699219 56.398438 48.898438 56.398438 49 C 56.398438 49.199219 56.398438 49.398438 56.398438 49.601562 C 56.398438 49.699219 56.398438 49.800781 56.398438 49.898438 C 56.398438 50.199219 56.300781 50.199219 56.199219 50.398438 C 56.199219 50.398438 56.199219 50.398438 56.101562 50.5 C 55.699219 50.699219 55.398438 50.699219 55 50.699219 C 54.898438 50.699219 54.800781 50.699219 54.699219 50.699219 C 54.398438 50.699219 54.101562 50.699219 53.800781 50.699219 C 53.601562 50.699219 53.398438 50.699219 53.199219 50.699219 C 52.601562 50.699219 52 50.699219 51.398438 50.699219 C 50.800781 50.699219 50.101562 50.699219 49.5 50.699219 C 48.300781 50.699219 47.199219 50.699219 46 50.699219 C 44.898438 50.699219 43.800781 50.699219 42.800781 50.699219 C 42.699219 50.699219 42.699219 50.699219 42.601562 50.699219 C 42.300781 50.699219 42 50.699219 41.699219 50.699219 C 39 50.699219 36.300781 50.699219 33.5 50.699219 C 31.101562 50.699219 28.699219 50.699219 26.199219 50.699219 C 23.5 50.699219 20.800781 50.699219 18 50.699219 C 17.699219 50.699219 17.398438 50.699219 17.101562 50.699219 C 17 50.699219 17 50.699219 16.898438 50.699219 C 15.800781 50.699219 14.699219 50.699219 13.699219 50.699219 C 12.5 50.699219 11.199219 50.699219 10 50.699219 C 9.398438 50.699219 8.699219 50.699219 8.101562 50.699219 C 7.5 50.699219 7 50.699219 6.398438 50.699219 C 6.199219 50.699219 6 50.699219 5.800781 50.699219 C 5.5 50.699219 5.199219 50.699219 5 50.699219 C 4.898438 50.699219 4.898438 50.699219 4.800781 50.699219 C 4.5 50.699219 4.199219 50.699219 4 50.5 C 4 50.5 4 50.5 3.898438 50.398438 C 3.699219 50.101562 3.699219 49.898438 3.699219 49.601562 C 3.699219 49.5 3.699219 49.300781 3.699219 49.199219 C 3.699219 49.101562 3.699219 48.898438 3.699219 48.800781 C 3.699219 48.601562 3.699219 48.5 3.699219 48.300781 C 3.699219 47.898438 3.699219 47.5 3.699219 47.101562 C 3.699219 46.699219 3.699219 46.199219 3.699219 45.800781 C 3.699219 44.898438 3.699219 44.101562 3.699219 43.199219 C 3.699219 42.5 3.699219 41.800781 3.699219 41.101562 C 3.699219 41 3.699219 40.898438 3.699219 40.800781 C 3.699219 40.601562 3.699219 40.398438 3.699219 40.199219 C 3.699219 38.300781 3.699219 36.398438 3.699219 34.398438 C 3.699219 32.800781 3.699219 31.101562 3.699219 29.5 C 3.699219 27.601562 3.699219 25.699219 3.699219 23.800781 C 3.699219 23.601562 3.699219 23.398438 3.699219 23.199219 C 3.699219 23.101562 3.699219 23 3.699219 22.898438 C 3.699219 22.199219 3.699219 21.5 3.699219 20.800781 C 3.699219 19.898438 3.699219 19.101562 3.699219 18.199219 C 3.699219 17.800781 3.699219 17.300781 3.699219 16.898438 C 3.699219 16.5 3.699219 16.101562 3.699219 15.699219 C 3.699219 15.601562 3.699219 15.398438 3.699219 15.300781 C 3.699219 15.101562 3.699219 14.898438 3.699219 14.699219 L 3.699219 14.398438 C 3.800781 14.101562 3.898438 13.898438 4.101562 13.699219 C 4.101562 13.699219 4.199219 13.699219 4.199219 13.699219 C 4.5 13.699219 4.5 13.699219 4.800781 13.699219 C 4.898438 13.699219 5.101562 13.699219 5.199219 13.699219 C 5.398438 13.699219 5.398438 13.699219 5.601562 13.699219 C 5.699219 13.699219 5.898438 13.699219 6 13.699219 C 6.300781 13.699219 6.601562 13.699219 6.800781 13.699219 C 6.898438 13.699219 7 13.601562 7 13.5 C 7 12.800781 7 12 7 11.300781 C 7 10.898438 7 10.5 7 10.199219 C 7 9.800781 7 9.5 7 9.101562 C 7 8.898438 7 8.699219 7 8.5 C 7 8.398438 7 8.199219 7 8.101562 L 7 7.800781 C 7.199219 6.898438 7.601562 6.699219 8.199219 6.699219 Z M 8.800781 8.601562 L 8.800781 13.300781 C 8.800781 13.398438 8.898438 13.5 9 13.5 L 51 13.5 C 51.101562 13.5 51.199219 13.398438 51.199219 13.300781 L 51.199219 12 C 51.199219 11.898438 51.101562 11.800781 51 11.800781 L 50.800781 11.800781 C 47.300781 11.800781 43.898438 11.800781 40.398438 11.800781 C 40 11.800781 39.5 11.800781 39.101562 11.800781 C 39 11.800781 38.898438 11.800781 38.800781 11.800781 C 37.398438 11.800781 36.101562 11.800781 34.699219 11.800781 C 33.300781 11.800781 31.898438 11.800781 30.5 11.800781 C 29.601562 11.800781 28.800781 11.800781 27.898438 11.800781 C 27.300781 11.800781 26.699219 11.800781 26.101562 11.800781 C 25.800781 11.800781 25.398438 11.800781 25.101562 11.800781 C 24.699219 11.800781 24.398438 11.800781 24 11.800781 C 23.898438 11.800781 23.800781 11.800781 23.699219 11.800781 C 23.601562 11.800781 23.5 11.800781 23.398438 11.800781 C 23.300781 11.800781 23.199219 11.800781 23.101562 11.800781 C 22.898438 11.800781 22.898438 11.800781 22.601562 11.5 C 22.601562 11.5 22.601562 11.5 22.601562 11.398438 C 22.101562 10.5 21.699219 9.5 21.199219 8.601562 C 21.199219 8.5 21.101562 8.5 21 8.5 L 9 8.398438 C 8.898438 8.398438 8.800781 8.5 8.800781 8.601562 Z M 5.5 15.398438 L 5.5 48.898438 C 5.5 49 5.601562 49.101562 5.699219 49.101562 L 54.398438 49.101562 C 54.5 49.101562 54.601562 49 54.601562 48.898438 L 54.601562 15.398438 C 54.601562 15.300781 54.5 15.199219 54.398438 15.199219 L 5.601562 15.199219 C 5.5 15.199219 5.5 15.300781 5.5 15.398438 Z M 5.5 15.398438 "/>
<path style=" stroke:none;fill-rule:nonzero;fill:rgb(0%,0%,0%);fill-opacity:1;" d="M 42.601562 19.101562 C 42.800781 19.199219 42.898438 19.300781 43 19.5 C 43 19.699219 43 19.800781 43 20 C 42.898438 20.101562 42.898438 20.101562 42.800781 20.199219 C 42.800781 20.199219 42.699219 20.300781 42.699219 20.300781 C 42.699219 20.398438 42.601562 20.398438 42.601562 20.398438 C 42.601562 20.398438 42.5 20.5 42.5 20.5 C 42.300781 20.699219 42.101562 20.898438 41.800781 21.199219 C 41.699219 21.300781 41.699219 21.300781 41.601562 21.398438 C 41.398438 21.601562 41.199219 21.800781 41 22 C 40.800781 22.199219 40.601562 22.398438 40.398438 22.601562 C 40 23 39.601562 23.398438 39.199219 23.800781 C 38.800781 24.199219 38.300781 24.699219 37.898438 25.101562 C 37 26 36.101562 26.898438 35.101562 27.898438 C 35.199219 27.898438 35.199219 27.898438 35.300781 27.898438 C 35.800781 27.898438 36.398438 27.898438 36.898438 27.898438 C 37.199219 27.898438 37.398438 27.898438 37.699219 27.898438 C 38 27.898438 38.199219 27.898438 38.5 27.898438 C 38.601562 27.898438 38.699219 27.898438 38.800781 27.898438 C 38.898438 27.898438 39.101562 27.898438 39.199219 27.898438 C 39.199219 27.898438 39.300781 27.898438 39.300781 27.898438 C 39.601562 27.898438 39.699219 28 39.898438 28.101562 C 40 28.300781 40 28.5 40 28.800781 C 39.898438 29 39.800781 29.101562 39.601562 29.199219 C 39.5 29.199219 39.5 29.199219 39.300781 29.199219 C 39.199219 29.199219 39.199219 29.199219 39.101562 29.199219 C 39 29.199219 39 29.199219 38.898438 29.199219 C 38.800781 29.199219 38.800781 29.199219 38.699219 29.199219 C 38.5 29.199219 38.398438 29.199219 38.199219 29.199219 C 38.101562 29.199219 38 29.199219 37.898438 29.199219 C 37.5 29.199219 37.199219 29.199219 36.800781 29.199219 C 36.5 29.199219 36.101562 29.199219 35.800781 29.199219 C 35.5 29.199219 35.199219 29.199219 34.898438 29.199219 C 34.699219 29.199219 34.5 29.199219 34.398438 29.199219 C 34.199219 29.199219 34 29.199219 33.800781 29.199219 C 33.699219 29.199219 33.699219 29.199219 33.601562 29.199219 C 33.300781 29.199219 33.101562 29.199219 32.898438 29 C 32.800781 28.800781 32.800781 28.699219 32.800781 28.601562 C 32.800781 28.601562 32.800781 28.5 32.800781 28.5 C 32.800781 28.398438 32.800781 28.398438 32.800781 28.300781 C 32.800781 28.199219 32.800781 28.199219 32.800781 28.101562 C 32.800781 27.898438 32.800781 27.699219 32.800781 27.5 C 32.800781 27.398438 32.800781 27.199219 32.800781 27.101562 C 32.800781 26.898438 32.800781 26.601562 32.800781 26.398438 C 32.800781 26.101562 32.800781 25.699219 32.800781 25.398438 C 32.800781 25.101562 32.800781 24.800781 32.800781 24.5 C 32.800781 24.398438 32.800781 24.199219 32.800781 24.101562 C 32.800781 23.898438 32.800781 23.699219 32.800781 23.601562 C 32.800781 23.5 32.800781 23.5 32.800781 23.398438 C 32.800781 23.101562 32.800781 22.898438 33.101562 22.699219 C 33.300781 22.601562 33.398438 22.601562 33.601562 22.601562 C 33.898438 22.699219 34 22.800781 34.101562 23.101562 C 34.101562 23.199219 34.101562 23.398438 34.101562 23.5 C 34.101562 23.5 34.101562 23.601562 34.101562 23.601562 C 34.101562 23.699219 34.101562 23.898438 34.101562 24 C 34.101562 24.101562 34.101562 24.199219 34.101562 24.300781 C 34.101562 24.5 34.101562 24.800781 34.101562 25 C 34.101562 25.199219 34.101562 25.5 34.101562 25.699219 C 34.101562 26.199219 34.101562 26.601562 34.101562 27.101562 C 34.101562 27.101562 34.199219 27 34.199219 27 C 35.199219 26 36.101562 25.101562 37.101562 24.101562 C 37.601562 23.601562 38 23.199219 38.5 22.699219 C 38.898438 22.300781 39.300781 21.898438 39.699219 21.5 C 39.898438 21.300781 40.101562 21.101562 40.398438 20.800781 C 40.601562 20.601562 40.800781 20.398438 41 20.199219 C 41.101562 20.101562 41.101562 20 41.199219 20 C 41.300781 19.898438 41.398438 19.800781 41.5 19.699219 C 41.5 19.699219 41.601562 19.601562 41.601562 19.601562 C 41.898438 19.199219 42.199219 19 42.601562 19.101562 Z M 42.601562 19.101562 "/>
<path style=" stroke:none;fill-rule:nonzero;fill:rgb(0%,0%,0%);fill-opacity:1;" d="M 33.398438 35.199219 C 33.5 35.199219 33.5 35.199219 33.601562 35.199219 C 33.699219 35.199219 33.699219 35.199219 33.800781 35.199219 C 33.898438 35.199219 33.898438 35.199219 34 35.199219 C 34.199219 35.199219 34.300781 35.199219 34.5 35.199219 C 34.601562 35.199219 34.699219 35.199219 34.800781 35.199219 C 35.199219 35.199219 35.5 35.199219 35.898438 35.199219 C 36.199219 35.199219 36.601562 35.199219 36.898438 35.199219 C 37.199219 35.199219 37.5 35.199219 37.800781 35.199219 C 38 35.199219 38.199219 35.199219 38.300781 35.199219 C 38.5 35.199219 38.699219 35.199219 38.898438 35.199219 C 39 35.199219 39 35.199219 39.101562 35.199219 C 39.5 35.199219 39.5 35.199219 39.699219 35.398438 C 39.898438 35.601562 39.898438 35.699219 39.898438 36 C 39.898438 36.199219 39.800781 36.199219 39.699219 36.398438 C 39.398438 36.5 39.199219 36.601562 38.898438 36.601562 C 38.800781 36.601562 38.800781 36.601562 38.800781 36.601562 C 38.699219 36.601562 38.5 36.601562 38.398438 36.601562 C 38.300781 36.601562 38.199219 36.601562 38.101562 36.601562 C 37.800781 36.601562 37.601562 36.601562 37.300781 36.601562 C 37 36.601562 36.800781 36.601562 36.5 36.601562 C 36 36.601562 35.5 36.601562 34.898438 36.601562 C 35 36.699219 35 36.699219 35 36.699219 C 36 37.699219 37 38.699219 37.898438 39.601562 C 38.398438 40.101562 38.800781 40.5 39.300781 41 C 39.699219 41.398438 40.101562 41.800781 40.5 42.199219 C 40.699219 42.398438 40.898438 42.601562 41.199219 42.898438 C 41.398438 43.101562 41.601562 43.300781 41.800781 43.5 C 41.898438 43.601562 42 43.699219 42 43.699219 C 42.101562 43.800781 42.199219 43.898438 42.300781 44 C 42.300781 44 42.300781 44 42.398438 44.101562 C 42.699219 44.398438 42.699219 44.398438 42.699219 44.699219 C 42.699219 44.898438 42.699219 45 42.601562 45.101562 C 42.398438 45.300781 42.300781 45.300781 42.101562 45.300781 C 41.699219 45.300781 41.5 45 41.199219 44.800781 C 41.199219 44.800781 41.101562 44.699219 41.101562 44.699219 C 41 44.601562 40.898438 44.5 40.800781 44.398438 C 40.699219 44.300781 40.601562 44.199219 40.601562 44.199219 C 40.398438 44 40.199219 43.800781 40 43.601562 C 39.800781 43.398438 39.601562 43.199219 39.398438 43 C 39 42.601562 38.601562 42.199219 38.199219 41.800781 C 37.699219 41.300781 37.300781 40.898438 36.800781 40.398438 C 35.800781 39.398438 34.898438 38.5 33.898438 37.5 C 33.898438 37.5 33.898438 37.601562 33.898438 37.601562 C 33.898438 38.101562 33.898438 38.5 33.898438 39 C 33.898438 39.199219 33.898438 39.5 33.898438 39.699219 C 33.898438 39.898438 33.898438 40.199219 33.898438 40.398438 C 33.898438 40.5 33.898438 40.601562 33.898438 40.699219 C 33.898438 40.800781 33.898438 40.898438 33.898438 41.101562 C 33.898438 41.101562 33.898438 41.199219 33.898438 41.199219 C 33.898438 41.5 33.800781 41.601562 33.601562 41.800781 C 33.5 41.898438 33.398438 41.898438 33.199219 41.898438 C 33 41.800781 32.898438 41.800781 32.699219 41.601562 C 32.601562 41.300781 32.601562 41.101562 32.601562 40.898438 C 32.601562 40.800781 32.601562 40.800781 32.601562 40.699219 C 32.601562 40.5 32.601562 40.300781 32.601562 40.199219 C 32.601562 40.101562 32.601562 39.898438 32.601562 39.800781 C 32.601562 39.5 32.601562 39.199219 32.601562 38.898438 C 32.601562 38.699219 32.601562 38.398438 32.601562 38.199219 C 32.601562 37.898438 32.601562 37.5 32.601562 37.199219 C 32.601562 37.101562 32.601562 36.898438 32.601562 36.800781 C 32.601562 36.601562 32.601562 36.398438 32.601562 36.300781 C 32.601562 36.199219 32.601562 36.199219 32.601562 36.101562 C 32.601562 35.800781 32.601562 35.601562 32.800781 35.398438 C 33.199219 35.199219 33.199219 35.199219 33.398438 35.199219 Z M 33.398438 35.199219 "/>
<path style=" stroke:none;fill-rule:nonzero;fill:rgb(0%,0%,0%);fill-opacity:1;" d="M 20.300781 35.199219 C 20.398438 35.199219 20.398438 35.199219 20.5 35.199219 C 20.601562 35.199219 20.601562 35.199219 20.699219 35.199219 C 20.800781 35.199219 20.800781 35.199219 20.898438 35.199219 C 21.101562 35.199219 21.199219 35.199219 21.398438 35.199219 C 21.5 35.199219 21.699219 35.199219 21.800781 35.199219 C 22.101562 35.199219 22.5 35.199219 22.800781 35.199219 C 23.101562 35.199219 23.5 35.199219 23.800781 35.199219 C 24.101562 35.199219 24.398438 35.199219 24.699219 35.199219 C 24.898438 35.199219 25.101562 35.199219 25.199219 35.199219 C 25.398438 35.199219 25.601562 35.199219 25.800781 35.199219 C 25.898438 35.199219 25.898438 35.199219 26 35.199219 C 26.398438 35.199219 26.398438 35.199219 26.601562 35.398438 C 26.800781 35.601562 26.800781 35.601562 26.800781 35.898438 C 26.800781 35.898438 26.800781 36 26.800781 36 C 26.800781 36.101562 26.800781 36.101562 26.800781 36.199219 C 26.800781 36.300781 26.800781 36.300781 26.800781 36.398438 C 26.800781 36.601562 26.800781 36.800781 26.800781 37 C 26.800781 37.101562 26.800781 37.300781 26.800781 37.398438 C 26.800781 37.601562 26.800781 37.898438 26.800781 38.101562 C 26.800781 38.5 26.800781 38.800781 26.800781 39.199219 C 26.800781 39.5 26.800781 39.800781 26.800781 40.101562 C 26.800781 40.199219 26.800781 40.398438 26.800781 40.5 C 26.800781 40.699219 26.800781 40.898438 26.800781 41 C 26.800781 41.101562 26.800781 41.101562 26.800781 41.199219 C 26.800781 41.699219 26.800781 41.699219 26.601562 41.898438 C 26.398438 42 26.199219 42 25.898438 42 C 25.699219 41.898438 25.699219 41.898438 25.601562 41.699219 C 25.5 41.5 25.5 41.300781 25.5 41.101562 C 25.5 41 25.5 41 25.5 41 C 25.5 40.898438 25.5 40.800781 25.5 40.601562 C 25.5 40.5 25.5 40.398438 25.5 40.300781 C 25.5 40.101562 25.5 39.898438 25.5 39.601562 C 25.5 39.398438 25.5 39.101562 25.5 38.898438 C 25.5 38.5 25.5 38 25.5 37.601562 C 25.5 37.601562 25.398438 37.699219 25.398438 37.699219 C 24.398438 38.699219 23.398438 39.699219 22.5 40.601562 C 22 41.101562 21.601562 41.5 21.101562 42 C 20.699219 42.398438 20.300781 42.800781 19.898438 43.199219 C 19.699219 43.398438 19.5 43.601562 19.199219 43.898438 C 19 44.101562 18.800781 44.300781 18.601562 44.5 C 18.5 44.601562 18.398438 44.699219 18.398438 44.699219 C 18.300781 44.800781 18.199219 44.898438 18.101562 45 C 18 45 18 45 18 45 C 17.699219 45.300781 17.699219 45.300781 17.398438 45.300781 C 17.199219 45.300781 17.101562 45.300781 17 45.199219 C 16.800781 45 16.800781 44.898438 16.800781 44.601562 C 16.800781 44.398438 16.898438 44.398438 17 44.199219 C 17 44.199219 17.101562 44.101562 17.101562 44.101562 C 17.101562 44 17.199219 44 17.199219 44 C 17.199219 44 17.300781 43.898438 17.300781 43.898438 C 17.5 43.699219 17.699219 43.5 18 43.199219 C 18.101562 43.101562 18.101562 43.101562 18.199219 43 C 18.398438 42.800781 18.601562 42.601562 18.800781 42.398438 C 19 42.199219 19.199219 42 19.398438 41.800781 C 19.800781 41.398438 20.199219 41 20.601562 40.601562 C 21 40.199219 21.5 39.699219 21.898438 39.300781 C 22.800781 38.398438 23.699219 37.5 24.699219 36.5 C 24.601562 36.5 24.601562 36.5 24.5 36.5 C 24 36.5 23.398438 36.5 22.898438 36.5 C 22.601562 36.5 22.398438 36.5 22.101562 36.5 C 21.800781 36.5 21.601562 36.5 21.300781 36.5 C 21.199219 36.5 21.101562 36.5 21 36.5 C 20.898438 36.5 20.699219 36.5 20.601562 36.5 C 20.601562 36.5 20.5 36.5 20.5 36.5 C 20.300781 36.5 20.101562 36.5 19.898438 36.300781 C 19.699219 36.101562 19.699219 36 19.699219 35.699219 C 19.699219 35.5 19.800781 35.398438 20 35.300781 C 20.101562 35.199219 20.199219 35.199219 20.300781 35.199219 Z M 20.300781 35.199219 "/>
<path style=" stroke:none;fill-rule:nonzero;fill:rgb(0%,0%,0%);fill-opacity:1;" d="M 17.398438 19.101562 C 17.601562 19.101562 17.601562 19.199219 17.800781 19.300781 C 17.800781 19.300781 17.898438 19.398438 17.898438 19.398438 C 18 19.398438 18 19.5 18.101562 19.5 C 18.101562 19.5 18.199219 19.601562 18.199219 19.601562 C 18.398438 19.800781 18.601562 20 18.898438 20.300781 C 19 20.398438 19 20.398438 19.101562 20.5 C 19.300781 20.699219 19.5 20.898438 19.699219 21.101562 C 19.898438 21.300781 20.101562 21.5 20.300781 21.699219 C 20.699219 22.101562 21.101562 22.5 21.5 22.898438 C 21.898438 23.300781 22.398438 23.800781 22.800781 24.199219 C 23.699219 25.101562 24.601562 26 25.601562 27 C 25.601562 27 25.601562 26.898438 25.601562 26.898438 C 25.601562 26.5 25.601562 26 25.601562 25.601562 C 25.601562 25.398438 25.601562 25.101562 25.601562 24.898438 C 25.601562 24.699219 25.601562 24.5 25.601562 24.199219 C 25.601562 24.101562 25.601562 24 25.601562 23.898438 C 25.601562 23.800781 25.601562 23.699219 25.601562 23.5 C 25.601562 23.398438 25.601562 23.398438 25.601562 23.300781 C 25.601562 23.101562 25.699219 22.800781 25.898438 22.699219 C 26.101562 22.601562 26.199219 22.601562 26.398438 22.601562 C 26.601562 22.699219 26.699219 22.800781 26.898438 23 C 26.898438 23.101562 26.898438 23.101562 26.898438 23.199219 C 26.898438 23.199219 26.898438 23.300781 26.898438 23.300781 C 26.898438 23.398438 26.898438 23.398438 26.898438 23.5 C 26.898438 23.601562 26.898438 23.601562 26.898438 23.699219 C 26.898438 23.898438 26.898438 24.101562 26.898438 24.300781 C 26.898438 24.398438 26.898438 24.601562 26.898438 24.699219 C 26.898438 25 26.898438 25.199219 26.898438 25.5 C 26.898438 25.800781 26.898438 26.101562 26.898438 26.5 C 26.898438 26.800781 26.898438 27.101562 26.898438 27.398438 C 26.898438 27.5 26.898438 27.699219 26.898438 27.800781 C 26.898438 28 26.898438 28.199219 26.898438 28.300781 C 26.898438 28.398438 26.898438 28.398438 26.898438 28.5 C 26.898438 28.699219 26.898438 28.898438 26.699219 29.101562 C 26.5 29.300781 26.398438 29.300781 26.199219 29.300781 C 26.101562 29.300781 26.101562 29.300781 26 29.300781 C 25.898438 29.300781 25.898438 29.300781 25.800781 29.300781 C 25.699219 29.300781 25.699219 29.300781 25.601562 29.300781 C 25.398438 29.300781 25.199219 29.300781 25 29.300781 C 24.898438 29.300781 24.898438 29.300781 24.800781 29.300781 C 24.5 29.300781 24.101562 29.300781 23.800781 29.300781 C 23.398438 29.300781 23 29.300781 22.699219 29.300781 C 22.398438 29.300781 22.101562 29.300781 21.800781 29.300781 C 21.601562 29.300781 21.398438 29.300781 21.300781 29.300781 C 21.101562 29.300781 20.898438 29.300781 20.699219 29.300781 C 20.601562 29.300781 20.601562 29.300781 20.5 29.300781 C 20.199219 29.300781 20 29.300781 19.800781 29.101562 C 19.699219 28.898438 19.699219 28.699219 19.699219 28.5 C 19.800781 28.300781 19.898438 28.199219 20 28.101562 C 20.199219 28 20.398438 28 20.601562 28 C 20.699219 28 20.699219 28 20.699219 28 C 20.800781 28 21 28 21.101562 28 C 21.199219 28 21.300781 28 21.398438 28 C 21.699219 28 21.898438 28 22.199219 28 C 22.5 28 22.699219 28 23 28 C 23.5 28 24.101562 28 24.601562 28 C 24.601562 28 24.601562 28 24.5 27.898438 C 24 27.398438 23.5 26.898438 23 26.398438 C 22.800781 26.199219 22.5 25.898438 22.300781 25.699219 C 22.101562 25.5 21.800781 25.199219 21.601562 25 C 21.5 24.898438 21.398438 24.800781 21.300781 24.699219 C 21.199219 24.601562 21 24.398438 20.898438 24.300781 C 20.898438 24.300781 20.800781 24.199219 20.800781 24.199219 C 20.601562 24 20.398438 23.800781 20.199219 23.601562 C 20.101562 23.398438 19.898438 23.300781 19.800781 23.199219 C 19.800781 23.199219 19.699219 23.101562 19.699219 23.101562 C 19.601562 23 19.601562 23 19.5 22.898438 C 19.398438 22.800781 19.300781 22.699219 19.199219 22.601562 C 18.898438 22.300781 18.601562 22 18.300781 21.699219 C 18.101562 21.5 17.898438 21.300781 17.699219 21.101562 C 17.601562 21 17.601562 21 17.5 20.898438 C 17.398438 20.800781 17.300781 20.699219 17.199219 20.601562 C 17.199219 20.601562 17.101562 20.5 17.101562 20.5 C 16.898438 20.300781 16.800781 20.199219 16.800781 19.898438 C 16.800781 19.699219 16.898438 19.601562 17 19.398438 C 17.101562 19.101562 17.199219 19.101562 17.398438 19.101562 Z M 17.398438 19.101562 "/>
</g>
</svg>
