<?xml version="1.0" encoding="UTF-8"?>
<svg xmlns="http://www.w3.org/2000/svg" xmlns:xlink="http://www.w3.org/1999/xlink" width="60px" height="60px" viewBox="0 0 60 60" version="1.1">
<g id="surface1">
<path style=" stroke:none;fill-rule:nonzero;fill:rgb(3.529412%,3.529412%,3.529412%);fill-opacity:1;" d="M 55.300781 51.601562 C 55.101562 50.5 55.398438 49.300781 55.101562 48.199219 L 55.300781 48.199219 C 55.199219 48 55.199219 48 55.199219 47.800781 C 55.199219 47.199219 55.199219 46.5 55.199219 45.898438 C 55.300781 44.800781 55.101562 43.601562 55.300781 42.5 C 55.101562 41.398438 55.300781 40.398438 55.300781 39.300781 C 55.199219 38.5 55.199219 37.601562 55.300781 36.800781 C 55.199219 36.800781 55.199219 36.699219 55.101562 36.699219 C 55.300781 36.398438 55.199219 36 55.199219 35.699219 C 55.398438 32.800781 54.5 33.5 52 33.398438 C 51.898438 33.300781 51.898438 33.300781 51.800781 33.300781 C 51.398438 33.300781 51 33.300781 50.5 33.300781 C 47.300781 33.398438 44.101562 33.300781 40.800781 33.300781 C 39.199219 33.398438 37.699219 33.199219 36.101562 33.300781 C 35.199219 33.5 33.800781 33.101562 33.101562 33.699219 C 32.800781 33.898438 32.800781 34.398438 32.800781 35 C 32.800781 37.699219 32.800781 40.5 32.800781 43.199219 C 30.699219 43.199219 28.601562 43.199219 26.5 43.199219 C 25.898438 43.199219 25.398438 43.199219 24.800781 43.199219 C 23.699219 43 23.300781 43.800781 23.398438 44.800781 C 23.398438 47.601562 23.300781 50.300781 23.5 53.101562 C 21.5 53 19.398438 53 17.398438 53.101562 C 17.398438 50.699219 17.398438 48.398438 17.398438 46 C 17.398438 45.5 17.398438 44.898438 17.398438 44.398438 C 17.398438 43.601562 17.101562 43.199219 16.101562 43.300781 C 13.300781 43.300781 10.5 43.300781 7.601562 43.300781 C 5.300781 43.101562 5.699219 44.101562 5.699219 45.898438 C 5.699219 47.800781 5.699219 49.699219 5.699219 51.601562 C 5.699219 55.898438 5 54.699219 10.5 54.898438 C 23.5 54.898438 36.5 55 49.5 54.898438 C 51 54.898438 52.5 54.898438 54 54.898438 C 55.800781 55 55.199219 52.601562 55.300781 51.601562 Z M 15.800781 53.300781 L 7.5 53.300781 L 7.5 45.699219 C 7.398438 45.5 7.5 45.300781 7.601562 45.199219 C 7.601562 45.199219 7.5 45.199219 7.5 45.199219 C 7.699219 45.199219 7.898438 45.101562 8.101562 45.199219 C 9.101562 45.199219 10.101562 45.199219 11 45.199219 C 11.101562 45.199219 11.199219 45.199219 11.300781 45.199219 C 12.699219 45.199219 14.398438 45.199219 15.800781 45.199219 C 15.800781 46 15.699219 46.800781 15.699219 47.601562 C 15.898438 48.300781 15.800781 49.101562 15.699219 49.898438 C 15.601562 50.601562 15.800781 51.398438 15.699219 52.101562 C 15.800781 52.5 15.800781 52.5 15.800781 53.300781 Z M 33 53.300781 L 25.398438 53.300781 L 25.398438 53.199219 C 25.300781 53.199219 25.300781 53.101562 25.199219 53.101562 L 25.199219 45.699219 C 25.199219 45.601562 25.199219 45.5 25.199219 45.398438 C 25.300781 45.398438 25.300781 45.398438 25.300781 45.300781 C 25.199219 45.300781 25.199219 45.300781 25.199219 45.199219 L 25.398438 45.199219 C 26.699219 45.101562 28.101562 45.199219 29.398438 45.199219 C 30.601562 45.199219 31.800781 45.199219 32.898438 45.199219 L 32.898438 53.300781 Z M 34.601562 42.800781 C 34.601562 40.300781 34.601562 37.800781 34.601562 35.300781 C 37.5 35.199219 40.398438 35.101562 43.300781 35.300781 L 43.300781 37.699219 C 43.300781 37.800781 43.300781 37.800781 43.300781 37.898438 C 43.300781 39.300781 43.300781 41.898438 43.300781 43.300781 C 43.199219 43.300781 43.199219 43.300781 43.199219 43.398438 C 43.199219 43.398438 43.300781 43.398438 43.300781 43.5 C 40.398438 43.5 37.5 43.5 34.601562 43.5 C 34.601562 43.199219 34.601562 43.199219 34.601562 42.800781 Z M 43.398438 45.800781 L 43.398438 53.300781 L 34.699219 53.300781 C 34.699219 50.800781 34.699219 47.601562 34.699219 45.199219 C 37.101562 45.199219 39.398438 45 41.800781 45.101562 C 42.199219 45 43.699219 44.898438 43.398438 45.800781 Z M 53.601562 53.300781 L 45 53.300781 L 45 45.199219 C 47.699219 45.199219 50.398438 45.101562 53.199219 45.101562 C 53.398438 45.101562 53.5 45.199219 53.601562 45.398438 Z M 53.601562 36.101562 C 53.5 39.800781 53.601562 37.800781 53.601562 43.5 C 53.5 43.5 53.5 43.398438 53.398438 43.398438 C 53.300781 43.5 53.300781 43.5 53.199219 43.5 C 53 43.5 52.898438 43.5 52.800781 43.5 C 50.199219 43.5 47.601562 43.5 45 43.5 C 45 41.398438 45 39.300781 45 37.199219 C 45.101562 36.898438 44.800781 35.199219 45.199219 35.300781 C 48 35.300781 50.699219 35.300781 53.5 35.300781 C 53.601562 35.5 53.601562 35.800781 53.601562 36.101562 Z M 53.601562 36.101562 "/>
<path style=" stroke:none;fill-rule:nonzero;fill:rgb(3.921569%,3.921569%,3.921569%);fill-opacity:1;" d="M 55.199219 27 C 55.199219 26.898438 55.199219 26.800781 55.199219 26.898438 C 55.199219 25.898438 55.199219 24.898438 55.199219 23.800781 C 55.101562 21.800781 55.199219 19.800781 55.199219 17.898438 C 55.101562 15.699219 55.898438 15.398438 52.199219 15.5 C 50.300781 15.601562 48.300781 15.398438 46.300781 15.601562 L 46.300781 15.5 C 46.300781 15.5 46.199219 15.5 46.199219 15.5 C 46.199219 15.5 46.199219 15.5 46.199219 15.601562 C 45.5 15.398438 44.699219 15.601562 44 15.5 C 43.101562 15.5 41.898438 15.398438 42 16.699219 C 42 16.800781 42 16.898438 42 17 C 41.898438 18.101562 42 19.398438 42 20.5 C 42 21.199219 41.898438 22 42 22.699219 C 41.800781 24 41.898438 25.300781 42 26.601562 C 42 27.398438 42.101562 28.601562 43.101562 28.699219 C 44.101562 28.898438 45.101562 28.699219 46.101562 28.800781 C 47.199219 28.800781 48.300781 28.699219 49.398438 28.800781 C 50.601562 28.898438 51.898438 28.898438 53.199219 28.898438 C 54.5 28.800781 55.398438 28.5 55.199219 27 Z M 53.601562 21.699219 C 53.601562 22.898438 53.601562 24.101562 53.5 25.199219 C 53.601562 25.800781 53.601562 26.398438 53.398438 27 C 50.199219 27 46.898438 27 43.699219 27 C 43.601562 26.898438 43.601562 26.898438 43.601562 26.800781 C 43.601562 26 43.601562 25.199219 43.601562 24.398438 C 43.601562 22 43.601562 19.601562 43.601562 17.300781 C 46.601562 17.300781 49.601562 17.300781 52.699219 17.300781 C 53 17.300781 53.199219 17.199219 53.398438 17.5 C 53.5 17.5 53.5 17.398438 53.601562 17.398438 C 53.601562 18.800781 53.601562 20.300781 53.601562 21.699219 Z M 53.601562 21.699219 "/>
<path style=" stroke:none;fill-rule:nonzero;fill:rgb(3.529412%,3.921569%,3.921569%);fill-opacity:1;" d="M 18.800781 5.300781 C 18.699219 5.300781 18.601562 5.199219 18.601562 5.199219 L 18.601562 5.101562 C 16.101562 4.898438 13.601562 5.101562 11.101562 5 C 9.601562 5.101562 7.699219 4.5 7.800781 6.601562 C 7.800781 7.699219 7.800781 8.800781 7.800781 10 C 7.800781 10.5 7.699219 11 7.800781 11.5 C 7.898438 12.300781 7.898438 13.101562 7.800781 14 C 7.800781 14.5 7.699219 15.199219 8 15.699219 C 8.898438 16.300781 10 16.101562 10.898438 16.101562 C 12.398438 16.101562 14 16.101562 15.5 16 C 16.199219 16 16.800781 16 17.5 15.898438 C 18 15.898438 18.5 15.898438 18.699219 15.398438 C 18.699219 15.199219 18.898438 15 18.898438 14.800781 C 18.898438 13.300781 18.898438 11.800781 18.898438 10.300781 C 18.898438 9.300781 18.898438 8.199219 18.898438 7.199219 C 19 6.699219 19.101562 5.898438 18.800781 5.300781 Z M 17.300781 14.199219 C 16.898438 14.199219 16.398438 14.199219 15.898438 14.199219 C 15.800781 14.199219 15.699219 14.199219 15.601562 14.199219 C 13.601562 14.199219 11.5 14.300781 9.5 14.101562 L 9.5 13.300781 C 9.398438 11.101562 9.5 8.898438 9.5 6.699219 C 10.101562 6.5 10.800781 6.699219 11.5 6.601562 C 11.5 6.601562 11.601562 6.601562 11.601562 6.601562 C 12.101562 6.601562 12.601562 6.601562 13.101562 6.601562 C 14.300781 6.601562 16 6.601562 17.300781 6.601562 C 17.5 7.5 17.300781 8.5 17.398438 9.398438 C 17.398438 11.101562 17.5 12.699219 17.300781 14.199219 Z M 17.300781 14.199219 "/>
<path style=" stroke:none;fill-rule:nonzero;fill:rgb(3.529412%,3.921569%,3.921569%);fill-opacity:1;" d="M 26.199219 40.101562 C 26.199219 37.601562 26.199219 35.199219 26.199219 32.699219 C 26.199219 32.199219 26.300781 31.699219 26 31.199219 C 25.199219 30.5 23.898438 31 22.898438 30.898438 C 20.898438 30.898438 18.800781 30.898438 16.800781 30.898438 C 15.601562 30.898438 15.199219 30.898438 15.300781 32.699219 C 15.300781 34.5 15.300781 36.398438 15.300781 38.199219 C 15.398438 39.300781 15 40.398438 15.601562 41.398438 C 15.898438 41.601562 15.898438 41.601562 16.5 41.601562 C 18.101562 41.601562 19.800781 41.601562 21.398438 41.601562 C 22.601562 41.601562 23.699219 41.601562 24.898438 41.601562 C 26 41.800781 26.300781 41 26.199219 40.101562 Z M 24.5 33.300781 C 24.5 34.898438 24.398438 36.601562 24.398438 38.199219 C 24.398438 38.800781 24.5 39.398438 24.398438 40 C 22.5 40 20.601562 40 18.601562 40 C 18.300781 39.898438 16.699219 40.199219 16.898438 39.800781 C 17 37.398438 16.800781 34.898438 17 32.5 C 19.199219 32.398438 21.699219 32.601562 23.898438 32.398438 C 24 32.398438 24 32.398438 23.898438 32.398438 C 24.601562 32.398438 24.699219 32.800781 24.5 33.300781 Z M 24.5 33.300781 "/>
<path style=" stroke:none;fill-rule:nonzero;fill:rgb(4.313726%,4.313726%,4.313726%);fill-opacity:1;" d="M 37.300781 23.199219 C 37.300781 22.800781 37.300781 22.398438 37.199219 22.101562 L 37.398438 22.101562 C 37.199219 21.699219 37.398438 21.199219 37.101562 20.800781 C 36.300781 20.101562 34.601562 20.601562 33.601562 20.398438 C 32.300781 20.398438 31 20.398438 29.601562 20.398438 C 28.699219 20.300781 28.398438 20.601562 28.199219 21.5 C 28.398438 21.898438 28.101562 22.398438 28.300781 22.898438 C 28.300781 22.898438 28.300781 22.898438 28.199219 22.898438 C 28.300781 24 28.5 25.101562 28.300781 26.199219 C 28.101562 26.800781 28.199219 27.601562 28.199219 28.199219 C 28.101562 29 28.800781 29.601562 29.601562 29.5 C 31.199219 29.5 32.898438 29.5 34.5 29.5 C 35.398438 29.398438 36.300781 29.699219 37 29.101562 C 37.601562 27.898438 37.101562 26 37.398438 24.699219 L 37.199219 24.699219 C 37.398438 24.300781 37.398438 23.800781 37.300781 23.199219 Z M 35.601562 27 C 35.601562 27.300781 35.601562 27.5 35.5 27.800781 C 34.199219 27.800781 32.800781 27.800781 31.5 27.800781 C 31 27.800781 30.398438 27.800781 29.898438 27.800781 C 29.800781 27.699219 29.800781 27.699219 29.800781 27.5 C 29.800781 25.699219 29.699219 23.898438 29.898438 22.101562 L 35.5 22.101562 C 35.601562 22.5 35.601562 22.601562 35.601562 22.898438 C 35.601562 24.300781 35.601562 25.699219 35.601562 27 Z M 35.601562 27 "/>
<path style=" stroke:none;fill-rule:nonzero;fill:rgb(3.529412%,3.921569%,3.921569%);fill-opacity:1;" d="M 44.199219 10 C 44.199219 8.898438 44.199219 7.898438 44.199219 6.800781 C 44.300781 5.101562 43 5.300781 41.800781 5.300781 C 41.398438 5.199219 41.199219 5.398438 40.898438 5.300781 C 40.699219 5.398438 40.601562 5.5 40.398438 5.300781 C 39.300781 5.300781 37.300781 4.898438 37.5 6.601562 C 37.5 7.898438 37.5 9.101562 37.5 10.398438 C 37.398438 11.800781 37.800781 12.300781 39.199219 12.199219 C 40.101562 12.199219 41 12.199219 41.898438 12.199219 C 42.5 12.199219 43.398438 12.300781 44 11.898438 C 44.199219 11.699219 44.199219 11 44.199219 10 Z M 42.5 8 C 42.5 8.898438 42.5 9.699219 42.5 10.601562 L 39.101562 10.601562 C 39 10.300781 39 10.300781 39 10.101562 C 39 9.101562 39 8 39 7 C 39.300781 7 42.101562 6.898438 42.300781 7.101562 C 42.5 7.5 42.5 7.5 42.5 8 Z M 42.5 8 "/>
<path style=" stroke:none;fill-rule:nonzero;fill:rgb(4.313726%,4.313726%,4.313726%);fill-opacity:1;" d="M 21.800781 23.800781 C 21.800781 23 21.699219 22.199219 21.898438 21.398438 C 22.199219 19.898438 21.398438 19.398438 19.300781 19.699219 C 18.699219 19.898438 18.101562 19.800781 17.601562 19.699219 C 16.898438 19.699219 15.5 19.601562 15.300781 20.5 C 15.300781 21.5 15.300781 22.398438 15.300781 23.398438 C 15.199219 27.101562 15.5 26.398438 18.898438 26.5 C 19.699219 26.398438 21.601562 26.800781 21.898438 25.800781 C 21.898438 25.101562 21.800781 24.398438 21.800781 23.800781 Z M 20.300781 24.601562 L 17.101562 24.601562 L 17.101562 21.5 C 17.300781 21.398438 17.300781 21.398438 17.601562 21.398438 C 18.5 21.398438 19.398438 21.300781 20.300781 21.5 Z M 20.300781 24.601562 "/>
<path style=" stroke:none;fill-rule:nonzero;fill:rgb(3.921569%,4.313726%,3.921569%);fill-opacity:1;" d="M 31.199219 12.398438 C 31.199219 11.300781 31.5 10 31 9 L 30.800781 9 L 30.800781 8.800781 C 29.601562 8.398438 28.398438 8.800781 27.199219 8.601562 C 24.601562 8.5 25.398438 9.601562 25.300781 11.300781 C 25.398438 12.398438 24.699219 14.5 26.601562 14.300781 C 27.601562 14.300781 28.601562 14.300781 29.601562 14.300781 C 31.199219 14.601562 31.300781 13.699219 31.199219 12.398438 Z M 29.5 11.898438 C 29.5 12.199219 29.5 12.5 29.601562 12.699219 C 28.800781 12.699219 28 12.699219 27.199219 12.699219 C 27 12.601562 27 12.601562 27 12.398438 C 27 11.699219 27 11 27.101562 10.398438 C 27.898438 10.398438 28.601562 10.300781 29.398438 10.398438 C 29.699219 10.800781 29.398438 11.398438 29.5 11.898438 Z M 29.5 11.898438 "/>
<path style=" stroke:none;fill-rule:nonzero;fill:rgb(3.921569%,4.313726%,4.313726%);fill-opacity:1;" d="M 8.5 24.898438 C 8.898438 25 9.101562 24.800781 9.5 24.898438 C 10.800781 25.300781 10.199219 27.699219 10.300781 28.699219 C 10.5 30.300781 9.601562 30.5 8.300781 30.398438 C 7.199219 30.300781 5.800781 30.800781 4.800781 30 C 4.601562 29.300781 4.699219 28.398438 4.699219 27.601562 C 4.601562 25 4.800781 24.800781 6.5 24.800781 C 7.199219 24.898438 7.898438 24.800781 8.5 24.898438 Z M 6.398438 26.699219 C 6.398438 27.398438 6.300781 28.101562 6.5 28.699219 C 6.898438 28.800781 7.300781 28.800781 7.601562 28.699219 C 7.898438 28.699219 7.898438 28.699219 8.101562 28.699219 C 8.300781 28.699219 8.398438 28.601562 8.601562 28.601562 C 8.601562 27.898438 8.601562 27.199219 8.601562 26.5 C 7.898438 26.5 7.398438 26.5 6.699219 26.5 C 6.5 26.601562 6.5 26.601562 6.398438 26.699219 Z M 6.398438 26.699219 "/>
</g>
</svg>
