<?xml version="1.0" encoding="UTF-8"?>
<svg xmlns="http://www.w3.org/2000/svg" xmlns:xlink="http://www.w3.org/1999/xlink" width="32px" height="32px" viewBox="0 0 32 32" version="1.1">
<g id="surface1">
<path style=" stroke:none;fill-rule:nonzero;fill:rgb(0%,0%,0%);fill-opacity:1;" d="M 5.441406 -0.0859375 C 5.691406 -0.0898438 5.945312 -0.0898438 6.207031 -0.09375 C 7.039062 -0.0976562 7.875 -0.0976562 8.707031 -0.0976562 C 9.289062 -0.0976562 9.871094 -0.0976562 10.453125 -0.101562 C 11.671875 -0.101562 12.886719 -0.101562 14.105469 -0.101562 C 15.664062 -0.0976562 17.222656 -0.105469 18.78125 -0.113281 C 19.980469 -0.117188 21.183594 -0.117188 22.382812 -0.117188 C 22.957031 -0.117188 23.53125 -0.117188 24.105469 -0.121094 C 24.910156 -0.125 25.714844 -0.121094 26.519531 -0.117188 C 26.871094 -0.121094 26.871094 -0.121094 27.234375 -0.125 C 28.734375 -0.109375 29.765625 0.160156 31.039062 0.960938 C 32.121094 2.496094 32.132812 3.898438 32.105469 5.703125 C 32.105469 5.96875 32.105469 6.238281 32.101562 6.511719 C 32.101562 7.070312 32.097656 7.625 32.089844 8.183594 C 32.078125 9.042969 32.078125 9.898438 32.074219 10.753906 C 32.070312 11.296875 32.070312 11.839844 32.066406 12.386719 C 32.0625 12.640625 32.0625 12.898438 32.0625 13.164062 C 32.039062 14.964844 32.039062 14.964844 31.679688 15.679688 C 31.152344 15.574219 30.625 15.46875 30.078125 15.359375 C 30.078125 13.246094 30.078125 11.136719 30.078125 8.960938 C 20.789062 8.960938 11.496094 8.960938 1.921875 8.960938 C 1.960938 12.273438 2 15.585938 2.039062 19 C 2.050781 20.046875 2.0625 21.09375 2.074219 22.171875 C 2.085938 22.996094 2.097656 23.820312 2.109375 24.648438 C 2.109375 24.863281 2.109375 25.078125 2.113281 25.300781 C 2.117188 25.933594 2.128906 26.5625 2.136719 27.195312 C 2.140625 27.554688 2.148438 27.910156 2.152344 28.277344 C 2.15625 29.171875 2.15625 29.171875 2.878906 29.761719 C 3.820312 29.839844 4.730469 29.878906 5.671875 29.890625 C 5.949219 29.898438 6.226562 29.90625 6.507812 29.910156 C 7.394531 29.929688 8.277344 29.945312 9.160156 29.960938 C 9.757812 29.972656 10.355469 29.984375 10.953125 29.996094 C 12.421875 30.027344 13.890625 30.054688 15.359375 30.078125 C 15.464844 30.609375 15.570312 31.136719 15.679688 31.679688 C 14.648438 32.195312 13.519531 32.058594 12.386719 32.066406 C 12.121094 32.066406 11.855469 32.070312 11.582031 32.070312 C 11.023438 32.074219 10.460938 32.074219 9.902344 32.078125 C 9.046875 32.078125 8.195312 32.089844 7.339844 32.101562 C 6.796875 32.101562 6.25 32.105469 5.703125 32.105469 C 5.324219 32.109375 5.324219 32.109375 4.933594 32.117188 C 3.382812 32.109375 2.285156 31.941406 0.960938 31.039062 C -0.0898438 29.699219 -0.140625 28.464844 -0.128906 26.820312 C -0.132812 26.5625 -0.132812 26.300781 -0.136719 26.035156 C -0.140625 25.179688 -0.140625 24.324219 -0.140625 23.472656 C -0.140625 22.875 -0.140625 22.28125 -0.144531 21.683594 C -0.148438 20.4375 -0.144531 19.1875 -0.144531 17.941406 C -0.140625 16.34375 -0.144531 14.746094 -0.15625 13.148438 C -0.160156 11.917969 -0.160156 10.6875 -0.160156 9.457031 C -0.160156 8.871094 -0.160156 8.28125 -0.164062 7.691406 C -0.167969 6.867188 -0.167969 6.042969 -0.160156 5.21875 C -0.164062 4.976562 -0.167969 4.734375 -0.171875 4.488281 C -0.148438 2.84375 0.195312 1.878906 1.28125 0.640625 C 2.585938 -0.148438 3.957031 -0.09375 5.441406 -0.0859375 Z M 1.921875 2.878906 C 1.921875 4.253906 1.921875 5.625 1.921875 7.039062 C 11.210938 7.039062 20.503906 7.039062 30.078125 7.039062 C 30.078125 5.667969 30.078125 4.292969 30.078125 2.878906 C 29.035156 1.832031 28.753906 1.808594 27.347656 1.789062 C 26.984375 1.792969 26.984375 1.792969 26.617188 1.796875 C 26.363281 1.792969 26.109375 1.792969 25.847656 1.789062 C 25.003906 1.785156 24.164062 1.789062 23.320312 1.792969 C 22.734375 1.792969 22.152344 1.789062 21.566406 1.789062 C 20.339844 1.789062 19.113281 1.789062 17.890625 1.792969 C 16.316406 1.800781 14.746094 1.796875 13.171875 1.792969 C 11.964844 1.789062 10.757812 1.789062 9.550781 1.792969 C 8.972656 1.792969 8.390625 1.792969 7.8125 1.789062 C 7 1.785156 6.191406 1.789062 5.382812 1.796875 C 5.140625 1.792969 4.902344 1.792969 4.652344 1.789062 C 3.246094 1.808594 2.964844 1.832031 1.921875 2.878906 Z M 1.921875 2.878906 "/>
<path style=" stroke:none;fill-rule:nonzero;fill:rgb(0%,0%,0%);fill-opacity:1;" d="M 28.265625 17.539062 C 30.027344 18.796875 31.160156 20.375 31.921875 22.398438 C 32.21875 24.785156 31.921875 26.882812 30.546875 28.878906 C 28.992188 30.75 27.609375 31.632812 25.179688 31.960938 C 22.667969 32.128906 20.496094 31.386719 18.558594 29.761719 C 16.796875 27.398438 16.324219 25.339844 16.640625 22.398438 C 17.476562 19.78125 18.820312 18.378906 21.160156 17.019531 C 23.460938 16.132812 26.148438 16.285156 28.265625 17.539062 Z M 19.578125 20.839844 C 18.328125 22.484375 18.359375 23.890625 18.558594 25.921875 C 19.1875 27.785156 20.484375 28.925781 22.179688 29.839844 C 24.1875 30.402344 25.769531 30.222656 27.574219 29.230469 C 28.84375 28.296875 29.589844 27.074219 30.078125 25.601562 C 30.253906 23.570312 29.976562 22.167969 28.800781 20.480469 C 27.730469 19.351562 26.703125 18.636719 25.125 18.484375 C 22.585938 18.417969 21.261719 18.894531 19.578125 20.839844 Z M 19.578125 20.839844 "/>
<path style=" stroke:none;fill-rule:nonzero;fill:rgb(0%,0%,0%);fill-opacity:1;" d="M 21.441406 23.359375 C 23.339844 23.359375 25.242188 23.359375 27.199219 23.359375 C 27.304688 23.78125 27.410156 24.203125 27.519531 24.640625 C 26.878906 25.28125 26.878906 25.28125 25.71875 25.355469 C 25.253906 25.351562 24.785156 25.347656 24.320312 25.339844 C 24.085938 25.339844 23.847656 25.339844 23.605469 25.339844 C 21.851562 25.324219 21.851562 25.324219 21.121094 24.960938 C 21.226562 24.433594 21.332031 23.902344 21.441406 23.359375 Z M 21.441406 23.359375 "/>
<path style=" stroke:none;fill-rule:nonzero;fill:rgb(0%,0%,0%);fill-opacity:1;" d="M 5.160156 3.480469 C 5.464844 3.492188 5.765625 3.507812 6.078125 3.519531 C 6.203125 4.050781 6.308594 4.582031 6.398438 5.121094 C 6.078125 5.441406 6.078125 5.441406 4.941406 5.460938 C 4.578125 5.453125 4.214844 5.445312 3.839844 5.441406 C 3.640625 4.839844 3.640625 4.839844 3.519531 4.160156 C 4.160156 3.519531 4.160156 3.519531 5.160156 3.480469 Z M 5.160156 3.480469 "/>
<path style=" stroke:none;fill-rule:nonzero;fill:rgb(0%,0%,0%);fill-opacity:1;" d="M 8.980469 3.5 C 9.445312 3.511719 9.445312 3.511719 9.921875 3.519531 C 10.132812 3.941406 10.34375 4.363281 10.558594 4.800781 C 9.921875 5.441406 9.921875 5.441406 8.921875 5.480469 C 8.464844 5.460938 8.464844 5.460938 8 5.441406 C 7.878906 4.910156 7.773438 4.375 7.679688 3.839844 C 8 3.519531 8 3.519531 8.980469 3.5 Z M 8.980469 3.5 "/>
</g>
</svg>
