<?xml version="1.0" encoding="UTF-8"?>
<svg xmlns="http://www.w3.org/2000/svg" xmlns:xlink="http://www.w3.org/1999/xlink" width="60px" height="60px" viewBox="0 0 60 60" version="1.1">
<g id="surface1">
<path style=" stroke:none;fill-rule:nonzero;fill:rgb(0%,0%,0%);fill-opacity:1;" d="M 9.46875 7.6875 C 7.40625 13.3125 3.65625 39.375 3.9375 46.40625 L 4.21875 53.90625 L 55.78125 53.90625 L 56.0625 46.40625 C 56.34375 39.375 52.59375 13.3125 50.53125 7.6875 C 49.78125 5.625 49.59375 5.625 30 5.625 C 10.40625 5.625 10.21875 5.625 9.46875 7.6875 Z M 49.21875 9.5625 C 49.5 10.78125 50.53125 16.78125 51.65625 22.96875 C 52.6875 29.15625 53.71875 34.96875 54 35.8125 C 54.46875 37.40625 52.875 37.5 30 37.5 C 7.125 37.5 5.53125 37.40625 6 35.8125 C 6.28125 34.96875 7.3125 29.15625 8.34375 22.96875 C 9.46875 16.78125 10.5 10.78125 10.78125 9.5625 C 11.25 7.5 11.34375 7.5 30 7.5 C 48.65625 7.5 48.75 7.5 49.21875 9.5625 Z M 54.375 45.9375 L 54.375 52.5 L 5.625 52.5 L 5.625 39.375 L 54.375 39.375 Z M 54.375 45.9375 "/>
<path style=" stroke:none;fill-rule:nonzero;fill:rgb(0%,0%,0%);fill-opacity:1;" d="M 45.375 44.4375 C 44.4375 46.875 45.75 48.9375 48 48.5625 C 49.59375 48.375 50.15625 47.625 50.15625 45.9375 C 50.15625 44.25 49.59375 43.5 48 43.3125 C 46.78125 43.125 45.65625 43.59375 45.375 44.4375 Z M 48.75 45.9375 C 48.75 46.40625 48.375 46.875 47.8125 46.875 C 47.34375 46.875 46.875 46.40625 46.875 45.9375 C 46.875 45.375 47.34375 45 47.8125 45 C 48.375 45 48.75 45.375 48.75 45.9375 Z M 48.75 45.9375 "/>
<path style=" stroke:none;fill-rule:nonzero;fill:rgb(0%,0%,0%);fill-opacity:1;" d="M 9.375 46.40625 L 9.375 48.75 L 39.375 48.75 L 39.375 46.40625 C 39.375 45.09375 39 44.0625 38.4375 44.0625 C 37.96875 44.0625 37.5 44.71875 37.5 45.46875 C 37.5 46.21875 36.84375 46.875 36.09375 46.875 C 35.34375 46.875 34.6875 46.21875 34.6875 45.46875 C 34.6875 44.71875 34.3125 44.0625 33.75 44.0625 C 33.28125 44.0625 32.8125 44.71875 32.8125 45.46875 C 32.8125 46.21875 32.15625 46.875 31.40625 46.875 C 30.65625 46.875 30 46.21875 30 45.46875 C 30 44.71875 29.625 44.0625 29.0625 44.0625 C 28.59375 44.0625 28.125 44.71875 28.125 45.46875 C 28.125 46.21875 27.46875 46.875 26.71875 46.875 C 25.96875 46.875 25.3125 46.21875 25.3125 45.46875 C 25.3125 44.71875 24.9375 44.0625 24.375 44.0625 C 23.90625 44.0625 23.4375 44.71875 23.4375 45.46875 C 23.4375 46.21875 22.78125 46.875 22.03125 46.875 C 21.28125 46.875 20.625 46.21875 20.625 45.46875 C 20.625 44.71875 20.25 44.0625 19.6875 44.0625 C 19.21875 44.0625 18.75 44.71875 18.75 45.46875 C 18.75 46.21875 18.09375 46.875 17.34375 46.875 C 16.59375 46.875 15.9375 46.21875 15.9375 45.46875 C 15.9375 44.71875 15.5625 44.0625 15 44.0625 C 14.53125 44.0625 14.0625 44.71875 14.0625 45.46875 C 14.0625 46.21875 13.40625 46.875 12.65625 46.875 C 11.90625 46.875 11.25 46.21875 11.25 45.46875 C 11.25 44.71875 10.875 44.0625 10.3125 44.0625 C 9.84375 44.0625 9.375 45.09375 9.375 46.40625 Z M 9.375 46.40625 "/>
<path style="fill:none;stroke-width:2;stroke-linecap:round;stroke-linejoin:round;stroke:rgb(0%,0%,0%);stroke-opacity:1;stroke-miterlimit:6.6667;" d="M 37.3 34.7 C 35.7 35.5 33.9 35.9 32 35.9 C 25.2 35.9 19.7 30.4 19.7 23.6 C 19.7 20.1 21.2 16.9 23.6 14.6 " transform="matrix(0.9375,0,0,0.9375,0,0)"/>
<path style="fill:none;stroke-width:2;stroke-linecap:round;stroke-linejoin:round;stroke:rgb(0%,0%,0%);stroke-opacity:1;stroke-miterlimit:6.6667;" d="M 27.9 11.9 C 29.2 11.4 30.6 11.2 32 11.2 C 38.8 11.2 44.3 16.7 44.3 23.5 C 44.3 26.3 43.4 28.9 41.8 31 " transform="matrix(0.9375,0,0,0.9375,0,0)"/>
<path style="fill:none;stroke-width:2;stroke-linecap:butt;stroke-linejoin:miter;stroke:rgb(0%,0%,0%);stroke-opacity:1;stroke-miterlimit:6.6667;" d="M 23.3 32.3 L 40.7 14.9 " transform="matrix(0.9375,0,0,0.9375,0,0)"/>
</g>
</svg>
