<?xml version="1.0" encoding="utf-8"?>
<!-- Generator: Adobe Illustrator 24.3.0, SVG Export Plug-In . SVG Version: 6.00 Build 0)  -->
<svg version="1.1" id="Слой_1" xmlns="http://www.w3.org/2000/svg" xmlns:xlink="http://www.w3.org/1999/xlink" x="0px" y="0px"
	 viewBox="0 0 64 64" style="enable-background:new 0 0 64 64;" xml:space="preserve">
<style type="text/css">
	.st0{fill:none;stroke:#000000;stroke-width:2;stroke-linecap:round;stroke-linejoin:round;stroke-miterlimit:6.6667;}
	.st1{fill:none;stroke:#000000;stroke-width:2;stroke-miterlimit:6.6667;}
</style>
<g transform="translate(0.000000,64.000000) scale(0.100000,-0.100000)">
	<path d="M101,558c-22-60-62-338-59-413l3-80h275h275l3,80c3,75-37,353-59,413c-8,22-10,22-219,22S109,580,101,558z M525,538
		c3-13,14-77,26-143c11-66,22-128,25-137c5-17-12-18-256-18s-261,1-256,18c3,9,14,71,25,137c12,66,23,130,26,143c5,22,6,22,205,22
		S520,560,525,538z M580,150V80H320H60v70v70h260h260V150z"/>
	<path d="M484,166c-10-26,4-48,28-44c17,2,23,10,23,28s-6,26-23,28C499,180,487,175,484,166z M520,150c0-5-4-10-10-10
		c-5,0-10,5-10,10c0,6,5,10,10,10C516,160,520,156,520,150z"/>
	<path d="M100,145v-25h160h160v25c0,14-4,25-10,25c-5,0-10-7-10-15s-7-15-15-15s-15,7-15,15s-4,15-10,15c-5,0-10-7-10-15
		s-7-15-15-15s-15,7-15,15s-4,15-10,15c-5,0-10-7-10-15s-7-15-15-15s-15,7-15,15s-4,15-10,15c-5,0-10-7-10-15s-7-15-15-15
		s-15,7-15,15s-4,15-10,15c-5,0-10-7-10-15s-7-15-15-15s-15,7-15,15s-4,15-10,15c-5,0-10-7-10-15s-7-15-15-15s-15,7-15,15
		s-4,15-10,15C105,170,100,159,100,145z"/>
</g>
<g>
	<path class="st0" d="M37.3,34.7c-1.6,0.8-3.4,1.2-5.3,1.2c-6.8,0-12.3-5.5-12.3-12.3c0-3.5,1.5-6.7,3.9-9"/>
	<path class="st0" d="M27.9,11.9c1.3-0.5,2.7-0.7,4.1-0.7c6.8,0,12.3,5.5,12.3,12.3c0,2.8-0.9,5.4-2.5,7.5"/>
	<line class="st1" x1="23.3" y1="32.3" x2="40.7" y2="14.9"/>
</g>
</svg>
