<?xml version="1.0" encoding="utf-8"?>
<!-- Generator: Adobe Illustrator 24.3.0, SVG Export Plug-In . SVG Version: 6.00 Build 0)  -->
<svg version="1.1" id="Слой_1" xmlns="http://www.w3.org/2000/svg" xmlns:xlink="http://www.w3.org/1999/xlink" x="0px" y="0px"
	 viewBox="0 0 96 96" style="enable-background:new 0 0 96 96;" xml:space="preserve">
<g>
	<path d="M83.9,71.3h-8.6c-0.1,0.1-0.1,0.1-0.2,0.1c0,0.2-0.1,0.4-0.1,0.6c-1.6,2.1-2.5,2.9-5.1,3.4h-0.1c-0.8,0-1.7,0-2.5,0
		c-1.5,0-1.5,0-2.9,0c-1.1,0-2.1,0-3.1,0c-2.2,0-4.3,0-6.5,0c-3.4,0-6.8,0-10.3,0c-2.2,0-4.5,0-6.7,0c-1.1,0-2.1,0-3.2,0
		c-1.1,0-2.1,0-3.1,0c-1,0-1.9,0-2.9,0c-2.4,0.1-2.5,0.1-4.5-0.4c-0.1,0-0.2-0.1-0.3-0.1c-1.6-1.2-2.3-1.9-2.7-3.2
		c-0.1-0.3-0.3-0.4-0.6-0.4h-8.2c-0.4,0-0.7,0.3-0.7,0.7c0.3,3.4,1.1,6.7,3.5,9.5l0.1,0.1c3.6,2.9,3.7,2.9,13.2,2.9
		c1.3,0,2.5,0,3.7-0.1c4,0,7.9,0,11.9-0.1c2.8,0,5.5-0.1,8.3-0.1c5.2,0,10.5-0.1,15.7-0.1c1.2,0,2.3,0,3.5,0c4.9-0.1,6.5-0.2,10-3.7
		l0.1-0.1c2.2-2.7,2.8-5.1,2.9-8.4C84.6,71.6,84.3,71.3,83.9,71.3z"/>
</g>
<path d="M49,72.7c-1.7-0.7-3.3-1.3-5-2c-0.3-12.9-0.7-25.7-1-39c-2,1.7-4,3.3-6,5c-2.4-0.8-2.4-0.8-5-2c-0.8-1.8-0.8-1.8-1-4
	c1.2-1.9,1.2-1.9,3-3.8c0.6-0.7,1.3-1.4,2-2.1c0.7-0.7,1.3-1.4,2-2.1c0.9-1,0.9-1,1.8-2.1c0.6-0.6,1.2-1.3,1.7-1.9s1-1.2,1.6-1.8
	c2.9-1.9,4.5-1.8,7.9-1.2c2.6,1.8,4.7,4,6.8,6.2c0.6,0.6,1.2,1.2,1.8,1.8c5,5.2,5,5.2,5.4,9c-1.9,2.2-1.9,2.2-4,4
	c-3.4-1.2-5.5-2.4-8-5c0,1.2,0,2.3,0,3.5c-0.1,4.3-0.1,8.7-0.2,13c0,1.9-0.1,3.8-0.1,5.6c0,2.7-0.1,5.4-0.1,8.1c0,1.3,0,1.3,0,2.6
	c-0.1,2.4-0.1,2.4-0.5,6.2C51,71.4,50,72,49,72.7z"/>
</svg>
