<?xml version="1.0" encoding="utf-8"?>
<!-- Generator: Adobe Illustrator 24.3.0, SVG Export Plug-In . SVG Version: 6.00 Build 0)  -->
<svg version="1.1" id="Слой_1" xmlns="http://www.w3.org/2000/svg" xmlns:xlink="http://www.w3.org/1999/xlink" x="0px" y="0px"
	 viewBox="0 0 31 31" style="enable-background:new 0 0 31 31;" xml:space="preserve">
<style type="text/css">
	.st0{fill:none;stroke:#000000;stroke-width:0.5;stroke-linecap:round;stroke-linejoin:round;stroke-miterlimit:10;}
</style>
<path d="M20.9,5.7c0.1,0,0.1,0,0.1,0.1c0.9,0.5,1.6,1.1,2.4,1.8c0,0,0.1,0.1,0.1,0.1c0.9,0.9,1.6,2,2.1,3.1c0,0.1,0.1,0.1,0.1,0.2
	c1.2,2.7,1.2,5.8,0.2,8.6c-1,2.5-2.9,4.6-5.3,5.9c-0.1,0-0.1,0.1-0.2,0.1c-2.5,1.3-5.5,1.5-8.2,0.7c-1.8-0.6-3.4-1.5-4.7-2.8
	c0,0-0.1-0.1-0.1-0.1c-1.8-1.7-2.8-4.1-3.1-6.5c0-0.1,0-0.1,0-0.2c-0.3-2.3,0.3-4.6,1.4-6.6c0,0,0-0.1,0.1-0.1
	c0.5-0.9,1.1-1.6,1.8-2.4c0,0,0.1-0.1,0.1-0.1c0.9-0.9,2-1.6,3.1-2.1c0.1,0,0.1,0,0.2-0.1C14.2,3.8,17.9,4,20.9,5.7z M8.2,7.9
	C8.1,8,8.1,8,8,8.1c-2,1.9-3,4.6-3.1,7.3c0,2.9,1.1,5.6,3.1,7.7c2,2,4.7,3,7.5,3.1c2.8,0,5.5-1.2,7.5-3.2c1.9-2,3-4.7,3-7.5
	c-0.1-2.8-1.3-5.5-3.3-7.5c-1.4-1.3-3-2.1-4.7-2.6c-0.1,0-0.1,0-0.2-0.1C14.3,4.4,10.8,5.6,8.2,7.9z"/>
<path d="M18.8,6.4c0.1,0.1,0.1,0.1,0.1,0.1c0,0.1,0,0.1-0.1,0.2c-0.4,0-0.7-0.1-1.1-0.2c-2.4-0.7-4.9-0.2-7.1,1
	c-0.4,0.3-0.8,0.6-1.2,0.9c0,0-0.1,0.1-0.1,0.1c-0.7,0.6-1.3,1.4-1.8,2.2c0,0,0,0.1-0.1,0.1c-1.2,2-1.5,4.5-1,6.8
	c0.4,1.4,1,2.7,2,3.8c0,0,0.1,0.1,0.1,0.1c0.6,0.7,1.4,1.3,2.2,1.8c0.1,0,0.1,0,0.1,0.1c2,1.2,4.5,1.5,6.8,1
	c2.4-0.6,4.5-2.1,5.7-4.2c1.3-2.1,1.7-4.7,1.1-7.1c-0.5-1.7-1.3-3.2-2.6-4.4c-0.1-0.1-0.1-0.1-0.2-0.2c0-0.2,0-0.2,0.1-0.3
	c0.5,0,0.8,0.6,1.1,0.9c1.7,2.1,2.5,4.7,2.2,7.4c0,0.3-0.1,0.7-0.2,1c0,0.1,0,0.1,0,0.1c-0.6,2.5-2.1,4.6-4.3,6
	c-2.2,1.4-4.8,1.8-7.3,1.2c-2.5-0.6-4.7-2.2-6.1-4.4c-1.3-2.2-1.8-4.8-1.1-7.3c0.2-0.7,0.4-1.4,0.8-2c0-0.1,0.1-0.1,0.1-0.2
	c1.1-2.2,3.2-3.9,5.5-4.7C14.4,5.7,16.9,5.6,18.8,6.4z"/>
<path d="M19.6,6.8c0.4,0,0.6,0.2,0.9,0.4c0,0.1,0,0.2,0,0.3c-0.2,0.1-0.3,0-0.6-0.1c-0.1,0-0.1-0.1-0.2-0.1
	c-0.2-0.1-0.2-0.1-0.2-0.3C19.5,7,19.5,6.9,19.6,6.8C19.5,6.9,19.5,6.9,19.6,6.8z"/>
<path d="M20.8,7.6c0.3,0,0.4,0.1,0.6,0.3c0,0.1,0,0.2-0.1,0.2c-0.1,0.1-0.1,0.1-0.2,0.1C21,8.1,20.9,8,20.8,7.9
	C20.8,7.8,20.8,7.7,20.8,7.6z"/>
<g>
	<path class="st0" d="M18.5,24.3v-3.1c0-0.9-0.6-1.7-1.3-2.1H18c2.3,0,4.2-1.8,4.2-4.1c0-1.1-0.4-2.1-1.1-2.9
		c0.1-0.7,0.1-1.8-0.2-2.7c-1.5,0-2.7,1.1-2.9,1.3h-4.3c-0.2-0.2-1.3-1.3-2.8-1.3c-0.3,0.8-0.4,1.7-0.3,2.4
		c-0.8,0.7-1.3,1.8-1.3,3.1c0,2.3,1.9,4.1,4.2,4.1h0.8c-0.7,0.3-1.2,0.9-1.3,1.7c-0.7,0-1.7-0.1-2.1-0.7c-0.8-1.2-1.2-1.2-1.6-1.2
		c-0.4,0-0.4,0.4,0,0.8c0.4,0.4,0.4,0.4,0.8,1.2c0.3,0.7,1.2,1.2,2.9,1.2v2.2"/>
	<path class="st0" d="M10.4,13.8c0.1-0.3,0.3-0.7,0.7-1"/>
	<path class="st0" d="M10.2,15.5c0-0.2,0-0.3,0-0.5c0-0.2,0-0.3,0-0.5"/>
	<path class="st0" d="M12.8,18.1c-1.1-0.2-2-1-2.4-2"/>
</g>
</svg>
