<?xml version="1.0" encoding="UTF-8"?>
<svg xmlns="http://www.w3.org/2000/svg" xmlns:xlink="http://www.w3.org/1999/xlink" width="48px" height="48px" viewBox="0 0 48 48" version="1.1">
<g id="surface1">
<path style=" stroke:none;fill-rule:nonzero;fill:rgb(0%,0%,0%);fill-opacity:1;" d="M 40.046875 6.535156 L 33.511719 13.074219 L 31.511719 12.339844 C 28.339844 11.171875 21.757812 10.976562 18.144531 11.902344 C 12.585938 13.316406 9.855469 14.976562 4.632812 20.046875 L -0.242188 24.828125 L 2.925781 28.046875 C 4.683594 29.855469 7.21875 32.097656 8.535156 33.074219 C 9.902344 34 11.074219 34.878906 11.21875 34.976562 C 11.316406 35.074219 8.78125 37.757812 5.609375 40.976562 C 0.976562 45.609375 -0.0976562 46.925781 0.390625 47.414062 C 0.878906 47.902344 2.242188 46.78125 7.023438 42 L 13.023438 36 L 16.339844 37.023438 C 23.121094 39.121094 31.074219 38.144531 37.316406 34.390625 C 40.292969 32.585938 47.804688 25.609375 47.804688 24.585938 C 47.804688 23.804688 41.171875 17.609375 38.242188 15.609375 C 36.925781 14.730469 35.757812 13.902344 35.609375 13.804688 C 35.511719 13.707031 38.242188 10.78125 41.660156 7.367188 C 47.121094 1.902344 48.488281 0 46.925781 0 C 46.730469 0 43.660156 2.925781 40.046875 6.535156 Z M 29.269531 14.144531 L 31.367188 15.21875 L 29.953125 16.632812 C 28.535156 18 28.535156 18 26.4375 17.269531 C 24.046875 16.488281 20.976562 16.78125 20.976562 17.855469 C 20.976562 18.339844 21.660156 18.535156 23.316406 18.535156 C 27.511719 18.535156 27.511719 19.074219 23.269531 23.269531 C 18.925781 27.609375 18.292969 27.5625 18.730469 22.78125 C 18.976562 20.585938 18.878906 20 18.292969 20 C 17.902344 20 17.367188 20.828125 17.074219 22 C 16.632812 23.609375 16.683594 24.488281 17.269531 26.292969 L 18 28.535156 L 16.488281 30.097656 C 15.609375 30.976562 14.730469 31.707031 14.535156 31.707031 C 13.609375 31.707031 12.195312 27.511719 12.195312 24.730469 C 12.195312 19.21875 15.414062 14.925781 20.976562 13.121094 C 22.925781 12.488281 27.023438 12.976562 29.269531 14.144531 Z M 13.804688 15.707031 C 10.242188 19.609375 9.414062 26.046875 11.855469 30.730469 C 12.585938 32.144531 13.074219 33.414062 12.925781 33.5625 C 12.390625 34.097656 9.855469 32.292969 5.953125 28.535156 L 1.855469 24.632812 L 5.511719 21.121094 C 8.4375 18.292969 13.5625 14.683594 14.585938 14.632812 C 14.730469 14.632812 14.339844 15.121094 13.804688 15.707031 Z M 36.195312 16.144531 C 37.269531 16.683594 39.902344 18.828125 42.046875 20.878906 L 45.953125 24.632812 L 41.804688 28.632812 C 38.339844 31.953125 34.585938 34.632812 33.414062 34.632812 C 33.316406 34.632812 33.953125 33.660156 34.828125 32.4375 C 38.390625 27.804688 38.144531 20.390625 34.242188 15.953125 C 33.269531 14.878906 33.757812 14.878906 36.195312 16.144531 Z M 34.925781 20.292969 C 36.925781 25.511719 34.78125 31.953125 30.046875 34.878906 C 27.902344 36.144531 27.21875 36.339844 23.953125 36.339844 C 20.730469 36.339844 19.902344 36.144531 17.855469 34.925781 L 15.511719 33.5625 L 17.367188 31.660156 L 19.269531 29.804688 L 21.367188 30.535156 C 24.097656 31.464844 26.488281 31.023438 28.585938 29.171875 C 30.828125 27.171875 31.511719 24.488281 30.535156 21.511719 C 29.804688 19.316406 29.804688 19.269531 31.074219 17.953125 C 32.292969 16.683594 32.4375 16.632812 33.21875 17.367188 C 33.707031 17.804688 34.488281 19.121094 34.925781 20.292969 Z M 28.976562 21.757812 C 29.902344 24.195312 28.730469 27.707031 26.585938 28.683594 C 25.074219 29.367188 22.488281 29.414062 21.464844 28.78125 C 20.878906 28.390625 21.414062 27.609375 24.390625 24.632812 C 26.390625 22.632812 28.195312 20.976562 28.339844 20.976562 C 28.535156 20.976562 28.828125 21.316406 28.976562 21.757812 Z M 28.976562 21.757812 "/>
</g>
</svg>
