<?xml version="1.0" encoding="UTF-8"?>
<svg version="1.1" xmlns="http://www.w3.org/2000/svg" width="100" height="100">
<path d="M0 0 C4.14776493 0.6140055 6.21977127 3.19385362 8.99926758 6.10546875 C9.85430122 6.9711145 9.85430122 6.9711145 10.72660828 7.85424805 C12.54181458 9.69740887 14.33885607 11.55719563 16.13598633 13.41796875 C17.36464556 14.67170927 18.59445072 15.92432788 19.82543945 17.17578125 C22.83823257 20.24365783 25.83485121 23.32656076 28.82348633 26.41796875 C29.44223633 26.10859375 30.06098633 25.79921875 30.69848633 25.48046875 C35.47307433 23.09317475 39.96321283 22.56761717 45.13598633 24.10546875 C48.63120627 26.82397315 49.70839431 29.51367432 50.26098633 33.85546875 C49.74858949 38.02784298 48.22605654 40.0353402 45.82348633 43.41796875 C46.48121033 44.05903816 46.48121033 44.05903816 47.15222168 44.71305847 C51.70888732 49.15920246 56.24793189 53.62277515 60.77709961 58.09692383 C62.47022144 59.76488421 64.16780128 61.42833179 65.86987305 63.0871582 C68.31416868 65.47088091 70.74202904 67.87031614 73.16723633 70.2734375 C73.9328186 71.01321335 74.69840088 71.7529892 75.48718262 72.5151825 C76.18790894 73.21553116 76.88863525 73.91587982 77.6105957 74.63745117 C78.23236694 75.24811935 78.85413818 75.85878754 79.49475098 76.48796082 C81.19062385 78.95124148 81.15520842 80.48731479 80.82348633 83.41796875 C79.82348633 84.41796875 79.82348633 84.41796875 77.48363972 84.66343975 C74.30822876 84.37042232 73.48816141 83.71020401 71.2610321 81.49043274 C70.59785477 80.84135452 69.93467743 80.19227631 69.25140381 79.52352905 C68.54002258 78.80202667 67.82864136 78.08052429 67.09570312 77.3371582 C66.33419449 76.58441116 65.57268585 75.83166412 64.7881012 75.05610657 C62.27022927 72.56027089 59.77112147 70.04655044 57.27270508 67.53125 C55.53180367 65.79371544 53.7901605 64.05692378 52.04780579 62.32084656 C48.39737246 58.6777904 44.75615065 55.0258287 41.12109375 51.36743164 C36.45590461 46.6737559 31.768631 42.00288151 27.07423687 37.33843708 C23.47332933 33.75557872 19.8843935 30.16091922 16.29899025 26.5625515 C14.57504362 24.83526436 12.84736102 23.11169781 11.115942 21.39190102 C8.69976644 18.98839329 6.30015162 16.56949325 3.90429688 14.14575195 C3.18279449 13.43437073 2.46129211 12.7229895 1.71792603 11.99005127 C1.06884781 11.32687393 0.41976959 10.66369659 -0.24897766 9.98042297 C-0.81768239 9.40983312 -1.38638712 8.83924326 -1.97232533 8.2513628 C-3.54986414 5.84953731 -3.47206157 4.23515177 -3.17651367 1.41796875 C-2.17651367 0.41796875 -2.17651367 0.41796875 0 0 Z " fill="#000000" transform="translate(11.176513671875,7.58203125)"/>
<path d="M0 0 C3.51491029 2.48579228 6.77163086 5.15530801 10 8 C10.79019531 8.63808594 11.58039063 9.27617188 12.39453125 9.93359375 C16.10876754 13.16647543 18.56285608 15.80744175 19.1875 20.8125 C18.71641024 27.02319355 14.17126286 30.72564203 9.796875 34.65234375 C2.9432009 40.40521824 2.9432009 40.40521824 -3 40 C-3.8125 38.3125 -3.8125 38.3125 -4 36 C-1.76543996 33.31852795 0.66295191 31.27274286 3.375 29.078125 C4.2 28.39234375 5.025 27.7065625 5.875 27 C6.67679688 26.360625 7.47859375 25.72125 8.3046875 25.0625 C10.24932106 23.12526053 10.24932106 23.12526053 10.07421875 20.51953125 C8.65891828 17.20000832 6.81428211 15.83598285 3.9375 13.6875 C3.01839844 12.99011719 2.09929687 12.29273437 1.15234375 11.57421875 C0.44207031 11.05472656 -0.26820312 10.53523438 -1 10 C-1.2475 10.99 -1.495 11.98 -1.75 13 C-3.20065375 18.08764994 -5.22598356 23.22598356 -9 27 C-11.625 26.625 -11.625 26.625 -14 26 C-15.21367033 22.50493672 -15.21367033 22.50493672 -14.2578125 20.24609375 C-13.88398437 19.64925781 -13.51015625 19.05242188 -13.125 18.4375 C-10.40892897 13.4830118 -10.2045051 8.56253884 -10 3 C-21.05073196 -0.91869928 -30.35334199 -2.84027405 -42.08203125 -1.0234375 C-42.71496094 -1.01570313 -43.34789062 -1.00796875 -44 -1 C-44.66 -1.66 -45.32 -2.32 -46 -3 C-45.625 -5.625 -45.625 -5.625 -45 -8 C-29.39707736 -13.80573866 -13.44337161 -8.4549507 0 0 Z " fill="#000000" transform="translate(81,29)"/>
<path d="M0 0 C0.8125 1.6875 0.8125 1.6875 1 4 C-0.59611729 5.92634845 -2.11867041 7.37005496 -4 9 C-5.771181 10.6037828 -7.54199058 12.20797584 -9.3125 13.8125 C-10.8737915 15.20968495 -12.4358915 16.60596932 -14 18 C-12.82310202 24.3829408 -7.84447118 27.66349212 -2.80859375 31.3125 C9.06963917 39.40298872 18.43478864 42.51394988 32.91625977 42.02954102 C33.80112061 42.00174561 34.68598145 41.9739502 35.59765625 41.9453125 C36.39695557 41.90937988 37.19625488 41.87344727 38.01977539 41.83642578 C40 42 40 42 42 44 C41.8125 46 41.8125 46 41 48 C34.73974689 52.17350207 26.35163317 51.54616694 19.140625 50.37109375 C3.59171491 46.84209511 -10.51873792 38.48813815 -20.76953125 26.0703125 C-22.5711013 23.0390994 -22.92212375 20.64542964 -22.60546875 17.15625 C-21.46778951 13.10464392 -19.0764822 10.76032197 -16 8 C-14.80503906 6.90558594 -14.80503906 6.90558594 -13.5859375 5.7890625 C-6.2601432 -0.51864558 -6.2601432 -0.51864558 0 0 Z " fill="#000000" transform="translate(23,30)"/>
<path d="M0 0 C2.375 0.07421875 2.375 0.07421875 5 1 C6.625 3.58203125 6.625 3.58203125 8 6.8125 C10.61912091 12.9213019 13.38547892 15.74115652 19.375 18.625 C22.90270158 19.9630937 26.35746209 21.03361239 30 22 C30.625 23.875 30.625 23.875 31 26 C29 28 29 28 25.5 28.375 C17.68643919 28.16190289 10.3517708 24.60069037 5 19 C1.00782138 13.43481621 -1.21648199 7.92742383 -1 1 C-0.67 0.67 -0.34 0.34 0 0 Z " fill="#000000" transform="translate(23,38)"/>
</svg>
