<?xml version="1.0" encoding="UTF-8" standalone="no"?>
<!DOCTYPE svg PUBLIC "-//W3C//DTD SVG 1.1//EN" "http://www.w3.org/Graphics/SVG/1.1/DTD/svg11.dtd">
<svg xmlns="http://www.w3.org/2000/svg" xmlns:xlink="http://www.w3.org/1999/xlink" version="1.1" width="100pt" height="100pt" viewBox="0 0 100 100">
<g enable-background="new">
<g id="Layer-1" data-name="Слой 1">
<clipPath id="cp0">
<path transform="matrix(1,0,0,-1,0,100)" d="M 0 100 L 100 100 L 100 0 L 0 0 Z "/>
</clipPath>
<g clip-path="url(#cp0)">
<path transform="matrix(1,0,0,-1,62.0996,9.600098)" d="M 0 0 C 10.101 -4.9 16.801 -7.6 23.7 -9.4 C 28.601 -10.7 28.7 -10.8 26.4 -25.4 C 23.9 -42.2 17.801 -56.5 7.7 -69.1 C 3.601 -74.3 -6.1 -83.1 -10.899 -85.8 C -14.399 -87.8 -31.399 -72.3 -38.5 -60.6 C -45.6 -48.8 -50.3 -34 -51.6 -18.4 L -52.3 -10.9 L -43.6 -8 C -38.8 -6.5 -30.3 -3 -24.7 -.3 C -19.2 2.4 -13.399 4.6 -12 4.6 C -10.6 4.6 -5.199 2.5 0 0 M -26.6 3.2 C -37.2 -1.9 -42.7 -4 -52 -6.4 L -56.399 -7.6 L -55.7 -17.3 C -54.5 -36.8 -47.899 -55.3 -36.899 -69.8 C -31.7 -76.8 -21.8 -85.6 -15.6 -89 C -12.2 -90.8 -12 -90.8 -8.399 -88.9 C -2.6 -85.7 9.101 -74.2 14.801 -65.9 C 24.601 -51.8 30.2 -35.2 31.5 -16.9 L 32.2 -7.6 L 27.801 -6.4 C 18.601 -4.1 13.101 -1.9 2.5 3.2 C -4.6 6.7 -9.8 8.6 -12.1 8.6 C -14.399 8.6 -19.6 6.7 -26.6 3.2 "/>
<path transform="matrix(1,0,0,-1,58.3604,35.7871)" d="M 0 0 C -1.05 -1.155 -1.628 -1.312 -2.993 -1.05 C -4.568 -.788 -4.726 -.84 -4.726 -2.1 C -4.726 -3.15 -4.988 -3.413 -6.039 -3.413 C -7.089 -3.413 -7.352 -3.676 -7.352 -4.726 C -7.352 -5.776 -7.614 -6.039 -8.664 -6.039 C -9.924 -6.039 -9.977 -6.144 -9.662 -7.876 C -9.294 -9.872 -9.714 -10.187 -13.495 -10.975 L -15.123 -11.342 L -14.388 -8.822 C -13.758 -6.774 -12.603 -5.303 -7.981 -.63 L -2.363 4.989 L -.577 3.151 L 1.261 1.366 Z M 8.087 11.343 L 12.761 6.669 L 9.925 3.676 C 5.514 -.945 5.882 -.998 .735 3.991 C -1.681 6.354 -3.676 8.56 -3.676 8.875 C -3.676 9.452 2.626 16.016 3.15 16.016 C 3.309 16.016 5.514 13.916 8.087 11.343 M -1.732 14.021 C -5.461 10.24 -5.986 8.822 -4.358 6.984 C -3.519 6.039 -3.729 5.724 -9.399 .053 C -15.071 -5.619 -15.386 -6.039 -16.278 -9.399 C -17.486 -13.758 -17.224 -13.968 -12.13 -12.393 C -8.349 -11.237 -7.299 -10.292 -7.771 -8.559 C -7.981 -7.719 -7.824 -7.614 -6.616 -7.929 C -5.408 -8.191 -5.251 -8.086 -5.251 -6.931 C -5.251 -5.934 -4.936 -5.566 -4.043 -5.409 C -3.15 -5.303 -2.94 -4.936 -3.046 -3.991 C -3.15 -2.993 -2.993 -2.835 -2.101 -3.045 C -1.365 -3.255 -.42 -2.835 .841 -1.733 C 2.521 -.21 2.73 -.21 3.623 -.998 C 4.096 -1.47 4.988 -1.838 5.566 -1.838 C 6.826 -1.838 14.179 5.461 14.179 6.774 C 14.179 7.299 12.025 9.925 9.348 12.655 C 3.309 18.852 3.099 18.852 -1.732 14.021 "/>
<path transform="matrix(1,0,0,-1,58.3604,35.7871)" stroke-width="1" stroke-linecap="butt" stroke-miterlimit="10" stroke-linejoin="miter" fill="none" stroke="#000000" d="M 0 0 C -1.05 -1.155 -1.628 -1.312 -2.993 -1.05 C -4.568 -.788 -4.726 -.84 -4.726 -2.1 C -4.726 -3.15 -4.988 -3.413 -6.039 -3.413 C -7.089 -3.413 -7.352 -3.676 -7.352 -4.726 C -7.352 -5.776 -7.614 -6.039 -8.664 -6.039 C -9.924 -6.039 -9.977 -6.144 -9.662 -7.876 C -9.294 -9.872 -9.714 -10.187 -13.495 -10.975 L -15.123 -11.342 L -14.388 -8.822 C -13.758 -6.774 -12.603 -5.303 -7.981 -.63 L -2.363 4.989 L -.577 3.151 L 1.261 1.366 L 0 0 Z M 8.087 11.343 L 12.761 6.669 L 9.925 3.676 C 5.514 -.945 5.882 -.998 .735 3.991 C -1.681 6.354 -3.676 8.56 -3.676 8.875 C -3.676 9.452 2.626 16.016 3.15 16.016 C 3.309 16.016 5.514 13.916 8.087 11.343 Z M -1.732 14.021 C -5.461 10.24 -5.986 8.822 -4.358 6.984 C -3.519 6.039 -3.729 5.724 -9.399 .053 C -15.071 -5.619 -15.386 -6.039 -16.278 -9.399 C -17.486 -13.758 -17.224 -13.968 -12.13 -12.393 C -8.349 -11.237 -7.299 -10.292 -7.771 -8.559 C -7.981 -7.719 -7.824 -7.614 -6.616 -7.929 C -5.408 -8.191 -5.251 -8.086 -5.251 -6.931 C -5.251 -5.934 -4.936 -5.566 -4.043 -5.409 C -3.15 -5.303 -2.94 -4.936 -3.046 -3.991 C -3.15 -2.993 -2.993 -2.835 -2.101 -3.045 C -1.365 -3.255 -.42 -2.835 .841 -1.733 C 2.521 -.21 2.73 -.21 3.623 -.998 C 4.096 -1.47 4.988 -1.838 5.566 -1.838 C 6.826 -1.838 14.179 5.461 14.179 6.774 C 14.179 7.299 12.025 9.925 9.348 12.655 C 3.309 18.852 3.099 18.852 -1.732 14.021 Z "/>
<path transform="matrix(1,0,0,-1,63.2441,28.225098)" d="M 0 0 C -.893 -.893 -1.943 -.053 -1.155 .893 C -.735 1.417 -.367 1.522 .053 1.103 C .42 .735 .42 .42 0 0 M -2.416 2.258 C -4.201 .367 -4.201 -.053 -2.205 -1.786 L -.525 -3.151 L .945 -1.733 C 1.785 -.945 2.468 0 2.468 .315 C 2.468 .893 -.21 3.728 -.735 3.728 C -.893 3.728 -1.628 3.045 -2.416 2.258 "/>
<path transform="matrix(1,0,0,-1,63.2441,28.225098)" stroke-width="1" stroke-linecap="butt" stroke-miterlimit="10" stroke-linejoin="miter" fill="none" stroke="#000000" d="M 0 0 C -.893 -.893 -1.943 -.053 -1.155 .893 C -.735 1.417 -.367 1.522 .053 1.103 C .42 .735 .42 .42 0 0 Z M -2.416 2.258 C -4.201 .367 -4.201 -.053 -2.205 -1.786 L -.525 -3.151 L .945 -1.733 C 1.785 -.945 2.468 0 2.468 .315 C 2.468 .893 -.21 3.728 -.735 3.728 C -.893 3.728 -1.628 3.045 -2.416 2.258 Z "/>
<path transform="matrix(1,0,0,-1,39.7188,54.166)" d="M 0 0 C 3.833 -2.73 5.829 -3.203 10.292 -2.363 C 14.179 -1.628 15.596 -1.891 15.911 -3.519 C 16.437 -6.091 3.938 -6.196 -2.048 -3.676 C -2.783 -3.36 -2.94 -3.466 -2.783 -4.253 C -2.468 -5.934 1.838 -7.036 8.402 -7.089 C 13.128 -7.089 14.493 -6.932 15.806 -6.091 C 16.751 -5.514 18.957 -4.988 21.582 -4.778 C 23.841 -4.568 26.991 -4.043 28.514 -3.623 C 30.562 -3.046 31.507 -2.993 32.348 -3.466 C 32.925 -3.78 33.345 -4.096 33.24 -4.253 C 33.082 -4.358 30.614 -5.304 27.674 -6.301 C 24.155 -7.509 21.32 -8.139 19.482 -8.139 C 17.959 -8.139 15.176 -8.611 13.338 -9.242 C 10.765 -10.082 9.242 -10.239 6.827 -10.029 C -3.833 -8.979 -7.141 -9.137 -13.81 -11.08 C -14.965 -11.395 -14.965 -11.343 -14.965 -7.089 L -14.965 -2.783 L -13.232 -2.205 C -12.34 -1.838 -10.134 -.84 -8.401 .105 C -6.669 .998 -4.673 1.785 -3.938 1.785 C -3.203 1.838 -1.47 .998 0 0 M -8.612 1.838 C -9.872 .945 -11.237 .263 -11.657 .263 C -12.077 .263 -13.338 -.21 -14.44 -.787 L -16.541 -1.838 L -16.541 -7.614 C -16.541 -11.08 -16.331 -13.391 -16.016 -13.391 C -15.753 -13.391 -13.653 -12.865 -11.447 -12.235 C -7.036 -11.027 -1.995 -10.817 6.302 -11.5 C 10.397 -11.867 11.447 -11.763 14.126 -10.817 C 15.858 -10.188 18.537 -9.715 20.165 -9.715 C 23.42 -9.715 32.032 -7.089 33.975 -5.514 C 34.973 -4.726 35.078 -4.411 34.553 -3.256 C 33.713 -1.418 31.087 -.945 27.727 -1.995 C 26.361 -2.415 23.525 -2.94 21.53 -3.046 C 17.854 -3.308 17.802 -3.308 16.961 -1.785 C 16.174 -.42 15.806 -.263 13.496 -.263 C 12.078 -.263 10.135 -.525 9.242 -.84 C 6.984 -1.628 4.201 -.787 .63 1.628 C -2.783 3.991 -5.356 4.043 -8.612 1.838 "/>
<path transform="matrix(1,0,0,-1,39.7188,54.166)" stroke-width="1" stroke-linecap="butt" stroke-miterlimit="10" stroke-linejoin="miter" fill="none" stroke="#000000" d="M 0 0 C 3.833 -2.73 5.829 -3.203 10.292 -2.363 C 14.179 -1.628 15.596 -1.891 15.911 -3.519 C 16.437 -6.091 3.938 -6.196 -2.048 -3.676 C -2.783 -3.36 -2.94 -3.466 -2.783 -4.253 C -2.468 -5.934 1.838 -7.036 8.402 -7.089 C 13.128 -7.089 14.493 -6.932 15.806 -6.091 C 16.751 -5.514 18.957 -4.988 21.582 -4.778 C 23.841 -4.568 26.991 -4.043 28.514 -3.623 C 30.562 -3.046 31.507 -2.993 32.348 -3.466 C 32.925 -3.78 33.345 -4.096 33.24 -4.253 C 33.082 -4.358 30.614 -5.304 27.674 -6.301 C 24.155 -7.509 21.32 -8.139 19.482 -8.139 C 17.959 -8.139 15.176 -8.611 13.338 -9.242 C 10.765 -10.082 9.242 -10.239 6.827 -10.029 C -3.833 -8.979 -7.141 -9.137 -13.81 -11.08 C -14.965 -11.395 -14.965 -11.343 -14.965 -7.089 L -14.965 -2.783 L -13.232 -2.205 C -12.34 -1.838 -10.134 -.84 -8.401 .105 C -6.669 .998 -4.673 1.785 -3.938 1.785 C -3.203 1.838 -1.47 .998 0 0 Z M -8.612 1.838 C -9.872 .945 -11.237 .263 -11.657 .263 C -12.077 .263 -13.338 -.21 -14.44 -.787 L -16.541 -1.838 L -16.541 -7.614 C -16.541 -11.08 -16.331 -13.391 -16.016 -13.391 C -15.753 -13.391 -13.653 -12.865 -11.447 -12.235 C -7.036 -11.027 -1.995 -10.817 6.302 -11.5 C 10.397 -11.867 11.447 -11.763 14.126 -10.817 C 15.858 -10.188 18.537 -9.715 20.165 -9.715 C 23.42 -9.715 32.032 -7.089 33.975 -5.514 C 34.973 -4.726 35.078 -4.411 34.553 -3.256 C 33.713 -1.418 31.087 -.945 27.727 -1.995 C 26.361 -2.415 23.525 -2.94 21.53 -3.046 C 17.854 -3.308 17.802 -3.308 16.961 -1.785 C 16.174 -.42 15.806 -.263 13.496 -.263 C 12.078 -.263 10.135 -.525 9.242 -.84 C 6.984 -1.628 4.201 -.787 .63 1.628 C -2.783 3.991 -5.356 4.043 -8.612 1.838 Z "/>
</g>
</g>
</g>
</svg>
