<?xml version="1.0" encoding="UTF-8"?>
<svg xmlns="http://www.w3.org/2000/svg" xmlns:xlink="http://www.w3.org/1999/xlink" width="60px" height="60px" viewBox="0 0 60 60" version="1.1">
<g id="surface1">
<path style=" stroke:none;fill-rule:nonzero;fill:rgb(0%,0%,0%);fill-opacity:1;" d="M 37.261719 5.761719 C 43.320312 8.699219 47.339844 10.320312 51.480469 11.398438 C 54.421875 12.179688 54.480469 12.238281 53.101562 21 C 51.601562 31.078125 47.941406 39.660156 41.878906 47.21875 C 39.421875 50.339844 33.601562 55.621094 30.71875 57.238281 C 28.621094 58.441406 18.421875 49.140625 14.160156 42.121094 C 9.898438 35.039062 7.078125 26.160156 6.300781 16.800781 L 5.878906 12.300781 L 11.101562 10.558594 C 13.980469 9.660156 19.078125 7.558594 22.441406 5.941406 C 25.738281 4.320312 29.21875 3 30.058594 3 C 30.898438 3 34.140625 4.261719 37.261719 5.761719 M 21.300781 3.839844 C 14.941406 6.898438 11.640625 8.160156 6.058594 9.601562 L 3.421875 10.320312 L 3.839844 16.140625 C 4.558594 27.839844 8.519531 38.941406 15.121094 47.640625 C 18.238281 51.839844 24.179688 57.121094 27.898438 59.160156 C 29.941406 60.238281 30.058594 60.238281 32.21875 59.101562 C 35.699219 57.179688 42.71875 50.28125 46.140625 45.300781 C 52.019531 36.839844 55.378906 26.878906 56.160156 15.898438 L 56.578125 10.320312 L 53.941406 9.601562 C 48.421875 8.21875 45.121094 6.898438 38.761719 3.839844 C 34.5 1.738281 31.378906 0.601562 30 0.601562 C 28.621094 0.601562 25.5 1.738281 21.300781 3.839844 "/>
<path style="fill:none;stroke-width:2;stroke-linecap:butt;stroke-linejoin:round;stroke:rgb(0%,0%,0%);stroke-opacity:1;stroke-miterlimit:10;" d="M 44.798177 40.703125 L 44.798177 23.300781 L 27.298177 25.800781 L 27.298177 40.703125 Z M 44.798177 40.703125 " transform="matrix(0.6,0,0,0.6,0,0)"/>
<path style="fill:none;stroke-width:2;stroke-linecap:butt;stroke-linejoin:round;stroke:rgb(0%,0%,0%);stroke-opacity:1;stroke-miterlimit:10;" d="M 44.798177 43.300781 L 27.298177 43.300781 L 27.298177 58.203125 L 44.798177 60.703125 Z M 44.798177 43.300781 " transform="matrix(0.6,0,0,0.6,0,0)"/>
<path style="fill:none;stroke-width:2;stroke-linecap:butt;stroke-linejoin:round;stroke:rgb(0%,0%,0%);stroke-opacity:1;stroke-miterlimit:10;" d="M 47.402344 43.300781 L 47.402344 61.10026 L 72.701823 64.700521 L 72.701823 43.300781 Z M 47.402344 43.300781 " transform="matrix(0.6,0,0,0.6,0,0)"/>
<path style="fill-rule:nonzero;fill:rgb(0%,0%,0%);fill-opacity:1;stroke-width:0.5;stroke-linecap:butt;stroke-linejoin:miter;stroke:rgb(0%,0%,0%);stroke-opacity:1;stroke-miterlimit:10;" d="M 56.002604 20.703125 C 53.997396 20.501302 51.998698 21.002604 50.397135 22.298177 C 48.802083 23.502604 47.799479 25.299479 47.597656 27.298177 C 47.402344 29.296875 48.001302 31.302083 49.296875 32.897135 C 50.598958 34.498698 52.402344 35.501302 54.401042 35.703125 C 56.002604 35.898438 57.597656 35.598958 58.997396 34.798177 C 58.89974 34.498698 58.89974 34.199219 59.101562 33.89974 C 57.799479 34.700521 56.197917 35.097656 54.602865 35 C 50.800781 34.602865 48.001302 31.10026 48.398438 27.402344 C 48.502604 26.39974 48.802083 25.501302 49.296875 24.700521 C 50.598958 22.5 53.203125 21.10026 56.002604 21.39974 C 59.700521 21.796875 62.402344 25.097656 62.200521 28.697917 C 62.402344 28.60026 62.701823 28.60026 62.897135 28.697917 C 63.001302 26.796875 62.402344 25 61.197917 23.60026 C 59.798177 21.901042 58.001302 20.898438 56.002604 20.703125 Z M 56.002604 20.703125 " transform="matrix(0.6,0,0,0.6,0,0)"/>
<path style="fill-rule:nonzero;fill:rgb(0%,0%,0%);fill-opacity:1;stroke-width:0.5;stroke-linecap:butt;stroke-linejoin:miter;stroke:rgb(0%,0%,0%);stroke-opacity:1;stroke-miterlimit:10;" d="M 73.001302 38.802083 C 73.001302 38.89974 72.897135 38.997396 72.799479 38.997396 L 70.201823 39.199219 C 70.097656 39.199219 70.097656 39.199219 70 39.199219 L 69.401042 38.89974 C 69.296875 38.89974 69.296875 38.802083 69.296875 38.802083 L 69.101562 38.502604 L 68.502604 38.697917 C 68.398438 38.697917 68.300781 38.697917 68.203125 38.697917 C 68.098958 38.697917 68.098958 38.60026 68.001302 38.502604 L 67.799479 37.799479 L 67.102865 37.897135 C 66.998698 37.897135 66.901042 37.897135 66.796875 37.799479 C 66.699219 37.701823 66.699219 37.701823 66.601562 37.597656 L 66.497396 36.998698 L 65.703125 37.102865 C 65.501302 37.102865 65.299479 36.998698 65.299479 36.796875 L 65.201823 36.302083 L 64.700521 36.497396 C 64.602865 36.497396 64.498698 36.497396 64.401042 36.497396 L 61.002604 34.199219 L 60.501302 35.097656 C 60.397135 35.299479 60.201823 35.501302 59.902344 35.501302 C 59.602865 35.598958 59.296875 35.501302 58.997396 35.397135 C 58.502604 35.097656 58.60026 34.296875 58.60026 34.101562 C 58.60026 34.101562 58.60026 33.997396 58.60026 33.997396 L 61.699219 28.697917 C 61.796875 28.502604 62.102865 28.300781 62.402344 28.300781 C 62.701823 28.300781 63.001302 28.398438 63.300781 28.60026 C 63.697917 28.89974 63.802083 29.498698 63.502604 30 L 63.098958 30.598958 L 71.901042 35.898438 C 71.998698 35.898438 71.998698 36.002604 72.102865 36.10026 L 73.098958 38.60026 C 73.098958 38.60026 73.098958 38.697917 73.001302 38.802083 Z M 70.201823 38.502604 L 72.200521 38.300781 L 71.39974 36.39974 L 62.402344 31.002604 C 62.200521 30.898438 62.200521 30.703125 62.298177 30.501302 L 62.799479 29.602865 C 62.897135 29.401042 62.897135 29.199219 62.799479 29.101562 C 62.701823 28.997396 62.597656 28.997396 62.5 28.997396 C 62.5 28.997396 62.402344 28.997396 62.298177 29.101562 L 59.199219 34.296875 C 59.199219 34.498698 59.199219 34.798177 59.296875 34.798177 C 59.401042 34.902344 59.498698 34.902344 59.602865 34.798177 C 59.602865 34.798177 59.700521 34.798177 59.798177 34.700521 L 60.501302 33.502604 C 60.598958 33.300781 60.800781 33.300781 61.002604 33.398438 L 64.700521 35.598958 L 65.397135 35.397135 C 65.501302 35.397135 65.598958 35.397135 65.703125 35.397135 C 65.800781 35.501302 65.898438 35.501302 65.898438 35.598958 L 66.002604 36.10026 L 66.796875 36.002604 C 66.998698 36.002604 67.200521 36.10026 67.200521 36.302083 L 67.298177 36.901042 L 68.001302 36.796875 C 68.203125 36.796875 68.398438 36.901042 68.398438 36.998698 L 68.60026 37.597656 L 69.101562 37.402344 C 69.296875 37.402344 69.401042 37.402344 69.498698 37.597656 L 69.798177 38.098958 Z M 70.201823 38.502604 " transform="matrix(0.6,0,0,0.6,0,0)"/>
<path style="fill-rule:nonzero;fill:rgb(0%,0%,0%);fill-opacity:1;stroke-width:0.5;stroke-linecap:butt;stroke-linejoin:miter;stroke:rgb(0%,0%,0%);stroke-opacity:1;stroke-miterlimit:10;" d="M 53.802083 25.397135 L 51.901042 28.502604 C 51.796875 28.697917 51.497396 28.89974 51.302083 28.997396 C 51.002604 29.101562 50.703125 28.997396 50.501302 28.89974 C 50 28.60026 49.798177 27.897135 50.097656 27.402344 L 51.998698 24.296875 C 52.102865 24.101562 52.402344 23.89974 52.597656 23.802083 C 52.897135 23.697917 53.203125 23.802083 53.398438 23.89974 C 53.697917 24.101562 53.802083 24.296875 53.89974 24.602865 C 53.997396 24.902344 53.997396 25.201823 53.802083 25.397135 Z M 50.397135 27.701823 C 50.201823 28.001302 50.299479 28.502604 50.703125 28.697917 C 51.002604 28.89974 51.497396 28.802083 51.699219 28.502604 L 53.60026 25.397135 C 53.802083 25.097656 53.697917 24.602865 53.300781 24.401042 C 53.001302 24.199219 52.5 24.296875 52.298177 24.602865 Z M 50.397135 27.701823 " transform="matrix(0.6,0,0,0.6,0,0)"/>
<path style="fill-rule:nonzero;fill:rgb(0%,0%,0%);fill-opacity:1;stroke-width:0.5;stroke-linecap:butt;stroke-linejoin:miter;stroke:rgb(0%,0%,0%);stroke-opacity:1;stroke-miterlimit:10;" d="M 70.299479 36.699219 C 70.299479 36.796875 70.097656 36.796875 70.097656 36.796875 L 69.498698 36.39974 C 69.401042 36.302083 69.401042 36.197917 69.401042 36.197917 C 69.401042 36.10026 69.602865 36.10026 69.602865 36.10026 L 70.201823 36.497396 C 70.299479 36.497396 70.299479 36.601562 70.299479 36.699219 Z M 70.299479 36.699219 " transform="matrix(0.6,0,0,0.6,0,0)"/>
<path style="fill-rule:nonzero;fill:rgb(0%,0%,0%);fill-opacity:1;stroke-width:0.5;stroke-linecap:butt;stroke-linejoin:miter;stroke:rgb(0%,0%,0%);stroke-opacity:1;stroke-miterlimit:10;" d="M 68.398438 35.598958 C 68.398438 35.703125 68.203125 35.703125 68.203125 35.703125 L 67.298177 35.201823 C 67.200521 35.097656 67.200521 35 67.200521 35 C 67.200521 34.902344 67.402344 34.902344 67.402344 34.902344 L 68.300781 35.397135 C 68.398438 35.397135 68.502604 35.501302 68.398438 35.598958 Z M 68.398438 35.598958 " transform="matrix(0.6,0,0,0.6,0,0)"/>
<path style="fill-rule:nonzero;fill:rgb(0%,0%,0%);fill-opacity:1;stroke-width:0.5;stroke-linecap:butt;stroke-linejoin:miter;stroke:rgb(0%,0%,0%);stroke-opacity:1;stroke-miterlimit:10;" d="M 66.302083 34.296875 C 66.302083 34.401042 66.10026 34.401042 66.10026 34.401042 L 62.102865 31.998698 C 61.998698 31.998698 61.901042 31.901042 61.998698 31.796875 C 62.102865 31.699219 62.200521 31.699219 62.200521 31.699219 L 66.197917 34.101562 C 66.302083 34.101562 66.302083 34.296875 66.302083 34.296875 Z M 66.302083 34.296875 " transform="matrix(0.6,0,0,0.6,0,0)"/>
<path style="fill-rule:nonzero;fill:rgb(100%,100%,100%);fill-opacity:1;stroke-width:0.5;stroke-linecap:butt;stroke-linejoin:miter;stroke:rgb(0%,0%,0%);stroke-opacity:1;stroke-miterlimit:10;" d="M 58.398438 25.598958 L 58.697917 25.800781 C 59.101562 26.002604 59.401042 26.39974 59.602865 26.699219 " transform="matrix(0.6,0,0,0.6,0,0)"/>
<path style="fill-rule:nonzero;fill:rgb(0%,0%,0%);fill-opacity:1;stroke-width:0.5;stroke-linecap:butt;stroke-linejoin:miter;stroke:rgb(0%,0%,0%);stroke-opacity:1;stroke-miterlimit:10;" d="M 59.798177 26.796875 C 59.798177 26.901042 59.798177 26.901042 59.798177 26.796875 C 59.602865 26.901042 59.498698 26.901042 59.498698 26.796875 C 59.296875 26.39974 58.997396 26.197917 58.697917 26.002604 L 58.398438 25.800781 C 58.300781 25.703125 58.300781 25.598958 58.300781 25.598958 C 58.300781 25.501302 58.502604 25.501302 58.502604 25.501302 L 58.802083 25.703125 C 59.199219 25.898438 59.498698 26.302083 59.798177 26.699219 C 59.798177 26.699219 59.798177 26.796875 59.798177 26.796875 Z M 59.798177 26.796875 " transform="matrix(0.6,0,0,0.6,0,0)"/>
<path style="fill-rule:nonzero;fill:rgb(0%,0%,0%);fill-opacity:1;stroke-width:0.5;stroke-linecap:butt;stroke-linejoin:miter;stroke:rgb(0%,0%,0%);stroke-opacity:1;stroke-miterlimit:10;" d="M 59.798177 29.296875 L 58.398438 31.699219 C 57.701823 32.897135 56.10026 33.300781 54.798177 32.597656 L 54.401042 32.402344 C 53.203125 31.699219 52.701823 30.097656 53.502604 28.802083 L 55 26.302083 C 55.501302 25.501302 56.39974 25 57.298177 25.097656 C 57.402344 25.097656 57.5 25.201823 57.5 25.299479 C 57.5 25.397135 57.402344 25.501302 57.298177 25.501302 C 56.497396 25.501302 55.703125 25.898438 55.299479 26.601562 L 53.697917 28.997396 C 53.098958 30.097656 53.398438 31.39974 54.498698 32.102865 L 54.902344 32.298177 C 56.002604 32.897135 57.402344 32.597656 58.001302 31.497396 L 59.401042 29.101562 C 59.401042 28.997396 59.602865 28.997396 59.602865 28.997396 C 59.798177 29.101562 59.798177 29.199219 59.798177 29.296875 Z M 59.798177 29.296875 " transform="matrix(0.6,0,0,0.6,0,0)"/>
</g>
</svg>
