<?xml version="1.0" encoding="UTF-8"?>
<svg version="1.1" xmlns="http://www.w3.org/2000/svg" width="32" height="32">
<path d="M0 0 C1.12535156 0.00580078 1.12535156 0.00580078 2.2734375 0.01171875 C3.02367187 0.00785156 3.77390625 0.00398437 4.546875 0 C10.14682697 0.01010822 10.14682697 0.01010822 11.2734375 1.13671875 C12.61670087 14.23353662 12.61670087 14.23353662 10.0625 19.75390625 C7.48866563 22.66608505 5.47272078 23.93918974 1.6171875 24.57421875 C-0.90828187 24.63227552 -3.23645733 24.55650659 -5.7265625 24.13671875 C-7.38050367 22.48277758 -6.85655933 20.53356462 -6.859375 18.26171875 C-6.86066406 17.276875 -6.86195313 16.29203125 -6.86328125 15.27734375 C-6.85941406 14.2409375 -6.85554687 13.20453125 -6.8515625 12.13671875 C-6.85736328 10.58210937 -6.85736328 10.58210937 -6.86328125 8.99609375 C-6.86199219 8.01125 -6.86070312 7.02640625 -6.859375 6.01171875 C-6.85824707 5.10164062 -6.85711914 4.1915625 -6.85595703 3.25390625 C-6.58958591 -1.10452836 -3.70457058 0.00668695 0 0 Z M-4.7265625 2.13671875 C-4.7265625 8.73671875 -4.7265625 15.33671875 -4.7265625 22.13671875 C-2.4165625 22.13671875 -0.1065625 22.13671875 2.2734375 22.13671875 C2.6034375 19.82671875 2.9334375 17.51671875 3.2734375 15.13671875 C5.2534375 14.80671875 7.2334375 14.47671875 9.2734375 14.13671875 C9.2734375 10.17671875 9.2734375 6.21671875 9.2734375 2.13671875 C4.6534375 2.13671875 0.0334375 2.13671875 -4.7265625 2.13671875 Z M4.2734375 16.13671875 C4.6034375 17.12671875 4.9334375 18.11671875 5.2734375 19.13671875 C5.9334375 18.14671875 6.5934375 17.15671875 7.2734375 16.13671875 C6.2834375 16.13671875 5.2934375 16.13671875 4.2734375 16.13671875 Z " fill="#303030" transform="translate(13.7265625,3.86328125)"/>
</svg>
