<?xml version="1.0" encoding="UTF-8"?>
<svg xmlns="http://www.w3.org/2000/svg" xmlns:xlink="http://www.w3.org/1999/xlink" width="40px" height="40px" viewBox="0 0 40 40" version="1.1">
<g id="surface1">
<path style=" stroke:none;fill-rule:nonzero;fill:rgb(0%,0%,0%);fill-opacity:1;" d="M 5 24.5 C 5.351562 24.5 5.648438 24.5 6 24.5 C 6.148438 27.449219 6.351562 30.449219 6.5 33.5 C 15.398438 33.5 24.300781 33.5 33.5 33.5 C 33.648438 30.550781 33.851562 27.550781 34 24.5 C 34.351562 24.5 34.648438 24.5 35 24.5 C 35.050781 26.050781 35.050781 27.601562 35.050781 29.199219 C 35.050781 29.648438 35.050781 30.101562 35.101562 30.550781 C 35.101562 31.199219 35.101562 31.199219 35.101562 31.851562 C 35.101562 32.449219 35.101562 32.449219 35.101562 33.050781 C 35 34 35 34 34 35 C 32.800781 35.148438 32.800781 35.148438 31.351562 35.148438 C 30.800781 35.148438 30.25 35.148438 29.648438 35.148438 C 29.050781 35.148438 28.449219 35.148438 27.800781 35.148438 C 26.851562 35.148438 26.851562 35.148438 25.949219 35.148438 C 24.300781 35.148438 22.648438 35.148438 21 35.148438 C 20 35.148438 19 35.148438 17.949219 35.148438 C 16 35.148438 14.101562 35.148438 12.148438 35.148438 C 11.550781 35.148438 10.949219 35.148438 10.300781 35.148438 C 9.75 35.148438 9.199219 35.148438 8.601562 35.148438 C 8.101562 35.148438 7.601562 35.148438 7.101562 35.148438 C 6 35 6 35 5 34 C 4.898438 33 4.898438 33 4.898438 31.800781 C 4.898438 31.351562 4.898438 30.949219 4.898438 30.5 C 4.898438 30.050781 4.898438 29.601562 4.949219 29.148438 C 4.949219 28.699219 4.949219 28.25 4.949219 27.800781 C 4.949219 26.699219 5 25.601562 5 24.5 Z M 5 24.5 "/>
<path style=" stroke:none;fill-rule:nonzero;fill:rgb(0%,0%,0%);fill-opacity:1;" d="M 32 6.699219 C 32.5 6.851562 33 7.050781 33.5 7.199219 C 32.699219 9.101562 31.449219 10.25 30 11.699219 C 29.449219 13.398438 29.449219 14.75 29.449219 16.550781 C 29.449219 17.148438 29.449219 17.75 29.449219 18.351562 C 29.449219 18.800781 29.449219 19.25 29.449219 19.699219 C 29.949219 19.199219 30.449219 18.699219 30.949219 18.199219 C 31.449219 18.351562 31.949219 18.550781 32.449219 18.699219 C 31.648438 20.601562 30.449219 21.800781 28.949219 23.199219 C 27.050781 22.398438 25.851562 21.199219 24.449219 19.699219 C 24.699219 18.949219 24.699219 18.949219 24.949219 18.199219 C 26.898438 19.148438 26.898438 19.148438 27.449219 19.699219 C 27.449219 19.148438 27.449219 18.550781 27.449219 18 C 27.550781 11.148438 27.550781 11.148438 29.699219 8.699219 C 30.648438 7.851562 30.648438 7.851562 31.449219 7.199219 C 31.648438 7.050781 31.851562 6.898438 32 6.699219 Z M 32 6.699219 "/>
<path style=" stroke:none;fill-rule:nonzero;fill:rgb(0%,0%,0%);fill-opacity:1;" d="M 7 6.699219 C 9.300781 7.800781 10.851562 8.851562 12 11.199219 C 12.5 14 12.5 16.851562 12.5 19.699219 C 13 19.199219 13.5 18.699219 14 18.199219 C 14.5 18.351562 15 18.550781 15.5 18.699219 C 14.699219 20.601562 13.5 21.800781 12 23.199219 C 10.101562 22.398438 8.898438 21.199219 7.5 19.699219 C 7.648438 19.199219 7.851562 18.699219 8 18.199219 C 9.949219 19.148438 9.949219 19.148438 10.5 19.699219 C 10.550781 18.648438 10.550781 17.648438 10.601562 16.601562 C 10.601562 16.050781 10.648438 15.449219 10.648438 14.851562 C 10.398438 11.800781 8.648438 10.199219 6.5 8.199219 C 6.648438 7.75 6.851562 7.25 7 6.699219 Z M 7 6.699219 "/>
<path style=" stroke:none;fill-rule:nonzero;fill:rgb(0%,0%,0%);fill-opacity:1;" d="M 19.5 7.199219 C 19.851562 7.199219 20.148438 7.199219 20.5 7.199219 C 20.648438 13.648438 20.851562 20.050781 21 26.699219 C 21.5 26.199219 22 25.699219 22.5 25.199219 C 23 25.351562 23.5 25.550781 24 25.699219 C 23.199219 27.601562 22 28.800781 20.5 30.199219 C 18.601562 29.398438 17.398438 28.199219 16 26.699219 C 16.148438 26.199219 16.351562 25.699219 16.5 25.199219 C 18.449219 26.148438 18.449219 26.148438 19 26.699219 C 19.148438 20.300781 19.351562 13.851562 19.5 7.199219 Z M 19.5 7.199219 "/>
</g>
</svg>
