<?xml version="1.0" encoding="UTF-8"?>
<svg xmlns="http://www.w3.org/2000/svg" xmlns:xlink="http://www.w3.org/1999/xlink" width="60px" height="60px" viewBox="0 0 60 60" version="1.1">
<g id="surface1">
<path style=" stroke:none;fill-rule:nonzero;fill:rgb(0%,0%,0%);fill-opacity:1;" d="M 9.46875 7.6875 C 7.40625 13.3125 3.65625 39.375 3.9375 46.40625 L 4.21875 53.90625 L 55.78125 53.90625 L 56.0625 46.40625 C 56.34375 39.375 52.59375 13.3125 50.53125 7.6875 C 49.78125 5.625 49.59375 5.625 30 5.625 C 10.40625 5.625 10.21875 5.625 9.46875 7.6875 Z M 49.21875 9.5625 C 49.5 10.78125 50.53125 16.78125 51.65625 22.96875 C 52.6875 29.15625 53.71875 34.96875 54 35.8125 C 54.46875 37.40625 52.875 37.5 30 37.5 C 7.125 37.5 5.53125 37.40625 6 35.8125 C 6.28125 34.96875 7.3125 29.15625 8.34375 22.96875 C 9.46875 16.78125 10.5 10.78125 10.78125 9.5625 C 11.25 7.5 11.34375 7.5 30 7.5 C 48.65625 7.5 48.75 7.5 49.21875 9.5625 Z M 54.375 45.9375 L 54.375 52.5 L 5.625 52.5 L 5.625 39.375 L 54.375 39.375 Z M 54.375 45.9375 "/>
<path style=" stroke:none;fill-rule:nonzero;fill:rgb(0%,0%,0%);fill-opacity:1;" d="M 45.375 44.4375 C 44.4375 46.875 45.75 48.9375 48 48.5625 C 49.59375 48.375 50.15625 47.625 50.15625 45.9375 C 50.15625 44.25 49.59375 43.5 48 43.3125 C 46.78125 43.125 45.65625 43.59375 45.375 44.4375 Z M 48.75 45.9375 C 48.75 46.40625 48.375 46.875 47.8125 46.875 C 47.34375 46.875 46.875 46.40625 46.875 45.9375 C 46.875 45.375 47.34375 45 47.8125 45 C 48.375 45 48.75 45.375 48.75 45.9375 Z M 48.75 45.9375 "/>
<path style=" stroke:none;fill-rule:nonzero;fill:rgb(0%,0%,0%);fill-opacity:1;" d="M 9.375 46.40625 L 9.375 48.75 L 39.375 48.75 L 39.375 46.40625 C 39.375 45.09375 39 44.0625 38.4375 44.0625 C 37.96875 44.0625 37.5 44.71875 37.5 45.46875 C 37.5 46.21875 36.84375 46.875 36.09375 46.875 C 35.34375 46.875 34.6875 46.21875 34.6875 45.46875 C 34.6875 44.71875 34.3125 44.0625 33.75 44.0625 C 33.28125 44.0625 32.8125 44.71875 32.8125 45.46875 C 32.8125 46.21875 32.15625 46.875 31.40625 46.875 C 30.65625 46.875 30 46.21875 30 45.46875 C 30 44.71875 29.625 44.0625 29.0625 44.0625 C 28.59375 44.0625 28.125 44.71875 28.125 45.46875 C 28.125 46.21875 27.46875 46.875 26.71875 46.875 C 25.96875 46.875 25.3125 46.21875 25.3125 45.46875 C 25.3125 44.71875 24.9375 44.0625 24.375 44.0625 C 23.90625 44.0625 23.4375 44.71875 23.4375 45.46875 C 23.4375 46.21875 22.78125 46.875 22.03125 46.875 C 21.28125 46.875 20.625 46.21875 20.625 45.46875 C 20.625 44.71875 20.25 44.0625 19.6875 44.0625 C 19.21875 44.0625 18.75 44.71875 18.75 45.46875 C 18.75 46.21875 18.09375 46.875 17.34375 46.875 C 16.59375 46.875 15.9375 46.21875 15.9375 45.46875 C 15.9375 44.71875 15.5625 44.0625 15 44.0625 C 14.53125 44.0625 14.0625 44.71875 14.0625 45.46875 C 14.0625 46.21875 13.40625 46.875 12.65625 46.875 C 11.90625 46.875 11.25 46.21875 11.25 45.46875 C 11.25 44.71875 10.875 44.0625 10.3125 44.0625 C 9.84375 44.0625 9.375 45.09375 9.375 46.40625 Z M 9.375 46.40625 "/>
<path style=" stroke:none;fill-rule:nonzero;fill:rgb(0%,0%,0%);fill-opacity:1;" d="M 40.773438 35.398438 C 40.773438 34.996094 40.472656 34.78125 39.609375 34.539062 C 34.753906 33.085938 31.882812 29.007812 31.191406 22.445312 L 31.003906 20.746094 L 33.75 20.746094 C 35.257812 20.746094 36.449219 20.632812 36.394531 20.503906 C 36.261719 20.128906 27.976562 9.167969 27.804688 9.167969 C 27.636719 9.167969 19.359375 20.128906 19.21875 20.503906 C 19.164062 20.632812 20.324219 20.746094 21.789062 20.746094 L 24.46875 20.746094 L 24.898438 23.316406 C 25.460938 26.691406 26.550781 28.960938 28.621094 31.117188 C 31.132812 33.730469 34.667969 35.324219 38.851562 35.757812 C 40.640625 35.914062 40.773438 35.886719 40.773438 35.398438 Z M 32.671875 32.8125 C 28.460938 30.816406 25.679688 26.089844 25.648438 20.960938 L 25.648438 19.667969 L 23.492188 19.667969 C 22.304688 19.667969 21.335938 19.585938 21.335938 19.507812 C 21.335938 19.238281 27.601562 11.164062 27.816406 11.164062 C 28.03125 11.164062 34.292969 19.238281 34.292969 19.507812 C 34.292969 19.59375 33.289062 19.667969 32.109375 19.667969 L 29.898438 19.667969 L 30.054688 22.039062 C 30.402344 26.652344 31.753906 30.054688 34.210938 32.539062 C 35.886719 34.210938 35.671875 34.265625 32.671875 32.8125 Z M 32.671875 32.8125 "/>
</g>
</svg>
