<?xml version="1.0" encoding="utf-8"?>
<!-- Generator: Adobe Illustrator 24.3.0, SVG Export Plug-In . SVG Version: 6.00 Build 0)  -->
<svg version="1.1" id="Слой_1" xmlns="http://www.w3.org/2000/svg" xmlns:xlink="http://www.w3.org/1999/xlink" x="0px" y="0px"
	 viewBox="0 0 512 512" style="enable-background:new 0 0 512 512;" xml:space="preserve">
<style type="text/css">
	.st0{fill:none;stroke:#000000;stroke-width:15;stroke-miterlimit:10;}
</style>
<polygon class="st0" points="133,469.1 379,469.1 502,256 379,42.9 133,42.9 10,256 "/>
<g transform="translate(0.000000,96.000000) scale(0.100000,-0.100000)">
	<path d="M1200.9-101.8c-60.9-60.9-26.1-195.8,56.6-217.5c69.6-17.4,87-60.9,87-213.2c0-100.1,17.4-234.9,43.5-295.8l39.2-113.1
		l1007.2-9.9l1003.3-12.9l-215.4-219.7c-387.7-396.3-844.3-426.4-1300.9-77.5c-159.4,120.6-271.4,112-271.4-21.5
		c0-77.5,185.2-267.1,310.1-318.8c43.1-17.2,38.8-38.8-17.2-73.2c-340.3-215.4-551.4-568.6-585.8-969.2
		c-17.2-224-34.5-275.7-103.4-292.9c-60.3-17.2-81.8-51.7-68.9-124.9l12.9-99.1h1354.9h1356l12.9,99c12.9,73.2-8.6,107.6-73.2,124.8
		c-68.9,17.2-90.4,64.6-99,245.4c-12.9,202.3-21.5,219.5-120.5,219.5s-107.6-17.2-120.5-223.8l-12.9-228.2h-947h-942.7v194.7
		c0,147.9,34.8,282.8,121.8,443.8c300.2,574.3,1057.2,687.4,1514,226.2c161-161,291.5-174,313.3-30.5c13.1,87-239.3,361.1-387.2,422
		c-47.9,21.8-47.9,34.8,13.1,74c343.7,217.5,556.9,574.3,591.7,978.9c17.4,226.2,34.8,278.4,104.4,295.8
		c60.9,17.4,82.7,52.2,69.6,126.2l-13.1,100.1L2580.1-80C1836.1-75.7,1218.3-84.4,1200.9-101.8z M3509.5-502.5v-172.6h-952h-952
		v172.6v172.6h952h952V-502.5z"/>
</g>
</svg>
