<?xml version="1.0" encoding="utf-8"?>
<!-- Generator: Adobe Illustrator 25.0.0, SVG Export Plug-In . SVG Version: 6.00 Build 0)  -->
<svg version="1.1" id="Слой_1" xmlns="http://www.w3.org/2000/svg" xmlns:xlink="http://www.w3.org/1999/xlink" x="0px" y="0px"
	 viewBox="0 0 95 95" style="enable-background:new 0 0 95 95;" xml:space="preserve">
<style type="text/css">
	.st0{fill:none;stroke:#000000;stroke-width:2.7832;stroke-miterlimit:1.8555;}
</style>
<path class="st0" d="M24.7,87h45.6l22.8-39.5L70.3,8H24.7L1.9,47.5L24.7,87z"/>
<g>
	<path d="M32.6,17.5c0.1,0,0.3,0,0.4,0c0.4,0,0.9,0,1.3,0c0.3,0,0.6,0,0.9,0c0.8,0,1.5,0,2.3,0c0.6,0,1.3,0,1.9,0c0.1,0,0.2,0,0.3,0
		c0.2,0,0.4,0,0.5,0c1.7,0,3.4,0,5.1,0c1.5,0,2.9,0,4.4,0c1.7,0,3.4,0,5.1,0c0.2,0,0.4,0,0.5,0c0.1,0,0.1,0,0.3,0c0.6,0,1.2,0,1.9,0
		c0.8,0,1.5,0,2.3,0c0.4,0,0.8,0,1.2,0c0.4,0,0.8,0,1.3,0c0.2,0,0.2,0,0.4,0c1.2,0,2,0.3,2.8,1.2c0.9,1,0.9,2.2,0.9,3.5
		c-0.1,0.9-0.5,1.8-1.2,2.5c-0.6,0.5-1.1,0.7-1.9,0.7c0,0.1,0,0.2,0,0.3c0,0.8,0,1.6,0,2.4c0,0.4,0,0.8,0,1.3c0,5-1,9.1-4.6,12.8
		c-1.3,1.3-2.8,2.2-4.4,3.2c-1.1,0.6-1.1,0.6-1.7,1.7c-0.1,0.6-0.1,1.3,0.3,1.8c0.5,0.6,1.2,0.9,1.9,1.3c2.6,1.6,4.7,3.3,6.3,5.9
		c0.1,0.1,0.1,0.1,0.1,0.2c0.5,0.9,0.9,1.8,1.3,2.8c0,0.1,0.1,0.2,0.1,0.3c0.7,2.2,0.7,4.4,0.7,6.6c0,0.4,0,0.9,0,1.3
		c0,0.8,0,1.7,0,2.5c0.1,0,0.3,0,0.4,0.1c0.9,0.1,1.5,0.6,2,1.3c0.8,1.1,0.8,2.4,0.6,3.8c-0.3,1-0.9,1.7-1.7,2.3
		c-0.8,0.4-1.4,0.4-2.3,0.4c-0.2,0-0.2,0-0.4,0c-0.4,0-0.9,0-1.3,0c-0.3,0-0.6,0-0.9,0c-0.8,0-1.5,0-2.3,0c-0.6,0-1.2,0-1.9,0
		c-0.1,0-0.1,0-0.3,0c-0.2,0-0.4,0-0.5,0c-1.7,0-3.4,0-5.1,0c-1.5,0-3.1,0-4.6,0c-1.6,0-3.2,0-4.8,0c-0.9,0-1.8,0-2.7,0
		c-0.8,0-1.5,0-2.3,0c-0.4,0-0.8,0-1.2,0c-0.4,0-0.8,0-1.3,0c-0.1,0-0.2,0-0.4,0c-1.1,0-2-0.4-2.8-1.1c-0.9-1-1-2.2-0.9-3.5
		c0.1-0.9,0.5-1.8,1.2-2.5c0.6-0.5,1.1-0.7,1.9-0.7c0-0.1,0-0.2,0-0.3c0-0.8,0-1.6,0-2.4c0-0.4,0-0.8,0-1.3c0-4.9,1-9.1,4.5-12.7
		c1.3-1.3,2.9-2.3,4.5-3.2c1.1-0.6,1.1-0.6,1.7-1.7c0.1-0.6,0.1-1.3-0.3-1.8c-0.6-0.7-1.5-1.1-2.3-1.6c-1.1-0.7-2.2-1.4-3.2-2.4
		c-0.1-0.1-0.1-0.1-0.2-0.2c-1-0.9-1.8-2-2.5-3.1c0-0.1-0.1-0.1-0.1-0.2c-0.5-0.9-0.9-1.8-1.3-2.8c0-0.1-0.1-0.2-0.1-0.3
		c-0.7-2.2-0.7-4.4-0.7-6.6c0-0.4,0-0.9,0-1.3c0-0.8,0-1.7,0-2.5c-0.1,0-0.3,0-0.4-0.1c-0.9-0.1-1.5-0.6-2-1.3
		c-0.8-1.1-0.8-2.4-0.6-3.8c0.3-1,0.9-1.7,1.7-2.3C31.2,17.5,31.8,17.5,32.6,17.5z M31,20.1c-0.4,0.8-0.4,1.5-0.2,2.3
		c0.3,0.5,0.6,0.8,1.2,1c0.2,0,0.3,0,0.5,0c0.2,0,0.2,0,0.3,0c0.1,0,0.2,0,0.4,0c0.1,0,0.3,0,0.4,0c0.4,0,0.8,0,1.3,0
		c0.3,0,0.6,0,0.9,0c0.8,0,1.7,0,2.5,0c0.5,0,1,0,1.5,0c1.4,0,2.9,0,4.3,0c0.1,0,0.2,0,0.3,0c0.1,0,0.2,0,0.3,0c0.2,0,0.4,0,0.6,0
		c0.1,0,0.2,0,0.3,0c1.5,0,3,0,4.5,0c1.5,0,3.1,0,4.6,0c0.9,0,1.7,0,2.6,0c0.8,0,1.6,0,2.4,0c0.3,0,0.6,0,0.9,0c0.4,0,0.8,0,1.2,0
		c0.2,0,0.2,0,0.4,0c0.6,0,1.1,0,1.6-0.4c0.5-0.5,0.6-0.9,0.6-1.6c0-0.5-0.1-1-0.4-1.4c-0.6-0.5-1-0.6-1.7-0.6c-0.1,0-0.2,0-0.3,0
		c-0.1,0-0.2,0-0.4,0c-0.1,0-0.2,0-0.4,0c-0.4,0-0.8,0-1.3,0c-0.3,0-0.6,0-0.9,0c-0.8,0-1.6,0-2.4,0c-0.5,0-1,0-1.5,0
		c-1.4,0-2.8,0-4.2,0c-0.1,0-0.2,0-0.3,0c-0.1,0-0.2,0-0.3,0c-0.2,0-0.4,0-0.5,0c-0.1,0-0.2,0-0.3,0c-1.5,0-2.9,0-4.4,0
		c-1.5,0-3,0-4.5,0c-0.8,0-1.7,0-2.5,0c-0.8,0-1.6,0-2.4,0c-0.3,0-0.6,0-0.9,0c-0.4,0-0.8,0-1.2,0c-0.1,0-0.2,0-0.3,0
		C32.4,19.4,31.6,19.4,31,20.1z M33.8,25.4c-0.3,5-0.3,5,0.7,10c0,0.1,0.1,0.2,0.1,0.2c0.6,1.5,1.3,2.7,2.3,3.9
		c0.1,0.1,0.2,0.2,0.3,0.3c1.2,1.4,2.8,2.4,4.3,3.4c2,1.3,2,1.3,2.4,2c0.1,0.1,0.1,0.2,0.2,0.3c0.3,0.6,0.4,1.2,0.4,1.9
		c0,0.1,0,0.2,0,0.3c0,1-0.4,1.8-1,2.6c-0.2,0.2-0.5,0.4-0.7,0.6c-0.1,0-0.1,0.1-0.2,0.2c-0.5,0.4-1.1,0.7-1.7,1.1
		c-0.8,0.5-1.6,1-2.3,1.6c-0.1,0.1-0.2,0.2-0.3,0.3c-2.6,2.2-3.8,5.3-4.4,8.6c0,2.3,0,4.6,0,7c9,0,18.1,0,27.4,0
		c0.2-7.8,0.2-7.8-3.1-14.2c-0.1-0.1-0.2-0.2-0.3-0.3c-1.2-1.4-2.7-2.3-4.2-3.3c-0.3-0.2-0.7-0.4-1-0.7c-0.1-0.1-0.2-0.1-0.3-0.2
		c-0.5-0.4-0.9-0.8-1.2-1.3c0-0.1-0.1-0.1-0.1-0.2c-0.3-0.6-0.4-1.2-0.4-1.9c0-0.1,0-0.2,0-0.3c0-1,0.4-1.8,1-2.6
		c0.2-0.2,0.5-0.4,0.7-0.6c0.1,0,0.1-0.1,0.2-0.2c0.5-0.4,1.1-0.7,1.7-1.1c3.2-2,5.8-4.7,6.7-8.5c0.7-3,0.4-5.6,0.4-9
		C52.2,25.4,43.1,25.4,33.8,25.4z M31.1,72.2c-0.4,0.6-0.4,1.2-0.3,1.8c0.1,0.6,0.3,0.9,0.7,1.2c0.5,0.2,0.8,0.3,1.4,0.3
		c0.1,0,0.2,0,0.3,0c0.2,0,0.2,0,0.4,0c0.1,0,0.2,0,0.4,0c0.4,0,0.8,0,1.2,0c0.3,0,0.6,0,0.9,0c0.8,0,1.6,0,2.4,0c0.5,0,1,0,1.5,0
		c1.4,0,2.8,0,4.2,0c0.1,0,0.2,0,0.3,0c0.1,0,0.2,0,0.3,0c0.2,0,0.4,0,0.5,0c0.1,0,0.2,0,0.3,0c1.5,0,2.9,0,4.4,0c1.5,0,3,0,4.5,0
		c0.8,0,1.7,0,2.5,0c0.8,0,1.6,0,2.4,0c0.3,0,0.6,0,0.9,0c0.4,0,0.8,0,1.2,0c0.1,0,0.2,0,0.3,0c0.7,0,1.4-0.1,2-0.4
		c0.6-0.7,0.6-1.3,0.6-2.1c-0.1-0.5-0.2-0.8-0.6-1.2c-0.4-0.3-0.7-0.4-1.2-0.4c-0.2,0-0.2,0-0.3,0c-0.1,0-0.2,0-0.4,0
		c-0.1,0-0.3,0-0.4,0c-0.4,0-0.8,0-1.3,0c-0.3,0-0.6,0-0.9,0c-0.8,0-1.7,0-2.5,0c-0.5,0-1,0-1.5,0c-1.4,0-2.9,0-4.3,0
		c-0.1,0-0.2,0-0.3,0c-0.1,0-0.2,0-0.3,0c-0.2,0-0.4,0-0.6,0c-0.1,0-0.2,0-0.3,0c-1.5,0-3,0-4.5,0c-1.5,0-3.1,0-4.6,0
		c-0.9,0-1.7,0-2.6,0c-0.8,0-1.6,0-2.4,0c-0.3,0-0.6,0-0.9,0c-0.4,0-0.8,0-1.2,0c-0.1,0-0.2,0-0.4,0C32.2,71.5,31.6,71.6,31.1,72.2z
		"/>
	<path d="M58.6,34.2c0.1,0.1,0.1,0.1,0.2,0.5c0,0.6-0.2,1-0.5,1.5c0,0.1-0.1,0.2-0.1,0.3c-1.1,2-2.6,3.5-4.6,4.8
		c-0.2,0.2-0.5,0.3-0.7,0.5c-0.3,0.2-0.6,0.4-0.9,0.6c-1.5,0.9-2.6,2-3.1,3.7c-0.1,0.3-0.1,0.6-0.1,0.9c0,0.2,0,0.2-0.1,0.4
		c0,0.2,0,0.2,0,0.4c-0.1,0.4-0.2,0.6-0.6,0.8c-0.5,0.1-0.7,0.1-1.2,0c-0.3-0.2-0.4-0.3-0.6-0.7c0-0.3-0.1-0.6-0.1-0.8
		c-0.2-1.8-1.1-3.1-2.5-4.2c-0.4-0.2-0.7-0.5-1.1-0.7c-0.2-0.1-0.4-0.2-0.6-0.4c-0.1-0.1-0.2-0.1-0.3-0.2c-2.3-1.4-4.1-3.1-5.2-5.6
		c-0.1-0.4,0-0.6,0.2-1c0.4-0.3,0.6-0.3,1.1-0.3c0.5,0.1,1.1,0.2,1.6,0.3C40.3,35,41.1,35,42,35c0.1,0,0.2,0,0.3,0
		c1.5,0,2.8-0.4,4.1-0.9C50.2,32.6,55,31.6,58.6,34.2z M47.2,35.9c-0.5,0.2-1,0.3-1.5,0.5c-0.1,0-0.2,0.1-0.2,0.1
		C44.2,37,42.8,37,41.4,37c-0.2,0-0.3,0-0.5,0c-0.4,0-0.8,0-1.2,0c0.9,1.3,2.2,2.1,3.5,2.9c3.1,2,3.1,2,4,3.6
		c0.1,0.1,0.1,0.1,0.1,0.2c0.1,0,0.2,0,0.2,0c0.2-0.2,0.3-0.5,0.5-0.7c1.1-1.6,2.6-2.4,4.2-3.4c1.5-1,3.2-2.3,4-4c0-0.1,0-0.2,0-0.4
		c-0.3-0.1-0.5-0.2-0.8-0.2c-0.1,0-0.3-0.1-0.4-0.1C52.4,34.1,49.8,35,47.2,35.9z"/>
	<path d="M51.3,58.3c0.9,0.8,1.7,1.6,2.5,2.5c1.1,1.1,1.1,1.1,2.3,2.2c0.5,0.5,1.1,1,1.6,1.5c0.2,0.2,0.4,0.4,0.6,0.6
		c0.1,0.1,0.3,0.3,0.4,0.4c0.1,0.1,0.1,0.1,0.2,0.2c0.4,0.4,0.5,0.6,0.6,1.1c0,0.4,0,0.4-0.3,0.8c-0.4,0.3-0.8,0.4-1.3,0.3
		c-0.1,0-0.2,0-0.3,0c-0.3,0-0.6,0-0.9,0c-0.2,0-0.4,0-0.7,0c-0.6,0-1.2,0-1.8,0c-0.6,0-1.3,0-1.9,0c-1.1,0-2.1,0-3.2,0
		c-1.2,0-2.5,0-3.7,0c-1.1,0-2.1,0-3.2,0c-0.6,0-1.3,0-1.9,0c-0.6,0-1.2,0-1.8,0c-0.2,0-0.4,0-0.7,0c-0.3,0-0.6,0-0.9,0
		c-0.1,0-0.1,0-0.3,0c-0.5,0-0.7-0.1-1-0.4c-0.2-0.3-0.2-0.3-0.3-0.7c0.2-1,1.4-1.9,2.2-2.7c0.2-0.2,0.4-0.4,0.6-0.6
		c1-1,1-1,1.6-1.5c0.4-0.4,0.8-0.8,1.3-1.2c0.1-0.1,0.1-0.1,0.2-0.2c0.3-0.3,0.6-0.6,0.9-0.9C44.6,57.3,48.2,55.8,51.3,58.3z
		 M43.2,61.6c-0.1,0.1-0.2,0.2-0.4,0.4c-0.2,0.2-0.5,0.5-0.7,0.7c-0.3,0.3-0.6,0.6-0.9,0.9c-0.2,0.2-0.5,0.5-0.7,0.7
		c-0.1,0.1-0.2,0.2-0.3,0.3c-0.2,0.2-0.3,0.3-0.5,0.5c-0.1,0.1-0.1,0.1-0.3,0.3c-0.2,0.2-0.2,0.2-0.2,0.3c5.5,0,11.1,0,16.8,0
		c-0.6-0.7-0.6-0.7-1.2-1.4c-0.1-0.1-0.1-0.1-0.3-0.3c-0.1-0.1-0.2-0.2-0.3-0.3c-0.1-0.1-0.2-0.2-0.3-0.3c-0.2-0.2-0.5-0.5-0.7-0.7
		c-0.3-0.3-0.6-0.6-0.9-0.9c-0.3-0.3-0.6-0.6-0.8-0.8c-0.2-0.2-0.2-0.2-0.3-0.3c-1.1-1.1-2-1.6-3.5-1.8
		C45.6,59.1,44.4,60.3,43.2,61.6z"/>
	<path d="M48.1,49.9c0.3,0.2,0.4,0.4,0.6,0.7c0,0.6,0.1,1-0.4,1.5c-0.4,0.3-0.6,0.3-1.1,0.2c-0.3-0.2-0.3-0.2-0.6-0.6
		c-0.1-0.5-0.1-0.9,0-1.4C47.1,49.8,47.5,49.8,48.1,49.9z"/>
	<path d="M48.2,53.6c0.3,0.2,0.3,0.3,0.5,0.7c0,0.6,0.1,1-0.4,1.5c-0.4,0.2-0.8,0.2-1.2,0.1c-0.3-0.3-0.5-0.4-0.5-0.8
		c0-0.1,0-0.2,0-0.4c0-0.1,0-0.2,0-0.4c0.1-0.4,0.2-0.6,0.5-0.8C47.5,53.4,47.8,53.5,48.2,53.6z"/>
</g>
</svg>
