<?xml version="1.0" encoding="UTF-8"?>
<svg xmlns="http://www.w3.org/2000/svg" xmlns:xlink="http://www.w3.org/1999/xlink" width="95px" height="95px" viewBox="0 0 95 95" version="1.1">
<g id="surface1">
<path style="fill:none;stroke-width:15;stroke-linecap:butt;stroke-linejoin:miter;stroke:rgb(0%,0%,0%);stroke-opacity:1;stroke-miterlimit:10;" d="M 133.010526 469.094737 L 378.989474 469.094737 L 502 256 L 378.989474 42.905263 L 133.010526 42.905263 L 10 256 Z M 133.010526 469.094737 " transform="matrix(0.185547,0,0,0.185547,0,0)"/>
<path style=" stroke:none;fill-rule:nonzero;fill:rgb(0%,0%,0%);fill-opacity:1;" d="M 22.28125 19.703125 C 21.152344 20.832031 21.796875 23.335938 23.332031 23.738281 C 24.625 24.058594 24.945312 24.867188 24.945312 27.691406 C 24.945312 29.550781 25.269531 32.050781 25.753906 33.179688 L 26.480469 35.28125 L 45.167969 35.464844 L 63.785156 35.703125 L 59.789062 39.78125 C 52.59375 47.132812 44.125 47.691406 35.652344 41.21875 C 32.691406 38.980469 30.613281 39.140625 30.613281 41.617188 C 30.613281 43.054688 34.050781 46.570312 36.367188 47.53125 C 37.167969 47.851562 37.089844 48.25 36.050781 48.890625 C 29.734375 52.886719 25.820312 59.441406 25.179688 66.871094 C 24.863281 71.027344 24.539062 71.988281 23.261719 72.308594 C 22.144531 72.625 21.746094 73.265625 21.984375 74.625 L 22.222656 76.464844 L 72.523438 76.464844 L 72.761719 74.625 C 73 73.269531 72.601562 72.628906 71.402344 72.3125 C 70.125 71.992188 69.726562 71.113281 69.566406 67.757812 C 69.328125 64.003906 69.167969 63.683594 67.332031 63.683594 C 65.496094 63.683594 65.335938 64.003906 65.09375 67.835938 L 64.855469 72.070312 L 29.792969 72.070312 L 29.792969 68.460938 C 29.792969 65.714844 30.4375 63.210938 32.054688 60.226562 C 37.625 49.570312 51.667969 47.46875 60.144531 56.027344 C 63.132812 59.015625 65.554688 59.257812 65.957031 56.59375 C 66.203125 54.980469 61.519531 49.894531 58.773438 48.761719 C 57.886719 48.359375 57.886719 48.117188 59.015625 47.390625 C 65.394531 43.355469 69.351562 36.734375 69.996094 29.226562 C 70.320312 25.03125 70.640625 24.0625 71.933594 23.738281 C 73.0625 23.414062 73.46875 22.769531 73.222656 21.398438 L 72.980469 19.539062 L 47.871094 19.296875 C 34.066406 19.21875 22.605469 19.378906 22.28125 19.703125 Z M 65.117188 27.136719 L 65.117188 30.339844 L 29.789062 30.339844 L 29.789062 23.933594 L 65.117188 23.933594 Z M 65.117188 27.136719 "/>
</g>
</svg>
