<?xml version="1.0" encoding="UTF-8"?>
<svg version="1.1" xmlns="http://www.w3.org/2000/svg" width="100" height="100">
<path d="M0 0 C10.91508159 4.18024401 25.66938568 12.72939636 31.07421875 23.5390625 C31.61622986 27.46864304 31.94644947 30.06409427 29.8984375 33.52734375 C28.07701022 35.69653758 26.15072412 37.61191979 24.07421875 39.5390625 C23.29820313 40.27253906 22.5221875 41.00601563 21.72265625 41.76171875 C9.62890839 52.41225501 -4.59733966 59.15097636 -20.82421875 58.78125 C-30.83067357 57.99988955 -40.87825202 54.65268936 -48.92578125 48.5390625 C-49.9140625 45.9375 -49.9140625 45.9375 -49.92578125 43.5390625 C-49.26578125 42.8790625 -48.60578125 42.2190625 -47.92578125 41.5390625 C-43.75036004 41.89674718 -40.39558312 43.63912414 -36.67578125 45.4765625 C-26.24297874 50.34754549 -17.17470956 52.08776984 -5.87890625 48.59765625 C5.64319456 44.07538093 14.72669901 37.62858399 23.07421875 28.5390625 C19.11304645 19.83964582 10.97856093 15.29295972 3.07421875 10.5390625 C1.50999478 9.56265225 -0.05272655 8.58382654 -1.61328125 7.6015625 C-2.70640625 6.9209375 -3.79953125 6.2403125 -4.92578125 5.5390625 C-4.55078125 3.1015625 -4.55078125 3.1015625 -3.92578125 0.5390625 C-1.92578125 -0.4609375 -1.92578125 -0.4609375 0 0 Z " fill="#000000" transform="translate(67.92578125,22.4609375)"/>
<path d="M0 0 C1.2065625 0.0309375 1.2065625 0.0309375 2.4375 0.0625 C4.69060913 5.94561828 4.6687531 10.14224179 2.4375 16.0625 C-0.97972025 23.02350421 -5.65843676 27.54770417 -12.5625 31.0625 C-19.42910689 33.36071128 -28.16121771 33.05967999 -34.7578125 30.08984375 C-41.90170313 26.0230835 -45.70821451 20.74893685 -48.5625 13.0625 C-49.2934647 10.22941458 -49.51045201 8.02923549 -49.5625 5.0625 C-48.9025 4.0725 -48.2425 3.0825 -47.5625 2.0625 C-42.6875 2.9375 -42.6875 2.9375 -41.5625 4.0625 C-41.31775023 5.60176964 -41.09182911 7.14404977 -40.875 8.6875 C-39.81243138 14.1487902 -37.84792263 17.51594334 -33.5625 21.0625 C-28.71401666 23.84588858 -24.11028324 25.01354856 -18.5625 24.0625 C-12.41105688 21.97840452 -8.77758185 18.86789703 -5.49609375 13.23046875 C-4.4111958 10.71114506 -4.18953602 8.60512525 -4 5.875 C-3.58478661 0.08743382 -3.58478661 0.08743382 0 0 Z " fill="#000000" transform="translate(72.5625,35.9375)"/>
<path d="M0 0 C0.66 0.66 1.32 1.32 2 2 C1.46428571 5.53571429 1.46428571 5.53571429 0 7 C-2.22630405 7.39163671 -4.45623765 7.76267785 -6.6875 8.125 C-20.7426787 10.7371735 -33.48398673 18.27511208 -43 29 C-43.13306157 30.98366695 -43.13306157 30.98366695 -42 33 C-41.154375 33.78375 -40.30875 34.5675 -39.4375 35.375 C-37 38 -37 38 -36.6875 41.3125 C-36.790625 42.199375 -36.89375 43.08625 -37 44 C-38.7421875 44.703125 -38.7421875 44.703125 -41 45 C-43.0703125 43.671875 -43.0703125 43.671875 -45.125 41.75 C-45.80820312 41.12609375 -46.49140625 40.5021875 -47.1953125 39.859375 C-50.04381116 36.92455819 -51.33031703 34.79411083 -51.5 30.75 C-51.34901909 26.28527883 -50.26654108 24.03364745 -47.15234375 20.8828125 C-33.84078014 9.23821421 -18.52679961 -1.47038092 0 0 Z " fill="#000000" transform="translate(52,19)"/>
<path d="M0 0 C3.49521995 2.7185044 4.57240798 5.40820557 5.125 9.75 C4.58870358 14.11698516 3.68733163 16.08768099 0.6875 19.3125 C-3.55849282 21.48615359 -6.54402676 21.52666467 -11.125 20.25 C-14.58366499 18.14767422 -15.86384184 17.06196817 -17.3125 13.3125 C-17.8023067 9.94507892 -18.0615388 7.55257534 -16.2578125 4.56640625 C-11.73759973 -1.01030596 -6.80078563 -2.02185519 0 0 Z " fill="#000000" transform="translate(56.3125,31.6875)"/>
</svg>
