<?xml version="1.0" encoding="UTF-8"?>
<svg xmlns="http://www.w3.org/2000/svg" xmlns:xlink="http://www.w3.org/1999/xlink" width="48px" height="48px" viewBox="0 0 48 48" version="1.1">
<g id="surface1">
<path style=" stroke:none;fill-rule:nonzero;fill:rgb(0%,0%,0%);fill-opacity:1;" d="M 38.398438 15.671875 C 37.324219 14.9375 36.34375 14.300781 35.949219 14.007812 C 35.753906 13.960938 35.558594 13.859375 35.363281 13.761719 C 35.363281 13.761719 35.3125 13.761719 35.3125 13.761719 C 35.167969 13.714844 35.070312 13.617188 34.921875 13.566406 C 34.777344 13.519531 34.675781 13.519531 34.578125 13.46875 C 34.53125 13.46875 34.480469 13.421875 34.433594 13.421875 C 34.335938 13.421875 34.238281 13.371094 34.1875 13.371094 C 33.941406 13.324219 33.746094 13.222656 33.550781 13.125 L 31.640625 12.441406 C 28.457031 11.265625 21.84375 11.070312 18.21875 12 C 12.636719 13.421875 9.894531 15.085938 4.652344 20.179688 L -0.246094 24.980469 L 2.9375 28.164062 C 4.703125 29.976562 7.25 32.230469 8.570312 33.207031 C 9.746094 34.039062 10.777344 34.777344 11.117188 35.019531 C 11.414062 35.117188 11.65625 35.265625 11.851562 35.460938 C 12.148438 35.558594 12.441406 35.753906 12.6875 35.949219 C 12.882812 36 13.078125 36.097656 13.273438 36.246094 L 16.359375 37.175781 C 23.167969 39.28125 31.152344 38.300781 37.421875 34.53125 C 40.40625 32.71875 47.949219 25.714844 47.949219 24.6875 C 48 23.902344 41.339844 17.679688 38.398438 15.671875 Z M 12.980469 33.699219 C 12.441406 34.238281 9.894531 32.425781 5.976562 28.652344 L 1.859375 24.734375 L 5.535156 21.207031 C 8.472656 18.367188 13.617188 14.742188 14.644531 14.695312 C 14.792969 14.695312 14.398438 15.183594 13.859375 15.769531 C 10.285156 19.691406 9.453125 26.15625 11.902344 30.855469 C 12.636719 32.277344 13.125 33.550781 12.980469 33.699219 Z M 30.171875 35.019531 C 28.015625 36.292969 27.332031 36.488281 24.050781 36.488281 C 20.816406 36.488281 19.984375 36.292969 17.925781 35.070312 L 15.574219 33.699219 C 15.378906 33.550781 15.183594 33.355469 15.035156 33.160156 C 14.9375 33.0625 14.839844 32.914062 14.742188 32.765625 C 14.597656 32.570312 14.449219 32.375 14.351562 32.179688 C 14.15625 31.933594 14.058594 31.640625 13.960938 31.394531 C 13.960938 31.347656 13.910156 31.347656 13.910156 31.296875 C 13.078125 30.074219 12.195312 27.085938 12.195312 24.882812 C 12.195312 19.347656 15.429688 15.035156 21.011719 13.222656 C 22.972656 12.585938 27.085938 13.078125 29.339844 14.253906 L 31.445312 15.332031 C 31.542969 15.378906 31.640625 15.429688 31.738281 15.476562 C 32.179688 15.769531 32.523438 16.113281 32.867188 16.507812 C 33.011719 16.652344 33.160156 16.847656 33.304688 16.996094 C 33.503906 17.242188 33.601562 17.4375 33.746094 17.679688 C 33.84375 17.878906 33.941406 18.074219 34.039062 18.269531 C 34.089844 18.417969 34.1875 18.5625 34.238281 18.710938 C 34.53125 19.25 34.824219 19.835938 35.070312 20.425781 C 37.078125 25.617188 34.921875 32.082031 30.171875 35.019531 Z M 41.976562 28.75 C 38.496094 32.082031 34.726562 34.777344 33.550781 34.777344 C 33.453125 34.777344 34.089844 33.796875 34.972656 32.570312 C 38.546875 27.917969 38.300781 20.472656 34.382812 16.015625 C 33.402344 14.9375 33.894531 14.9375 36.34375 16.210938 C 37.421875 16.75 40.066406 18.90625 42.21875 20.964844 L 46.140625 24.734375 Z M 41.976562 28.75 "/>
<path style="fill:none;stroke-width:4;stroke-linecap:butt;stroke-linejoin:miter;stroke:rgb(0%,0%,0%);stroke-opacity:1;stroke-miterlimit:10;" d="M 62.597819 49 C 62.597819 41.487305 56.512695 35.402181 49 35.402181 C 41.487305 35.402181 35.402181 41.487305 35.402181 49 C 35.402181 56.512695 41.487305 62.597819 49 62.597819 C 56.512695 62.597819 62.597819 56.512695 62.597819 49 Z M 62.597819 49 " transform="matrix(0.489796,0,0,0.489796,0,0)"/>
</g>
</svg>
