<svg xmlns="http://www.w3.org/2000/svg"  viewBox="0 0 100 100" width="512px" height="512px"><path d="M 50 14 C 30.129581 14 14 30.129595 14 50 C 14 69.870405 30.129581 86 50 86 C 69.870419 86 86 69.870405 86 50 C 86 30.129595 69.870419 14 50 14 z M 50 16 C 68.78954 16 84 31.210473 84 50 C 84 68.789527 68.78954 84 50 84 C 35.079584 84 22.424474 74.40517 17.841797 61.046875 L 28.330078 64.951172 C 29.354015 68.727515 32.698499 71.630866 36.685547 71.964844 C 41.247578 72.347207 45.228353 69.480411 46.541016 65.419922 C 46.650444 65.081177 46.837617 64.797362 47.095703 64.607422 L 59.904297 55.181641 C 60.110136 55.030353 60.36118 54.937383 60.632812 54.90625 C 67.86766 54.067352 73.420969 47.703287 72.974609 40.150391 C 72.562476 33.165919 66.834081 27.437524 59.849609 27.025391 C 52.297675 26.579027 45.933679 32.132389 45.09375 39.367188 C 45.06262 39.638821 44.969647 39.889864 44.818359 40.095703 L 35.392578 52.904297 C 35.20289 53.162765 34.919505 53.349336 34.580078 53.458984 A 0.50005 0.50005 0 0 0 34.578125 53.458984 C 33.872518 53.687324 33.210568 54.008219 32.587891 54.386719 L 16.121094 47.236328 C 17.52729 29.742745 32.141961 16 50 16 z M 49.585938 18.994141 C 36.226468 19.169287 24.00196 28.038811 20.173828 41.546875 C 19.808055 42.837241 19.530085 44.130869 19.335938 45.423828 A 0.50005 0.50005 0 1 0 20.324219 45.574219 C 20.512072 44.323178 20.782492 43.069947 21.136719 41.820312 A 0.50005 0.50005 0 0 0 21.136719 41.818359 C 25.656043 25.871333 42.232646 16.61739 58.179688 21.136719 C 61.672599 22.126541 64.842568 23.695649 67.619141 25.708984 A 0.50007674 0.50007674 0 1 0 68.205078 24.898438 C 65.335651 22.817773 62.060212 21.196006 58.453125 20.173828 C 56.394755 19.590494 54.32534 19.228879 52.271484 19.076172 C 51.372923 19.009363 50.476569 18.982464 49.585938 18.994141 z M 70.416016 26.857422 A 0.50005 0.50005 0 0 0 70.111328 27.732422 C 70.665925 28.233919 71.201234 28.753777 71.714844 29.292969 A 0.50005 0.50005 0 1 0 72.4375 28.603516 C 71.90711 28.046707 71.356606 27.508737 70.783203 26.990234 A 0.50005 0.50005 0 0 0 70.416016 26.857422 z M 58.486328 28.009766 C 58.915948 27.993197 59.351512 27.99746 59.791016 28.023438 C 66.262544 28.405303 71.594696 33.737456 71.976562 40.208984 C 72.392203 47.242088 67.236732 53.133007 60.517578 53.912109 C 60.091211 53.960979 59.672661 54.110288 59.3125 54.375 L 46.503906 63.802734 C 46.049993 64.136794 45.752416 64.610026 45.589844 65.113281 C 44.416506 68.742792 40.8695 71.312386 36.769531 70.96875 C 33.470964 70.692444 30.638985 68.415602 29.519531 65.394531 L 35.666016 67.683594 A 0.50005 0.50005 0 0 0 35.666016 67.685547 C 38.377533 68.690138 41.454489 67.410755 42.619141 64.726562 C 43.823626 61.949768 42.543351 58.707569 39.767578 57.501953 L 39.359375 57.326172 L 33.738281 54.884766 C 34.107763 54.701534 34.488897 54.538895 34.886719 54.410156 C 35.389292 54.247805 35.862954 53.951626 36.197266 53.496094 L 45.625 40.6875 C 45.889712 40.327339 46.039023 39.908789 46.087891 39.482422 C 46.819206 33.18317 52.042024 28.258289 58.486328 28.009766 z M 73.644531 30.228516 A 0.50005 0.50005 0 0 0 73.259766 31.050781 C 73.516459 31.365501 73.767304 31.6868 74.009766 32.011719 A 0.50097755 0.50097755 0 1 0 74.8125 31.412109 C 74.560962 31.075028 74.300463 30.745203 74.035156 30.419922 A 0.50005 0.50005 0 0 0 73.644531 30.228516 z M 59 31 C 53.483071 31 49 35.483075 49 41 C 49 46.516925 53.483071 51 59 51 C 64.516929 51 69 46.516925 69 41 C 69 35.483075 64.516929 31 59 31 z M 59 32 C 63.976489 32 68 36.023515 68 41 C 68 45.976485 63.976489 50 59 50 C 54.023511 50 50 45.976485 50 41 C 50 36.023515 54.023511 32 59 32 z M 75.841797 33.355469 A 0.50005 0.50005 0 0 0 75.457031 34.126953 C 79.774496 41.055161 81.265127 49.704842 78.863281 58.179688 C 74.343957 74.126714 57.767353 83.38261 41.820312 78.863281 C 34.49474 76.787128 28.585306 72.167102 24.769531 66.230469 A 0.50005 0.50005 0 1 0 23.927734 66.769531 C 27.86996 72.902898 33.982449 77.680372 41.546875 79.824219 C 58.013834 84.49089 75.159496 74.920098 79.826172 58.453125 C 82.306326 49.701969 80.767176 40.755448 76.306641 33.597656 A 0.50005 0.50005 0 0 0 75.892578 33.355469 A 0.50005 0.50005 0 0 0 75.841797 33.355469 z M 59 34 C 55.139927 34 52 37.13993 52 41 C 52 44.86007 55.139927 48 59 48 C 62.860073 48 66 44.86007 66 41 C 66 37.13993 62.860073 34 59 34 z M 59 35 C 62.319633 35 65 37.680369 65 41 C 65 44.319631 62.319633 47 59 47 C 55.680367 47 53 44.319631 53 41 C 53 37.680369 55.680367 35 59 35 z M 16.042969 48.292969 L 32.300781 55.351562 A 0.50005 0.50005 0 0 0 32.513672 55.443359 L 38.960938 58.242188 A 0.50005 0.50005 0 0 0 38.962891 58.242188 L 39.369141 58.419922 C 41.649369 59.410306 42.690686 62.046919 41.701172 64.328125 C 40.745823 66.529933 38.236155 67.571456 36.013672 66.748047 L 17.447266 59.832031 C 16.509575 56.719338 16 53.419976 16 50 C 16 49.427252 16.015032 48.858736 16.042969 48.292969 z"/></svg>