<?xml version="1.0" encoding="UTF-8"?>
<svg xmlns="http://www.w3.org/2000/svg" xmlns:xlink="http://www.w3.org/1999/xlink" width="31px" height="31px" viewBox="0 0 31 31" version="1.1">
<g id="surface1">
<path style=" stroke:none;fill-rule:nonzero;fill:rgb(0%,0%,0%);fill-opacity:1;" d="M 20.949219 5.691406 C 21.007812 5.722656 21.007812 5.722656 21.066406 5.753906 C 21.949219 6.246094 22.703125 6.875 23.429688 7.570312 C 23.472656 7.609375 23.515625 7.648438 23.5625 7.6875 C 24.464844 8.550781 25.148438 9.652344 25.671875 10.777344 C 25.703125 10.84375 25.738281 10.914062 25.769531 10.984375 C 26.988281 13.679688 26.996094 16.816406 25.960938 19.566406 C 24.96875 22.097656 23.097656 24.152344 20.707031 25.429688 C 20.644531 25.464844 20.582031 25.5 20.515625 25.535156 C 18.058594 26.855469 14.96875 27.039062 12.316406 26.261719 C 10.496094 25.703125 8.941406 24.738281 7.570312 23.429688 C 7.527344 23.390625 7.484375 23.351562 7.4375 23.3125 C 5.683594 21.640625 4.675781 19.199219 4.359375 16.832031 C 4.351562 16.777344 4.34375 16.71875 4.335938 16.664062 C 4.070312 14.394531 4.597656 12.042969 5.691406 10.050781 C 5.710938 10.011719 5.734375 9.972656 5.753906 9.933594 C 6.246094 9.050781 6.875 8.296875 7.570312 7.570312 C 7.609375 7.527344 7.648438 7.484375 7.6875 7.4375 C 8.550781 6.535156 9.652344 5.851562 10.777344 5.328125 C 10.878906 5.28125 10.878906 5.28125 10.984375 5.230469 C 14.152344 3.796875 17.921875 4.027344 20.949219 5.691406 Z M 8.171875 7.929688 C 8.128906 7.972656 8.082031 8.011719 8.039062 8.054688 C 6.085938 9.914062 5.039062 12.664062 4.964844 15.320312 C 4.941406 18.214844 6.074219 20.917969 8.089844 22.988281 C 10.066406 24.953125 12.789062 26.03125 15.566406 26.039062 C 18.398438 26.003906 21.085938 24.824219 23.078125 22.820312 C 25.011719 20.808594 26.054688 18.097656 26.035156 15.320312 C 25.972656 12.488281 24.757812 9.792969 22.722656 7.828125 C 21.371094 6.570312 19.757812 5.738281 17.984375 5.265625 C 17.910156 5.25 17.839844 5.230469 17.765625 5.210938 C 14.300781 4.371094 10.753906 5.585938 8.171875 7.929688 Z M 8.171875 7.929688 "/>
<path style=" stroke:none;fill-rule:nonzero;fill:rgb(0%,0%,0%);fill-opacity:1;" d="M 18.828125 6.417969 C 18.890625 6.476562 18.890625 6.476562 18.953125 6.539062 C 18.929688 6.667969 18.929688 6.667969 18.890625 6.78125 C 18.507812 6.746094 18.160156 6.679688 17.789062 6.574219 C 15.367188 5.917969 12.871094 6.367188 10.707031 7.589844 C 10.277344 7.847656 9.886719 8.152344 9.507812 8.476562 C 9.472656 8.503906 9.441406 8.53125 9.410156 8.558594 C 8.664062 9.199219 8.066406 9.929688 7.570312 10.777344 C 7.546875 10.816406 7.523438 10.851562 7.5 10.890625 C 6.316406 12.890625 5.96875 15.398438 6.515625 17.652344 C 6.886719 19.074219 7.519531 20.375 8.476562 21.492188 C 8.503906 21.527344 8.53125 21.558594 8.558594 21.589844 C 9.199219 22.335938 9.929688 22.933594 10.777344 23.429688 C 10.832031 23.464844 10.832031 23.464844 10.890625 23.5 C 12.890625 24.683594 15.398438 25.03125 17.652344 24.484375 C 20.039062 23.863281 22.117188 22.410156 23.394531 20.285156 C 24.652344 18.140625 25.074219 15.613281 24.445312 13.191406 C 23.976562 11.511719 23.105469 9.972656 21.835938 8.765625 C 21.78125 8.710938 21.730469 8.65625 21.675781 8.597656 C 21.683594 8.421875 21.683594 8.421875 21.734375 8.296875 C 22.230469 8.339844 22.570312 8.859375 22.875 9.21875 C 24.601562 11.328125 25.339844 13.875 25.113281 16.585938 C 25.074219 16.914062 25.019531 17.238281 24.945312 17.558594 C 24.933594 17.617188 24.933594 17.617188 24.917969 17.679688 C 24.355469 20.152344 22.800781 22.324219 20.664062 23.679688 C 18.472656 25.035156 15.839844 25.503906 13.316406 24.929688 C 10.789062 24.300781 8.613281 22.765625 7.242188 20.542969 C 5.945312 18.367188 5.484375 15.707031 6.09375 13.226562 C 6.273438 12.523438 6.523438 11.855469 6.84375 11.203125 C 6.875 11.132812 6.90625 11.066406 6.941406 10.996094 C 8.070312 8.796875 10.09375 7.105469 12.433594 6.320312 C 14.4375 5.679688 16.855469 5.59375 18.828125 6.417969 Z M 18.828125 6.417969 "/>
<path style=" stroke:none;fill-rule:nonzero;fill:rgb(0%,0%,0%);fill-opacity:1;" d="M 20.222656 10.535156 C 20.382812 10.617188 20.382812 10.617188 20.464844 10.777344 C 20.515625 11.253906 20.417969 11.71875 20.324219 12.183594 C 20.308594 12.261719 20.292969 12.339844 20.277344 12.417969 C 20.238281 12.632812 20.195312 12.84375 20.15625 13.058594 C 20.109375 13.28125 20.066406 13.503906 20.023438 13.726562 C 19.953125 14.105469 19.878906 14.480469 19.804688 14.859375 C 19.703125 15.382812 19.601562 15.910156 19.5 16.4375 C 19.417969 16.851562 19.339844 17.265625 19.257812 17.675781 C 19.25 17.722656 19.242188 17.765625 19.234375 17.808594 C 19.132812 18.324219 19.03125 18.839844 18.929688 19.355469 C 18.894531 19.542969 18.859375 19.730469 18.824219 19.917969 C 18.800781 20.023438 18.78125 20.125 18.761719 20.230469 C 18.753906 20.277344 18.746094 20.320312 18.738281 20.367188 C 18.683594 20.640625 18.601562 20.8125 18.40625 21.007812 C 18.15625 21.136719 17.921875 21.160156 17.648438 21.121094 C 17.359375 21.023438 17.148438 20.8125 16.925781 20.609375 C 16.757812 20.460938 16.585938 20.316406 16.414062 20.167969 C 16.195312 19.984375 15.980469 19.792969 15.765625 19.605469 C 15.695312 19.542969 15.625 19.480469 15.554688 19.421875 C 15.503906 19.378906 15.503906 19.378906 15.457031 19.332031 C 15.265625 19.167969 15.214844 19.132812 14.953125 19.132812 C 14.832031 19.226562 14.726562 19.320312 14.617188 19.429688 C 14.554688 19.488281 14.488281 19.550781 14.425781 19.609375 C 14.394531 19.640625 14.359375 19.671875 14.328125 19.703125 C 14.171875 19.851562 14.015625 19.996094 13.859375 20.140625 C 13.804688 20.1875 13.75 20.238281 13.695312 20.289062 C 13.523438 20.4375 13.464844 20.460938 13.238281 20.488281 C 13.015625 20.464844 13.015625 20.464844 12.894531 20.339844 C 12.757812 20.136719 12.675781 19.925781 12.59375 19.695312 C 12.578125 19.652344 12.5625 19.605469 12.546875 19.558594 C 12.496094 19.414062 12.445312 19.269531 12.394531 19.125 C 12.359375 19.027344 12.324219 18.925781 12.289062 18.828125 C 12.21875 18.632812 12.148438 18.441406 12.082031 18.246094 C 11.96875 17.921875 11.851562 17.601562 11.730469 17.277344 C 11.714844 17.234375 11.699219 17.1875 11.679688 17.140625 C 11.601562 16.921875 11.601562 16.921875 11.503906 16.710938 C 11.328125 16.65625 11.15625 16.609375 10.980469 16.5625 C 10.871094 16.535156 10.765625 16.507812 10.65625 16.476562 C 10.484375 16.433594 10.3125 16.390625 10.140625 16.34375 C 9.976562 16.304688 9.808594 16.257812 9.644531 16.214844 C 9.59375 16.203125 9.542969 16.191406 9.492188 16.175781 C 9.164062 16.089844 8.960938 15.980469 8.71875 15.742188 C 8.625 15.550781 8.636719 15.40625 8.65625 15.195312 C 8.875 14.871094 9.089844 14.746094 9.453125 14.609375 C 9.5 14.589844 9.550781 14.570312 9.601562 14.550781 C 9.765625 14.484375 9.929688 14.417969 10.097656 14.351562 C 10.214844 14.304688 10.332031 14.257812 10.449219 14.210938 C 10.707031 14.109375 10.960938 14.007812 11.214844 13.90625 C 11.636719 13.738281 12.058594 13.570312 12.480469 13.398438 C 12.585938 13.355469 12.585938 13.355469 12.699219 13.3125 C 12.84375 13.25 12.992188 13.191406 13.136719 13.132812 C 13.503906 12.984375 13.871094 12.835938 14.238281 12.6875 C 14.925781 12.414062 15.609375 12.136719 16.292969 11.859375 C 17.085938 11.539062 17.878906 11.214844 18.675781 10.898438 C 18.714844 10.882812 18.75 10.867188 18.792969 10.851562 C 18.898438 10.808594 19.003906 10.765625 19.109375 10.722656 C 19.167969 10.699219 19.226562 10.675781 19.289062 10.652344 C 19.609375 10.527344 19.882812 10.496094 20.222656 10.535156 Z M 19.421875 11.007812 C 19.359375 11.03125 19.296875 11.058594 19.234375 11.082031 C 19.164062 11.109375 19.097656 11.136719 19.027344 11.167969 C 18.953125 11.195312 18.878906 11.226562 18.804688 11.257812 C 18.597656 11.339844 18.390625 11.425781 18.179688 11.507812 C 17.988281 11.585938 17.792969 11.664062 17.597656 11.742188 C 16.949219 12.003906 16.304688 12.265625 15.65625 12.53125 C 15.277344 12.683594 14.894531 12.839844 14.515625 12.992188 C 14.378906 13.046875 14.242188 13.101562 14.109375 13.160156 C 13.605469 13.359375 13.105469 13.5625 12.605469 13.765625 C 11.976562 14.019531 11.347656 14.277344 10.71875 14.53125 C 10.675781 14.546875 10.632812 14.566406 10.589844 14.582031 C 10.339844 14.683594 10.09375 14.785156 9.847656 14.886719 C 9.761719 14.921875 9.761719 14.921875 9.671875 14.957031 C 9.621094 14.980469 9.570312 15 9.515625 15.023438 C 9.472656 15.039062 9.429688 15.058594 9.382812 15.078125 C 9.25 15.144531 9.136719 15.226562 9.023438 15.320312 C 9.027344 15.433594 9.027344 15.433594 9.082031 15.5625 C 9.746094 16.027344 10.878906 16.324219 11.6875 16.347656 C 12.183594 16.257812 12.539062 15.953125 12.917969 15.632812 C 13.191406 15.410156 13.492188 15.234375 13.792969 15.054688 C 13.914062 14.976562 14.035156 14.902344 14.15625 14.824219 C 14.609375 14.542969 15.0625 14.265625 15.515625 13.988281 C 16.035156 13.667969 16.554688 13.34375 17.074219 13.015625 C 18.03125 12.414062 18.03125 12.414062 18.3125 12.410156 C 18.46875 12.472656 18.46875 12.472656 18.554688 12.574219 C 18.601562 12.773438 18.585938 12.882812 18.527344 13.078125 C 18.402344 13.230469 18.257812 13.359375 18.105469 13.488281 C 18.023438 13.5625 17.941406 13.636719 17.859375 13.710938 C 17.816406 13.746094 17.777344 13.785156 17.734375 13.820312 C 17.582031 13.960938 17.433594 14.105469 17.289062 14.253906 C 17.125 14.421875 16.957031 14.582031 16.777344 14.734375 C 16.5625 14.917969 16.363281 15.117188 16.164062 15.320312 C 15.972656 15.515625 15.777344 15.710938 15.5625 15.890625 C 15.300781 16.113281 15.0625 16.359375 14.820312 16.601562 C 14.601562 16.824219 14.378906 17.03125 14.136719 17.226562 C 14.035156 17.328125 13.984375 17.425781 13.925781 17.558594 C 14.457031 18.019531 14.988281 18.476562 15.523438 18.929688 C 15.65625 19.039062 15.785156 19.152344 15.917969 19.261719 C 15.980469 19.316406 16.046875 19.371094 16.113281 19.425781 C 16.28125 19.570312 16.449219 19.710938 16.617188 19.855469 C 17.203125 20.429688 17.203125 20.429688 17.921875 20.765625 C 18.085938 20.753906 18.085938 20.753906 18.226562 20.648438 C 18.40625 20.191406 18.492188 19.71875 18.582031 19.242188 C 18.597656 19.15625 18.617188 19.070312 18.632812 18.984375 C 18.679688 18.75 18.722656 18.519531 18.765625 18.289062 C 18.804688 18.09375 18.84375 17.898438 18.878906 17.707031 C 18.96875 17.25 19.054688 16.789062 19.144531 16.332031 C 19.234375 15.863281 19.324219 15.390625 19.417969 14.917969 C 19.496094 14.511719 19.574219 14.109375 19.652344 13.703125 C 19.699219 13.460938 19.746094 13.21875 19.792969 12.976562 C 19.835938 12.75 19.882812 12.523438 19.925781 12.292969 C 19.941406 12.210938 19.957031 12.128906 19.972656 12.042969 C 19.996094 11.929688 20.015625 11.816406 20.039062 11.703125 C 20.050781 11.640625 20.0625 11.574219 20.074219 11.511719 C 20.105469 11.304688 20.105469 11.105469 20.101562 10.898438 C 19.84375 10.886719 19.660156 10.910156 19.421875 11.007812 Z M 17.796875 12.957031 C 17.734375 12.996094 17.671875 13.035156 17.605469 13.074219 C 17.539062 13.117188 17.46875 13.160156 17.398438 13.203125 C 17.328125 13.246094 17.257812 13.292969 17.183594 13.335938 C 16.664062 13.660156 16.144531 13.984375 15.625 14.308594 C 15.046875 14.671875 14.464844 15.027344 13.882812 15.386719 C 13.464844 15.644531 13.046875 15.902344 12.628906 16.160156 C 12.394531 16.304688 12.164062 16.449219 11.929688 16.589844 C 12.042969 16.988281 12.167969 17.378906 12.308594 17.765625 C 12.328125 17.816406 12.34375 17.871094 12.363281 17.921875 C 12.402344 18.027344 12.441406 18.136719 12.480469 18.242188 C 12.539062 18.40625 12.59375 18.570312 12.652344 18.734375 C 12.691406 18.839844 12.730469 18.945312 12.765625 19.050781 C 12.785156 19.097656 12.800781 19.148438 12.820312 19.199219 C 12.910156 19.460938 12.910156 19.460938 13.078125 19.679688 C 13.085938 19.613281 13.09375 19.550781 13.105469 19.484375 C 13.136719 19.246094 13.171875 19.011719 13.210938 18.773438 C 13.226562 18.671875 13.238281 18.566406 13.253906 18.464844 C 13.402344 17.398438 13.402344 17.398438 13.867188 17.015625 C 13.933594 16.941406 14.003906 16.871094 14.074219 16.796875 C 14.214844 16.660156 14.359375 16.527344 14.507812 16.402344 C 14.738281 16.203125 14.953125 15.988281 15.167969 15.773438 C 15.410156 15.527344 15.65625 15.292969 15.917969 15.070312 C 16.089844 14.917969 16.246094 14.753906 16.40625 14.59375 C 16.601562 14.394531 16.796875 14.199219 17.011719 14.019531 C 17.28125 13.792969 17.523438 13.539062 17.773438 13.285156 C 17.917969 13.140625 18.050781 13.011719 18.226562 12.898438 C 18.226562 12.855469 18.226562 12.816406 18.226562 12.773438 C 18.046875 12.773438 17.949219 12.863281 17.796875 12.957031 Z M 13.742188 17.921875 C 13.625 18.304688 13.554688 18.691406 13.492188 19.085938 C 13.480469 19.152344 13.46875 19.21875 13.457031 19.285156 C 13.445312 19.351562 13.433594 19.414062 13.421875 19.476562 C 13.414062 19.535156 13.402344 19.59375 13.394531 19.652344 C 13.371094 19.808594 13.371094 19.808594 13.441406 19.980469 C 13.46875 19.953125 13.496094 19.929688 13.523438 19.902344 C 13.652344 19.78125 13.777344 19.664062 13.902344 19.546875 C 13.945312 19.503906 13.988281 19.464844 14.035156 19.421875 C 14.273438 19.195312 14.515625 18.976562 14.773438 18.769531 C 14.566406 18.558594 14.351562 18.363281 14.121094 18.175781 C 14.0625 18.128906 14.003906 18.078125 13.945312 18.03125 C 13.828125 17.914062 13.828125 17.914062 13.742188 17.921875 Z M 13.742188 17.921875 "/>
<path style=" stroke:none;fill-rule:nonzero;fill:rgb(0%,0%,0%);fill-opacity:1;" d="M 19.554688 6.84375 C 19.910156 6.859375 20.171875 7.027344 20.464844 7.203125 C 20.464844 7.304688 20.464844 7.40625 20.464844 7.507812 C 20.21875 7.589844 20.140625 7.519531 19.914062 7.410156 C 19.847656 7.378906 19.78125 7.347656 19.714844 7.316406 C 19.554688 7.203125 19.554688 7.203125 19.5 7.042969 C 19.5 6.996094 19.496094 6.949219 19.496094 6.902344 C 19.515625 6.882812 19.535156 6.863281 19.554688 6.84375 Z M 19.554688 6.84375 "/>
<path style=" stroke:none;fill-rule:nonzero;fill:rgb(0%,0%,0%);fill-opacity:1;" d="M 20.828125 7.570312 C 21.09375 7.597656 21.234375 7.695312 21.433594 7.871094 C 21.414062 7.949219 21.394531 8.03125 21.375 8.113281 C 21.273438 8.164062 21.273438 8.164062 21.132812 8.171875 C 20.996094 8.085938 20.886719 7.984375 20.765625 7.871094 C 20.789062 7.769531 20.808594 7.671875 20.828125 7.570312 Z M 20.828125 7.570312 "/>
</g>
</svg>
