<?xml version="1.0" encoding="UTF-8"?>
<svg version="1.1" xmlns="http://www.w3.org/2000/svg" width="512" height="512">
<path d="M0 0 C0.95084473 0.52182861 0.95084473 0.52182861 1.92089844 1.05419922 C16.49011161 9.17090773 28.95632711 19.53823224 41 31 C41.70511719 31.65226562 42.41023438 32.30453125 43.13671875 32.9765625 C58.07375357 47.21673768 69.38379679 65.39835198 78 84 C78.53367187 85.12792969 79.06734375 86.25585938 79.6171875 87.41796875 C99.75190939 131.91257437 99.88054164 183.72441348 82.79125977 229.13134766 C66.41537552 270.9764662 35.49825251 304.89441455 -4 326 C-5.03511719 326.58136719 -6.07023437 327.16273438 -7.13671875 327.76171875 C-47.77368886 349.57529136 -98.77747446 352.55167812 -142.59423828 339.73876953 C-172.62319151 330.51737594 -198.3361203 314.58308775 -221 293 C-221.70640625 292.34644531 -222.4128125 291.69289063 -223.140625 291.01953125 C-252.11335174 263.40122059 -268.77484967 223.07164647 -274 184 C-274.13148438 183.07960938 -274.26296875 182.15921875 -274.3984375 181.2109375 C-278.80171197 143.72360079 -270.05967344 104.89530476 -252 72 C-251.65211426 71.36610352 -251.30422852 70.73220703 -250.94580078 70.07910156 C-242.82909227 55.50988839 -232.46176776 43.04367289 -221 31 C-220.34773438 30.29488281 -219.69546875 29.58976562 -219.0234375 28.86328125 C-204.78326232 13.92624643 -186.60164802 2.61620321 -168 -6 C-166.30810547 -6.80050781 -166.30810547 -6.80050781 -164.58203125 -7.6171875 C-112.24233101 -31.30197565 -50.02937639 -27.46635748 0 0 Z M-211 37 C-211.74507812 37.67289063 -212.49015625 38.34578125 -213.2578125 39.0390625 C-245.50942662 69.72379658 -262.79315707 115.13451155 -264 159 C-264.37753814 206.858984 -245.67162526 251.47134384 -212.39404297 285.64941406 C-179.73365153 318.13880869 -134.79838909 335.91850319 -88.88232422 336.03466797 C-42.11704732 335.47218539 2.24269931 315.98220667 35.16796875 282.87109375 C67.12806691 249.69239524 84.29414664 204.91009761 84 159 C82.95139408 112.2744333 62.93149899 67.71490926 29.2890625 35.30810547 C6.99206349 14.48624328 -19.64919021 0.79139915 -49 -7 C-50.17691406 -7.31839844 -51.35382813 -7.63679688 -52.56640625 -7.96484375 C-109.83430402 -21.81664574 -168.41444389 -1.74849576 -211 37 Z " fill="#000000" transform="translate(346,94)"/>
<path d="M0 0 C0.99 0.99 0.99 0.99 2 2 C1.625 4.125 1.625 4.125 1 6 C-5.32739815 5.43966325 -11.09114895 4.30332164 -17.1875 2.5625 C-57.22199998 -8.2299795 -98.39645262 -0.84124368 -134.1328125 19.38647461 C-141.28618379 23.59770513 -147.69986816 28.61546476 -154 34 C-154.52577637 34.44601563 -155.05155273 34.89203125 -155.59326172 35.3515625 C-167.92275753 45.91639198 -177.77541139 58.02515385 -186 72 C-186.37366699 72.62293945 -186.74733398 73.24587891 -187.13232422 73.88769531 C-206.68711757 106.89318447 -212.44867637 148.31104284 -203.38183594 185.53808594 C-197.26498032 209.05281039 -186.80656553 230.50565604 -171 249 C-170.55398437 249.52577637 -170.10796875 250.05155273 -169.6484375 250.59326172 C-159.08360802 262.92275753 -146.97484615 272.77541139 -133 281 C-132.06559082 281.56050049 -132.06559082 281.56050049 -131.11230469 282.13232422 C-98.10681553 301.68711757 -56.68895716 307.44867637 -19.46191406 298.38183594 C19.97607713 288.12288101 54.30537026 264.13085901 75.4140625 229.046875 C96.14014155 193.64143145 103.10891031 151.85522326 92.7109375 111.8828125 C85.03135889 84.11413046 70.59065996 58.71498951 49.625 38.76171875 C48.75875 37.85035156 47.8925 36.93898437 47 36 C47.125 33.125 47.125 33.125 48 31 C56.13377315 31.77256268 61.80563603 40.35285925 66.80859375 46.28125 C95.34328304 81.07177641 107.52511971 123.1574548 103.75244141 167.93847656 C103.15059784 173.36402169 102.20455857 178.67783086 101 184 C100.7831958 184.98129883 100.7831958 184.98129883 100.56201172 185.98242188 C91.27272261 226.8429494 65.60098724 262.68743644 30.3125 285.125 C-5.88625389 307.45880675 -49.39694733 315.20088873 -91.08349609 305.72314453 C-132.83566797 295.37073091 -168.71999324 270.00584989 -191.36181641 233.30786133 C-212.83351335 197.34897835 -220.41971027 153.40801295 -210.38183594 112.47949219 C-207.35951785 100.85214619 -203.25824703 89.79432134 -198 79 C-197.45601562 77.88238281 -196.91203125 76.76476562 -196.3515625 75.61328125 C-177.68213773 39.28240535 -144.28331864 11.34781113 -105.6628418 -1.60571289 C-72.54576595 -12.1644406 -32.59251708 -13.63415645 0 0 Z " fill="#000000" transform="translate(311,106)"/>
<path d="M0 0 C2.625 1.375 2.625 1.375 4 4 C4.85820089 11.86399275 3.19648739 19.54828164 1.67675781 27.22631836 C1.42959015 28.51399109 1.18242249 29.80166382 0.92776489 31.12835693 C0.25406284 34.63678579 -0.43105894 38.14289433 -1.11843014 41.6486671 C-1.84112618 45.34471958 -2.55339111 49.04278229 -3.26690674 52.74061584 C-4.46805295 58.95791336 -5.67594489 65.17386747 -6.88867188 71.38891602 C-8.58640404 80.08961115 -10.27182278 88.79265697 -11.95479345 97.49621761 C-13.27468705 104.31957098 -14.59806017 111.14225024 -15.921875 117.96484375 C-16.06126464 118.68343842 -16.20065428 119.4020331 -16.34426785 120.14240336 C-17.99604706 128.65571438 -19.66111015 137.16616232 -21.34715271 145.67277145 C-21.95478729 148.76957394 -22.54277821 151.86943004 -23.12561035 154.97097778 C-23.45981769 156.68982467 -23.7945294 158.40857361 -24.12988281 160.12719727 C-24.26389874 160.8729473 -24.39791466 161.61869734 -24.53599167 162.38704586 C-25.4347115 166.87882504 -26.78923278 169.72223232 -30 173 C-34.11227015 175.10395217 -38.01203009 175.50656892 -42.53125 174.84375 C-47.30651141 173.21169863 -50.77334081 169.73323113 -54.45947266 166.38720703 C-57.21341979 163.90734529 -60.05314505 161.52690134 -62.875 159.125 C-66.48504805 156.0368626 -70.07986129 152.9339566 -73.640625 149.7890625 C-74.80203469 148.7759859 -75.96349121 147.76296299 -77.125 146.75 C-77.92333252 146.03287842 -77.92333252 146.03287842 -78.73779297 145.30126953 C-81.85218969 142.60305945 -82.69651658 142 -87 142 C-89.00437457 143.56656913 -90.75530751 145.10542063 -92.5625 146.875 C-93.62339563 147.88052736 -94.68460098 148.88572803 -95.74609375 149.890625 C-96.28347168 150.40560547 -96.82084961 150.92058594 -97.37451172 151.45117188 C-99.92373578 153.88017119 -102.5218773 156.25407252 -105.125 158.625 C-106.01445312 159.44226563 -106.90390625 160.25953125 -107.8203125 161.1015625 C-110.62756569 163.54658947 -111.61340856 163.9570454 -115.375 164.375 C-119 164 -119 164 -121.03979492 161.95751953 C-123.28904722 158.56389114 -124.6725924 155.12566273 -125.98828125 151.3046875 C-126.25257431 150.56311401 -126.51686737 149.82154053 -126.78916931 149.05749512 C-127.63924968 146.66639921 -128.47584466 144.27082223 -129.3125 141.875 C-129.89250106 140.23741941 -130.47355778 138.60021234 -131.05566406 136.96337891 C-132.19479322 133.75819041 -133.32983359 130.55160677 -134.46142578 127.34375 C-136.34799471 122.00496711 -138.28630568 116.68586381 -140.25 111.375 C-140.52497314 110.62589355 -140.79994629 109.87678711 -141.08325195 109.10498047 C-142.41080584 105.49710319 -142.41080584 105.49710319 -144 102 C-146.87564104 101.0980209 -149.71793347 100.31030111 -152.63671875 99.57421875 C-154.42914977 99.10264402 -156.22146379 98.63062442 -158.01367188 98.15820312 C-160.84506968 97.42163308 -163.67755543 96.69003621 -166.51245117 95.96704102 C-169.24521872 95.26669311 -171.97222706 94.5466806 -174.69921875 93.82421875 C-175.54006516 93.61568771 -176.38091156 93.40715668 -177.24723816 93.19230652 C-182.65663809 91.74422107 -185.99759257 89.94963536 -190 86 C-191.57455739 82.85088521 -191.34799118 80.47991184 -191 77 C-187.39153437 71.62792956 -183.83931608 69.56597812 -177.890625 67.28515625 C-177.0768338 66.95695892 -176.2630426 66.6287616 -175.42459106 66.2906189 C-172.70584863 65.19851361 -169.97816172 64.13083337 -167.25 63.0625 C-165.30222106 62.28497601 -163.35513445 61.50571575 -161.40869141 60.72485352 C-157.193386 59.03638493 -152.97447672 57.35737025 -148.75292969 55.68457031 C-141.78464964 52.91978336 -134.83242215 50.11602219 -127.8828125 47.3046875 C-126.09874748 46.58309448 -126.09874748 46.58309448 -124.27864075 45.84692383 C-121.85966196 44.86849393 -119.44070145 43.89001884 -117.02175903 42.91149902 C-110.95530785 40.45947435 -104.88574125 38.01518819 -98.81640625 35.5703125 C-87.51253369 31.01575298 -76.21466443 26.44654321 -64.92001343 21.86917114 C-51.81002762 16.55646842 -38.69463403 11.2577468 -25.5625 6 C-24.92704254 5.74529938 -24.29158508 5.49059875 -23.63687134 5.22817993 C-21.8846143 4.52612578 -20.13177691 3.82552067 -18.37890625 3.125 C-17.4051001 2.73570312 -16.43129395 2.34640625 -15.42797852 1.9453125 C-10.14577596 -0.11126752 -5.63844025 -0.6182905 0 0 Z M-13.234375 7.80859375 C-14.26103271 8.2169043 -15.28769043 8.62521484 -16.34545898 9.04589844 C-17.46895752 9.50512695 -18.59245605 9.96435547 -19.75 10.4375 C-20.95664307 10.9212207 -22.16328613 11.40494141 -23.40649414 11.90332031 C-26.84879537 13.28403028 -30.28538877 14.67849522 -33.72125244 16.07513428 C-36.92282895 17.37454472 -40.12749223 18.66625941 -43.33206177 19.95826721 C-54.03403876 24.27320523 -64.72683469 28.61063664 -75.41815186 32.9519043 C-81.6948794 35.49992835 -87.97332008 38.04372928 -94.25140381 40.58840942 C-96.4999175 41.49996656 -98.74827206 42.41191514 -100.99658203 43.32397461 C-109.26213297 46.67665656 -117.53008343 50.02331474 -125.80078125 53.36328125 C-136.20474951 57.56511824 -146.60491368 61.77623575 -157 66 C-157.69828918 66.28353333 -158.39657837 66.56706665 -159.11602783 66.85919189 C-163.20656601 68.52097693 -167.29235991 70.19387526 -171.375 71.875 C-172.79969604 72.45471558 -172.79969604 72.45471558 -174.25317383 73.04614258 C-175.10548584 73.3995874 -175.95779785 73.75303223 -176.8359375 74.1171875 C-177.55313965 74.41222168 -178.2703418 74.70725586 -179.00927734 75.01123047 C-181.22652667 76.11251325 -183.06512291 77.46263345 -185 79 C-184.87822312 80.91466367 -184.87822312 80.91466367 -184 83 C-173.06382887 90.73549929 -154.31531823 95.58827634 -141 96 C-132.79616504 94.48922954 -126.87463101 89.47198401 -120.66748047 84.17529297 C-116.15520295 80.49559384 -111.16598209 77.62377962 -106.1875 74.625 C-104.17873602 73.37078964 -102.17223954 72.11294068 -100.16796875 70.8515625 C-92.72203101 66.19205378 -85.2355472 61.59902795 -77.74902344 57.00512695 C-69.13178786 51.71173781 -60.55323188 46.35829478 -52.00195312 40.95898438 C-36.19312993 31.02169327 -36.19312993 31.02169327 -31.5625 30.9375 C-29 32 -29 32 -27.5625 33.6875 C-26.76917828 36.94893373 -27.03933986 38.75002476 -28 42 C-30.06043488 44.53705466 -32.4712936 46.6146443 -34.9375 48.75 C-36.31385371 49.98416908 -37.68885046 51.2198531 -39.0625 52.45703125 C-39.73667969 53.05854004 -40.41085937 53.66004883 -41.10546875 54.27978516 C-43.6424576 56.58334488 -46.03883415 58.99011125 -48.4375 61.4375 C-51.16736456 64.20322485 -53.91839459 66.85372299 -56.875 69.375 C-60.43286253 72.41430767 -63.71441388 75.67364346 -67 79 C-70.22397498 82.2638325 -73.435179 85.46830186 -76.9375 88.4375 C-81.27129923 92.11987221 -85.20848515 96.17620102 -89.19824219 100.22216797 C-92.81160383 103.86837835 -96.51353951 107.30750406 -100.51171875 110.53515625 C-102.20593408 112.20269103 -103.05409487 113.83327149 -104 116 C-95.24845358 123.61372434 -86.46414264 131.18343922 -77.59277344 138.65722656 C-75.43548867 140.47590624 -73.28168522 142.29868117 -71.12817383 144.12182617 C-70.0476269 145.03645917 -68.96673796 145.95068827 -67.88549805 146.86450195 C-65.10911306 149.21136311 -62.33779127 151.56384062 -59.57421875 153.92578125 C-49.84171726 163.42838145 -49.84171726 163.42838145 -38 169 C-35.31353368 168.79372806 -35.31353368 168.79372806 -33 167 C-30.02474702 159.48759813 -28.60164569 151.69075801 -27.08911133 143.77880859 C-26.81331057 142.36018808 -26.5369951 140.94166756 -26.26020813 139.52323914 C-25.5150536 135.69599664 -24.77753629 131.86732057 -24.0418036 128.03825712 C-23.42541474 124.8343711 -22.8051247 121.6312456 -22.18481177 118.42811739 C-20.7214026 110.87140856 -19.26406002 103.31354783 -17.81079102 95.75488281 C-16.31363315 87.96839426 -14.80735738 80.18371025 -13.29641134 72.39988649 C-11.99645611 65.7016337 -10.70159109 59.00241129 -9.41091174 52.30236495 C-8.64127495 48.30718395 -7.86986785 44.31236715 -7.09379005 40.31843185 C-6.36475864 36.5651779 -5.64213505 32.81074503 -4.92436028 29.05532265 C-4.66055346 27.68069423 -4.39454737 26.3064857 -4.12613678 24.93274879 C-3.75897378 23.05166359 -3.40069163 21.16885155 -3.0428009 19.28598022 C-2.84021573 18.23484228 -2.63763056 17.18370434 -2.42890644 16.10071373 C-1.95854458 12.70030433 -1.92808312 9.42853294 -2 6 C-6.23645126 5.82083696 -9.30858414 6.22518179 -13.234375 7.80859375 Z M-40.0390625 39.97265625 C-41.08191406 40.6171875 -42.12476563 41.26171875 -43.19921875 41.92578125 C-44.34121074 42.63791676 -45.48313604 43.35015923 -46.625 44.0625 C-47.80577081 44.79462378 -48.98676341 45.52638998 -50.16796875 46.2578125 C-58.77793553 51.59476753 -67.36449829 56.96958842 -75.94897461 62.34741211 C-85.49338905 68.32235801 -95.08520167 74.21920409 -104.6796875 80.11328125 C-111.60297123 84.36730876 -118.51190933 88.64433566 -125.41674805 92.92822266 C-129.26217039 95.31251667 -133.11028381 97.68826198 -137 100 C-135.09082772 106.55170562 -133.01335742 113.01248401 -130.71484375 119.4375 C-130.41308731 120.28425293 -130.11133087 121.13100586 -129.8004303 122.00341797 C-129.16902584 123.77181224 -128.53623674 125.53971271 -127.90209961 127.30712891 C-126.93067446 130.01905485 -125.96816522 132.73404556 -125.00585938 135.44921875 C-124.38856161 137.17467273 -123.77074209 138.89994016 -123.15234375 140.625 C-122.86584457 141.43638428 -122.5793454 142.24776855 -122.28416443 143.08374023 C-120.76758811 147.41413366 -120.76758811 147.41413366 -118 151 C-117.8548999 149.95134766 -117.7097998 148.90269531 -117.56030273 147.82226562 C-117.00933655 143.89652132 -116.42068121 139.97717347 -115.82104492 136.05859375 C-115.56771905 134.36867959 -115.32435434 132.67723863 -115.09155273 130.984375 C-112.65246358 113.34388375 -112.65246358 113.34388375 -105 107 C-103.84486037 105.82155072 -102.69787419 104.63500396 -101.5625 103.4375 C-99.24274705 101.14847225 -96.85367057 98.98992436 -94.375 96.875 C-90.56055544 93.59487452 -87.03436565 90.07475263 -83.5 86.5 C-79.49088538 82.44533373 -75.4413548 78.56021834 -71.08984375 74.87109375 C-68.28089466 72.3561655 -65.64891383 69.68164678 -63 67 C-59.77601619 63.73617703 -56.56482179 60.53169881 -53.0625 57.5625 C-48.60918166 53.78563508 -44.55998597 49.61151017 -40.47875977 45.44165039 C-38.0810783 43.00646571 -35.85370723 40.90247148 -33 39 C-33 38.34 -33 37.68 -33 37 C-35.93938101 37 -37.5496336 38.42732171 -40.0390625 39.97265625 Z M-107 122 C-108.9952959 128.31994176 -110.10041324 134.71963044 -111.1875 141.25 C-111.37763672 142.33796875 -111.56777344 143.4259375 -111.76367188 144.546875 C-111.93833984 145.5884375 -112.11300781 146.63 -112.29296875 147.703125 C-112.4530542 148.64833008 -112.61313965 149.59353516 -112.77807617 150.56738281 C-113.17662536 153.13863887 -113.17662536 153.13863887 -112 156 C-111.5467334 155.57178955 -111.0934668 155.1435791 -110.62646484 154.70239258 C-108.54433536 152.73729331 -106.45968963 150.77488297 -104.375 148.8125 C-103.66214844 148.13896484 -102.94929688 147.46542969 -102.21484375 146.77148438 C-98.24560203 143.03894055 -94.22934024 139.43550509 -90 136 C-93.4195092 132.4868911 -96.94311095 129.28960013 -100.75 126.1875 C-101.71421875 125.39730469 -102.6784375 124.60710937 -103.671875 123.79296875 C-105.6422929 121.89830661 -105.6422929 121.89830661 -107 122 Z " fill="#000000" transform="translate(334,174)"/>
<path d="M0 0 C5.81316339 0.29065817 10.13978949 3.07307323 15 6 C15 7.65 15 9.3 15 11 C10.96631575 12.34456142 9.636708 11.21506439 5.875 9.375 C4.79992187 8.86710937 3.72484375 8.35921875 2.6171875 7.8359375 C0 6 0 6 -0.9296875 3.3515625 C-0.95289063 2.57554688 -0.97609375 1.79953125 -1 1 C-0.67 0.67 -0.34 0.34 0 0 Z " fill="#000000" transform="translate(323,113)"/>
<path d="M0 0 C4.40114397 0.50298788 6.71195019 2.08772731 10 5 C9.67 6.32 9.34 7.64 9 9 C7.375 9.8125 7.375 9.8125 5 10 C2.75390165 8.53181864 0.97621323 6.84147142 -1 5 C-0.67 3.35 -0.34 1.7 0 0 Z " fill="#000000" transform="translate(344,125)"/>
</svg>
