<?xml version="1.0" encoding="UTF-8"?>
<svg xmlns="http://www.w3.org/2000/svg" xmlns:xlink="http://www.w3.org/1999/xlink" width="60px" height="60px" viewBox="0 0 60 60" version="1.1">
<g id="surface1">
<path style=" stroke:none;fill-rule:nonzero;fill:rgb(0%,0%,0%);fill-opacity:1;" d="M 3.660156 1.949219 C 2.628906 2.902344 3.105469 5.28125 4.371094 5.992188 C 5.480469 6.625 6.035156 10.75 7.78125 29.613281 C 8.96875 42.21875 10.398438 53.3125 10.871094 54.265625 C 12.855469 57.910156 15.46875 58.464844 30.054688 58.464844 C 44.640625 58.464844 47.257812 57.910156 49.238281 54.265625 C 49.714844 53.3125 51.140625 42.21875 52.25 29.691406 C 54.074219 10.429688 54.625 6.707031 55.816406 5.832031 C 56.53125 5.28125 57.085938 4.167969 56.847656 3.296875 C 56.609375 1.867188 55.578125 1.789062 30.371094 1.554688 C 15.945312 1.472656 3.976562 1.632812 3.660156 1.949219 Z M 53.144531 6.5 C 52.863281 7.613281 51.734375 18.328125 50.609375 30.332031 C 49.296875 44.730469 48.167969 52.875 47.324219 54.078125 C 46.011719 55.960938 45.542969 56.046875 30.054688 56.046875 C 14.570312 56.046875 14.097656 55.960938 12.785156 54.078125 C 11.941406 52.875 10.816406 44.734375 9.5 30.332031 C 8.375 18.328125 7.25 7.613281 6.964844 6.5 L 6.589844 4.613281 L 53.519531 4.613281 Z M 53.144531 6.5 "/>
<path style=" stroke:none;fill-rule:nonzero;fill:rgb(0%,0%,0%);fill-opacity:1;" d="M 26.84375 17.8125 C 25.355469 19.691406 25.25 19.761719 23.976562 19.550781 C 22.664062 19.335938 22.628906 19.335938 21.742188 21.039062 C 21.25 22.101562 20.292969 23.199219 19.441406 23.765625 L 17.988281 24.792969 L 17.988281 27.875 C 17.988281 30.671875 18.058594 31.027344 18.769531 31.523438 C 19.40625 31.949219 19.441406 32.09375 19.015625 32.09375 C 18.414062 32.125 15.863281 36.023438 15.863281 36.945312 C 15.863281 37.226562 16.574219 37.796875 17.421875 38.183594 C 18.523438 38.75 19.160156 39.355469 19.65625 40.414062 C 20.292969 41.65625 20.683594 41.972656 22.558594 42.683594 L 24.71875 43.53125 L 26.8125 42.824219 L 28.867188 42.113281 L 30.53125 43.140625 C 31.417969 43.710938 32.335938 44.171875 32.550781 44.171875 C 32.726562 44.171875 34.179688 43.214844 35.703125 42.042969 C 38.324219 40.0625 38.609375 39.917969 40.414062 39.917969 C 42.289062 39.917969 42.363281 39.882812 43.320312 38.46875 C 44.238281 37.050781 44.273438 36.945312 43.847656 34.816406 C 43.601562 33.648438 43.140625 32.089844 42.785156 31.382812 C 42.253906 30.355469 42.183594 29.859375 42.46875 28.582031 C 42.644531 27.734375 43.140625 26.632812 43.496094 26.070312 C 44.488281 24.722656 44.382812 24.296875 42.824219 22.773438 L 41.441406 21.429688 L 39.066406 21.816406 C 36.019531 22.347656 35.3125 22.136719 35.5625 20.828125 C 35.773438 19.871094 35.59375 19.695312 32.550781 17.816406 C 30.78125 16.71875 29.113281 15.832031 28.902344 15.832031 C 28.652344 15.828125 27.730469 16.714844 26.84375 17.8125 Z M 31.273438 19.550781 C 32.335938 20.222656 33.222656 20.929688 33.222656 21.144531 C 33.222656 21.320312 32.796875 22.523438 32.300781 23.800781 C 31.273438 26.3125 31.378906 27.269531 32.585938 27.09375 C 33.113281 27.023438 33.503906 26.527344 33.894531 25.464844 C 34.425781 23.941406 34.496094 23.90625 35.734375 24.117188 C 36.445312 24.222656 37.789062 24.1875 38.746094 24.011719 C 40.164062 23.726562 40.589844 23.796875 41.121094 24.222656 C 41.652344 24.71875 41.652344 24.894531 41.226562 25.570312 C 40.976562 25.960938 40.554688 27.234375 40.304688 28.367188 C 39.914062 30.28125 39.953125 30.5625 40.765625 32.441406 C 42.820312 37.152344 42.464844 37.71875 37.4375 37.859375 C 34.140625 37.96875 33.75 38.039062 33.644531 38.640625 C 33.539062 39.03125 33.75 39.527344 34.070312 39.773438 C 34.601562 40.164062 34.566406 40.269531 33.539062 41.011719 C 32.726562 41.582031 32.265625 41.722656 31.839844 41.4375 C 28.96875 39.703125 29.253906 39.738281 26.914062 40.554688 C 24.894531 41.226562 24.648438 41.226562 23.371094 40.730469 C 22.34375 40.339844 21.8125 39.808594 21.246094 38.710938 C 20.785156 37.71875 20.148438 37.046875 19.476562 36.761719 L 18.378906 36.300781 L 19.050781 35.203125 C 19.582031 34.316406 20.359375 33.855469 22.664062 32.972656 C 24.964844 32.121094 25.636719 31.695312 25.710938 31.09375 C 25.851562 30.101562 25.070312 29.820312 23.515625 30.351562 C 22.523438 30.667969 22.097656 30.632812 21.210938 30.171875 C 20.183594 29.679688 20.113281 29.5 20.113281 27.730469 C 20.113281 25.921875 20.183594 25.78125 21.496094 24.894531 C 22.273438 24.363281 23.089844 23.445312 23.300781 22.875 C 23.796875 21.671875 23.761719 21.671875 25.886719 22.414062 C 26.808594 22.734375 27.800781 22.875 28.085938 22.769531 C 28.792969 22.519531 28.757812 21.246094 28.015625 20.855469 C 27.484375 20.539062 27.519531 20.429688 28.226562 19.40625 C 28.652344 18.804688 29.113281 18.308594 29.183594 18.308594 C 29.289062 18.308594 30.210938 18.875 31.273438 19.550781 Z M 31.273438 19.550781 "/>
<path style=" stroke:none;fill-rule:nonzero;fill:rgb(0%,0%,0%);fill-opacity:1;" d="M 30.742188 32.375 C 29.5 33.402344 28.792969 34.25 28.792969 34.746094 C 28.792969 35.949219 29.925781 35.808594 31.625 34.390625 L 33.21875 33.082031 L 34.636719 33.71875 C 37.542969 35.03125 38.214844 33.046875 35.347656 31.59375 C 34.390625 31.097656 33.398438 30.707031 33.148438 30.742188 C 32.902344 30.742188 31.804688 31.488281 30.742188 32.375 Z M 30.742188 32.375 "/>
</g>
</svg>
