<?xml version="1.0" encoding="UTF-8"?>
<svg xmlns="http://www.w3.org/2000/svg" xmlns:xlink="http://www.w3.org/1999/xlink" width="600px" height="600px" viewBox="0 0 600 600" version="1.1">
<g id="surface1">
<path style=" stroke:none;fill-rule:nonzero;fill:rgb(0%,0%,0%);fill-opacity:1;" d="M 36.585938 19.5 C 26.285156 29.015625 31.042969 52.792969 43.722656 59.929688 C 54.820312 66.269531 60.363281 107.484375 77.8125 296.132812 C 89.707031 422.167969 103.96875 533.144531 108.726562 542.648438 C 128.542969 579.105469 154.699219 584.660156 300.550781 584.660156 C 446.402344 584.660156 472.558594 579.117188 492.375 542.648438 C 497.132812 533.132812 511.394531 422.167969 522.492188 296.917969 C 540.726562 104.308594 546.269531 67.054688 558.164062 58.335938 C 565.300781 52.792969 570.84375 41.695312 568.464844 32.964844 C 566.085938 18.691406 555.785156 17.90625 303.714844 15.527344 C 159.457031 14.742188 39.761719 16.324219 36.585938 19.5 Z M 531.433594 65.003906 C 528.621094 76.148438 517.347656 183.292969 506.097656 303.304688 C 492.960938 447.316406 481.6875 528.75 473.25 540.761719 C 460.113281 559.617188 455.414062 560.484375 300.550781 560.484375 C 145.6875 560.484375 140.988281 559.617188 127.851562 540.761719 C 119.402344 528.761719 108.152344 447.328125 95.003906 303.304688 C 83.742188 183.292969 72.480469 76.148438 69.65625 65.003906 L 65.894531 46.148438 L 535.183594 46.148438 Z M 531.433594 65.003906 "/>
<path style=" stroke:none;fill-rule:nonzero;fill:rgb(0%,0%,0%);fill-opacity:1;" d="M 268.453125 178.136719 C 253.570312 196.910156 252.515625 197.625 239.753906 195.492188 C 226.652344 193.371094 226.289062 193.371094 217.441406 210.375 C 212.484375 221.003906 202.921875 231.984375 194.414062 237.65625 L 179.894531 247.933594 L 179.894531 278.753906 C 179.894531 306.738281 180.597656 310.277344 187.6875 315.246094 C 194.0625 319.5 194.414062 320.917969 190.171875 320.917969 C 184.148438 321.269531 158.648438 360.234375 158.648438 369.445312 C 158.648438 372.28125 165.738281 377.953125 174.234375 381.84375 C 185.214844 387.515625 191.589844 393.539062 196.546875 404.15625 C 202.921875 416.554688 206.824219 419.742188 225.597656 426.832031 L 247.207031 435.328125 L 268.113281 428.238281 L 288.65625 421.148438 L 305.308594 431.425781 C 314.167969 437.097656 323.378906 441.703125 325.5 441.703125 C 327.269531 441.703125 341.800781 432.140625 357.023438 420.445312 C 383.238281 400.605469 386.074219 399.1875 404.132812 399.1875 C 422.90625 399.1875 423.621094 398.835938 433.183594 384.667969 C 442.394531 370.5 442.746094 369.433594 438.492188 348.175781 C 436.007812 336.480469 431.402344 320.894531 427.863281 313.816406 C 422.554688 303.539062 421.839844 298.582031 424.675781 285.832031 C 426.445312 277.335938 431.402344 266.34375 434.953125 260.683594 C 444.867188 247.21875 443.8125 242.976562 428.226562 227.742188 L 414.410156 214.277344 L 390.679688 218.179688 C 360.210938 223.488281 353.132812 221.367188 355.605469 208.265625 C 357.726562 198.703125 355.957031 196.933594 325.5 178.160156 C 307.792969 167.179688 291.140625 158.320312 289.007812 158.320312 C 286.511719 158.296875 277.300781 167.15625 268.453125 178.136719 Z M 312.726562 195.492188 C 323.355469 202.21875 332.214844 209.308594 332.214844 211.429688 C 332.214844 213.199219 327.960938 225.246094 323.003906 237.996094 C 312.726562 263.144531 313.792969 272.707031 325.839844 270.9375 C 331.148438 270.234375 335.050781 265.265625 338.941406 254.636719 C 344.25 239.402344 344.964844 239.050781 357.363281 241.171875 C 364.453125 242.238281 377.90625 241.875 387.46875 240.105469 C 401.636719 237.269531 405.890625 237.984375 411.199219 242.226562 C 416.507812 247.183594 416.507812 248.953125 412.265625 255.691406 C 409.78125 259.59375 405.539062 272.34375 403.054688 283.675781 C 399.152344 302.800781 399.515625 305.636719 407.660156 324.410156 C 428.203125 371.519531 424.664062 377.191406 374.355469 378.609375 C 341.414062 379.675781 337.511719 380.378906 336.445312 386.402344 C 335.378906 390.304688 337.511719 395.261719 340.699219 397.734375 C 346.007812 401.636719 345.65625 402.691406 335.390625 410.132812 C 327.246094 415.804688 322.640625 417.222656 318.386719 414.386719 C 289.6875 397.03125 292.523438 397.382812 269.144531 405.527344 C 248.953125 412.253906 246.46875 412.253906 233.71875 407.296875 C 223.441406 403.394531 218.132812 398.085938 212.460938 387.105469 C 207.855469 377.191406 201.480469 370.453125 194.753906 367.617188 L 183.773438 363.011719 L 190.5 352.03125 C 195.808594 343.171875 203.601562 338.566406 226.628906 329.71875 C 249.65625 321.222656 256.382812 316.96875 257.097656 310.945312 C 258.515625 301.03125 250.722656 298.195312 235.136719 303.503906 C 225.222656 306.691406 220.96875 306.339844 212.109375 301.734375 C 201.832031 296.777344 201.128906 295.007812 201.128906 277.289062 C 201.128906 259.21875 201.832031 257.800781 214.945312 248.953125 C 222.738281 243.644531 230.882812 234.433594 233.015625 228.761719 C 237.972656 216.714844 237.621094 216.714844 258.878906 224.15625 C 268.089844 227.34375 278.003906 228.761719 280.839844 227.695312 C 287.929688 225.210938 287.566406 212.460938 280.136719 208.570312 C 274.828125 205.382812 275.179688 204.316406 282.257812 194.050781 C 286.511719 188.027344 291.117188 183.070312 291.820312 183.070312 C 292.886719 183.09375 302.097656 188.765625 312.726562 195.492188 Z M 312.726562 195.492188 "/>
<path style=" stroke:none;fill-rule:nonzero;fill:rgb(0%,0%,0%);fill-opacity:1;" d="M 307.417969 323.730469 C 295.019531 334.007812 287.929688 342.503906 287.929688 347.460938 C 287.929688 359.507812 299.261719 358.089844 316.265625 343.921875 L 332.203125 330.820312 L 346.371094 337.195312 C 375.421875 350.296875 382.148438 330.46875 353.460938 315.9375 C 343.898438 310.980469 333.972656 307.078125 331.5 307.441406 C 329.027344 307.441406 318.046875 314.882812 307.417969 323.730469 Z M 307.417969 323.730469 "/>
</g>
</svg>
