<?xml version="1.0" encoding="utf-8"?>
<!-- Generator: Adobe Illustrator 24.3.0, SVG Export Plug-In . SVG Version: 6.00 Build 0)  -->
<svg version="1.1" id="Слой_1" xmlns="http://www.w3.org/2000/svg" xmlns:xlink="http://www.w3.org/1999/xlink" x="0px" y="0px"
	 viewBox="0 0 512 512" style="enable-background:new 0 0 512 512;" xml:space="preserve">
<g transform="translate(0.000000,96.000000) scale(0.100000,-0.100000)">
	<path d="M312.2,793.6c-87.9-81.2-47.3-284.1,60.9-345C467.8,394.5,515.1,42.8,664-1567c101.5-1075.5,223.2-2022.5,263.8-2103.6
		c169.1-311.1,392.3-358.5,1636.9-358.5s1467.8,47.3,1636.9,358.5c40.6,81.2,162.3,1028.1,257,2096.9
		C4614.2,69.9,4661.5,387.8,4763,462.2c60.9,47.3,108.2,142,87.9,216.5c-20.3,121.8-108.2,128.5-2259.2,148.8
		C1360.7,834.2,339.3,820.7,312.2,793.6z M4534.9,405.3c-24-95.1-120.2-1009.4-216.2-2033.5
		c-112.1-1228.9-208.3-1923.8-280.3-2026.3c-112.1-160.9-152.2-168.3-1473.7-168.3s-1361.6,7.4-1473.7,168.3
		c-72.1,102.4-168.1,797.3-280.3,2026.3C714.6-604.1,618.5,310.2,594.4,405.3l-32.1,160.9h2002.3h2002.3L4534.9,405.3z"/>
</g>
<g transform="translate(0.000000,96.000000) scale(0.100000,-0.100000)">
	<path d="M2290.8-560.1c-127-160.2-136-166.3-244.9-148.1c-111.8,18.1-114.9,18.1-190.4-127c-42.3-90.7-123.9-184.4-196.5-232.8
		l-123.9-87.7v-263c0-238.8,6-269,66.5-311.4c54.4-36.3,57.4-48.4,21.2-48.4c-51.4-3-269-335.5-269-414.1
		c0-24.2,60.5-72.6,133-105.8c93.7-48.4,148.1-99.8,190.4-190.4c54.4-105.8,87.7-133,247.9-193.5l184.4-72.5l178.4,60.5l175.3,60.5
		l142.1-87.7c75.6-48.4,154.2-87.7,172.3-87.7c15.1,0,139.1,81.6,269,181.4c223.7,169.3,247.9,181.4,402,181.4
		c160.2,0,166.3,3,247.9,123.9c78.6,120.9,81.6,130,45.3,311.4c-21.2,99.8-60.5,232.8-90.7,293.2c-45.3,87.7-51.4,130-27.2,238.8
		c15.1,72.5,57.4,166.3,87.7,214.6c84.6,114.9,75.6,151.1-57.4,281.1l-117.9,114.9l-202.5-33.3c-260-45.3-320.4-27.2-299.3,84.6
		c18.1,81.6,3,96.7-256.9,256.9C2626.5-466.6,2484.4-391,2466.2-391C2444.9-390.8,2366.3-466.4,2290.8-560.1z M2668.6-708.2
		c90.7-57.4,166.3-117.9,166.3-136c0-15.1-36.3-117.9-78.6-226.7c-87.7-214.6-78.6-296.2,24.2-281.1c45.3,6,78.6,48.4,111.8,139.1
		c45.3,130,51.4,133,157.2,114.9c60.5-9.1,175.3-6,256.9,9.1c120.9,24.2,157.2,18.1,202.5-18.1c45.3-42.3,45.3-57.4,9.1-114.9
		c-21.2-33.3-57.4-142.1-78.6-238.8c-33.3-163.2-30.2-187.4,39.3-347.6c175.3-402,145.1-450.4-284.2-462.5
		c-281.1-9.1-314.4-15.1-323.5-66.5c-9.1-33.3,9.1-75.6,36.3-96.7c45.3-33.3,42.3-42.3-45.3-105.8c-69.5-48.4-108.8-60.5-145.1-36.3
		c-244.9,148.1-220.7,145.1-420.2,75.6c-172.3-57.4-193.5-57.4-302.3-15.1c-87.7,33.3-133,78.6-181.4,172.3
		c-39.3,84.6-93.7,142.1-151.1,166.3l-93.7,39.3l57.4,93.7c45.3,75.6,111.8,114.9,308.3,190.4c196.5,72.5,253.9,108.8,260,160.2
		c12.1,84.6-54.4,108.8-187.4,63.5c-84.6-27.2-120.9-24.2-196.5,15.1c-87.7,42.3-93.7,57.4-93.7,208.6c0,154.2,6,166.3,117.9,241.8
		c66.5,45.3,136,123.9,154.2,172.3c42.3,102.8,39.3,102.8,220.7,39.3c78.6-27.2,163.2-39.3,187.4-30.2c60.5,21.2,57.4,130-6,163.2
		c-45.3,27.2-42.3,36.3,18.1,123.9c36.3,51.4,75.6,93.7,81.6,93.7C2499.3-602.4,2577.9-650.8,2668.6-708.2z"/>
	<path d="M2623.3-1802.5c-105.8-87.7-166.3-160.2-166.3-202.5c0-102.8,96.7-90.7,241.8,30.2l136,111.8l120.9-54.4
		c247.9-111.8,305.3,57.4,60.5,181.4c-81.6,42.3-166.3,75.6-187.4,72.5C2807.7-1663.5,2714-1727,2623.3-1802.5z"/>
</g>
</svg>
