<?xml version="1.0" encoding="UTF-8"?>
<svg xmlns="http://www.w3.org/2000/svg" xmlns:xlink="http://www.w3.org/1999/xlink" width="32px" height="32px" viewBox="0 0 32 32" version="1.1">
<g id="surface1">
<path style=" stroke:none;fill-rule:nonzero;fill:rgb(0%,0%,0%);fill-opacity:1;" d="M 17.921875 3.199219 C 18.457031 3.292969 18.988281 3.398438 19.519531 3.519531 C 19.675781 4.144531 19.828125 4.773438 19.980469 5.398438 C 20.066406 5.75 20.152344 6.097656 20.238281 6.457031 C 20.855469 9.578125 20.863281 12.710938 20.859375 15.878906 C 20.859375 16.105469 20.859375 16.335938 20.859375 16.566406 C 20.84375 25.210938 20.84375 25.210938 19.199219 28.800781 C 17.648438 28.660156 16.792969 27.902344 15.679688 26.898438 C 15.308594 26.582031 14.9375 26.261719 14.566406 25.945312 C 14.011719 25.464844 13.464844 24.980469 12.925781 24.484375 C 10.464844 22.230469 8.652344 21.410156 5.289062 21.554688 C 4.160156 21.441406 4.160156 21.441406 3.222656 20.875 C 2.214844 19.296875 2.328125 17.835938 2.359375 16 C 2.355469 15.65625 2.347656 15.308594 2.339844 14.953125 C 2.351562 13.429688 2.386719 12.445312 3.1875 11.128906 C 4.53125 10.34375 5.59375 10.371094 7.121094 10.441406 C 7.386719 10.445312 7.648438 10.449219 7.921875 10.453125 C 9.863281 10.5 9.863281 10.5 10.238281 10.878906 C 10.269531 11.449219 10.273438 12.019531 10.269531 12.589844 C 10.269531 12.9375 10.269531 13.28125 10.269531 13.636719 C 10.265625 14 10.261719 14.367188 10.261719 14.738281 C 10.257812 15.105469 10.257812 15.46875 10.253906 15.84375 C 10.25 16.75 10.246094 17.65625 10.238281 18.558594 C 9.621094 18.738281 9.621094 18.738281 8.960938 18.878906 C 8.640625 18.558594 8.640625 18.558594 8.605469 17.9375 C 8.605469 17.667969 8.605469 17.402344 8.609375 17.128906 C 8.609375 16.839844 8.609375 16.554688 8.613281 16.257812 C 8.613281 15.953125 8.617188 15.652344 8.621094 15.339844 C 8.621094 15.035156 8.621094 14.730469 8.625 14.417969 C 8.628906 13.667969 8.632812 12.914062 8.640625 12.160156 C 8.007812 12.203125 7.375 12.253906 6.738281 12.300781 C 6.386719 12.324219 6.035156 12.351562 5.671875 12.378906 C 4.828125 12.386719 4.828125 12.386719 4.480469 12.800781 C 4.449219 13.273438 4.4375 13.746094 4.4375 14.21875 C 4.4375 14.507812 4.4375 14.792969 4.4375 15.085938 C 4.4375 15.386719 4.4375 15.691406 4.441406 16 C 4.4375 16.300781 4.4375 16.601562 4.4375 16.914062 C 4.4375 17.199219 4.4375 17.484375 4.4375 17.78125 C 4.4375 18.042969 4.4375 18.308594 4.4375 18.582031 C 4.410156 19.203125 4.410156 19.203125 4.800781 19.519531 C 5.382812 19.507812 5.96875 19.496094 6.550781 19.484375 C 9.667969 19.472656 11.214844 20.25 13.410156 22.394531 C 13.570312 22.558594 13.730469 22.71875 13.898438 22.882812 C 14.730469 23.675781 15.652344 24.34375 16.578125 25.019531 C 17.058594 25.375 17.058594 25.375 17.546875 25.734375 C 17.773438 25.902344 18.003906 26.066406 18.238281 26.238281 C 19.164062 19.402344 19.164062 12.597656 18.238281 5.761719 C 17.941406 5.996094 17.644531 6.230469 17.339844 6.472656 C 16.9375 6.789062 16.539062 7.105469 16.140625 7.421875 C 15.945312 7.574219 15.75 7.730469 15.550781 7.886719 C 14.957031 8.355469 14.359375 8.820312 13.761719 9.28125 C 13.457031 9.519531 13.457031 9.519531 13.144531 9.765625 C 12.621094 10.164062 12.074219 10.523438 11.519531 10.878906 C 11.203125 10.773438 10.886719 10.667969 10.558594 10.558594 C 10.660156 9.554688 10.769531 9.074219 11.488281 8.34375 C 11.75 8.152344 12.011719 7.957031 12.28125 7.761719 C 12.566406 7.542969 12.851562 7.328125 13.144531 7.105469 C 13.609375 6.753906 13.609375 6.753906 14.078125 6.398438 C 14.730469 5.875 15.375 5.351562 16.019531 4.820312 C 16.3125 4.578125 16.609375 4.339844 16.910156 4.089844 C 17.257812 3.804688 17.601562 3.515625 17.921875 3.199219 Z M 17.921875 3.199219 "/>
<path style=" stroke:none;fill-rule:nonzero;fill:rgb(0%,0%,0%);fill-opacity:1;" d="M 26.238281 7.679688 C 27.027344 7.796875 27.410156 7.855469 27.902344 8.5 C 28.050781 8.816406 28.050781 8.816406 28.199219 9.140625 C 28.300781 9.34375 28.398438 9.550781 28.503906 9.761719 C 29.265625 11.816406 29.566406 13.722656 29.558594 15.898438 C 29.558594 16.148438 29.558594 16.398438 29.558594 16.65625 C 29.503906 19.296875 29.082031 22.320312 27.199219 24.320312 C 26.882812 24.320312 26.566406 24.320312 26.238281 24.320312 C 25.820312 23.167969 26.023438 22.578125 26.519531 21.480469 C 28.269531 17.332031 27.589844 13.230469 26.160156 9.078125 C 25.921875 8.320312 25.921875 8.320312 26.238281 7.679688 Z M 26.238281 7.679688 "/>
<path style=" stroke:none;fill-rule:nonzero;fill:rgb(0%,0%,0%);fill-opacity:1;" d="M 23.359375 10.238281 C 23.960938 10.441406 23.960938 10.441406 24.640625 10.878906 C 25.816406 13.800781 25.929688 17.164062 24.960938 20.160156 C 24.441406 21.160156 24.441406 21.160156 24 21.761719 C 23.578125 21.546875 23.15625 21.335938 22.71875 21.121094 C 22.824219 20.804688 22.929688 20.488281 23.039062 20.160156 C 23.675781 17.613281 23.714844 14.410156 23 11.878906 C 22.90625 11.550781 22.816406 11.21875 22.71875 10.878906 C 22.929688 10.667969 23.140625 10.457031 23.359375 10.238281 Z M 23.359375 10.238281 "/>
</g>
</svg>
