<?xml version="1.0" encoding="UTF-8"?>
<svg xmlns="http://www.w3.org/2000/svg" xmlns:xlink="http://www.w3.org/1999/xlink" width="32px" height="32px" viewBox="0 0 32 32" version="1.1">
<g id="surface1">
<path style=" stroke:none;fill-rule:nonzero;fill:rgb(0%,0%,0%);fill-opacity:1;" d="M 17.921875 3.199219 C 18.464844 3.296875 18.976562 3.390625 19.519531 3.519531 C 19.679688 4.160156 19.839844 4.769531 19.96875 5.40625 C 20.0625 5.761719 20.128906 6.113281 20.222656 6.464844 C 20.832031 9.601562 20.863281 12.703125 20.832031 15.871094 C 20.832031 16.097656 20.832031 16.320312 20.832031 16.574219 C 20.832031 25.214844 20.832031 25.214844 19.167969 28.800781 C 17.632812 28.671875 16.769531 27.902344 15.648438 26.910156 C 15.265625 26.59375 14.910156 26.273438 14.527344 25.953125 C 13.984375 25.472656 13.441406 24.992188 12.894531 24.480469 C 10.433594 22.207031 8.609375 21.40625 5.246094 21.535156 C 4.160156 21.441406 4.160156 21.441406 3.230469 20.863281 C 2.207031 19.296875 2.335938 17.824219 2.367188 16 C 2.367188 15.648438 2.367188 15.296875 2.335938 14.945312 C 2.335938 13.40625 2.367188 12.449219 3.167969 11.105469 C 4.511719 10.304688 5.566406 10.335938 7.105469 10.433594 C 7.359375 10.433594 7.648438 10.433594 7.902344 10.433594 C 9.855469 10.464844 9.855469 10.464844 10.207031 10.847656 C 10.238281 11.425781 10.238281 12 10.238281 12.542969 C 10.238281 12.894531 10.238281 13.246094 10.238281 13.601562 C 10.238281 13.953125 10.238281 14.335938 10.238281 14.6875 C 10.238281 15.039062 10.238281 15.425781 10.238281 15.808594 C 10.238281 16.703125 10.238281 17.632812 10.238281 18.527344 C 9.632812 18.71875 9.632812 18.71875 8.960938 18.847656 C 8.640625 18.527344 8.640625 18.527344 8.609375 17.921875 C 8.609375 17.664062 8.609375 17.375 8.609375 17.121094 C 8.609375 16.832031 8.609375 16.542969 8.609375 16.257812 C 8.609375 15.96875 8.609375 15.648438 8.609375 15.328125 C 8.609375 15.039062 8.609375 14.71875 8.609375 14.398438 C 8.609375 13.632812 8.609375 12.894531 8.609375 12.128906 C 7.96875 12.160156 7.328125 12.222656 6.71875 12.257812 C 6.367188 12.289062 6.015625 12.320312 5.664062 12.320312 C 4.832031 12.320312 4.832031 12.320312 4.480469 12.734375 C 4.449219 13.214844 4.449219 13.695312 4.449219 14.144531 C 4.449219 14.433594 4.449219 14.71875 4.449219 15.007812 C 4.449219 15.296875 4.449219 15.617188 4.449219 15.9375 C 4.449219 16.222656 4.449219 16.542969 4.449219 16.863281 C 4.449219 17.152344 4.449219 17.441406 4.449219 17.726562 C 4.449219 17.984375 4.449219 18.273438 4.449219 18.527344 C 4.414062 19.199219 4.414062 19.199219 4.800781 19.519531 C 5.375 19.519531 5.953125 19.488281 6.558594 19.488281 C 9.664062 19.488281 11.230469 20.257812 13.40625 22.398438 C 13.566406 22.558594 13.726562 22.71875 13.886719 22.878906 C 14.71875 23.679688 15.648438 24.351562 16.574219 25.023438 C 17.054688 25.375 17.054688 25.375 17.535156 25.726562 C 17.761719 25.886719 17.984375 26.046875 18.238281 26.238281 C 19.167969 19.390625 19.167969 12.609375 18.238281 5.761719 C 17.953125 5.984375 17.632812 6.238281 17.34375 6.464844 C 16.960938 6.785156 16.542969 7.105469 16.160156 7.425781 C 15.96875 7.585938 15.777344 7.742188 15.585938 7.902344 C 14.976562 8.382812 14.398438 8.832031 13.792969 9.28125 C 13.472656 9.503906 13.472656 9.503906 13.183594 9.761719 C 12.671875 10.144531 12.097656 10.527344 11.550781 10.878906 C 11.230469 10.785156 10.910156 10.65625 10.59375 10.558594 C 10.6875 9.566406 10.785156 9.089844 11.519531 8.351562 C 11.777344 8.160156 12.03125 7.96875 12.320312 7.777344 C 12.609375 7.550781 12.894531 7.328125 13.183594 7.105469 C 13.632812 6.753906 13.632812 6.753906 14.113281 6.398438 C 14.753906 5.886719 15.390625 5.34375 16.0625 4.832031 C 16.351562 4.574219 16.640625 4.351562 16.960938 4.097656 C 17.246094 3.808594 17.601562 3.519531 17.921875 3.199219 Z M 17.921875 3.199219 "/>
<path style=" stroke:none;fill-rule:nonzero;fill:rgb(0%,0%,0%);fill-opacity:1;" d="M 31.519531 21.566406 C 31.105469 21.953125 30.433594 21.886719 30.046875 21.472656 L 21.664062 11.871094 C 21.28125 11.457031 21.34375 10.785156 21.761719 10.398438 C 22.175781 10.015625 22.847656 10.078125 23.230469 10.496094 L 31.617188 20.097656 C 32 20.542969 31.96875 21.183594 31.519531 21.566406 Z M 31.519531 21.566406 "/>
<path style=" stroke:none;fill-rule:nonzero;fill:rgb(0%,0%,0%);fill-opacity:1;" d="M 21.761719 21.566406 C 22.175781 21.953125 22.847656 21.886719 23.230469 21.472656 L 31.617188 11.871094 C 32 11.457031 31.9375 10.785156 31.519531 10.398438 C 31.105469 10.015625 30.433594 10.078125 30.046875 10.496094 L 21.664062 20.097656 C 21.28125 20.542969 21.34375 21.183594 21.761719 21.566406 Z M 21.761719 21.566406 "/>
</g>
</svg>
