<?xml version="1.0" encoding="UTF-8"?>
<svg xmlns="http://www.w3.org/2000/svg" xmlns:xlink="http://www.w3.org/1999/xlink" width="32px" height="32px" viewBox="0 0 32 32" version="1.1">
<g id="surface1">
<path style=" stroke:none;fill-rule:nonzero;fill:rgb(0%,0%,0%);fill-opacity:1;" d="M 17.667969 3 C 19.816406 4.304688 20.871094 6.296875 22.019531 8.457031 C 22.394531 9.140625 22.769531 9.824219 23.144531 10.507812 C 23.339844 10.859375 23.53125 11.214844 23.730469 11.578125 C 24.742188 13.402344 25.796875 15.199219 26.855469 17 C 27.410156 17.949219 27.96875 18.902344 28.523438 19.855469 C 28.816406 20.355469 29.117188 20.855469 29.421875 21.347656 C 30.515625 23.136719 30.699219 24.617188 30.332031 26.667969 C 29.777344 27.722656 29.082031 28.457031 28 29 C 27.25 29.039062 26.503906 29.054688 25.753906 29.0625 C 25.40625 29.070312 25.40625 29.070312 25.054688 29.074219 C 24.285156 29.082031 23.519531 29.085938 22.753906 29.089844 C 22.492188 29.09375 22.230469 29.09375 21.960938 29.097656 C 20.578125 29.105469 19.191406 29.113281 17.804688 29.117188 C 16.375 29.121094 14.945312 29.136719 13.515625 29.152344 C 12.417969 29.164062 11.316406 29.167969 10.214844 29.171875 C 9.6875 29.171875 9.164062 29.179688 8.636719 29.1875 C 7.898438 29.195312 7.160156 29.195312 6.417969 29.195312 C 6 29.195312 5.578125 29.199219 5.148438 29.203125 C 3.625 28.933594 3.085938 28.410156 2 27.332031 C 1.316406 25.96875 1.449219 24.476562 1.667969 23 C 2.300781 21.441406 3.160156 20.03125 4.042969 18.605469 C 4.285156 18.199219 4.527344 17.792969 4.765625 17.382812 C 5.261719 16.550781 5.757812 15.722656 6.261719 14.894531 C 7.191406 13.355469 8.09375 11.796875 8.996094 10.238281 C 9.574219 9.242188 10.152344 8.246094 10.734375 7.25 C 10.890625 6.984375 11.046875 6.71875 11.210938 6.441406 C 11.359375 6.1875 11.511719 5.929688 11.667969 5.667969 C 11.835938 5.371094 12.007812 5.078125 12.183594 4.773438 C 13.386719 2.855469 15.558594 2.457031 17.667969 3 Z M 13.667969 7 C 13.273438 7.640625 12.890625 8.289062 12.523438 8.945312 C 12.308594 9.324219 12.09375 9.703125 11.871094 10.09375 C 11.644531 10.5 11.414062 10.90625 11.1875 11.3125 C 10.714844 12.152344 10.238281 12.996094 9.761719 13.835938 C 9.582031 14.152344 9.582031 14.152344 9.402344 14.472656 C 8.628906 15.832031 7.832031 17.175781 7.019531 18.507812 C 6.820312 18.839844 6.617188 19.171875 6.410156 19.511719 C 6.035156 20.128906 5.65625 20.742188 5.269531 21.355469 C 4.03125 23.359375 4.03125 23.359375 4 25.667969 C 4.539062 26.679688 4.539062 26.679688 5.253906 26.894531 C 6.164062 27.023438 7.039062 27.046875 7.960938 27.046875 C 8.355469 27.050781 8.75 27.050781 9.15625 27.054688 C 9.582031 27.054688 10.007812 27.054688 10.445312 27.054688 C 10.882812 27.058594 11.324219 27.058594 11.773438 27.058594 C 12.699219 27.0625 13.628906 27.0625 14.554688 27.0625 C 15.738281 27.0625 16.925781 27.066406 18.109375 27.070312 C 19.242188 27.078125 20.375 27.078125 21.507812 27.078125 C 22.144531 27.082031 22.144531 27.082031 22.796875 27.085938 C 23.191406 27.082031 23.589844 27.082031 23.996094 27.082031 C 24.34375 27.082031 24.691406 27.082031 25.050781 27.082031 C 26.050781 26.996094 26.769531 26.789062 27.667969 26.332031 C 28.132812 25.398438 28.070312 24.703125 28 23.667969 C 27.667969 22.824219 27.667969 22.824219 27.15625 22.027344 C 26.96875 21.714844 26.785156 21.40625 26.59375 21.085938 C 26.390625 20.753906 26.1875 20.425781 25.980469 20.082031 C 25.550781 19.371094 25.125 18.660156 24.699219 17.945312 C 24.476562 17.574219 24.253906 17.203125 24.023438 16.824219 C 23.320312 15.648438 22.636719 14.460938 21.957031 13.273438 C 21.84375 13.074219 21.734375 12.878906 21.617188 12.679688 C 21.074219 11.726562 20.53125 10.773438 19.992188 9.824219 C 19.792969 9.476562 19.597656 9.132812 19.394531 8.777344 C 19.21875 8.472656 19.046875 8.171875 18.871094 7.859375 C 18.300781 6.949219 17.71875 6.128906 17 5.332031 C 15.148438 4.949219 14.703125 5.554688 13.667969 7 Z M 13.667969 7 "/>
<path style=" stroke:none;fill-rule:nonzero;fill:rgb(0%,0%,0%);fill-opacity:1;" d="M 16 9.917969 C 17 10 17 10 17.667969 10.667969 C 18.214844 18.011719 18.214844 18.011719 16.667969 20.332031 C 15.855469 20.207031 15.855469 20.207031 15 20 C 14 18 14.292969 15.171875 14.269531 12.980469 C 14.265625 12.554688 14.261719 12.132812 14.257812 11.695312 C 14.359375 10.300781 14.601562 10.03125 16 9.917969 Z M 16 9.917969 "/>
<path style=" stroke:none;fill-rule:nonzero;fill:rgb(0%,0%,0%);fill-opacity:1;" d="M 17.332031 22 C 17.375 22.957031 17.375 22.957031 17.332031 24 C 17.113281 24.21875 16.894531 24.441406 16.667969 24.667969 C 15.625 24.542969 15.625 24.542969 14.667969 24.332031 C 14.667969 23.5625 14.667969 22.792969 14.667969 22 C 15.621094 21.523438 16.3125 21.800781 17.332031 22 Z M 17.332031 22 "/>
</g>
</svg>
