<svg xmlns="http://www.w3.org/2000/svg" width="32" height="32" viewBox="0 0 32 32"><path d="M5.809 2.414q.966-.025 1.925-.066c.41-.008.82-.012 1.239-.02.562-.012.562-.012 1.132-.027 1.211.285 1.356.472 2.125 1.379.934 1.015 1.524 1.293 2.903 1.39q.978.007 1.957-.015a188 188 0 0 0 4.371-.016c1.105-.004 2.21-.008 3.32-.004q1.027 0 2.059-.015c1.742-.004 3.035.035 4.52 1.058.714 1.074.726 1.438.738 2.692l.015 1.07c.004.383.004.765.004 1.156l.012 1.191c.004.833.008 1.66.008 2.493.004 1.273.02 2.543.035 3.816.004.809.004 1.613.008 2.422q.006.568.02 1.152c-.016 2.637-.016 2.637-.95 3.922-1.309.875-2.254.926-3.79.906-.347 0-.694-.003-1.054-.007-.398-.004-.398-.004-.804-.012l-.32-1.598.804-.047c.523-.039.523-.039 1.055-.074l1.047-.066c.992-.074.992-.074 1.89-.774.149-.73.149-.73.125-1.59.004-.496.004-.496.012-1.003l-.008-1.086c0-.368.004-.735.004-1.114q.001-1.166-.004-2.328c-.008-1.195 0-2.387.004-3.578q.001-1.131-.004-2.262c.004-.359.004-.714.008-1.086l-.012-1.003v-.887l-.125-.703c-1.043-.696-1.324-.72-2.531-.707l-.965.004-1.047.007-2.191-.004q-1.73-.005-3.453.012c-1.114.008-2.223 0-3.336-.008l-1.04.024c-2.382-.031-2.382-.031-3.378-.797a36 36 0 0 1-1.09-1.227c-.492-.593-.492-.593-1.465-.77-.48.013-.48.013-.969.024l-1.062.012c-.36.02-.719.035-1.09.05l-1.11.013c-1.898-.079-1.898-.079-3.43.808-.1.836-.1.836-.089 1.824q-.007.572-.008 1.157v1.257l-.004 1.286q-.006 1.346 0 2.69 0 1.73-.011 3.454-.005 1.33-.004 2.652 0 .95-.012 1.895c.004.383.004.766.008 1.16v1.024l.12.8c1.087.727 1.653.758 2.938.84.348.024.696.047 1.055.074l.805.047-.32 1.598c-4.153.183-4.153.183-5.758-.957-.75-1.125-.723-1.594-.735-2.926-.004-.605-.004-.605-.011-1.226q.001-.662-.004-1.329c0-.453-.004-.906-.004-1.359q-.005-1.43-.004-2.855c0-1.22-.012-2.438-.02-3.653q-.012-1.411-.008-2.816c-.003-.45-.003-.895-.011-1.344q-.006-.943 0-1.887c0-.359 0-.715-.004-1.082C.035 4.262.457 3.73 1.28 2.88c1.34-.668 3.055-.445 4.528-.465m0 0"/><path d="M16.422 13.332c.98.488 1.637 1.047 2.418 1.809.258.242.512.484.777.734.543.766.543.766.465 1.66l-.242.703c-1.348-.191-1.461-.5-2.559-1.597-.105 2.746-.21 5.492-.32 8.32q-.632.314-1.281.64c-.856-.859-.739-1.328-.774-2.523l-.035-1.133c-.012-.39-.02-.78-.031-1.183-.012-.395-.024-.79-.04-1.196l-.081-2.925c-.246.265-.496.53-.754.804-.418.395-.418.395-.844.793-.742-.058-.742-.058-1.281-.316.148-1.48.68-2.11 1.738-3.121q.385-.374.781-.754c1.11-.988 1.11-.988 2.063-.715m0 0"/><path d="M9.281 24c.79.16.79.16 1.598.32.105 1.055.21 2.114.32 3.2h9.602c.105-1.055.21-2.114.32-3.2.527-.105 1.055-.21 1.598-.32q.04 1.09.062 2.18l.032 1.226c-.094 1.074-.094 1.074-.418 1.614-1 .66-2.055.558-3.215.546-.38.004-.38.004-.762.004q-.801.001-1.598-.004c-.816-.007-1.633 0-2.449.004q-.776.001-1.55-.004l-.739.008c-1.676-.023-1.676-.023-2.477-.554-.546-.91-.414-1.801-.386-2.84.011-.407.02-.813.027-1.235zm0 0"/></svg>