<svg xmlns="http://www.w3.org/2000/svg" xml:space="preserve" viewBox="0 0 31 31"><path d="M20.9 5.7c.1 0 .1 0 .1.1.9.5 1.6 1.1 2.4 1.8l.1.1c.9.9 1.6 2 2.1 3.1 0 .1.1.1.1.2 1.2 2.7 1.2 5.8.2 8.6-1 2.5-2.9 4.6-5.3 5.9-.1 0-.1.1-.2.1-2.5 1.3-5.5 1.5-8.2.7-1.8-.6-3.4-1.5-4.7-2.8l-.1-.1c-1.8-1.7-2.8-4.1-3.1-6.5v-.2c-.3-2.3.3-4.6 1.4-6.6 0 0 0-.1.1-.1.5-.9 1.1-1.6 1.8-2.4l.1-.1c.9-.9 2-1.6 3.1-2.1.1 0 .1 0 .2-.1 3.2-1.5 6.9-1.3 9.9.4M8.2 7.9l-.2.2c-2 1.9-3 4.6-3.1 7.3C4.9 18.3 6 21 8 23.1c2 2 4.7 3 7.5 3.1 2.8 0 5.5-1.2 7.5-3.2 1.9-2 3-4.7 3-7.5-.1-2.8-1.3-5.5-3.3-7.5-1.4-1.3-3-2.1-4.7-2.6-.1 0-.1 0-.2-.1-3.5-.9-7 .3-9.6 2.6"/><path d="m18.8 6.4.1.1c0 .1 0 .1-.1.2-.4 0-.7-.1-1.1-.2-2.4-.7-4.9-.2-7.1 1l-1.2.9-.1.1c-.7.6-1.3 1.4-1.8 2.2 0 0 0 .1-.1.1-1.2 2-1.5 4.5-1 6.8.4 1.4 1 2.7 2 3.8l.1.1c.6.7 1.4 1.3 2.2 1.8.1 0 .1 0 .1.1 2 1.2 4.5 1.5 6.8 1 2.4-.6 4.5-2.1 5.7-4.2 1.3-2.1 1.7-4.7 1.1-7.1-.5-1.7-1.3-3.2-2.6-4.4l-.2-.2c0-.2 0-.2.1-.3.5 0 .8.6 1.1.9 1.7 2.1 2.5 4.7 2.2 7.4 0 .3-.1.7-.2 1v.1c-.6 2.5-2.1 4.6-4.3 6s-4.8 1.8-7.3 1.2-4.7-2.2-6.1-4.4c-1.3-2.2-1.8-4.8-1.1-7.3.2-.7.4-1.4.8-2 0-.1.1-.1.1-.2C8 8.7 10.1 7 12.4 6.2c2-.5 4.5-.6 6.4.2"/><path d="M19.6 6.8c.4 0 .6.2.9.4v.3c-.2.1-.3 0-.6-.1-.1 0-.1-.1-.2-.1-.2-.1-.2-.1-.2-.3 0 0 0-.1.1-.2q-.15.15 0 0m1.2.8c.3 0 .4.1.6.3 0 .1 0 .2-.1.2-.1.1-.1.1-.2.1l-.3-.3z"/><g fill="none" stroke="#000" stroke-linecap="round" stroke-linejoin="round" stroke-miterlimit="10" stroke-width=".5"><path d="M18.5 24.3v-3.1c0-.9-.6-1.7-1.3-2.1h.8c2.3 0 4.2-1.8 4.2-4.1 0-1.1-.4-2.1-1.1-2.9.1-.7.1-1.8-.2-2.7-1.5 0-2.7 1.1-2.9 1.3h-4.3c-.2-.2-1.3-1.3-2.8-1.3-.3.8-.4 1.7-.3 2.4-.8.7-1.3 1.8-1.3 3.1 0 2.3 1.9 4.1 4.2 4.1h.8c-.7.3-1.2.9-1.3 1.7-.7 0-1.7-.1-2.1-.7-.8-1.2-1.2-1.2-1.6-1.2s-.4.4 0 .8.4.4.8 1.2c.3.7 1.2 1.2 2.9 1.2v2.2"/><path d="M10.4 13.8c.1-.3.3-.7.7-1m-.9 2.7v-1m2.6 3.6c-1.1-.2-2-1-2.4-2"/></g></svg>