<svg xmlns="http://www.w3.org/2000/svg" width="31" height="31" viewBox="0 0 31 31"><path d="M15.5 4.34c-6.16 0-11.16 5-11.16 11.16s5 11.16 11.16 11.16 11.16-5 11.16-11.16-5-11.16-11.16-11.16m0 .62c5.824 0 10.54 4.716 10.54 10.54S21.323 26.04 15.5 26.04a10.54 10.54 0 0 1-9.969-7.114l3.25 1.21c.32 1.169 1.356 2.071 2.59 2.173a2.95 2.95 0 0 0 3.055-2.028.5.5 0 0 1 .176-.254l3.968-2.922a.5.5 0 0 1 .227-.085 4.336 4.336 0 0 0 3.824-4.575c-.125-2.164-1.902-3.941-4.066-4.066a4.336 4.336 0 0 0-4.575 3.824.5.5 0 0 1-.085.227l-2.922 3.968a.5.5 0 0 1-.254.176 3 3 0 0 0-.617.285l-5.106-2.214C5.434 9.219 9.965 4.96 15.5 4.96m-.129.927c-4.14.054-7.93 2.804-9.117 6.992-.113.402-.2.8-.258 1.203a.15.15 0 0 0 .05.148.16.16 0 0 0 .157.024.16.16 0 0 0 .098-.125q.086-.584.25-1.164a9.302 9.302 0 0 1 14.41-4.996c.07.05.168.035.219-.035a.15.15 0 0 0-.035-.215 9.6 9.6 0 0 0-4.942-1.805 10 10 0 0 0-.832-.027m6.457 2.437a.16.16 0 0 0-.137.106.15.15 0 0 0 .043.168q.26.233.496.484a.16.16 0 0 0 .153.05.17.17 0 0 0 .117-.112.16.16 0 0 0-.043-.153 9 9 0 0 0-.516-.5.17.17 0 0 0-.113-.043m-3.7.36a5 5 0 0 1 .407.004c2.008.117 3.66 1.769 3.778 3.777a4.023 4.023 0 0 1-3.551 4.246.8.8 0 0 0-.375.144l-3.969 2.922a.8.8 0 0 0-.285.407A2.64 2.64 0 0 1 11.398 22c-1.023-.086-1.898-.793-2.246-1.727l1.903.707v.004a1.71 1.71 0 0 0 2.156-.918 1.707 1.707 0 0 0-.883-2.242l-.125-.054-1.746-.754a2.4 2.4 0 0 1 .36-.149c.152-.05.3-.14.406-.285l2.922-3.969a.8.8 0 0 0 .144-.375 4.024 4.024 0 0 1 3.84-3.554m4.7.687a.16.16 0 0 0-.14.09.16.16 0 0 0 .023.164c.078.098.156.2.23.297.055.07.149.086.22.035a.157.157 0 0 0 .03-.219q-.118-.157-.242-.308a.15.15 0 0 0-.12-.059m-4.539.238a3.1 3.1 0 0 0 0 6.2 3.1 3.1 0 0 0 3.102-3.098 3.11 3.11 0 0 0-3.104-3.102m0 .313a2.786 2.786 0 0 1 2.79 2.789 2.786 2.786 0 0 1-2.79 2.789 2.786 2.786 0 0 1-2.789-2.79 2.786 2.786 0 0 1 2.79-2.788m5.223.418a.15.15 0 0 0-.13.086.16.16 0 0 0 .009.152A9.302 9.302 0 0 1 12.965 24.45a9.28 9.28 0 0 1-5.285-3.918.157.157 0 0 0-.274.012.16.16 0 0 0 .012.156 9.57 9.57 0 0 0 5.46 4.047c5.106 1.445 10.423-1.52 11.868-6.625a9.6 9.6 0 0 0-1.09-7.707.16.16 0 0 0-.129-.074zm-5.223.2a2.17 2.17 0 1 0 2.172 2.172c0-1.2-.973-2.173-2.172-2.173m0 .312c1.031 0 1.86.828 1.86 1.859a1.859 1.859 0 1 1-1.86-1.86M4.974 14.97l5.039 2.188a.2.2 0 0 0 .066.027l2 .868.125.054a1.392 1.392 0 0 1-1.04 2.582l-5.753-2.144a10.5 10.5 0 0 1-.437-3.574m0 0"/></svg>