<svg xmlns="http://www.w3.org/2000/svg" width="32" height="32" viewBox="0 0 32 32"><path d="M16.902 3.457c.254.07.504.137.766.211.89 3.828 1.156 7.496 1.129 11.422q-.005 1.363.008 2.726c.004 3.614-.317 6.993-1.137 10.516-1.574.39-1.574.39-2.43-.11a94 94 0 0 0-1.652-1.422c-.3-.265-.606-.527-.918-.8a345 345 0 0 0-1.938-1.582c-.293-.238-.582-.48-.882-.727-.282-.226-.559-.457-.848-.691l-.773-.746c-1.176-.774-2.22-.762-3.582-.754-2.41.012-2.41.012-3.38-.727-.73-.945-.769-1.425-.777-2.605 0-.352-.004-.703-.004-1.063.004-.367.012-.73.016-1.105-.004-.363-.012-.73-.016-1.105.004-.524.004-.524.004-1.063.004-.32.004-.637.008-.969.223-1.12.598-1.515 1.504-2.195.703-.152.703-.152 1.441-.133l.73.012.911.035L8 10.668v8H6.668V12l-1.606.105-.902.06c-.816.12-.816.12-1.426.515-.64 1.043-.546 2.136-.527 3.32-.004.363-.004.363-.012.73.008.965.035 1.747.5 2.598.985.524 1.887.414 2.993.402 2.742.079 4.054 1.079 5.98 2.938q.979.819 1.977 1.625l.906.746c.8.66.8.66 1.781 1.293.398-3.14.387-6.277.379-9.437-.004-.895 0-1.786 0-2.68.004-2.863-.02-5.7-.379-8.547q-1.113.872-2.227 1.75l-.632.496c-.207.16-.41.32-.621.488l-.614.477c-.504.398-.992.82-1.472 1.242-.766.547-.766.547-2.098.547.035-.883.168-1.484.758-2.152A44 44 0 0 1 11.207 7l.613-.512c.606-.508 1.227-1 1.848-1.488l.613-.508c1.512-1.187 1.512-1.187 2.621-1.035m4.43 7.211c1.637.086 2.344.867 3.438 2.02.296.304.59.613.894.93l.668.714c1.555-.64 2.477-1.82 3.594-3.031.742-.633.742-.633 2.074-.633-.14 1.64-.852 2.324-2.02 3.437-.308.293-.613.586-.93.891l-.718.672c.645 1.55 1.82 2.473 3.035 3.594C32 20 32 20 32 21.332c-1.645-.137-2.324-.848-3.437-2.02q-.44-.455-.891-.93-.333-.351-.672-.714c-1.55.64-2.477 1.82-3.594 3.031-.738.633-.738.633-2.074.633.14-1.64.852-2.324 2.023-3.437.305-.293.614-.586.926-.891l.719-.672c-.508-1.215-1.238-1.953-2.187-2.852C21.37 12.11 21.37 12.11 21 11zm0 0"/></svg>