<?xml version="1.0" encoding="UTF-8"?>
<svg id="_Слой_1" data-name="Слой_1" xmlns="http://www.w3.org/2000/svg" version="1.1" viewBox="0 0 75 75">
  <!-- Generator: Adobe Illustrator 30.0.0, SVG Export Plug-In . SVG Version: 2.1.1 Build 123)  -->
  <path d="M29.07,6.63c-12.89,5.95-16.35,22.31-6.94,32.61l3.27,3.57-4.36,2.78c-5.36,3.37-9.91,9.52-11.8,15.96-2.18,7.43-1.98,8.62,1.49,8.62,2.08,0,2.97-.5,2.97-1.59,0-4.06,2.68-9.91,6.54-14.17l4.16-4.56,2.18,2.77c5.95,7.43,15.86,7.43,21.81,0l2.18-2.77,4.16,4.56c3.86,4.26,6.54,10.11,6.54,14.17,0,1.09.89,1.59,2.98,1.59,3.47,0,3.67-1.19,1.48-8.63-1.88-6.44-6.44-12.59-11.79-15.96l-4.36-2.78,3.27-3.57c7.04-7.63,7.14-19.33.2-27.26-6.05-6.84-15.96-9.12-23.99-5.35M44.44,12.68c4.46,2.28,7.93,7.93,7.93,12.89,0,7.53-7.34,14.87-14.97,14.87-7.23,0-14.77-7.53-14.77-14.87,0-4.76,3.47-10.61,7.74-12.79,4.76-2.57,9.22-2.57,14.08-.1M43.25,47.27c1.98,1.19-2.38,5.06-5.75,5.06-1.39,0-3.67-.99-4.86-2.08-2.87-2.68-1.48-3.86,4.86-3.86,2.48,0,5.06.4,5.75.89"/>
</svg>