<svg xmlns="http://www.w3.org/2000/svg" width="32" height="3" viewBox="0 0 3 3"><path d="m2.5.414.063.024c.03.093.03.093-.004.167a2 2 0 0 1-.239.27c-.027.023-.027.023-.05.05q-.082.084-.168.16c-.036.04-.075.075-.11.114l-.273.27c.05.129.14.21.238.304.035.036.07.067.105.102l.168.164c.055.05.106.106.16.156.016.016.036.032.051.051.149.145.149.145.153.254-.047.055-.047.055-.094.094-.152-.047-.242-.137-.348-.246-.02-.02-.039-.035-.054-.055a7 7 0 0 1-.168-.172l-.117-.117-.282-.285c-.129.05-.21.14-.304.238-.036.035-.067.07-.102.105l-.164.168c-.05.055-.106.106-.156.16-.016.016-.032.036-.051.051-.145.149-.145.149-.254.153C.445 2.547.445 2.547.406 2.5c.047-.152.137-.242.246-.348.02-.02.035-.039.055-.054a7 7 0 0 1 .172-.168l.117-.117c.094-.094.192-.188.285-.282-.05-.129-.14-.21-.238-.304-.035-.036-.07-.067-.105-.102L.77.961C.715.91.664.855.61.805.593.789.573.773.558.754.414.609.414.609.406.5L.437.438c.09-.012.16-.02.239.03Q.75.546.828.622L.883.68l.176.18c.039.038.078.081.12.12l.29.301c.129-.05.21-.14.304-.238l.055-.05c.05-.055.106-.11.16-.165L2.152.66l.102-.1c.152-.157.152-.157.246-.145m0 0"/></svg>