<svg xmlns="http://www.w3.org/2000/svg" width="96" height="96"><path d="M55 8c1.29 4.388.455 6.751-1 11-1.061 11.798-.023 21.368 7.625 30.813C68.32 56.843 76.803 59.593 86 62c.573 3.193.386 5.33-1.242 8.156C78.182 79.004 69.988 85.792 59 88c-12.417 1.338-23.389.275-33.75-7.187C17.165 74 10.937 65.695 9.777 54.929c-.896-12.911.67-23.68 9.25-33.863C29.503 10.093 40.05 7.214 55 8M25 25c-7.78 9.63-8.957 19-8 31 .847 3.402 2.11 6.061 4 9l1.285 2.105C27.083 74.23 33.73 78.755 42 81c10.687 1.185 18.99.303 28-6 2.55-2.176 4.845-4.435 7-7-2.089-2.089-3.423-2.677-6.125-3.75-10.411-4.529-17.717-11.694-22.113-22.137-1.367-3.791-1.884-7.058-1.86-11.097l.01-2.832.026-2.934.013-2.98Q46.97 18.634 47 15c-8.278 0-16.123 4.287-22 10"/></svg>