<svg xmlns="http://www.w3.org/2000/svg" width="96" height="96"><path d="M57.23 26.613C62.692 29.45 68.053 35.158 70 41c1.126 14.691 1.126 14.691-4 21-5.549 5.523-9.744 8.289-17.75 8.438-7.457-.117-11.574-1.743-16.77-6.965-5.435-6.156-5.989-10.915-5.855-18.989.805-7.478 5.14-11.716 10.727-16.355 5.452-3.734 14.739-3.204 20.878-1.516M34.625 39.625C32.421 44.203 32.203 48.005 33 53c2.33 4.839 5.161 7.67 10 10 4.994.797 8.797.58 13.375-1.625 3.584-3.243 6.22-5.84 7.008-10.773C63.639 44.918 62.936 41.35 59 37c-4.35-3.936-7.918-4.639-13.602-4.383-4.933.788-7.53 3.424-10.773 7.008M75.313 18.25C77 19 77 19 77.813 20.625 78 23 78 23 75.813 26.188 73 29 73 29 70.875 30.063 69 30 69 30 67.25 28.563L66 27c1.387-4.54 3.942-9.33 9.313-8.75M20 18c2.742 0 4.381.467 6.473 2.27C27.875 21.813 27.875 21.813 30 25c-.187 2.375-.187 2.375-1 4-1.625.813-1.625.813-4 1-3.54-2.36-5.516-3.7-7-7.687C18 20 18 20 20 18m49 48c4.382 1.34 6.58 3.09 9 7-.25 2.313-.25 2.313-1 4-1.625.813-1.625.813-4 1-3.041-2.087-5.392-3.785-7.062-7.125C66 69 66 69 67.438 67.25zm-41.687.25C29 67 29 67 29.813 68.625 30 71 30 71 27.813 74.188 25 77 25 77 22.875 78.062 21 78 21 78 19.25 76.563L18 75c1.387-4.54 3.942-9.33 9.313-8.75M76 45h12c1 4 1 4 0 6H76c-1-4-1-4 0-6M8 45h12c1 4 1 4 0 6H8c-1-4-1-4 0-6m43 31v12c-4 1-4 1-6 0V76c2-1 2-1 6 0m0-68v12c-4 1-4 1-6 0V8c2-1 2-1 6 0"/></svg>