<?xml version="1.0" encoding="UTF-8"?>
<svg version="1.1" xmlns="http://www.w3.org/2000/svg" width="96" height="96">
<path d="M0 0 C0 2.64 0 5.28 0 8 C2.64 8 5.28 8 8 8 C8 5.36 8 2.72 8 0 C11.75 -1.125 11.75 -1.125 14 0 C14 2.64 14 5.28 14 8 C16.64 8 19.28 8 22 8 C22 5.36 22 2.72 22 0 C25.75 -1.125 25.75 -1.125 28 0 C28 2.64 28 5.28 28 8 C30.64 8 33.28 8 36 8 C36 5.36 36 2.72 36 0 C39.75 -1.125 39.75 -1.125 42 0 C42 2.64 42 5.28 42 8 C44.64 8 47.28 8 50 8 C50 5.36 50 2.72 50 0 C53.75 -1.125 53.75 -1.125 56 0 C56.16078289 1.92939463 56.31526345 3.86138822 56.36328125 5.796875 C56.8535426 8.27480284 56.8535426 8.27480284 59.49829102 10.04394531 C62.9822062 14.16058872 62.72445893 17.26540257 62.6640625 22.5 C62.66884613 23.41330078 62.67362976 24.32660156 62.67855835 25.26757812 C62.68195317 27.19402799 62.67277994 29.12053579 62.65185547 31.046875 C62.62508281 33.99089348 62.65161622 36.9310997 62.68359375 39.875 C62.68028958 41.75000839 62.67388318 43.62501442 62.6640625 45.5 C62.67924423 46.81581055 62.67924423 46.81581055 62.69473267 48.15820312 C62.60875959 52.65495226 62.50420189 54.40362317 59.50268555 57.95385742 C58.67679932 58.62908447 57.85091309 59.30431152 57 60 C56.20857131 62.17764378 56.20857131 62.17764378 56.1875 64.3125 C56.0946875 66.1378125 56.0946875 66.1378125 56 68 C52.25 69.125 52.25 69.125 50 68 C50 65.36 50 62.72 50 60 C47.36 60 44.72 60 42 60 C42 62.64 42 65.28 42 68 C38.25 69.125 38.25 69.125 36 68 C36 65.36 36 62.72 36 60 C33.36 60 30.72 60 28 60 C28 62.64 28 65.28 28 68 C24.25 69.125 24.25 69.125 22 68 C22 65.36 22 62.72 22 60 C19.36 60 16.72 60 14 60 C14 62.64 14 65.28 14 68 C10.25 69.125 10.25 69.125 8 68 C8 65.36 8 62.72 8 60 C5.36 60 2.72 60 0 60 C0 62.64 0 65.28 0 68 C-3.75 69.125 -3.75 69.125 -6 68 C-6 65.36 -6 62.72 -6 60 C-6.763125 59.9175 -7.52625 59.835 -8.3125 59.75 C-11 59 -11 59 -12.63867188 57.54077148 C-14.71880526 53.65842783 -14.46775902 49.93894762 -14.46875 45.59765625 C-14.47636353 44.68294052 -14.48397705 43.76822479 -14.49182129 42.82579041 C-14.50261493 40.89340949 -14.50547838 38.96097027 -14.50097656 37.02856445 C-14.50000444 34.0759936 -14.54162872 31.12602368 -14.5859375 28.17382812 C-14.59114487 26.29427624 -14.59383269 24.41471534 -14.59375 22.53515625 C-14.61014526 21.65481216 -14.62654053 20.77446808 -14.64343262 19.8674469 C-14.59338783 15.41668333 -14.42208463 13.55615703 -11.65039062 9.90405273 C-9 8 -9 8 -6 8 C-6 5.36 -6 2.72 -6 0 C-3.50907189 -1.24546405 -2.58919267 -0.7767578 0 0 Z M-6.82681274 15.31088257 C-8.78685181 18.13288403 -8.42643597 21.31087222 -8.3984375 24.625 C-8.40130768 25.36830566 -8.40417786 26.11161133 -8.40713501 26.87744141 C-8.40917476 28.4475989 -8.403651 30.01778186 -8.39111328 31.58789062 C-8.37505703 33.99146332 -8.39096352 36.39335461 -8.41015625 38.796875 C-8.4081738 40.32292038 -8.40433009 41.84896471 -8.3984375 43.375 C-8.40451019 44.09381348 -8.41058289 44.81262695 -8.4168396 45.55322266 C-8.39829683 49.34120276 -8.39829683 49.34120276 -6.82681274 52.68911743 C-4.28378472 54.51394109 -2.49807827 54.38085552 0.6171875 54.38818359 C2.34412842 54.40236832 2.34412842 54.40236832 4.10595703 54.4168396 C5.9716333 54.40773056 5.9716333 54.40773056 7.875 54.3984375 C9.15101074 54.40130768 10.42702148 54.40417786 11.74169922 54.40713501 C14.44204116 54.40917835 17.14157081 54.40513392 19.84179688 54.39111328 C23.3021923 54.37402089 26.76188971 54.38386307 30.22225952 54.40183067 C33.52319806 54.41528016 36.82405236 54.40586244 40.125 54.3984375 C41.36878418 54.40451019 42.61256836 54.41058289 43.89404297 54.4168396 C45.04533691 54.40738312 46.19663086 54.39792664 47.3828125 54.38818359 C48.39746582 54.38579681 49.41211914 54.38341003 50.45751953 54.38095093 C53.02248647 54.19427572 53.02248647 54.19427572 54.82681274 52.68911743 C56.78685181 49.86711597 56.42643597 46.68912778 56.3984375 43.375 C56.40130768 42.63169434 56.40417786 41.88838867 56.40713501 41.12255859 C56.40917476 39.5524011 56.403651 37.98221814 56.39111328 36.41210938 C56.37505703 34.00853668 56.39096352 31.60664539 56.41015625 29.203125 C56.4081738 27.67707962 56.40433009 26.15103529 56.3984375 24.625 C56.40451019 23.90618652 56.41058289 23.18737305 56.4168396 22.44677734 C56.39829683 18.65879724 56.39829683 18.65879724 54.82681274 15.31088257 C52.28378472 13.48605891 50.49807827 13.61914448 47.3828125 13.61181641 C45.65587158 13.59763168 45.65587158 13.59763168 43.89404297 13.5831604 C42.65025879 13.58923309 41.40647461 13.59530579 40.125 13.6015625 C38.84898926 13.59869232 37.57297852 13.59582214 36.25830078 13.59286499 C33.55795884 13.59082165 30.85842919 13.59486608 28.15820312 13.60888672 C24.6978077 13.62597911 21.23811029 13.61613693 17.77774048 13.59816933 C14.47680194 13.58471984 11.17594764 13.59413756 7.875 13.6015625 C6.00932373 13.59245346 6.00932373 13.59245346 4.10595703 13.5831604 C2.95466309 13.59261688 1.80336914 13.60207336 0.6171875 13.61181641 C-0.39746582 13.61420319 -1.41211914 13.61658997 -2.45751953 13.61904907 C-5.02248647 13.80572428 -5.02248647 13.80572428 -6.82681274 15.31088257 Z " fill="#000000" transform="translate(24,14)"/>
<path d="M0 0 C1.98 0 3.96 0 6 0 C6 1.98 6 3.96 6 6 C4.02 6 2.04 6 0 6 C0 4.02 0 2.04 0 0 Z " fill="#000000" transform="translate(22,34)"/>
</svg>
