<?xml version="1.0" encoding="UTF-8"?>
<svg version="1.1" xmlns="http://www.w3.org/2000/svg" width="96" height="96">
<path d="M0 0 C9.30031457 6.05413147 16.28671003 13.66015818 19.23828125 24.45703125 C20.7926159 37.36247716 18.92804218 48.29767246 11.17578125 58.95703125 C-6.26117637 79.85853722 -6.26117637 79.85853722 -16.57421875 82.39453125 C-22.87642815 81.84170586 -27.3851241 76.58451649 -31.76171875 72.45703125 C-32.27879395 71.98088379 -32.79586914 71.50473633 -33.32861328 71.01416016 C-42.84870126 62.20012835 -52.38278622 51.71970731 -53.1953125 38.08984375 C-53.21917865 36.58742857 -53.21997898 35.08449256 -53.19921875 33.58203125 C-53.18947021 32.79119141 -53.17972168 32.00035156 -53.16967773 31.18554688 C-52.85138264 20.68072977 -49.39002279 14.24712513 -42.1328125 6.65625 C-31.30988012 -3.38215351 -13.59314718 -6.64397349 0 0 Z M-40.76171875 15.45703125 C-46.38367778 23.22378389 -46.45930634 31.13564344 -45.76171875 40.45703125 C-43.32871962 51.5217534 -34.78234593 59.94426037 -26.76171875 67.45703125 C-25.75238281 68.45669922 -25.75238281 68.45669922 -24.72265625 69.4765625 C-24.03429687 70.13011719 -23.3459375 70.78367187 -22.63671875 71.45703125 C-22.01539062 72.05515625 -21.3940625 72.65328125 -20.75390625 73.26953125 C-18.80472717 74.69722137 -18.80472717 74.69722137 -16.38476562 74.23193359 C-13.43764006 73.3612917 -12.04137288 72.32459285 -9.80078125 70.24609375 C-9.0847876 69.58335449 -8.36879395 68.92061523 -7.63110352 68.23779297 C-6.52013306 67.17069092 -6.52013306 67.17069092 -5.38671875 66.08203125 C-4.62738037 65.35902832 -3.86804199 64.63602539 -3.08569336 63.89111328 C4.62805534 56.37506745 11.5415908 48.2563451 12.5390625 37.08984375 C12.57664993 25.83867199 11.18054025 19.7314966 3.43359375 11.44140625 C-3.49757043 5.17622581 -11.15062805 4.090662 -20.18359375 4.18359375 C-28.7225391 4.83613324 -35.03807624 9.26720971 -40.76171875 15.45703125 Z " fill="#000000" transform="translate(64.76171875,10.54296875)"/>
<path d="M0 0 C2.371875 -0.103125 4.74375 -0.20625 7.1875 -0.3125 C7.92508545 -0.35802002 8.6626709 -0.40354004 9.42260742 -0.45043945 C13.22662448 -0.53006439 14.8862837 -0.08509895 17.94921875 2.20703125 C20.69247419 5.94308389 20.73426993 8.1227986 20.47265625 12.6171875 C20 15 20 15 18.0625 18.125 C13.94613247 20.64522502 10.70278047 20.46105691 6 20 C6 22.64 6 25.28 6 28 C4.02 28 2.04 28 0 28 C0 18.76 0 9.52 0 0 Z M6 6 C6 8.64 6 11.28 6 14 C7.98 13.67 9.96 13.34 12 13 C12.33 11.35 12.66 9.7 13 8 C10.04622502 5.63019987 10.04622502 5.63019987 6 6 Z " fill="#000000" transform="translate(46,32)"/>
<path d="M0 0 C1.98 0 3.96 0 6 0 C6 9.24 6 18.48 6 28 C4.02 28 2.04 28 0 28 C0 18.76 0 9.52 0 0 Z " fill="#000000" transform="translate(34,32)"/>
</svg>
