<svg xmlns="http://www.w3.org/2000/svg" width="96" height="96"><path d="m18.281 17.353 2.165-.027a437 437 0 0 1 7.054.01q2.46-.005 4.92-.015 5.15-.009 10.299.027c4.395.029 8.789.012 13.184-.018 3.386-.018 6.77-.012 10.156 0q2.43.006 4.86-.011a376 376 0 0 1 6.8.034l3.904.012C85.92 18.173 87.397 19.534 90 23c.635 2.466.635 2.466.647 5.078l.048 2.984-.03 3.188.014 3.306q.004 3.454-.027 6.909a634 634 0 0 0 .032 10.566q-.006 3.36-.02 6.719l.03 3.188c-.073 4.636-.19 7.292-2.767 11.235-3.729 2.328-6.035 2.403-10.415 2.315l-2.131-.021a416 416 0 0 1-6.693-.154q-2.28-.038-4.557-.069A843 843 0 0 1 53 78l-2-6h-6l-2 6q-6.698.186-13.397.275-2.277.037-4.554.102c-2.187.061-4.373.09-6.56.111l-3.984.08C11 78 11 78 8.073 76.173c-3.078-4.711-2.79-8.905-2.737-14.423l-.015-3.306q-.005-3.454.027-6.909a634 634 0 0 0-.032-10.566q.005-3.36.02-6.719l-.03-3.188c.015-.985.03-1.97.047-2.984l.012-2.612c1.752-6.803 6.545-8.093 12.916-8.113M12 27v27h72V27c-3.61-3.61-4.427-3.378-9.352-3.388l-3.974-.029-4.299.019-4.405-.01q-4.615-.005-9.23.017c-3.944.017-7.888.007-11.833-.01-3.032-.012-6.063-.008-9.095 0q-2.183.003-4.364-.008c-2.032-.008-4.064.006-6.096.02l-3.506.008c-3.208.136-3.208.136-5.846 3.381m0 33v9l3 3h1v-6h6v6h4v-6h6v6c2.33.502 2.33.502 5 0 2.23-2.888 2.23-2.888 4-6 3.691-1.846 7.97-1.482 12-1 2.871 2.082 4.028 4.042 6 7 2.584.25 2.584.25 5 0v-6h6v6h4v-6h6v6l3-1c1.67-2.969 1.67-2.969 1-11z"/><path d="M70 28h10v22H70zm-18 0h10v22H52zm-18 0h10v22H34zm-18 0h10v22H16z"/></svg>