<?xml version="1.0" encoding="UTF-8"?>
<svg version="1.1" xmlns="http://www.w3.org/2000/svg" width="96" height="96">
<path d="M0 0 C0.71446289 -0.0087616 1.42892578 -0.01752319 2.16503906 -0.02655029 C4.51690151 -0.04848224 6.86686987 -0.03401601 9.21875 -0.01708984 C10.85872761 -0.02045982 12.49870279 -0.02531396 14.13867188 -0.03158569 C17.57185703 -0.03894853 21.00439072 -0.02827126 24.4375 -0.00488281 C28.83284357 0.02360553 33.22666065 0.00719826 37.62194824 -0.02274513 C41.00727794 -0.04083458 44.39224719 -0.03505273 47.77758789 -0.02210617 C49.39786969 -0.01877666 51.01818448 -0.02284327 52.63842773 -0.03450394 C54.90566356 -0.04724101 57.17044642 -0.02780132 59.4375 0 C60.72591797 0.00397797 62.01433594 0.00795593 63.34179688 0.01205444 C67.63859605 0.81991761 69.11597995 2.18101828 71.71875 5.64697266 C72.35366821 8.11279297 72.35366821 8.11279297 72.36572266 10.72509766 C72.38148346 11.70961914 72.39724426 12.69414062 72.41348267 13.70849609 C72.40336151 14.76069336 72.39324036 15.81289063 72.3828125 16.89697266 C72.38759613 17.9878418 72.39237976 19.07871094 72.39730835 20.20263672 C72.40070613 22.50571131 72.39151243 24.80883421 72.37060547 27.11181641 C72.3438406 30.63504683 72.37036001 34.15509121 72.40234375 37.67822266 C72.39903963 39.91781302 72.39263337 42.15740139 72.3828125 44.39697266 C72.39799423 45.97526855 72.39799423 45.97526855 72.41348267 47.58544922 C72.33928126 52.22054801 72.22200207 54.87695491 69.64526367 58.81958008 C65.91690626 61.14766511 63.61061372 61.22250779 59.23046875 61.13525391 C58.52727005 61.12817917 57.82407135 61.12110443 57.0995636 61.11381531 C54.86734773 61.08596478 52.63769923 61.02325586 50.40625 60.95947266 C48.88740619 60.93437717 47.3685228 60.91156617 45.84960938 60.89111328 C42.13849752 60.83617272 38.42887459 60.74997005 34.71875 60.64697266 C34.05875 58.66697266 33.39875 56.68697266 32.71875 54.64697266 C30.73875 54.64697266 28.75875 54.64697266 26.71875 54.64697266 C26.05875 56.62697266 25.39875 58.60697266 24.71875 60.64697266 C20.25310699 60.77094412 15.78838561 60.86148257 11.3215332 60.92163086 C9.80345199 60.94671375 8.28549082 60.98078925 6.76782227 61.02416992 C4.58059035 61.08510559 2.39495961 61.11324161 0.20703125 61.13525391 C-1.10740967 61.16143799 -2.42185059 61.18762207 -3.77612305 61.21459961 C-7.28125 60.64697266 -7.28125 60.64697266 -10.20776367 58.81958008 C-13.28650509 54.10884833 -12.99838799 49.9147107 -12.9453125 44.39697266 C-12.95009613 43.30610352 -12.95487976 42.21523438 -12.95980835 41.09130859 C-12.96320613 38.788234 -12.95401243 36.48511111 -12.93310547 34.18212891 C-12.9063406 30.65889848 -12.93286001 27.1388541 -12.96484375 23.61572266 C-12.96153963 21.3761323 -12.95513337 19.13654392 -12.9453125 16.89697266 C-12.95543365 15.84477539 -12.96555481 14.79257812 -12.97598267 13.70849609 C-12.96022186 12.72397461 -12.94446106 11.73945313 -12.92822266 10.72509766 C-12.92424469 9.86303711 -12.92026672 9.00097656 -12.91616821 8.11279297 C-11.16441604 1.30954492 -6.37109784 0.01967065 0 0 Z M-6.28125 9.64697266 C-6.28125 18.55697266 -6.28125 27.46697266 -6.28125 36.64697266 C17.47875 36.64697266 41.23875 36.64697266 65.71875 36.64697266 C65.71875 27.73697266 65.71875 18.82697266 65.71875 9.64697266 C62.1093567 6.03757935 61.29214234 6.26895077 56.3671875 6.25878906 C55.05572754 6.24933258 53.74426758 6.2398761 52.39306641 6.23013306 C50.95995787 6.23550273 49.52685208 6.24165568 48.09375 6.24853516 C46.62548681 6.24651434 45.1572246 6.24360284 43.68896484 6.23983765 C40.61220745 6.2354146 37.53571139 6.24184446 34.45898438 6.25585938 C30.51434529 6.27295159 26.57031852 6.26311026 22.6257019 6.24514198 C19.59394717 6.23430343 16.56233771 6.23775074 13.53057861 6.24552536 C12.0761101 6.24752719 10.62162842 6.24506868 9.16717529 6.2380867 C7.13489024 6.23047199 5.10255898 6.24413524 3.0703125 6.25878906 C1.33515381 6.26236923 1.33515381 6.26236923 -0.43505859 6.26602173 C-3.64368875 6.40236136 -3.64368875 6.40236136 -6.28125 9.64697266 Z M-6.28125 42.64697266 C-6.28125 45.61697266 -6.28125 48.58697266 -6.28125 51.64697266 C-5.29125 52.63697266 -4.30125 53.62697266 -3.28125 54.64697266 C-2.95125 54.64697266 -2.62125 54.64697266 -2.28125 54.64697266 C-2.28125 52.66697266 -2.28125 50.68697266 -2.28125 48.64697266 C-0.30125 48.64697266 1.67875 48.64697266 3.71875 48.64697266 C3.71875 50.62697266 3.71875 52.60697266 3.71875 54.64697266 C5.03875 54.64697266 6.35875 54.64697266 7.71875 54.64697266 C7.71875 52.66697266 7.71875 50.68697266 7.71875 48.64697266 C9.69875 48.64697266 11.67875 48.64697266 13.71875 48.64697266 C13.71875 50.62697266 13.71875 52.60697266 13.71875 54.64697266 C16.0483447 55.14938588 16.0483447 55.14938588 18.71875 54.64697266 C20.94959477 51.75908625 20.94959477 51.75908625 22.71875 48.64697266 C26.40990905 46.80139313 30.68933437 47.16448599 34.71875 47.64697266 C37.59024318 49.72880521 38.74659647 51.68874236 40.71875 54.64697266 C43.30255177 54.89728243 43.30255177 54.89728243 45.71875 54.64697266 C45.71875 52.66697266 45.71875 50.68697266 45.71875 48.64697266 C47.69875 48.64697266 49.67875 48.64697266 51.71875 48.64697266 C51.71875 50.62697266 51.71875 52.60697266 51.71875 54.64697266 C53.03875 54.64697266 54.35875 54.64697266 55.71875 54.64697266 C55.71875 52.66697266 55.71875 50.68697266 55.71875 48.64697266 C57.69875 48.64697266 59.67875 48.64697266 61.71875 48.64697266 C61.71875 50.62697266 61.71875 52.60697266 61.71875 54.64697266 C62.70875 54.31697266 63.69875 53.98697266 64.71875 53.64697266 C66.38957039 50.67800987 66.38957039 50.67800987 65.71875 42.64697266 C41.95875 42.64697266 18.19875 42.64697266 -6.28125 42.64697266 Z " fill="#000000" transform="translate(18.28125,17.35302734375)"/>
<path d="M0 0 C3.3 0 6.6 0 10 0 C10 7.26 10 14.52 10 22 C6.7 22 3.4 22 0 22 C0 14.74 0 7.48 0 0 Z " fill="#000000" transform="translate(70,28)"/>
<path d="M0 0 C3.3 0 6.6 0 10 0 C10 7.26 10 14.52 10 22 C6.7 22 3.4 22 0 22 C0 14.74 0 7.48 0 0 Z " fill="#000000" transform="translate(52,28)"/>
<path d="M0 0 C3.3 0 6.6 0 10 0 C10 7.26 10 14.52 10 22 C6.7 22 3.4 22 0 22 C0 14.74 0 7.48 0 0 Z " fill="#000000" transform="translate(34,28)"/>
<path d="M0 0 C3.3 0 6.6 0 10 0 C10 7.26 10 14.52 10 22 C6.7 22 3.4 22 0 22 C0 14.74 0 7.48 0 0 Z " fill="#000000" transform="translate(16,28)"/>
</svg>
