<?xml version="1.0" encoding="UTF-8"?>
<svg version="1.1" xmlns="http://www.w3.org/2000/svg" width="96" height="96">
<path d="M0 0 C0 1.98 0 3.96 0 6 C1.32 6 2.64 6 4 6 C4 4.02 4 2.04 4 0 C11.26 0 18.52 0 26 0 C26 1.98 26 3.96 26 6 C26.92232422 5.94779297 26.92232422 5.94779297 27.86328125 5.89453125 C28.67152344 5.86746094 29.47976562 5.84039063 30.3125 5.8125 C31.51326172 5.76029297 31.51326172 5.76029297 32.73828125 5.70703125 C35 6 35 6 36.61709595 7.1328125 C38.60934363 9.82273156 38.38110445 11.84238233 38.38818359 15.16796875 C38.39764008 16.43938721 38.40709656 17.71080566 38.4168396 19.02075195 C38.41146991 20.40967113 38.40531696 21.79858748 38.3984375 23.1875 C38.40045839 24.61092274 38.40336995 26.03434447 38.40713501 27.45776367 C38.41155771 30.44036724 38.40512935 33.42270121 38.39111328 36.40527344 C38.37402103 40.22885091 38.38386255 44.05179666 38.40183067 47.87535095 C38.41267019 50.81446087 38.40922149 53.75342097 38.4014473 56.6925354 C38.39944573 58.10234654 38.40190306 59.51217128 38.40888596 60.92196655 C38.41650223 62.89198548 38.40283579 64.86205209 38.38818359 66.83203125 C38.38579681 67.95327393 38.38341003 69.0745166 38.38095093 70.22973633 C38 73 38 73 36.87271118 74.86123657 C34.10746945 76.54273246 31.8705082 76.38153546 28.6484375 76.38818359 C26.68124756 76.40236832 26.68124756 76.40236832 24.67431641 76.4168396 C23.24120787 76.41146992 21.80810208 76.40531698 20.375 76.3984375 C18.90673681 76.40045831 17.4384746 76.40336981 15.97021484 76.40713501 C12.89345745 76.41155806 9.81696139 76.4051282 6.74023438 76.39111328 C2.79559529 76.37402107 -1.14843148 76.3838624 -5.0930481 76.40183067 C-8.12480283 76.41266922 -11.15641229 76.40922192 -14.18817139 76.4014473 C-15.6426399 76.39944547 -17.09712158 76.40190398 -18.55157471 76.40888596 C-20.58385976 76.41650067 -22.61619102 76.40283742 -24.6484375 76.38818359 C-25.80520996 76.38579681 -26.96198242 76.38341003 -28.15380859 76.38095093 C-31 76 -31 76 -32.87271118 74.86123657 C-34.51653635 72.14716058 -34.38145444 69.99320023 -34.38818359 66.83203125 C-34.39764008 65.56061279 -34.40709656 64.28919434 -34.4168396 62.97924805 C-34.41146991 61.59032887 -34.40531696 60.20141252 -34.3984375 58.8125 C-34.40045839 57.38907726 -34.40336995 55.96565553 -34.40713501 54.54223633 C-34.41155771 51.55963276 -34.40512935 48.57729879 -34.39111328 45.59472656 C-34.37402103 41.77114909 -34.38386255 37.94820334 -34.40183067 34.12464905 C-34.41267019 31.18553913 -34.40922149 28.24657903 -34.4014473 25.3074646 C-34.39944573 23.89765346 -34.40190306 22.48782872 -34.40888596 21.07803345 C-34.41650223 19.10801452 -34.40283579 17.13794791 -34.38818359 15.16796875 C-34.38579681 14.04672607 -34.38341003 12.9254834 -34.38095093 11.77026367 C-34 9 -34 9 -32.64045715 7.13578796 C-30.18303045 5.43436244 -28.19650768 5.66198212 -25.23828125 5.70703125 C-24.12001953 5.71669922 -23.00175781 5.72636719 -21.84960938 5.73632812 C-20.09874023 5.7740332 -20.09874023 5.7740332 -18.3125 5.8125 C-17.13365234 5.82603516 -15.95480469 5.83957031 -14.74023438 5.85351562 C-11.82636589 5.88890674 -8.91341055 5.93828191 -6 6 C-6 4.02 -6 2.04 -6 0 C-3.50907189 -1.24546405 -2.58919267 -0.7767578 0 0 Z M10 6 C10 7.98 10 9.96 10 12 C13.3 12 16.6 12 20 12 C20 10.02 20 8.04 20 6 C16.7 6 13.4 6 10 6 Z M-28 13 C-28.09887792 14.74382535 -28.12799032 16.49165543 -28.12939453 18.23828125 C-28.13254669 19.35614014 -28.13569885 20.47399902 -28.13894653 21.62573242 C-28.1369223 22.84236572 -28.13489807 24.05899902 -28.1328125 25.3125 C-28.13376923 26.55169189 -28.13472595 27.79088379 -28.13571167 29.06762695 C-28.13639374 31.69388281 -28.13503538 34.32004633 -28.13037109 36.94628906 C-28.12467381 40.31928714 -28.12795302 43.69220565 -28.13394356 47.06520081 C-28.1384177 50.27263677 -28.13528882 53.480063 -28.1328125 56.6875 C-28.13483673 57.9041333 -28.13686096 59.1207666 -28.13894653 60.37426758 C-28.13579437 61.49212646 -28.13264221 62.60998535 -28.12939453 63.76171875 C-28.12859894 64.75131592 -28.12780334 65.74091309 -28.12698364 66.76049805 C-28.25100848 68.9709725 -28.25100848 68.9709725 -27 70 C-25.19490627 70.09899561 -23.38593072 70.12799151 -21.578125 70.12939453 C-20.42022461 70.13254669 -19.26232422 70.13569885 -18.06933594 70.13894653 C-16.80895508 70.1369223 -15.54857422 70.13489807 -14.25 70.1328125 C-12.32462402 70.13424759 -12.32462402 70.13424759 -10.36035156 70.13571167 C-7.63996176 70.13718831 -4.91960475 70.13503519 -2.19921875 70.13037109 C1.29484669 70.12467381 4.78883533 70.12795299 8.28289795 70.13394356 C11.60527153 70.13841754 14.92762423 70.13528885 18.25 70.1328125 C20.14057129 70.13584885 20.14057129 70.13584885 22.06933594 70.13894653 C23.22723633 70.13579437 24.38513672 70.13264221 25.578125 70.12939453 C27.11581543 70.12820114 27.11581543 70.12820114 28.68457031 70.12698364 C30.96206254 70.26037899 30.96206254 70.26037899 32 69 C32.09887792 67.25617465 32.12799032 65.50834457 32.12939453 63.76171875 C32.13412277 62.08493042 32.13412277 62.08493042 32.13894653 60.37426758 C32.1369223 59.15763428 32.13489807 57.94100098 32.1328125 56.6875 C32.13376923 55.44830811 32.13472595 54.20911621 32.13571167 52.93237305 C32.13639374 50.30611719 32.13503538 47.67995367 32.13037109 45.05371094 C32.12467381 41.68071286 32.12795302 38.30779435 32.13394356 34.93479919 C32.1384177 31.72736323 32.13528882 28.519937 32.1328125 25.3125 C32.13483673 24.0958667 32.13686096 22.8792334 32.13894653 21.62573242 C32.13579437 20.50787354 32.13264221 19.39001465 32.12939453 18.23828125 C32.12859894 17.24868408 32.12780334 16.25908691 32.12698364 15.23950195 C32.25100848 13.0290275 32.25100848 13.0290275 31 12 C29.33382885 11.95936168 27.66611905 11.957279 26 12 C26 13.98 26 15.96 26 18 C18.74 18 11.48 18 4 18 C4 16.02 4 14.04 4 12 C2.68 12 1.36 12 0 12 C0 13.98 0 15.96 0 18 C-1.98 18 -3.96 18 -6 18 C-6 16.02 -6 14.04 -6 12 C-9.47914941 11.97112186 -12.95826831 11.95324313 -16.4375 11.9375 C-17.43072266 11.92912109 -18.42394531 11.92074219 -19.44726562 11.91210938 C-20.39150391 11.90888672 -21.33574219 11.90566406 -22.30859375 11.90234375 C-23.18314209 11.89710693 -24.05769043 11.89187012 -24.95874023 11.88647461 C-26.99440206 11.77215191 -26.99440206 11.77215191 -28 13 Z " fill="#000000" transform="translate(46,8)"/>
<path d="M0 0 C5.94 0 11.88 0 18 0 C18 5.94 18 11.88 18 18 C12.06 18 6.12 18 0 18 C0 12.06 0 6.12 0 0 Z M6 6 C6 7.98 6 9.96 6 12 C7.98 12 9.96 12 12 12 C12 10.02 12 8.04 12 6 C10.02 6 8.04 6 6 6 Z " fill="#000000" transform="translate(54,32)"/>
<path d="M0 0 C10.56 0 21.12 0 32 0 C33 4 33 4 32 6 C21.44 6 10.88 6 0 6 C-1 2 -1 2 0 0 Z " fill="#000000" transform="translate(24,66)"/>
<path d="M0 0 C10.56 0 21.12 0 32 0 C33 4 33 4 32 6 C21.44 6 10.88 6 0 6 C-1 2 -1 2 0 0 Z " fill="#000000" transform="translate(24,56)"/>
<path d="M0 0 C3.3 0 6.6 0 10 0 C11 4 11 4 10 6 C8.68 6 7.36 6 6 6 C6 9.96 6 13.92 6 18 C2 19 2 19 0 18 C0 12.06 0 6.12 0 0 Z " fill="#000000" transform="translate(38,32)"/>
<path d="M0 0 C3.3 0 6.6 0 10 0 C11 4 11 4 10 6 C8.68 6 7.36 6 6 6 C6 9.96 6 13.92 6 18 C2 19 2 19 0 18 C0 12.06 0 6.12 0 0 Z " fill="#000000" transform="translate(24,32)"/>
<path d="M0 0 C0 5.28 0 10.56 0 16 C-4 17 -4 17 -6 16 C-6 10.72 -6 5.44 -6 0 C-4 -1 -4 -1 0 0 Z " fill="#000000" transform="translate(68,56)"/>
</svg>
