<svg xmlns="http://www.w3.org/2000/svg" width="96" height="96"><path d="M46 8v6h4V8h22v6l1.863-.105 2.45-.082 2.425-.106C81 14 81 14 82.618 15.133c1.991 2.69 1.763 4.71 1.77 8.035l.029 3.853-.019 4.166q.003 2.136.01 4.27.005 4.475-.017 8.948c-.017 3.824-.007 7.647.01 11.47.012 2.94.008 5.878 0 8.818q-.004 2.115.008 4.229c.008 1.97-.006 3.94-.02 5.91l-.008 3.398C84 81 84 81 82.873 82.86c-2.766 1.682-5.002 1.52-8.225 1.527l-3.974.029-4.299-.019q-2.202.003-4.405.01-4.615.005-9.23-.017c-3.944-.017-7.888-.007-11.833.01-3.032.012-6.063.008-9.095 0q-2.183-.004-4.364.008c-2.032.008-4.064-.006-6.096-.02l-3.506-.008C15 84 15 84 13.127 82.861c-1.644-2.714-1.508-4.868-1.515-8.029l-.029-3.853.019-4.166-.01-4.27q-.005-4.475.017-8.948c.017-3.824.007-7.647-.01-11.47-.012-2.94-.008-5.878 0-8.818q.003-2.115-.008-4.229c-.008-1.97.006-3.94.02-5.91l.008-3.398C12 17 12 17 13.359 15.136c2.458-1.702 4.444-1.474 7.403-1.429l3.388.03 3.538.075 3.572.042q4.37.053 8.74.146V8c2.49-1.245 3.41-.777 6 0m10 6v6h10v-6zm-38 7a94 94 0 0 0-.13 5.238l-.009 3.388.006 3.686-.003 3.756q0 3.939.006 7.878.006 5.06-.004 10.12-.004 4.81.001 9.621l-.006 3.687.01 3.388.002 2.998c-.124 2.211-.124 2.211 1.127 3.24 1.805.099 3.614.128 5.422.13l3.509.009 3.819-.006 3.89.003q4.08.001 8.16-.006 5.242-.006 10.483.004 4.983.004 9.967-.001l3.82.006 3.508-.01 3.107-.002c2.277.133 2.277.133 3.315-1.127.099-1.744.128-3.492.13-5.238l.009-3.388-.006-3.686.003-3.756q0-3.939-.006-7.878-.006-5.06.004-10.12c.004-3.207.001-6.414-.001-9.621l.006-3.687-.01-3.388-.002-2.998c.124-2.211.124-2.211-1.127-3.24a100 100 0 0 0-5 0v6H50v-6h-4v6h-6v-6q-5.22-.042-10.437-.062l-3.01-.026-2.862-.01-2.65-.016C19.006 19.772 19.006 19.772 18 21"/><path d="M54 32h18v18H54zm6 6v6h6v-6zM24 66h32c1 4 1 4 0 6H24c-1-4-1-4 0-6m0-10h32c1 4 1 4 0 6H24c-1-4-1-4 0-6m14-24h10c1 4 1 4 0 6h-4v12c-4 1-4 1-6 0zm-14 0h10c1 4 1 4 0 6h-4v12c-4 1-4 1-6 0zm44 24v16c-4 1-4 1-6 0V56c2-1 2-1 6 0"/></svg>