<?xml version="1.0" encoding="UTF-8"?>
<svg version="1.1" xmlns="http://www.w3.org/2000/svg" width="96" height="96">
<path d="M0 0 C7.02901938 -0.12683815 14.0577434 -0.21436744 21.08764648 -0.2746582 C23.47870919 -0.29979315 25.86969514 -0.33390633 28.26049805 -0.37719727 C31.69859764 -0.43789061 35.13568096 -0.46622072 38.57421875 -0.48828125 C39.64210129 -0.51408768 40.70998383 -0.5398941 41.81022644 -0.56648254 C46.37629535 -0.56820581 49.19450703 -0.47784112 53.17260742 1.88208008 C55.81180658 6.38511447 55.71796104 10.23763797 55.6640625 15.375 C55.66884613 16.37708496 55.67362976 17.37916992 55.67855835 18.41162109 C55.68195478 20.52638319 55.67277041 22.64119798 55.65185547 24.75585938 C55.62508713 27.98947421 55.65161293 31.2196179 55.68359375 34.453125 C55.68028961 36.51042431 55.67388328 38.56772147 55.6640625 40.625 C55.67924423 42.07205322 55.67924423 42.07205322 55.69473267 43.54833984 C55.61560755 48.0889584 55.47113274 50.33946249 52.77612305 54.11791992 C49.78129503 56.14827162 48.47962564 56.59753453 44.91796875 56.48828125 C43.52094727 56.46411133 43.52094727 56.46411133 42.09570312 56.43945312 C40.65614258 56.37661133 40.65614258 56.37661133 39.1875 56.3125 C37.71893555 56.27866211 37.71893555 56.27866211 36.22070312 56.24414062 C33.8131427 56.18541964 31.40637246 56.09574426 29 56 C29 59.3 29 62.6 29 66 C32.3 66 35.6 66 39 66 C40 70 40 70 39 72 C23.16 72 7.32 72 -9 72 C-10 68 -10 68 -9 66 C-5.7 66 -2.4 66 1 66 C1 62.7 1 59.4 1 56 C-2.3 56 -5.6 56 -9 56 C-9 54.02 -9 52.04 -9 50 C19.215 49.505 19.215 49.505 48 49 C48 35.14 48 21.28 48 7 C32.49 6.67 16.98 6.34 1 6 C0.67 4.02 0.34 2.04 0 0 Z M7 56 C7 59.3 7 62.6 7 66 C12.28 66 17.56 66 23 66 C23 62.7 23 59.4 23 56 C17.72 56 12.44 56 7 56 Z " fill="#000000" transform="translate(37,16)"/>
<path d="M0 0 C2.0625 0.185625 4.125 0.37125 6.25 0.5625 C6.25 9.1425 6.25 17.7225 6.25 26.5625 C2.95 26.5625 -0.35 26.5625 -3.75 26.5625 C-3.75 41.7425 -3.75 56.9225 -3.75 72.5625 C-7.75 73.5625 -7.75 73.5625 -9.75 72.5625 C-9.75 57.3825 -9.75 42.2025 -9.75 26.5625 C-13.05 26.5625 -16.35 26.5625 -19.75 26.5625 C-19.75 17.9825 -19.75 9.4025 -19.75 0.5625 C-6.25 -0.5625 -6.25 -0.5625 0 0 Z M-13.75 6.5625 C-13.75 11.1825 -13.75 15.8025 -13.75 20.5625 C-9.13 20.5625 -4.51 20.5625 0.25 20.5625 C0.25 15.9425 0.25 11.3225 0.25 6.5625 C-1.07 6.5625 -2.39 6.5625 -3.75 6.5625 C-3.75 9.2025 -3.75 11.8425 -3.75 14.5625 C-5.73 14.5625 -7.71 14.5625 -9.75 14.5625 C-9.75 11.9225 -9.75 9.2825 -9.75 6.5625 C-11.07 6.5625 -12.39 6.5625 -13.75 6.5625 Z " fill="#000000" transform="translate(25.75,15.4375)"/>
</svg>
