<svg xmlns="http://www.w3.org/2000/svg" width="96" height="96"><path d="M37 16a2246 2246 0 0 1 21.088-.275q3.586-.037 7.172-.102c3.439-.06 6.876-.09 10.314-.111l3.236-.078c4.566-.002 7.385.088 11.363 2.448 2.639 4.503 2.545 8.356 2.491 13.493l.015 3.037q.004 3.172-.027 6.344c-.027 3.233 0 6.464.032 9.697q-.006 3.086-.02 6.172l.03 2.923c-.078 4.541-.223 6.791-2.918 10.57-2.995 2.03-4.296 2.48-7.858 2.37l-2.822-.049-2.909-.126-2.966-.069A470 470 0 0 1 66 72v10h10c1 4 1 4 0 6H28c-1-4-1-4 0-6h10V72H28v-6l57-1V23l-47-1zm7 56v10h16V72zM25.75 15.438 32 16v26H22v46c-4 1-4 1-6 0V42H6V16c13.5-1.125 13.5-1.125 19.75-.562M12 22v14h14V22h-4v8h-6v-8z"/></svg>