<?xml version="1.0" encoding="UTF-8"?>
<svg version="1.1" xmlns="http://www.w3.org/2000/svg" width="96" height="96">
<path d="M0 0 C0 2.64 0 5.28 0 8 C2.64 8 5.28 8 8 8 C8 5.36 8 2.72 8 0 C11.75 -1.125 11.75 -1.125 14 0 C14 2.64 14 5.28 14 8 C16.64 8 19.28 8 22 8 C22 5.36 22 2.72 22 0 C25.75 -1.125 25.75 -1.125 28 0 C28 2.64 28 5.28 28 8 C30.64 8 33.28 8 36 8 C36 5.36 36 2.72 36 0 C39.75 -1.125 39.75 -1.125 42 0 C42.1546875 1.85625 42.1546875 1.85625 42.3125 3.75 C42.67031634 7.07172836 43.04338471 8.06179035 45.0625 10.9375 C48.88920506 13.62433547 51.3731507 13.76473648 56 14 C57.125 17.75 57.125 17.75 56 20 C53.36 20 50.72 20 48 20 C48 22.64 48 25.28 48 28 C50.64 28 53.28 28 56 28 C57.125 31.75 57.125 31.75 56 34 C53.36 34 50.72 34 48 34 C48 36.64 48 39.28 48 42 C50.64 42 53.28 42 56 42 C57.125 45.75 57.125 45.75 56 48 C53.36 48 50.72 48 48 48 C48 50.64 48 53.28 48 56 C50.64 56 53.28 56 56 56 C57.125 59.75 57.125 59.75 56 62 C54.14375 62.1546875 54.14375 62.1546875 52.25 62.3125 C48.92827164 62.67031634 47.93820965 63.04338471 45.0625 65.0625 C42.37566453 68.88920506 42.23526352 71.3731507 42 76 C38.25 77.125 38.25 77.125 36 76 C36 73.36 36 70.72 36 68 C33.36 68 30.72 68 28 68 C28 70.64 28 73.28 28 76 C24.25 77.125 24.25 77.125 22 76 C22 73.36 22 70.72 22 68 C19.36 68 16.72 68 14 68 C14 70.64 14 73.28 14 76 C10.25 77.125 10.25 77.125 8 76 C8 73.36 8 70.72 8 68 C5.36 68 2.72 68 0 68 C0 70.64 0 73.28 0 76 C-3.75 77.125 -3.75 77.125 -6 76 C-6.103125 74.7625 -6.20625 73.525 -6.3125 72.25 C-6.67031634 68.92827164 -7.04338471 67.93820965 -9.0625 65.0625 C-12.88920506 62.37566453 -15.3731507 62.23526352 -20 62 C-21.125 58.25 -21.125 58.25 -20 56 C-17.36 56 -14.72 56 -12 56 C-12 53.36 -12 50.72 -12 48 C-14.64 48 -17.28 48 -20 48 C-21.125 44.25 -21.125 44.25 -20 42 C-17.36 42 -14.72 42 -12 42 C-12 39.36 -12 36.72 -12 34 C-14.64 34 -17.28 34 -20 34 C-21.125 30.25 -21.125 30.25 -20 28 C-17.36 28 -14.72 28 -12 28 C-12 25.36 -12 22.72 -12 20 C-14.64 20 -17.28 20 -20 20 C-21.125 16.25 -21.125 16.25 -20 14 C-18.7625 13.896875 -17.525 13.79375 -16.25 13.6875 C-12.92827164 13.32968366 -11.93820965 12.95661529 -9.0625 10.9375 C-6.38521472 7.12439672 -6.38307465 4.59689581 -6 0 C-3.50907189 -1.24546405 -2.58919267 -0.7767578 0 0 Z M-5 15 C-6.3257433 18.9772299 -6.14268506 22.79161626 -6.1328125 26.9375 C-6.13376923 27.81398193 -6.13472595 28.69046387 -6.13571167 29.59350586 C-6.13639199 31.44612703 -6.134548 33.2987506 -6.13037109 35.15136719 C-6.12502077 37.9889867 -6.13032108 40.82644792 -6.13671875 43.6640625 C-6.13605794 45.46354202 -6.13477673 47.26302143 -6.1328125 49.0625 C-6.13483673 49.91255615 -6.13686096 50.7626123 -6.13894653 51.63842773 C-6.12552238 55.00673216 -6.0725117 57.7824649 -5 61 C-2.72565824 62.13717088 -1.47417045 62.12666384 1.05078125 62.12939453 C1.88504639 62.13254669 2.71931152 62.13569885 3.57885742 62.13894653 C4.48095947 62.1369223 5.38306152 62.13489807 6.3125 62.1328125 C7.23716064 62.13376923 8.16182129 62.13472595 9.11450195 62.13571167 C11.07145251 62.13639283 13.02840533 62.134543 14.98535156 62.13037109 C17.98768164 62.12502195 20.9898621 62.13031825 23.9921875 62.13671875 C25.89062533 62.13605796 27.78906307 62.13477677 29.6875 62.1328125 C30.58960205 62.13483673 31.4917041 62.13686096 32.42114258 62.13894653 C33.67254028 62.13421829 33.67254028 62.13421829 34.94921875 62.12939453 C35.68487061 62.12859894 36.42052246 62.12780334 37.1784668 62.12698364 C39.09957855 62.11018116 39.09957855 62.11018116 41 61 C42.3257433 57.0227701 42.14268506 53.20838374 42.1328125 49.0625 C42.13376923 48.18601807 42.13472595 47.30953613 42.13571167 46.40649414 C42.13639199 44.55387297 42.134548 42.7012494 42.13037109 40.84863281 C42.12502077 38.0110133 42.13032108 35.17355208 42.13671875 32.3359375 C42.13605794 30.53645798 42.13477673 28.73697857 42.1328125 26.9375 C42.13483673 26.08744385 42.13686096 25.2373877 42.13894653 24.36157227 C42.12552238 20.99326784 42.0725117 18.2175351 41 15 C38.72565824 13.86282912 37.47417045 13.87333616 34.94921875 13.87060547 C34.11495361 13.86745331 33.28068848 13.86430115 32.42114258 13.86105347 C31.51904053 13.8630777 30.61693848 13.86510193 29.6875 13.8671875 C28.76283936 13.86623077 27.83817871 13.86527405 26.88549805 13.86428833 C24.92854749 13.86360717 22.97159467 13.865457 21.01464844 13.86962891 C18.01231836 13.87497805 15.0101379 13.86968175 12.0078125 13.86328125 C10.10937467 13.86394204 8.21093693 13.86522323 6.3125 13.8671875 C4.95934692 13.86415115 4.95934692 13.86415115 3.57885742 13.86105347 C2.74459229 13.86420563 1.91032715 13.86735779 1.05078125 13.87060547 C0.31512939 13.87140106 -0.42052246 13.87219666 -1.1784668 13.87301636 C-3.09957855 13.88981884 -3.09957855 13.88981884 -5 15 Z " fill="#000000" transform="translate(30,10)"/>
<path d="M0 0 C1.98 0 3.96 0 6 0 C6 1.98 6 3.96 6 6 C4.02 6 2.04 6 0 6 C0 4.02 0 2.04 0 0 Z " fill="#000000" transform="translate(62,62)"/>
<path d="M0 0 C1.98 0 3.96 0 6 0 C6 1.98 6 3.96 6 6 C4.02 6 2.04 6 0 6 C0 4.02 0 2.04 0 0 Z " fill="#000000" transform="translate(28,28)"/>
</svg>
