<svg xmlns="http://www.w3.org/2000/svg" width="96" height="96"><path d="M30 10v8h8v-8c3.75-1.125 3.75-1.125 6 0v8h8v-8c3.75-1.125 3.75-1.125 6 0v8h8v-8c3.75-1.125 3.75-1.125 6 0l.313 3.75c.357 3.322.73 4.312 2.75 7.188C78.889 23.624 81.373 23.765 86 24c1.125 3.75 1.125 3.75 0 6h-8v8h8c1.125 3.75 1.125 3.75 0 6h-8v8h8c1.125 3.75 1.125 3.75 0 6h-8v8h8c1.125 3.75 1.125 3.75 0 6l-3.75.313c-3.322.357-4.312.73-7.187 2.75C72.376 78.889 72.235 81.373 72 86c-3.75 1.125-3.75 1.125-6 0v-8h-8v8c-3.75 1.125-3.75 1.125-6 0v-8h-8v8c-3.75 1.125-3.75 1.125-6 0v-8h-8v8c-3.75 1.125-3.75 1.125-6 0l-.312-3.75c-.358-3.322-.731-4.312-2.75-7.187C17.11 72.376 14.627 72.235 10 72c-1.125-3.75-1.125-3.75 0-6h8v-8h-8c-1.125-3.75-1.125-3.75 0-6h8v-8h-8c-1.125-3.75-1.125-3.75 0-6h8v-8h-8c-1.125-3.75-1.125-3.75 0-6l3.75-.312c3.322-.358 4.312-.731 7.188-2.75C23.615 17.124 23.617 14.596 24 10c2.49-1.245 3.41-.777 6 0m-5 15c-1.326 3.977-1.143 7.792-1.133 11.938l-.003 2.656q0 2.778.006 5.557.005 4.257-.007 8.513 0 2.7.004 5.398l-.006 2.576c.013 3.369.066 6.144 1.139 9.362 2.274 1.137 3.526 1.127 6.05 1.13l2.529.009 2.733-.006 2.803.003q2.934 0 5.87-.006 4.504-.005 9.007.007 2.848 0 5.696-.004l2.733.006 2.528-.01 2.23-.002c1.92-.017 1.92-.017 3.821-1.127 1.326-3.977 1.143-7.792 1.133-11.937l.003-2.657q0-2.778-.006-5.557-.005-4.257.007-8.513 0-2.7-.004-5.398l.006-2.576C72.126 30.993 72.073 28.218 71 25c-2.274-1.137-3.526-1.127-6.05-1.13l-2.529-.009-2.733.006-2.803-.003q-2.934 0-5.87.006-4.504.005-9.007-.007-2.848 0-5.696.004l-2.733-.006-2.528.01-2.23.002c-1.92.017-1.92.017-3.821 1.127"/><path d="M62 62h6v6h-6zM28 28h6v6h-6z"/></svg>