<svg xmlns="http://www.w3.org/2000/svg" width="96" height="96"><path d="m18.086 15.612 2.174-.016c2.372-.013 4.743-.005 7.115.006q2.472-.003 4.943-.01 5.18-.005 10.36.017c4.429.017 8.857.007 13.286-.01 3.402-.012 6.804-.008 10.207 0q2.45.003 4.899-.008c2.282-.007 4.562.004 6.844.02l3.936.008C85 16 85 16 86.92 17.15c1.558 2.666 1.462 4.755 1.47 7.834l.028 3.732-.019 4.034q.003 2.068.01 4.136.005 4.332-.017 8.665c-.017 3.702-.007 7.404.01 11.107.012 2.846.008 5.692 0 8.539q-.004 2.047.008 4.095c.008 1.908-.006 3.816-.02 5.724l-.008 3.29C88 81 88 81 86.919 82.85c-2.972 1.781-5.564 1.532-9.005 1.538l-2.174.016c-2.372.013-4.743.005-7.115-.006q-2.471.003-4.943.01-5.18.005-10.36-.017c-4.429-.017-8.857-.007-13.286.01-3.402.012-6.804.008-10.207 0q-2.45-.004-4.899.008c-2.282.007-4.562-.004-6.844-.02l-3.936-.008C11 84 11 84 9.08 82.85c-1.558-2.666-1.462-4.755-1.47-7.834l-.028-3.732.019-4.034q-.003-2.068-.01-4.136-.005-4.332.017-8.665c.017-3.702.007-7.404-.01-11.107-.012-2.846-.008-5.692 0-8.539q.004-2.047-.008-4.095c-.008-1.908.006-3.816.02-5.724l.008-3.29C8 19 8 19 9.081 17.15c2.972-1.781 5.564-1.532 9.005-1.538M14 23a88 88 0 0 0-.13 5.055l-.009 3.266.006 3.554-.003 3.62q0 3.8.006 7.597c.005 3.891 0 7.782-.007 11.674q0 3.68.004 7.359l-.006 3.554.01 3.266.002 2.891C13.758 76.98 13.758 76.98 15 78c2.05.1 4.104.128 6.156.13l3.994.009 4.35-.006 4.428.003q4.646.002 9.29-.006 5.969-.006 11.936.004 4.572.005 9.146 0l4.402.002q3.07.002 6.142-.007l3.537-.002c2.545.17 2.545.17 3.619-1.127a88 88 0 0 0 .13-5.055l.009-3.266-.006-3.554.003-3.62q0-3.8-.006-7.597-.005-5.836.007-11.674 0-3.68-.004-7.359l.006-3.554-.01-3.266-.002-2.891C82.242 23.02 82.242 23.02 81 22c-2.05-.1-4.104-.128-6.156-.13l-3.994-.009-4.35.006-4.428-.003q-4.646-.002-9.29.006-5.969.006-11.936-.004-4.572-.005-9.146 0l-4.402-.002c-2.047-.003-4.094.002-6.142.007l-3.537.002c-2.545-.17-2.545-.17-3.619 1.127"/><path d="M30 28c2.125.938 2.125.938 4 2-.534 4.539-2.42 7.29-5 11-2.1 6.302-2.09 13.62.875 19.625C31.781 63.929 31.781 63.929 34 66c-.375 2.625-.375 2.625-1 5l-3 1c-4.926-3.031-7.785-7.324-9.594-12.797C18.89 50.981 19.141 42.451 23 35c1.977-2.829 3.852-5.426 7-7m35 0c5.406 2.419 7.965 6.367 10.09 11.773 2.284 8.099 2.003 16.896-1.945 24.387C69.122 70.626 69.122 70.626 65 72l-3-2c.534-4.539 2.42-7.29 5-11 2.1-6.302 2.09-13.62-.875-19.625C64.219 36.071 64.219 36.071 62 34c.25-2.562.25-2.562 1-5z"/><path d="M53 35c2.688-.5 2.688-.5 6 0 3.782 3.842 5.715 8.66 6.07 13.992C64.857 55.074 63.12 60.422 59 65c-3.25.375-3.25.375-6 0-.376-5.518-.376-5.518 1.484-7.902C57.138 53.425 56.642 49.346 56 45c-1.124-2.52-2.518-4.658-4-7zm-12.812-.25L43 35c.317 4.649-.187 6.4-3 10-1.667 5.358-.445 8.204 2 13l1 1c.04 2 .043 4 0 6-2.687.5-2.687.5-6 0-4.038-4.006-5.793-9.108-6.14-14.695.308-5.062 2.166-9.403 4.453-13.867C37 35 37 35 40.187 34.75M48 45.875C51 46 51 46 52 47c.125 3 .125 3 0 6-1 1-1 1-4 1.125C45 54 45 54 44 53c-.125-3-.125-3 0-6 1-1 1-1 4-1.125"/></svg>