<?xml version="1.0" encoding="UTF-8"?>
<svg version="1.1" xmlns="http://www.w3.org/2000/svg" width="96" height="96">
<path d="M0 0 C1.07607513 -0.00788544 1.07607513 -0.00788544 2.17388916 -0.01593018 C4.54583492 -0.02913686 6.91710988 -0.02039017 9.2890625 -0.01025391 C10.93668751 -0.01227446 12.58431165 -0.01518574 14.23193359 -0.01895142 C17.68530796 -0.02337566 21.13844956 -0.01694062 24.59179688 -0.00292969 C29.0206861 0.01416241 33.44902996 0.00432175 37.87789917 -0.01364708 C41.28023394 -0.0244823 44.68243919 -0.02103981 48.08477783 -0.0132637 C49.71787582 -0.01126096 51.35098552 -0.01372357 52.98406982 -0.02070236 C55.26573888 -0.02831274 57.54652202 -0.0167195 59.828125 0 C61.7764624 0.00358017 61.7764624 0.00358017 63.76416016 0.00723267 C66.9140625 0.38818359 66.9140625 0.38818359 68.83267212 1.53842163 C70.39090706 4.20384549 70.2954773 6.29353033 70.30224609 9.37255859 C70.31170258 10.60393555 70.32115906 11.8353125 70.3309021 13.10400391 C70.32553239 14.44873374 70.31937944 15.79346064 70.3125 17.13818359 C70.31452097 18.51676589 70.3174326 19.89534714 70.32119751 21.27392578 C70.32561985 24.16237573 70.31919308 27.05054727 70.30517578 29.93896484 C70.28808349 33.64148113 70.29792522 37.34334505 70.31589317 41.0458374 C70.32673371 43.89230261 70.32328353 46.73861314 70.3155098 49.58508301 C70.31350851 50.95023679 70.31596458 52.31540461 70.32294846 53.68054199 C70.3305664 55.5882948 70.31689656 57.49609683 70.30224609 59.40380859 C70.29985931 60.48952148 70.29747253 61.57523438 70.29501343 62.69384766 C69.9140625 65.38818359 69.9140625 65.38818359 68.83267212 67.23794556 C65.86079821 69.01963287 63.26899154 68.77004442 59.828125 68.77636719 C59.11074158 68.78162415 58.39335815 68.7868811 57.65423584 68.79229736 C55.28229008 68.80550405 52.91101512 68.79675736 50.5390625 68.78662109 C48.89143749 68.78864165 47.24381335 68.79155293 45.59619141 68.7953186 C42.14281704 68.79974285 38.68967544 68.79330781 35.23632812 68.77929688 C30.8074389 68.76220477 26.37909504 68.77204544 21.95022583 68.79001427 C18.54789106 68.80084949 15.14568581 68.797407 11.74334717 68.78963089 C10.11024918 68.78762815 8.47713948 68.79009075 6.84405518 68.79706955 C4.56238612 68.80467993 2.28160298 68.79308669 0 68.77636719 C-1.9483374 68.77278702 -1.9483374 68.77278702 -3.93603516 68.76913452 C-7.0859375 68.38818359 -7.0859375 68.38818359 -9.00454712 67.23794556 C-10.56278206 64.5725217 -10.4673523 62.48283686 -10.47412109 59.40380859 C-10.48357758 58.17243164 -10.49303406 56.94105469 -10.5027771 55.67236328 C-10.49740739 54.32763345 -10.49125444 52.98290655 -10.484375 51.63818359 C-10.48639597 50.2596013 -10.4893076 48.88102004 -10.49307251 47.50244141 C-10.49749485 44.61399145 -10.49106808 41.72581992 -10.47705078 38.83740234 C-10.45995849 35.13488606 -10.46980022 31.43302214 -10.48776817 27.73052979 C-10.49860871 24.88406458 -10.49515853 22.03775404 -10.4873848 19.19128418 C-10.48538351 17.8261304 -10.48783958 16.46096258 -10.49482346 15.0958252 C-10.5024414 13.18807239 -10.48877156 11.28027035 -10.47412109 9.37255859 C-10.47173431 8.2868457 -10.46934753 7.20113281 -10.46688843 6.08251953 C-10.0859375 3.38818359 -10.0859375 3.38818359 -9.00454712 1.53842163 C-6.03267321 -0.24326568 -3.44086654 0.00632277 0 0 Z M-4.0859375 7.38818359 C-4.1846892 9.07073594 -4.21392654 10.75742388 -4.21533203 12.44287109 C-4.21848419 13.52068848 -4.22163635 14.59850586 -4.22488403 15.70898438 C-4.2228598 16.88187012 -4.22083557 18.05475586 -4.21875 19.26318359 C-4.21970673 20.4579834 -4.22066345 21.6527832 -4.22164917 22.88378906 C-4.22233121 25.4158534 -4.22047528 27.94791947 -4.21630859 30.47998047 C-4.21096071 34.37129619 -4.21625283 38.26249649 -4.22265625 42.15380859 C-4.22199547 44.60693385 -4.22071432 47.06005903 -4.21875 49.51318359 C-4.22077423 50.68606934 -4.22279846 51.85895508 -4.22488403 53.06738281 C-4.22173187 54.1452002 -4.21857971 55.22301758 -4.21533203 56.33349609 C-4.21453644 57.28756348 -4.21374084 58.24163086 -4.21292114 59.22460938 C-4.32754598 61.36806248 -4.32754598 61.36806248 -3.0859375 62.38818359 C-1.03580904 62.48757985 1.01777642 62.51617912 3.0703125 62.51757812 C4.38837891 62.52073029 5.70644531 62.52388245 7.06445312 62.52713013 C8.51432325 62.52534035 9.96419308 62.5232894 11.4140625 62.52099609 C12.88997412 62.52166917 14.36588563 62.52263922 15.84179688 62.52389526 C18.93881279 62.52537207 22.03579992 62.52321823 25.1328125 62.51855469 C29.11114799 62.5128574 33.08941602 62.5161365 37.06774902 62.52212715 C40.11654167 62.52573323 43.16531821 62.52459397 46.21411133 62.52199936 C47.68139656 62.52133022 49.14868324 62.52215807 50.6159668 62.52447891 C52.66324843 62.52700616 54.71053516 62.5224742 56.7578125 62.51757812 C57.92505859 62.51678253 59.09230469 62.51598694 60.29492188 62.51516724 C62.84045698 62.68580071 62.84045698 62.68580071 63.9140625 61.38818359 C64.0128142 59.70563125 64.04205154 58.01894331 64.04345703 56.33349609 C64.04818527 54.71677002 64.04818527 54.71677002 64.05300903 53.06738281 C64.0509848 51.89449707 64.04896057 50.72161133 64.046875 49.51318359 C64.04831009 47.72098389 64.04831009 47.72098389 64.04977417 45.89257812 C64.05045621 43.36051379 64.04860028 40.82844772 64.04443359 38.29638672 C64.03908571 34.40507099 64.04437783 30.5138707 64.05078125 26.62255859 C64.05012047 24.16943334 64.04883932 21.71630815 64.046875 19.26318359 C64.04991135 17.50385498 64.04991135 17.50385498 64.05300903 15.70898438 C64.04985687 14.63116699 64.04670471 13.55334961 64.04345703 12.44287109 C64.04266144 11.48880371 64.04186584 10.53473633 64.04104614 9.55175781 C64.15567098 7.4083047 64.15567098 7.4083047 62.9140625 6.38818359 C60.86393404 6.28878733 58.81034858 6.26018807 56.7578125 6.25878906 C55.43974609 6.2556369 54.12167969 6.25248474 52.76367188 6.24923706 C51.31380175 6.25102684 49.86393192 6.25307779 48.4140625 6.25537109 C46.93815088 6.25469802 45.46223937 6.25372796 43.98632812 6.25247192 C40.88931221 6.25099512 37.79232508 6.25314895 34.6953125 6.2578125 C30.71697701 6.26350979 26.73870898 6.26023069 22.76037598 6.25424004 C19.71158333 6.25063396 16.66280679 6.25177322 13.61401367 6.25436783 C12.14672844 6.25503697 10.67944176 6.25420912 9.2121582 6.25188828 C7.16487657 6.24936103 5.11758984 6.25389299 3.0703125 6.25878906 C1.90306641 6.25958466 0.73582031 6.26038025 -0.46679688 6.26119995 C-3.01233198 6.09056648 -3.01233198 6.09056648 -4.0859375 7.38818359 Z " fill="#000000" transform="translate(18.0859375,15.61181640625)"/>
<path d="M0 0 C2.125 0.9375 2.125 0.9375 4 2 C3.46604696 6.53860088 1.5802582 9.29087883 -1 13 C-3.10063705 19.30191116 -3.08937912 26.61910178 -0.125 32.625 C1.78114916 35.92889656 1.78114916 35.92889656 4 38 C3.625 40.625 3.625 40.625 3 43 C1.515 43.495 1.515 43.495 0 44 C-4.92570005 40.96879997 -7.7852381 36.67625311 -9.59375 31.203125 C-11.10980811 22.98142527 -10.85875141 14.45138203 -7 7 C-5.0231212 4.171447 -3.14790893 1.57395447 0 0 Z " fill="#000000" transform="translate(30,28)"/>
<path d="M0 0 C5.40634303 2.41862714 7.96539882 6.36714395 10.08984375 11.7734375 C12.3742813 19.87191569 12.09253273 28.66871882 8.14453125 36.16015625 C4.12232143 42.62589286 4.12232143 42.62589286 0 44 C-0.99 43.34 -1.98 42.68 -3 42 C-2.46604696 37.46139912 -0.5802582 34.70912117 2 31 C4.10063705 24.69808884 4.08937912 17.38089822 1.125 11.375 C-0.78114916 8.07110344 -0.78114916 8.07110344 -3 6 C-2.75 3.4375 -2.75 3.4375 -2 1 C-1.34 0.67 -0.68 0.34 0 0 Z " fill="#000000" transform="translate(65,28)"/>
<path d="M0 0 C2.6875 -0.5 2.6875 -0.5 6 0 C9.78166214 3.84168852 11.71483076 8.65996137 12.0703125 13.9921875 C11.85732115 20.07427369 10.11958956 25.42267827 6 30 C2.75 30.375 2.75 30.375 0 30 C-0.37621693 24.4821517 -0.37621693 24.4821517 1.484375 22.09765625 C4.1379638 18.42503463 3.64179746 14.34550367 3 10 C1.8758799 7.48009744 0.48170352 5.34204749 -1 3 C-0.67 2.01 -0.34 1.02 0 0 Z " fill="#000000" transform="translate(53,35)"/>
<path d="M0 0 C0.928125 0.0825 1.85625 0.165 2.8125 0.25 C3.12946526 4.8988238 2.62511611 6.64985138 -0.1875 10.25 C-1.85439094 15.60786372 -0.63233937 18.45435355 1.8125 23.25 C2.1425 23.58 2.4725 23.91 2.8125 24.25 C2.85330783 26.24958364 2.85504356 28.25045254 2.8125 30.25 C0.125 30.75 0.125 30.75 -3.1875 30.25 C-7.22582709 26.24372312 -8.98012557 21.14201171 -9.328125 15.5546875 C-9.01927239 10.49293645 -7.16165407 6.15191985 -4.875 1.6875 C-3.1875 0.25 -3.1875 0.25 0 0 Z " fill="#000000" transform="translate(40.1875,34.75)"/>
<path d="M0 0 C3 0.125 3 0.125 4 1.125 C4.125 4.125 4.125 4.125 4 7.125 C3 8.125 3 8.125 0 8.25 C-3 8.125 -3 8.125 -4 7.125 C-4.125 4.125 -4.125 4.125 -4 1.125 C-3 0.125 -3 0.125 0 0 Z " fill="#000000" transform="translate(48,45.875)"/>
</svg>
