<svg xmlns="http://www.w3.org/2000/svg" width="96" height="96"><path d="m26.921 7.823 3.106-.039 3.368-.022 3.453-.025q3.623-.02 7.245-.032c3.694-.017 7.387-.061 11.08-.105q3.518-.015 7.034-.026l3.35-.053c7.68.022 7.68.022 11.618 2.38 3.098 3.562 2.963 5.823 3.002 10.489l.02 1.986q.028 3.26.041 6.519l.013 2.248q.03 5.893.044 11.786c.011 4.055.046 8.11.085 12.166.026 3.12.035 6.24.038 9.36q.008 2.243.035 4.484c.025 2.095.024 4.188.017 6.283l.018 3.609C79.902 82.635 78.668 84.278 76 87c-2.474 1.237-4.154 1.147-6.921 1.177l-3.106.039-3.368.022-3.453.025q-3.622.02-7.245.032c-3.694.017-7.387.061-11.08.105q-3.518.015-7.034.026l-3.35.053c-7.68-.022-7.68-.022-11.618-2.38-3.098-3.562-2.963-5.823-3.002-10.489l-.02-1.986q-.028-3.26-.041-6.519l-.013-2.248q-.03-5.893-.044-11.786c-.011-4.055-.046-8.11-.085-12.166-.026-3.12-.035-6.24-.038-9.36q-.008-2.243-.035-4.484a420 420 0 0 1-.017-6.283l-.018-3.609C16.098 13.365 17.332 11.722 20 9c2.474-1.237 4.154-1.147 6.921-1.177M23 16c-.927 2.78-1.122 4.42-1.114 7.288v2.644l.016 2.767.003 2.553c.006 3.145.02 6.29.032 9.435L22 62h52l.125-21.25.055-6.692.015-5.261.031-2.752.001-2.644.014-2.288c-.282-2.47-.878-4.036-2.241-6.113-2.723-.908-4.332-1.13-7.133-1.145l-2.508-.02-2.699-.003-2.783-.01q-2.914-.007-5.828-.007c-2.972-.002-5.943-.02-8.914-.04q-2.832-.005-5.662-.005l-2.693-.022-2.518.01-2.207-.005c-2.434.293-4.003.908-6.055 2.247m0 54c-.893 3.444-1.31 5.93-.313 9.375C24.318 81.394 25.47 81.663 28 82v-8h6v8h4v-8h6v8h4v-8h6v8q3.625.08 7.25.125l2.066.05c5.184.08 5.184.08 9.684-2.175.9-3.468 1.339-5.927.25-9.375C72.003 68.69 72.003 68.69 69 68a65 65 0 0 0-4.133-.145l-2.508-.02-2.699-.003-2.783-.01q-2.914-.007-5.828-.007c-2.972-.002-5.943-.02-8.914-.04q-2.832-.005-5.662-.005l-2.693-.022-2.518.01-2.207-.005C26.61 68.047 25.05 68.63 23 70"/><path d="M64 72h6v6h-6z"/></svg>