<?xml version="1.0" encoding="UTF-8"?>
<svg version="1.1" xmlns="http://www.w3.org/2000/svg" width="96" height="96">
<path d="M0 0 C1.53718437 -0.01925285 1.53718437 -0.01925285 3.10542297 -0.03889465 C4.21685165 -0.04628159 5.32828033 -0.05366852 6.47338867 -0.0612793 C7.61289474 -0.06935104 8.75240082 -0.07742279 9.92643738 -0.08573914 C12.34156773 -0.09958792 14.75671772 -0.1103065 17.171875 -0.11816406 C20.86585567 -0.1353792 24.55894214 -0.17925999 28.25268555 -0.22338867 C30.59708 -0.2335151 32.94148206 -0.24203136 35.28588867 -0.2487793 C36.39124466 -0.26628738 37.49660065 -0.28379547 38.63545227 -0.30183411 C46.31575407 -0.28010887 46.31575407 -0.28010887 50.25341797 2.07861328 C53.35138822 5.63980819 53.21721502 7.90136422 53.25585938 12.56689453 C53.26243057 13.22239792 53.26900177 13.87790131 53.27577209 14.55326843 C53.29550798 16.7260245 53.30716859 18.89871141 53.31713867 21.0715332 C53.3212142 21.81367254 53.32528973 22.55581188 53.32948875 23.32044029 C53.35035133 27.24894305 53.36465186 31.17741085 53.37402344 35.10595703 C53.38508487 39.16144318 53.41948044 43.21638016 53.45919514 47.27167225 C53.48535618 50.39183056 53.4937148 53.51185797 53.49730492 56.63211632 C53.50217273 58.12683506 53.5137924 59.62154788 53.53234291 61.11615944 C53.55672405 63.21085572 53.5557723 65.30413069 53.54882812 67.39892578 C53.55469437 68.58980301 53.56056061 69.78068024 53.56660461 71.00764465 C52.98106843 74.81243002 51.74609295 76.45472783 49.07885742 79.17700195 C46.6052435 80.41380891 44.92481966 80.32387962 42.15771484 80.35400391 C40.62053047 80.37325676 40.62053047 80.37325676 39.05229187 80.39289856 C37.38514885 80.40397896 37.38514885 80.40397896 35.68432617 80.4152832 C34.5448201 80.42335495 33.40531403 80.4314267 32.23127747 80.43974304 C29.81614711 80.45359182 27.40099712 80.46431041 24.98583984 80.47216797 C21.29185918 80.48938311 17.59877271 80.53326389 13.9050293 80.57739258 C11.56063485 80.58751901 9.21623278 80.59603527 6.87182617 80.6027832 C5.21379219 80.62904533 5.21379219 80.62904533 3.52226257 80.65583801 C-4.15803923 80.63411277 -4.15803923 80.63411277 -8.09570312 78.27539062 C-11.19367338 74.71419572 -11.05950017 72.45263968 -11.09814453 67.78710938 C-11.10471573 67.13160599 -11.11128693 66.4761026 -11.11805725 65.80073547 C-11.13779314 63.62797941 -11.14945375 61.45529249 -11.15942383 59.2824707 C-11.16553712 58.16926169 -11.16553712 58.16926169 -11.17177391 57.03356361 C-11.19263649 53.10506086 -11.20693702 49.17659305 -11.21630859 45.24804688 C-11.22737003 41.19256073 -11.2617656 37.13762374 -11.30148029 33.08233166 C-11.32764133 29.96217334 -11.33599996 26.84214593 -11.33959007 23.72188759 C-11.34445788 22.22716884 -11.35607756 20.73245602 -11.37462807 19.23784447 C-11.39900921 17.14314819 -11.39805746 15.04987322 -11.39111328 12.95507812 C-11.39697952 11.7642009 -11.40284576 10.57332367 -11.40888977 9.34635925 C-10.82335359 5.54157389 -9.5883781 3.89927607 -6.92114258 1.17700195 C-4.44752866 -0.05980501 -2.76710482 0.03012429 0 0 Z M-3.92114258 8.17700195 C-4.84801583 10.9576217 -5.04307654 12.59752054 -5.03466797 15.46484375 C-5.03454712 16.33749878 -5.03442627 17.21015381 -5.03430176 18.10925293 C-5.02918579 19.02235229 -5.02406982 19.93545166 -5.01879883 20.8762207 C-5.01779175 21.7185022 -5.01678467 22.56078369 -5.01574707 23.42858887 C-5.01051642 26.57390709 -4.99655515 29.71920589 -4.98364258 32.86450195 C-4.96301758 39.89762695 -4.94239258 46.93075195 -4.92114258 54.17700195 C12.23885742 54.17700195 29.39885742 54.17700195 47.07885742 54.17700195 C47.12010742 47.16450195 47.16135742 40.15200195 47.20385742 32.92700195 C47.22206543 30.71851562 47.24027344 28.5100293 47.2590332 26.23461914 C47.26487531 24.48104088 47.26997153 22.72745992 47.27416992 20.97387695 C47.28951782 19.61190186 47.28951782 19.61190186 47.30517578 18.22241211 C47.30541748 17.34987793 47.30565918 16.47734375 47.3059082 15.57836914 C47.31257004 14.44585724 47.31257004 14.44585724 47.31936646 13.29046631 C47.03831906 10.82077255 46.442016 9.25363207 45.07885742 7.17700195 C42.35634889 6.26949911 40.74697649 6.04641476 37.94628906 6.03173828 C37.11855484 6.02535843 36.29082062 6.01897858 35.43800354 6.0124054 C34.10200356 6.01073616 34.10200356 6.01073616 32.73901367 6.0090332 C31.36126015 6.0040406 31.36126015 6.0040406 29.95567322 5.99894714 C28.01309714 5.99388467 26.07051236 5.99153861 24.12792969 5.99169922 C21.15634844 5.98951298 18.18513859 5.97135079 15.21362305 5.95239258 C13.32625453 5.94945848 11.43888424 5.94747379 9.55151367 5.9465332 C8.66287125 5.93934769 7.77422882 5.93216217 6.85865784 5.92475891 C5.61232826 5.92937386 5.61232826 5.92937386 4.34082031 5.93408203 C3.24852867 5.9319445 3.24852867 5.9319445 2.13417053 5.92976379 C-0.30024363 6.22260486 -1.86899807 6.83758414 -3.92114258 8.17700195 Z M-3.92114258 62.17700195 C-4.81414329 65.62143327 -5.23090728 68.10690571 -4.23364258 71.55200195 C-2.60299888 73.57089416 -1.45161458 73.83960569 1.07885742 74.17700195 C1.07885742 71.53700195 1.07885742 68.89700195 1.07885742 66.17700195 C3.05885742 66.17700195 5.03885742 66.17700195 7.07885742 66.17700195 C7.07885742 68.81700195 7.07885742 71.45700195 7.07885742 74.17700195 C8.39885742 74.17700195 9.71885742 74.17700195 11.07885742 74.17700195 C11.07885742 71.53700195 11.07885742 68.89700195 11.07885742 66.17700195 C13.05885742 66.17700195 15.03885742 66.17700195 17.07885742 66.17700195 C17.07885742 68.81700195 17.07885742 71.45700195 17.07885742 74.17700195 C18.39885742 74.17700195 19.71885742 74.17700195 21.07885742 74.17700195 C21.07885742 71.53700195 21.07885742 68.89700195 21.07885742 66.17700195 C23.05885742 66.17700195 25.03885742 66.17700195 27.07885742 66.17700195 C27.07885742 68.81700195 27.07885742 71.45700195 27.07885742 74.17700195 C29.49582614 74.23111319 31.91157529 74.27072474 34.32885742 74.30200195 C35.35172852 74.32713867 35.35172852 74.32713867 36.39526367 74.3527832 C41.57896829 74.43062157 41.57896829 74.43062157 46.07885742 72.17700195 C46.9780236 68.70878954 47.41784398 66.25045938 46.32885742 62.80200195 C45.0816692 60.86730495 45.0816692 60.86730495 42.07885742 60.17700195 C40.70378572 60.08165277 39.32464369 60.03896129 37.94628906 60.03173828 C37.11855484 60.02535843 36.29082062 60.01897858 35.43800354 60.0124054 C34.10200356 60.01073616 34.10200356 60.01073616 32.73901367 60.0090332 C31.36126015 60.0040406 31.36126015 60.0040406 29.95567322 59.99894714 C28.01309714 59.99388467 26.07051236 59.99153861 24.12792969 59.99169922 C21.15634844 59.98951298 18.18513859 59.97135079 15.21362305 59.95239258 C13.32625453 59.94945848 11.43888424 59.94747379 9.55151367 59.9465332 C8.66287125 59.93934769 7.77422882 59.93216217 6.85865784 59.92475891 C5.61232826 59.92937386 5.61232826 59.92937386 4.34082031 59.93408203 C3.24852867 59.9319445 3.24852867 59.9319445 2.13417053 59.92976379 C-0.31185801 60.22400198 -1.87226455 60.80702161 -3.92114258 62.17700195 Z " fill="#000000" transform="translate(26.921142578125,7.822998046875)"/>
<path d="M0 0 C1.98 0 3.96 0 6 0 C6 1.98 6 3.96 6 6 C4.02 6 2.04 6 0 6 C0 4.02 0 2.04 0 0 Z " fill="#000000" transform="translate(64,72)"/>
</svg>
