<?xml version="1.0" encoding="UTF-8"?>
<svg version="1.1" xmlns="http://www.w3.org/2000/svg" width="96" height="96">
<path d="M0 0 C4.62 0 9.24 0 14 0 C14 3.3 14 6.6 14 10 C14.88283157 9.99333817 15.76566315 9.98667633 16.67524719 9.97981262 C24.988905 9.91973951 33.30249007 9.87404497 41.61631489 9.84456348 C45.89070699 9.82889728 50.16491998 9.8076418 54.43920898 9.77368164 C58.56297253 9.74112191 62.68656363 9.72315418 66.81044579 9.71536827 C68.38495792 9.70981864 69.95946045 9.69898169 71.53389931 9.68280983 C73.73675672 9.66107995 75.93889862 9.65803112 78.1418457 9.65942383 C80.02381401 9.64943108 80.02381401 9.64943108 81.94380188 9.63923645 C85 10 85 10 86.90437317 11.25053406 C88.27001986 13.43116007 88.38018378 14.76479869 88.38818359 17.33203125 C88.39764008 18.20303467 88.40709656 19.07403809 88.4168396 19.97143555 C88.41076691 20.90898682 88.40469421 21.84653809 88.3984375 22.8125 C88.40130768 23.77776611 88.40417786 24.74303223 88.40713501 25.73754883 C88.40917661 27.77848904 88.40364007 29.81944877 88.39111328 31.86035156 C88.3750612 34.9880744 88.39095895 38.11450496 88.41015625 41.2421875 C88.40817384 43.22396119 88.4043302 45.20573408 88.3984375 47.1875 C88.40451019 48.12505127 88.41058289 49.06260254 88.4168396 50.02856445 C88.40265488 51.33506958 88.40265488 51.33506958 88.38818359 52.66796875 C88.38579681 53.43391357 88.38341003 54.1998584 88.38095093 54.98901367 C87.89424692 57.55825561 87.07846405 58.44895839 85 60 C81.86328125 60.29296875 81.86328125 60.29296875 78.3125 60.1875 C76.54326172 60.14689453 76.54326172 60.14689453 74.73828125 60.10546875 C73.83464844 60.07066406 72.93101563 60.03585938 72 60 C72 63.96 72 67.92 72 72 C57.48 72 42.96 72 28 72 C28 68.04 28 64.08 28 60 C23.38 60 18.76 60 14 60 C14 63.96 14 67.92 14 72 C10 73 10 73 8 72 C8 50.22 8 28.44 8 6 C5.36 6 2.72 6 0 6 C-1.125 2.25 -1.125 2.25 0 0 Z M14 16 C14 28.54 14 41.08 14 54 C25.88378667 54.02906508 25.88378667 54.02906508 37.76757812 54.04882812 C42.61142059 54.05481596 47.45524422 54.06191465 52.29907227 54.07543945 C56.20235971 54.08627043 60.10562699 54.09227728 64.0089283 54.09487724 C65.50133647 54.09673111 66.99374348 54.100351 68.48614311 54.10573006 C70.56948139 54.11294331 72.65273531 54.11399083 74.73608398 54.11352539 C76.51812477 54.11685631 76.51812477 54.11685631 78.33616638 54.12025452 C80.92120693 54.30362595 80.92120693 54.30362595 82 53 C82.10095564 50.34543807 82.13970998 47.71744824 82.1328125 45.0625 C82.13424759 43.86959351 82.13424759 43.86959351 82.13571167 42.65258789 C82.13639343 40.9679354 82.13453943 39.28328029 82.13037109 37.59863281 C82.12502275 35.01100803 82.13031619 32.42355684 82.13671875 29.8359375 C82.13605797 28.20312461 82.1347768 26.57031184 82.1328125 24.9375 C82.13584885 23.76876343 82.13584885 23.76876343 82.13894653 22.57641602 C82.4583958 18.992058 82.4583958 18.992058 81 16 C78.91380978 15.90582227 76.82439523 15.88257122 74.73608398 15.88647461 C74.08244873 15.88632858 73.42881348 15.88618256 72.75537109 15.8860321 C70.58557872 15.88673117 68.41587121 15.89452322 66.24609375 15.90234375 C64.74536689 15.90420795 63.24463943 15.90563184 61.74391174 15.90663147 C57.78681774 15.91045648 53.82976022 15.9202866 49.87268066 15.93133545 C45.1286825 15.94334467 40.38467215 15.94795189 35.64066315 15.95378876 C28.42708336 15.96349838 21.21358369 15.98265502 14 16 Z M34 60 C34 61.98 34 63.96 34 66 C44.56 66 55.12 66 66 66 C66 64.02 66 62.04 66 60 C55.44 60 44.88 60 34 60 Z " fill="#000000" transform="translate(2,12)"/>
<path d="M0 0 C4.61581142 2.18643699 6.72864085 4.49599804 9 9 C9.82885269 14.54808604 9.7240695 19.47140883 7.3125 24.5625 C4.21064779 27.8320199 1.61649202 29.75850523 -2.90234375 30.43359375 C-9.05071801 30.44150672 -13.31314296 30.4465054 -18 26 C-21.88937897 20.55860924 -21.79042609 15.48149391 -21 9 C-16.63929544 -0.20593186 -9.3488659 -1.1401056 0 0 Z M-12.5 8.5 C-14.62153384 12.03588973 -14.791013 14.97901723 -14 19 C-12.66666667 21.66666667 -12.66666667 21.66666667 -10 23 C-5.97901723 23.791013 -3.03588973 23.62153384 0.5 21.5 C2.62153384 17.96411027 2.791013 15.02098277 2 11 C0.66666667 8.33333333 0.66666667 8.33333333 -2 7 C-6.02098277 6.208987 -8.96411027 6.37846616 -12.5 8.5 Z " fill="#000000" transform="translate(69,32)"/>
<path d="M0 0 C5.94 0 11.88 0 18 0 C19 4 19 4 18 6 C12.06 6 6.12 6 0 6 C-1 2 -1 2 0 0 Z " fill="#000000" transform="translate(22,50)"/>
<path d="M0 0 C5.94 0 11.88 0 18 0 C19 4 19 4 18 6 C12.06 6 6.12 6 0 6 C-1 2 -1 2 0 0 Z " fill="#000000" transform="translate(22,38)"/>
</svg>
