<?xml version="1.0" encoding="UTF-8"?>
<svg id="_Слой_1" data-name="Слой_1" xmlns="http://www.w3.org/2000/svg" version="1.1" viewBox="0 0 32 32">
  <!-- Generator: Adobe Illustrator 29.1.0, SVG Export Plug-In . SVG Version: 2.1.0 Build 142)  -->
  <g id="surface1">
    <path d="M14.8,9.4c-6,.4-11.2,3.3-13.2,7.5-.3.6-.6,1.6-.6,1.8,0,.5.7,2,1.3,2.9,2.2,3.4,6.5,5.8,11.6,6.4,2.1.2,5.6,0,6.2-.4.4-.3.5-.9.1-1.4-.3-.3-.5-.4-1.5-.2-1.2.2-4.1.2-5.1,0-1.1-.2-2.1-.4-3.1-.7-3.5-1.2-6.2-3.4-7.2-6-.3-.6-.3-.7.2-1.6.7-1.5,2-2.9,3.7-4,.7-.5,2.2-1.2,3.1-1.5.9-.3,2.1-.6,3.2-.8.8-.1,1.1-.1,2.8-.1s2,0,2.6.1c3.6.6,6.5,1.9,8.5,4,1,1,1.6,2,2,3.2.2.6.3.8.6.9.5.2,1,0,1.2-.4.2-.4.2-.5,0-1.2-1.8-5.4-8.7-9.1-16.1-8.6Z"/>
    <path d="M14.8,13.5c-2.1.5-3.8,2.2-4.2,4.2-.1.5-.1,1.7,0,2.3.4,2.1,2.2,3.8,4.2,4.2.6.1,1.7.1,2.2,0,2.1-.4,3.8-2.1,4.2-4.2.1-.6.1-1.7,0-2.2-.4-1.9-1.8-3.4-3.6-4.1-.6-.2-.7-.2-1.5-.2-.6,0-1.1,0-1.3,0ZM16.9,15.3c1.2.3,2.3,1.4,2.6,2.6.1.5,0,1.5,0,2-.2.7-.9,1.6-1.6,2-.5.3-1,.5-1.6.5-.7,0-1.1,0-1.7-.3-1.3-.6-2-1.8-2-3.2s1.1-3,2.7-3.5c.4-.1,1.3-.1,1.8,0Z"/>
    <path d="M28,21.3c-.2,0-.6.5-1.8,1.8-.9,1-1.7,1.8-1.7,1.8s-.4-.4-.9-.8c-.8-.8-1.1-1-1.4-1-.3,0-.7.2-.8.4-.1.2-.2.7,0,.9,0,.2,2.1,2.1,2.6,2.5.2.1.3.2.5.2s.4,0,.5,0c.2,0,4.1-4.4,4.2-4.6,0-.2,0-.7,0-.9-.1-.2-.6-.4-.8-.4,0,0-.2,0-.3,0Z"/>
  </g>
</svg>