<svg xmlns="http://www.w3.org/2000/svg" viewBox="0 0 32 32"><path d="M14.8 9.4c-6 .4-11.2 3.3-13.2 7.5-.3.6-.6 1.6-.6 1.8 0 .5.7 2 1.3 2.9C4.5 25 8.8 27.4 13.9 28c2.1.2 5.6 0 6.2-.4.4-.3.5-.9.1-1.4-.3-.3-.5-.4-1.5-.2-1.2.2-4.1.2-5.1 0-1.1-.2-2.1-.4-3.1-.7-3.5-1.2-6.2-3.4-7.2-6-.3-.6-.3-.7.2-1.6.7-1.5 2-2.9 3.7-4 .7-.5 2.2-1.2 3.1-1.5s2.1-.6 3.2-.8c.8-.1 1.1-.1 2.8-.1s2 0 2.6.1c3.6.6 6.5 1.9 8.5 4 1 1 1.6 2 2 3.2.2.6.3.8.6.9.5.2 1 0 1.2-.4s.2-.5 0-1.2c-1.8-5.4-8.7-9.1-16.1-8.6Z"/><path d="M14.8 13.5c-2.1.5-3.8 2.2-4.2 4.2-.1.5-.1 1.7 0 2.3.4 2.1 2.2 3.8 4.2 4.2.6.1 1.7.1 2.2 0 2.1-.4 3.8-2.1 4.2-4.2.1-.6.1-1.7 0-2.2-.4-1.9-1.8-3.4-3.6-4.1-.6-.2-.7-.2-1.5-.2zm2.1 1.8c1.2.3 2.3 1.4 2.6 2.6.1.5 0 1.5 0 2-.2.7-.9 1.6-1.6 2-.5.3-1 .5-1.6.5-.7 0-1.1 0-1.7-.3-1.3-.6-2-1.8-2-3.2s1.1-3 2.7-3.5c.4-.1 1.3-.1 1.8 0Zm11.1 6c-.2 0-.6.5-1.8 1.8-.9 1-1.7 1.8-1.7 1.8s-.4-.4-.9-.8c-.8-.8-1.1-1-1.4-1s-.7.2-.8.4-.2.7 0 .9c0 .2 2.1 2.1 2.6 2.5.2.1.3.2.5.2h.5c.2 0 4.1-4.4 4.2-4.6v-.9c-.1-.2-.6-.4-.8-.4h-.3Z"/></svg>