<svg xmlns="http://www.w3.org/2000/svg" width="32" height="32" viewBox="0 0 32 32"><path d="M5.824 2.398c.64 0 1.281-.03 1.918-.062.418 0 .832 0 1.25-.031.543 0 .543 0 1.121-.032 1.215.286 1.344.48 2.11 1.375.93 1.024 1.539 1.282 2.914 1.375h3.008c1.12 0 2.207 0 3.328-.03h5.375c1.726 0 3.039.03 4.511 1.054.703 1.058.739 1.441.739 2.687v5.891c0 1.277.03 2.527.03 3.809v2.43c0 .382 0 .769.032 1.152 0 2.625 0 2.625-.96 3.937-1.313.863-2.24.926-3.774.895h-1.859c-.094-.543-.223-1.055-.32-1.602.257 0 .546-.031.8-.031l1.058-.063c.352-.03.704-.03 1.055-.062.992-.067.992-.067 1.887-.77.16-.734.16-.734.129-1.601V8.352c-.031-.223-.098-.48-.13-.704-1.054-.703-1.312-.703-2.526-.703H16.543c-.512 0-.512 0-1.023.032-2.399-.032-2.399-.032-3.391-.801a34 34 0 0 1-1.09-1.215c-.48-.61-.48-.61-1.473-.77-.476 0-.476 0-.957.032H7.551c-.352 0-.703.035-1.086.066H5.344c-1.887-.066-1.887-.066-3.422.832-.098.832-.098.832-.098 1.824v16.543c0 .29.063.543.098.832 1.086.735 1.664.77 2.941.832.352.032.703.032 1.059.063.254 0 .543.031.797.031-.094.547-.223 1.059-.32 1.602-4.16.222-4.16.222-5.758-.926-.739-1.121-.739-1.602-.739-2.914v-6.75c0-1.219 0-2.434-.03-3.649V5.473c.19-1.184.608-1.73 1.44-2.563 1.313-.703 3.008-.476 4.512-.512m0 0"/><path d="M15.55 25.441c-.991-.48-1.628-1.058-2.429-1.793-.258-.257-.512-.48-.77-.738-.542-.765-.542-.765-.48-1.664.098-.223.16-.476.258-.703 1.344.191 1.473.512 2.559 1.602.097-2.754.222-5.504.32-8.32.418-.223.832-.419 1.281-.641.863.863.734 1.312.766 2.527 0 .387.035.738.035 1.121s.031.77.031 1.184c0 .382.031.8.031 1.183l.094 2.914c.258-.258.516-.547.77-.8.418-.383.418-.383.832-.801.738.062.738.062 1.28.32-.16 1.473-.671 2.113-1.73 3.137l-.765.765c-1.153.993-1.153.993-2.082.707m0 0"/><path d="m9.281 24 1.598.32c.098 1.055.226 2.114.32 3.2h9.602c.094-1.055.222-2.114.32-3.2.543-.097 1.055-.222 1.598-.32.035.734.035 1.441.066 2.176.031.61.031.61.031 1.215-.097 1.09-.097 1.09-.418 1.632-.992.672-2.046.543-3.199.543h-7.101c-1.664-.03-1.664-.03-2.465-.543-.543-.894-.418-1.793-.387-2.847 0-.414.035-.801.035-1.246-.035-.29 0-.61 0-.93m0 0"/></svg>