<svg xmlns="http://www.w3.org/2000/svg" width="32" height="32" viewBox="0 0 32 32"><path d="M27.52 20.8h1.28c.2 4.052.2 4.052-.538 5.641-1.563 1.602-2.563 2.383-4.793 2.461-.36.012-.719.028-1.09.04-.375.011-.75.027-1.14.038-.38.012-.755.028-1.145.043q-1.406.05-2.813.098l1.278 1.918c-.422.316-.844.633-1.278.961-1.164-1.16-2.324-2.324-3.52-3.52.614-1.23 1.15-1.859 2.118-2.8.262-.254.523-.512.793-.774.2-.195.402-.386.61-.586.421.422.843.844 1.277 1.282l-1.278 1.597q1.436.04 2.88.063l.812.023c1.875.02 3.261-.195 4.949-1.047.933-1.113 1.137-2.199 1.34-3.617.074-.516.074-.516.152-1.039zm-24-7.038c1.23.613 1.859 1.148 2.8 2.117.254.262.512.523.774.793.195.2.386.402.586.61-.422.421-.844.843-1.282 1.277L4.801 17.28a234 234 0 0 0-.063 2.88l-.023.812c-.02 1.875.195 3.261 1.047 4.949 1.113.933 2.199 1.137 3.617 1.34.516.074.516.074 1.039.152l.781.106v1.28c-4.05.2-4.05.2-5.64-.538-1.602-1.563-2.383-2.563-2.461-4.793l-.04-1.09c-.011-.375-.027-.75-.038-1.14-.02-.567-.02-.567-.043-1.145q-.05-1.406-.098-2.813L.96 18.56A267 267 0 0 0 0 17.28c1.16-1.164 2.324-2.324 3.52-3.52M20.8 3.2c4.052-.2 4.052-.2 5.641.538 1.602 1.563 2.383 2.563 2.461 4.793.012.36.028.719.04 1.09.011.375.027.75.038 1.14.012.38.028.755.043 1.145q.05 1.406.098 2.813l1.918-1.278c.316.422.633.844.961 1.278-1.16 1.164-2.324 2.324-3.52 3.52-1.23-.614-1.859-1.15-2.8-2.118-.254-.262-.512-.523-.774-.793-.195-.2-.386-.402-.586-.61.422-.421.844-.843 1.282-1.277l1.597 1.278q.04-1.436.063-2.88l.023-.812c.02-1.875-.195-3.261-1.047-4.949-1.113-.933-2.199-1.137-3.617-1.34-.344-.05-.683-.101-1.039-.152l-.781-.106zM14.398 0c1.34 1.121 2.625 2.266 3.84 3.52-.488 1.18-1.207 1.918-2.117 2.8-.262.254-.523.512-.793.774-.2.195-.402.386-.61.586-.421-.422-.843-.844-1.277-1.282l1.278-1.597q-1.46-.028-2.918-.04c-.274-.007-.547-.011-.832-.019C9.102 4.73 7.53 4.81 6 6c-1.2 1.543-1.324 3.316-1.52 5.2H3.2C3 7.147 3 7.147 3.737 5.558 5.3 3.956 6.3 3.175 8.53 3.097c.36-.012.719-.028 1.09-.04.375-.011.75-.027 1.14-.038.567-.02.567-.02 1.145-.043q1.406-.05 2.813-.098L13.44.96c.317-.316.633-.633.957-.961m0 0"/></svg>