<svg xmlns="http://www.w3.org/2000/svg" width="31" height="31" viewBox="0 0 31 31"><path d="m20.95 5.691.116.063c.883.492 1.637 1.121 2.364 1.816q.063.06.133.117c.902.864 1.585 1.965 2.109 3.09l.098.207c1.218 2.696 1.226 5.832.19 8.582-.991 2.532-2.862 4.586-5.253 5.864q-.093.053-.191.105c-2.457 1.32-5.547 1.504-8.2.727-1.82-.559-3.375-1.524-4.746-2.832l-.133-.117c-1.753-1.672-2.761-4.114-3.078-6.481l-.023-.168c-.266-2.27.262-4.621 1.355-6.613q.031-.06.063-.117C6.246 9.05 6.875 8.297 7.57 7.57q.06-.064.117-.133c.864-.902 1.965-1.585 3.09-2.109.102-.047.102-.047.207-.098 3.168-1.433 6.938-1.203 9.965.461M8.171 7.93c-.043.043-.09.082-.133.125-1.953 1.86-3 4.61-3.074 7.265-.024 2.895 1.11 5.598 3.125 7.668 1.976 1.965 4.7 3.043 7.476 3.051 2.832-.035 5.52-1.215 7.512-3.219 1.934-2.011 2.977-4.722 2.957-7.5-.062-2.832-1.277-5.527-3.312-7.492-1.352-1.258-2.965-2.09-4.739-2.562-.074-.016-.144-.036-.218-.055-3.465-.84-7.012.375-9.594 2.719m0 0"/><path d="M18.828 6.418c.063.059.063.059.125.121-.023.129-.023.129-.062.242a6 6 0 0 1-1.102-.207c-2.422-.656-4.918-.207-7.082 1.016-.43.258-.82.562-1.2.887l-.097.082a8.6 8.6 0 0 0-1.84 2.218c-.023.04-.047.075-.07.114-1.184 2-1.531 4.507-.984 6.761.37 1.422 1.004 2.723 1.96 3.84q.041.052.083.098a8.6 8.6 0 0 0 2.218 1.84c.055.035.055.035.114.07 2 1.184 4.507 1.531 6.761.984 2.387-.62 4.465-2.074 5.743-4.199 1.257-2.144 1.68-4.672 1.05-7.094-.468-1.68-1.34-3.218-2.61-4.425q-.08-.082-.16-.168c.009-.176.009-.176.06-.301.495.043.835.562 1.14.922 1.727 2.11 2.465 4.656 2.238 7.367q-.057.492-.168.973c-.011.058-.011.058-.027.12a9.7 9.7 0 0 1-4.254 6c-2.191 1.356-4.824 1.825-7.348 1.25-2.527-.628-4.703-2.163-6.074-4.386-1.297-2.176-1.758-4.836-1.148-7.316.18-.704.43-1.372.75-2.024q.045-.104.097-.207c1.13-2.2 3.153-3.89 5.493-4.676 2.004-.64 4.421-.726 6.394.098m0 0"/><path d="M20.223 10.535c.16.082.16.082.242.242.05.477-.047.942-.14 1.407l-.048.234c-.039.215-.082.426-.12.64q-.07.335-.134.669-.106.565-.218 1.132l-.305 1.579c-.082.414-.16.828-.242 1.238l-.024.133-.304 1.546-.106.563a9 9 0 0 0-.062.312l-.024.137c-.054.274-.136.445-.332.64a1.18 1.18 0 0 1-.758.114c-.289-.098-.5-.308-.722-.512q-.253-.22-.512-.441c-.219-.184-.434-.375-.648-.563q-.106-.095-.211-.183c-.051-.043-.051-.043-.098-.09-.191-.164-.242-.2-.504-.2a4 4 0 0 0-.336.298c-.062.058-.129.12-.191.18-.031.03-.067.062-.098.093q-.234.222-.469.438-.081.071-.164.148c-.172.148-.23.172-.457.2-.222-.024-.222-.024-.343-.15a2.8 2.8 0 0 1-.301-.644q-.024-.066-.047-.136l-.152-.434c-.036-.098-.07-.2-.106-.297q-.106-.291-.207-.582c-.113-.324-.23-.644-.352-.969q-.021-.066-.05-.136c-.078-.22-.078-.22-.176-.43a13 13 0 0 0-.524-.148 10 10 0 0 1-.324-.086 25 25 0 0 1-.515-.133c-.164-.04-.332-.086-.496-.13q-.076-.015-.153-.038a1.53 1.53 0 0 1-.773-.434c-.094-.191-.082-.336-.063-.547.219-.324.434-.449.797-.586q.072-.03.149-.058l.496-.2.351-.14.766-.305q.633-.251 1.265-.508c.106-.043.106-.043.22-.085q.218-.094.437-.18l1.101-.445q1.03-.412 2.055-.829c.793-.32 1.586-.644 2.383-.96.039-.016.074-.032.117-.047l.316-.13.18-.07c.32-.125.594-.156.934-.117m-.801.473-.188.074a5 5 0 0 0-.207.086 5 5 0 0 0-.222.09l-.625.25-.582.234c-.649.262-1.293.524-1.942.79l-1.14.46q-.207.082-.407.168-.755.3-1.504.606l-1.886.765-.13.051-.741.305-.176.07q-.075.033-.156.066-.064.025-.133.055a2 2 0 0 0-.36.242c.004.114.004.114.059.242.664.465 1.797.762 2.605.786.497-.09.852-.395 1.231-.715.273-.223.574-.399.875-.578q.181-.116.363-.23.68-.422 1.36-.837.78-.48 1.558-.972c.957-.602.957-.602 1.238-.606.157.063.157.063.243.164.047.2.03.309-.028.504-.125.152-.27.281-.422.41l-.246.223-.125.11q-.228.21-.445.433a7 7 0 0 1-.512.48 10 10 0 0 0-.613.586c-.191.196-.387.39-.602.57-.261.223-.5.47-.742.712-.218.222-.441.43-.683.625a1 1 0 0 0-.211.332q.796.691 1.597 1.37l.395.333q.095.082.195.164l.504.43c.586.574.586.574 1.305.91.164-.012.164-.012.305-.118.18-.457.265-.93.355-1.406l.05-.258q.07-.35.134-.695.06-.293.113-.582c.09-.457.176-.918.266-1.375q.134-.704.273-1.414l.234-1.215.141-.726c.043-.227.09-.454.133-.684l.047-.25.066-.34.035-.191c.031-.207.031-.407.028-.614a1.44 1.44 0 0 0-.68.11m-1.625 1.949q-.093.06-.192.117-.1.064-.207.13c-.07.042-.14.089-.214.132l-1.559.973c-.578.363-1.16.718-1.742 1.078l-1.254.773q-.35.219-.7.43.17.596.38 1.176c.02.05.035.105.054.156.04.105.078.215.117.32.06.164.114.328.172.492q.06.159.114.317c.02.047.035.097.054.148.09.262.09.262.258.48a22 22 0 0 1 .133-.906c.016-.101.027-.207.043-.308.148-1.067.148-1.067.613-1.45.067-.074.137-.144.207-.218q.21-.207.434-.395c.23-.199.445-.414.66-.629.242-.246.488-.48.75-.703.172-.152.328-.316.488-.476.196-.2.39-.395.606-.574.27-.227.511-.48.761-.735a2.8 2.8 0 0 1 .454-.387v-.125c-.18 0-.278.09-.43.184m-4.055 4.965c-.117.383-.187.77-.25 1.164l-.035.2-.035.19c-.008.06-.02.118-.027.176-.024.157-.024.157.046.328.028-.027.055-.05.082-.078.13-.12.254-.238.38-.355q.062-.062.132-.125c.238-.227.48-.445.738-.652a8 8 0 0 0-.652-.594l-.176-.145c-.117-.117-.117-.117-.203-.11m5.813-11.077c.355.015.617.183.91.36v.304c-.246.082-.324.012-.55-.098l-.2-.094c-.16-.113-.16-.113-.215-.273l-.004-.14zm1.273.726c.266.028.406.125.606.301l-.059.242c-.102.051-.102.051-.242.059a2.4 2.4 0 0 1-.367-.3q.034-.151.062-.302m0 0"/></svg>