<svg xmlns="http://www.w3.org/2000/svg" width="32" height="32" viewBox="0 0 32 32"><path d="M16.902 3.457c.254.07.504.137.766.211.89 3.828 1.156 7.496 1.129 11.422q-.005 1.363.008 2.726c.004 3.614-.317 6.993-1.137 10.516-1.574.39-1.574.39-2.43-.11a94 94 0 0 0-1.652-1.422c-.3-.265-.606-.527-.918-.8a345 345 0 0 0-1.938-1.582c-.293-.238-.582-.48-.882-.727-.282-.226-.559-.457-.848-.691l-.773-.746c-1.176-.774-2.22-.762-3.582-.754-2.41.012-2.41.012-3.38-.727-.73-.945-.769-1.425-.777-2.605 0-.352-.004-.703-.004-1.063.004-.367.012-.73.016-1.105-.004-.363-.012-.73-.016-1.105.004-.524.004-.524.004-1.063.004-.32.004-.637.008-.969.223-1.12.598-1.515 1.504-2.195.703-.152.703-.152 1.441-.133l.73.012.911.035L8 10.668v8H6.668V12l-1.606.105-.902.06c-.816.12-.816.12-1.426.515-.64 1.043-.546 2.136-.527 3.32-.004.363-.004.363-.012.73.008.97.035 1.747.504 2.602.965.508 1.824.371 2.906.336 3.024.047 4.704 1.55 6.86 3.52.8.718 1.648 1.378 2.492 2.042l1.375 1.102c.398-3.14.387-6.277.379-9.437-.004-.895 0-1.786 0-2.68.004-2.863-.02-5.7-.379-8.547q-1.113.872-2.227 1.75l-.632.496c-.207.16-.41.32-.621.488l-.614.477c-.504.398-.992.82-1.472 1.242-.766.547-.766.547-2.098.547.035-.883.168-1.484.758-2.152A44 44 0 0 1 11.207 7l.613-.512c.606-.508 1.227-1 1.848-1.488l.613-.508c1.512-1.187 1.512-1.187 2.621-1.035m10.43 1.875c.777.05.777.05 1.668.336.504.812.504.812.895 1.852l.402 1.023c.828 2.516 1.168 4.691 1.16 7.332v.977c-.062 3.57-.781 6.804-2.789 9.816h-1.336c.156-1.785.645-3.219 1.355-4.86 1.586-4.109.993-9.503-.687-13.476-.125-.238-.246-.477-.375-.723-.375-.785-.34-1.418-.293-2.277m0 0"/><path d="M24.332 7.668c.621.066.621.066 1.336.332.41.715.41.715.727 1.605q.163.434.328.88c1.316 4.027 1.12 9.035-.723 12.847-.219.332-.441.66-.668 1L24 24c.148-1.172.402-2.168.855-3.25 1.192-3.488.817-7.617-.597-10.957-.285-.875-.238-1.273.074-2.125M21 10.332h1.332c.844 1.965 1.16 3.54 1.125 5.668l.012.762c-.008 1.84-.41 3.218-1.137 4.906H21l.168-1.168c.164-1.512.215-3.02.227-4.543.003-.223.011-.445.015-.672 0-1.148-.101-2.152-.433-3.242C20.668 11 20.668 11 21 10.332m0 0"/></svg>