<?xml version="1.0" encoding="UTF-8"?>
<svg xmlns="http://www.w3.org/2000/svg" xmlns:xlink="http://www.w3.org/1999/xlink" width="64px" height="64px" viewBox="0 0 64 64" version="1.1">
<g id="surface1">
<path style=" stroke:none;fill-rule:nonzero;fill:rgb(0%,0%,0%);fill-opacity:1;" d="M 42.066406 11.234375 C 48.0625 15.054688 51.527344 19.539062 53.761719 26.238281 C 53.839844 28.035156 53.878906 29.804688 53.878906 31.601562 C 53.886719 32.082031 53.894531 32.566406 53.902344 33.066406 C 53.910156 35.777344 53.726562 37.84375 52.480469 40.320312 C 51.847656 40.320312 51.210938 40.320312 50.558594 40.320312 C 50.980469 37.574219 51.40625 34.828125 51.839844 32 C 50.363281 32 48.882812 32 47.359375 32 C 47.359375 31.789062 47.359375 31.578125 47.359375 31.359375 C 48.839844 31.359375 50.316406 31.359375 51.839844 31.359375 C 51.210938 27.621094 50.484375 24.476562 48.640625 21.121094 C 48.640625 20.699219 48.640625 20.273438 48.640625 19.839844 C 47.371094 19.839844 46.105469 19.839844 44.800781 19.839844 C 45.117188 20.578125 45.433594 21.320312 45.761719 22.078125 C 47.28125 26.53125 46.875 31.199219 46.71875 35.839844 C 46.296875 35.839844 45.875 35.839844 45.441406 35.839844 C 45.441406 34.574219 45.441406 33.304688 45.441406 32 C 44.59375 31.789062 43.75 31.578125 42.878906 31.359375 C 43.726562 31.359375 44.570312 31.359375 45.441406 31.359375 C 44.585938 25.496094 44.585938 25.496094 42.878906 19.839844 C 40.769531 19.839844 38.65625 19.839844 36.480469 19.839844 C 36.796875 20.472656 36.796875 20.472656 37.121094 21.121094 C 37.175781 22.707031 37.195312 24.277344 37.183594 25.863281 C 37.179688 26.332031 37.179688 26.800781 37.179688 27.28125 C 37.175781 28.773438 37.167969 30.265625 37.160156 31.761719 C 37.15625 32.773438 37.152344 33.785156 37.152344 34.796875 C 37.144531 37.277344 37.132812 39.757812 37.121094 42.238281 C 36.488281 42.453125 35.851562 42.664062 35.199219 42.878906 C 35.410156 39.289062 35.621094 35.699219 35.839844 32 C 33.09375 32 30.347656 32 27.519531 32 C 27.730469 35.800781 27.941406 39.601562 28.160156 43.519531 C 32.59375 43.519531 37.03125 43.519531 41.601562 43.519531 C 41.601562 43.730469 41.601562 43.941406 41.601562 44.160156 C 37.164062 44.160156 32.730469 44.160156 28.160156 44.160156 C 28.542969 45.308594 28.925781 46.457031 29.320312 47.640625 C 29.535156 48.285156 29.75 48.933594 29.972656 49.597656 C 30.34375 50.390625 30.34375 50.390625 30.71875 51.199219 C 31.355469 51.410156 31.988281 51.621094 32.640625 51.839844 C 33.0625 50.574219 33.484375 49.304688 33.921875 48 C 34.34375 48 34.765625 48 35.199219 48 C 35.199219 49.054688 35.199219 50.113281 35.199219 51.199219 C 35.554688 50.921875 35.910156 50.644531 36.273438 50.359375 C 36.96875 49.824219 36.96875 49.824219 37.679688 49.28125 C 38.371094 48.746094 38.371094 48.746094 39.074219 48.199219 C 40.320312 47.359375 40.320312 47.359375 41.601562 47.359375 C 41.601562 51.109375 41.601562 51.109375 40.960938 52.480469 C 35.722656 54.734375 28.171875 54.722656 22.761719 52.839844 C 16.707031 49.894531 12.652344 45.253906 10.238281 39.039062 C 8.5 33.820312 8.820312 26.253906 11.234375 21.296875 C 17.71875 11.121094 30.578125 5.644531 42.066406 11.234375 Z M 26.878906 11.519531 C 26.667969 11.941406 26.457031 12.363281 26.238281 12.800781 C 25.59375 12.851562 24.945312 12.90625 24.28125 12.960938 C 21.152344 13.308594 18.847656 15.117188 16.640625 17.28125 C 16.429688 17.914062 16.21875 18.546875 16 19.199219 C 17.265625 19.199219 18.535156 19.199219 19.839844 19.199219 C 20.050781 18.144531 20.261719 17.089844 20.480469 16 C 20.902344 16 21.324219 16 21.761719 16 C 21.546875 17.054688 21.335938 18.113281 21.121094 19.199219 C 23.019531 19.199219 24.921875 19.199219 26.878906 19.199219 C 27.511719 16.664062 28.148438 14.132812 28.800781 11.519531 C 28.167969 11.519531 27.53125 11.519531 26.878906 11.519531 Z M 30.71875 11.519531 C 30.289062 12.558594 29.863281 13.597656 29.441406 14.640625 C 29.203125 15.21875 28.964844 15.796875 28.71875 16.394531 C 28.085938 17.847656 28.085938 17.847656 28.160156 19.199219 C 30.484375 19.199219 32.804688 19.199219 35.199219 19.199219 C 34.3125 15.214844 34.3125 15.214844 32.640625 11.519531 C 32.007812 11.519531 31.371094 11.519531 30.71875 11.519531 Z M 34.558594 11.519531 C 34.757812 12.441406 34.960938 13.359375 35.160156 14.28125 C 35.269531 14.792969 35.382812 15.304688 35.496094 15.832031 C 35.839844 17.375 35.839844 17.375 36.480469 19.199219 C 38.378906 19.199219 40.28125 19.199219 42.238281 19.199219 C 41.359375 15.875 39.203125 14.078125 36.480469 12.160156 C 35.847656 11.949219 35.210938 11.738281 34.558594 11.519531 Z M 40.320312 13.441406 C 40.878906 14.410156 41.457031 15.367188 42.039062 16.320312 C 42.359375 16.855469 42.679688 17.390625 43.007812 17.941406 C 44.074219 19.386719 44.074219 19.386719 45.890625 19.378906 C 46.375 19.320312 46.859375 19.261719 47.359375 19.199219 C 46.410156 16.351562 44.105469 14.882812 41.601562 13.441406 C 41.175781 13.441406 40.753906 13.441406 40.320312 13.441406 Z M 14.71875 19.839844 C 14.304688 20.652344 13.890625 21.464844 13.480469 22.28125 C 13.25 22.734375 13.019531 23.1875 12.78125 23.652344 C 11.515625 26.308594 11.464844 28.445312 11.519531 31.359375 C 13.210938 31.359375 14.898438 31.359375 16.640625 31.359375 C 16.726562 30.796875 16.808594 30.234375 16.898438 29.652344 C 17.011719 28.910156 17.125 28.164062 17.238281 27.398438 C 17.351562 26.664062 17.460938 25.929688 17.578125 25.171875 C 17.863281 23.382812 18.1875 21.613281 18.558594 19.839844 C 17.292969 19.839844 16.027344 19.839844 14.71875 19.839844 Z M 19.839844 19.839844 C 18.285156 23.925781 17.710938 26.992188 17.921875 31.359375 C 20.664062 31.359375 23.410156 31.359375 26.238281 31.359375 C 26.558594 25.65625 26.558594 25.65625 26.878906 19.839844 C 24.558594 19.839844 22.234375 19.839844 19.839844 19.839844 Z M 28.160156 19.839844 C 27.386719 22.15625 27.449219 24.273438 27.480469 26.679688 C 27.484375 27.128906 27.484375 27.578125 27.488281 28.042969 C 27.496094 29.148438 27.507812 30.253906 27.519531 31.359375 C 30.265625 31.359375 33.011719 31.359375 35.839844 31.359375 C 35.855469 29.800781 35.871094 28.238281 35.878906 26.679688 C 35.886719 26.238281 35.890625 25.796875 35.894531 25.339844 C 35.90625 23.328125 35.839844 21.765625 35.199219 19.839844 C 32.875 19.839844 30.554688 19.839844 28.160156 19.839844 Z M 11.519531 32 C 11.179688 36.011719 12.277344 38.6875 14.078125 42.238281 C 14.292969 42.664062 14.503906 43.085938 14.71875 43.519531 C 15.988281 43.519531 17.253906 43.519531 18.558594 43.519531 C 18.476562 43.171875 18.390625 42.820312 18.300781 42.460938 C 17.484375 38.976562 16.980469 35.5625 16.640625 32 C 14.949219 32 13.261719 32 11.519531 32 Z M 17.921875 32 C 17.703125 36.011719 18.273438 39.167969 19.839844 42.878906 C 20.5 43.6875 20.5 43.6875 21.941406 43.582031 C 24.410156 43.550781 24.410156 43.550781 26.878906 43.519531 C 26.667969 39.71875 26.457031 35.917969 26.238281 32 C 23.496094 32 20.75 32 17.921875 32 Z M 16 44.160156 C 16.96875 47.070312 19.308594 48.320312 21.761719 49.921875 C 22.183594 49.707031 22.605469 49.496094 23.039062 49.28125 C 22.445312 48.546875 22.445312 48.546875 21.839844 47.800781 C 20.480469 46.078125 20.480469 46.078125 19.199219 44.160156 C 17.546875 44 17.546875 44 16 44.160156 Z M 21.121094 44.160156 C 22 47.484375 24.15625 49.28125 26.878906 51.199219 C 27.511719 51.410156 28.148438 51.621094 28.800781 51.839844 C 28.167969 49.304688 27.53125 46.769531 26.878906 44.160156 C 24.980469 44.160156 23.078125 44.160156 21.121094 44.160156 Z M 21.121094 44.160156 "/>
<path style=" stroke:none;fill-rule:nonzero;fill:rgb(0%,0%,0%);fill-opacity:1;" d="M 42.878906 35.199219 C 45.730469 35.914062 47.042969 37.117188 49.078125 39.078125 C 49.757812 39.722656 50.4375 40.363281 51.117188 41.003906 C 51.453125 41.324219 51.789062 41.640625 52.132812 41.96875 C 53.984375 43.679688 55.941406 45.277344 57.890625 46.878906 C 58.878906 48 58.878906 48 58.878906 50.558594 C 56.980469 50.558594 55.078125 50.558594 53.121094 50.558594 C 53.4375 51.339844 53.753906 52.117188 54.078125 52.921875 C 54.855469 54.988281 55.3125 56.648438 55.039062 58.878906 C 54.398438 59.519531 54.398438 59.519531 52.441406 59.558594 C 51.820312 59.546875 51.199219 59.535156 50.558594 59.519531 C 49.714844 57.621094 48.871094 55.71875 48 53.761719 C 47.511719 54.183594 47.023438 54.605469 46.519531 55.039062 C 44.800781 56.320312 44.800781 56.320312 42.878906 56.320312 C 42.878906 49.351562 42.878906 42.378906 42.878906 35.199219 Z M 44.160156 38.398438 C 44.160156 43.46875 44.160156 48.539062 44.160156 53.761719 C 45.214844 52.914062 46.273438 52.070312 47.359375 51.199219 C 47.992188 51.199219 48.628906 51.199219 49.28125 51.199219 C 50.335938 53.3125 51.390625 55.425781 52.480469 57.601562 C 53.316406 56.289062 53.316406 56.289062 52.621094 54.65625 C 52.378906 54.015625 52.132812 53.378906 51.878906 52.71875 C 51.636719 52.078125 51.394531 51.4375 51.140625 50.773438 C 50.855469 50.035156 50.855469 50.035156 50.558594 49.28125 C 53.09375 48.964844 53.09375 48.964844 55.679688 48.640625 C 55 47.964844 55 47.964844 54.308594 47.273438 C 53.085938 46.050781 51.875 44.824219 50.671875 43.585938 C 50.0625 42.964844 49.449219 42.34375 48.839844 41.71875 C 48.53125 41.398438 48.21875 41.078125 47.898438 40.746094 C 47.101562 39.941406 46.273438 39.167969 45.441406 38.398438 C 45.019531 38.398438 44.59375 38.398438 44.160156 38.398438 Z M 44.160156 38.398438 "/>
<path style=" stroke:none;fill-rule:nonzero;fill:rgb(0%,0%,0%);fill-opacity:1;" d="M 23.039062 13.441406 C 23.460938 13.441406 23.886719 13.441406 24.320312 13.441406 C 23.898438 14.285156 23.476562 15.128906 23.039062 16 C 22.617188 16 22.195312 16 21.761719 16 C 22.183594 15.15625 22.605469 14.308594 23.039062 13.441406 Z M 23.039062 13.441406 "/>
<path style=" stroke:none;fill-rule:nonzero;fill:rgb(0%,0%,0%);fill-opacity:1;" d="M 35.199219 44.800781 C 35.621094 44.800781 36.042969 44.800781 36.480469 44.800781 C 36.269531 45.433594 36.058594 46.066406 35.839844 46.71875 C 35.417969 46.71875 34.996094 46.71875 34.558594 46.71875 C 34.769531 46.085938 34.980469 45.453125 35.199219 44.800781 Z M 35.199219 44.800781 "/>
<path style=" stroke:none;fill-rule:nonzero;fill:rgb(0%,0%,0%);fill-opacity:1;" d="M 37.761719 31.359375 C 39.238281 31.359375 40.71875 31.359375 42.238281 31.359375 C 42.238281 31.570312 42.238281 31.78125 42.238281 32 C 40.761719 32 39.28125 32 37.761719 32 C 37.761719 31.789062 37.761719 31.578125 37.761719 31.359375 Z M 37.761719 31.359375 "/>
</g>
</svg>
