<svg xmlns="http://www.w3.org/2000/svg" width="80" height="80" viewBox="0 0 80 80"><path d="M10.879 7.113c1.281 0 2.57 0 3.848.016h2.043c2.16 0 4.32.016 6.476.023 1.465 0 2.922 0 4.387.008q5.383.014 10.765.04c1.266 2.519.93 5.234.938 8q.001.955.008 1.921v4.016c0 2.054.015 4.11.031 6.16v3.902c0 .617.008 1.235.016 1.871-.008 2.903-.61 4.946-1.797 6.13-2.16.152-4.242.206-6.403.183h-1.918c-1.335 0-2.68-.008-4.015-.016-2.059-.015-4.113-.015-6.16-.015-1.305 0-2.602-.008-3.907-.016h-1.87q-4.342-.04-6.13-.93c-.015-4.308-.03-8.629-.039-12.941 0-1.473-.007-2.938-.015-4.41-.008-2.102-.016-4.215-.016-6.32 0-.665-.008-1.32-.016-2 0-1.575.04-3.15.086-4.727q.803-.797 3.68-.887Zm-.48 3.285V36H36V10.398ZM46.93 40.602c.613 0 1.23.007 1.87.015h1.919c1.336 0 2.68.008 4.015.016 2.059.015 4.114.015 6.16.015 1.305 0 2.602.008 3.907.016h1.87q4.342.04 6.13.93c.015 4.308.031 8.629.039 12.941 0 1.473.008 2.938.015 4.41.008 2.102.016 4.215.016 6.32 0 .665.008 1.32.016 2 0 1.575-.04 3.15-.086 4.727-1.64 1.64-5.047.93-7.297.938q-.976-.002-1.977.007h-4.144c-2.117 0-4.238.016-6.36.032H49c-.64 0-1.273.008-1.93.015q-4.488-.015-6.27-1.8a80 80 0 0 1-.214-6.399v-1.922c0-1.336 0-2.68.008-4.015.008-2.055 0-4.114-.008-6.16v-3.903c0-.617 0-1.234-.012-1.875.051-5.36.992-6.308 6.356-6.336ZM44 44v25.602h25.602V44Zm-28.8-3.336c.632 0 1.265 0 1.921-.008h4.016c2.054 0 4.11-.015 6.16-.031h3.902a294 294 0 0 1 1.871-.016c2.903.008 4.946.61 6.13 1.797.16 2.16.226 4.242.214 6.403v1.918c0 1.336 0 2.68-.008 4.015-.008 2.059 0 4.113.008 6.16v3.907c0 .617 0 1.23.012 1.87q-.043 4.342-1.824 6.13a83 83 0 0 1-6.602.183h-1.977c-1.382 0-2.757-.008-4.144-.015-2.117-.016-4.238-.016-6.36-.016-1.335 0-2.68-.008-4.015-.016h-1.938q-4.469-.04-5.359-.93c-.07-2.245-.094-4.48-.078-6.726v-2.043c0-2.156.016-4.316.023-6.476 0-1.465 0-2.922.008-4.387Q7.174 47 7.2 41.617c2.519-1.265 5.234-.93 8-.937ZM10.397 44v25.602H36V44Zm0 0" style="stroke:none;fill-rule:nonzero;fill:#000;fill-opacity:1"/><path d="M59.2 45.602c.792.261 1.585.527 2.402.796V51.2h-3.204q-.045-2.397 0-4.8Zm-12.802 0h2.403v5.597q-.793.392-1.602.801c-.527-.266-1.054-.527-1.597-.8q-.054-2.398 0-4.802Zm-15.198 0 3.198.796V51.2c-.789.266-1.582.528-2.398.801q-.801-.802-.848-3.648zm-12 0c.792.261 1.585.527 2.402.796V51.2h-3.204q-.045-2.397 0-4.8Zm46.402 0c.789.261 1.582.527 2.398.796V51.2c-.793.266-1.586.528-2.398.801-.536-.535-.832-1.602-.899-3.2.067-1.6.363-2.667.899-3.198M52.8 45.602c.794.261 1.583.527 2.4.796V51.2q-.794.392-1.598.801c-.532-.266-1.059-.527-1.602-.8q-.046-2.398 0-4.802Zm-27.198 0c.789.261 1.582.527 2.398.796V51.2c-.793.266-1.586.528-2.398.801-.536-.535-.832-1.602-.899-3.2.067-1.6.363-2.667.899-3.198M12.8 45.602c.794.261 1.583.527 2.4.796V51.2q-.794.392-1.598.801c-.532-.266-1.059-.527-1.602-.8q-.047-2.398 0-4.802Zm0 0" style="stroke:none;fill-rule:nonzero;fill:#000;fill-opacity:1"/><path d="M69.419 9.678c.62.41 1.24.82 1.87 1.22.24.162.479.313.723.474a67 67 0 0 0 2.617 1.636c.723.42 1.43.84 2.139 1.26.36.224.722.434 1.074.644 1.89 1.08 3.32 1.748 4.14 3.828-.141 1.631-.532 2.49-1.391 3.848-.362.532-.723 1.074-1.07 1.601q-.255.404-.512.791c-.479.718-.85 1.382-1.167 2.188q-.213.884.337 1.543c.239.23.483.45.713.669.268.259.527.522.8.771.586.557 1.177 1.119 1.758 1.68.938.908 1.88 1.807 2.832 2.71.938.898 1.89 1.797 2.818 2.7.302.293.595.581.888.86 1.494 1.391 2.793 2.329 3.081 4.409-.068.38-.127.752-.19 1.108-.059.39-.117.762-.18 1.143-.079.361-.147.718-.23 1.07a88 88 0 0 1-.41 1.898c-1.978.801-3.897 1.03-6.001 1.25q-.976-.02-1.797-.84a17 17 0 0 0-.82-2.88q-.63-.269-1.231-.537c-.42-.103-.83-.19-1.23-.284q-.819-.82-.87-2.109c.02-.4.03-.79.05-1.177q-.691.037-1.358.078c-1.27-.141-2.7-1.06-4.292-2.749-.899-1-1.67-2.06-2.94-2.583a2.5 2.5 0 0 0-1.65.254 34 34 0 0 0-.82.537c-.62.391-1.24.782-1.851 1.182-.317.21-.63.41-.928.61-.312.19-.61.381-.913.567a9 9 0 0 1-1.67.874c-1.328-.054-1.86-.2-2.778-1.192-.22-.341-.44-.678-.65-1.01-.248-.381-.502-.762-.742-1.128-.498-.781-1.01-1.563-1.528-2.334q-.764-1.151-1.528-2.31c-.264-.4-.513-.776-.762-1.167-.269-.4-.532-.8-.791-1.191-.249-.39-.498-.772-.747-1.162-.723-1.09-1.133-1.939-1.43-3.218q.336-1.678 2.46-3.848l.957-.942c.66-.669 1.319-1.328 1.992-2.002 1.05-1.04 2.11-2.08 3.15-3.13.679-.688 1.357-1.367 2.04-2.056.328-.332.66-.654.977-.981 1.114-1.133 2.183-2.231 3.482-3.15 1.582-.263 2.168-.141 3.598.547Zm-3.408 1.63c-.25.264-.503.504-.752.753-.288.288-.567.57-.85.85-.307.307-.61.62-.908.927-.972.972-1.929 1.943-2.89 2.91q-1.004 1.027-2.022 2.031c-1.978 1.992-3.95 3.97-5.918 5.972a46 46 0 0 0 2.998 5.66c.293.458.571.898.85 1.347q.423.695.84 1.352c.283.44.551.87.82 1.3.923 1.479 1.85 2.7 3.12 3.89.84-.551 1.68-1.088 2.53-1.63.35-.22.702-.44 1.04-.66.35-.229.683-.439 1.02-.658l.99-.62a11.6 11.6 0 0 1 1.822-.953c1.528.122 1.958.332 3.11 1.402 1.66 1.85 3.028 3.628 5.538 4.248.61.141 1.147.312 1.62.512.152.494.308.977.46 1.46.122.479.239.948.361 1.407.972.254 1.919.522 2.88.82.309.581.572 1.216.802 1.904.146.606.288 1.197.44 1.797 1.537-.278 3.026-.547 4.516-.82.117-1.05-.074-1.841-.557-2.368-.259-.25-.522-.489-.771-.723a63 63 0 0 0-.84-.796c-.591-.552-1.182-1.103-1.758-1.65-.293-.274-.562-.542-.84-.801-1.074-1.001-1.562-1.64-1.802-3.09h.82c.83.79 1.622 1.59 2.408 2.411 1.284 1.338 2.392 2.656 4.16 3.34q.096-.85-.498-1.401l-.708-.679c-.273-.264-.532-.523-.8-.772a231 231 0 0 1-1.763-1.689c-.938-.913-1.87-1.821-2.808-2.73-.942-.903-1.88-1.801-2.813-2.71q-.446-.437-.879-.869c-1.05-.99-2.06-1.933-2.88-3.134-.23-1.519-.2-2.388.38-3.8.181-.268.352-.527.523-.79.19-.298.376-.576.557-.87.2-.297.4-.59.59-.878.381-.591.772-1.182 1.163-1.768.307-.454.6-.903.898-1.343-1.03-1.088-2.022-2.03-3.252-2.89l-1.309-.801c-.478-.288-.947-.586-1.43-.879-.738-.45-1.49-.898-2.227-1.357-1.611-1.001-4.243-3.614-5.962-2.163Zm0 0" style="fill-rule:nonzero;fill:#000;fill-opacity:1;stroke-width:2;stroke-linecap:butt;stroke-linejoin:miter;stroke:#000;stroke-opacity:1;stroke-miterlimit:10" transform="scale(.8)"/><path d="M72.1 19.722c.048 1.176-.352 1.928-.938 2.94-.161.248-.322.497-.483.736-1.25 1.954-2.559 3.433-4.468 4.751-.259.171-.513.332-.772.489-1.191.761-2.221 1.494-3.681 1.42q-1.149-.6-2.349-2.827c-.2-1.362-.127-1.88.679-3.002.322-.328.644-.64.952-.958.352-.36.698-.703 1.04-1.05.371-.37.742-.722 1.099-1.083.37-.367.722-.738 1.079-1.099.356-.347.703-.693 1.05-1.04a16 16 0 0 1 1.914-1.63c2.007-.28 3.906.473 4.887 2.353Zm-4.722.2c-.24.24-.469.469-.689.698l-.761.762a41 41 0 0 0-.786.81c-1.47 1.46-2.813 2.71-3.672 4.62l1.23 1.23c3.54-1.88 5.518-3.853 7.388-7.393-.274-.415-.547-.82-.82-1.23q-1.209-.118-1.89.503Zm0 0" style="fill-rule:nonzero;fill:#000;fill-opacity:1;stroke-width:2;stroke-linecap:butt;stroke-linejoin:miter;stroke:#000;stroke-opacity:1;stroke-miterlimit:10" transform="scale(.8)"/></svg>