<svg xmlns="http://www.w3.org/2000/svg" width="80" height="80" viewBox="0 0 80 80"><path d="M57.602 0H64.8c1.597 3.2 1.597 3.2 1.597 5.602.579-.415 1.157-.829 1.75-1.25 2.25-1.153 2.25-1.153 4.352-1.051 2.11.777 3.11 1.18 4.3 3.097-.195 3.082-.671 4.61-2.402 7.204.778.113 1.551.23 2.352.347 2.45.45 2.45.45 3.25 1.25.059 1.215.066 2.434.05 3.653l-.023 2c-.007.511-.02 1.023-.027 1.546l-4.8 2.403.85 1.347c.95 2.344.743 3.473-.05 5.852-.95 1.5-.95 1.5-2.398 2.398-3.082-.191-4.61-.671-7.204-2.398l-.035 2.36q-.071 4.352-.172 8.699-.04 1.88-.07 3.761a407 407 0 0 1-.113 5.414 246 246 0 0 1-.016 1.688c-.101 3.48-.695 5.691-2.793 8.476-10.883 8.813-26.867 9.11-40.219 7.829C16.266 69.363 9.633 67.934 4 64l-2.074-1.445c-2.977-3.95-2.5-7.785-2.457-12.606l-.012-2.965c-.004-2.07.004-4.136.02-6.207a592 592 0 0 0-.024-9.496q.005-3.016.016-6.031l-.024-2.867c.094-6.57.094-6.57 2.477-9.738 10.273-7.149 21.25-8.211 33.43-7.895q2.52.061 5.046.098c1.504.023 3.004.058 4.508.097 2.399.102 2.399.102 3.895-1.746 2.347.301 2.347.301 4.8.801H56c.527-1.32 1.055-2.64 1.602-4M60 3.2c-.266 1.585-.527 3.167-.8 4.8-5.942.113-5.942.113-8.802-.8-.144 2.964-.144 2.964.454 4.8.406 1.86.125 3.004-.454 4.8-1.582.262-3.168.528-4.796.802V20c1.582.527 3.168 1.055 4.796 1.602.93 3.242.672 4.972-.796 8 2.968.14 2.968.14 4.847-.454 1.551-.347 1.551-.347 3.95.454.953 2.449.953 2.449 1.601 4.796h2.398c.266-1.582.532-3.168.801-4.796 3.528-.82 5.543-.832 8.801.796.988-2.964.5-4.945 0-8v-1.597c1.586-.266 3.168-.528 4.8-.801v-2.398c-1.585-.266-3.167-.532-4.8-.801-.113-5.946-.113-5.946.8-8.801-2.964-.988-4.945-.5-8 0h-1.6a2415 2415 0 0 0-.802-4.8zM4.398 15.147C3.086 16.742 3.086 16.742 2.7 18.75c.757 3.11 2.687 4.453 5.3 6.05 11.16 5.65 25.414 6.442 37.602 4 1.601-1.445 1.601-1.445 2.398-3.198V24c-1.586-.527-3.168-1.055-4.8-1.602V15.2l4.8-1.597c-.387-2.004-.387-2.004-1.602-4-4.527-1.75-8.832-1.883-13.648-1.852-1.11.004-1.11.004-2.242.012-9.387.152-18.492 1.488-26.11 7.386M3.2 25.602c-.363 3.699-.613 6.304 1.551 9.449 11.66 8.328 26.82 8.379 40.453 6.316 4.047-.82 7.797-2.172 11.598-3.765-.399-2.774-.399-2.774-.801-5.602-.594.281-1.187.563-1.8.852-2.352.8-3.141.851-5.4-.051-.792-.528-1.585-1.059-2.402-1.602a117 117 0 0 0-4.796.801c-13.555.816-26.184.027-38.403-6.398m54 14.296C53.063 41.98 49.371 43.355 44.801 44c-.555.086-1.11.176-1.68.266C30.86 45.934 18.633 44.758 7.2 40c-1.332-.535-2.664-1.066-4-1.602-.426 3.059-.8 5.942.91 8.637 6.043 5.692 15.176 6.98 23.09 8.164v1.602c-8.398.3-16.734-2.25-24-6.403-.285 2.723-.383 5.286 0 8 4.676 5.664 12.668 7.551 19.688 8.547 12.254 1.145 25.73.903 36.312-6.144 2.098-1.848 3.078-2.883 3.383-5.676.016-1.574-.074-3.152-.184-4.727q-.713.398-1.449.801C59.2 52 59.2 52 56.801 52c-.399-1.187-.399-1.187-.801-2.398.914-.274.914-.274 1.852-.551 2.718-1.328 3.394-2.262 4.546-5.051.188-2.176.114-4.207 0-6.398-1.746 0-3.718 1.515-5.199 2.296m0 0" style="stroke:none;fill-rule:nonzero;fill:#000;fill-opacity:1"/><path d="M64.8 12.8c2.305 1.384 2.419 2.462 3.15 5.098.05 2.903.05 2.903-1.15 5.204-2.609 2.218-4.187 2.558-7.6 2.5-2.302-1.204-2.302-1.204-4-3.204-.848-2.75-.848-2.75-.802-5.597 3.016-4.785 4.98-5.14 10.403-4M60 15.2c-1.375 1.956-1.375 1.956-2.398 4 1.054 1.058 2.109 2.113 3.199 3.198 2.011-.777 2.992-1.168 3.949-3.148.219-1.71.219-1.71-.95-3.05-1.44-1.231-1.44-1.231-3.8-1M29.602 9.602V12.8c-9.22 1.836-9.22 1.836-13.602 1.597.266-1.054.527-2.109.8-3.199 4.305-.953 8.364-1.832 12.802-1.597m3.198.001h5.598c.266 1.054.532 2.109.801 3.199h-6.398zm16.802 40H52.8v5.597h-3.2zM43.2 51.2h3.198v5.6c-1.054-.265-2.109-.527-3.199-.8zm-5.598.8H40v5.602a955 955 0 0 0-3.2-.801 76 76 0 0 1 0-4c.263-.266.528-.528.802-.801M31.2 52c1.058.266 2.113.527 3.198.8v4c-1.054.263-2.109.528-3.199.802zm0 0" style="stroke:none;fill-rule:nonzero;fill:#000;fill-opacity:1"/></svg>