<svg xmlns="http://www.w3.org/2000/svg" width="60" height="60" viewBox="0 0 60 60"><path d="M53.625 1.219c4.05 3.851 6.484 6.636 6.656 12.375-.043 4.691-.785 7.726-4.031 11.156-2.27 1.77-4.031 2.844-6.75 3.75-.004.48-.008.96-.008 1.457a525 525 0 0 1-.133 6.559c-.007 1.132-.007 1.132-.011 2.289-.168 5.605-.168 5.605-2.278 8.496-1.933 1.351-3.613 2.324-5.82 3.136-.93.356-.93.356-1.875.715C29.207 54.395 14.934 54.11 5.25 49.5 2.71 48.137 1.625 47.438 0 45c-.207-1.527-.207-1.527-.23-3.293l-.036-2.012-.011-2.168-.024-2.23q-.012-2.343-.02-4.68a545 545 0 0 0-.081-7.148q-.011-2.274-.016-4.547l-.047-2.16c.024-3.457.067-5 2.25-7.805C3.675 7.555 5.297 6.625 7.5 5.812l1.875-.714c3.508-1.118 6.61-1.422 10.29-1.317.882.016 1.769.031 2.679.051q2.781.058 5.562.145c.883.011 1.77.027 2.68.039.805.02 1.61.043 2.437.062 2.762-.406 3.918-1.5 5.977-3.328 4.66-1.555 10.168-1.602 14.625.469M37.887 5.652A81 81 0 0 0 35.25 9h2.25c-.805 2.188-1.332 3.582-3 5.25-2.117-.164-3.383-.46-5.062-1.781C28.5 11.25 28.5 11.25 27.75 9c1.484.496 2.969.988 4.5 1.5.246-1.238.496-2.477.75-3.75-7.64-2.547-19.2-1.242-26.297 2.266-1.676 1.074-3.047 2.328-4.453 3.734-.105 1.855-.105 1.855.75 3.75 6.203 5.55 16.18 6.293 24.152 5.875C29.11 22.199 31.055 22 33 21.75v-3c.742-.246 1.484-.496 2.25-.75.254.836.254.836.516 1.688C37.14 22.57 39.172 24.086 42 25.5c4.21.469 8.043.457 11.645-1.953 2.859-2.707 3.945-5.899 4.48-9.719-.605-4.156-2.234-6.77-5.297-9.61-4.871-3.25-10.8-2.847-14.941 1.434M2.25 19.5c-.375 2.469-.375 2.469 0 5.25 4.105 4.633 9.781 5.941 15.75 6.75 7.672.406 15.152.313 22.5-2.25l1.5-1.5c-4.824-3.918-8.66-4.16-14.719-3.844-8.906.235-16.922-.351-25.031-4.406m0 9c-.293 2.973-.344 4.703 1.266 7.266 4.293 3.738 11.28 4.66 16.734 5.484v1.5c-6.43-.703-12.133-1.715-18-4.5-.375 2.469-.375 2.469 0 5.25 4.105 4.633 9.781 5.941 15.75 6.75 9.102.48 19.633.922 27-5.25 1.809-1.469 1.809-1.469 1.594-4.219L46.5 38.25c-1.484.496-2.969.988-4.5 1.5.824-1.922 1.48-2.984 3.094-4.36 1.687-1.636 1.687-1.636 1.593-4.453L46.5 28.5l-1.836.793c-.8.344-1.605.684-2.43 1.035-.793.34-1.582.68-2.398 1.027-9.598 3.676-23.281 3-32.82-.55A107 107 0 0 1 2.25 28.5m0 0"/><path d="M45 6c.742.246 1.484.496 2.25.75v6h6c.246.742.496 1.484.75 2.25h-9zM20.438 7.453c1.421.012 1.421.012 2.87.02.723.007 1.446.02 2.192.027v2.25l-2.156-.094c-3.625-.015-7.074.801-10.594 1.594l-.75-3c2.816-.902 5.5-.824 8.438-.797M32.25 38.25h3V42h-3zm-9 .75h2.25v4.5h-2.25zm4.5 0H30v4.5c-.742-.246-1.484-.496-2.25-.75zm9.75-1.5h2.25v3.75H37.5zm0 0"/></svg>