<svg xmlns="http://www.w3.org/2000/svg" width="80" height="80" viewBox="0 0 80 80"><path d="M69.547.79C74.66 3.554 78.125 7.265 80 12.8c1.07 6.81.7 12.645-3.316 18.38-2.926 3.199-6.204 5.058-10.286 6.422l-.035 1.843c-.058 2.77-.136 5.535-.215 8.305-.015.957-.035 1.918-.054 2.906-.04 1.387-.04 1.387-.086 2.805-.02.848-.04 1.7-.063 2.574-.496 3.403-1.757 5.567-4.422 7.723-13.824 8.21-31.28 8.316-46.691 5.027C10.914 67.7 7.344 66.335 4 64l-2.074-1.445c-2.977-3.95-2.5-7.785-2.457-12.606l-.012-2.965c-.004-2.07.004-4.136.02-6.207a592 592 0 0 0-.024-9.496q.005-3.016.016-6.031l-.024-2.867c.094-6.57.094-6.57 2.477-9.738 10.73-7.465 22.082-8.215 34.77-7.676 8.41.433 8.41.433 15.703-3.219 4.308-3.39 12.28-2.602 17.152-.96M48.398 9.45c-.394.577-.789 1.155-1.199 1.75.399.792.399.792.801 1.6h1.602c-.313 2.18-.856 3.27-2.204 5.052-1.796 1.347-1.796 1.347-3.75 1.398-2.683-1.113-4.175-2.656-6.046-4.852v-1.597c.476.133.957.261 1.449.398 1.84.489 1.84.489 4.148.403.528-1.586 1.059-3.168 1.602-4.801C33.816 5.969 19.34 7.215 9.1 11.949c-4.294 2.524-4.294 2.524-6.4 6.801.757 3.11 2.687 4.453 5.3 6.05 10.984 5.56 24.809 6.415 36.8 4l-.8-4h2.398a301 301 0 0 1 3.204 4.802c4.328 3.992 8.125 5.226 13.945 5.105 4.406-.656 7.398-3.168 10.351-6.355 3.13-4.696 3.399-8.356 2.903-13.954C75.363 9.73 71.855 6.82 68 4c-7.895-2.633-14.203-.621-19.602 5.45M3.2 25.601c-.363 3.699-.613 6.304 1.551 9.449 11.672 8.336 26.86 8.379 40.508 6.316 3.804-.789 7.238-2.105 10.742-3.765-.793-.532-1.586-1.059-2.398-1.602l-7.204-4.8a117 117 0 0 0-4.796.8c-13.555.816-26.184.027-38.403-6.398m54 14.296C53.063 41.98 49.371 43.355 44.801 44c-.555.086-1.11.176-1.68.266C30.86 45.934 18.633 44.758 7.2 40c-1.332-.535-2.664-1.066-4-1.602-.426 3.059-.8 5.942.91 8.637 6.043 5.692 15.176 6.98 23.09 8.164v1.602c-8.398.3-16.734-2.25-24-6.403-.285 2.723-.383 5.286 0 8 4.676 5.664 12.668 7.551 19.688 8.547 12.254 1.145 25.73.903 36.312-6.144 2.098-1.848 3.078-2.883 3.383-5.676.016-1.574-.074-3.152-.184-4.727q-.713.398-1.449.801C59.2 52 59.2 52 56.801 52c-.399-1.187-.399-1.187-.801-2.398.914-.274.914-.274 1.852-.551 2.718-1.328 3.394-2.262 4.546-5.051.188-2.176.114-4.207 0-6.398-1.746 0-3.718 1.515-5.199 2.296m0 0" style="stroke:none;fill-rule:nonzero;fill:#000;fill-opacity:1"/><path d="m60.8 8 2.4 1.602c.234 1.73.234 1.73.152 3.699-.024.652-.043 1.308-.067 1.98q-.04.748-.086 1.52a238 238 0 0 0 1.52-.086c.652-.02 1.308-.043 1.98-.067l1.969-.082c.57.079 1.144.153 1.73.235L72 19.199c-.8.801-.8.801-3.328.88-1.547-.017-1.547-.017-3.121-.028l-3.13-.024c-.8-.007-1.597-.02-2.421-.027q-.029-2.776-.05-5.55c-.009-1.032-.02-2.06-.028-3.122C60 8.801 60 8.801 60.8 8m-37.85 2.352c.968.007.968.007 1.96.02.738.015.738.015 1.488.026-.261 1.059-.527 2.114-.796 3.204L16 14.398c.266-1.054.527-2.109.8-3.199 2.305-.77 3.759-.883 6.15-.847m5.05-.75h5.602V12.8H28zm21.602 40H52.8v5.597h-3.2zM43.2 51.2h3.198v5.6c-1.054-.265-2.109-.527-3.199-.8zm-5.598.8H40v5.602a955 955 0 0 0-3.2-.801 76 76 0 0 1 0-4c.263-.266.528-.528.802-.801M31.2 52c1.058.266 2.113.527 3.198.8v4c-1.054.263-2.109.528-3.199.802zm0 0" style="stroke:none;fill-rule:nonzero;fill:#000;fill-opacity:1"/></svg>