<svg xmlns="http://www.w3.org/2000/svg" width="80" height="80" viewBox="0 0 80 80"><path d="M41.898-.25c2.903.25 2.903.25 4.114 1.438 1.672 2.835 2.75 5.8 3.87 8.89l.747 2.016q.772 2.098 1.539 4.203c.781 2.152 1.574 4.297 2.367 6.441l1.5 4.09.719 1.945c1.644 4.551 1.644 4.551 1.644 7.227.457.059.91.121 1.38.18 4.949.843 8.14 2.37 11.421 6.218 2.817 4.176 4.137 9.036 5.578 13.813.7 2.219.7 2.219 2.168 3.828.524.773.524.773 1.055 1.563-.266 1.32-.527 2.636-.8 4l-16 .796a2543 2543 0 0 1-.802 4.801c-2.074 2.242-3.359 3.098-6.382 3.586l-2.618-.012-2.87.036c-.985-.004-1.965-.004-2.977-.008q-2.928-.012-5.856.023l-2.613-.011c-2.812.476-3.66 1.46-5.48 3.585-2.707 1.356-5.782.899-8.758.88-.707 0-1.418 0-2.145-.005q-3.397-.005-6.8-.023l-4.602-.012Q5.649 79.225 0 79.2c-.078-4.136.129-7.926.848-12.015.175-1.016.351-2.032.535-3.075.094-.52.187-1.039.281-1.574.29-1.594.566-3.191.844-4.789C3.878 49.97 3.878 49.97 4.8 47.2h20.8c.262-2.375.528-4.75.797-7.199 1.457-2.258 2.407-3.602 4.801-4.8 3.13-.204 5.367-.184 8 1.6 1.797 2.696 1.797 3.65 1.75 6.802-.004.765-.008 1.53-.015 2.324C40.8 48 40.8 48 40 50.398c1.055.266 2.113.532 3.2.801l.495-2.219c.22-.949.434-1.902.657-2.878.21-.95.425-1.895.644-2.872.606-2.43.606-2.43 1.402-4.03a150 150 0 0 0-1.875-7.134l-1.218-4.394q-.978-3.464-1.961-6.922c-.633-2.227-1.25-4.457-1.867-6.684-.2-.683-.399-1.367-.606-2.07-1.121-4.082-1.46-7.058-.473-11.195C39.2 0 39.2 0 41.898-.25m-.296 3.45c-1.02 2.034-.668 2.64-.07 4.804.175.66.355 1.316.538 1.996.2.715.399 1.43.606 2.164a1940 1940 0 0 0 3.18 11.668c.632 2.293 1.25 4.586 1.87 6.883.2.71.399 1.418.602 2.148 1.621 6.051 1.621 6.051.473 9.535-.266 1.059-.528 2.114-.801 3.204A9514 9514 0 0 1 58.398 44c.266.793.532 1.586.801 2.398l-12 2.403V56c.504.145 1.004.29 1.52.441l1.98.61 1.969.59c1.73.757 1.73.757 3.332 3.16 3.707 2.176 7.691 1.781 11.852 1.699l2.14-.023c1.735-.016 3.473-.047 5.207-.079-.87-2.617-1.758-5.234-2.648-7.847l-.75-2.254c-.246-.711-.489-1.426-.742-2.164-.223-.656-.442-1.313-.672-1.992-.844-1.871-1.532-2.926-3.188-4.141-2.914.188-2.914.188-5.597.8-.266-.792-.532-1.585-.801-2.402L64 40.801c-2.836-1.297-4.902-1.684-8-1.602-.176-.629-.176-.629-.352-1.27-1.808-6.28-4.039-12.394-6.285-18.523q-1.001-2.736-1.996-5.472c-.426-1.16-.847-2.32-1.273-3.485-.2-.543-.399-1.086-.602-1.648-1.039-2.844-1.039-2.844-2.293-5.602zM30.648 39.323c-1.398 1.969-1.543 3.516-1.808 5.91-.102.86-.2 1.72-.305 2.602-.094.894-.187 1.793-.285 2.715-.105.902-.207 1.808-.312 2.742a785 785 0 0 0-.739 6.707c2.64.266 5.281.527 8 .8a100 100 0 0 0 2.25-14.35c.09-1.013.176-2.028.266-3.071.101-2.524.101-2.524-1.106-4.133-2.129-1.277-3.894-1.332-5.96.078M8 50.398c-1.078 3.239-1.89 5.926-2.457 9.211-.137.805-.277 1.61-.422 2.438a559 559 0 0 1-.863 5.035c-.785 4.434-.785 4.434-1.059 8.918h28c.266-.527.528-1.055.801-1.602-.793-.261-1.586-.527-2.398-.796-.399-1.192-.399-1.192-.801-2.403a249 249 0 0 0 1.898-.3c2.215-.333 2.215-.333 3.7-2.098.269-2 .269-2 0-4-1.458-1.75-1.458-1.75-3.5-2-2.376.203-2.376.203-3.848 2.8-.48.79-.957 1.583-1.45 2.399H24c.113-1.582.23-3.168.352-4.75.062-.883.128-1.762.195-2.672.289-3.398.676-6.789 1.055-10.18zm31.2 4q-.404 3.077-.802 6.153c-.074.578-.152 1.152-.23 1.746-.07.566-.145 1.129-.219 1.71l-.203 1.563c-.168 1.883-.168 3.743-.144 5.63 3.296.046 6.597.073 9.898.1.941.013 1.883.028 2.852.04.894.008 1.793.012 2.718.015.828.008 1.657.016 2.512.028 2.156.023 2.156.023 3.617-1.781.336-2 .336-2 0-4-2.25-1.825-2.25-1.825-4.8-1.602a211 211 0 0 1-3.2-4c-3.011-1.004-4.297-.297-7.199.8-.098-.609-.2-1.222-.3-1.85-.403-2.313-.403-2.313-2.098-4.552zm0 0" style="stroke:none;fill-rule:nonzero;fill:#000;fill-opacity:1"/><path d="M24.5 23.3c2.7.7 2.7.7 4.3 2.302.458 4.113.458 4.113 0 6.398-1.75 1.648-1.75 1.648-4 2.398-2.28-.105-3.55-.503-5.448-1.75-1.438-2.191-1.317-3.683-.954-6.25 1.86-2.894 2.625-3.218 6.102-3.097m-1.3 3.098-1.598 3.204 4 .796V27.2c-.793-.262-1.586-.527-2.403-.8M40.8 24.8c1.552 1.348 1.552 1.348 2.4 3.2-.063 2.559-.45 3.625-2.2 5.5-1.8.898-1.8.898-3.898.75-1.903-.648-1.903-.648-3.5-2.25-.25-2.8-.25-2.8 0-5.602 2.773-1.847 3.933-2.007 7.199-1.597M37.603 28c-.266.793-.532 1.586-.801 2.398H39.2V28zM31.2 13.398c2.402.204 2.402.204 4 1.801.198 2.403.198 2.403 0 4.801-1.598 1.602-1.598 1.602-4 1.8-2.4-.198-2.4-.198-4-1.8-.2-2.398-.2-2.398 0-4.8 1.6-1.598 1.6-1.598 4-1.802m-.802 3.403v1.597H32v-1.597zM17.602 71.2h8.796c-.261 1.058-.527 2.112-.796 3.198h-8zm40-23.2c.789.266 1.582.527 2.398.8.266 1.583.527 3.169.8 4.802-.792.261-1.585.527-2.402.796C56.801 52 56.801 52 57.102 49.852c.164-.614.328-1.223.5-1.852M51.2 49.602c1.058.261 2.112.527 3.198.796V55.2H51.2zm12-2.402h3.198c.903 3.8.903 3.8 0 5.6H64c-.266-1.847-.527-3.695-.8-5.6m-53.598 24h5.597c-.261 1.058-.527 2.112-.8 3.198h-4c-.262-1.054-.528-2.109-.797-3.199m32-35.199c1.32.266 2.636.527 4 .8-.266 1.055-.532 2.11-.801 3.2-1.32-.266-2.64-.527-4-.8.261-1.055.527-2.11.8-3.2m0 0" style="stroke:none;fill-rule:nonzero;fill:#000;fill-opacity:1"/></svg>