<svg xmlns="http://www.w3.org/2000/svg" width="80" height="80" viewBox="0 0 80 80"><path d="M74.398 28.8h3.204v36.802H80c.09 1.398.148 2.796.2 4.199.038.777.07 1.558.109 2.36q-.311 2.231-1.489 3.948c-2.89 2.13-5.629 1.93-9.09 1.903-.71 0-1.43 0-2.16.02-2.36.019-4.71 0-7.07 0-1.64 0-3.281 0-4.91.007-3.43 0-6.86 0-10.3-.02-4.4-.019-8.802 0-13.2.012-3.38.008-6.77 0-10.14 0h-4.872c-2.27 0-4.539 0-6.797-.02-.672 0-1.34.009-2.043.02-2.918-.043-4.668-.172-7.047-1.922C-.352 73.88-.32 72.48-.19 69.801c.03-.79.062-1.582.09-2.39.042-.602.07-1.2.113-1.81H2.41v-16h3.2v16h5.6v3.2q-3.961.389-8 .8v4h73.6v-4q-5.248-.061-10.508-.09c-1.192 0-2.38-.023-3.582-.03a747 747 0 0 0-5.13-.04c-1.03-.011-2.058-.02-3.12-.03q-2.54-.083-4.059 1.78a47 47 0 0 1-4.648.207H42.96c-.973 0-1.95-.007-2.95-.02-.972 0-1.94.02-2.952.02h-5.387c-1.375-.136-2.594-.738-3.66-1.796a20.6 20.6 0 0 0-3.48-.332c-.68-.032-1.36-.06-2.063-.09-.707-.032-1.43-.051-2.16-.07-.72-.032-1.438-.06-2.18-.09-1.77-.079-3.55-.141-5.32-.211v-3.2H30.41v2.403h19.2v-2.403h24.8V28.801ZM22.45 2.031h1.78l1.82.059h1.829q4.522.07 6.371 1.101c2.48 1.13 4.629 1 7.352 1.02 1.097.02 2.199.027 3.296.05 1.73.02 3.454.028 5.18.04 1.672 0 3.344.039 5.024.058 1 .008 2.003.016 3.02.02 3.179.492 4.519 1.25 6.679 3.61q.45 1.91.39 3.991c-.011.75-.03 1.5-.043 2.27-.03.773-.066 1.559-.097 2.352-.02.789-.04 1.57-.051 2.378-.05 1.942-.11 3.88-.2 5.82h-3.198q-.404-4.359-.801-8.8c-1.09-.02-2.18-.04-3.301-.059-1.45-.05-2.898-.09-4.352-.14-.707-.012-1.43-.02-2.168-.04-6.289-.23-10.128-2.042-14.832-6.32-3.359-3.043-5.726-3.18-10.199-3.152-.558 0-1.12 0-1.687-.008-1.84-.16-3.528.14-5.063.91-.129 2.07-.21 4.13-.25 6.2-.02.62-.027 1.238-.05 1.879q-.072 2.987-.149 5.968c-.04 1.34-.07 2.692-.11 4.043-.09 3.297-.171 6.61-.25 9.91h-3.199c-.101-4.16-.171-8.312-.222-12.472a511 511 0 0 0-.078-4.239c-.051-2.039-.07-4.07-.09-6.101-.02-.629-.04-1.258-.063-1.91 0-3.098.16-4.547 2.274-6.88 2.066-1.14 3.11-1.589 5.43-1.57ZM40.8 8c2.29 2.45 3.778 3.898 7.27 4.09.625 0 1.258-.004 1.89-.012h2.052q1.05-.007 2.129-.02 1.065.002 2.16-.007c1.758 0 3.527-.02 5.289-.04a10.4 10.4 0 0 0-1.602-4 77 77 0 0 0-4.277-.081H53.09c-.906.008-1.824.011-2.75.02-.91 0-1.82 0-2.77.01-2.261 0-4.52.02-6.789.04Zm0 0" style="stroke:none;fill-rule:nonzero;fill:#000;fill-opacity:1"/><path d="M8.8 21.602h4.802V24.8H12v34.398h42.398v3.2H8.801Zm0 0" style="stroke:none;fill-rule:nonzero;fill:#000;fill-opacity:1"/><path d="M61.602 26.398H64.8c.12 3.274.187 6.543.25 9.801.027.93.07 1.86.097 2.813.012.886.024 1.789.043 2.699.02.82.04 1.64.059 2.488q-.45 2.202-1.89 4.07c-3.9 2.032-7.57 1.79-11.91 1.762-.91 0-1.821 0-2.75.008-1.919 0-3.84 0-5.75-.02-2.93-.019-5.872 0-8.802.02-1.867 0-3.726 0-5.59-.02-.878 0-1.75.02-2.66.02q-6.045-.07-9.25-1.91c-2.007-2.43-1.84-4.04-1.687-7.14.039-.938.07-1.868.11-2.84.05-.708.09-1.43.14-2.16h3.2c.05.62.1 1.25.148 1.902.07.808.132 1.62.203 2.449q.1 1.212.199 2.45.039 1.95 1.05 2.8c1.25.082 2.5.101 3.75.101h34.63q1.61.07 2.41-.902c.122-1.367.2-2.73.25-4.11q.05-1.24.098-2.507c.032-.871.063-1.742.09-2.64.035-.876.07-1.759.114-2.653.09-2.168.16-4.34.25-6.5Zm0 0" style="stroke:none;fill-rule:nonzero;fill:#000;fill-opacity:1"/><path d="M24 12h3.2v2.398h3.198v8H27.2V24h3.2v3.2h-3.2v2.402h3.2c.09 1.68.152 3.359.203 5.046.039.942.07 1.883.109 2.84Q30.399 40 28.92 41.54q-1.722.862-3.82.711-1.901-.651-3.5-2.25a61 61 0 0 1-.101-5.3c.02-.95.031-1.9.04-2.88.019-.73.038-1.46.062-2.218H24V27.2h-2.398V24H24v-1.602h-2.398v-8H24Zm.8 20.8v5.598h2.4v-5.597Zm41.598-11.198H71.2v40.796H56V59.2h12V24.801h-1.602ZM13.602 15.2v4q-3.573.4-7.204.8c-.257 9.238-.527 18.48-.796 28H2.398c-.078-4.04-.136-8.09-.18-12.129L2.16 31.75c-.039-1.98-.058-3.96-.07-5.93-.02-.61-.031-1.23-.05-1.86 0-2.858.108-4.42 1.882-6.71 3.328-2.45 5.617-2.11 9.68-2.04Zm0 0" style="stroke:none;fill-rule:nonzero;fill:#000;fill-opacity:1"/><path d="M66.398 15.2q7.092-.231 9.602 1.6c1.82 2.731 1.781 3.75 1.7 6.95-.009.8-.028 1.59-.04 2.41q-.029.909-.05 1.84h-3.2c-.262-2.64-.531-5.281-.8-8-2.38-.27-4.75-.531-7.2-.8v-4ZM43.2 52h3.198v3.2H43.2Zm-4.802 0h3.204v3.2h-3.204Zm-4.796 0H36.8v3.2h-3.2ZM24 7.2h3.2v3.198H24Zm0 0" style="stroke:none;fill-rule:nonzero;fill:#000;fill-opacity:1"/></svg>