<svg xmlns="http://www.w3.org/2000/svg" width="60" height="60"><path d="m6.004 15.77 3.559.043 3.566.019C16 16 16 16 17 17c.144 4.335.042 8.662 0 13h13v13l6.438-.062A153 153 0 0 1 43 43c1.872 1.872 1.174 4.937 1.188 7.438l.042 3.558C44 57 44 57 42 59c-2.917.2-5.738.28-8.656.266l-2.6.005q-2.724.002-5.448-.01c-2.785-.011-5.57 0-8.355.012q-2.642 0-5.285-.007l-2.535.012C3.23 59.23 3.23 59.23 1 57c-.2-2.917-.28-5.738-.266-8.656l-.005-2.6q-.002-2.724.01-5.448c.011-2.785 0-5.57-.012-8.355q0-2.642.007-5.285l-.012-2.535c.065-7.951.065-7.951 5.282-8.351M4 19v11h11V19zm0 13v11h11V32zm13 0v11h11V32zM4 45v11h11V45zm13 0v11h11V45zm13 0v11h11V45zm20.184-22.953c2.64 1.385 3.342 3.11 4.629 5.765l1.332 2.645C57 33 57 33 56.969 35.145c-1.466 2.807-3.433 3.455-6.282 4.73l-2.925 1.367C45 42 45 42 42.785 41.406c-2.197-1.73-2.958-3.209-4.035-5.781l-1.016-2.336C37 31 37 31 37 27q2.616-1.3 5.25-2.562l2.953-1.442C48 22 48 22 50.183 22.046M40 29l4 10 9-4c-.557-3.344-1.352-6.033-3-9-3.867 0-6.509 1.42-10 3M30.5 5.625C34.379 7.758 37.375 10.429 40 14c.375 2.5.375 2.5-1 5-5.239 6.736-5.239 6.736-9.5 7.375-3.879-2.133-6.875-4.804-9.5-8.375-.375-2.5-.375-2.5 1-5 5.239-6.736 5.239-6.736 9.5-7.375M29 9c-1.578 1.557-1.578 1.557-3.125 3.5l-1.633 1.969L23 16l6 6c3.795-1.491 5.61-3.757 8-7a376 376 0 0 0-2.875-3l-1.617-1.687C31.082 8.78 31.082 8.78 29 9M50.438.813 53.996.77C57 1 57 1 59 3c.23 3.004.23 3.004.188 6.563l-.02 3.566C59 16 59 16 58 17c-2.53.073-5.033.092-7.562.063l-2.155-.014Q45.643 17.029 43 17q-.04-3.72-.062-7.437l-.026-2.143c-.009-1.807.036-3.614.088-5.42C44.872.128 47.937.826 50.438.813M45 4v11h11V4z"/><path d="M36 50h3v5h-3zm-13 0h3v5h-3zM5 50h3v5H5zm27 0h2v5l-3-1zm-13 0h2v5l-3-1zm-9 0 3 1-1 4h-2z"/></svg>