<svg xmlns="http://www.w3.org/2000/svg" width="80" height="80" viewBox="0 0 80 80"><path d="m5.055 22.309 2.422.011c.863.004 1.73.008 2.617.008l2.758.024 2.761.007q3.393.017 6.785.04c.961 1.921.895 3.117.88 5.257 0 .645-.005 1.293-.005 1.957l-.023 2.489c-.016 2.605-.031 5.21-.05 7.898H40v16.8c5.195-.03 5.195-.03 10.387-.073.644 0 1.293-.004 1.957-.004.992-.008.992-.008 2.008-.012 1.648.09 1.648.09 3.25.89.023 3.184.035 6.364.046 9.547l.024 2.758c0 .864.004 1.727.008 2.617l.011 2.422c-.09 1.856-.09 1.856-.89 2.657-1.664.078-3.332.101-5 .101-.52 0-1.043.004-1.578.004-1.735.004-3.465 0-5.2 0H41.43q-3.774.004-7.547-.004-4.845-.004-9.692.004-3.714.006-7.43 0-1.786-.001-3.573.004-2.498-.001-4.989-.008H5.324c-2.125-.101-2.125-.101-2.926-.902a107 107 0 0 1-.101-5c0-.52-.004-1.043-.004-1.578-.004-1.735 0-3.465 0-5.2V61.43c-.004-2.516 0-5.032.004-7.547.004-3.23 0-6.461-.004-9.692a2355 2355 0 0 1 0-7.43q.001-1.785-.004-3.574.001-2.497.008-4.988v-2.875c.14-2.887.14-2.887 2.758-3.015m.547 3.293V40H20V25.602zm0 17.597v13.602H20V43.199zm17.597 0v13.602h13.602V43.199zM5.602 60v14.398H20V60zm17.597 0v14.398h13.602V60zM40 60v14.398h14.398V60zm.68-52.035c3.36 1.113 5.16 2.914 7.57 5.433.43.422.86.844 1.3 1.278 1.802 1.832 3.138 3.441 4.083 5.844-.043 2.476-.73 3.21-2.434 4.98-.52.543-1.035 1.086-1.57 1.645-.54.546-1.074 1.093-1.629 1.656l-1.453 1.656c-.461.508-.922 1.02-1.399 1.543q-.613.69-1.25 1.398c-2.304 1.54-3.578 1.489-6.296 1-2.075-1.414-3.735-3.132-5.454-4.949l-1.414-1.402c-1.949-1.996-3.351-3.586-4.39-6.195.113-3.676 3.172-5.801 5.656-8.25l1.633-1.688c4.035-3.902 4.035-3.902 7.047-3.95m-3.563 5.96q-1.211 1.231-2.418 2.473c-.41.422-.824.84-1.25 1.274A772 772 0 0 0 30.4 20.8c2.808 3.347 5.667 6.554 8.8 9.597 2.946-1.226 4.79-3.023 7-5.296.64-.657 1.281-1.309 1.938-1.985.484-.5.965-1 1.465-1.515C46.8 18.262 44.016 14.949 40.8 12c-1.88-.18-1.88-.18-3.684 1.926M68.8 30.398c1.466 2.063 2.442 4.29 3.45 6.602.29.613.574 1.223.871 1.852C74.54 41.98 75.613 44.488 75.2 48a682 682 0 0 1-6.05 3.148c-.563.301-1.126.598-1.708.907-3.605 1.843-6.597 2.808-10.64 3.144a1122 1122 0 0 1-3.153-6.097c-.296-.57-.593-1.141-.902-1.73-1.664-3.267-2.777-6.067-3.144-9.77 14.355-9.485 14.355-9.485 19.199-7.204M58.649 36c-.941.445-1.886.89-2.859 1.352-.723.343-1.445.691-2.187 1.046.5 3.16 1.488 5.762 2.847 8.653.364.781.73 1.558 1.106 2.363.277.59.558 1.18.843 1.785 4.825-.379 8.614-2.558 12.801-4.8-.5-3.157-1.492-5.758-2.847-8.649l-1.106-2.367c-.277-.586-.558-1.176-.848-1.781-3.09 0-4.96 1.074-7.75 2.398M57.602 2.398c3.183-.023 6.363-.035 9.546-.046l2.758-.024c.864 0 1.727-.004 2.617-.008 1.2-.004 1.2-.004 2.422-.011 1.856.09 1.856.09 2.657.89.066 1.426.085 2.852.078 4.278-.004.863-.008 1.73-.008 2.617l-.024 2.758c-.003.91-.003 1.824-.007 2.761q-.017 3.393-.04 6.785c-3.011 1.508-6.64.985-9.953 1-.773.02-1.546.036-2.343.051-1.114.008-1.114.008-2.25.012l-2.067.023c-1.789-.285-1.789-.285-3.21-1.261-1.278-1.864-1.266-3.028-1.239-5.278l.012-2.25c.023-1.16.023-1.16.05-2.343l.012-2.356c.063-5.75.063-5.75.989-7.598M60 5.602V20h14.398V5.602zm0 0" style="stroke:none;fill-rule:nonzero;fill:#000;fill-opacity:1"/><path d="M48.8 67.2c1.65.35 1.65.35 3.2.8v4c-1.55.45-1.55.45-3.2.8-.8-.8-.8-.8-.902-2.8.102-2 .102-2 .903-2.8M7.2 67.2h3.198v5.6H7.2zm35.198 0 3.204.8v4c-1.059.266-2.114.527-3.204.8zm-11.198 0c1.058.265 2.113.527 3.198.8v4c-1.054.266-2.109.527-3.199.8zm-6.4 0c1.055.265 2.11.527 3.2.8v4c-1.055.266-2.113.527-3.2.8zm-11.198 0c1.054.265 2.109.527 3.199.8v4c-1.059.266-2.113.527-3.2.8zm0 0" style="stroke:none;fill-rule:nonzero;fill:#000;fill-opacity:1"/></svg>