<svg xmlns="http://www.w3.org/2000/svg" width="75" height="75" viewBox="0 0 75 75"><path d="M29.074 5.902c-12.887 5.95-16.355 22.305-6.937 32.614l3.27 3.566-4.36 2.777C15.69 48.23 11.133 54.375 9.25 60.816c-2.18 7.434-1.98 8.625 1.488 8.625 2.082 0 2.973-.496 2.973-1.59 0-4.062 2.676-9.91 6.543-14.171l4.164-4.559 2.18 2.774c5.945 7.433 15.859 7.433 21.808 0l2.18-2.774 4.164 4.559c3.863 4.261 6.54 10.11 6.54 14.172 0 1.09.894 1.59 2.976 1.59 3.468 0 3.668-1.192 1.484-8.626-1.883-6.441-6.441-12.59-11.793-15.957l-4.363-2.777 3.27-3.566c7.038-7.633 7.136-19.332.199-27.262-6.047-6.836-15.961-9.117-23.989-5.352m15.363 6.047c4.461 2.278 7.93 7.93 7.93 12.887 0 7.531-7.336 14.867-14.969 14.867-7.234 0-14.77-7.535-14.77-14.867 0-4.758 3.47-10.606 7.735-12.79 4.758-2.573 9.219-2.573 14.075-.097M43.25 46.543c1.98 1.187-2.379 5.055-5.75 5.055-1.387 0-3.668-.993-4.86-2.082-2.874-2.676-1.484-3.864 4.86-3.864 2.477 0 5.055.395 5.75.891m0 0"/></svg>