<?xml version="1.0" encoding="UTF-8"?>
<svg xmlns="http://www.w3.org/2000/svg" xmlns:xlink="http://www.w3.org/1999/xlink" width="75px" height="75px" viewBox="0 0 75 75" version="1.1">
<g id="surface1">
<path style=" stroke:none;fill-rule:nonzero;fill:rgb(0%,0%,0%);fill-opacity:1;" d="M 29.074219 5.902344 C 16.1875 11.851562 12.71875 28.207031 22.136719 38.515625 L 25.40625 42.082031 L 21.046875 44.859375 C 15.691406 48.230469 11.132812 54.375 9.25 60.816406 C 7.070312 68.25 7.269531 69.441406 10.738281 69.441406 C 12.820312 69.441406 13.710938 68.945312 13.710938 67.851562 C 13.710938 63.789062 16.386719 57.941406 20.253906 53.679688 L 24.417969 49.121094 L 26.597656 51.894531 C 32.542969 59.328125 42.457031 59.328125 48.40625 51.894531 L 50.585938 49.121094 L 54.75 53.679688 C 58.613281 57.941406 61.289062 63.789062 61.289062 67.851562 C 61.289062 68.941406 62.183594 69.441406 64.265625 69.441406 C 67.734375 69.441406 67.933594 68.25 65.75 60.816406 C 63.867188 54.375 59.308594 48.226562 53.957031 44.859375 L 49.59375 42.082031 L 52.863281 38.515625 C 59.902344 30.882812 60 19.183594 53.0625 11.253906 C 47.015625 4.417969 37.101562 2.136719 29.074219 5.902344 Z M 44.4375 11.949219 C 48.898438 14.226562 52.367188 19.878906 52.367188 24.835938 C 52.367188 32.367188 45.03125 39.703125 37.398438 39.703125 C 30.164062 39.703125 22.628906 32.167969 22.628906 24.835938 C 22.628906 20.078125 26.097656 14.230469 30.363281 12.046875 C 35.121094 9.472656 39.582031 9.472656 44.4375 11.949219 Z M 43.25 46.542969 C 45.230469 47.730469 40.871094 51.597656 37.5 51.597656 C 36.113281 51.597656 33.832031 50.605469 32.640625 49.515625 C 29.765625 46.839844 31.15625 45.652344 37.5 45.652344 C 39.976562 45.652344 42.554688 46.046875 43.25 46.542969 Z M 43.25 46.542969 "/>
</g>
</svg>
