<?xml version="1.0" encoding="UTF-8"?>
<svg xmlns="http://www.w3.org/2000/svg" xmlns:xlink="http://www.w3.org/1999/xlink" width="32px" height="3px" viewBox="0 0 3 3" version="1.1">
<g id="surface1">
<path style=" stroke:none;fill-rule:nonzero;fill:rgb(0%,0%,0%);fill-opacity:1;" d="M 2.5 0.414062 C 2.523438 0.421875 2.542969 0.429688 2.5625 0.4375 C 2.59375 0.53125 2.59375 0.53125 2.558594 0.605469 C 2.488281 0.703125 2.40625 0.789062 2.320312 0.875 C 2.292969 0.898438 2.292969 0.898438 2.269531 0.925781 C 2.214844 0.980469 2.160156 1.035156 2.101562 1.085938 C 2.066406 1.125 2.027344 1.160156 1.992188 1.199219 C 1.902344 1.289062 1.808594 1.378906 1.71875 1.46875 C 1.769531 1.597656 1.859375 1.679688 1.957031 1.773438 C 1.992188 1.808594 2.027344 1.839844 2.0625 1.875 C 2.117188 1.929688 2.175781 1.984375 2.230469 2.039062 C 2.285156 2.089844 2.335938 2.144531 2.390625 2.195312 C 2.40625 2.210938 2.425781 2.226562 2.441406 2.246094 C 2.589844 2.390625 2.589844 2.390625 2.59375 2.5 C 2.546875 2.554688 2.546875 2.554688 2.5 2.59375 C 2.347656 2.546875 2.257812 2.457031 2.152344 2.347656 C 2.132812 2.328125 2.113281 2.3125 2.097656 2.292969 C 2.039062 2.234375 1.984375 2.179688 1.929688 2.121094 C 1.890625 2.082031 1.851562 2.042969 1.8125 2.003906 C 1.71875 1.910156 1.625 1.8125 1.53125 1.71875 C 1.402344 1.769531 1.320312 1.859375 1.226562 1.957031 C 1.191406 1.992188 1.160156 2.027344 1.125 2.0625 C 1.070312 2.117188 1.015625 2.175781 0.960938 2.230469 C 0.910156 2.285156 0.855469 2.335938 0.804688 2.390625 C 0.789062 2.40625 0.773438 2.425781 0.753906 2.441406 C 0.609375 2.589844 0.609375 2.589844 0.5 2.59375 C 0.445312 2.546875 0.445312 2.546875 0.40625 2.5 C 0.453125 2.347656 0.542969 2.257812 0.652344 2.152344 C 0.671875 2.132812 0.6875 2.113281 0.707031 2.097656 C 0.765625 2.039062 0.820312 1.984375 0.878906 1.929688 C 0.917969 1.890625 0.957031 1.851562 0.996094 1.8125 C 1.089844 1.71875 1.1875 1.625 1.28125 1.53125 C 1.230469 1.402344 1.140625 1.320312 1.042969 1.226562 C 1.007812 1.191406 0.972656 1.160156 0.9375 1.125 C 0.882812 1.070312 0.824219 1.015625 0.769531 0.960938 C 0.714844 0.910156 0.664062 0.855469 0.609375 0.804688 C 0.59375 0.789062 0.574219 0.773438 0.558594 0.753906 C 0.414062 0.609375 0.414062 0.609375 0.40625 0.5 C 0.417969 0.480469 0.425781 0.457031 0.4375 0.4375 C 0.527344 0.425781 0.597656 0.417969 0.675781 0.46875 C 0.726562 0.519531 0.777344 0.570312 0.828125 0.621094 C 0.855469 0.648438 0.855469 0.648438 0.882812 0.679688 C 0.941406 0.738281 1 0.800781 1.058594 0.859375 C 1.097656 0.898438 1.136719 0.941406 1.179688 0.980469 C 1.277344 1.082031 1.371094 1.179688 1.46875 1.28125 C 1.597656 1.230469 1.679688 1.140625 1.773438 1.042969 C 1.792969 1.027344 1.808594 1.007812 1.828125 0.992188 C 1.878906 0.9375 1.933594 0.882812 1.988281 0.828125 C 2.042969 0.769531 2.097656 0.714844 2.152344 0.660156 C 2.183594 0.628906 2.21875 0.59375 2.253906 0.558594 C 2.40625 0.402344 2.40625 0.402344 2.5 0.414062 Z M 2.5 0.414062 "/>
</g>
</svg>
