<svg xmlns="http://www.w3.org/2000/svg" width="3" height="3" viewBox="0 0 3 3"><path d="M.738.371C.778.367.813.367.852.367h.507c.114 0 .223-.004.336-.004h.32c.06-.004.06-.004.122-.004h.211c.113.02.164.063.246.141.043.082.035.145.035.238.004.055.004.055.004.114v.507c0 .114.004.223.004.336v.32q.005.059.004.122v.211c-.02.113-.063.164-.141.246-.082.043-.145.035-.238.035-.04.004-.075.004-.114.004h-.507c-.114 0-.223.004-.336.004h-.32c-.06.004-.06.004-.122.004H.652C.54 2.62.488 2.578.406 2.5c-.043-.082-.035-.145-.035-.238-.004-.055-.004-.055-.004-.114v-.507c0-.114-.004-.223-.004-.336v-.32Q.358.925.36.862v-.21C.38.54.422.488.5.406.582.363.645.371.738.371M.594.625a.7.7 0 0 0-.035.246v.516c0 .11-.004.222-.004.332v.488a.36.36 0 0 0 .07.2.7.7 0 0 0 .246.034h.516l.332.004h.488a.36.36 0 0 0 .2-.07.7.7 0 0 0 .034-.246v-.516l.004-.332V.793a.36.36 0 0 0-.07-.2.7.7 0 0 0-.246-.034h-.516c-.11 0-.222-.004-.332-.004H.793a.36.36 0 0 0-.2.07m0 0"/></svg>