<?xml version="1.0" encoding="UTF-8"?>
<svg version="1.1" xmlns="http://www.w3.org/2000/svg" width="96" height="96">
<path d="M0 0 C1.29051805 4.38776138 0.45467875 6.75108222 -1 11 C-2.06129277 22.79762658 -1.02345896 32.36804662 6.625 41.8125 C13.32012892 48.84238536 21.80311528 51.5931557 31 54 C31.57303222 57.1926081 31.38608164 59.32982054 29.7578125 62.15625 C23.18229641 71.0044099 14.98850286 77.79184663 4 80 C-8.41718084 81.33804566 -19.38890709 80.27526374 -29.75 72.8125 C-37.8352318 66.0000775 -44.06304017 57.69506924 -45.22314453 46.92919922 C-46.11871049 34.01788938 -44.55271344 23.24953146 -35.97265625 13.06640625 C-25.49716564 2.09307055 -14.95108964 -0.7857507 0 0 Z M-30 17 C-37.77984288 26.62971663 -38.95705725 36.00089477 -38 48 C-37.15305853 51.40220237 -35.89048411 54.06121006 -34 57 C-33.57589844 57.69480469 -33.15179688 58.38960937 -32.71484375 59.10546875 C-27.91689369 66.22888764 -21.2709028 70.75532956 -13 73 C-2.31316872 74.18489387 5.98961775 73.30316573 15 67 C17.54935426 64.82414568 19.84451129 62.56533516 22 60 C19.91132961 57.91132961 18.57702681 57.32327894 15.875 56.25 C5.46395082 51.72127716 -1.84234765 44.55594209 -6.23828125 34.11328125 C-7.60495927 30.32162583 -8.12228387 27.05455405 -8.09765625 23.015625 C-8.09443359 22.08105469 -8.09121094 21.14648438 -8.08789062 20.18359375 C-8.07951172 19.21550781 -8.07113281 18.24742188 -8.0625 17.25 C-8.05798828 16.26644531 -8.05347656 15.28289063 -8.04882812 14.26953125 C-8.03706483 11.84629209 -8.02062684 9.42317727 -8 7 C-16.27806617 7 -24.12321435 11.28715901 -30 17 Z " fill="#000000" transform="translate(55,8)"/>
</svg>
