<svg xmlns="http://www.w3.org/2000/svg" width="100" height="100" fill="currentColor" viewBox="0 0 100 100"><g transform="matrix(.1 0 0 -.1 0 100)"><path d="M455 987c-40-18-57-41-64-84-5-31-15-41-75-78-66-40-70-41-106-29-67 23-139-15-156-82-9-34 13-91 44-115 24-19 27-27 28-92 2-69 0-74-32-109-18-21-36-49-40-62-8-35 13-92 43-116 28-22 91-27 124-10 16 9 33 3 92-33 64-39 73-48 78-81 21-128 200-122 225 8 5 29 16 40 75 75 56 33 73 40 88 31 32-17 96-12 123 10 59 46 61 124 4 179-32 31-34 37-34 102 0 67 1 71 36 104 33 31 37 40 37 84 0 38-5 55-24 75-37 39-81 50-126 32-36-16-37-15-103 25-59 35-69 45-82 86-24 73-92 108-155 80m90-122c10-35 24-60 38-68 12-7 47-29 77-47 57-35 102-42 164-25 23 6 32 4 43-10 18-26 18-27-27-73l-40-40V398l40-39c22-22 40-44 40-49 0-19-33-41-54-35-71 21-92 18-162-23-102-60-105-63-118-117-12-45-16-50-44-53-27-3-32 0-37 25-14 62-34 92-82 118-26 14-64 34-83 45-40 23-61 25-106 8-26-9-36-9-48 1-25 21-19 50 19 85l35 33v203l-35 39c-35 39-45 74-24 87 6 4 35 1 64-6 58-14 49-16 168 50 56 31 87 69 87 108 0 24 19 42 46 42 19 0 25-10 39-55"/><path d="M415 682c-154-74-154-285-1-364 31-16 53-19 103-16 69 4 97 20 147 82 26 32 31 47 34 104 3 78-18 125-80 175-48 39-142 48-203 19m164-81c67-48 63-161-8-208-62-42-149-19-183 48-23 43-23 76 0 118 38 70 125 89 191 42"/></g></svg>