<?xml version="1.0" encoding="UTF-8"?>
<svg version="1.1" xmlns="http://www.w3.org/2000/svg" width="96" height="96">
<path d="M0 0 C5.46185727 2.83716614 10.82235739 8.54519718 12.76953125 14.38671875 C13.89537018 29.07799392 13.89537018 29.07799392 8.76953125 35.38671875 C3.22063656 40.90986451 -0.97420406 43.67563087 -8.98046875 43.82421875 C-16.43719966 43.70807029 -20.55476795 42.08131775 -25.75 36.859375 C-31.18534948 30.70348927 -31.73947539 25.9449936 -31.60546875 17.87109375 C-30.80064754 10.39296336 -26.46598913 6.15467345 -20.87890625 1.515625 C-15.42689486 -2.21809844 -6.1398686 -1.68819504 0 0 Z M-22.60546875 13.01171875 C-24.80954768 17.58942114 -25.02763265 21.39224286 -24.23046875 26.38671875 C-21.90077944 31.22530423 -19.06905423 34.05702944 -14.23046875 36.38671875 C-9.23599286 37.18388265 -5.43317114 36.96579768 -0.85546875 34.76171875 C2.72860838 31.5189823 5.36488366 28.92195979 6.15234375 23.98828125 C6.40837044 18.30448881 5.70580057 14.7373322 1.76953125 10.38671875 C-2.5810822 6.45044943 -6.14823881 5.74787956 -11.83203125 6.00390625 C-16.76570979 6.79136634 -19.3627323 9.42764162 -22.60546875 13.01171875 Z " fill="#000000" transform="translate(57.23046875,26.61328125)"/>
<path d="M0 0 C1.6875 0.75 1.6875 0.75 2.5 2.375 C2.6875 4.75 2.6875 4.75 0.5 7.9375 C-2.3125 10.75 -2.3125 10.75 -4.4375 11.8125 C-6.3125 11.75 -6.3125 11.75 -8.0625 10.3125 C-8.475 9.796875 -8.8875 9.28125 -9.3125 8.75 C-7.925165 4.2096309 -5.3700603 -0.58054706 0 0 Z " fill="#000000" transform="translate(75.3125,18.25)"/>
<path d="M0 0 C2.74200127 0 4.38139673 0.46672132 6.47265625 2.26953125 C7.875 3.8125 7.875 3.8125 10 7 C9.8125 9.375 9.8125 9.375 9 11 C7.375 11.8125 7.375 11.8125 5 12 C1.46048033 9.64032022 -0.51634262 8.29982922 -2 4.3125 C-2 2 -2 2 0 0 Z " fill="#000000" transform="translate(20,18)"/>
<path d="M0 0 C4.38249366 1.33909529 6.57949251 3.08994944 9 7 C8.75 9.3125 8.75 9.3125 8 11 C6.375 11.8125 6.375 11.8125 4 12 C0.9587018 9.91283457 -1.39242638 8.21514724 -3.0625 4.875 C-3 3 -3 3 -1.5625 1.25 C-1.046875 0.8375 -0.53125 0.425 0 0 Z " fill="#000000" transform="translate(69,66)"/>
<path d="M0 0 C1.6875 0.75 1.6875 0.75 2.5 2.375 C2.6875 4.75 2.6875 4.75 0.5 7.9375 C-2.3125 10.75 -2.3125 10.75 -4.4375 11.8125 C-6.3125 11.75 -6.3125 11.75 -8.0625 10.3125 C-8.475 9.796875 -8.8875 9.28125 -9.3125 8.75 C-7.925165 4.2096309 -5.3700603 -0.58054706 0 0 Z " fill="#000000" transform="translate(27.3125,66.25)"/>
<path d="M0 0 C3.96 0 7.92 0 12 0 C13 4 13 4 12 6 C8.04 6 4.08 6 0 6 C-1 2 -1 2 0 0 Z " fill="#000000" transform="translate(76,45)"/>
<path d="M0 0 C3.96 0 7.92 0 12 0 C13 4 13 4 12 6 C8.04 6 4.08 6 0 6 C-1 2 -1 2 0 0 Z " fill="#000000" transform="translate(8,45)"/>
<path d="M0 0 C0 3.96 0 7.92 0 12 C-4 13 -4 13 -6 12 C-6 8.04 -6 4.08 -6 0 C-4 -1 -4 -1 0 0 Z " fill="#000000" transform="translate(51,76)"/>
<path d="M0 0 C0 3.96 0 7.92 0 12 C-4 13 -4 13 -6 12 C-6 8.04 -6 4.08 -6 0 C-4 -1 -4 -1 0 0 Z " fill="#000000" transform="translate(51,8)"/>
</svg>
