<svg xmlns="http://www.w3.org/2000/svg" width="60" height="60"><path d="M43 0c3-.375 3-.375 6 0l2 3 1.813-.687C55 2 55 2 56.813 3.187 58 5 58 5 57.687 7.188L57 9l3 2c.375 3 .375 3 0 6l-3 2 .688 1.813C58 23 58 23 56.812 24.813 55 26 55 26 52.876 25.625L51 25c-1.535 1.535-1.145 2.978-1.176 5.113l-.072 2.533a406 406 0 0 0-.094 5.297c-.212 6.437-.212 6.437-2.455 9.557-2.05 1.396-3.8 2.386-6.14 3.188l-1.965.699C29.368 54.23 17.639 54.236 8 51l-2.12-.604C3.174 49.255 1.823 48.335 0 46c-.992-5.071-.983-9.96-.823-15.111.073-2.448.082-4.89.08-7.34q.03-2.34.071-4.678l.014-2.21c.129-3.462.403-5.34 2.582-8.09 1.968-1.49 3.57-2.442 5.889-3.258l1.894-.7C15.715 3.006 21.589 2.893 27.75 3c5.701.165 5.701.165 11.25-1l2 1zm2 2-1 4h-7l1 7h-4v2h4v7h7v4h2v-4c4.75-.125 4.75-.125 7 1v-8h4v-2l-4-1V6h-6l-1-4zM18 6l1.938.875C22 8 22 8 23 10l-11 1V8c-3.821.53-6.062 1.497-9 4-.128 2.385-.128 2.385 1 5 6.121 4.348 12.65 5.155 20 5.25l3.625.078c3.608-.35 5.463-1.232 8.375-3.328-2.676-2.185-2.676-2.185-5-2v-6l5-1c-1.613-3.038-1.613-3.038-3.734-3.684-2.862-.4-5.627-.41-8.516-.378l-3.266.027zm-5 1 4 1ZM2 19c-.14 3.373-.14 3.373 1 7 6.287 4.863 13.575 5.203 21.188 5.25l2.462.063C32.608 31.35 37.475 30.203 43 28l-2-4-1.937.563L37 25l-1-1c-1.96.004-3.92.016-5.88.065C20.202 24.31 10.937 23.78 2 19m0 10c.288 4.254.288 4.254 2.664 7.594 2.78 1.673 5.304 2.36 8.461 3.093l3.195.762c2.55.618 2.55.618 4.68.551v2c-6.768-.945-12.86-1.93-19-5-.419 2.33-.419 2.33 0 5 4.748 5.207 10.982 6.77 17.79 7.29 9.192.296 18.998.15 26.21-6.29.334-2.626.334-2.626 0-5l-4 1c1-3 1-3 4-5 .25-3.084.25-3.084 0-6l-1.957.875C31.822 34.69 17.233 35.089 5 30z"/><path d="M46 8.75C49 9 49 9 51 11c.25 3 .25 3 0 6-2 2-2 2-5 2.25C43 19 43 19 41 17c-.25-3-.25-3 0-6 2-2 2-2 5-2.25M44 12v4h4l-1-4zM24 7h5v3h-5zm13 30h3l-1 5h-2zm-14 2h3l-1 5-2-1zm10-1h2v5l-3-1zm-5 1h2v4h-2z"/></svg>