<?xml version="1.0" encoding="UTF-8"?>
<svg version="1.1" xmlns="http://www.w3.org/2000/svg" width="60" height="60">
<path d="M0 0 C3 -0.375 3 -0.375 6 0 C6.66 0.99 7.32 1.98 8 3 C8.598125 2.773125 9.19625 2.54625 9.8125 2.3125 C12 2 12 2 13.8125 3.1875 C15 5 15 5 14.6875 7.1875 C14.460625 7.785625 14.23375 8.38375 14 9 C14.99 9.66 15.98 10.32 17 11 C17.375 14 17.375 14 17 17 C16.01 17.66 15.02 18.32 14 19 C14.226875 19.598125 14.45375 20.19625 14.6875 20.8125 C15 23 15 23 13.8125 24.8125 C12 26 12 26 9.875 25.625 C8.946875 25.315625 8.946875 25.315625 8 25 C6.46504873 26.53495127 6.85546843 27.97773658 6.82421875 30.11328125 C6.80037109 30.94923828 6.77652344 31.78519531 6.75195312 32.64648438 C6.70927347 34.41187007 6.67786673 36.17756733 6.65820312 37.94335938 C6.44579694 44.37976078 6.44579694 44.37976078 4.203125 47.5 C2.15225306 48.89633834 0.40261012 49.88583851 -1.9375 50.6875 C-2.91009766 51.03361328 -2.91009766 51.03361328 -3.90234375 51.38671875 C-13.63228467 54.23141284 -25.36089456 54.23561087 -35 51 C-35.69971924 50.80051758 -36.39943848 50.60103516 -37.12036133 50.39550781 C-39.82580118 49.25470926 -41.17650949 48.33471017 -43 46 C-43.99164538 40.92904733 -43.98291828 36.03950683 -43.82324219 30.88891602 C-43.75009055 28.44053064 -43.74120392 25.99819332 -43.7421875 23.54882812 C-43.72252598 21.98953115 -43.69921219 20.43027505 -43.671875 18.87109375 C-43.66742371 18.14184189 -43.66297241 17.41259003 -43.65838623 16.66123962 C-43.52927159 13.19911764 -43.25461365 11.32147438 -41.07641602 8.57128906 C-39.10796382 7.0816996 -37.50536524 6.12918164 -35.1875 5.3125 C-34.24970703 4.96638672 -34.24970703 4.96638672 -33.29296875 4.61328125 C-27.28487492 3.00634644 -21.41114604 2.89247564 -15.25 3 C-9.54884485 3.16492966 -9.54884485 3.16492966 -4 2 C-3.34 2.33 -2.68 2.66 -2 3 C-1.34 2.01 -0.68 1.02 0 0 Z M2 2 C1.67 3.32 1.34 4.64 1 6 C-1.31 6 -3.62 6 -6 6 C-5.67 8.31 -5.34 10.62 -5 13 C-6.32 13 -7.64 13 -9 13 C-9 13.66 -9 14.32 -9 15 C-7.68 15 -6.36 15 -5 15 C-5 17.31 -5 19.62 -5 22 C-2.69 22 -0.38 22 2 22 C2 23.32 2 24.64 2 26 C2.66 26 3.32 26 4 26 C4 24.68 4 23.36 4 22 C8.75 21.875 8.75 21.875 11 23 C11 20.36 11 17.72 11 15 C12.32 15 13.64 15 15 15 C15 14.34 15 13.68 15 13 C13.68 12.67 12.36 12.34 11 12 C11 10.02 11 8.04 11 6 C9.02 6 7.04 6 5 6 C4.67 4.68 4.34 3.36 4 2 C3.34 2 2.68 2 2 2 Z M-25 6 C-24.360625 6.28875 -23.72125 6.5775 -23.0625 6.875 C-21 8 -21 8 -20 10 C-23.63 10.33 -27.26 10.66 -31 11 C-31 10.01 -31 9.02 -31 8 C-34.82097239 8.53069061 -37.06171403 9.49701566 -40 12 C-40.12815365 14.3852733 -40.12815365 14.3852733 -39 17 C-32.87860301 21.34790814 -26.35038918 22.15495186 -19 22.25 C-17.80375 22.27578125 -16.6075 22.3015625 -15.375 22.328125 C-11.7665455 21.97730303 -9.9117209 21.09555671 -7 19 C-9.67642489 16.81509993 -9.67642489 16.81509993 -12 17 C-12 15.02 -12 13.04 -12 11 C-10.35 10.67 -8.7 10.34 -7 10 C-8.6132814 6.96183059 -8.6132814 6.96183059 -10.734375 6.31640625 C-13.59583606 5.91678841 -16.361418 5.90610237 -19.25 5.9375 C-20.86648437 5.95103516 -20.86648437 5.95103516 -22.515625 5.96484375 C-23.74539062 5.98224609 -23.74539062 5.98224609 -25 6 Z M-30 7 C-26 8 -26 8 -26 8 Z M-41 19 C-41.13956727 22.37346335 -41.13956727 22.37346335 -40 26 C-33.71267221 30.86296749 -26.42491384 31.2028278 -18.8125 31.25 C-17.99974609 31.270625 -17.18699219 31.29125 -16.34960938 31.3125 C-10.39186552 31.35041722 -5.52520292 30.20310301 0 28 C-0.66 26.68 -1.32 25.36 -2 24 C-2.9590625 24.2784375 -2.9590625 24.2784375 -3.9375 24.5625 C-4.618125 24.706875 -5.29875 24.85125 -6 25 C-6.495 24.505 -6.495 24.505 -7 24 C-8.96023865 24.00423835 -10.92074995 24.01556047 -12.88037109 24.06494141 C-22.798082 24.30984774 -32.06286404 23.78032854 -41 19 Z M-41 29 C-40.71249793 33.25428305 -40.71249793 33.25428305 -38.3359375 36.59375 C-35.55591159 38.26734419 -33.03219923 38.95444023 -29.875 39.6875 C-28.82054687 39.93886719 -27.76609375 40.19023438 -26.6796875 40.44921875 C-24.12944315 41.0671102 -24.12944315 41.0671102 -22 41 C-22 41.66 -22 42.32 -22 43 C-28.76761128 42.05542371 -34.8600433 41.06997835 -41 38 C-41.41870553 40.33071879 -41.41870553 40.33071879 -41 43 C-36.25203755 48.20744269 -30.01756756 49.76979381 -23.2109375 50.2890625 C-14.01790911 50.58568242 -4.21187838 50.43917713 3 44 C3.33425735 41.37374861 3.33425735 41.37374861 3 39 C1.68 39.33 0.36 39.66 -1 40 C0 37 0 37 3 35 C3.2502157 31.91634129 3.2502157 31.91634129 3 29 C2.35417969 29.28875 1.70835938 29.5775 1.04296875 29.875 C-11.1780289 34.68983902 -25.76606826 35.08868281 -38 30 C-38.99 29.67 -39.98 29.34 -41 29 Z " fill="#000000" transform="translate(43,0)"/>
<path d="M0 0 C3 0.25 3 0.25 5 2.25 C5.25 5.25 5.25 5.25 5 8.25 C3 10.25 3 10.25 0 10.5 C-3 10.25 -3 10.25 -5 8.25 C-5.25 5.25 -5.25 5.25 -5 2.25 C-3 0.25 -3 0.25 0 0 Z M-2 3.25 C-2 4.57 -2 5.89 -2 7.25 C-0.68 7.25 0.64 7.25 2 7.25 C1.67 5.93 1.34 4.61 1 3.25 C0.01 3.25 -0.98 3.25 -2 3.25 Z " fill="#000000" transform="translate(46,8.75)"/>
<path d="M0 0 C1.65 0 3.3 0 5 0 C5 0.99 5 1.98 5 3 C3.35 3 1.7 3 0 3 C0 2.01 0 1.02 0 0 Z " fill="#000000" transform="translate(24,7)"/>
<path d="M0 0 C0.99 0 1.98 0 3 0 C2.67 1.65 2.34 3.3 2 5 C1.34 5 0.68 5 0 5 C0 3.35 0 1.7 0 0 Z " fill="#000000" transform="translate(37,37)"/>
<path d="M0 0 C0.99 0 1.98 0 3 0 C2.67 1.65 2.34 3.3 2 5 C1.34 4.67 0.68 4.34 0 4 C0 2.68 0 1.36 0 0 Z " fill="#000000" transform="translate(23,39)"/>
<path d="M0 0 C0.66 0 1.32 0 2 0 C2 1.65 2 3.3 2 5 C1.01 4.67 0.02 4.34 -1 4 C-0.67 2.68 -0.34 1.36 0 0 Z " fill="#000000" transform="translate(33,38)"/>
<path d="M0 0 C0.66 0 1.32 0 2 0 C2 1.32 2 2.64 2 4 C1.34 4 0.68 4 0 4 C0 2.68 0 1.36 0 0 Z " fill="#000000" transform="translate(28,39)"/>
</svg>
