<svg xmlns="http://www.w3.org/2000/svg" width="32" height="32" viewBox="0 0 32 32"><path d="m9.914 2.387.75-.012c.527-.008 1.047-.012 1.574-.012.797 0 1.59-.023 2.383-.047q4.254-.06 5.73 1.215.558.62 1.087 1.27c.457.43.914.86 1.382 1.281l1.36 1.32c.234.22.468.442.715.668q.327.323.668.653l.605.582q.393.62.293 1.492l-.223.726c-1.14.028-2.281.043-3.422.063l-.976.023q-3.006.03-4.242-1.043c-.563-1.125-.453-2.468-.516-3.707a8.4 8.4 0 0 0-.445-2.37H7.355c-.3 1.202-.359 2.116-.359 3.347v18.141q0 .936.36 1.87c.785.391 1.296.36 2.175.36h13.785q.699 0 1.32-.36c.294-.882.368-1.449.387-2.363.008-.28.012-.562.02-.855.008-.3.012-.61.016-.918l.02-.941c.023-.997.038-1.993.058-2.985.011-.676.027-1.348.039-2.023.035-1.649.07-3.305.101-4.957q.62-.176 1.282-.317c.496.496.363.989.37 1.68q.002.434.009.879c0 .316 0 .629.003.957 0 .324.004.644.004.976 0 .684.008 1.368.008 2.055 0 1.043.012 2.09.024 3.133 0 .668.003 1.328.003 1.996.004.313.008.625.016.945q-.012 2.767-1.078 4.016c-1 .902-1.645 1.082-2.984 1.098-.34.004-.676.007-1.032.015h-1.105c-.379 0-.754.004-1.14.004q-1.198.006-2.395 0c-1.219 0-2.438.016-3.66.028h-2.325c-.367.003-.73.007-1.105.015q-2.825-.024-4.004-.957c-1.129-1.3-1.098-2.277-1.106-3.95 0-.218 0-.433-.007-.655 0-.715-.004-1.426-.008-2.145q-.001-.744-.008-1.488c-.004-1.047-.004-2.086-.004-3.13 0-1.331-.012-2.667-.02-4.003-.007-1.027-.007-2.055-.011-3.082 0-.492-.004-.98-.004-1.473a91 91 0 0 1 0-2.066c0-.39 0-.781-.004-1.184.156-1.386.668-2.207 1.617-3.207 1.07-.566 2.114-.554 3.297-.566Zm0 0"/><path d="M9.813 21.39c-.227 0-.336-.109-.336-.335v-4.75c0-.227.109-.336.335-.336h2.086c.426 0 .747.11.977.336q.344.334.344.96v.215q0 .542-.34.836.638.358.637 1.301v.27q0 .74-.391 1.12c-.258.259-.633.384-1.121.384Zm.335-3.273h1.895q.29.002.395-.18a.9.9 0 0 0 .105-.46v-.215q.001-.346-.145-.489c-.093-.093-.265-.136-.503-.136h-1.75v1.476Zm0 2.602h1.856q.451.002.644-.196.198-.192.196-.636v-.27q0-.448-.188-.637-.189-.187-.652-.187h-1.856v1.93Zm4.454.641q-.322-.125-.192-.442l1.902-4.688q.124-.264.375-.265h.016a.37.37 0 0 1 .352.265l1.937 4.688c.086.21.024.36-.187.441s-.356.024-.442-.183l-.43-1.051h-2.492l-.414 1.05c-.082.208-.226.266-.433.184Zm1.109-1.903h1.953l-.996-2.426Zm5.461 1.933q-.168 0-.254-.081c-.059-.055-.082-.141-.082-.254v-4.41H19.28q-.163 0-.25-.082a.36.36 0 0 1-.086-.254c0-.11.032-.196.086-.25q.084-.084.25-.086h3.778q.168.001.253.086c.055.054.083.14.083.25q0 .168-.082.253-.083.083-.254.083h-1.551v4.41a.34.34 0 0 1-.086.246.34.34 0 0 1-.25.09m0 0"/></svg>