<svg xmlns="http://www.w3.org/2000/svg" width="32" height="32" viewBox="0 0 32 32"><path d="m9.914 2.387.75-.012c.527-.008 1.047-.012 1.574-.012.797 0 1.59-.023 2.383-.047q4.254-.06 5.73 1.215.558.62 1.087 1.27c.457.43.914.86 1.382 1.281l1.36 1.32c.234.22.468.442.715.668q.327.323.668.653l.605.582q.393.62.293 1.492l-.223.726c-1.14.028-2.281.043-3.422.063l-.976.023q-3.006.03-4.242-1.043c-.563-1.125-.453-2.468-.516-3.707a8.4 8.4 0 0 0-.445-2.37H7.355c-.3 1.202-.359 2.116-.359 3.347v18.141q0 .936.36 1.87c.785.391 1.296.36 2.175.36h13.785q.699 0 1.32-.36c.294-.882.368-1.449.387-2.363.008-.28.012-.562.02-.855.008-.3.012-.61.016-.918l.02-.941c.023-.997.038-1.993.058-2.985.011-.676.027-1.348.039-2.023.035-1.649.07-3.305.101-4.957q.62-.176 1.282-.317c.496.496.363.989.37 1.68q.002.434.009.879c0 .316 0 .629.003.957 0 .324.004.644.004.976 0 .684.008 1.368.008 2.055 0 1.043.012 2.09.024 3.133 0 .668.003 1.328.003 1.996.004.313.008.625.016.945q-.012 2.767-1.078 4.016c-1 .902-1.645 1.082-2.984 1.098-.34.004-.676.007-1.032.015h-1.105c-.379 0-.754.004-1.14.004q-1.198.006-2.395 0c-1.219 0-2.438.016-3.66.028h-2.325c-.367.003-.73.007-1.105.015q-2.825-.024-4.004-.957c-1.129-1.3-1.098-2.277-1.106-3.95 0-.218 0-.433-.007-.655 0-.715-.004-1.426-.008-2.145q-.001-.744-.008-1.488c-.004-1.047-.004-2.086-.004-3.13 0-1.331-.012-2.667-.02-4.003-.007-1.027-.007-2.055-.011-3.082 0-.492-.004-.98-.004-1.473a91 91 0 0 1 0-2.066c0-.39 0-.781-.004-1.184.156-1.386.668-2.207 1.617-3.207 1.07-.566 2.114-.554 3.297-.566Zm0 0"/><path d="M9.55 21.39c-.609 0-1.062-.144-1.35-.437q-.44-.436-.438-1.351v-1.84c0-.617.14-1.07.433-1.364.293-.293.739-.437 1.348-.43h.965c.504 0 .883.102 1.148.31.266.21.418.53.461.98q.024.17-.062.254-.088.088-.258.09-.302.001-.352-.336c-.023-.246-.11-.407-.25-.496q-.215-.127-.683-.125h-.965c-.281 0-.508.027-.668.093a.6.6 0 0 0-.34.348c-.07.16-.105.39-.105.676v1.84q0 .43.105.671.098.248.344.348.245.101.672.102h.96q.47 0 .68-.13.218-.133.254-.495c.031-.223.153-.336.352-.336q.17.002.258.086c.054.058.078.144.062.257q-.063.673-.46.98c-.266.204-.645.306-1.15.306Zm4.305 0q-.334.002-.335-.335v-4.75c0-.227.113-.336.335-.336q.222 0 .368.219l1.89 2.835-.144.028 1.902-2.863a.45.45 0 0 1 .406-.22q.272-.002.274.337v4.75q0 .337-.336.336-.335.002-.336-.336v-4.078l.207.07-1.68 2.473a.47.47 0 0 1-.41.214c-.121 0-.23-.074-.324-.214l-1.68-2.473.195.058v3.95c0 .226-.109.336-.335.336Zm6.695 0q-.334.002-.335-.335v-4.75c0-.227.113-.336.336-.336h1.926q1.044 0 1.539.492.492.491.492 1.539v1.36q-.001 1.044-.488 1.538c-.329.332-.844.493-1.543.493Zm.337-.671h1.59q.515.001.808-.125.298-.123.426-.422c.086-.2.125-.465.125-.809v-1.36q.001-.508-.125-.808a.78.78 0 0 0-.426-.425q-.293-.127-.808-.125h-1.59v4.078Zm0 0"/></svg>