<svg xmlns="http://www.w3.org/2000/svg" width="60" height="60" viewBox="0 0 60 60"><path d="M37.262 5.762C43.32 8.699 47.34 10.32 51.48 11.398c2.942.782 3 .84 1.622 9.602-1.5 10.078-5.16 18.66-11.223 26.219-2.457 3.12-8.277 8.402-11.16 10.02C28.62 58.44 18.422 49.14 14.16 42.12 9.898 35.038 7.078 26.16 6.3 16.8l-.421-4.5 5.223-1.742c2.878-.899 7.976-3 11.34-4.618C25.737 4.321 29.218 3 30.058 3s4.082 1.262 7.203 2.762M21.3 3.84c-6.36 3.058-9.66 4.32-15.242 5.762l-2.637.718.418 5.82c.719 11.7 4.68 22.801 11.281 31.5 3.117 4.2 9.059 9.481 12.777 11.52 2.043 1.078 2.16 1.078 4.32-.058 3.481-1.922 10.5-8.82 13.923-13.801 5.879-8.461 9.238-18.422 10.02-29.403l.417-5.578-2.637-.718c-5.52-1.383-8.82-2.704-15.18-5.762C34.5 1.738 31.38.602 30 .602s-4.5 1.136-8.7 3.238"/><path fill="none" stroke="#000" stroke-linejoin="round" stroke-miterlimit="10" stroke-width="1.2" d="M26.879 24.422V13.98l-10.5 1.5v8.942Zm0 1.558h-10.5v8.942l10.5 1.5Zm1.562 0v10.68l15.18 2.16V25.98Zm0 0"/><path stroke="#000" stroke-miterlimit="10" stroke-width=".3" d="M33.602 12.422c-1.204-.121-2.403.18-3.364.957a4.28 4.28 0 0 0-1.68 3 4.6 4.6 0 0 0 1.02 3.36c.781.96 1.863 1.562 3.063 1.683a4.43 4.43 0 0 0 2.757-.543.58.58 0 0 1 .063-.54 4.66 4.66 0 0 1-2.7.661c-2.28-.238-3.96-2.34-3.722-4.559a3.8 3.8 0 0 1 .54-1.62c.78-1.321 2.343-2.16 4.023-1.981 2.218.238 3.84 2.219 3.718 4.379a.52.52 0 0 1 .418 0 4.28 4.28 0 0 0-1.02-3.059c-.84-1.02-1.917-1.62-3.116-1.738Zm0 0"/><path stroke="#000" stroke-miterlimit="10" stroke-width=".3" d="M43.8 23.281c0 .059-.062.117-.12.117l-1.559.122H42l-.36-.18c-.062 0-.062-.059-.062-.059l-.117-.18-.36.118h-.18c-.062 0-.062-.059-.12-.117l-.121-.422-.418.058c-.063 0-.121 0-.184-.058l-.117-.121-.063-.36-.476.063c-.121 0-.242-.063-.242-.184l-.059-.297-.3.117h-.18L36.6 20.52l-.3.539c-.063.12-.18.242-.36.242-.18.058-.363 0-.543-.063-.296-.18-.238-.66-.238-.777v-.063l1.86-3.18c.058-.116.242-.238.421-.238q.27 0 .54.18c.238.18.3.54.12.84l-.242.36 5.282 3.18c.058 0 .058.062.12.12l.598 1.5s0 .059-.058.121Zm-1.679-.18 1.2-.12-.481-1.141-5.399-3.238c-.12-.063-.12-.18-.062-.301l.3-.54c.06-.12.06-.241 0-.3-.058-.063-.12-.063-.179-.063 0 0-.059 0-.121.063l-1.86 3.117c0 .121 0 .3.06.3.062.063.12.063.183 0 0 0 .058 0 .117-.058l.422-.718c.058-.122.18-.122.3-.063l2.22 1.32.417-.12h.184c.058.062.117.062.117.12l.063.301.476-.058c.121 0 .242.058.242.18l.059.359.422-.063c.12 0 .238.063.238.121l.121.36.3-.118c.118 0 .18 0 .24.118l.179.3Zm-9.84-7.863-1.14 1.864c-.063.117-.243.238-.36.296-.18.063-.36 0-.48-.058-.301-.18-.422-.602-.242-.899l1.14-1.863c.063-.117.242-.238.36-.297.18-.062.363 0 .48.059.18.12.242.238.3.422.06.18.06.36-.058.476Zm-2.043 1.383a.427.427 0 0 0 .184.598.46.46 0 0 0 .598-.117l1.14-1.864c.121-.18.059-.476-.18-.597a.463.463 0 0 0-.601.12Zm0 0"/><path stroke="#000" stroke-miterlimit="10" stroke-width=".3" d="M42.18 22.02c0 .058-.121.058-.121.058l-.36-.238c-.058-.059-.058-.121-.058-.121 0-.059.12-.059.12-.059l.36.238c.059 0 .059.063.059.122Zm-1.14-.66c0 .062-.118.062-.118.062l-.543-.3c-.059-.063-.059-.122-.059-.122 0-.059.121-.059.121-.059l.54.297c.058 0 .12.063.058.121Zm-1.259-.782c0 .063-.12.063-.12.063l-2.4-1.442c-.062 0-.12-.058-.062-.12.063-.06.121-.06.121-.06l2.399 1.442c.062 0 .062.117.062.117Zm0 0"/><path fill="#fff" stroke="#000" stroke-miterlimit="10" stroke-width=".3" d="m35.04 15.36.179.12c.242.122.422.36.543.54"/><path stroke="#000" stroke-miterlimit="10" stroke-width=".3" d="M35.879 16.078q0 .094 0 0c-.117.063-.18.063-.18 0-.12-.238-.3-.36-.48-.476l-.18-.122c-.059-.058-.059-.12-.059-.12 0-.06.122-.06.122-.06l.18.122c.238.117.417.36.597.598zm0 1.5-.84 1.442c-.418.718-1.379.96-2.16.539l-.238-.118a1.556 1.556 0 0 1-.54-2.16l.899-1.5c.3-.48.84-.781 1.379-.722.062 0 .121.062.121.12 0 .06-.059.122-.121.122-.48 0-.957.238-1.2.66l-.96 1.437c-.36.66-.18 1.442.48 1.864l.242.117c.66.36 1.5.18 1.86-.48l.84-1.438c0-.063.12-.063.12-.063.118.063.118.122.118.18Zm0 0"/></svg>