<svg xmlns="http://www.w3.org/2000/svg" width="64" height="64"><path d="M19 19h26v26H19zm2 3v5h22v-5c-1.59-1.59-3.239-1.13-5.437-1.133l-2.711-.004-2.852.012-2.852-.012-2.71.004-2.504.004c-1.94-.084-1.94-.084-2.934 1.129m0 7v6h22v-6zm0 8v5c1.59 1.59 3.239 1.13 5.438 1.133l2.71.004L32 43.125l2.852.012 2.71-.004 2.504-.004c1.94.084 1.94.084 2.934-1.129v-5zm26-26c7 0 7 0 8.926 1.082 1.616 2.885 1.359 5.333 1.261 8.606l-.082 3.574L57 27h6v2h-6v6h6v2h-6l.105 2.738.083 3.575.105 3.55C57 50 57 50 55.926 51.918 54 53 54 53 47 53zm2 3v36l5-1c1.806-5.418 1.185-11.269 1.188-16.937l.037-3.905.005-3.748.013-3.433C55.007 18.089 54.503 16.44 53 14zm-32-3v42c-7 0-7 0-8.926-1.082-1.616-2.885-1.359-5.333-1.261-8.605l.082-3.575L7 37H1v-2h6v-6H1v-2h6l-.105-2.738-.082-3.575-.106-3.55C7 14 7 14 8.074 12.082 10 11 10 11 17 11m-6 3c-2.148 3.497-2.257 6.312-2.266 10.375l-.007 3.734L8.75 32l-.023 3.89.007 3.735.007 3.414C8.992 45.91 9.508 47.571 11 50h4V14zm18 33h6c4 6.75 4 6.75 4 9h-4v7h-2V50h-2v13h-2v-7h-4c1.199-3.083 2.477-6.063 4-9m0-46h2v13h2V1h2v7h4c-1.199 3.083-2.477 6.063-4 9h-6c-4-6.75-4-6.75-4-9h4z"/><path d="M51 46h2v2h-2zm0-4h2v2h-2zm-20-3h2v2h-2zm-4 0h2v2h-2zm-4 0h2v2h-2zm28-1h2v2h-2zm-12-7h2v2h-2zm-4 0h2v2h-2zm-4 0h2v2h-2zm0-8h2v2h-2zm-4 0h2v2h-2zm-4 0h2v2h-2zm-12 0h2v2h-2zm0-4h2v2h-2zm0-4h2v2h-2z"/></svg>