<?xml version="1.0" encoding="UTF-8"?>
<svg version="1.1" xmlns="http://www.w3.org/2000/svg" width="64" height="64">
<path d="M0 0 C8.58 0 17.16 0 26 0 C26 8.58 26 17.16 26 26 C17.42 26 8.84 26 0 26 C0 17.42 0 8.84 0 0 Z M2 3 C2 4.65 2 6.3 2 8 C9.26 8 16.52 8 24 8 C24 6.35 24 4.7 24 3 C22.41062444 1.41062444 20.76100154 1.87018857 18.5625 1.8671875 C17.66789062 1.86589844 16.77328125 1.86460938 15.8515625 1.86328125 C14.44003906 1.86908203 14.44003906 1.86908203 13 1.875 C12.05898438 1.87113281 11.11796875 1.86726563 10.1484375 1.86328125 C8.80652344 1.86521484 8.80652344 1.86521484 7.4375 1.8671875 C6.19806641 1.86887939 6.19806641 1.86887939 4.93359375 1.87060547 C2.99320961 1.78735193 2.99320961 1.78735193 2 3 Z M2 10 C2 11.98 2 13.96 2 16 C9.26 16 16.52 16 24 16 C24 14.02 24 12.04 24 10 C16.74 10 9.48 10 2 10 Z M2 18 C2 19.65 2 21.3 2 23 C3.58937556 24.58937556 5.23899846 24.12981143 7.4375 24.1328125 C8.77941406 24.13474609 8.77941406 24.13474609 10.1484375 24.13671875 C11.55996094 24.13091797 11.55996094 24.13091797 13 24.125 C13.94101562 24.12886719 14.88203125 24.13273437 15.8515625 24.13671875 C16.74617188 24.13542969 17.64078125 24.13414063 18.5625 24.1328125 C19.80193359 24.13112061 19.80193359 24.13112061 21.06640625 24.12939453 C23.00679039 24.21264807 23.00679039 24.21264807 24 23 C24 21.35 24 19.7 24 18 C16.74 18 9.48 18 2 18 Z " fill="#000000" transform="translate(19,19)"/>
<path d="M0 0 C7 0 7 0 8.92578125 1.08203125 C10.54161173 3.96702313 10.28470623 6.4148901 10.1875 9.6875 C10.16042969 10.86699219 10.13335937 12.04648437 10.10546875 13.26171875 C10.07066406 14.16535156 10.03585938 15.06898437 10 16 C11.98 16 13.96 16 16 16 C16 16.66 16 17.32 16 18 C14.02 18 12.04 18 10 18 C10 19.98 10 21.96 10 24 C11.98 24 13.96 24 16 24 C16 24.66 16 25.32 16 26 C14.02 26 12.04 26 10 26 C10.03480469 26.90363281 10.06960937 27.80726562 10.10546875 28.73828125 C10.13253906 29.91777344 10.15960938 31.09726562 10.1875 32.3125 C10.22230469 33.48425781 10.25710937 34.65601563 10.29296875 35.86328125 C10 39 10 39 8.92578125 40.91796875 C7 42 7 42 0 42 C0 28.14 0 14.28 0 0 Z M2 3 C2 14.88 2 26.76 2 39 C4.475 38.505 4.475 38.505 7 38 C8.80591979 32.58224062 8.18467264 26.73136472 8.1875 21.0625 C8.19974609 19.77408203 8.21199219 18.48566406 8.22460938 17.15820312 C8.22654297 15.92134766 8.22847656 14.68449219 8.23046875 13.41015625 C8.23457764 12.27715088 8.23868652 11.14414551 8.24291992 9.97680664 C8.00724647 7.08880026 7.50363523 5.44000852 6 3 C4.68 3 3.36 3 2 3 Z " fill="#000000" transform="translate(47,11)"/>
<path d="M0 0 C0 13.86 0 27.72 0 42 C-7 42 -7 42 -8.92578125 40.91796875 C-10.54161173 38.03297687 -10.28470623 35.5851099 -10.1875 32.3125 C-10.14689453 30.54326172 -10.14689453 30.54326172 -10.10546875 28.73828125 C-10.07066406 27.83464844 -10.03585938 26.93101563 -10 26 C-11.98 26 -13.96 26 -16 26 C-16 25.34 -16 24.68 -16 24 C-14.02 24 -12.04 24 -10 24 C-10 22.02 -10 20.04 -10 18 C-11.98 18 -13.96 18 -16 18 C-16 17.34 -16 16.68 -16 16 C-14.02 16 -12.04 16 -10 16 C-10.03480469 15.09636719 -10.06960937 14.19273438 -10.10546875 13.26171875 C-10.13253906 12.08222656 -10.15960937 10.90273438 -10.1875 9.6875 C-10.22230469 8.51574219 -10.25710937 7.34398437 -10.29296875 6.13671875 C-10 3 -10 3 -8.92578125 1.08203125 C-7 0 -7 0 0 0 Z M-6 3 C-8.14751732 6.49744628 -8.25748984 9.31206785 -8.265625 13.375 C-8.26820312 14.60734375 -8.27078125 15.8396875 -8.2734375 17.109375 C-8.26570312 18.39328125 -8.25796875 19.6771875 -8.25 21 C-8.25773438 22.28390625 -8.26546875 23.5678125 -8.2734375 24.890625 C-8.27085938 26.12296875 -8.26828125 27.3553125 -8.265625 28.625 C-8.26336914 29.75164063 -8.26111328 30.87828125 -8.25878906 32.0390625 C-8.00791555 34.90943418 -7.49176307 36.57051496 -6 39 C-4.68 39 -3.36 39 -2 39 C-2 27.12 -2 15.24 -2 3 C-3.32 3 -4.64 3 -6 3 Z " fill="#000000" transform="translate(17,11)"/>
<path d="M0 0 C1.98 0 3.96 0 6 0 C10 6.75 10 6.75 10 9 C8.68 9 7.36 9 6 9 C6 11.31 6 13.62 6 16 C5.34 16 4.68 16 4 16 C4 11.71 4 7.42 4 3 C3.34 3 2.68 3 2 3 C2 7.29 2 11.58 2 16 C1.34 16 0.68 16 0 16 C0 13.69 0 11.38 0 9 C-1.32 9 -2.64 9 -4 9 C-2.80100302 5.9168649 -1.52299523 2.93720508 0 0 Z " fill="#000000" transform="translate(29,47)"/>
<path d="M0 0 C0.66 0 1.32 0 2 0 C2 4.29 2 8.58 2 13 C2.66 13 3.32 13 4 13 C4 8.71 4 4.42 4 0 C4.66 0 5.32 0 6 0 C6 2.31 6 4.62 6 7 C7.32 7 8.64 7 10 7 C8.80100302 10.0831351 7.52299523 13.06279492 6 16 C4.02 16 2.04 16 0 16 C-4 9.25 -4 9.25 -4 7 C-2.68 7 -1.36 7 0 7 C0 4.69 0 2.38 0 0 Z " fill="#000000" transform="translate(29,1)"/>
<path d="M0 0 C0.66 0 1.32 0 2 0 C2 0.66 2 1.32 2 2 C1.34 2 0.68 2 0 2 C0 1.34 0 0.68 0 0 Z " fill="#000000" transform="translate(51,46)"/>
<path d="M0 0 C0.66 0 1.32 0 2 0 C2 0.66 2 1.32 2 2 C1.34 2 0.68 2 0 2 C0 1.34 0 0.68 0 0 Z " fill="#000000" transform="translate(51,42)"/>
<path d="M0 0 C0.66 0 1.32 0 2 0 C2 0.66 2 1.32 2 2 C1.34 2 0.68 2 0 2 C0 1.34 0 0.68 0 0 Z " fill="#000000" transform="translate(31,39)"/>
<path d="M0 0 C0.66 0 1.32 0 2 0 C2 0.66 2 1.32 2 2 C1.34 2 0.68 2 0 2 C0 1.34 0 0.68 0 0 Z " fill="#000000" transform="translate(27,39)"/>
<path d="M0 0 C0.66 0 1.32 0 2 0 C2 0.66 2 1.32 2 2 C1.34 2 0.68 2 0 2 C0 1.34 0 0.68 0 0 Z " fill="#000000" transform="translate(23,39)"/>
<path d="M0 0 C0.66 0 1.32 0 2 0 C2 0.66 2 1.32 2 2 C1.34 2 0.68 2 0 2 C0 1.34 0 0.68 0 0 Z " fill="#000000" transform="translate(51,38)"/>
<path d="M0 0 C0.66 0 1.32 0 2 0 C2 0.66 2 1.32 2 2 C1.34 2 0.68 2 0 2 C0 1.34 0 0.68 0 0 Z " fill="#000000" transform="translate(39,31)"/>
<path d="M0 0 C0.66 0 1.32 0 2 0 C2 0.66 2 1.32 2 2 C1.34 2 0.68 2 0 2 C0 1.34 0 0.68 0 0 Z " fill="#000000" transform="translate(35,31)"/>
<path d="M0 0 C0.66 0 1.32 0 2 0 C2 0.66 2 1.32 2 2 C1.34 2 0.68 2 0 2 C0 1.34 0 0.68 0 0 Z " fill="#000000" transform="translate(31,31)"/>
<path d="M0 0 C0.66 0 1.32 0 2 0 C2 0.66 2 1.32 2 2 C1.34 2 0.68 2 0 2 C0 1.34 0 0.68 0 0 Z " fill="#000000" transform="translate(31,23)"/>
<path d="M0 0 C0.66 0 1.32 0 2 0 C2 0.66 2 1.32 2 2 C1.34 2 0.68 2 0 2 C0 1.34 0 0.68 0 0 Z " fill="#000000" transform="translate(27,23)"/>
<path d="M0 0 C0.66 0 1.32 0 2 0 C2 0.66 2 1.32 2 2 C1.34 2 0.68 2 0 2 C0 1.34 0 0.68 0 0 Z " fill="#000000" transform="translate(23,23)"/>
<path d="M0 0 C0.66 0 1.32 0 2 0 C2 0.66 2 1.32 2 2 C1.34 2 0.68 2 0 2 C0 1.34 0 0.68 0 0 Z " fill="#000000" transform="translate(11,23)"/>
<path d="M0 0 C0.66 0 1.32 0 2 0 C2 0.66 2 1.32 2 2 C1.34 2 0.68 2 0 2 C0 1.34 0 0.68 0 0 Z " fill="#000000" transform="translate(11,19)"/>
<path d="M0 0 C0.66 0 1.32 0 2 0 C2 0.66 2 1.32 2 2 C1.34 2 0.68 2 0 2 C0 1.34 0 0.68 0 0 Z " fill="#000000" transform="translate(11,15)"/>
</svg>
