<svg xmlns="http://www.w3.org/2000/svg" width="32" height="32" viewBox="0 0 32 32"><path d="m9.914 2.387.75-.012c.527-.008 1.047-.012 1.574-.012.797 0 1.59-.023 2.383-.047q4.254-.06 5.73 1.215.558.62 1.087 1.27c.457.43.914.86 1.382 1.281l1.36 1.32c.234.22.468.442.715.668q.327.323.668.653l.605.582q.393.62.293 1.492l-.223.726c-1.14.028-2.281.043-3.422.063l-.976.023q-3.006.03-4.242-1.043c-.563-1.125-.453-2.468-.516-3.707a8.4 8.4 0 0 0-.445-2.37H7.355c-.3 1.202-.359 2.116-.359 3.347v18.141q0 .936.36 1.87c.785.391 1.296.36 2.175.36h13.785q.699 0 1.32-.36c.294-.882.368-1.449.387-2.363.008-.28.012-.562.02-.855.008-.3.012-.61.016-.918l.02-.941c.023-.997.038-1.993.058-2.985.011-.676.027-1.348.039-2.023.035-1.649.07-3.305.101-4.957q.62-.176 1.282-.317c.496.496.363.989.37 1.68q.002.434.009.879c0 .316 0 .629.003.957 0 .324.004.644.004.976 0 .684.008 1.368.008 2.055 0 1.043.012 2.09.024 3.133 0 .668.003 1.328.003 1.996.004.313.008.625.016.945q-.012 2.767-1.078 4.016c-1 .902-1.645 1.082-2.984 1.098-.34.004-.676.007-1.032.015h-1.105c-.379 0-.754.004-1.14.004q-1.198.006-2.395 0c-1.219 0-2.438.016-3.66.028h-2.325c-.367.003-.73.007-1.105.015q-2.825-.024-4.004-.957c-1.129-1.3-1.098-2.277-1.106-3.95 0-.218 0-.433-.007-.655 0-.715-.004-1.426-.008-2.145q-.001-.744-.008-1.488c-.004-1.047-.004-2.086-.004-3.13 0-1.331-.012-2.667-.02-4.003-.007-1.027-.007-2.055-.011-3.082 0-.492-.004-.98-.004-1.473a91 91 0 0 1 0-2.066c0-.39 0-.781-.004-1.184.156-1.386.668-2.207 1.617-3.207 1.07-.566 2.114-.554 3.297-.566Zm0 0"/><path d="M10.805 21.39q-.335.002-.336-.335v-4.75c0-.227.113-.336.336-.336h1.875q.728 0 1.12.39.392.388.391 1.121v.243q0 .727-.39 1.12-.388.392-1.121.391h-1.54v1.825c0 .222-.109.336-.335.336Zm.336-2.831h1.539q.45 0 .644-.192.194-.194.192-.644v-.243q0-.45-.192-.644c-.129-.133-.344-.195-.644-.195h-1.54Zm5.589 2.831q-.685 0-1.066-.273-.382-.276-.476-.851-.018-.175.07-.262a.35.35 0 0 1 .254-.09c.113 0 .195.023.25.078a.5.5 0 0 1 .105.25c.035.184.125.313.258.38q.198.1.605.1h1.153c.344 0 .578-.058.699-.183q.188-.186.188-.695-.001-.512-.196-.707-.187-.194-.691-.192h-.992c-.508 0-.88-.12-1.125-.37-.243-.247-.364-.618-.364-1.126q0-.755.36-1.117.365-.363 1.117-.363h.953q.639 0 .996.258.364.257.457.796.024.176-.062.262c-.059.063-.149.09-.266.09-.105 0-.187-.027-.238-.082a.45.45 0 0 1-.11-.242.46.46 0 0 0-.242-.324q-.18-.087-.539-.086h-.953q-.475.002-.64.168c-.11.113-.165.328-.165.636 0 .313.059.532.168.653q.171.175.653.175h.992q.785-.002 1.172.383.387.381.386 1.184c0 .535-.125.922-.382 1.176q-.381.375-1.172.375Zm4.766 0q-.335.002-.336-.335V16.93l.188-.13-.88.821a.4.4 0 0 1-.21.117q-.112.017-.223-.09-.215-.215.027-.453l1.07-1.058a.57.57 0 0 1 .415-.168q.29-.002.289.336v4.75q.002.337-.336.336Zm0 0"/></svg>