<svg xmlns="http://www.w3.org/2000/svg" width="32" height="32" viewBox="0 0 32 32"><path d="m9.914 2.387.75-.012c.527-.008 1.047-.012 1.574-.012.797 0 1.59-.023 2.383-.047q4.254-.06 5.73 1.215.558.62 1.087 1.27c.457.43.914.86 1.382 1.281l1.36 1.32c.234.22.468.442.715.668q.327.323.668.653l.605.582q.393.62.293 1.492l-.223.726c-1.14.028-2.281.043-3.422.063l-.976.023q-3.006.03-4.242-1.043c-.563-1.125-.453-2.468-.516-3.707a8.4 8.4 0 0 0-.445-2.37H7.355c-.3 1.202-.359 2.116-.359 3.347v18.141q0 .936.36 1.87c.785.391 1.296.36 2.175.36h13.785q.699 0 1.32-.36c.294-.882.368-1.449.387-2.363.008-.28.012-.562.02-.855.008-.3.012-.61.016-.918l.02-.941c.023-.997.038-1.993.058-2.985.011-.676.027-1.348.039-2.023.035-1.649.07-3.305.101-4.957q.62-.176 1.282-.317c.496.496.363.989.37 1.68q.002.434.009.879c0 .316 0 .629.003.957 0 .324.004.644.004.976 0 .684.008 1.368.008 2.055 0 1.043.012 2.09.024 3.133 0 .668.003 1.328.003 1.996.004.313.008.625.016.945q-.012 2.767-1.078 4.016c-1 .902-1.645 1.082-2.984 1.098-.34.004-.676.007-1.032.015h-1.105c-.379 0-.754.004-1.14.004q-1.198.006-2.395 0c-1.219 0-2.438.016-3.66.028h-2.325c-.367.003-.73.007-1.105.015q-2.825-.024-4.004-.957c-1.129-1.3-1.098-2.277-1.106-3.95 0-.218 0-.433-.007-.655 0-.715-.004-1.426-.008-2.145q-.001-.744-.008-1.488c-.004-1.047-.004-2.086-.004-3.13 0-1.331-.012-2.667-.02-4.003-.007-1.027-.007-2.055-.011-3.082 0-.492-.004-.98-.004-1.473a91 91 0 0 1 0-2.066c0-.39 0-.781-.004-1.184.156-1.386.668-2.207 1.617-3.207 1.07-.566 2.114-.554 3.297-.566Zm0 0"/><path d="M12.828 21.406q-.13.083-.254.055a.38.38 0 0 1-.203-.164L11.13 19.23h-1.121v1.825q.001.337-.336.336-.335.002-.336-.336v-4.75c0-.227.113-.336.336-.336h1.875q.728 0 1.121.39.392.388.39 1.121v.243q.001.635-.296 1.011-.3.38-.856.473l1.047 1.746q.153.283-.129.453Zm-2.816-2.847h1.535q.457 0 .648-.192.194-.194.192-.644v-.243q0-.45-.192-.644c-.129-.133-.343-.195-.648-.195h-1.535Zm4.668 2.831c-.227 0-.336-.109-.336-.335v-4.75c0-.227.11-.336.336-.336h2.867q.34-.002.34.336 0 .334-.34.336h-2.531v1.68h1.59q.334.001.335.335 0 .335-.336.336h-1.59v1.727h2.532q.34 0 .34.336 0 .337-.34.336Zm5.925 0q-.918.001-1.355-.437-.436-.436-.437-1.351v-1.84q0-.924.433-1.364.44-.44 1.348-.43h.968q.75-.001 1.149.31c.266.21.414.53.46.98q.024.17-.066.254-.082.088-.253.09-.305.002-.352-.336c-.027-.246-.113-.407-.254-.496q-.216-.127-.68-.125h-.968c-.282 0-.504.027-.664.093a.63.63 0 0 0-.348.348c-.066.16-.102.39-.102.676v1.84q.002.43.102.671a.62.62 0 0 0 .348.348q.245.101.671.102h.961q.371 0 .582-.082a.5.5 0 0 0 .293-.293c.055-.137.082-.336.082-.586v-.38l-.62-.007q-.339.002-.337-.336-.002-.335.336-.336l.957.012c.227 0 .336.11.336.336v.71c0 .567-.129.985-.394 1.243q-.398.392-1.235.39h-.96Zm0 0"/></svg>