<?xml version="1.0" encoding="UTF-8"?>
<svg version="1.1" xmlns="http://www.w3.org/2000/svg" width="60" height="60">
<path d="M0 0 C1.17433594 0.01417969 2.34867188 0.02835938 3.55859375 0.04296875 C5.32396484 0.05263672 5.32396484 0.05263672 7.125 0.0625 C9.99609375 0.23046875 9.99609375 0.23046875 10.99609375 1.23046875 C11.14002832 5.56577793 11.03821436 9.89204606 10.99609375 14.23046875 C15.28609375 14.23046875 19.57609375 14.23046875 23.99609375 14.23046875 C23.99609375 18.52046875 23.99609375 22.81046875 23.99609375 27.23046875 C27.18265625 27.19953125 27.18265625 27.19953125 30.43359375 27.16796875 C32.62108986 27.14673092 34.80969922 27.15787929 36.99609375 27.23046875 C38.86853356 29.10290856 38.16989767 32.16706393 38.18359375 34.66796875 C38.19777344 35.84230469 38.21195313 37.01664063 38.2265625 38.2265625 C37.99609375 41.23046875 37.99609375 41.23046875 35.99609375 43.23046875 C33.0786024 43.43045199 30.25807446 43.51021762 27.33984375 43.49609375 C26.48177124 43.4980072 25.62369873 43.49992065 24.73962402 43.50189209 C22.92390653 43.50325419 21.1081793 43.49955603 19.29248047 43.49121094 C16.50726525 43.48051166 13.72269507 43.49110528 10.9375 43.50390625 C9.17577982 43.50258466 7.41406004 43.50002228 5.65234375 43.49609375 C4.81586304 43.50014221 3.97938232 43.50419067 3.11755371 43.50836182 C-2.77398791 43.46038709 -2.77398791 43.46038709 -5.00390625 41.23046875 C-5.20388949 38.3129774 -5.28365512 35.49244946 -5.26953125 32.57421875 C-5.2714447 31.71614624 -5.27335815 30.85807373 -5.27532959 29.97399902 C-5.27669169 28.15828153 -5.27299353 26.3425543 -5.26464844 24.52685547 C-5.25394916 21.74164025 -5.26454278 18.95707007 -5.27734375 16.171875 C-5.27602216 14.41015482 -5.27345978 12.64843504 -5.26953125 10.88671875 C-5.27357971 10.05023804 -5.27762817 9.21375732 -5.28179932 8.35192871 C-5.21704907 0.40026774 -5.21704907 0.40026774 0 0 Z M-2.00390625 3.23046875 C-2.00390625 6.86046875 -2.00390625 10.49046875 -2.00390625 14.23046875 C1.62609375 14.23046875 5.25609375 14.23046875 8.99609375 14.23046875 C8.99609375 10.60046875 8.99609375 6.97046875 8.99609375 3.23046875 C5.36609375 3.23046875 1.73609375 3.23046875 -2.00390625 3.23046875 Z M-2.00390625 16.23046875 C-2.00390625 19.86046875 -2.00390625 23.49046875 -2.00390625 27.23046875 C1.62609375 27.23046875 5.25609375 27.23046875 8.99609375 27.23046875 C8.99609375 23.60046875 8.99609375 19.97046875 8.99609375 16.23046875 C5.36609375 16.23046875 1.73609375 16.23046875 -2.00390625 16.23046875 Z M10.99609375 16.23046875 C10.99609375 19.86046875 10.99609375 23.49046875 10.99609375 27.23046875 C14.62609375 27.23046875 18.25609375 27.23046875 21.99609375 27.23046875 C21.99609375 23.60046875 21.99609375 19.97046875 21.99609375 16.23046875 C18.36609375 16.23046875 14.73609375 16.23046875 10.99609375 16.23046875 Z M-2.00390625 29.23046875 C-2.00390625 32.86046875 -2.00390625 36.49046875 -2.00390625 40.23046875 C1.62609375 40.23046875 5.25609375 40.23046875 8.99609375 40.23046875 C8.99609375 36.60046875 8.99609375 32.97046875 8.99609375 29.23046875 C5.36609375 29.23046875 1.73609375 29.23046875 -2.00390625 29.23046875 Z M10.99609375 29.23046875 C10.99609375 32.86046875 10.99609375 36.49046875 10.99609375 40.23046875 C14.62609375 40.23046875 18.25609375 40.23046875 21.99609375 40.23046875 C21.99609375 36.60046875 21.99609375 32.97046875 21.99609375 29.23046875 C18.36609375 29.23046875 14.73609375 29.23046875 10.99609375 29.23046875 Z M23.99609375 29.23046875 C23.99609375 32.86046875 23.99609375 36.49046875 23.99609375 40.23046875 C27.62609375 40.23046875 31.25609375 40.23046875 34.99609375 40.23046875 C34.99609375 36.60046875 34.99609375 32.97046875 34.99609375 29.23046875 C31.36609375 29.23046875 27.73609375 29.23046875 23.99609375 29.23046875 Z " fill="#000000" transform="translate(6.00390625,15.76953125)"/>
<path d="M0 0 C2.63980805 1.3851896 3.34201709 3.11020113 4.62890625 5.765625 C5.06847656 6.63832031 5.50804688 7.51101562 5.9609375 8.41015625 C6.81640625 10.953125 6.81640625 10.953125 6.78515625 13.09765625 C5.31959514 15.90467855 3.35245091 16.55288249 0.50390625 17.828125 C-0.94435547 18.50488281 -0.94435547 18.50488281 -2.421875 19.1953125 C-5.18359375 19.953125 -5.18359375 19.953125 -7.3984375 19.359375 C-9.59600242 17.62825165 -10.35673455 16.15062197 -11.43359375 13.578125 C-11.76875 12.80726562 -12.10390625 12.03640625 -12.44921875 11.2421875 C-13.18359375 8.953125 -13.18359375 8.953125 -13.18359375 4.953125 C-11.44064697 4.08465669 -9.68890712 3.23381873 -7.93359375 2.390625 C-6.9590625 1.91496094 -5.98453125 1.43929688 -4.98046875 0.94921875 C-2.18359375 -0.046875 -2.18359375 -0.046875 0 0 Z M-10.18359375 6.953125 C-8.86359375 10.253125 -7.54359375 13.553125 -6.18359375 16.953125 C-3.21359375 15.633125 -0.24359375 14.313125 2.81640625 12.953125 C2.25911712 9.60939025 1.46466736 6.91999501 -0.18359375 3.953125 C-4.05055053 3.953125 -6.69243895 5.37222471 -10.18359375 6.953125 Z " fill="#000000" transform="translate(50.18359375,22.046875)"/>
<path d="M0 0 C3.87867354 2.13327045 6.87545277 4.80439505 9.5 8.375 C9.875 10.875 9.875 10.875 8.5 13.375 C3.26100629 20.11084906 3.26100629 20.11084906 -1 20.75 C-4.87867354 18.61672955 -7.87545277 15.94560495 -10.5 12.375 C-10.875 9.875 -10.875 9.875 -9.5 7.375 C-4.26100629 0.63915094 -4.26100629 0.63915094 0 0 Z M-1.5 3.375 C-3.07840572 4.93205194 -3.07840572 4.93205194 -4.625 6.875 C-5.16382813 7.5246875 -5.70265625 8.174375 -6.2578125 8.84375 C-6.66773438 9.3490625 -7.07765625 9.854375 -7.5 10.375 C-5.52 12.355 -3.54 14.335 -1.5 16.375 C2.2952131 14.88402342 4.11042731 12.61799151 6.5 9.375 C5.5479279 8.36903703 4.58812654 7.37038437 3.625 6.375 C2.82449219 5.5396875 2.82449219 5.5396875 2.0078125 4.6875 C0.58175012 3.15614478 0.58175012 3.15614478 -1.5 3.375 Z " fill="#000000" transform="translate(30.5,5.625)"/>
<path d="M0 0 C1.76150391 -0.02126953 1.76150391 -0.02126953 3.55859375 -0.04296875 C6.5625 0.1875 6.5625 0.1875 8.5625 2.1875 C8.79296875 5.19140625 8.79296875 5.19140625 8.75 8.75 C8.74355469 9.92691406 8.73710938 11.10382812 8.73046875 12.31640625 C8.5625 15.1875 8.5625 15.1875 7.5625 16.1875 C5.03200598 16.26063567 2.52945163 16.27997527 0 16.25 C-0.71091797 16.24548828 -1.42183594 16.24097656 -2.15429688 16.23632812 C-3.91540013 16.22450864 -5.67646036 16.20657263 -7.4375 16.1875 C-7.46435095 13.70826199 -7.48426547 11.2293116 -7.5 8.75 C-7.51256836 7.68942383 -7.51256836 7.68942383 -7.52539062 6.60742188 C-7.53403588 4.80056441 -7.48970011 2.99362397 -7.4375 1.1875 C-5.56506019 -0.68493981 -2.50090482 0.01369608 0 0 Z M-5.4375 3.1875 C-5.4375 6.8175 -5.4375 10.4475 -5.4375 14.1875 C-1.8075 14.1875 1.8225 14.1875 5.5625 14.1875 C5.5625 10.5575 5.5625 6.9275 5.5625 3.1875 C1.9325 3.1875 -1.6975 3.1875 -5.4375 3.1875 Z " fill="#000000" transform="translate(50.4375,0.8125)"/>
<path d="M0 0 C0.99 0 1.98 0 3 0 C3 1.65 3 3.3 3 5 C2.01 5 1.02 5 0 5 C0 3.35 0 1.7 0 0 Z " fill="#000000" transform="translate(36,50)"/>
<path d="M0 0 C0.99 0 1.98 0 3 0 C3 1.65 3 3.3 3 5 C2.01 5 1.02 5 0 5 C0 3.35 0 1.7 0 0 Z " fill="#000000" transform="translate(23,50)"/>
<path d="M0 0 C0.99 0 1.98 0 3 0 C3 1.65 3 3.3 3 5 C2.01 5 1.02 5 0 5 C0 3.35 0 1.7 0 0 Z " fill="#000000" transform="translate(5,50)"/>
<path d="M0 0 C0.66 0 1.32 0 2 0 C2 1.65 2 3.3 2 5 C1.01 4.67 0.02 4.34 -1 4 C-0.67 2.68 -0.34 1.36 0 0 Z " fill="#000000" transform="translate(32,50)"/>
<path d="M0 0 C0.66 0 1.32 0 2 0 C2 1.65 2 3.3 2 5 C1.01 4.67 0.02 4.34 -1 4 C-0.67 2.68 -0.34 1.36 0 0 Z " fill="#000000" transform="translate(19,50)"/>
<path d="M0 0 C0.99 0.33 1.98 0.66 3 1 C2.67 2.32 2.34 3.64 2 5 C1.34 5 0.68 5 0 5 C0 3.35 0 1.7 0 0 Z " fill="#000000" transform="translate(10,50)"/>
</svg>
