<svg xmlns="http://www.w3.org/2000/svg" width="60" height="60" viewBox="0 0 60 60"><path d="M3.66 1.95c-1.031.952-.555 3.331.711 4.042 1.11.633 1.664 4.758 3.41 23.621 1.188 12.606 2.617 23.7 3.09 24.653 1.984 3.644 4.598 4.199 19.184 4.199s17.203-.555 19.183-4.2c.477-.953 1.903-12.046 3.012-24.574 1.824-19.261 2.375-22.984 3.566-23.859.715-.55 1.27-1.664 1.032-2.535-.239-1.43-1.27-1.508-26.477-1.742-14.426-.082-26.394.078-26.71.394M53.145 6.5c-.282 1.113-1.41 11.828-2.536 23.832-1.312 14.398-2.441 22.543-3.285 23.746-1.312 1.883-1.781 1.969-17.27 1.969-15.484 0-15.956-.086-17.269-1.969-.844-1.203-1.969-9.344-3.285-23.746C8.375 18.328 7.25 7.613 6.965 6.5L6.59 4.613h46.93Zm0 0"/><path d="M26.844 17.813c-1.489 1.878-1.594 1.949-2.867 1.738-1.313-.215-1.348-.215-2.235 1.488-.492 1.063-1.449 2.16-2.3 2.727l-1.454 1.027v3.082c0 2.797.07 3.152.782 3.648.636.426.671.57.246.57-.602.032-3.153 3.93-3.153 4.852 0 .282.711.852 1.559 1.239 1.101.566 1.738 1.171 2.234 2.23.637 1.242 1.028 1.559 2.903 2.27l2.16.847 2.093-.707 2.055-.71 1.664 1.027c.887.57 1.805 1.03 2.02 1.03.176 0 1.629-.956 3.152-2.128 2.621-1.98 2.906-2.125 4.711-2.125 1.875 0 1.95-.035 2.906-1.45.918-1.417.953-1.523.528-3.652-.246-1.168-.707-2.726-1.063-3.433-.531-1.028-.601-1.524-.316-2.801.176-.848.672-1.95 1.027-2.512.992-1.347.887-1.773-.672-3.297l-1.383-1.343-2.375.386c-3.046.532-3.754.32-3.504-.988.211-.957.032-1.133-3.011-3.012-1.77-1.097-3.438-1.984-3.649-1.984-.25-.004-1.172.883-2.058 1.98m4.43 1.738c1.062.672 1.949 1.379 1.949 1.594 0 .175-.426 1.378-.922 2.656-1.028 2.512-.922 3.469.285 3.293.527-.07.918-.567 1.309-1.63.53-1.523.601-1.558 1.84-1.347.71.106 2.054.07 3.011-.105 1.418-.285 1.844-.215 2.375.21.531.497.531.673.106 1.348-.25.39-.672 1.664-.922 2.797-.39 1.914-.352 2.195.46 4.074 2.055 4.711 1.7 5.278-3.328 5.418-3.296.11-3.687.18-3.792.782-.106.39.105.886.425 1.132.532.391.496.497-.53 1.239-.813.57-1.274.71-1.7.425-2.871-1.734-2.586-1.699-4.926-.882-2.02.672-2.266.672-3.543.175-1.027-.39-1.558-.921-2.125-2.02-.46-.991-1.098-1.663-1.77-1.948L18.38 36.3l.672-1.098c.531-.887 1.308-1.348 3.613-2.23 2.3-.852 2.973-1.278 3.047-1.88.14-.991-.64-1.273-2.195-.741-.993.316-1.418.28-2.305-.18-1.027-.492-1.098-.672-1.098-2.442 0-1.808.07-1.949 1.383-2.835.777-.532 1.594-1.45 1.805-2.02.496-1.203.46-1.203 2.586-.46.922.32 1.914.46 2.199.355.707-.25.672-1.524-.07-1.915-.532-.316-.496-.425.21-1.449.426-.601.887-1.097.958-1.097.105 0 1.027.566 2.09 1.242m0 0"/><path d="M30.742 32.375c-1.242 1.027-1.949 1.875-1.949 2.371 0 1.203 1.133 1.063 2.832-.355l1.594-1.309 1.418.637c2.906 1.312 3.578-.672.71-2.125-.956-.496-1.949-.887-2.199-.852-.246 0-1.343.746-2.406 1.633m0 0"/></svg>