<?xml version="1.0" encoding="utf-8"?>
<!-- Generator: Adobe Illustrator 24.3.0, SVG Export Plug-In . SVG Version: 6.00 Build 0)  -->
<svg version="1.1" id="Слой_1" xmlns="http://www.w3.org/2000/svg" xmlns:xlink="http://www.w3.org/1999/xlink" x="0px" y="0px"
	 viewBox="0 0 512 512" style="enable-background:new 0 0 512 512;" xml:space="preserve">
<style type="text/css">
	.st0{fill:none;stroke:#000000;stroke-width:15;stroke-miterlimit:10;}
</style>
<polygon class="st0" points="133,469.1 379,469.1 502,256 379,42.9 133,42.9 10,256 "/>
<g transform="translate(0.000000,512.000000) scale(0.100000,-0.100000)">
	<path d="M1713.6,4055.5c-115.1-61.4-262.7-169.4-363.1-266.2c-56.7-54.3-72-72.6-77.3-92.1c-17.1-63.8,28.9-123.4,95-123.4
		c36.6,0,46.6,6.5,131.1,83.2c84.4,77.3,165.9,138.1,265.7,198.4c95,57.9,106.9,72,103.9,124c-1.8,24.8-5.9,41.3-15.3,54.3
		C1825.2,4073.2,1764.9,4082.6,1713.6,4055.5z"/>
	<path d="M3292.2,4057.2c-26.6-17.7-40.7-47.2-40.7-84.4c0-46,14.8-62.6,105.7-117.5c98.6-59.6,179.5-119.8,265.1-198.4
		c83.8-76.7,94.5-83.2,130.5-83.2c66.1,0,111.6,57.9,94.5,120.4c-17.1,63.8-252.1,258.6-424.5,352.4
		C3368.3,4076.1,3325.3,4079.7,3292.2,4057.2z"/>
	<path d="M2395.4,3879c-197.8-24.8-408.5-99.2-569.1-200.7c-176.5-111.6-337.1-272.7-445.1-447.5
		C1115,2803.3,1106.7,2244.3,1360,1811c80.3-137,192.5-271,307.6-367.8l24.8-20.7l-79.1-123.4c-75-115.7-79.7-124.6-79.7-151.7
		c0-38.4,14.2-67.3,41.9-85.6c20.1-13,27.7-14.8,60.8-12.4c30.7,1.8,41.9,5.3,54.3,16.5c8.9,8.3,49,65.5,89.7,126.9
		c40.1,62,73.8,112.8,74.4,113.3s41.9-19.5,92.1-44.3c126.9-63.2,253.9-104.5,395.5-128.1c75.6-13,275.7-18.3,360.7-9.4
		c162.9,17.1,322.9,63.8,471.7,137.6c50.2,24.8,92.1,44.9,92.1,44.3c0.6-0.6,31.9-49,69.7-107.4c93.9-144.6,99.8-150.5,155.9-150.5
		c59.6,0,98,41.3,93.9,101c-1.8,30.7-6.5,40.1-79.7,152.9l-77.3,120.4l24.8,20.1c53.7,44.3,163.5,161.2,213.7,228.5
		c147.6,196,235,411.5,269.2,664.1c10,72,10,264.5,0,336.5c-43.1,318.2-177.1,590.9-398.5,811.7
		C3314,3706.6,3033,3842.4,2721.9,3879C2631.6,3889.6,2481,3889.6,2395.4,3879z M2667.6,3687.1c279.2-28.3,517.1-137.6,716.1-330.6
		c197.2-191.3,314.7-420.3,354.2-691.3c12.4-82.1,12.4-239.1,0-324.7c-54.9-393.8-304-734.4-664.7-908.6
		c-324.7-157-700.7-156.4-1025.4,0c-345.9,167.1-589.8,488.2-658.8,867.8c-15.3,84.4-18.9,273.9-6.5,360.1
		c27.2,184.2,86.2,341.8,184.8,492.9c96.8,147.6,239.1,283.4,390.2,373.1C2171.7,3652.3,2429.1,3710.7,2667.6,3687.1z"/>
	<path d="M2507.6,3396.1c-11.2-7.1-25.4-22.4-31.9-33.7c-12.4-20.1-12.4-27.7-12.4-451.6c0-350.7,1.8-434.5,8.3-449.8
		c11.8-28.3,410.9-376.6,442.8-386.1c41.3-12.4,90.3,6.5,112.8,43.1c14.2,23.6,15.3,68.5,3,95.6c-5.3,11.2-79.7,79.7-188.3,174.7
		l-179.5,156.4l-2.4,398.5c-1.8,389.6-1.8,399.1-14.2,419.2c-18.9,32.5-45.5,47.2-85,47.2
		C2535.4,3409.6,2522.4,3406.1,2507.6,3396.1z"/>
</g>
</svg>
