<?xml version="1.0" encoding="UTF-8"?>
<svg xmlns="http://www.w3.org/2000/svg" xmlns:xlink="http://www.w3.org/1999/xlink" width="95px" height="95px" viewBox="0 0 95 95" version="1.1">
<g id="surface1">
<path style="fill:none;stroke-width:15;stroke-linecap:butt;stroke-linejoin:miter;stroke:rgb(0%,0%,0%);stroke-opacity:1;stroke-miterlimit:10;" d="M 133.010526 469.094737 L 378.989474 469.094737 L 502 256 L 378.989474 42.905263 L 133.010526 42.905263 L 10 256 Z M 133.010526 469.094737 " transform="matrix(0.185547,0,0,0.185547,0,0)"/>
<path style=" stroke:none;fill-rule:nonzero;fill:rgb(0%,0%,0%);fill-opacity:1;" d="M 31.796875 19.75 C 29.660156 20.890625 26.921875 22.894531 25.058594 24.691406 C 24.007812 25.699219 23.722656 26.039062 23.625 26.398438 C 23.304688 27.582031 24.160156 28.6875 25.386719 28.6875 C 26.066406 28.6875 26.25 28.570312 27.820312 27.144531 C 29.386719 25.710938 30.898438 24.582031 32.75 23.464844 C 34.511719 22.390625 34.734375 22.128906 34.675781 21.164062 C 34.644531 20.703125 34.566406 20.398438 34.394531 20.15625 C 33.867188 19.421875 32.746094 19.25 31.796875 19.75 Z M 31.796875 19.75 "/>
<path style=" stroke:none;fill-rule:nonzero;fill:rgb(0%,0%,0%);fill-opacity:1;" d="M 61.085938 19.71875 C 60.59375 20.046875 60.332031 20.59375 60.332031 21.285156 C 60.332031 22.140625 60.605469 22.449219 62.292969 23.464844 C 64.121094 24.570312 65.621094 25.6875 67.210938 27.148438 C 68.765625 28.570312 68.964844 28.691406 69.632812 28.691406 C 70.859375 28.691406 71.703125 27.617188 71.386719 26.457031 C 71.066406 25.273438 66.707031 21.660156 63.507812 19.917969 C 62.496094 19.371094 61.699219 19.300781 61.085938 19.71875 Z M 61.085938 19.71875 "/>
<path style=" stroke:none;fill-rule:nonzero;fill:rgb(0%,0%,0%);fill-opacity:1;" d="M 44.445312 23.027344 C 40.777344 23.488281 36.867188 24.867188 33.886719 26.75 C 30.613281 28.820312 27.632812 31.808594 25.628906 35.054688 C 20.6875 42.984375 20.535156 53.359375 25.234375 61.398438 C 26.722656 63.9375 28.804688 66.425781 30.941406 68.222656 L 31.402344 68.605469 L 29.933594 70.894531 C 28.542969 73.042969 28.457031 73.207031 28.457031 73.710938 C 28.457031 74.421875 28.71875 74.960938 29.234375 75.296875 C 29.605469 75.539062 29.746094 75.574219 30.359375 75.527344 C 30.929688 75.496094 31.136719 75.429688 31.367188 75.222656 C 31.535156 75.070312 32.277344 74.007812 33.03125 72.867188 C 33.777344 71.71875 34.402344 70.773438 34.414062 70.765625 C 34.425781 70.757812 35.191406 71.128906 36.121094 71.585938 C 38.476562 72.761719 40.832031 73.527344 43.460938 73.964844 C 44.863281 74.207031 48.578125 74.304688 50.152344 74.140625 C 53.175781 73.820312 56.144531 72.957031 58.90625 71.585938 C 59.835938 71.125 60.613281 70.753906 60.613281 70.765625 C 60.625 70.773438 61.207031 71.671875 61.90625 72.757812 C 63.648438 75.441406 63.757812 75.550781 64.800781 75.550781 C 65.90625 75.550781 66.617188 74.78125 66.542969 73.675781 C 66.507812 73.105469 66.421875 72.929688 65.0625 70.839844 L 63.628906 68.605469 L 64.089844 68.230469 C 65.085938 67.410156 67.125 65.238281 68.054688 63.992188 C 70.792969 60.355469 72.414062 56.355469 73.050781 51.667969 C 73.234375 50.332031 73.234375 46.761719 73.050781 45.425781 C 72.25 39.523438 69.765625 34.460938 65.65625 30.363281 C 61.492188 26.226562 56.277344 23.707031 50.503906 23.027344 C 48.828125 22.828125 46.035156 22.828125 44.445312 23.027344 Z M 49.496094 26.585938 C 54.675781 27.113281 59.089844 29.140625 62.785156 32.722656 C 66.441406 36.269531 68.621094 40.519531 69.355469 45.546875 C 69.585938 47.070312 69.585938 49.984375 69.355469 51.574219 C 68.335938 58.878906 63.714844 65.199219 57.023438 68.429688 C 50.996094 71.34375 44.019531 71.332031 37.996094 68.429688 C 31.578125 65.332031 27.050781 59.375 25.773438 52.328125 C 25.488281 50.765625 25.421875 47.246094 25.652344 45.648438 C 26.15625 42.230469 27.25 39.304688 29.082031 36.503906 C 30.875 33.765625 33.515625 31.246094 36.320312 29.578125 C 40.296875 27.234375 45.070312 26.148438 49.496094 26.585938 Z M 49.496094 26.585938 "/>
<path style=" stroke:none;fill-rule:nonzero;fill:rgb(0%,0%,0%);fill-opacity:1;" d="M 46.527344 31.988281 C 46.320312 32.117188 46.054688 32.402344 45.9375 32.613281 C 45.707031 32.984375 45.707031 33.125 45.707031 40.992188 C 45.707031 47.5 45.738281 49.054688 45.859375 49.335938 C 46.078125 49.863281 53.484375 56.324219 54.074219 56.5 C 54.84375 56.730469 55.75 56.378906 56.167969 55.703125 C 56.433594 55.261719 56.453125 54.429688 56.222656 53.925781 C 56.125 53.71875 54.746094 52.449219 52.730469 50.6875 L 49.398438 47.785156 L 49.355469 40.390625 C 49.320312 33.160156 49.320312 32.984375 49.09375 32.613281 C 48.742188 32.007812 48.246094 31.734375 47.515625 31.734375 C 47.042969 31.734375 46.800781 31.800781 46.527344 31.988281 Z M 46.527344 31.988281 "/>
</g>
</svg>
