<?xml version="1.0" encoding="UTF-8"?>
<svg xmlns="http://www.w3.org/2000/svg" xmlns:xlink="http://www.w3.org/1999/xlink" width="95px" height="95px" viewBox="0 0 95 95" version="1.1">
<g id="surface1">
<path style="fill:none;stroke-width:15;stroke-linecap:butt;stroke-linejoin:miter;stroke:rgb(0%,0%,0%);stroke-opacity:1;stroke-miterlimit:10;" d="M 133.010526 469.094737 L 378.989474 469.094737 L 502 256 L 378.989474 42.905263 L 133.010526 42.905263 L 10 256 Z M 133.010526 469.094737 " transform="matrix(0.185547,0,0,0.185547,0,0)"/>
<path style=" stroke:none;fill-rule:nonzero;fill:rgb(0%,0%,0%);fill-opacity:1;" d="M 46.828125 12.75 C 46.171875 13.105469 46.144531 13.335938 46.128906 17.105469 C 46.128906 19.984375 46.171875 20.691406 46.335938 21.019531 C 46.578125 21.496094 46.921875 21.703125 47.496094 21.703125 C 48.066406 21.703125 48.410156 21.5 48.652344 21.019531 C 48.816406 20.691406 48.859375 19.984375 48.859375 17.144531 C 48.859375 14.742188 48.804688 13.554688 48.695312 13.308594 C 48.394531 12.65625 47.496094 12.382812 46.828125 12.75 Z M 46.828125 12.75 "/>
<path style=" stroke:none;fill-rule:nonzero;fill:rgb(0%,0%,0%);fill-opacity:1;" d="M 30.015625 17.265625 C 29.589844 17.5 29.289062 18.152344 29.371094 18.617188 C 29.414062 18.796875 30.21875 20.296875 31.1875 21.972656 C 32.648438 24.5 33 25.03125 33.382812 25.207031 C 34.257812 25.632812 35.28125 24.964844 35.265625 23.980469 C 35.253906 23.351562 31.882812 17.523438 31.363281 17.253906 C 30.902344 17.007812 30.464844 17.019531 30.015625 17.265625 Z M 30.015625 17.265625 "/>
<path style=" stroke:none;fill-rule:nonzero;fill:rgb(0%,0%,0%);fill-opacity:1;" d="M 63.609375 17.253906 C 63.390625 17.375 62.613281 18.5625 61.492188 20.484375 C 60.046875 22.984375 59.734375 23.640625 59.734375 24.0625 C 59.746094 25.046875 60.769531 25.644531 61.65625 25.195312 C 61.972656 25.03125 62.460938 24.292969 63.8125 21.960938 C 64.769531 20.296875 65.574219 18.792969 65.613281 18.617188 C 65.820312 17.554688 64.578125 16.722656 63.609375 17.253906 Z M 63.609375 17.253906 "/>
<path style=" stroke:none;fill-rule:nonzero;fill:rgb(0%,0%,0%);fill-opacity:1;" d="M 45.039062 25.875 C 36.617188 26.941406 29.523438 32.699219 26.890625 40.628906 C 26.042969 43.179688 25.878906 44.273438 25.878906 47.492188 C 25.878906 50 25.921875 50.617188 26.179688 51.761719 C 27.4375 57.4375 30.492188 62.066406 35.132812 65.339844 C 37.367188 66.921875 40.523438 68.246094 43.535156 68.875 C 45.324219 69.246094 49.949219 69.214844 51.765625 68.804688 C 60.648438 66.839844 67.144531 60.234375 68.875 51.378906 C 69.246094 49.507812 69.207031 45.050781 68.808594 43.21875 C 66.871094 34.433594 60.304688 27.921875 51.585938 26.132812 C 50.589844 25.917969 46.0625 25.753906 45.039062 25.875 Z M 50.429688 28.726562 C 54.277344 29.34375 57.753906 31.074219 60.554688 33.75 C 62.285156 35.414062 63.417969 36.957031 64.484375 39.097656 C 65.863281 41.882812 66.460938 44.40625 66.460938 47.492188 C 66.460938 50.574219 65.859375 53.101562 64.484375 55.882812 C 63.417969 58.027344 62.285156 59.566406 60.554688 61.230469 C 53.226562 68.234375 41.761719 68.21875 34.421875 61.21875 C 32.699219 59.582031 31.554688 58.011719 30.503906 55.882812 C 29.113281 53.085938 28.527344 50.589844 28.527344 47.492188 C 28.527344 44.390625 29.113281 41.898438 30.503906 39.097656 C 31.554688 36.96875 32.699219 35.402344 34.421875 33.761719 C 37.191406 31.113281 40.699219 29.355469 44.476562 28.726562 C 45.910156 28.484375 48.941406 28.484375 50.429688 28.726562 Z M 50.429688 28.726562 "/>
<path style=" stroke:none;fill-rule:nonzero;fill:rgb(0%,0%,0%);fill-opacity:1;" d="M 17.761719 29.535156 C 17.117188 29.886719 16.902344 30.679688 17.257812 31.359375 C 17.527344 31.878906 23.355469 35.25 23.984375 35.261719 C 24.585938 35.261719 25.15625 34.8125 25.308594 34.226562 C 25.539062 33.3125 25.238281 33.054688 21.839844 31.101562 C 20.078125 30.09375 18.632812 29.339844 18.429688 29.339844 C 18.238281 29.355469 17.9375 29.4375 17.761719 29.535156 Z M 17.761719 29.535156 "/>
<path style=" stroke:none;fill-rule:nonzero;fill:rgb(0%,0%,0%);fill-opacity:1;" d="M 73.105469 31.132812 C 70.707031 32.523438 69.953125 33.015625 69.792969 33.328125 C 69.339844 34.214844 69.941406 35.238281 70.921875 35.253906 C 71.347656 35.253906 72.015625 34.921875 74.484375 33.492188 C 77.554688 31.71875 77.921875 31.429688 77.921875 30.722656 C 77.921875 29.996094 77.253906 29.34375 76.53125 29.34375 C 76.355469 29.34375 74.8125 30.148438 73.105469 31.132812 Z M 73.105469 31.132812 "/>
<path style=" stroke:none;fill-rule:nonzero;fill:rgb(0%,0%,0%);fill-opacity:1;" d="M 13.257812 46.316406 C 12.617188 46.671875 12.398438 47.464844 12.753906 48.160156 C 13.09375 48.816406 13.394531 48.855469 17.144531 48.855469 C 20.832031 48.855469 21.238281 48.800781 21.566406 48.1875 C 21.8125 47.710938 21.730469 46.988281 21.375 46.578125 L 21.046875 46.195312 L 17.308594 46.167969 C 14.390625 46.140625 13.515625 46.167969 13.257812 46.316406 Z M 13.257812 46.316406 "/>
<path style=" stroke:none;fill-rule:nonzero;fill:rgb(0%,0%,0%);fill-opacity:1;" d="M 74.023438 46.265625 C 73.378906 46.523438 73.082031 47.519531 73.421875 48.1875 C 73.75 48.800781 74.15625 48.855469 77.855469 48.855469 C 81.648438 48.855469 81.949219 48.800781 82.261719 48.105469 C 82.464844 47.65625 82.464844 47.328125 82.261719 46.878906 C 81.949219 46.167969 81.648438 46.128906 77.828125 46.140625 C 75.890625 46.140625 74.171875 46.195312 74.023438 46.265625 Z M 74.023438 46.265625 "/>
<path style=" stroke:none;fill-rule:nonzero;fill:rgb(0%,0%,0%);fill-opacity:1;" d="M 23.410156 59.855469 C 23.191406 59.964844 21.746094 60.785156 20.230469 61.65625 C 17.433594 63.253906 17.066406 63.570312 17.066406 64.265625 C 17.066406 64.988281 17.734375 65.644531 18.457031 65.644531 C 18.632812 65.644531 20.160156 64.851562 21.839844 63.882812 C 25.183594 61.972656 25.496094 61.683594 25.335938 60.8125 C 25.167969 59.9375 24.1875 59.445312 23.410156 59.855469 Z M 23.410156 59.855469 "/>
<path style=" stroke:none;fill-rule:nonzero;fill:rgb(0%,0%,0%);fill-opacity:1;" d="M 70.625 59.734375 C 70.1875 59.84375 69.75 60.335938 69.65625 60.796875 C 69.492188 61.683594 69.765625 61.929688 73.027344 63.8125 C 74.691406 64.769531 76.191406 65.574219 76.371094 65.613281 C 77.109375 65.753906 77.925781 65.054688 77.925781 64.277344 C 77.925781 63.648438 77.542969 63.253906 76.191406 62.492188 C 75.457031 62.054688 74.105469 61.273438 73.179688 60.746094 C 71.472656 59.757812 71.101562 59.609375 70.625 59.734375 Z M 70.625 59.734375 "/>
<path style=" stroke:none;fill-rule:nonzero;fill:rgb(0%,0%,0%);fill-opacity:1;" d="M 33.289062 69.804688 C 33.042969 69.941406 32.359375 70.976562 31.171875 73.023438 C 30.21875 74.6875 29.414062 76.1875 29.371094 76.367188 C 29.234375 77.105469 29.933594 77.921875 30.710938 77.921875 C 31.417969 77.921875 31.71875 77.554688 33.328125 74.757812 C 35.484375 71.019531 35.402344 71.195312 35.214844 70.636719 C 35.132812 70.390625 34.953125 70.074219 34.816406 69.953125 C 34.464844 69.625 33.710938 69.558594 33.289062 69.804688 Z M 33.289062 69.804688 "/>
<path style=" stroke:none;fill-rule:nonzero;fill:rgb(0%,0%,0%);fill-opacity:1;" d="M 60.523438 69.722656 C 60.046875 69.925781 59.734375 70.390625 59.734375 70.921875 C 59.734375 71.34375 60.0625 72.011719 61.492188 74.480469 C 63.269531 77.566406 63.554688 77.921875 64.277344 77.921875 C 65.054688 77.921875 65.75 77.101562 65.613281 76.367188 C 65.574219 76.1875 64.769531 74.6875 63.8125 73.023438 C 61.835938 69.613281 61.550781 69.3125 60.523438 69.722656 Z M 60.523438 69.722656 "/>
<path style=" stroke:none;fill-rule:nonzero;fill:rgb(0%,0%,0%);fill-opacity:1;" d="M 46.578125 73.609375 L 46.199219 73.9375 L 46.15625 77.59375 C 46.117188 81.566406 46.15625 81.878906 46.824219 82.222656 C 47.289062 82.464844 47.644531 82.480469 48.105469 82.261719 C 48.800781 81.949219 48.855469 81.648438 48.855469 77.855469 C 48.855469 74.15625 48.800781 73.746094 48.1875 73.421875 C 47.714844 73.175781 46.988281 73.253906 46.578125 73.609375 Z M 46.578125 73.609375 "/>
</g>
</svg>
