<?xml version="1.0" encoding="utf-8"?>
<!-- Generator: Adobe Illustrator 24.3.0, SVG Export Plug-In . SVG Version: 6.00 Build 0)  -->
<svg version="1.1" id="Слой_1" xmlns="http://www.w3.org/2000/svg" xmlns:xlink="http://www.w3.org/1999/xlink" x="0px" y="0px"
	 viewBox="0 0 512 512" style="enable-background:new 0 0 512 512;" xml:space="preserve">
<style type="text/css">
	.st0{fill:none;stroke:#000000;stroke-width:15;stroke-miterlimit:10;}
</style>
<polygon class="st0" points="133,469.1 379,469.1 502,256 379,42.9 133,42.9 10,256 "/>
<g transform="translate(0.000000,500.000000) scale(0.100000,-0.100000)">
	<path d="M1432.1,4066.8c-33.9-11.1-78.1-56.8-87.7-91.4c-5.9-19.2-8.1-435.7-8.1-1329.1c0-1251,0.7-1302.6,14-1330.6
		c7.4-16.2,22.9-38.3,34.6-48.7c31-28,718-507.9,738.6-516c31-11.8,88.5-7.4,121.6,8.8c17,8.8,210.1,123.1,429,253.6
		s563.9,336.1,766.6,457c634,377.4,579.4,342,602.3,387l20.6,38.3v401c0,442.3,0.7,432-46.4,480.6c-28,28.7,27.3,10.3-882.4,290.4
		c-653.9,200.5-707.7,216-757.1,215.3h-53.1l-2.2,244.7l-2.2,244.7l-22.9,28.7c-11.8,15.5-36.9,35.4-55.3,44.2
		c-47.9,23.6-733.5,230.7-760.8,230C1468.2,4074.9,1446.1,4071.2,1432.1,4066.8z M1830.1,3823.5l342.8-105.4l1.5-862.5l2.2-861.7
		l-310.3-276.4c-170.3-151.9-320.7-286-333.2-297.1c-28-25.1-22.1-21.4,914.8,470.3c385.5,202.7,701,370.1,701.8,373
		c0,2.2-15.5,10.3-34.6,18.4c-19.9,8.1-121.6,53.8-227,101.7l-192.4,87.7L2543,2803.3c-84,182.1-151.9,332.5-150.4,333.9
		c0.7,0.7,344.3-103.2,763-230.7l760.8-233.7v-373.7v-373.7l-864-514.5c-475.5-283.1-869.1-514.5-875.7-514.5
		c-5.9,0-164.4,107.6-351.6,238.8l-341.3,238.8v1277.5c0,702.5,0.7,1277.5,2.2,1277.5C1486.6,3928.2,1641.4,3881,1830.1,3823.5z
		 M2450.1,2652.2c64.1-139.3,126.1-264.6,137.8-278.6c15.5-18.4,47.2-36.9,118.7-70c53.8-24.3,98.8-47.2,98.8-50.1
		c1.5-5.9-463.7-255.1-475.5-255.8c-3.7,0-5.9,206.4-5.9,458.5s2.2,455.6,5.2,453.4C2331.4,2906.5,2386,2790.8,2450.1,2652.2z"/>
</g>
</svg>
