<?xml version="1.0" encoding="UTF-8"?>
<svg xmlns="http://www.w3.org/2000/svg" xmlns:xlink="http://www.w3.org/1999/xlink" width="95px" height="95px" viewBox="0 0 95 95" version="1.1">
<g id="surface1">
<path style="fill:none;stroke-width:2.7832;stroke-linecap:butt;stroke-linejoin:miter;stroke:rgb(0%,0%,0%);stroke-opacity:1;stroke-miterlimit:1.8555;" d="M 24.699219 87 L 70.300781 87 L 93.101562 47.5 L 70.300781 8 L 24.699219 8 L 1.898438 47.5 Z M 24.699219 87 "/>
<path style="fill-rule:nonzero;fill:rgb(0%,0%,0%);fill-opacity:1;stroke-width:1;stroke-linecap:butt;stroke-linejoin:miter;stroke:rgb(0%,0%,0%);stroke-opacity:1;stroke-miterlimit:10;" d="M 42.898438 39.398438 C 42.601562 39.5 42.199219 39.898438 42.199219 40.199219 C 42.199219 40.398438 42.101562 43.898438 42.101562 51.5 C 42.101562 62.101562 42.101562 62.5 42.199219 62.800781 C 42.300781 62.898438 42.398438 63.101562 42.5 63.199219 C 42.800781 63.398438 48.601562 67.5 48.800781 67.601562 C 49.101562 67.699219 49.5 67.699219 49.800781 67.5 C 49.898438 67.398438 51.601562 66.5 53.398438 65.398438 C 55.199219 64.300781 58.199219 62.601562 59.898438 61.5 C 65.300781 58.300781 64.800781 58.601562 65 58.199219 L 65.199219 57.898438 L 65.199219 54.5 C 65.199219 50.800781 65.199219 50.800781 64.800781 50.398438 C 64.601562 50.199219 65 50.300781 57.300781 47.898438 C 51.800781 46.199219 51.300781 46.101562 50.898438 46.101562 L 50.5 46.101562 L 50.5 41.898438 L 50.300781 41.699219 C 50.199219 41.601562 50 41.398438 49.800781 41.300781 C 49.398438 41.101562 43.601562 39.300781 43.398438 39.398438 C 43.300781 39.398438 43.101562 39.398438 42.898438 39.398438 Z M 46.300781 41.5 L 49.199219 42.398438 L 49.199219 57 L 46.601562 59.300781 C 45.199219 60.601562 43.898438 61.699219 43.800781 61.800781 C 43.601562 62 43.601562 62 51.5 57.800781 C 54.800781 56.101562 57.398438 54.699219 57.398438 54.601562 C 57.398438 54.601562 57.300781 54.5 57.101562 54.398438 C 56.898438 54.300781 56.101562 53.898438 55.199219 53.5 L 53.601562 52.800781 L 52.300781 50 C 51.601562 48.5 51 47.199219 51 47.199219 C 51 47.199219 53.898438 48.101562 57.5 49.199219 L 63.898438 51.199219 L 63.898438 57.5 L 56.601562 61.898438 C 52.601562 64.300781 49.199219 66.300781 49.199219 66.300781 C 49.199219 66.300781 47.800781 65.398438 46.199219 64.300781 L 43.300781 62.300781 L 43.300781 51.398438 C 43.300781 45.5 43.300781 40.601562 43.300781 40.601562 C 43.398438 40.601562 44.699219 41 46.300781 41.5 Z M 51.601562 51.398438 C 52.101562 52.601562 52.699219 53.601562 52.800781 53.800781 C 52.898438 54 53.199219 54.101562 53.800781 54.398438 C 54.300781 54.601562 54.601562 54.800781 54.601562 54.800781 C 54.601562 54.800781 50.699219 57 50.601562 57 C 50.601562 57 50.601562 55.300781 50.601562 53.101562 C 50.601562 51 50.601562 49.199219 50.601562 49.300781 C 50.601562 49.300781 51 50.199219 51.601562 51.398438 Z M 51.601562 51.398438 "/>
<path style=" stroke:none;fill-rule:nonzero;fill:rgb(0%,0%,0%);fill-opacity:1;" d="M 46 15.398438 C 44.300781 16 42.699219 17.199219 41.800781 18.898438 C 41.398438 19.699219 41.300781 20.601562 41.199219 26.300781 C 41 33.5 41 33.699219 39.398438 34.699219 C 38.699219 35.199219 38.101562 35.199219 33.300781 35.199219 C 28 35.199219 28 35.199219 27.398438 34.601562 C 26.699219 33.898438 26.601562 33.199219 27 32.5 C 27.101562 32.199219 29.5 30.101562 32.101562 27.800781 C 34.898438 25.398438 37.101562 23.398438 37.101562 23 C 37.398438 21.800781 36.101562 20.800781 35 21.398438 C 34.699219 21.5 32.300781 23.5 29.699219 25.898438 C 24.5 30.398438 23.699219 31.398438 23.699219 33.398438 C 23.699219 35.5 25.199219 37.5 27.199219 38 C 27.800781 38.199219 30.199219 38.300781 33.898438 38.199219 C 40.199219 38.101562 40.5 38.101562 42.199219 36.398438 C 44.101562 34.699219 44.101562 34.300781 44.300781 27.101562 C 44.5 19.898438 44.5 19.699219 46.101562 18.699219 C 46.898438 18.199219 47.398438 18.199219 57.5 18.199219 C 67.699219 18.199219 68.199219 18.199219 69 18.699219 C 69.5 19 70 19.601562 70.300781 20 C 70.800781 20.800781 70.800781 21.300781 70.800781 45.800781 L 70.800781 70.800781 L 69.101562 72.898438 C 68.199219 74.101562 67.398438 75 67.300781 75 C 67.199219 75 66.398438 74.300781 65.5 73.300781 C 64.601562 72.398438 63.5 71.398438 63.101562 71.199219 C 62.101562 70.5 61.699219 70.699219 59.199219 73.199219 L 57.199219 75.101562 L 55.300781 73.199219 C 54.199219 72.199219 53.101562 71.199219 52.800781 71 C 52 70.601562 51.5 70.898438 49.199219 73.199219 L 47.199219 75.101562 L 45.300781 73.199219 C 44.199219 72.199219 43.101562 71.199219 42.800781 71 C 42 70.601562 41.5 70.898438 39.199219 73.199219 L 37.199219 75.101562 L 35.300781 73.199219 C 32.699219 70.699219 32.398438 70.601562 31.398438 71.199219 C 30.898438 71.5 29.800781 72.5 28.800781 73.5 C 27.800781 74.5 27 75.300781 26.898438 75.300781 C 26.800781 75.300781 26.699219 69.101562 26.699219 61.601562 C 26.699219 54.101562 26.601562 47.800781 26.5 47.601562 C 26.101562 47 25.199219 46.699219 24.601562 47 C 24.300781 47.199219 24 47.398438 23.898438 47.601562 C 23.800781 47.800781 23.699219 54.101562 23.699219 61.800781 C 23.699219 74.800781 23.699219 75.800781 24.199219 76.5 C 25 78 27 78.699219 28.300781 78 C 28.601562 77.800781 29.601562 77 30.601562 76.101562 L 32.300781 74.398438 L 34.199219 76.300781 C 36.101562 78.101562 36.101562 78.199219 37.300781 78.199219 C 38.5 78.199219 38.601562 78.101562 40.398438 76.300781 L 42.300781 74.398438 L 44.199219 76.300781 C 46.101562 78.101562 46.101562 78.199219 47.300781 78.199219 C 48.5 78.199219 48.601562 78.101562 50.398438 76.300781 L 52.300781 74.398438 L 54.199219 76.300781 C 56.101562 78.101562 56.101562 78.199219 57.300781 78.199219 C 58.5 78.199219 58.601562 78.101562 60.398438 76.300781 L 62.300781 74.398438 L 64.199219 76.300781 C 66 78.101562 66.101562 78.199219 67.300781 78.199219 C 68.800781 78.199219 68.898438 78.101562 71.699219 74.5 L 73.800781 71.800781 L 73.800781 46.300781 C 73.800781 18.101562 73.898438 19.300781 72.101562 17.398438 C 71.601562 16.800781 70.699219 16.101562 70.199219 15.800781 C 69.199219 15.199219 68.898438 15.199219 57.898438 15.199219 C 51.699219 15.199219 46.300781 15.300781 46 15.398438 Z M 46 15.398438 "/>
</g>
</svg>
