<?xml version="1.0" encoding="UTF-8"?>
<svg xmlns="http://www.w3.org/2000/svg" xmlns:xlink="http://www.w3.org/1999/xlink" width="95px" height="95px" viewBox="0 0 95 95" version="1.1">
<g id="surface1">
<path style="fill:none;stroke-width:2.7832;stroke-linecap:butt;stroke-linejoin:miter;stroke:rgb(0%,0%,0%);stroke-opacity:1;stroke-miterlimit:1.8555;" d="M 24.699219 87 L 70.300781 87 L 93.101562 47.5 L 70.300781 8 L 24.699219 8 L 1.898438 47.5 Z M 24.699219 87 "/>
<path style="fill:none;stroke-width:3;stroke-linecap:round;stroke-linejoin:round;stroke:rgb(0%,0%,0%);stroke-opacity:1;stroke-miterlimit:10;" d="M 39.5 69.101562 L 43.601562 66.398438 L 43.601562 28.398438 C 43.601562 25.898438 42.398438 23.601562 40.398438 22.199219 L 31.601562 16.800781 C 30.101562 15.699219 28 16.800781 28 18.699219 L 28 62.300781 C 28 62.601562 28 63.101562 28.101562 63.5 C 28.5 68.800781 34.601562 72.101562 39.5 69.101562 Z M 39.5 69.101562 "/>
<path style="fill:none;stroke-width:3;stroke-linecap:round;stroke-linejoin:round;stroke:rgb(0%,0%,0%);stroke-opacity:1;stroke-miterlimit:10;" d="M 62 55.5 L 43.199219 66.699219 L 39.5 69 C 34.601562 71.898438 28.5 68.699219 28 63.199219 C 28.5 72 36.398438 79 45.300781 79 C 48.300781 79 51.199219 78.199219 53.800781 76.601562 C 53.800781 76.601562 66.5 68.699219 67.5 67.699219 "/>
<path style="fill:none;stroke-width:3;stroke-linecap:round;stroke-linejoin:round;stroke:rgb(0%,0%,0%);stroke-opacity:1;stroke-miterlimit:10;" d="M 64.699219 42.5 L 52.5 36.699219 C 50.601562 35.800781 48.601562 37.601562 49.398438 39.601562 L 52.101562 48.601562 C 52.898438 50.5 54.398438 52 56.199219 52.800781 L 62.199219 55.398438 C 67.800781 57.800781 71.898438 61.601562 67.5 67.800781 C 76.699219 61.601562 75.800781 48 64.699219 42.5 Z M 64.699219 42.5 "/>
</g>
</svg>
