<?xml version="1.0" encoding="utf-8"?>
<!-- Generator: Adobe Illustrator 24.3.0, SVG Export Plug-In . SVG Version: 6.00 Build 0)  -->
<svg version="1.1" id="Слой_1" xmlns="http://www.w3.org/2000/svg" xmlns:xlink="http://www.w3.org/1999/xlink" x="0px" y="0px"
	 viewBox="0 0 512 512" style="enable-background:new 0 0 512 512;" xml:space="preserve">
<style type="text/css">
	.st0{fill:none;stroke:#000000;stroke-width:15;stroke-miterlimit:10;}
</style>
<g>
	<polygon class="st0" points="133,469.1 379,469.1 502,256 379,42.9 133,42.9 10,256 	"/>
	<g>
		<path d="M146.7,120.4c-1.4,3.9-0.5,9.6,2.9,13c2.9,2.9,5.3,11.1,5.3,18.3c0,11.1-1.4,12.5-12,10.1c-19.3-3.4-32.7,11.6-29.4,32.7
			c1.9,12.5,10.6,24.6,35.2,48.6c34.2,33.2,39,38.5,60.7,67.9l13,18.3H208c-14,0-14.4,1-14.4,21.2c0,14.9-2.4,22.2-7.7,24.1
			c-4.3,1.4-6.7,7.2-5.8,13.5c1.4,11.1,2.4,11.1,76.1,11.1s74.6,0,76.1-11.1c1-6.3-1.4-12-5.8-13.5c-5.3-1.9-7.7-9.1-7.7-24.1
			c0-19.3-1-21.2-12-21.2c-14.9,0-14.9-1.9-1.4-20.7c15.4-22.2,22.2-29.9,58.3-65.5c24.6-24.1,33.2-36.1,35.2-48.6
			c3.4-21.2-10.1-36.1-29.4-32.7c-10.6,2.4-12,1-12-10.1c0-7.2,2.4-15.4,5.3-18.3c3.4-3.4,4.3-9.1,2.9-13
			c-2.9-6.7-17.3-7.7-109.3-7.7S149.6,113.7,146.7,120.4z M357.1,127.2c0,2.4-1.9,4.8-4.8,4.8c-2.4,0-4.8,8.2-4.8,17.8
			c-0.5,47.7-22.6,113.6-53,157.9c-14.4,20.7-15.9,21.7-39,21.7c-23.6,0-24.1,0-40.9-26.5c-9.1-14.9-20.7-36.1-25.5-47.2
			c-11.1-26-24.6-84.3-24.6-106.4c0-9.6-1.9-17.3-4.8-17.3c-2.4,0-4.8-2.4-4.8-4.8c0-2.9,37.1-4.8,101.1-4.8
			S357.1,124.3,357.1,127.2z M150.5,178.2c4.8,5.8,4.8,9.6,0.5,16.9c-7.7,12.5-7.2,14.9,2.9,12c6.7-2.4,10.1,1.4,15.9,20.7l7.2,24.1
			l-13-9.6c-19.3-13.5-42.9-41.9-42.9-51.5C121.2,172.5,139.5,164.7,150.5,178.2z M386,177.7c9.1,11.1,1.9,28.4-22.2,50.1
			c-12,11.6-22.6,19.7-23.6,18.8c-1-1,1-10.6,3.9-22.2c4.3-16.4,7.2-19.7,14-17.3c10.1,2.9,10.6,0.5,2.9-12
			C350.4,177.7,373,162.3,386,177.7z M309,360.7c0,15.9,1.9,21.7,7.2,21.7c3.9,0,7.2,1.9,7.2,4.8S297.9,392,256,392
			s-67.4-1.9-67.4-4.8s3.4-4.8,7.2-4.8c5.3,0,7.2-5.8,7.2-21.7V339h53h53L309,360.7L309,360.7z"/>
		<path d="M174.1,136.8c0,2.4,2.4,4.8,4.8,4.8c2.9,0,4.8-2.4,4.8-4.8c0-2.9-1.9-4.8-4.8-4.8C176.5,132,174.1,133.9,174.1,136.8z"/>
		<path d="M193.4,136.8c0,2.4,2.4,4.8,4.8,4.8c2.9,0,4.8-2.4,4.8-4.8c0-2.9-1.9-4.8-4.8-4.8C195.8,132,193.4,133.9,193.4,136.8z"/>
		<path d="M212.7,136.8c0,2.4,2.4,4.8,4.8,4.8c2.9,0,4.8-2.4,4.8-4.8c0-2.9-1.9-4.8-4.8-4.8C215.1,132,212.7,133.9,212.7,136.8z"/>
		<path d="M231.9,136.8c0,2.4,2.4,4.8,4.8,4.8c2.9,0,4.8-2.4,4.8-4.8c0-2.9-1.9-4.8-4.8-4.8C234.3,132,231.9,133.9,231.9,136.8z"/>
		<path d="M251.2,136.8c0,2.4,2.4,4.8,4.8,4.8c2.9,0,4.8-2.4,4.8-4.8c0-2.9-1.9-4.8-4.8-4.8C253.6,132,251.2,133.9,251.2,136.8z"/>
		<path d="M270.4,136.8c0,2.4,2.4,4.8,4.8,4.8c2.9,0,4.8-2.4,4.8-4.8c0-2.9-1.9-4.8-4.8-4.8C272.9,132,270.4,133.9,270.4,136.8z"/>
		<path d="M289.7,136.8c0,2.4,2.4,4.8,4.8,4.8c2.9,0,4.8-2.4,4.8-4.8c0-2.9-1.9-4.8-4.8-4.8C292.1,132,289.7,133.9,289.7,136.8z"/>
		<path d="M309,136.8c0,2.4,2.4,4.8,4.8,4.8c2.9,0,4.8-2.4,4.8-4.8c0-2.9-1.9-4.8-4.8-4.8C311.4,132,309,133.9,309,136.8z"/>
		<path d="M328.2,136.8c0,2.4,2.4,4.8,4.8,4.8c2.9,0,4.8-2.4,4.8-4.8c0-2.9-1.9-4.8-4.8-4.8C330.6,132,328.2,133.9,328.2,136.8z"/>
		<path d="M212.7,377.6c0,2.4,2.4,4.8,4.8,4.8c2.9,0,4.8-2.4,4.8-4.8c0-2.9-1.9-4.8-4.8-4.8C215.1,372.8,212.7,374.7,212.7,377.6z"
			/>
		<path d="M231.9,377.6c0,2.4,2.4,4.8,4.8,4.8c2.9,0,4.8-2.4,4.8-4.8c0-2.9-1.9-4.8-4.8-4.8C234.3,372.8,231.9,374.7,231.9,377.6z"
			/>
		<path d="M251.2,377.6c0,2.4,2.4,4.8,4.8,4.8c2.9,0,4.8-2.4,4.8-4.8c0-2.9-1.9-4.8-4.8-4.8C253.6,372.8,251.2,374.7,251.2,377.6z"
			/>
		<path d="M270.4,377.6c0,2.4,2.4,4.8,4.8,4.8c2.9,0,4.8-2.4,4.8-4.8c0-2.9-1.9-4.8-4.8-4.8C272.9,372.8,270.4,374.7,270.4,377.6z"
			/>
		<path d="M289.7,377.6c0,2.4,2.4,4.8,4.8,4.8c2.9,0,4.8-2.4,4.8-4.8c0-2.9-1.9-4.8-4.8-4.8C292.1,372.8,289.7,374.7,289.7,377.6z"
			/>
	</g>
</g>
</svg>
