<?xml version="1.0" encoding="utf-8"?>
<!-- Generator: Adobe Illustrator 24.3.0, SVG Export Plug-In . SVG Version: 6.00 Build 0)  -->
<svg version="1.1" id="Слой_1" xmlns="http://www.w3.org/2000/svg" xmlns:xlink="http://www.w3.org/1999/xlink" x="0px" y="0px"
	 viewBox="0 0 95 95" style="enable-background:new 0 0 95 95;" xml:space="preserve">
<style type="text/css">
	.st0{fill:none;stroke:#000000;stroke-width:2.7832;stroke-miterlimit:1.8555;}
	.st1{fill:none;stroke:#000000;stroke-width:3;stroke-linecap:round;stroke-linejoin:round;stroke-miterlimit:10;}
</style>
<path class="st0" d="M24.7,87h45.6l22.8-39.5L70.3,8H24.7L1.9,47.5L24.7,87z"/>
<g>
	<path class="st1" d="M39.5,69.1l4.1-2.7V28.4c0-2.5-1.2-4.8-3.2-6.2l-8.8-5.4c-1.5-1.1-3.6,0-3.6,1.9v43.6c0,0.3,0,0.8,0.1,1.2
		C28.5,68.8,34.6,72.1,39.5,69.1z"/>
	<path class="st1" d="M62,55.5L43.2,66.7l0,0L39.5,69c-4.9,2.9-11-0.3-11.5-5.8c0.5,8.8,8.4,15.8,17.3,15.8c3,0,5.9-0.8,8.5-2.4
		c0,0,12.7-7.9,13.7-8.9"/>
	<path class="st1" d="M64.7,42.5l-12.2-5.8c-1.9-0.9-3.9,0.9-3.1,2.9l2.7,9c0.8,1.9,2.3,3.4,4.1,4.2l6,2.6c5.6,2.4,9.7,6.2,5.3,12.4
		C76.7,61.6,75.8,48,64.7,42.5z"/>
</g>
</svg>
