<?xml version="1.0" encoding="UTF-8"?>
<svg xmlns="http://www.w3.org/2000/svg" xmlns:xlink="http://www.w3.org/1999/xlink" width="95px" height="95px" viewBox="0 0 95 95" version="1.1">
<g id="surface1">
<path style="fill:none;stroke-width:2.7832;stroke-linecap:butt;stroke-linejoin:miter;stroke:rgb(0%,0%,0%);stroke-opacity:1;stroke-miterlimit:1.8555;" d="M 24.699219 87 L 70.300781 87 L 93.101562 47.5 L 70.300781 8 L 24.699219 8 L 1.898438 47.5 Z M 24.699219 87 "/>
<path style="fill:none;stroke-width:2;stroke-linecap:butt;stroke-linejoin:miter;stroke:rgb(0%,0%,0%);stroke-opacity:1;stroke-miterlimit:10;" d="M 60.699219 21.5 C 63.199219 21.5 63.898438 21.601562 66 23.101562 C 67 24.699219 67 24.699219 67 26.101562 C 67.398438 26.101562 67.898438 26 68.300781 26 C 71.898438 25.898438 74.300781 25.898438 77.199219 28.300781 C 79.101562 32.101562 78.5 38.601562 77.398438 42.601562 C 75.800781 46 73.699219 48.101562 70.601562 50.199219 C 68.5 50.800781 68.5 50.800781 67 50.898438 C 66.800781 51.601562 66.699219 52.398438 66.5 53.101562 C 65.398438 56.800781 63.699219 60 60.398438 62 C 59.898438 62.300781 59.300781 62.5 58.800781 62.800781 C 57 63.800781 56.199219 64.300781 55.601562 66.300781 C 55.5 69.101562 55.699219 70.800781 57.300781 73.101562 C 59.398438 74.398438 61 74.699219 63.398438 74.898438 C 63.898438 76.601562 63.898438 76.601562 64.101562 78.5 C 62.398438 80.199219 62 80.101562 59.699219 80.101562 C 59.101562 80.101562 58.5 80.101562 57.898438 80.101562 C 56.898438 80.101562 56.898438 80.101562 55.898438 80.101562 C 55.199219 80.101562 54.601562 80.101562 53.898438 80.101562 C 52.5 80.101562 51 80.101562 49.601562 80.101562 C 47.398438 80.101562 45.199219 80.101562 43 80.101562 C 41.601562 80.101562 40.199219 80.101562 38.800781 80.101562 C 38.101562 80.101562 37.5 80.101562 36.800781 80.101562 C 35.898438 80.101562 35.898438 80.101562 35 80.101562 C 34.5 80.101562 33.898438 80.101562 33.398438 80.101562 C 32.101562 79.898438 32.101562 79.898438 30.601562 78.5 C 30.898438 76.601562 30.898438 76.601562 31.300781 74.898438 C 31.699219 74.800781 32.199219 74.699219 32.699219 74.601562 C 36.300781 73.800781 36.300781 73.800781 38.800781 71.199219 C 39.5 69.398438 39.5 69.398438 40.101562 66.800781 C 41.300781 66.800781 42.5 66.800781 43.699219 66.800781 C 44.398438 67.5 44.398438 67.5 44.5 70 C 44.398438 72.601562 44.398438 72.601562 43.699219 74.101562 C 46.101562 74.300781 48.5 74.601562 51 74.800781 C 50.601562 74.101562 50.601562 74.101562 50.300781 73.300781 C 50.199219 72.101562 50.199219 70.800781 50.300781 69.601562 C 50.300781 68.898438 50.300781 68.300781 50.300781 67.601562 C 50.300781 67.101562 50.300781 66.601562 50.300781 66.101562 C 49.800781 66.101562 49.300781 66.199219 48.800781 66.199219 C 42.101562 66.5 37.199219 64.5 32.101562 60.199219 C 31.5 58.699219 31.5 58.699219 31.398438 57.300781 C 31.898438 56.601562 32.398438 55.898438 32.898438 55.101562 C 36.199219 55.5 37.699219 56.699219 40.199219 58.699219 C 44.199219 60.5 48.5 61 52.699219 59.699219 C 56.398438 58.101562 58.699219 55.699219 60.601562 52.101562 C 61.398438 49.601562 61.5 47.199219 61.601562 44.601562 C 61.601562 44.101562 61.601562 43.601562 61.601562 43 C 61.601562 41.398438 61.699219 39.699219 61.699219 38.101562 C 61.699219 37 61.800781 35.898438 61.800781 34.800781 C 61.898438 32.101562 62 29.300781 62 26.601562 C 60.898438 26.601562 60.898438 26.601562 59.898438 26.601562 C 57.699219 26.601562 57.699219 26.601562 56.898438 25.800781 C 56.800781 24 56.800781 24 56.898438 22.199219 C 58 21.398438 59.101562 21.601562 60.699219 21.5 Z M 67.800781 32 C 67.800781 36.300781 67.800781 40.699219 67.800781 45.101562 C 71.5 42.300781 71.5 42.300781 72.898438 38.5 C 73 36.300781 73 34.101562 72.898438 31.898438 C 71.199219 32 69.5 32 67.800781 32 Z M 67.800781 32 "/>
<path style="fill:none;stroke-width:2;stroke-linecap:butt;stroke-linejoin:miter;stroke:rgb(0%,0%,0%);stroke-opacity:1;stroke-miterlimit:10;" d="M 35.5 21.699219 C 36 21.699219 36.5 21.699219 37 21.699219 C 38 21.699219 39 21.699219 40.101562 21.699219 C 41.699219 21.699219 43.199219 21.699219 44.800781 21.699219 C 45.800781 21.699219 46.800781 21.699219 47.800781 21.699219 C 49.199219 21.699219 49.199219 21.699219 50.5 21.699219 C 52.601562 21.800781 52.601562 21.800781 53.300781 22.5 C 53.398438 24.300781 53.398438 24.300781 53.300781 26.101562 C 52.601562 26.800781 52.601562 26.800781 50.699219 26.898438 C 49.898438 26.898438 49.101562 26.898438 48.199219 26.898438 C 47.300781 26.898438 46.398438 26.898438 45.5 26.898438 C 44.601562 26.898438 43.601562 26.898438 42.699219 26.898438 C 41.800781 26.898438 40.800781 26.898438 39.898438 26.898438 C 37.601562 26.898438 35.300781 26.898438 32.898438 26.898438 C 32.898438 28 32.898438 28 32.898438 29 C 32.898438 31.601562 32.898438 34.199219 32.898438 36.800781 C 32.898438 37.898438 32.898438 39.101562 32.898438 40.199219 C 32.898438 41.800781 32.898438 43.398438 32.898438 45.101562 C 32.898438 45.601562 32.898438 46.101562 32.898438 46.601562 C 32.898438 47.800781 32.898438 49 32.800781 50.199219 C 32 51 32 51 29.398438 51.199219 C 25.699219 51.101562 23.101562 49.699219 20.300781 47.300781 C 17.199219 43.300781 16.5 40.398438 16.398438 35.398438 C 16.398438 34.398438 16.300781 33.5 16.300781 32.5 C 16.699219 29.800781 16.699219 29.800781 18.300781 27.699219 C 20.601562 26.101562 21.5 25.800781 24.199219 26 C 24.800781 26 25.5 26.101562 26.199219 26.101562 C 26.898438 26.199219 26.898438 26.199219 27.699219 26.199219 C 27.898438 25.601562 28.101562 25 28.300781 24.398438 C 29.800781 21 32.101562 21.699219 35.5 21.699219 Z M 22.601562 31.300781 C 21.5 32.398438 21.699219 33.5 21.699219 35.101562 C 21.699219 38.199219 22.300781 40.398438 24.101562 43 C 25.101562 43.5 26 44 27 44.5 C 27 40.199219 27 35.800781 27 31.398438 C 25.5 31.300781 24 31.300781 22.601562 31.300781 Z M 22.601562 31.300781 "/>
</g>
</svg>
