<?xml version="1.0" encoding="utf-8"?>
<!-- Generator: Adobe Illustrator 24.3.0, SVG Export Plug-In . SVG Version: 6.00 Build 0)  -->
<svg version="1.1" id="Слой_1" xmlns="http://www.w3.org/2000/svg" xmlns:xlink="http://www.w3.org/1999/xlink" x="0px" y="0px"
	 viewBox="0 0 512 512" style="enable-background:new 0 0 512 512;" xml:space="preserve">
<style type="text/css">
	.st0{fill:none;stroke:#000000;stroke-width:15;stroke-miterlimit:10;}
</style>
<polygon class="st0" points="133,469.1 379,469.1 502,256 379,42.9 133,42.9 10,256 "/>
<g>
	<path d="M315.8,159.6c-15.5,12.3-28.4,22.3-28.9,22.3c-0.4,0-16.9-6.7-36.7-15c-24.9-10.4-36.4-14.7-37.4-14.5
		c-1.8,0.5-78.8,55.2-80.3,57c-0.4,0.6-0.9,2.1-0.9,3.4c0,3,3,5.5,5.7,5c1.1-0.2,18.7-12.3,39.3-27.1c23.8-17,37.8-26.5,38.5-26.3
		c0.6,0.1,17.1,6.9,36.4,15c19.4,8,36.1,14.6,37.1,14.6c1.1,0,7.2-4.4,19.3-14c9.6-7.7,22.8-18.1,29.3-23.1
		c6.5-5.1,12.3-9.9,13-10.6c1.8-2,1.6-5.6-0.4-7.4C346.1,135.4,345.9,135.6,315.8,159.6z"/>
	<path d="M346.1,164.3l-1.8,1.4v80.5v80.4h-9.6h-9.6v-53c0-53.1,0-53.1-1.5-54.5c-1.4-1.3-3-1.3-29.1-1.3h-27.5l-1.6,1.6l-1.6,1.6
		l-0.2,52.8l-0.2,52.8h-9.1H245v-57.1c0-56.2,0-57.1-1.4-58.5c-1.3-1.3-2.3-1.4-29-1.4h-27.7l-1.4,1.8c-1.5,1.9-1.5,2.3-1.5,58.5
		v56.7h-9.2h-9.2v-40.1c0-28.2-0.2-40.5-0.8-41.8c-1.5-3.2-2.9-3.3-31.4-3.1l-26.8,0.2l-1.3,1.7c-1.3,1.6-1.3,3.3-1.3,42.3v40.7
		H91.2c-7.1,0-13.6,0.4-14.7,0.7c-4,1.6-5.1,5.9-2.1,8.9l1.7,1.8h178h178l1.7-1.8c2.1-2.1,2.3-5.2,0.4-7.5
		c-1.3-1.7-1.6-1.7-15.2-1.9l-13.9-0.3v-80.1v-80.1l-1.8-1.7l-1.7-1.8h-26.9C348.7,162.8,348,162.8,346.1,164.3z M394.6,250.3v76.2
		h-19.9h-19.9v-76.2v-76.2h19.9h19.9V250.3z M234.4,273.4v53.2h-19.9h-19.9v-52.7c0-29,0.2-53,0.5-53.2c0.2-0.3,9.1-0.5,19.9-0.5
		h19.4V273.4z M313.8,277.6v48.9h-19.5h-19.5v-48.9v-48.9h19.5h19.5V277.6z M154.2,289.7v36.9h-19.9h-19.9v-36.9v-36.9h19.9h19.9
		V289.7z"/>
</g>
</svg>
