<?xml version="1.0" encoding="utf-8"?>
<!-- Generator: Adobe Illustrator 24.3.0, SVG Export Plug-In . SVG Version: 6.00 Build 0)  -->
<svg version="1.1" id="Слой_1" xmlns="http://www.w3.org/2000/svg" xmlns:xlink="http://www.w3.org/1999/xlink" x="0px" y="0px"
	 viewBox="0 0 512 512" style="enable-background:new 0 0 512 512;" xml:space="preserve">
<style type="text/css">
	.st0{fill:none;stroke:#000000;stroke-width:15;stroke-miterlimit:10;}
</style>
<polygon class="st0" points="133,469.1 379,469.1 502,256 379,42.9 133,42.9 10,256 "/>
<g transform="translate(0.000000,512.000000) scale(0.100000,-0.100000)">
	<path d="M2523.7,4432.8c-35.3-19.1-36.8-31.6-37.5-234.6c0-155.2,2.2-193.4,11-211.1c13.2-25.7,31.6-36.8,62.5-36.8
		c30.9,0,49.3,11,62.5,36.8c8.8,17.7,11,55.9,11,208.9c0,129.4-2.9,193.4-8.8,206.7C2608.2,4438,2559.7,4452.7,2523.7,4432.8z"/>
	<path d="M1617.6,4189.4c-22.8-12.5-39-47.8-34.6-72.8c2.2-9.6,45.6-90.5,97.8-180.9c78.7-136.1,97.8-164.7,118.4-174.3
		c47.1-22.8,102.2,13.2,101.5,66.2c-0.7,33.8-182.4,347.9-210.3,362.6C1665.4,4203.4,1641.9,4202.7,1617.6,4189.4z"/>
	<path d="M3428.2,4190.2c-11.8-6.6-53.7-70.6-114-174.3c-78-134.6-94.9-169.9-94.9-192.7c0.7-53,55.9-85.3,103.7-61
		c16.9,8.8,43.4,48.5,116.2,174.3c51.5,89.7,94.9,170.6,97.1,180.2C3547.4,4174,3480.5,4218.8,3428.2,4190.2z"/>
	<path d="M2427.3,3725.4c-453.8-57.4-836.2-367.7-978.1-795c-45.6-137.5-54.4-196.4-54.4-369.9c0-135.3,2.2-168.4,16.2-230.2
		c67.7-305.9,232.4-555.3,482.4-731.8c120.6-85.3,290.5-156.6,453-190.5c96.3-19.9,345.7-18.4,443.5,3.7
		c478.8,105.9,828.8,461.9,922.2,939.2c19.9,100.8,17.7,341.2-3.7,439.8c-104.4,473.6-458.2,824.4-928.1,920.8
		C2726.6,3723.2,2482.5,3732,2427.3,3725.4z M2717.8,3571.7c207.4-33.1,394.9-126.5,545.7-270.6c93.4-89.7,154.4-172.8,211.8-288.3
		c74.3-150,106.6-286.1,106.6-452.3c0-166.2-32.4-302.3-106.6-452.3c-57.4-115.5-118.4-198.6-211.8-288.3
		c-394.9-377.3-1012.7-376.5-1408.4,0.7c-92.7,88.3-154.4,172.8-211.1,287.6c-75,150.8-106.6,285.3-106.6,452.3
		s31.6,301.5,106.6,452.3c56.6,114.7,118.4,199.3,211.1,287.6c149.3,142.7,338.3,237.5,542,271.4
		C2474.4,3584.9,2637.7,3584.9,2717.8,3571.7z"/>
	<path d="M957.2,3528.3c-34.6-19.1-46.3-61.8-27.2-98.5c14.7-27.9,328.7-209.6,362.6-210.3c32.4,0,63.2,24.3,71.3,55.9
		c12.5,49.3-3.7,63.2-186.8,168.4c-94.9,54.4-172.8,94.9-183.9,94.9C982.9,3537.8,966.7,3533.4,957.2,3528.3z"/>
	<path d="M3940.1,3442.2c-129.4-75-169.9-101.5-178.7-118.4c-24.3-47.8,8.1-103,61-103.7c22.8,0,58.8,17.7,191.9,94.9
		c165.5,95.6,185.3,111.1,185.3,149.3c0,39-36,74.3-75,74.3C4115.1,3538.6,4032,3495.2,3940.1,3442.2z"/>
	<path d="M714.5,2623.7c-34.6-19.1-46.3-61.8-27.2-99.3c18.4-35.3,34.6-37.5,236.8-37.5c198.6,0,220.6,2.9,238.3,36
		c13.2,25.7,8.8,64.7-10.3,86.8l-17.7,20.6l-201.5,1.5C775.5,2633.2,728.5,2631.8,714.5,2623.7z"/>
	<path d="M3989.4,2626.6c-34.6-14-50.7-67.7-32.4-103.7c17.7-33.1,39.7-36,239-36c204.5,0,220.6,2.9,237.5,40.4
		c11,24.3,11,41.9,0,66.2c-16.9,38.2-33.1,40.4-239,39.7C4090.1,2633.2,3997.5,2630.3,3989.4,2626.6z"/>
	<path d="M1261.7,1894.1c-11.8-5.9-89.7-50-171.4-97.1c-150.8-86-170.6-103-170.6-140.5c0-39,36-74.3,75-74.3
		c9.6,0,91.9,42.7,182.4,94.9c180.2,103,197.1,118.4,188.3,165.5C1356.5,1889.7,1303.6,1916.2,1261.7,1894.1z"/>
	<path d="M3806.3,1900.7c-23.5-5.9-47.1-32.4-52.2-57.4c-8.8-47.8,5.9-61,181.7-162.5c89.7-51.5,170.6-94.9,180.2-97.1
		c39.7-7.4,83.8,30.2,83.8,72.1c0,33.8-20.6,55.2-93.4,96.3c-39.7,23.5-112.5,65.5-162.5,94.1
		C3851.9,1899.3,3832,1907.4,3806.3,1900.7z"/>
	<path d="M1794.1,1358c-13.2-7.4-50-63.2-114-173.6c-51.5-89.7-94.9-170.6-97.1-180.2c-7.4-39.7,30.2-83.8,72.1-83.8
		c38.2,0,54.4,19.9,141.2,170.6c116.2,201.5,111.8,191.9,101.5,222.1c-4.4,13.2-14,30.2-21.3,36.8
		C1857.4,1367.6,1816.9,1371.2,1794.1,1358z"/>
	<path d="M3262,1362.4c-25.7-11-42.7-36-42.7-64.7c0-22.8,17.7-58.8,94.9-191.9c95.6-166.2,111.1-185.3,150-185.3
		c41.9,0,79.4,44.1,72.1,83.8c-2.2,9.6-45.6,90.5-97.1,180.2C3332.6,1368.3,3317.2,1384.5,3262,1362.4z"/>
	<path d="M2510.4,1152.8l-20.6-17.7l-2.2-197.1c-2.2-214,0-230.9,36-249.3c25-13.2,44.1-14,69.1-2.2c37.5,16.9,40.4,33.1,40.4,237.5
		c0,199.3-2.9,221.4-36,239C2571.5,1176.3,2532.5,1171.9,2510.4,1152.8z"/>
</g>
</svg>
