<?xml version="1.0" encoding="utf-8"?>
<!-- Generator: Adobe Illustrator 24.3.0, SVG Export Plug-In . SVG Version: 6.00 Build 0)  -->
<svg version="1.1" id="Слой_1" xmlns="http://www.w3.org/2000/svg" xmlns:xlink="http://www.w3.org/1999/xlink" x="0px" y="0px"
	 viewBox="0 0 95 95" style="enable-background:new 0 0 95 95;" xml:space="preserve">
<style type="text/css">
	.st0{fill:none;stroke:#000000;stroke-width:2.7832;stroke-miterlimit:1.8555;}
	.st1{fill:none;stroke:#000000;stroke-width:2;stroke-miterlimit:10;}
</style>
<g>
	<path class="st0" d="M24.7,87h45.6l22.8-39.5L70.3,8H24.7L1.9,47.5L24.7,87z"/>
	<path class="st1" d="M60.7,21.5c2.5,0,3.2,0.1,5.3,1.6c1,1.6,1,1.6,1,3c0.4,0,0.9-0.1,1.3-0.1c3.6-0.1,6-0.1,8.9,2.3
		c1.9,3.8,1.3,10.3,0.2,14.3c-1.6,3.4-3.7,5.5-6.8,7.6c-2.1,0.6-2.1,0.6-3.6,0.7c-0.2,0.7-0.3,1.5-0.5,2.2c-1.1,3.7-2.8,6.9-6.1,8.9
		c-0.5,0.3-1.1,0.5-1.6,0.8c-1.8,1-2.6,1.5-3.2,3.5c-0.1,2.8,0.1,4.5,1.7,6.8c2.1,1.3,3.7,1.6,6.1,1.8c0.5,1.7,0.5,1.7,0.7,3.6
		c-1.7,1.7-2.1,1.6-4.4,1.6c-0.6,0-1.2,0-1.8,0c-1,0-1,0-2,0c-0.7,0-1.3,0-2,0c-1.4,0-2.9,0-4.3,0c-2.2,0-4.4,0-6.6,0
		c-1.4,0-2.8,0-4.2,0c-0.7,0-1.3,0-2,0c-0.9,0-0.9,0-1.8,0c-0.5,0-1.1,0-1.6,0c-1.3-0.2-1.3-0.2-2.8-1.6c0.3-1.9,0.3-1.9,0.7-3.6
		c0.4-0.1,0.9-0.2,1.4-0.3c3.6-0.8,3.6-0.8,6.1-3.4c0.7-1.8,0.7-1.8,1.3-4.4c1.2,0,2.4,0,3.6,0c0.7,0.7,0.7,0.7,0.8,3.2
		c-0.1,2.6-0.1,2.6-0.8,4.1c2.4,0.2,4.8,0.5,7.3,0.7c-0.4-0.7-0.4-0.7-0.7-1.5c-0.1-1.2-0.1-2.5,0-3.7c0-0.7,0-1.3,0-2
		c0-0.5,0-1,0-1.5c-0.5,0-1,0.1-1.5,0.1c-6.7,0.3-11.6-1.7-16.7-6c-0.6-1.5-0.6-1.5-0.7-2.9c0.5-0.7,1-1.4,1.5-2.2
		c3.3,0.4,4.8,1.6,7.3,3.6c4,1.8,8.3,2.3,12.5,1c3.7-1.6,6-4,7.9-7.6c0.8-2.5,0.9-4.9,1-7.5c0-0.5,0-1,0-1.6c0-1.6,0.1-3.3,0.1-4.9
		c0-1.1,0.1-2.2,0.1-3.3c0.1-2.7,0.2-5.5,0.2-8.2c-1.1,0-1.1,0-2.1,0c-2.2,0-2.2,0-3-0.8c-0.1-1.8-0.1-1.8,0-3.6
		C58,21.4,59.1,21.6,60.7,21.5z M67.8,32c0,4.3,0,8.7,0,13.1c3.7-2.8,3.7-2.8,5.1-6.6c0.1-2.2,0.1-4.4,0-6.6
		C71.2,32,69.5,32,67.8,32z"/>
	<path class="st1" d="M35.5,21.7c0.5,0,1,0,1.5,0c1,0,2,0,3.1,0c1.6,0,3.1,0,4.7,0c1,0,2,0,3,0c1.4,0,1.4,0,2.7,0
		c2.1,0.1,2.1,0.1,2.8,0.8c0.1,1.8,0.1,1.8,0,3.6c-0.7,0.7-0.7,0.7-2.6,0.8c-0.8,0-1.6,0-2.5,0c-0.9,0-1.8,0-2.7,0
		c-0.9,0-1.9,0-2.8,0c-0.9,0-1.9,0-2.8,0c-2.3,0-4.6,0-7,0c0,1.1,0,1.1,0,2.1c0,2.6,0,5.2,0,7.8c0,1.1,0,2.3,0,3.4
		c0,1.6,0,3.2,0,4.9c0,0.5,0,1,0,1.5c0,1.2,0,2.4-0.1,3.6C32,51,32,51,29.4,51.2c-3.7-0.1-6.3-1.5-9.1-3.9c-3.1-4-3.8-6.9-3.9-11.9
		c0-1-0.1-1.9-0.1-2.9c0.4-2.7,0.4-2.7,2-4.8c2.3-1.6,3.2-1.9,5.9-1.7c0.6,0,1.3,0.1,2,0.1c0.7,0.1,0.7,0.1,1.5,0.1
		c0.2-0.6,0.4-1.2,0.6-1.8C29.8,21,32.1,21.7,35.5,21.7z M22.6,31.3c-1.1,1.1-0.9,2.2-0.9,3.8c0,3.1,0.6,5.3,2.4,7.9
		c1,0.5,1.9,1,2.9,1.5c0-4.3,0-8.7,0-13.1C25.5,31.3,24,31.3,22.6,31.3z"/>
</g>
</svg>
