<?xml version="1.0" encoding="UTF-8"?>
<svg xmlns="http://www.w3.org/2000/svg" xmlns:xlink="http://www.w3.org/1999/xlink" width="95px" height="95px" viewBox="0 0 95 95" version="1.1">
<g id="surface1">
<path style="fill:none;stroke-width:15;stroke-linecap:butt;stroke-linejoin:miter;stroke:rgb(0%,0%,0%);stroke-opacity:1;stroke-miterlimit:10;" d="M 133.010526 469.094737 L 378.989474 469.094737 L 502 256 L 378.989474 42.905263 L 133.010526 42.905263 L 10 256 Z M 133.010526 469.094737 " transform="matrix(0.185547,0,0,0.185547,0,0)"/>
<path style=" stroke:none;fill-rule:nonzero;fill:rgb(0%,0%,0%);fill-opacity:1;" d="M 27.21875 22.339844 C 26.960938 23.0625 27.125 24.121094 27.757812 24.75 C 28.296875 25.289062 28.742188 26.8125 28.742188 28.148438 C 28.742188 30.207031 28.480469 30.46875 26.515625 30.023438 C 22.933594 29.390625 20.445312 32.171875 21.058594 36.089844 C 21.414062 38.40625 23.027344 40.652344 27.589844 45.105469 C 33.9375 51.265625 34.828125 52.25 38.851562 57.703125 L 41.265625 61.101562 L 38.59375 61.101562 C 35.996094 61.101562 35.921875 61.285156 35.921875 65.035156 C 35.921875 67.796875 35.476562 69.152344 34.492188 69.507812 C 33.695312 69.765625 33.25 70.84375 33.417969 72.011719 C 33.675781 74.070312 33.863281 74.070312 47.539062 74.070312 C 61.210938 74.070312 61.378906 74.070312 61.65625 72.011719 C 61.84375 70.84375 61.398438 69.785156 60.582031 69.507812 C 59.597656 69.152344 59.152344 67.816406 59.152344 65.035156 C 59.152344 61.453125 58.964844 61.101562 56.925781 61.101562 C 54.160156 61.101562 54.160156 60.75 56.664062 57.261719 C 59.523438 53.140625 60.785156 51.710938 67.484375 45.105469 C 72.046875 40.636719 73.644531 38.410156 74.015625 36.089844 C 74.644531 32.15625 72.140625 29.390625 68.558594 30.023438 C 66.59375 30.46875 66.332031 30.207031 66.332031 28.148438 C 66.332031 26.8125 66.777344 25.289062 67.316406 24.75 C 67.945312 24.121094 68.113281 23.0625 67.855469 22.339844 C 67.316406 21.097656 64.644531 20.910156 47.574219 20.910156 C 30.503906 20.910156 27.757812 21.097656 27.21875 22.339844 Z M 66.257812 23.601562 C 66.257812 24.046875 65.90625 24.492188 65.367188 24.492188 C 64.921875 24.492188 64.476562 26.011719 64.476562 27.796875 C 64.382812 36.644531 60.285156 48.871094 54.644531 57.09375 C 51.972656 60.933594 51.695312 61.121094 47.40625 61.121094 C 43.027344 61.121094 42.9375 61.121094 39.820312 56.203125 C 38.128906 53.4375 35.976562 49.503906 35.085938 47.445312 C 33.027344 42.621094 30.523438 31.804688 30.523438 27.703125 C 30.523438 25.921875 30.171875 24.492188 29.632812 24.492188 C 29.1875 24.492188 28.742188 24.046875 28.742188 23.601562 C 28.742188 23.0625 35.625 22.710938 47.5 22.710938 C 59.375 22.710938 66.257812 23.0625 66.257812 23.601562 Z M 27.925781 33.0625 C 28.816406 34.140625 28.816406 34.84375 28.015625 36.199219 C 26.589844 38.519531 26.683594 38.964844 28.554688 38.425781 C 29.796875 37.980469 30.429688 38.6875 31.507812 42.265625 L 32.84375 46.738281 L 30.429688 44.957031 C 26.847656 42.453125 22.46875 37.183594 22.46875 35.402344 C 22.488281 32.007812 25.882812 30.558594 27.925781 33.0625 Z M 71.621094 32.972656 C 73.308594 35.03125 71.972656 38.242188 67.5 42.265625 C 65.273438 44.417969 63.308594 45.921875 63.125 45.757812 C 62.9375 45.570312 63.308594 43.789062 63.847656 41.636719 C 64.644531 38.59375 65.183594 37.980469 66.445312 38.425781 C 68.320312 38.964844 68.410156 38.519531 66.980469 36.199219 C 65.015625 32.972656 69.210938 30.113281 71.621094 32.972656 Z M 57.335938 66.925781 C 57.335938 69.875 57.6875 70.953125 58.671875 70.953125 C 59.394531 70.953125 60.003906 71.304688 60.003906 71.84375 C 60.003906 72.382812 55.273438 72.734375 47.5 72.734375 C 39.726562 72.734375 34.992188 72.382812 34.992188 71.84375 C 34.992188 71.304688 35.625 70.953125 36.328125 70.953125 C 37.3125 70.953125 37.664062 69.875 37.664062 66.925781 L 37.664062 62.898438 L 57.335938 62.898438 Z M 57.335938 66.925781 "/>
<path style=" stroke:none;fill-rule:nonzero;fill:rgb(0%,0%,0%);fill-opacity:1;" d="M 32.304688 25.382812 C 32.304688 25.828125 32.75 26.273438 33.195312 26.273438 C 33.734375 26.273438 34.085938 25.828125 34.085938 25.382812 C 34.085938 24.84375 33.734375 24.492188 33.195312 24.492188 C 32.75 24.492188 32.304688 24.84375 32.304688 25.382812 Z M 32.304688 25.382812 "/>
<path style=" stroke:none;fill-rule:nonzero;fill:rgb(0%,0%,0%);fill-opacity:1;" d="M 35.882812 25.382812 C 35.882812 25.828125 36.328125 26.273438 36.773438 26.273438 C 37.3125 26.273438 37.667969 25.828125 37.667969 25.382812 C 37.667969 24.84375 37.3125 24.492188 36.773438 24.492188 C 36.328125 24.492188 35.882812 24.84375 35.882812 25.382812 Z M 35.882812 25.382812 "/>
<path style=" stroke:none;fill-rule:nonzero;fill:rgb(0%,0%,0%);fill-opacity:1;" d="M 39.464844 25.382812 C 39.464844 25.828125 39.910156 26.273438 40.355469 26.273438 C 40.894531 26.273438 41.246094 25.828125 41.246094 25.382812 C 41.246094 24.84375 40.894531 24.492188 40.355469 24.492188 C 39.910156 24.492188 39.464844 24.84375 39.464844 25.382812 Z M 39.464844 25.382812 "/>
<path style=" stroke:none;fill-rule:nonzero;fill:rgb(0%,0%,0%);fill-opacity:1;" d="M 43.027344 25.382812 C 43.027344 25.828125 43.472656 26.273438 43.917969 26.273438 C 44.457031 26.273438 44.808594 25.828125 44.808594 25.382812 C 44.808594 24.84375 44.457031 24.492188 43.917969 24.492188 C 43.472656 24.492188 43.027344 24.84375 43.027344 25.382812 Z M 43.027344 25.382812 "/>
<path style=" stroke:none;fill-rule:nonzero;fill:rgb(0%,0%,0%);fill-opacity:1;" d="M 46.609375 25.382812 C 46.609375 25.828125 47.054688 26.273438 47.5 26.273438 C 48.039062 26.273438 48.390625 25.828125 48.390625 25.382812 C 48.390625 24.84375 48.039062 24.492188 47.5 24.492188 C 47.054688 24.492188 46.609375 24.84375 46.609375 25.382812 Z M 46.609375 25.382812 "/>
<path style=" stroke:none;fill-rule:nonzero;fill:rgb(0%,0%,0%);fill-opacity:1;" d="M 50.171875 25.382812 C 50.171875 25.828125 50.617188 26.273438 51.0625 26.273438 C 51.601562 26.273438 51.953125 25.828125 51.953125 25.382812 C 51.953125 24.84375 51.601562 24.492188 51.0625 24.492188 C 50.636719 24.492188 50.171875 24.84375 50.171875 25.382812 Z M 50.171875 25.382812 "/>
<path style=" stroke:none;fill-rule:nonzero;fill:rgb(0%,0%,0%);fill-opacity:1;" d="M 53.753906 25.382812 C 53.753906 25.828125 54.199219 26.273438 54.644531 26.273438 C 55.179688 26.273438 55.535156 25.828125 55.535156 25.382812 C 55.535156 24.84375 55.183594 24.492188 54.644531 24.492188 C 54.199219 24.492188 53.753906 24.84375 53.753906 25.382812 Z M 53.753906 25.382812 "/>
<path style=" stroke:none;fill-rule:nonzero;fill:rgb(0%,0%,0%);fill-opacity:1;" d="M 57.335938 25.382812 C 57.335938 25.828125 57.777344 26.273438 58.226562 26.273438 C 58.761719 26.273438 59.117188 25.828125 59.117188 25.382812 C 59.117188 24.84375 58.761719 24.492188 58.226562 24.492188 C 57.777344 24.492188 57.335938 24.84375 57.335938 25.382812 Z M 57.335938 25.382812 "/>
<path style=" stroke:none;fill-rule:nonzero;fill:rgb(0%,0%,0%);fill-opacity:1;" d="M 60.898438 25.382812 C 60.898438 25.828125 61.339844 26.273438 61.789062 26.273438 C 62.324219 26.273438 62.679688 25.828125 62.679688 25.382812 C 62.679688 24.84375 62.324219 24.492188 61.789062 24.492188 C 61.34375 24.492188 60.898438 24.84375 60.898438 25.382812 Z M 60.898438 25.382812 "/>
<path style=" stroke:none;fill-rule:nonzero;fill:rgb(0%,0%,0%);fill-opacity:1;" d="M 39.464844 70.0625 C 39.464844 70.507812 39.910156 70.953125 40.355469 70.953125 C 40.894531 70.953125 41.246094 70.507812 41.246094 70.0625 C 41.246094 69.523438 40.894531 69.171875 40.355469 69.171875 C 39.910156 69.171875 39.464844 69.523438 39.464844 70.0625 Z M 39.464844 70.0625 "/>
<path style=" stroke:none;fill-rule:nonzero;fill:rgb(0%,0%,0%);fill-opacity:1;" d="M 43.027344 70.0625 C 43.027344 70.507812 43.472656 70.953125 43.917969 70.953125 C 44.457031 70.953125 44.808594 70.507812 44.808594 70.0625 C 44.808594 69.523438 44.457031 69.171875 43.917969 69.171875 C 43.472656 69.171875 43.027344 69.523438 43.027344 70.0625 Z M 43.027344 70.0625 "/>
<path style=" stroke:none;fill-rule:nonzero;fill:rgb(0%,0%,0%);fill-opacity:1;" d="M 46.609375 70.0625 C 46.609375 70.507812 47.054688 70.953125 47.5 70.953125 C 48.039062 70.953125 48.390625 70.507812 48.390625 70.0625 C 48.390625 69.523438 48.039062 69.171875 47.5 69.171875 C 47.054688 69.171875 46.609375 69.523438 46.609375 70.0625 Z M 46.609375 70.0625 "/>
<path style=" stroke:none;fill-rule:nonzero;fill:rgb(0%,0%,0%);fill-opacity:1;" d="M 50.171875 70.0625 C 50.171875 70.507812 50.617188 70.953125 51.0625 70.953125 C 51.601562 70.953125 51.953125 70.507812 51.953125 70.0625 C 51.953125 69.523438 51.601562 69.171875 51.0625 69.171875 C 50.636719 69.171875 50.171875 69.523438 50.171875 70.0625 Z M 50.171875 70.0625 "/>
<path style=" stroke:none;fill-rule:nonzero;fill:rgb(0%,0%,0%);fill-opacity:1;" d="M 53.753906 70.0625 C 53.753906 70.507812 54.199219 70.953125 54.644531 70.953125 C 55.179688 70.953125 55.535156 70.507812 55.535156 70.0625 C 55.535156 69.523438 55.183594 69.171875 54.644531 69.171875 C 54.199219 69.171875 53.753906 69.523438 53.753906 70.0625 Z M 53.753906 70.0625 "/>
</g>
</svg>
