<?xml version="1.0" encoding="UTF-8"?>
<svg xmlns="http://www.w3.org/2000/svg" xmlns:xlink="http://www.w3.org/1999/xlink" width="95px" height="95px" viewBox="0 0 95 95" version="1.1">
<g id="surface1">
<path style="fill:none;stroke-width:15;stroke-linecap:butt;stroke-linejoin:miter;stroke:rgb(0%,0%,0%);stroke-opacity:1;stroke-miterlimit:10;" d="M 133.010526 469.094737 L 378.989474 469.094737 L 502 256 L 378.989474 42.905263 L 133.010526 42.905263 L 10 256 Z M 133.010526 469.094737 " transform="matrix(0.185547,0,0,0.185547,0,0)"/>
<path style=" stroke:none;fill-rule:nonzero;fill:rgb(0%,0%,0%);fill-opacity:1;" d="M 58.59375 29.613281 C 55.71875 31.894531 53.328125 33.75 53.234375 33.75 C 53.160156 33.75 50.097656 32.507812 46.425781 30.96875 C 41.804688 29.039062 39.671875 28.242188 39.484375 28.277344 C 39.152344 28.371094 24.863281 38.519531 24.585938 38.851562 C 24.511719 38.964844 24.417969 39.242188 24.417969 39.484375 C 24.417969 40.039062 24.976562 40.503906 25.476562 40.414062 C 25.679688 40.375 28.945312 38.128906 32.769531 35.382812 C 37.183594 32.230469 39.78125 30.46875 39.910156 30.503906 C 40.023438 30.523438 43.085938 31.785156 46.664062 33.289062 C 50.265625 34.773438 53.363281 35.996094 53.550781 35.996094 C 53.753906 35.996094 54.882812 35.179688 57.128906 33.398438 C 58.910156 31.96875 61.359375 30.039062 62.566406 29.113281 C 63.773438 28.167969 64.847656 27.273438 64.980469 27.144531 C 65.3125 26.773438 65.277344 26.105469 64.90625 25.773438 C 64.21875 25.125 64.179688 25.160156 58.59375 29.613281 Z M 58.59375 29.613281 "/>
<path style=" stroke:none;fill-rule:nonzero;fill:rgb(0%,0%,0%);fill-opacity:1;" d="M 64.21875 30.484375 L 63.882812 30.746094 L 63.882812 60.601562 L 60.320312 60.601562 L 60.320312 50.765625 C 60.320312 40.914062 60.320312 40.914062 60.042969 40.652344 C 59.78125 40.414062 59.484375 40.414062 54.644531 40.414062 L 49.539062 40.414062 L 48.945312 41.007812 L 48.910156 50.804688 L 48.871094 60.601562 L 45.460938 60.601562 L 45.460938 50.003906 C 45.460938 39.578125 45.460938 39.410156 45.199219 39.148438 C 44.957031 38.910156 44.773438 38.890625 39.820312 38.890625 L 34.679688 38.890625 L 34.417969 39.226562 C 34.140625 39.578125 34.140625 39.652344 34.140625 50.078125 L 34.140625 60.597656 L 30.726562 60.597656 L 30.726562 53.160156 C 30.726562 47.925781 30.691406 45.644531 30.578125 45.402344 C 30.300781 44.808594 30.039062 44.789062 24.75 44.828125 L 19.78125 44.863281 L 19.539062 45.179688 C 19.296875 45.476562 19.296875 45.792969 19.296875 53.027344 L 19.296875 60.582031 L 16.921875 60.582031 C 15.605469 60.582031 14.398438 60.65625 14.195312 60.710938 C 13.453125 61.007812 13.25 61.804688 13.804688 62.363281 L 14.121094 62.695312 L 80.175781 62.695312 L 80.492188 62.363281 C 80.878906 61.972656 80.917969 61.398438 80.5625 60.96875 C 80.324219 60.65625 80.265625 60.65625 77.742188 60.617188 L 75.164062 60.5625 L 75.164062 30.835938 L 74.832031 30.523438 L 74.515625 30.1875 L 69.523438 30.1875 C 64.699219 30.207031 64.570312 30.207031 64.21875 30.484375 Z M 73.21875 46.441406 L 73.21875 60.582031 L 65.832031 60.582031 L 65.832031 32.304688 L 73.21875 32.304688 Z M 43.492188 50.726562 L 43.492188 60.597656 L 36.109375 60.597656 L 36.109375 50.820312 C 36.109375 45.441406 36.144531 40.988281 36.199219 40.949219 C 36.238281 40.894531 37.890625 40.859375 39.890625 40.859375 L 43.492188 40.859375 Z M 58.226562 51.507812 L 58.226562 60.582031 L 50.988281 60.582031 L 50.988281 42.433594 L 58.226562 42.433594 Z M 28.609375 53.753906 L 28.609375 60.597656 L 21.226562 60.597656 L 21.226562 46.90625 L 28.609375 46.90625 Z M 28.609375 53.753906 "/>
</g>
</svg>
