<?xml version="1.0" encoding="UTF-8"?>
<svg xmlns="http://www.w3.org/2000/svg" xmlns:xlink="http://www.w3.org/1999/xlink" width="95px" height="95px" viewBox="0 0 95 95" version="1.1">
<g id="surface1">
<path style="fill:none;stroke-width:15;stroke-linecap:butt;stroke-linejoin:miter;stroke:rgb(0%,0%,0%);stroke-opacity:1;stroke-miterlimit:10;" d="M 133.010526 469.094737 L 378.989474 469.094737 L 502 256 L 378.989474 42.905263 L 133.010526 42.905263 L 10 256 Z M 133.010526 469.094737 " transform="matrix(0.185547,0,0,0.185547,0,0)"/>
<path style=" stroke:none;fill-rule:nonzero;fill:rgb(0%,0%,0%);fill-opacity:1;" d="M 26.570312 17.316406 C 25.941406 17.519531 25.125 18.367188 24.945312 19.011719 C 24.835938 19.367188 24.792969 27.09375 24.792969 43.671875 C 24.792969 66.882812 24.808594 67.839844 25.054688 68.359375 C 25.191406 68.660156 25.480469 69.070312 25.695312 69.265625 C 26.273438 69.785156 39.019531 78.6875 39.402344 78.839844 C 39.976562 79.058594 41.042969 78.976562 41.65625 78.675781 C 41.972656 78.511719 45.554688 76.390625 49.617188 73.96875 C 53.679688 71.546875 60.078125 67.734375 63.839844 65.492188 C 75.605469 58.488281 74.589844 59.144531 75.015625 58.308594 L 75.398438 57.597656 L 75.398438 50.160156 C 75.398438 41.953125 75.410156 42.144531 74.539062 41.242188 C 74.019531 40.710938 75.042969 41.050781 58.164062 35.851562 C 46.03125 32.132812 45.035156 31.84375 44.117188 31.859375 L 43.132812 31.859375 L 43.089844 27.316406 L 43.050781 22.777344 L 42.625 22.246094 C 42.40625 21.957031 41.941406 21.589844 41.601562 21.425781 C 40.710938 20.988281 27.988281 17.144531 27.484375 17.15625 C 27.242188 17.164062 26.832031 17.234375 26.570312 17.316406 Z M 33.957031 21.828125 L 40.316406 23.785156 L 40.34375 39.789062 L 40.386719 55.777344 L 34.628906 60.90625 C 31.46875 63.722656 28.679688 66.210938 28.445312 66.417969 C 27.925781 66.882812 28.035156 66.816406 45.421875 57.691406 C 52.574219 53.929688 58.425781 50.824219 58.441406 50.769531 C 58.441406 50.730469 58.152344 50.578125 57.800781 50.429688 C 57.429688 50.28125 55.542969 49.429688 53.585938 48.542969 L 50.019531 46.914062 L 47.183594 40.757812 C 45.625 37.378906 44.367188 34.589844 44.394531 34.5625 C 44.40625 34.550781 50.78125 36.476562 58.550781 38.84375 L 72.667969 43.179688 L 72.667969 57.046875 L 56.636719 66.59375 C 47.8125 71.847656 40.511719 76.140625 40.386719 76.140625 C 40.277344 76.140625 37.335938 74.144531 33.863281 71.710938 L 27.53125 67.277344 L 27.53125 43.574219 C 27.53125 30.539062 27.542969 19.871094 27.570312 19.871094 C 27.582031 19.886719 30.457031 20.761719 33.957031 21.828125 Z M 45.460938 43.5625 C 46.648438 46.148438 47.800781 48.472656 48.019531 48.730469 C 48.304688 49.074219 48.894531 49.417969 50.21875 50.03125 C 51.21875 50.480469 52.054688 50.90625 52.054688 50.960938 C 52.082031 51.070312 43.449219 55.695312 43.230469 55.707031 C 43.160156 55.707031 43.121094 51.878906 43.121094 47.199219 C 43.121094 42.523438 43.160156 38.746094 43.21875 38.785156 C 43.257812 38.84375 44.273438 40.992188 45.460938 43.5625 Z M 45.460938 43.5625 "/>
</g>
</svg>
