<?xml version="1.0" encoding="UTF-8"?>
<svg xmlns="http://www.w3.org/2000/svg" xmlns:xlink="http://www.w3.org/1999/xlink" width="95px" height="95px" viewBox="0 0 95 95" version="1.1">
<g id="surface1">
<path style="fill:none;stroke-width:15;stroke-linecap:butt;stroke-linejoin:miter;stroke:rgb(0%,0%,0%);stroke-opacity:1;stroke-miterlimit:10;" d="M 133.010526 469.094737 L 378.989474 469.094737 L 502 256 L 378.989474 42.905263 L 133.010526 42.905263 L 10 256 Z M 133.010526 469.094737 " transform="matrix(0.185547,0,0,0.185547,0,0)"/>
<path style=" stroke:none;fill-rule:nonzero;fill:rgb(0%,0%,0%);fill-opacity:1;" d="M 38.097656 24.515625 C 37.277344 24.664062 36.203125 25.210938 35.597656 25.804688 C 34.625 26.742188 34.167969 27.679688 33.964844 29.105469 L 33.894531 29.65625 L 28.9375 29.65625 C 25.785156 29.65625 23.761719 29.703125 23.375 29.78125 C 21.226562 30.226562 19.238281 32.066406 18.542969 34.261719 L 18.257812 35.152344 L 18.257812 50.082031 C 18.257812 66.464844 18.222656 65.503906 18.953125 67.003906 C 19.410156 67.941406 20.574219 69.117188 21.59375 69.675781 C 22.003906 69.914062 22.734375 70.203125 23.226562 70.328125 C 24.105469 70.554688 24.503906 70.554688 47.492188 70.554688 C 67.335938 70.554688 70.980469 70.523438 71.640625 70.386719 C 73.378906 70.019531 75.125 68.671875 75.972656 67.058594 C 76.792969 65.496094 76.75 66.546875 76.75 50.050781 C 76.75 33.679688 76.78125 34.589844 76.039062 33.152344 C 75.492188 32.113281 74.132812 30.8125 73.082031 30.308594 C 72.613281 30.09375 71.960938 29.851562 71.628906 29.785156 C 71.242188 29.703125 69.210938 29.65625 66.011719 29.65625 L 60.984375 29.65625 L 60.984375 29.222656 C 60.984375 27.773438 60 26.125 58.605469 25.234375 C 57.351562 24.425781 57.921875 24.46875 47.789062 24.449219 C 42.757812 24.433594 38.394531 24.46875 38.097656 24.515625 Z M 56.570312 27.578125 C 57.621094 27.945312 58.011719 28.789062 58.011719 30.707031 C 58.011719 31.734375 58.171875 32.125 58.742188 32.46875 C 59.074219 32.671875 59.472656 32.683594 65.152344 32.742188 C 71 32.800781 71.230469 32.808594 71.71875 33.039062 C 72.371094 33.347656 73.113281 34.089844 73.457031 34.773438 L 73.71875 35.3125 L 73.71875 64.671875 L 73.34375 65.4375 C 72.910156 66.328125 72.269531 66.910156 71.378906 67.253906 C 70.816406 67.472656 70.222656 67.472656 47.5 67.472656 C 24.78125 67.472656 24.183594 67.472656 23.625 67.253906 C 22.734375 66.910156 22.09375 66.328125 21.660156 65.4375 L 21.285156 64.671875 L 21.25 50.5625 C 21.21875 36.214844 21.238281 35.4375 21.636719 34.660156 C 21.933594 34.101562 22.609375 33.425781 23.214844 33.105469 L 23.796875 32.800781 L 36.023438 32.683594 L 36.398438 32.421875 C 36.96875 32.007812 37.039062 31.769531 37.109375 30.226562 C 37.164062 28.960938 37.210938 28.753906 37.449219 28.378906 C 37.757812 27.921875 38.203125 27.609375 38.753906 27.476562 C 38.949219 27.429688 42.910156 27.394531 47.5625 27.386719 C 55.246094 27.382812 56.058594 27.394531 56.570312 27.578125 Z M 56.570312 27.578125 "/>
<path style=" stroke:none;fill-rule:nonzero;fill:rgb(0%,0%,0%);fill-opacity:1;" d="M 66.636719 36.386719 C 64.144531 37.035156 63.78125 40.382812 66.0625 41.570312 C 66.75 41.925781 67.847656 41.914062 68.578125 41.539062 C 70.050781 40.773438 70.507812 38.820312 69.515625 37.449219 C 68.910156 36.589844 67.628906 36.121094 66.636719 36.386719 Z M 66.636719 36.386719 "/>
<path style=" stroke:none;fill-rule:nonzero;fill:rgb(0%,0%,0%);fill-opacity:1;" d="M 45.101562 36.578125 C 40.679688 37.378906 36.945312 40.246094 35.058594 44.289062 C 33.332031 47.96875 33.367188 52.367188 35.175781 56.101562 C 39.230469 64.554688 50.550781 66.441406 57.222656 59.792969 C 61.074219 55.941406 62.261719 50.128906 60.238281 44.976562 C 59.050781 41.933594 56.59375 39.285156 53.578125 37.777344 C 52.570312 37.273438 51.050781 36.78125 49.839844 36.578125 C 48.597656 36.363281 46.289062 36.363281 45.101562 36.578125 Z M 49.613281 39.777344 C 51.429688 40.132812 53.566406 41.25 54.914062 42.589844 C 56.261719 43.914062 57.257812 45.628906 57.757812 47.464844 C 58.160156 48.976562 58.183594 51.40625 57.804688 52.789062 C 56.777344 56.515625 53.976562 59.3125 50.171875 60.410156 C 49.40625 60.628906 48.996094 60.675781 47.5 60.675781 C 46.003906 60.675781 45.59375 60.628906 44.828125 60.410156 C 40.65625 59.210938 37.777344 56.058594 37.046875 51.863281 C 36.75 50.136719 36.898438 48.378906 37.503906 46.652344 C 38.632812 43.421875 41.261719 40.917969 44.492188 39.992188 C 46.253906 39.492188 47.738281 39.425781 49.613281 39.777344 Z M 49.613281 39.777344 "/>
</g>
</svg>
