<?xml version="1.0" encoding="utf-8"?>
<!-- Generator: Adobe Illustrator 24.3.0, SVG Export Plug-In . SVG Version: 6.00 Build 0)  -->
<svg version="1.1" id="Слой_1" xmlns="http://www.w3.org/2000/svg" xmlns:xlink="http://www.w3.org/1999/xlink" x="0px" y="0px"
	 viewBox="0 0 512 512" style="enable-background:new 0 0 512 512;" xml:space="preserve">
<style type="text/css">
	.st0{fill:none;stroke:#000000;stroke-width:15;stroke-miterlimit:10;}
</style>
<polygon class="st0" points="133,469.1 379,469.1 502,256 379,42.9 133,42.9 10,256 "/>
<g transform="translate(0.000000,512.000000) scale(0.100000,-0.100000)">
	<path d="M2053.3,3798.8c-44.3-8-102.2-37.6-134.8-69.6c-52.3-50.5-77-101-88-177.9l-3.7-29.6h-267.2c-169.9,0-278.9-2.5-299.9-6.8
		c-115.8-24-222.9-123.1-260.4-241.4l-15.4-48v-804.7c0-882.9-1.8-831.2,37.6-911.9c24.6-50.5,87.4-113.9,142.2-144.1
		c22.2-12.9,61.6-28.3,88-35.1c47.4-12.3,69-12.3,1307.8-12.3c1069.5,0,1265.9,1.8,1301.6,9.2c93.6,19.7,187.8,92.4,233.4,179.2
		c44.3,84.4,41.9,27.7,41.9,916.8c0,882.3,1.8,833.1-38.2,910.6c-29.6,56-102.8,126.2-159.5,153.3c-25.2,11.7-60.3,24.6-78.2,28.3
		c-20.9,4.3-130.5,6.8-302.9,6.8h-270.9v23.4c0,78.2-53,166.9-128.1,214.9c-67.7,43.7-36.9,41.3-583.1,42.5
		C2304.5,3803.1,2069.3,3801.2,2053.3,3798.8z M3048.9,3633.7c56.6-19.7,77.6-65.3,77.6-168.7c0-55.4,8.6-76.3,39.4-94.8
		c17.9-11.1,39.4-11.7,345.4-14.8c315.2-3.1,327.6-3.7,354-16c35.1-16.6,75.1-56.6,93.6-93.6l14.2-28.9v-791.2v-791.2l-20.3-41.3
		c-23.4-48-57.9-79.4-105.9-97.9c-30.2-11.7-62.2-11.7-1286.8-11.7s-1256.7,0-1286.8,11.7c-48,18.5-82.5,49.9-105.9,97.9l-20.3,41.3
		l-1.8,760.4c-1.8,773.3-0.6,815.2,20.9,857.1c16,30.2,52.3,66.5,85,83.7l31.4,16.6l329.4,3.1l329.4,3.1l20.3,14.2
		c30.8,22.2,34.5,35.1,38.2,118.2c3.1,68.3,5.5,79.4,18.5,99.7c16.6,24.6,40.6,41.3,70.2,48.6c10.5,2.5,224.1,4.3,474.7,4.9
		C2977.4,3644.2,3021.2,3643.6,3048.9,3633.7z"/>
	<path d="M3591.3,3159c-134.2-35.1-153.9-215.5-30.8-279.5c36.9-19.1,96.1-18.5,135.5,1.8c79.4,41.3,104.1,146.5,50.5,220.4
		C3713.8,3147.9,3644.9,3173.2,3591.3,3159z"/>
	<path d="M2430.7,3148.6c-238.3-43.1-439.6-197.6-541.2-415.6c-93-198.3-91.1-435.3,6.2-636.6c218.6-455.6,828.8-557.2,1188.3-198.9
		c207.5,207.5,271.5,520.9,162.5,798.6c-64,163.8-196.4,306.6-359,387.9c-54.2,27.1-136.1,53.6-201.3,64.6
		C2619.1,3160.3,2494.7,3160.3,2430.7,3148.6z M2673.9,2976.2c97.9-19.1,213-79.4,285.7-151.5c72.7-71.4,126.2-163.8,153.3-262.9
		c21.6-81.3,22.8-212.4,2.5-286.9c-55.4-200.7-206.3-351.6-411.3-410.7c-41.3-11.7-63.4-14.2-144.1-14.2
		c-80.7,0-102.8,2.5-144.1,14.2c-224.7,64.6-379.9,234.6-419.3,460.6c-16,93-8,187.8,24.6,280.8c61,174.2,202.6,309.1,376.8,359
		C2492.9,2991.6,2572.9,2995.2,2673.9,2976.2z"/>
</g>
</svg>
