<?xml version="1.0" encoding="utf-8"?>
<!-- Generator: Adobe Illustrator 24.3.0, SVG Export Plug-In . SVG Version: 6.00 Build 0)  -->
<svg version="1.1" id="Слой_1" xmlns="http://www.w3.org/2000/svg" xmlns:xlink="http://www.w3.org/1999/xlink" x="0px" y="0px"
	 viewBox="0 0 512 512" style="enable-background:new 0 0 512 512;" xml:space="preserve">
<style type="text/css">
	.st0{fill:none;stroke:#000000;stroke-width:15;stroke-miterlimit:10;}
	.st1{fill:none;stroke:#020202;stroke-width:13;stroke-miterlimit:1;}
</style>
<g>
	<polygon class="st0" points="133,469.1 379,469.1 502,256 379,42.9 133,42.9 10,256 	"/>
	<g transform="translate(0.000000,225.000000) scale(0.100000,-0.100000)">
		<path class="st1" d="M1187.7,1054.4c-7.4-17.4-9.9-238.1-7.4-488.6l7.4-458.8h148.8h148.8l7.4,327.4l7.4,329.9l525.8,5l525.8,7.4
			v148.8v148.8l-677.1,7.4C1339,1086.7,1195.2,1081.7,1187.7,1054.4z"/>
		<path class="st1" d="M2378.2,233.5c-111.6-47.1-235.6-161.2-315-285.2c-173.6-275.3-17.4-687,300.1-793.6
			c188.5-62,523.3,2.5,565.5,111.6c22.3,59.5-178.6,255.4-220.7,213.3c-17.4-17.4-79.4-29.8-138.9-29.8
			c-210.8,0-327.4,220.7-200.9,381.9c76.9,99.2,161.2,124,290.2,86.8c104.2-29.8,109.1-27.3,193.4,54.6
			c116.6,114.1,109.1,153.8-44.6,230.6C2663.4,275.7,2499.7,288.1,2378.2,233.5z"/>
		<path class="st1" d="M3648-738.7c-9.9-9.9-17.4-161.2-17.4-334.8v-319.9l-525.8-5l-528.3-7.4v-148.8v-148.8h682h682v483.6v483.6
			l-136.4,7.4C3727.3-723.8,3657.9-728.7,3648-738.7z"/>
	</g>
</g>
</svg>
