<?xml version="1.0" encoding="UTF-8"?>
<svg xmlns="http://www.w3.org/2000/svg" xmlns:xlink="http://www.w3.org/1999/xlink" width="95px" height="95px" viewBox="0 0 95 95" version="1.1">
<g id="surface1">
<path style="fill:none;stroke-width:15;stroke-linecap:butt;stroke-linejoin:miter;stroke:rgb(0%,0%,0%);stroke-opacity:1;stroke-miterlimit:10;" d="M 133.010526 469.094737 L 378.989474 469.094737 L 502 256 L 378.989474 42.905263 L 133.010526 42.905263 L 10 256 Z M 133.010526 469.094737 " transform="matrix(0.185547,0,0,0.185547,0,0)"/>
<path style="fill:none;stroke-width:13;stroke-linecap:butt;stroke-linejoin:miter;stroke:rgb(0.784314%,0.784314%,0.784314%);stroke-opacity:1;stroke-miterlimit:1;" d="M 1187.789474 1054.421053 C 1180.210526 1036.947368 1177.894737 816.315789 1180.210526 565.789474 L 1187.789474 107.052632 L 1485.263158 107.052632 L 1492.631579 434.421053 L 1500 764.315789 L 2025.894737 769.368421 L 2551.789474 776.736842 L 2551.789474 1074.210526 L 1874.526316 1081.789474 C 1338.947368 1086.631579 1195.157895 1081.789474 1187.789474 1054.421053 Z M 1187.789474 1054.421053 " transform="matrix(0.0185547,0,0,-0.0185547,0,41.748047)"/>
<path style="fill:none;stroke-width:13;stroke-linecap:butt;stroke-linejoin:miter;stroke:rgb(0.784314%,0.784314%,0.784314%);stroke-opacity:1;stroke-miterlimit:1;" d="M 2378.105263 233.578947 C 2266.526316 186.421053 2142.526316 72.315789 2063.157895 -51.684211 C 1889.684211 -327.052632 2045.894737 -738.631579 2363.368421 -845.368421 C 2551.789474 -907.263158 2886.526316 -842.842105 2928.842105 -733.789474 C 2951.157895 -674.210526 2750.105263 -478.210526 2708 -520.315789 C 2690.736842 -537.789474 2628.631579 -550.210526 2569.263158 -550.210526 C 2358.315789 -550.210526 2241.894737 -329.578947 2368.210526 -168.315789 C 2445.263158 -69.157895 2529.473684 -44.315789 2658.526316 -81.578947 C 2762.736842 -111.263158 2767.578947 -108.736842 2852 -26.842105 C 2968.421053 87.263158 2961.052632 126.842105 2807.368421 203.684211 C 2663.368421 275.684211 2499.789474 288.105263 2378.105263 233.578947 Z M 2378.105263 233.578947 " transform="matrix(0.0185547,0,0,-0.0185547,0,41.748047)"/>
<path style="fill:none;stroke-width:13;stroke-linecap:butt;stroke-linejoin:miter;stroke:rgb(0.784314%,0.784314%,0.784314%);stroke-opacity:1;stroke-miterlimit:1;" d="M 3648 -738.631579 C 3638.105263 -748.526316 3630.526316 -899.894737 3630.526316 -1073.578947 L 3630.526316 -1393.368421 L 3104.842105 -1398.421053 L 2576.421053 -1405.789474 L 2576.421053 -1703.473684 L 3940.421053 -1703.473684 L 3940.421053 -736.105263 L 3804 -728.736842 C 3727.368421 -723.894737 3657.894737 -728.736842 3648 -738.631579 Z M 3648 -738.631579 " transform="matrix(0.0185547,0,0,-0.0185547,0,41.748047)"/>
</g>
</svg>
