<?xml version="1.0" encoding="utf-8"?>
<!-- Generator: Adobe Illustrator 24.3.0, SVG Export Plug-In . SVG Version: 6.00 Build 0)  -->
<svg version="1.1" id="Слой_1" xmlns="http://www.w3.org/2000/svg" xmlns:xlink="http://www.w3.org/1999/xlink" x="0px" y="0px"
	 viewBox="0 0 95 95" style="enable-background:new 0 0 95 95;" xml:space="preserve">
<style type="text/css">
	.st0{fill:none;stroke:#000000;stroke-width:2.7832;stroke-miterlimit:1.8555;}
	.st1{fill:none;stroke:#000000;stroke-width:2;stroke-miterlimit:10;}
</style>
<g>
	<path class="st0" d="M24.7,87h45.6l22.8-39.5L70.3,8H24.7L1.9,47.5L24.7,87z"/>
	<path class="st1" d="M49.2,16.4c4.3,1.6,8,4.3,11.7,6.9c1.5,1,3,2.1,4.5,3.1c0.9,0.7,2,1.4,2.9,2c0.5,0.3,0.9,0.6,1.4,0.9
		c6,4.3,6,4.3,6.6,7.7c0.1,2,0.1,3.8,0.1,5.6c0,0.7,0,1.4,0,2.1c0,1.5,0,3,0,4.4c0,2.2,0,4.5,0,6.7c0,1.4,0,2.9,0,4.3
		c0,0.7,0,1.4,0,2.1c0,3.1-0.1,5.3-2.2,7.8c-2.4,2.3-3.6,2.5-6.8,2.5c-1,0-1,0-2.1,0c-0.7,0-1.5,0-2.2,0s-1.5,0-2.2,0s-1.4,0-2.1,0
		s-1.3,0-2,0c-1.5-0.1-1.5-0.1-2.2-0.8c-0.1-1.3-0.1-2.5-0.1-3.7c0-0.8,0-1.5-0.1-2.3c0-1.6-0.1-3.2-0.1-4.8c0-0.8,0-1.5-0.1-2.3
		c0-0.7,0-1.4,0-2.1c-0.3-2.1-0.7-2.8-2.4-3.9c-2.1-0.3-2.1-0.3-4.3-0.2c-0.8,0-1.5,0-2.3,0c-2,0.1-2,0.1-3.2,1.1
		c-1.3,1.7-1.3,3-1.3,5.2c0,1.1,0,1.1-0.1,2.3c0,0.8,0,1.6,0,2.4c0,1.6-0.1,3.1-0.1,4.7c0,1,0,1,0,2.1c-0.1,1.6-0.1,1.6-0.8,2.3
		c-2.5,0.2-5.1,0.2-7.6,0.2c-1,0-1,0-2.2,0.1c-5.9,0.1-5.9,0.1-8.5-2.1c-2.1-2.3-2.5-3.3-2.5-6.3c0-0.6,0-1.3,0-2
		c0-2.9-0.1-5.7-0.1-8.6c0-1.5,0-3-0.1-4.5c0-2.2,0-4.4-0.1-6.6c0-0.7,0-1.4,0-2.1c0-3.2,0.1-4.9,2-7.7c2.2-2,4.4-3.8,6.8-5.4
		c0.5-0.3,0.9-0.6,1.4-0.9c0.9-0.7,2-1.3,2.9-2c1.5-0.9,2.9-2,4.3-3C44.9,15.9,44.9,15.9,49.2,16.4z M40.9,23.6
		c-0.5,0.3-0.9,0.7-1.5,0.9c-1.6,1-3.1,2.1-4.7,3.1c-1,0.7-2.2,1.5-3.2,2.2s-2.1,1.4-3.1,2.1c-0.5,0.3-1,0.7-1.5,1
		c-2.5,1.6-2.5,1.6-4.3,4c-0.1,2.2-0.1,4.3-0.1,6.4c0,0.7,0,1.3,0,2c0,1.4,0,2.8,0,4c0,2.1,0,4.1-0.1,6.2c0,1.3,0,2.6,0,3.9
		c0,0.6,0,1.3,0,1.8c0,3.4,0,3.4,1.6,6.6c2.4,1.5,4.7,1.4,7.5,1.1c0.6,0,1,0,1.6,0c1.3,0,2.6-0.1,3.9-0.1c0-0.5,0-0.9,0-1.4
		c0.1-2.1,0.1-4.1,0.2-6.2c0-0.7,0-1.5,0.1-2.2c0-0.7,0-1.4,0.1-2.1c0-0.7,0-1.3,0.1-2c0.2-1.8,0.7-3,1.6-4.6c2.5-2,5.5-1.6,8.5-1.6
		c0.8,0,0.8,0,1.5,0c4.9,0,4.9,0,7,1.6c1.4,2.2,1.6,4,1.7,6.6c0,1,0,1,0.1,2.1c0,0.7,0,1.5,0.1,2.2c0,1.1,0,1.1,0.1,2.2
		c0.1,1.8,0.1,3.6,0.2,5.4c1.8,0.1,3.7,0.1,5.5,0.2c0.6,0,1,0,1.6,0.1c2.3,0,3.9,0,5.9-1.3c1.8-2.6,1.7-5.2,1.7-8.4c0-0.7,0-1.3,0-2
		c0-1.4,0-2.6,0-4c0-2.1,0-4.1,0-6.1c0-1.3,0-2.6,0-3.9c0-0.6,0-1.3,0-1.8c0-3-0.1-4.4-2.1-6.8c-3.2-2.5-6.6-4.7-9.9-6.9
		c-1.3-0.8-2.5-1.7-3.8-2.5c-0.8-0.6-1.6-1-2.4-1.6c-0.7-0.5-1.5-0.9-2.2-1.5C47.7,19.9,45.2,20.8,40.9,23.6z"/>
</g>
</svg>
