<?xml version="1.0" encoding="utf-8"?>
<!-- Generator: Adobe Illustrator 24.3.0, SVG Export Plug-In . SVG Version: 6.00 Build 0)  -->
<svg version="1.1" id="Слой_1" xmlns="http://www.w3.org/2000/svg" xmlns:xlink="http://www.w3.org/1999/xlink" x="0px" y="0px"
	 viewBox="0 0 95 95" style="enable-background:new 0 0 95 95;" xml:space="preserve">
<style type="text/css">
	.st0{fill:none;stroke:#000000;stroke-width:2.7832;stroke-miterlimit:1.8555;}
</style>
<path class="st0" d="M24.7,87h45.6l22.8-39.5L70.3,8H24.7L1.9,47.5L24.7,87z"/>
<path d="M48.9,23c3.7,1.4,7,3.7,10.2,6c1.3,0.9,2.6,1.8,3.9,2.7c0.8,0.6,1.7,1.2,2.5,1.7c0.4,0.3,0.8,0.5,1.2,0.8
	c5.2,3.7,5.2,3.7,5.7,6.7c0.1,1.7,0.1,3.3,0.1,4.9c0,0.6,0,1.2,0,1.8c0,1.3,0,2.6,0,3.8c0,1.9,0,3.9,0,5.8c0,1.2,0,2.5,0,3.7
	c0,0.6,0,1.2,0,1.8c0,2.7-0.1,4.6-1.9,6.8c-2.1,2-3.1,2.2-5.9,2.2c-0.9,0-0.9,0-1.8,0c-0.6,0-1.3,0-1.9,0c-0.6,0-1.3,0-1.9,0
	c-0.6,0-1.2,0-1.8,0c-0.6,0-1.1,0-1.7,0c-1.3-0.1-1.3-0.1-1.9-0.7c-0.1-1.1-0.1-2.2-0.1-3.2c0-0.7,0-1.3-0.1-2
	c0-1.4-0.1-2.8-0.1-4.2c0-0.7,0-1.3-0.1-2c0-0.6,0-1.2,0-1.8c-0.3-1.8-0.6-2.4-2.1-3.4c-1.8-0.3-1.8-0.3-3.7-0.2c-0.7,0-1.3,0-2,0
	c-1.7,0.1-1.7,0.1-2.8,1c-1.1,1.5-1.1,2.6-1.1,4.5c0,1,0,1-0.1,2c0,0.7,0,1.4,0,2.1c0,1.4-0.1,2.7-0.1,4.1c0,0.9,0,0.9,0,1.8
	c-0.1,1.4-0.1,1.4-0.7,2c-2.2,0.2-4.4,0.2-6.6,0.2c-0.9,0-0.9,0-1.9,0.1c-5.1,0.1-5.1,0.1-7.4-1.8c-1.8-2-2.2-2.9-2.2-5.5
	c0-0.5,0-1.1,0-1.7c0-2.5-0.1-5-0.1-7.5c0-1.3,0-2.6-0.1-3.9c0-1.9,0-3.8-0.1-5.7c0-0.6,0-1.2,0-1.8c0-2.8,0.1-4.3,1.7-6.7
	c1.9-1.7,3.8-3.3,5.9-4.7c0.4-0.3,0.8-0.5,1.2-0.8c0.8-0.6,1.7-1.1,2.5-1.7c1.3-0.8,2.5-1.7,3.7-2.6C45.1,22.6,45.1,22.6,48.9,23z
	 M41.7,29.3c-0.4,0.3-0.8,0.6-1.3,0.8c-1.4,0.9-2.7,1.8-4.1,2.7c-0.9,0.6-1.9,1.3-2.8,1.9c-0.9,0.6-1.8,1.2-2.7,1.8
	c-0.4,0.3-0.9,0.6-1.3,0.9c-2.2,1.4-2.2,1.4-3.7,3.5c-0.1,1.9-0.1,3.7-0.1,5.6c0,0.6,0,1.1,0,1.7c0,1.2,0,2.4,0,3.5
	c0,1.8,0,3.6-0.1,5.4c0,1.1,0,2.3,0,3.4c0,0.5,0,1.1,0,1.6c0,3,0,3,1.4,5.7c2.1,1.3,4.1,1.2,6.5,1c0.5,0,0.9,0,1.4,0
	c1.1,0,2.3-0.1,3.4-0.1c0-0.4,0-0.8,0-1.2c0.1-1.8,0.1-3.6,0.2-5.4c0-0.6,0-1.3,0.1-1.9c0-0.6,0-1.2,0.1-1.8c0-0.6,0-1.1,0.1-1.7
	c0.2-1.6,0.6-2.6,1.4-4c2.2-1.7,4.8-1.4,7.4-1.4c0.7,0,0.7,0,1.3,0c4.3,0,4.3,0,6.1,1.4c1.2,1.9,1.4,3.5,1.5,5.7
	c0,0.9,0,0.9,0.1,1.8c0,0.6,0,1.3,0.1,1.9c0,1,0,1,0.1,1.9c0.1,1.6,0.1,3.1,0.2,4.7c1.6,0.1,3.2,0.1,4.8,0.2c0.5,0,0.9,0,1.4,0.1
	c2,0,3.4,0,5.1-1.1c1.6-2.3,1.5-4.5,1.5-7.3c0-0.6,0-1.1,0-1.7c0-1.2,0-2.3,0-3.5c0-1.8,0-3.6,0-5.3c0-1.1,0-2.3,0-3.4
	c0-0.5,0-1.1,0-1.6c0-2.6-0.1-3.8-1.8-5.9c-2.8-2.2-5.7-4.1-8.6-6c-1.1-0.7-2.2-1.5-3.3-2.2c-0.7-0.5-1.4-0.9-2.1-1.4
	c-0.6-0.4-1.3-0.8-1.9-1.3C47.6,26.1,45.4,26.8,41.7,29.3z"/>
</svg>
