<?xml version="1.0" encoding="UTF-8"?>
<svg id="_Слой_1" data-name="Слой_1" xmlns="http://www.w3.org/2000/svg" version="1.1" viewBox="0 0 95 95">
  <!-- Generator: Adobe Illustrator 29.1.0, SVG Export Plug-In . SVG Version: 2.1.0 Build 142)  -->
  <defs>
    <style>
      .st0 {
        fill: none;
        stroke: #000;
        stroke-miterlimit: 1.9;
        stroke-width: 2.8px;
      }
    </style>
  </defs>
  <path class="st0" d="M24.7,87h45.6l22.8-39.5L70.3,8H24.7L1.9,47.5l22.8,39.5Z"/>
  <path d="M47.9,16.1c-14.1,0-26.1,8.8-30.4,22.3-.6,1.9-1,3.8-1.2,5.7,0,0,0,0,0,0h0c-1.5,13.4,6.5,25.4,16.2,30.8,1.7.9,7.5,3.8,15.5,3.9,0,0,.1,0,.2,0,7,0,16.9-2.2,25.5-13.2,0,0,0,0,0,0,0,0,0-.1.1-.2.4-.6.3-1.5-.4-2-.4-.3-.9-.3-1.4-.1-.2.1-.5.2-.7.3,0,0,0,0,0,0-.5.2-1,.4-2,.8h0c-1.7.7-4.5,1.2-7.5,1.2s-4.9-.3-6.8-.9c-2.8-.9-10.8-3.2-15.1-12.7-1.1-2.3-1.5-6.1.7-9.5,1.4-2.2,4.2-3.7,7-3.7s3.4.5,4.9,1.6c2.3,1.6,3.2,3.4,3.5,5.1.3,1.7,0,3.3-.1,4.2-.4,1.7-1,2.4-1.3,2.8,0,0,0,0,0,0,0,0,0,0-.2.2-.4.6-.4,1.4.2,1.9.1.1.3.2.5.4l.4.2c2,1.3,5.8,2.3,9.6,2.3s6.7-.6,10-3.9c2.9-2.9,3.8-6.6,3.9-9.6,0-3.1-.7-5.6-1.1-6.8-1.4-4.1-7.4-17.4-23.7-20.5-2-.4-4.1-.6-6.1-.6ZM47.9,19c1.9,0,3.7.2,5.6.5,15,2.9,20.3,15,21.6,18.6.3,1,1,3.2,1,5.8,0,2.5-.7,5.3-3.1,7.6-2.7,2.8-5.4,3.1-8,3.1s-6.3-1-7.6-1.7c.4-.6.8-1.1,1.2-2.5.3-1.2.6-3.2.2-5.4-.1-.7-.4-1.3-.7-2h0c-2.3-6.8-10.1-12.6-18.6-13.7-6-.8-12.5.9-17.6,6.2,4.8-10.2,14.6-16.5,26.1-16.5ZM36.2,31.8c.9,0,1.9,0,2.8.2,3.7.5,7.2,2.1,10.1,4.2-.5,0-1.1-.1-1.6-.1-2.5,0-4.9.8-6.9,2.3h0c0,0-.2.1-.3.2-.2.2-.4.3-.6.5-9.5,7.7-11.1,17.8-7.8,25.9,1.6,4.1,4.5,7.6,8.1,10.1-3.1-.9-5.4-2-6.2-2.4-8.6-4.8-15.9-15.7-14.7-27.7,4.1-9.6,10.6-13,17.1-13ZM36.1,47.2c-.1,2.2.3,4.3,1.1,6,4.8,10.6,14.1,13.4,16.9,14.2,2.2.7,4.9,1,7.6,1s4-.3,5.8-.6c-5.1,4.9-10.4,7.1-14.9,7.8-7.9.6-15.1-4.7-18-11.8-2-5.1-2-11,1.5-16.6Z"/>
</svg>