<?xml version="1.0" encoding="utf-8"?>
<!-- Generator: Adobe Illustrator 24.3.0, SVG Export Plug-In . SVG Version: 6.00 Build 0)  -->
<svg version="1.1" id="Слой_1" xmlns="http://www.w3.org/2000/svg" xmlns:xlink="http://www.w3.org/1999/xlink" x="0px" y="0px"
	 viewBox="0 0 512 512" style="enable-background:new 0 0 512 512;" xml:space="preserve">
<style type="text/css">
	.st0{fill:none;stroke:#000000;stroke-width:15;stroke-miterlimit:10;}
</style>
<polygon class="st0" points="133,469.1 379,469.1 502,256 379,42.9 133,42.9 10,256 "/>
<g transform="translate(0.000000,500.000000) scale(0.100000,-0.100000)">
	<path d="M2250.6,3878.4c-40.9-19.1-66.1-45-84.5-85.9c-13.6-29.3-14.3-43.6-14.3-312.7c0-265.1-0.7-281.4-11.6-276.6
		c-72.2,27.3-220.8,34.7-303.2,15c-201.7-49.7-356.4-203.7-405.4-405.4c-15.7-66.8-14.3-187.4,4.1-256.9
		c37.5-139.7,124-258.2,241.9-328.4l43.6-26.6l-45-15.7c-295-103.6-521.9-377.5-576.4-695c-12.9-76.3-15.7-348.9-3.4-391.8
		c10.2-36.1,68.1-94,105.6-104.9c21.1-6.1,205.8-8.2,763.1-8.2h735.2l34.1,16.4c40.9,18.4,72.2,52.5,88.6,94.7
		c10.2,27.3,10.9,52.5,8.2,216.7c-2.7,173.7-4.1,191.5-20.4,254.8c-22.5,85.9-38.8,127.4-77.7,202.4
		c-98.8,188.1-272.5,338.6-472.2,410.2l-60.6,21.8l32,17.7c78.4,44.3,155.4,123.3,202.4,206.5c21.1,36.8,51.1,120.6,61.3,169
		c3.4,18.4,4.1,18.4,60.6,18.4h57.2l2.7-127.4c2.7-139,5.5-150.6,44.3-187.4c39.5-38.2,100.8-49.7,150.6-28.6
		c16.4,6.8,83.8,68.8,192.1,176.5l166.9,166.3l367.9,2c410.2,2,393.1,0,443.6,51.1c50.4,49.7,47,9.5,49.1,579.8
		c1.4,512.4,1.4,512.4-12.9,546.5c-17.7,40.9-64.7,85.2-100.8,95.4c-15.7,4.1-310,6.8-828.5,6.8h-804L2250.6,3878.4z M3903.6,3765.9
		l19.8-19.8v-488.5c0-321.6-2.7-492.6-6.8-501.5c-18.4-33.4-21.1-33.4-420.4-33.4h-373.4l-177.2-177.2
		c-97.4-97.4-181.9-177.2-188.7-177.2c-6.1,0-16.4,4.8-21.8,10.9c-9.5,8.9-10.9,34.7-10.9,177.2v166.3h-166.9h-166.9v-48.4
		c0-186.7-142.4-361.1-332.5-405.4c-67.5-15.7-173.1-10.2-238.5,12.9c-135.6,47.7-242.6,164.9-278,304.6
		c-15,57.2-14.3,154,0.7,211.2c42.9,166.3,181.9,290.3,355,318.9c57.2,9.5,70.9,9.5,128.1,0c75.6-12.3,147.9-43.6,200.3-85.9
		l35.4-28.6v372v372l19.8,19.8l19.8,19.8h791.7h791.7L3903.6,3765.9z M2146.3,2100.7c137.6-36.1,255.5-102.9,353.6-201.7
		c88.6-88.6,141.7-173.1,182.6-289.6c33.4-95.4,41.6-157.4,41.6-325.7v-149.9l-19.8-19.8l-19.8-19.8h-722.2h-722.2l-21.8,18.4
		l-21.8,17.7l2.7,167.6c2.7,154,4.8,173.1,21.1,234.4c80.4,301.2,314.8,524.7,608.5,580.5
		C1911.3,2128.6,2061.8,2122.5,2146.3,2100.7z"/>
</g>
</svg>
