<?xml version="1.0" encoding="UTF-8"?>
<svg xmlns="http://www.w3.org/2000/svg" xmlns:xlink="http://www.w3.org/1999/xlink" width="95px" height="95px" viewBox="0 0 95 95" version="1.1">
<g id="surface1">
<path style="fill:none;stroke-width:15;stroke-linecap:butt;stroke-linejoin:miter;stroke:rgb(0%,0%,0%);stroke-opacity:1;stroke-miterlimit:10;" d="M 133.010526 469.094737 L 378.989474 469.094737 L 502 256 L 378.989474 42.905263 L 133.010526 42.905263 L 10 256 Z M 133.010526 469.094737 " transform="matrix(0.185547,0,0,0.185547,0,0)"/>
<path style=" stroke:none;fill-rule:nonzero;fill:rgb(0%,0%,0%);fill-opacity:1;" d="M 41.757812 20.8125 C 41 21.164062 40.53125 21.644531 40.191406 22.40625 C 39.9375 22.949219 39.925781 23.214844 39.925781 28.207031 C 39.925781 33.125 39.914062 33.429688 39.710938 33.339844 C 38.371094 32.832031 35.613281 32.695312 34.085938 33.0625 C 30.34375 33.984375 27.472656 36.839844 26.5625 40.582031 C 26.273438 41.820312 26.296875 44.058594 26.640625 45.347656 C 27.335938 47.941406 28.941406 50.140625 31.128906 51.441406 L 31.9375 51.9375 L 31.101562 52.226562 C 25.628906 54.148438 21.417969 59.230469 20.40625 65.125 C 20.167969 66.539062 20.113281 71.597656 20.34375 72.394531 C 20.53125 73.0625 21.605469 74.136719 22.300781 74.339844 C 22.695312 74.453125 26.121094 74.492188 36.460938 74.492188 L 50.101562 74.492188 L 50.734375 74.1875 C 51.496094 73.847656 52.074219 73.214844 52.378906 72.429688 C 52.570312 71.921875 52.582031 71.457031 52.53125 68.410156 C 52.480469 65.1875 52.457031 64.855469 52.152344 63.679688 C 51.734375 62.085938 51.433594 61.316406 50.710938 59.925781 C 48.878906 56.4375 45.65625 53.644531 41.949219 52.316406 L 40.824219 51.910156 L 41.417969 51.582031 C 42.875 50.761719 44.304688 49.292969 45.175781 47.75 C 45.566406 47.066406 46.125 45.511719 46.3125 44.613281 C 46.375 44.273438 46.386719 44.273438 47.4375 44.273438 L 48.5 44.273438 L 48.546875 46.636719 C 48.597656 49.214844 48.648438 49.429688 49.371094 50.113281 C 50.101562 50.824219 51.242188 51.035156 52.164062 50.644531 C 52.46875 50.519531 53.71875 49.367188 55.730469 47.371094 L 58.824219 44.285156 L 65.652344 44.246094 C 73.261719 44.210938 72.945312 44.246094 73.882812 43.300781 C 74.816406 42.378906 74.753906 43.121094 74.792969 32.542969 C 74.820312 23.035156 74.820312 23.035156 74.554688 22.402344 C 74.226562 21.640625 73.355469 20.820312 72.683594 20.632812 C 72.394531 20.554688 66.933594 20.503906 57.3125 20.503906 L 42.394531 20.503906 Z M 72.429688 22.898438 L 72.796875 23.265625 L 72.796875 32.328125 C 72.796875 38.296875 72.746094 41.46875 72.671875 41.636719 C 72.328125 42.253906 72.28125 42.253906 64.871094 42.253906 L 57.941406 42.253906 L 54.65625 45.542969 C 52.847656 47.351562 51.28125 48.832031 51.152344 48.832031 C 51.039062 48.832031 50.847656 48.742188 50.75 48.628906 C 50.574219 48.464844 50.546875 47.984375 50.546875 45.339844 L 50.546875 42.253906 L 44.351562 42.253906 L 44.351562 43.152344 C 44.351562 46.617188 41.710938 49.851562 38.183594 50.675781 C 36.929688 50.964844 34.972656 50.863281 33.757812 50.433594 C 31.242188 49.550781 29.257812 47.375 28.601562 44.785156 C 28.320312 43.722656 28.335938 41.925781 28.613281 40.863281 C 29.410156 37.777344 31.988281 35.476562 35.199219 34.949219 C 36.261719 34.773438 36.515625 34.773438 37.578125 34.949219 C 38.980469 35.175781 40.320312 35.757812 41.292969 36.542969 L 41.949219 37.070312 L 41.949219 23.265625 L 42.683594 22.53125 L 72.066406 22.53125 Z M 39.824219 53.796875 C 42.378906 54.464844 44.566406 55.703125 46.386719 57.539062 C 48.027344 59.183594 49.015625 60.75 49.773438 62.910156 C 50.394531 64.679688 50.542969 65.832031 50.542969 68.953125 L 50.542969 71.734375 L 50.175781 72.101562 L 49.808594 72.472656 L 23.007812 72.472656 L 22.605469 72.128906 L 22.199219 71.800781 L 22.25 68.691406 C 22.300781 65.832031 22.339844 65.480469 22.640625 64.34375 C 24.132812 58.753906 28.484375 54.605469 33.933594 53.570312 C 35.464844 53.277344 38.257812 53.390625 39.824219 53.796875 Z M 39.824219 53.796875 "/>
</g>
</svg>
