<?xml version="1.0" encoding="UTF-8"?>
<svg xmlns="http://www.w3.org/2000/svg" xmlns:xlink="http://www.w3.org/1999/xlink" width="95px" height="95px" viewBox="0 0 95 95" version="1.1">
<g id="surface1">
<path style="fill:none;stroke-width:15;stroke-linecap:butt;stroke-linejoin:miter;stroke:rgb(0%,0%,0%);stroke-opacity:1;stroke-miterlimit:10;" d="M 133.010526 469.094737 L 378.989474 469.094737 L 502 256 L 378.989474 42.905263 L 133.010526 42.905263 L 10 256 Z M 133.010526 469.094737 " transform="matrix(0.185547,0,0,0.185547,0,0)"/>
<path style=" stroke:none;fill-rule:nonzero;fill:rgb(0%,0%,0%);fill-opacity:1;" d="M 38.539062 20.316406 C 36.476562 20.59375 34.714844 21.0625 33.003906 21.789062 C 27.878906 23.988281 24 27.855469 21.820312 32.941406 C 19.398438 38.589844 19.6875 45.425781 22.582031 50.789062 L 23.0625 51.675781 L 21.664062 56.703125 C 20.894531 59.484375 20.285156 61.769531 20.316406 61.789062 C 20.339844 61.8125 21.386719 61.542969 22.636719 61.191406 C 23.894531 60.851562 26.160156 60.21875 27.675781 59.792969 L 30.421875 59.035156 L 31.199219 59.460938 C 33.410156 60.675781 36.210938 61.523438 39.007812 61.820312 C 39.59375 61.886719 40.097656 61.949219 40.117188 61.980469 C 40.140625 62.003906 40.300781 62.441406 40.484375 62.964844 C 41.539062 66.101562 43.828125 69.210938 46.65625 71.347656 C 47.949219 72.320312 50.222656 73.496094 51.75 73.996094 C 53.652344 74.605469 54.921875 74.789062 57.175781 74.789062 C 58.855469 74.789062 59.410156 74.746094 60.414062 74.554688 C 62.058594 74.222656 63.648438 73.6875 65.046875 72.984375 L 66.210938 72.40625 L 70.441406 73.570312 C 72.769531 74.21875 74.691406 74.734375 74.714844 74.710938 C 74.738281 74.691406 74.222656 72.769531 73.582031 70.4375 L 72.40625 66.207031 L 72.984375 65.046875 C 73.691406 63.644531 74.222656 62.054688 74.554688 60.410156 C 74.894531 58.679688 74.894531 55.679688 74.554688 53.9375 C 74.203125 52.207031 73.773438 50.96875 72.929688 49.269531 C 72.011719 47.410156 70.902344 45.90625 69.320312 44.398438 C 67.460938 42.613281 65.292969 41.277344 62.921875 40.457031 L 61.9375 40.117188 L 61.886719 39.667969 C 61.714844 38.160156 61.46875 36.632812 61.277344 35.90625 C 59.558594 29.285156 54.8125 23.988281 48.40625 21.507812 C 47.328125 21.089844 45.765625 20.675781 44.355469 20.429688 C 43.023438 20.195312 39.949219 20.132812 38.539062 20.316406 Z M 43.269531 23.527344 C 45.515625 23.816406 47.160156 24.34375 49.230469 25.421875 C 53.554688 27.640625 56.910156 31.851562 58.148438 36.601562 C 58.898438 39.464844 58.898438 42.628906 58.148438 45.492188 C 57.359375 48.523438 55.683594 51.398438 53.417969 53.621094 C 49.199219 57.765625 43.304688 59.523438 37.554688 58.363281 C 35.453125 57.933594 33.359375 57.101562 31.660156 56.011719 C 31.328125 55.800781 30.984375 55.628906 30.890625 55.628906 C 30.796875 55.628906 29.417969 55.992188 27.828125 56.429688 C 26.234375 56.867188 24.921875 57.222656 24.898438 57.199219 C 24.878906 57.175781 25.230469 55.863281 25.667969 54.273438 C 26.105469 52.683594 26.46875 51.292969 26.46875 51.195312 C 26.46875 51.101562 26.320312 50.800781 26.140625 50.535156 C 25.648438 49.816406 24.71875 47.90625 24.34375 46.828125 C 24.164062 46.304688 23.886719 45.269531 23.726562 44.53125 C 23.480469 43.34375 23.4375 42.9375 23.4375 41.101562 C 23.4375 39.347656 23.46875 38.824219 23.675781 37.800781 C 24.421875 34.09375 26.121094 30.953125 28.78125 28.378906 C 30.285156 26.9375 31.417969 26.125 33.265625 25.207031 C 34.996094 24.332031 37.507812 23.601562 39.34375 23.445312 C 40.429688 23.347656 42.160156 23.378906 43.269531 23.527344 Z M 63.800781 44.328125 C 65.136719 45 66.160156 45.757812 67.378906 46.976562 C 71.851562 51.453125 72.910156 58.085938 70.046875 63.769531 C 69.804688 64.25 69.460938 64.847656 69.289062 65.09375 C 69.117188 65.351562 68.980469 65.617188 68.980469 65.691406 C 68.980469 65.765625 69.246094 66.792969 69.566406 67.953125 C 69.886719 69.128906 70.132812 70.101562 70.121094 70.125 C 70.101562 70.144531 69.128906 69.886719 67.976562 69.570312 C 66.8125 69.246094 65.785156 68.980469 65.699219 68.980469 C 65.613281 68.980469 65.347656 69.121094 65.089844 69.289062 C 64.847656 69.460938 64.246094 69.804688 63.765625 70.050781 C 59.699219 72.101562 55.070312 72.175781 51.046875 70.25 C 49.433594 69.484375 48.246094 68.648438 46.976562 67.378906 C 45.695312 66.105469 44.882812 64.941406 44.101562 63.308594 C 43.367188 61.757812 43.367188 61.792969 44.144531 61.695312 C 45.117188 61.566406 47.308594 61.003906 48.375 60.597656 C 54.816406 58.140625 59.613281 52.765625 61.277344 46.144531 C 61.460938 45.425781 61.632812 44.59375 61.664062 44.285156 C 61.769531 43.410156 61.75 43.417969 62.378906 43.675781 C 62.6875 43.792969 63.332031 44.089844 63.800781 44.328125 Z M 63.800781 44.328125 "/>
<path style=" stroke:none;fill-rule:nonzero;fill:rgb(0%,0%,0%);fill-opacity:1;" d="M 39.832031 29.886719 C 38.445312 30.183594 36.925781 31.09375 36.082031 32.148438 C 35.269531 33.164062 34.695312 34.628906 34.695312 35.675781 L 34.695312 36.1875 L 37.898438 36.1875 L 37.898438 35.78125 C 37.898438 34.796875 38.945312 33.515625 40.035156 33.164062 C 41.179688 32.792969 42.269531 33.027344 43.15625 33.828125 C 43.902344 34.5 44.199219 35.164062 44.199219 36.1875 C 44.199219 37.609375 44.136719 37.695312 40.699219 40.863281 L 39.394531 42.082031 L 39.394531 45.902344 L 42.707031 45.902344 L 42.707031 43.351562 L 44.199219 41.996094 C 45.023438 41.246094 45.890625 40.382812 46.125 40.082031 C 46.605469 39.464844 47.042969 38.554688 47.253906 37.753906 C 47.449219 37.03125 47.449219 35.320312 47.242188 34.582031 C 46.699219 32.53125 45.109375 30.824219 43.097656 30.128906 C 42.246094 29.832031 40.652344 29.714844 39.832031 29.886719 Z M 39.832031 29.886719 "/>
<path style=" stroke:none;fill-rule:nonzero;fill:rgb(0%,0%,0%);fill-opacity:1;" d="M 39.394531 50.714844 L 39.394531 52.316406 L 42.703125 52.316406 L 42.703125 49.109375 L 39.394531 49.109375 Z M 39.394531 50.714844 "/>
</g>
</svg>
