<?xml version="1.0" encoding="utf-8"?>
<!-- Generator: Adobe Illustrator 24.3.0, SVG Export Plug-In . SVG Version: 6.00 Build 0)  -->
<svg version="1.1" id="Слой_1" xmlns="http://www.w3.org/2000/svg" xmlns:xlink="http://www.w3.org/1999/xlink" x="0px" y="0px"
	 viewBox="0 0 512 512" style="enable-background:new 0 0 512 512;" xml:space="preserve">
<style type="text/css">
	.st0{fill:none;stroke:#000000;stroke-width:15;stroke-miterlimit:10;}
</style>
<polygon class="st0" points="133,469.1 379,469.1 502,256 379,42.9 133,42.9 10,256 "/>
<g transform="translate(0.000000,512.000000) scale(0.100000,-0.100000)">
	<path d="M2077,4025.1c-111.1-15-206.1-40.3-298.2-79.4c-276.3-118.6-485.3-327-602.7-601c-130.7-304.5-115.1-673,40.9-961.9
		l25.9-47.8l-75.4-271.1c-41.4-149.7-74.3-272.9-72.5-274c1.2-1.2,57.6,13.2,124.9,32.2c67.9,18.4,190,52.4,271.7,75.4l147.9,40.9
		l42-23c119.2-65.6,270-111.1,420.8-127.2c31.7-3.5,58.7-6.9,59.9-8.6c1.2-1.2,9.8-24.8,19.6-53c57-169.2,180.2-336.8,332.7-451.9
		c69.7-52.4,192.3-115.7,274.6-142.8c102.5-32.8,171-42.6,292.4-42.6c90.4,0,120.3,2.3,174.4,12.7c88.7,17.8,174.4,46.6,249.8,84.6
		l62.7,31.1l228-62.7c125.5-35.1,229.1-62.7,230.3-61.6s-26.5,104.8-61,230.3l-63.3,228l31.1,62.7c38,75.4,66.8,161.2,84.6,249.8
		c18.4,93.3,18.4,255,0,348.9c-19,93.3-42,160-87.5,251.6c-49.5,100.2-109.4,181.3-194.6,262.5c-100.2,96.1-217,168.1-344.8,212.4
		l-53,18.4l-2.9,24.2c-9.2,81.2-22.5,163.5-32.8,202.6c-92.7,356.9-348.3,642.4-693.7,776c-58.1,22.5-142.2,44.9-218.2,58.1
		C2318.8,4031.5,2153,4034.9,2077,4025.1z M2332.1,3851.9c120.9-15.5,209.5-43.8,321.2-101.9c233.1-119.7,413.9-346.6,480.7-602.7
		c40.3-154.3,40.3-324.7,0-479c-42.6-163.5-133-318.3-255-438.1c-227.4-223.4-545.2-318.3-854.9-255.6
		c-113.4,23-226.2,67.9-317.8,126.6c-17.8,11.5-36.3,20.7-41.4,20.7s-79.4-19.6-165.2-43.2c-85.8-23.6-156.6-42.6-157.7-41.4
		c-1.2,1.2,17.8,72,41.4,157.7s43.2,160.6,43.2,165.8c0,5.2-8.1,21.3-17.8,35.7c-26.5,38.6-76.6,141.6-96.7,199.8
		c-9.8,28.2-24.8,84-33.4,123.8c-13.2,63.9-15.5,85.8-15.5,184.8c0,94.4,1.7,122.6,12.7,177.9c40.3,199.8,131.8,369,275.2,507.7
		c81.2,77.7,142.2,121.5,241.8,171c93.3,47.2,228.5,86.4,327.6,95C2178.9,3861.6,2272.2,3859.9,2332.1,3851.9z M3438.5,2731
		c72-36.3,127.2-77.1,192.8-142.8c241.2-241.2,298.2-598.7,143.9-905c-13.2-25.9-31.7-58.1-40.9-71.4c-9.2-13.8-16.7-28.2-16.7-32.2
		c0-4,14.4-59.3,31.7-122c17.3-63.3,30.5-115.7,29.9-116.9c-1.2-1.2-53.5,12.7-115.7,29.9c-62.7,17.3-118,31.7-122.6,31.7
		s-19-7.5-32.8-16.7c-13.2-9.2-45.5-27.6-71.4-40.9c-219.3-110.5-468.6-114.6-685.6-10.9c-86.9,41.4-150.8,86.4-219.3,154.9
		c-69.1,68.5-112.8,131.3-154.9,219.3c-39.7,83.5-39.7,81.7,2.3,86.9c52.4,6.9,170.4,37.4,228,59.3
		c347.1,132.4,605.6,422,695.4,778.9c9.8,38.6,19,83.5,20.7,100.2c5.8,47.2,4.6,46.6,38.6,32.8
		C3378.6,2759.8,3413.2,2743.7,3438.5,2731z"/>
	<path d="M2146.7,3509.3c-74.8-16.1-156.6-65.1-202.1-122c-43.8-54.7-74.8-133.6-74.8-190v-27.6h86.4h86.4v21.9
		c0,53,56.4,122,115.1,141c61.6,20.1,120.3,7.5,168.1-35.7c40.3-36.3,56.4-72,56.4-127.2c0-76.6-3.5-81.2-188.8-252.1l-70.2-65.6
		v-103v-103h89.2h89.2v68.5v69.1l80.6,73.1c44.3,40.3,91,86.9,103.6,103c25.9,33.4,49.5,82.3,61,125.5c10.4,39.1,10.4,131.3-0.6,171
		c-29.4,110.5-115.1,202.6-223.4,240.1C2276.8,3512.2,2191,3518.5,2146.7,3509.3z"/>
	<path d="M2123.1,2386.8v-86.4h89.2h89.2v86.4v86.4h-89.2h-89.2V2386.8z"/>
</g>
</svg>
