<?xml version="1.0" encoding="UTF-8"?>
<svg xmlns="http://www.w3.org/2000/svg" xmlns:xlink="http://www.w3.org/1999/xlink" width="95px" height="150px" viewBox="0 0 95 95" version="1.1">
<g id="surface1">
<path style="fill:none;stroke-width:2.8;stroke-linecap:butt;stroke-linejoin:miter;stroke:rgb(0%,0%,0%);stroke-opacity:1;stroke-miterlimit:1.9;" d="M 24.699219 87 L 70.300781 87 L 93.101562 47.5 L 70.300781 8 L 24.699219 8 L 1.898438 47.5 Z M 24.699219 87 "/>
<path style=" stroke:none;fill-rule:nonzero;fill:rgb(0%,0%,0%);fill-opacity:1;" d="M 27.5 22.5 C 27.699219 22.5 27.898438 22.5 28 22.5 C 28.601562 22.5 29.199219 22.5 29.800781 22.5 C 30.199219 22.5 30.699219 22.5 31.101562 22.5 C 32.300781 22.5 33.398438 22.5 34.601562 22.5 C 35.300781 22.5 36 22.5 36.800781 22.5 C 39.300781 22.5 41.800781 22.5 44.398438 22.5 C 46.699219 22.5 49.101562 22.5 51.398438 22.5 C 53.398438 22.5 55.398438 22.5 57.5 22.5 C 58.699219 22.5 59.898438 22.5 61.101562 22.5 C 62.199219 22.5 63.398438 22.5 64.5 22.5 C 64.898438 22.5 65.300781 22.5 65.699219 22.5 C 67.898438 22.5 70 22.5 71.898438 23.898438 C 73.300781 25.398438 74 26.800781 74 28.898438 C 74 29.101562 74 29.300781 74 29.398438 C 74 30 74 30.601562 74 31.199219 C 74 31.601562 74 32.101562 74 32.5 C 74 33.699219 74 34.800781 74 36 C 74 36.699219 74 37.398438 74 38.199219 C 74 40.699219 74 43.199219 74 45.800781 C 74 48.101562 74 50.5 74 52.800781 C 74 54.800781 74 56.800781 74 58.898438 C 74 60.101562 74 61.300781 74 62.5 C 74 63.601562 74 64.800781 74 65.898438 C 74 66.300781 74 66.699219 74 67.101562 C 74 69.300781 74 71.398438 72.601562 73.300781 C 71.101562 74.699219 69.699219 75.398438 67.601562 75.398438 C 67.398438 75.398438 67.199219 75.398438 67.101562 75.398438 C 66.5 75.398438 65.898438 75.398438 65.300781 75.398438 C 64.898438 75.398438 64.398438 75.398438 64 75.398438 C 62.800781 75.398438 61.699219 75.398438 60.5 75.398438 C 59.800781 75.398438 59.101562 75.398438 58.300781 75.398438 C 55.800781 75.398438 53.300781 75.398438 50.699219 75.398438 C 48.398438 75.398438 46 75.398438 43.699219 75.398438 C 41.699219 75.398438 39.699219 75.398438 37.601562 75.398438 C 36.398438 75.398438 35.199219 75.398438 34 75.398438 C 32.898438 75.398438 31.699219 75.398438 30.601562 75.398438 C 30.199219 75.398438 29.800781 75.398438 29.398438 75.398438 C 27.199219 75.398438 25.101562 75.398438 23.199219 74 C 21.800781 72.5 21.101562 71.101562 21.101562 69 C 21.101562 68.800781 21.101562 68.601562 21.101562 68.5 C 21.101562 67.898438 21.101562 67.300781 21.101562 66.699219 C 21.101562 66.300781 21.101562 65.800781 21.101562 65.398438 C 21.101562 64.199219 21.101562 63.101562 21.101562 61.898438 C 21.101562 61.199219 21.101562 60.5 21.101562 59.699219 C 21.101562 57.199219 21.101562 54.699219 21.101562 52.101562 C 21.101562 49.800781 21.101562 47.398438 21.101562 45.101562 C 21.101562 43.101562 21.101562 41.101562 21.101562 39 C 21.101562 37.800781 21.101562 36.601562 21.101562 35.398438 C 21.101562 34.300781 21.101562 33.101562 21.101562 32 C 21.101562 31.601562 21.101562 31.199219 21.101562 30.800781 C 21.101562 28.601562 21.101562 26.5 22.5 24.601562 C 24 23.199219 25.398438 22.5 27.5 22.5 Z M 24.601562 26.398438 C 23.800781 27.699219 23.601562 29 23.601562 30.601562 C 23.601562 30.800781 23.601562 30.898438 23.601562 31.101562 C 23.601562 31.601562 23.601562 32.199219 23.601562 32.699219 C 23.601562 33.101562 23.601562 33.5 23.601562 33.898438 C 23.601562 35 23.601562 36 23.601562 37.101562 C 23.601562 38 23.601562 38.898438 23.601562 39.800781 C 23.601562 41.898438 23.601562 44 23.601562 46.101562 C 23.601562 48.300781 23.601562 50.398438 23.601562 52.601562 C 23.601562 54.5 23.601562 56.300781 23.601562 58.199219 C 23.601562 59.300781 23.601562 60.398438 23.601562 61.5 C 23.601562 62.5 23.601562 63.601562 23.601562 64.601562 C 23.601562 65 23.601562 65.398438 23.601562 65.699219 C 23.601562 67.898438 24.066406 69.964844 25 71.898438 C 26.300781 72.699219 27.601562 72.898438 29.199219 72.898438 C 29.398438 72.898438 29.5 72.898438 29.699219 72.898438 C 30.199219 72.898438 30.800781 72.898438 31.300781 72.898438 C 31.699219 72.898438 32.101562 72.898438 32.5 72.898438 C 33.601562 72.898438 34.601562 72.898438 35.699219 72.898438 C 36.601562 72.898438 37.5 72.898438 38.398438 72.898438 C 40.5 72.898438 42.601562 72.898438 44.699219 72.898438 C 46.898438 72.898438 49 72.898438 51.199219 72.898438 C 53.101562 72.898438 54.898438 72.898438 56.800781 72.898438 C 57.898438 72.898438 59 72.898438 60.101562 72.898438 C 61.101562 72.898438 62.199219 72.898438 63.199219 72.898438 C 63.601562 72.898438 64 72.898438 64.300781 72.898438 C 66.5 72.898438 68.566406 72.433594 70.5 71.5 C 71.300781 70.199219 71.5 68.898438 71.5 67.300781 C 71.5 67.101562 71.5 67 71.5 66.800781 C 71.5 66.300781 71.5 65.699219 71.5 65.199219 C 71.5 64.800781 71.5 64.398438 71.5 64 C 71.5 62.898438 71.5 61.898438 71.5 60.800781 C 71.5 59.898438 71.5 59 71.5 58.101562 C 71.5 56 71.5 53.898438 71.5 51.800781 C 71.5 49.601562 71.5 47.5 71.5 45.300781 C 71.5 43.398438 71.5 41.601562 71.5 39.699219 C 71.5 38.601562 71.5 37.5 71.5 36.398438 C 71.5 35.398438 71.5 34.300781 71.5 33.300781 C 71.5 32.898438 71.5 32.5 71.5 32.199219 C 71.5 30 71.035156 27.933594 70.101562 26 C 68.800781 25.199219 67.5 25 65.898438 25 C 65.765625 25 65.601562 25 65.398438 25 C 64.898438 25 64.300781 25 63.800781 25 C 63.398438 25 63 25 62.601562 25 C 61.5 25 60.5 25 59.398438 25 C 58.5 25 57.601562 25 56.699219 25 C 54.601562 25 52.5 25 50.398438 25 C 48.199219 25 46.101562 25 43.898438 25 C 42 25 40.199219 25 38.300781 25 C 37.199219 25 36.101562 25 35 25 C 34 25 32.898438 25 31.898438 25 C 31.5 25 31.101562 25 30.800781 25 C 28.601562 25 26.535156 25.464844 24.601562 26.398438 Z M 24.601562 26.398438 "/>
<path style=" stroke:none;fill-rule:nonzero;fill:rgb(0%,0%,0%);fill-opacity:1;" d="M 42.5 41.300781 C 42.699219 41.300781 42.898438 41.300781 43.101562 41.300781 C 43.5 41.300781 43.898438 41.300781 44.398438 41.300781 C 45 41.300781 45.699219 41.300781 46.300781 41.300781 C 46.699219 41.300781 47.101562 41.300781 47.5 41.300781 C 47.699219 41.300781 47.898438 41.300781 48.101562 41.300781 C 48.433594 41.300781 48.898438 41.367188 49.5 41.5 C 50.101562 41.632812 50.367188 42.066406 50.300781 42.800781 C 50.5 42.800781 50.699219 42.601562 50.800781 42.5 C 53.699219 41.199219 57.101562 40.898438 60.101562 41.898438 C 63.101562 43.199219 64.699219 45.398438 65.898438 48.5 C 66.300781 49.601562 66.398438 50.601562 66.398438 51.800781 C 66.398438 52 66.398438 52.101562 66.398438 52.300781 C 66.398438 52.898438 66.398438 53.398438 66.398438 54 C 66.398438 54.398438 66.398438 54.800781 66.398438 55.199219 C 66.398438 56 66.398438 56.800781 66.398438 57.601562 C 66.398438 58.601562 66.398438 59.699219 66.398438 60.699219 C 66.398438 61.5 66.398438 62.300781 66.398438 63.101562 C 66.398438 63.5 66.398438 63.898438 66.398438 64.199219 C 66.398438 64.699219 66.398438 65.300781 66.398438 65.800781 C 66.398438 66.101562 66.398438 66.398438 66.398438 66.699219 C 66.398438 67.167969 66.199219 67.566406 65.800781 67.898438 C 65.101562 67.898438 64.5 67.898438 63.800781 67.898438 C 63.601562 67.898438 63.398438 67.898438 63.199219 67.898438 C 62.800781 67.898438 62.398438 67.898438 61.898438 67.898438 C 61.300781 67.898438 60.601562 67.898438 60 67.898438 C 59.601562 67.898438 59.199219 67.898438 58.800781 67.898438 C 58.601562 67.898438 58.398438 67.898438 58.199219 67.898438 C 57.265625 67.898438 56.632812 67.699219 56.300781 67.300781 C 56.300781 66.964844 56.300781 66.566406 56.300781 66.101562 C 56.300781 65.800781 56.300781 65.601562 56.300781 65.300781 C 56.300781 65.035156 56.300781 64.734375 56.300781 64.398438 C 56.300781 64.101562 56.300781 63.800781 56.300781 63.5 C 56.300781 62.601562 56.300781 61.601562 56.300781 60.699219 C 56.300781 59.5 56.300781 58.300781 56.300781 57.101562 C 56.300781 56.832031 56.300781 56.566406 56.300781 56.300781 C 56.300781 54.5 55.964844 52.800781 55.300781 51.199219 C 54.199219 50.5 53.199219 50.5 52 50.699219 C 51.101562 51.300781 50.800781 52.101562 50.601562 53.199219 C 50.398438 54.5 50.398438 55.800781 50.398438 57.101562 C 50.398438 57.699219 50.398438 58.300781 50.398438 58.898438 C 50.398438 59.800781 50.398438 60.800781 50.398438 61.699219 C 50.398438 62.601562 50.398438 63.5 50.398438 64.398438 C 50.398438 64.699219 50.398438 65 50.398438 65.300781 C 50.398438 65.601562 50.398438 65.800781 50.398438 66.101562 C 50.398438 66.300781 50.398438 66.601562 50.398438 66.800781 C 50.398438 67.199219 50.199219 67.566406 49.800781 67.898438 C 49.101562 67.898438 48.5 67.898438 47.800781 67.898438 C 47.601562 67.898438 47.398438 67.898438 47.199219 67.898438 C 46.800781 67.898438 46.398438 67.898438 45.898438 67.898438 C 45.300781 67.898438 44.601562 67.898438 44 67.898438 C 43.601562 67.898438 43.199219 67.898438 42.800781 67.898438 C 42.601562 67.898438 42.398438 67.898438 42.199219 67.898438 C 41.265625 67.898438 40.632812 67.699219 40.300781 67.300781 C 40.300781 66.964844 40.300781 66.632812 40.300781 66.300781 C 40.300781 66.101562 40.300781 65.898438 40.300781 65.699219 C 40.300781 65.5 40.300781 65.199219 40.300781 65 C 40.300781 64.800781 40.300781 64.5 40.300781 64.300781 C 40.300781 63.5 40.300781 62.699219 40.300781 61.898438 C 40.300781 61.300781 40.300781 60.800781 40.300781 60.199219 C 40.300781 59 40.300781 57.800781 40.300781 56.601562 C 40.300781 55.101562 40.300781 53.601562 40.300781 52 C 40.300781 50.800781 40.300781 49.699219 40.300781 48.5 C 40.300781 47.898438 40.300781 47.398438 40.300781 46.800781 C 40.300781 46 40.300781 45.199219 40.300781 44.398438 C 40.300781 44.199219 40.300781 43.898438 40.300781 43.699219 C 40.300781 43.5 40.300781 43.300781 40.300781 43.101562 C 40.300781 42.898438 40.300781 42.699219 40.300781 42.5 C 40.5 41.199219 41.800781 41.5 42.898438 41.5 Z M 42.5 43.898438 L 42.5 65.199219 L 47.5 65.199219 C 47.5 64.800781 47.5 64.398438 47.5 64 C 47.5 62.5 47.5 61.101562 47.5 59.601562 C 47.5 59 47.5 58.300781 47.5 57.699219 C 47.5 56.800781 47.5 55.898438 47.5 55 C 47.5 54.699219 47.5 54.398438 47.5 54.199219 C 47.5 52.601562 47.699219 51.398438 48.398438 49.898438 C 48.398438 49.699219 48.601562 49.5 48.601562 49.300781 C 49.300781 48.300781 51 47.898438 52.101562 47.601562 C 53.5 47.398438 54.800781 47.601562 56.101562 48.398438 C 57.398438 49.5 58.300781 50.800781 58.398438 52.601562 C 58.398438 53.398438 58.398438 54.199219 58.398438 55 C 58.398438 55.300781 58.398438 55.601562 58.398438 55.898438 C 58.398438 56.800781 58.398438 57.800781 58.398438 58.699219 C 58.398438 59.300781 58.398438 60 58.398438 60.601562 C 58.398438 62.101562 58.398438 63.699219 58.398438 65.199219 L 63.398438 65.199219 C 63.398438 63.5 63.398438 61.800781 63.398438 60.101562 C 63.398438 59.5 63.398438 59 63.398438 58.398438 C 63.464844 54.132812 62.734375 50.066406 61.199219 46.199219 C 59.5 44.5 57.5 44.101562 55.199219 44.101562 C 52.800781 44.101562 51.300781 44.898438 49.601562 46.601562 C 49.265625 46.867188 48.832031 47.035156 48.300781 47.101562 C 47.898438 47.035156 47.601562 46.898438 47.398438 46.699219 C 47.300781 45.800781 47.199219 44.898438 47.101562 43.898438 L 42.101562 43.898438 Z M 42.5 43.898438 "/>
<path style=" stroke:none;fill-rule:nonzero;fill:rgb(0%,0%,0%);fill-opacity:1;" d="M 30.601562 41.300781 C 30.800781 41.300781 31 41.300781 31.199219 41.300781 C 31.398438 41.300781 31.601562 41.300781 31.800781 41.300781 C 32.199219 41.300781 32.601562 41.300781 33.101562 41.300781 C 33.699219 41.300781 34.398438 41.300781 35 41.300781 C 35.398438 41.300781 35.800781 41.300781 36.199219 41.300781 C 36.398438 41.300781 36.601562 41.300781 36.800781 41.300781 C 37.734375 41.300781 38.367188 41.5 38.699219 41.898438 C 39.035156 42.300781 39.035156 42.632812 38.699219 42.898438 C 38.699219 43.101562 38.699219 43.300781 38.699219 43.5 C 38.699219 43.699219 38.699219 44 38.699219 44.199219 C 38.699219 44.398438 38.699219 44.699219 38.699219 44.898438 C 38.699219 45.699219 38.699219 46.5 38.699219 47.300781 C 38.699219 47.898438 38.699219 48.398438 38.699219 49 C 38.699219 50.199219 38.699219 51.398438 38.699219 52.601562 C 38.699219 54.101562 38.699219 55.601562 38.699219 57.199219 C 38.699219 58.398438 38.699219 59.5 38.699219 60.699219 C 38.699219 61.300781 38.699219 61.800781 38.699219 62.398438 C 38.699219 63.199219 38.699219 64 38.699219 64.800781 C 38.699219 65 38.699219 65.300781 38.699219 65.5 C 38.699219 65.699219 38.699219 65.898438 38.699219 66.101562 C 38.699219 66.300781 38.699219 66.5 38.699219 66.699219 C 38.699219 67.035156 38.5 67.367188 38.101562 67.699219 C 37.398438 67.699219 36.800781 67.699219 36.101562 67.699219 C 35.898438 67.699219 35.699219 67.699219 35.5 67.699219 C 35.101562 67.699219 34.699219 67.699219 34.199219 67.699219 C 33.601562 67.699219 32.898438 67.699219 32.300781 67.699219 C 31.898438 67.699219 31.5 67.699219 31.101562 67.699219 C 30.898438 67.699219 30.699219 67.699219 30.5 67.699219 C 29.566406 67.699219 28.933594 67.5 28.601562 67.101562 C 28.601562 66.765625 28.601562 66.433594 28.601562 66.101562 C 28.601562 65.898438 28.601562 65.699219 28.601562 65.5 C 28.601562 65.300781 28.601562 65 28.601562 64.800781 C 28.601562 64.601562 28.601562 64.300781 28.601562 64.101562 C 28.601562 63.300781 28.601562 62.5 28.601562 61.699219 C 28.601562 61.101562 28.601562 60.601562 28.601562 60 C 28.601562 58.800781 28.601562 57.601562 28.601562 56.398438 C 28.601562 54.898438 28.601562 53.398438 28.601562 51.800781 C 28.601562 50.601562 28.601562 49.5 28.601562 48.300781 C 28.601562 47.699219 28.601562 47.199219 28.601562 46.601562 C 28.601562 45.800781 28.601562 45 28.601562 44.199219 C 28.601562 44 28.601562 43.699219 28.601562 43.5 C 28.601562 43.300781 28.601562 43.101562 28.601562 42.898438 C 28.601562 42.699219 28.601562 42.5 28.601562 42.300781 C 28.800781 41.199219 29.601562 41.300781 30.601562 41.300781 Z M 31.199219 43.898438 L 31.199219 65.199219 L 36.199219 65.199219 L 36.199219 43.898438 Z M 31.199219 43.898438 "/>
<path style=" stroke:none;fill-rule:nonzero;fill:rgb(0%,0%,0%);fill-opacity:1;" d="M 36.300781 31.699219 C 36.898438 32.101562 37.398438 32.398438 37.800781 33 C 37.933594 33.132812 38.066406 33.300781 38.199219 33.5 C 39 34.601562 38.898438 35.898438 38.800781 37.199219 C 38.199219 38.398438 37.398438 39.199219 36.300781 40 C 34.699219 40.5 32.699219 40.601562 31.199219 39.800781 C 30.101562 39.199219 29.398438 38.300781 28.800781 37.199219 C 28.699219 35.800781 28.5 34.398438 29.300781 33.199219 C 31.101562 31.199219 33.898438 30.800781 36.398438 31.800781 Z M 31.699219 34.601562 C 31.367188 35 31.199219 35.433594 31.199219 35.898438 C 31.199219 36.367188 31.464844 36.800781 32 37.199219 C 32.800781 37.601562 33.601562 37.800781 34.5 37.601562 C 35 37.398438 35.601562 37.199219 36 36.699219 C 36.066406 36.101562 36.066406 35.5 36 34.898438 C 35.5 34.300781 35.101562 34.199219 34.300781 33.898438 C 33.300781 33.898438 32.601562 34.101562 31.699219 34.601562 Z M 31.699219 34.601562 "/>
</g>
</svg>
