<?xml version="1.0" encoding="utf-8"?>
<!-- Generator: Adobe Illustrator 24.3.0, SVG Export Plug-In . SVG Version: 6.00 Build 0)  -->
<svg version="1.1" id="Слой_1" xmlns="http://www.w3.org/2000/svg" xmlns:xlink="http://www.w3.org/1999/xlink" x="0px" y="0px"
	 viewBox="0 0 512 512" style="enable-background:new 0 0 512 512;" xml:space="preserve">
<style type="text/css">
	.st0{fill:none;stroke:#000000;stroke-width:15;stroke-miterlimit:10;}
</style>
<polygon class="st0" points="133,469.1 379,469.1 502,256 379,42.9 133,42.9 10,256 "/>
<g transform="translate(0.000000,512.000000) scale(0.100000,-0.100000)">
	<path d="M1216.6,3613.7c-47.2-9-125-47.2-164.5-81.9c-42.4-36.8-84.7-101.4-104.1-159l-16-45.8l-2.1-735.9
		c-1.4-479,0.7-751.9,5.6-781.8c9.7-66,30.5-114.6,69.4-166.6c59.7-78.5,143.7-126.4,245.1-138.9c36.1-4.2,528.3-6.2,1351.8-4.9
		l1294.8,2.1l45.1,16c67.3,23.6,132.6,71.5,172.9,125c41.7,54.8,61.8,104.8,70.8,175c4.2,32.6,6.2,324.2,4.9,781.1l-2.1,729
		l-16,45.8c-41,120.8-143,213.8-263.1,238.8c-40.3,8.3-243.7,10.4-1352.4,9.7C1767.8,3620.7,1237.4,3617.9,1216.6,3613.7z
		 M3869.4,3468.6c49.3-9,90.3-31.2,120.8-66c25-29.2,47.9-75,48.6-96.5c0-11.1-154.8-109-739.4-470L2560,2379.3L1822.7,2834
		c-521.4,321.4-738.7,458.9-740.1,468.6c-1.4,6.9,3.5,27.1,11.1,43.7c27.8,62.5,88.9,111.8,152,122.9
		C1298.5,3477.6,3820.1,3477.6,3869.4,3468.6z M1807.4,2669.5c637.3-394.3,724.8-445.7,749.1-445.7c25-0.7,106.2,47.9,729,431.1
		c386,236.7,713,438.1,727.6,446.4l25.7,15.3l-1.4-661.6l-2.1-662.3l-16-29.2c-21.5-41-59.7-77.1-101.4-96.5l-35.4-16.7H2559.3H1236
		l-42.4,21.5c-42.4,20.8-70.1,49.3-95.8,96.5c-12.5,22.9-13.2,52.8-15.3,685.9c-0.7,363.1-0.7,660.9,1.4,660.9
		C1085.4,3115.2,1411,2914.6,1807.4,2669.5z"/>
</g>
</svg>
