<?xml version="1.0" encoding="UTF-8"?>
<svg xmlns="http://www.w3.org/2000/svg" xmlns:xlink="http://www.w3.org/1999/xlink" width="95px" height="95px" viewBox="0 0 95 95" version="1.1">
<g id="surface1">
<path style="fill:none;stroke-width:15;stroke-linecap:butt;stroke-linejoin:miter;stroke:rgb(0%,0%,0%);stroke-opacity:1;stroke-miterlimit:10;" d="M 133.010526 469.094737 L 378.989474 469.094737 L 502 256 L 378.989474 42.905263 L 133.010526 42.905263 L 10 256 Z M 133.010526 469.094737 " transform="matrix(0.185547,0,0,0.185547,0,0)"/>
<path style=" stroke:none;fill-rule:nonzero;fill:rgb(0%,0%,0%);fill-opacity:1;" d="M 22.574219 27.949219 C 21.699219 28.117188 20.253906 28.824219 19.519531 29.46875 C 18.734375 30.152344 17.949219 31.351562 17.589844 32.417969 L 17.292969 33.269531 L 17.253906 46.921875 C 17.226562 55.8125 17.265625 60.875 17.359375 61.429688 C 17.539062 62.652344 17.921875 63.554688 18.644531 64.519531 C 19.753906 65.976562 21.3125 66.867188 23.191406 67.097656 C 23.863281 67.175781 32.996094 67.210938 48.277344 67.1875 L 72.300781 67.148438 L 73.136719 66.851562 C 74.386719 66.414062 75.597656 65.527344 76.34375 64.535156 C 77.117188 63.515625 77.492188 62.589844 77.660156 61.285156 C 77.738281 60.679688 77.773438 55.269531 77.75 46.792969 L 77.710938 33.265625 L 77.414062 32.417969 C 76.652344 30.175781 74.761719 28.449219 72.53125 27.984375 C 71.785156 27.832031 68.011719 27.792969 47.4375 27.804688 C 32.800781 27.820312 22.960938 27.871094 22.574219 27.949219 Z M 71.796875 30.640625 C 72.710938 30.808594 73.472656 31.21875 74.035156 31.867188 C 74.5 32.40625 74.925781 33.257812 74.9375 33.65625 C 74.9375 33.863281 72.066406 35.679688 61.21875 42.378906 L 47.5 50.851562 L 33.820312 42.414062 C 24.144531 36.453125 20.113281 33.902344 20.085938 33.722656 C 20.0625 33.59375 20.152344 33.21875 20.292969 32.910156 C 20.808594 31.75 21.941406 30.835938 23.113281 30.628906 C 24.09375 30.472656 70.878906 30.472656 71.796875 30.640625 Z M 33.535156 45.46875 C 45.359375 52.785156 46.984375 53.738281 47.433594 53.738281 C 47.898438 53.75 49.40625 52.847656 60.960938 45.738281 C 68.125 41.347656 74.191406 37.609375 74.460938 37.457031 L 74.9375 37.171875 L 74.914062 49.449219 L 74.875 61.738281 L 74.578125 62.277344 C 74.179688 63.039062 73.46875 63.710938 72.695312 64.070312 L 72.039062 64.378906 L 22.933594 64.378906 L 22.148438 63.980469 C 21.359375 63.59375 20.847656 63.066406 20.371094 62.191406 C 20.136719 61.765625 20.125 61.210938 20.085938 49.464844 C 20.074219 42.726562 20.074219 37.199219 20.113281 37.199219 C 20.140625 37.199219 26.179688 40.921875 33.535156 45.46875 Z M 33.535156 45.46875 "/>
</g>
</svg>
