<?xml version="1.0" encoding="utf-8"?>
<!-- Generator: Adobe Illustrator 24.3.0, SVG Export Plug-In . SVG Version: 6.00 Build 0)  -->
<svg version="1.1" id="Слой_1" xmlns="http://www.w3.org/2000/svg" xmlns:xlink="http://www.w3.org/1999/xlink" x="0px" y="0px"
	 viewBox="0 0 512 512" style="enable-background:new 0 0 512 512;" xml:space="preserve">
<style type="text/css">
	.st0{fill:none;stroke:#000000;stroke-width:15;stroke-miterlimit:10;}
</style>
<polygon class="st0" points="133,469.1 379,469.1 502,256 379,42.9 133,42.9 10,256 "/>
<g transform="translate(0.000000,512.000000) scale(0.100000,-0.100000)">
	<path d="M2461.2,4199.8c-144.6-20.4-249.6-50.5-345-98.2c-335.5-168.5-541.4-484.1-562.6-862.6
		c-19.7-354.5,224.3-927.3,718.7-1684.2c85.2-130.9,229.1-337.5,250.9-361.4c21.9-23.2,52.5-22.5,75.7,2
		c34.1,36.8,184.1,246.2,292.5,407.8c308.9,463,522.3,883.7,615.7,1213c77.7,277.5,80.4,482.1,7.5,701
		c-113.8,342.3-401,595.2-755.5,666.9C2695.9,4197.1,2509.7,4206.6,2461.2,4199.8z M2744.2,4081.9c169.1-38.1,311.6-113.2,431.6-225
		c165.7-156.1,261.9-352.5,285-584.3c35.4-344.3-182.7-887.8-626.6-1564.2c-96.8-147.3-266.6-388.6-273.4-388.6
		c-6.2,0.7-184.8,264.6-267.9,395.5c-350.5,552.3-560.5,999-623.3,1326.3c-16.4,83.2-16.4,231.2,0,313.7
		c35.4,181.4,111.1,329.3,233.9,460.3c142.5,151.4,334.1,250.2,542.1,279.6C2512.4,4104.3,2677.5,4096.8,2744.2,4081.9z"/>
	<path d="M2434,3762.7c-227.8-48.4-407.1-239.3-447.3-476c-10.9-64.1-4.1-184.1,14.4-248.9c89.3-314.4,424.8-494.4,736.4-394.1
		c184.1,58.7,328.6,208.6,381.9,394.1c19.1,66.2,25.2,180,13.7,250.2c-37.5,235.2-220.9,428.2-451.4,475.2
		C2616,3777,2498.1,3777,2434,3762.7z M2668.6,3661.2c207.9-50.5,356.7-229.8,366.9-442.6c4.8-90-8.9-151.4-49.8-235.2
		c-26.6-53.8-42.3-74.4-90.7-122.7c-98.2-97.5-199.1-139.8-334.8-139.8s-236.6,42.3-334.8,139.8c-48.4,48.4-64.1,68.9-90.7,122.7
		c-40.9,83.9-54.5,145.9-49.8,235.2c5.5,109.1,40.9,199.8,110.5,285c57.3,70.2,161.6,135.7,253.7,157.5
		C2503.5,3674.8,2614,3674.8,2668.6,3661.2z"/>
	<path d="M3006.8,1493.5c-20.4-19.7-21.9-43.6-4.1-66.2c11.6-14.4,23.2-18.4,73.7-25.2c171.2-23.2,353.9-71.6,433-114.5
		c45.7-24.6,71.6-53.8,62.7-68.9c-67.5-107.8-530.5-199.1-1011.9-199.1s-944.4,91.4-1011.9,199.1c-5.5,9.5-3.4,15.7,12.2,32.1
		c51.8,53.8,197.1,103.6,413.2,140.4c74.4,13,88.6,22.5,88.6,58c0,25.2-11.6,41.6-36.1,49.8c-27.3,10.2-289.1-47-385.3-83.9
		c-99.6-38.2-160.9-82.5-185.5-133c-34.8-70.9,2-145.9,96.8-199.1c210-118,744.6-186.9,1229.4-158.9
		c435.1,25.2,741.2,99.6,848.9,205.9c38.2,37.5,51.8,73.7,45,117.3c-18.4,112.5-201.9,197.1-542.7,249.6
		C3025.2,1513.9,3026.5,1513.9,3006.8,1493.5z"/>
</g>
</svg>
