<?xml version="1.0" encoding="UTF-8"?>
<svg xmlns="http://www.w3.org/2000/svg" xmlns:xlink="http://www.w3.org/1999/xlink" width="95px" height="95px" viewBox="0 0 95 95" version="1.1">
<g id="surface1">
<path style="fill:none;stroke-width:15;stroke-linecap:butt;stroke-linejoin:miter;stroke:rgb(0%,0%,0%);stroke-opacity:1;stroke-miterlimit:10;" d="M 133.010526 469.094737 L 378.989474 469.094737 L 502 256 L 378.989474 42.905263 L 133.010526 42.905263 L 10 256 Z M 133.010526 469.094737 " transform="matrix(0.185547,0,0,0.185547,0,0)"/>
<path style=" stroke:none;fill-rule:nonzero;fill:rgb(0%,0%,0%);fill-opacity:1;" d="M 45.667969 17.074219 C 42.984375 17.453125 41.035156 18.011719 39.265625 18.894531 C 33.039062 22.023438 29.21875 27.878906 28.828125 34.902344 C 28.460938 41.480469 32.988281 52.105469 42.160156 66.152344 C 43.742188 68.578125 46.414062 72.414062 46.816406 72.855469 C 47.222656 73.289062 47.792969 73.273438 48.222656 72.820312 C 48.855469 72.136719 51.636719 68.25 53.648438 65.253906 C 59.378906 56.664062 63.339844 48.855469 65.074219 42.746094 C 66.515625 37.597656 66.566406 33.800781 65.210938 29.738281 C 63.101562 23.386719 57.773438 18.695312 51.195312 17.367188 C 50.023438 17.125 46.566406 16.949219 45.667969 17.074219 Z M 50.917969 19.261719 C 54.054688 19.96875 56.699219 21.363281 58.925781 23.4375 C 62 26.332031 63.785156 29.976562 64.214844 34.277344 C 64.871094 40.667969 60.824219 50.75 52.585938 63.300781 C 50.792969 66.035156 47.640625 70.511719 47.515625 70.511719 C 47.398438 70.5 44.085938 65.601562 42.542969 63.171875 C 36.039062 52.925781 32.144531 44.636719 30.980469 38.5625 C 30.675781 37.019531 30.675781 34.273438 30.980469 32.742188 C 31.636719 29.378906 33.039062 26.632812 35.320312 24.203125 C 37.960938 21.394531 41.519531 19.558594 45.378906 19.015625 C 46.617188 18.847656 49.679688 18.984375 50.917969 19.261719 Z M 50.917969 19.261719 "/>
<path style=" stroke:none;fill-rule:nonzero;fill:rgb(0%,0%,0%);fill-opacity:1;" d="M 45.164062 25.183594 C 40.933594 26.082031 37.609375 29.625 36.863281 34.015625 C 36.660156 35.207031 36.785156 37.433594 37.128906 38.632812 C 38.785156 44.46875 45.011719 47.808594 50.792969 45.945312 C 54.210938 44.859375 56.890625 42.078125 57.878906 38.632812 C 58.234375 37.40625 58.347656 35.292969 58.132812 33.992188 C 57.4375 29.628906 54.035156 26.046875 49.757812 25.175781 C 48.539062 24.917969 46.351562 24.917969 45.164062 25.183594 Z M 49.515625 27.066406 C 53.371094 28.003906 56.132812 31.332031 56.324219 35.28125 C 56.410156 36.949219 56.15625 38.089844 55.398438 39.644531 C 54.90625 40.640625 54.613281 41.023438 53.714844 41.921875 C 51.894531 43.730469 50.023438 44.515625 47.503906 44.515625 C 44.984375 44.515625 43.113281 43.730469 41.292969 41.921875 C 40.394531 41.023438 40.101562 40.640625 39.609375 39.644531 C 38.851562 38.085938 38.597656 36.9375 38.683594 35.28125 C 38.785156 33.253906 39.445312 31.574219 40.734375 29.992188 C 41.796875 28.6875 43.734375 27.472656 45.441406 27.070312 C 46.453125 26.816406 48.5 26.816406 49.515625 27.066406 Z M 49.515625 27.066406 "/>
<path style=" stroke:none;fill-rule:nonzero;fill:rgb(0%,0%,0%);fill-opacity:1;" d="M 55.789062 67.289062 C 55.410156 67.652344 55.382812 68.097656 55.714844 68.515625 C 55.929688 68.785156 56.144531 68.859375 57.082031 68.984375 C 60.257812 69.414062 63.648438 70.3125 65.117188 71.109375 C 65.964844 71.566406 66.445312 72.105469 66.277344 72.386719 C 65.027344 74.386719 56.4375 76.082031 47.503906 76.082031 C 38.570312 76.082031 29.980469 74.386719 28.726562 72.386719 C 28.625 72.210938 28.664062 72.097656 28.953125 71.792969 C 29.914062 70.792969 32.613281 69.871094 36.621094 69.1875 C 38 68.945312 38.265625 68.769531 38.265625 68.109375 C 38.265625 67.644531 38.050781 67.339844 37.59375 67.1875 C 37.089844 66.996094 32.230469 68.058594 30.445312 68.742188 C 28.597656 69.453125 27.460938 70.273438 27.003906 71.210938 C 26.359375 72.527344 27.042969 73.917969 28.800781 74.90625 C 32.695312 77.09375 42.617188 78.375 51.613281 77.855469 C 59.683594 77.386719 65.363281 76.003906 67.363281 74.03125 C 68.070312 73.335938 68.324219 72.664062 68.199219 71.855469 C 67.855469 69.769531 64.453125 68.199219 58.128906 67.226562 C 56.132812 66.910156 56.15625 66.910156 55.789062 67.289062 Z M 55.789062 67.289062 "/>
</g>
</svg>
