<?xml version="1.0" encoding="utf-8"?>
<!-- Generator: Adobe Illustrator 24.3.0, SVG Export Plug-In . SVG Version: 6.00 Build 0)  -->
<svg version="1.1" id="Слой_1" xmlns="http://www.w3.org/2000/svg" xmlns:xlink="http://www.w3.org/1999/xlink" x="0px" y="0px"
	 viewBox="0 0 512 512" style="enable-background:new 0 0 512 512;" xml:space="preserve">
<style type="text/css">
	.st0{fill:none;stroke:#000000;stroke-width:15;stroke-miterlimit:10;}
</style>
<polygon class="st0" points="133,469.1 379,469.1 502,256 379,42.9 133,42.9 10,256 "/>
<g transform="matrix(1.3333334 0 0 1.3333334 0 0)">
</g>
<g transform="translate(0.000000,500.000000) scale(0.100000,-0.100000)">
	<path d="M2076.6,3781.3c-657.5-226.1-932-324.4-944.3-336l-17.3-16.6v-988.4V1452l17.3-16.6c21.7-21,1865.5-656.8,1903.8-656.8
		c14.4,0,229.8,54.2,479.7,120.7c378.6,100.4,456.6,123.5,471.8,138l17.3,18.1v1385v1385l-17.3,18.1c-15.2,14.4-93.2,37.6-471.8,138
		c-250,66.5-466.7,120.7-482.6,119.9C3015.2,4101.4,2656.1,3980.7,2076.6,3781.3z M3445.8,3842c224-59.2,408.9-108.4,411.1-108.4
		s3.6-581.6,3.6-1292.6V1148.5l-15.9-4.3c-9.4-2.2-193.6-51.3-410.4-108.4l-393.8-105.5L2500,1116.7
		c-296.9,101.9-537.5,186.4-533.9,187.8c4.3,1.4,228.3-27.5,499.2-63.6c270.2-35.4,507.9-65,527.4-65c28.2,0,38.3,3.6,54.2,18.8
		l18.8,19.5v1185.6v1186.3l-20.2,19.5c-15.2,14.4-27.5,19.5-49.1,19.5c-16.6,0-289-53.5-606.9-119.2
		c-317.2-65.7-579.4-119.2-581.6-119.2c-2.9,0-13-8.7-23.8-18.8l-18.8-19.5v-784.6v-784.6l-247.1-90.3
		c-135.8-49.9-249.3-91.8-252.9-92.5c-2.9-1.4-5.1,390.2-4.3,869.9l2.2,872.8l885.1,304.9c487,167.6,886.5,305.6,888,305.6
		C3036.9,3950.4,3221.8,3902,3445.8,3842z M2921.2,2396.3V1333.5l-19.5,3.6c-11.6,1.4-326.6,43.3-700.8,92.5
		c-375,49.1-681.3,91.8-681.3,93.9c0,2.2,80.2,32.5,177.7,68.6c114.9,41.2,184.2,70.1,195.1,81.6l17.3,17.3l1.4,780.3l2.2,781
		l494.9,102.6c272.4,56.4,499.2,103.3,504.3,103.3C2919.1,3459.1,2921.2,3242.3,2921.2,2396.3z"/>
</g>
</svg>
