<?xml version="1.0" encoding="UTF-8"?>
<svg xmlns="http://www.w3.org/2000/svg" xmlns:xlink="http://www.w3.org/1999/xlink" width="95px" height="95px" viewBox="0 0 95 95" version="1.1">
<g id="surface1">
<path style="fill:none;stroke-width:15;stroke-linecap:butt;stroke-linejoin:miter;stroke:rgb(0%,0%,0%);stroke-opacity:1;stroke-miterlimit:10;" d="M 133.010526 469.094737 L 378.989474 469.094737 L 502 256 L 378.989474 42.905263 L 133.010526 42.905263 L 10 256 Z M 133.010526 469.094737 " transform="matrix(0.185547,0,0,0.185547,0,0)"/>
<path style=" stroke:none;fill-rule:nonzero;fill:rgb(0%,0%,0%);fill-opacity:1;" d="M 25.402344 21.792969 C 24.566406 21.9375 23.835938 22.34375 23.265625 22.976562 C 22.234375 24.113281 22.320312 21.832031 22.355469 47.496094 L 22.390625 70.265625 L 22.722656 70.9375 C 23.296875 72.121094 24.398438 72.933594 25.734375 73.183594 C 26.65625 73.351562 58.777344 73.363281 59.382812 73.195312 C 59.996094 73.027344 72.355469 60.65625 72.535156 60.042969 C 72.699219 59.457031 72.699219 25.953125 72.535156 24.914062 C 72.378906 23.992188 72.101562 23.429688 71.496094 22.832031 C 70.898438 22.222656 70.335938 21.949219 69.414062 21.792969 C 68.496094 21.648438 26.289062 21.648438 25.402344 21.792969 Z M 69.367188 24.449219 C 70.0625 24.757812 70.023438 23.800781 70.023438 41.875 L 70.023438 58.492188 L 60.640625 58.492188 L 59.984375 58.804688 C 59.113281 59.210938 58.597656 59.710938 58.179688 60.585938 L 57.832031 61.304688 L 57.832031 70.683594 L 41.828125 70.660156 L 25.808594 70.625 L 25.4375 70.265625 C 25.234375 70.074219 25.019531 69.726562 24.949219 69.488281 C 24.863281 69.214844 24.839844 61.789062 24.863281 47.039062 L 24.902344 24.996094 L 25.296875 24.648438 L 25.679688 24.304688 L 47.375 24.304688 C 63.929688 24.304688 69.132812 24.339844 69.367188 24.449219 Z M 64.289062 64.886719 L 60.402344 68.769531 L 60.367188 67.851562 C 60.34375 67.335938 60.34375 65.757812 60.367188 64.335938 C 60.402344 61.933594 60.425781 61.71875 60.640625 61.480469 C 60.773438 61.335938 60.988281 61.167969 61.121094 61.109375 C 61.253906 61.058594 62.890625 61.011719 64.765625 61.011719 L 68.171875 61 Z M 64.289062 64.886719 "/>
</g>
</svg>
