<?xml version="1.0" encoding="UTF-8"?>
<svg xmlns="http://www.w3.org/2000/svg" xmlns:xlink="http://www.w3.org/1999/xlink" width="95px" height="95px" viewBox="0 0 95 95" version="1.1">
<g id="surface1">
<path style="fill:none;stroke-width:15;stroke-linecap:butt;stroke-linejoin:miter;stroke:rgb(0%,0%,0%);stroke-opacity:1;stroke-miterlimit:10;" d="M 133.010526 469.094737 L 378.989474 469.094737 L 502 256 L 378.989474 42.905263 L 133.010526 42.905263 L 10 256 Z M 133.010526 469.094737 " transform="matrix(0.185547,0,0,0.185547,0,0)"/>
<path style=" stroke:none;fill-rule:nonzero;fill:rgb(0%,0%,0%);fill-opacity:1;" d="M 25.359375 20.902344 C 23.699219 21.21875 22.160156 22.800781 21.832031 24.496094 C 21.675781 25.335938 21.675781 64.839844 21.832031 65.675781 C 22.070312 66.894531 22.941406 68.128906 24.039062 68.773438 C 24.988281 69.316406 25.574219 69.394531 29.023438 69.394531 L 32.199219 69.394531 L 47.054688 74.03125 L 61.902344 78.664062 L 63.28125 78.664062 C 64.570312 78.664062 64.683594 78.640625 65.328125 78.324219 C 66.128906 77.929688 67.078125 76.96875 67.40625 76.246094 C 67.714844 75.53125 79.246094 38.539062 79.472656 37.53125 C 79.617188 36.851562 79.628906 36.570312 79.527344 35.960938 C 79.265625 34.492188 78.273438 33.109375 77.0625 32.546875 C 76.757812 32.398438 73.039062 31.203125 68.808594 29.878906 L 61.121094 27.492188 L 61.050781 25.910156 C 61.007812 24.667969 60.9375 24.203125 60.746094 23.714844 C 60.203125 22.359375 59.027344 21.320312 57.613281 20.945312 C 57.027344 20.800781 55.046875 20.777344 41.390625 20.789062 C 32.84375 20.800781 25.632812 20.847656 25.359375 20.902344 Z M 57.335938 23.277344 C 57.863281 23.515625 58.429688 24.113281 58.597656 24.609375 C 58.710938 24.9375 58.746094 29.15625 58.746094 45.199219 L 58.746094 65.382812 L 58.476562 65.855469 C 58.136719 66.445312 57.570312 66.851562 56.882812 67.011719 C 56.148438 67.179688 26.679688 67.179688 25.890625 67.011719 C 25.496094 66.917969 25.167969 66.75 24.851562 66.46875 C 23.957031 65.664062 24.035156 67.578125 24.003906 45.496094 C 23.992188 32.402344 24.011719 25.496094 24.09375 25.085938 C 24.273438 24.105469 24.984375 23.347656 25.914062 23.164062 C 26.183594 23.109375 33.242188 23.074219 41.671875 23.074219 C 55.410156 23.09375 56.984375 23.117188 57.335938 23.277344 Z M 68.4375 32.199219 C 72.417969 33.429688 75.863281 34.546875 76.089844 34.660156 C 76.722656 34.992188 77.152344 35.691406 77.210938 36.460938 C 77.242188 37.058594 76.804688 38.527344 71.691406 54.921875 C 68.640625 64.714844 65.960938 73.308594 65.746094 74.007812 C 65.304688 75.433594 64.941406 75.964844 64.171875 76.304688 C 63.925781 76.417969 63.519531 76.519531 63.269531 76.519531 C 62.988281 76.519531 58.65625 75.230469 51.488281 72.992188 L 40.160156 69.453125 L 48.832031 69.398438 C 56.792969 69.34375 57.550781 69.328125 58.011719 69.136719 C 59.371094 68.609375 60.433594 67.476562 60.839844 66.140625 C 61.066406 65.429688 61.066406 65.046875 61.066406 47.679688 C 61.066406 37.921875 61.097656 29.9375 61.132812 29.9375 C 61.167969 29.9375 64.457031 30.953125 68.4375 32.199219 Z M 68.4375 32.199219 "/>
<path style=" stroke:none;fill-rule:nonzero;fill:rgb(0%,0%,0%);fill-opacity:1;" d="M 40.125 38.066406 C 38.339844 39.601562 36.804688 41.386719 36.144531 42.6875 C 35.152344 44.65625 35.863281 46.75 37.707031 47.246094 C 38.339844 47.414062 39.890625 47.324219 40.351562 47.089844 C 40.546875 46.976562 40.714844 46.941406 40.714844 46.996094 C 40.714844 47.066406 40.351562 47.957031 39.910156 49 C 39.480469 50.027344 39.152344 50.910156 39.1875 50.945312 C 39.277344 51.035156 43.519531 51.035156 43.609375 50.945312 C 43.640625 50.898438 43.347656 50.085938 42.953125 49.132812 C 42.546875 48.183594 42.175781 47.292969 42.128906 47.144531 L 42.046875 46.886719 L 42.433594 47.089844 C 43.019531 47.40625 45.011719 47.382812 45.644531 47.046875 C 46.546875 46.558594 47.160156 45.496094 47.160156 44.421875 C 47.148438 43.292969 46.15625 41.570312 44.449219 39.75 C 43.519531 38.757812 41.597656 37.0625 41.394531 37.0625 C 41.335938 37.058594 40.757812 37.511719 40.125 38.066406 Z M 40.125 38.066406 "/>
</g>
</svg>
