<?xml version="1.0" encoding="UTF-8"?>
<svg xmlns="http://www.w3.org/2000/svg" xmlns:xlink="http://www.w3.org/1999/xlink" width="95px" height="95px" viewBox="0 0 95 95" version="1.1">
<g id="surface1">
<path style="fill:none;stroke-width:15;stroke-linecap:butt;stroke-linejoin:miter;stroke:rgb(0%,0%,0%);stroke-opacity:1;stroke-miterlimit:10;" d="M 133.010526 469.094737 L 378.989474 469.094737 L 502 256 L 378.989474 42.905263 L 133.010526 42.905263 L 10 256 Z M 133.010526 469.094737 " transform="matrix(0.185547,0,0,0.185547,0,0)"/>
<path style=" stroke:none;fill-rule:nonzero;fill:rgb(0%,0%,0%);fill-opacity:1;" d="M 32.210938 24.4375 C 20.792969 27.824219 17.074219 28.984375 16.894531 29.203125 C 16.660156 29.464844 16.644531 30.539062 16.644531 47.480469 C 16.644531 63.25 16.671875 65.507812 16.851562 65.769531 C 16.960938 65.9375 17.429688 66.183594 17.914062 66.351562 C 20.308594 67.132812 47.25 75.039062 47.511719 75.039062 C 47.800781 75.039062 76.726562 66.527344 77.566406 66.199219 C 78.410156 65.867188 78.351562 67.148438 78.351562 47.480469 C 78.351562 30.539062 78.339844 29.464844 78.117188 29.1875 C 77.925781 28.96875 74.34375 27.867188 62.734375 24.421875 C 54.414062 21.957031 47.539062 19.945312 47.445312 19.960938 C 47.363281 19.960938 40.503906 21.984375 32.210938 24.4375 Z M 60.28125 25.964844 C 67.335938 28.074219 73.121094 29.824219 73.121094 29.863281 C 73.121094 29.90625 67.363281 31.65625 60.308594 33.761719 L 47.515625 37.578125 L 37.625 34.628906 C 32.183594 33.003906 26.414062 31.28125 24.816406 30.8125 C 23.203125 30.332031 21.882812 29.90625 21.882812 29.863281 C 21.882812 29.824219 27.597656 28.085938 34.59375 25.992188 C 41.578125 23.898438 47.320312 22.179688 47.363281 22.164062 C 47.402344 22.148438 53.214844 23.859375 60.28125 25.964844 Z M 32.046875 35.234375 C 39.222656 37.371094 45.378906 39.203125 45.75 39.3125 L 46.398438 39.53125 L 46.398438 55.976562 C 46.398438 71.597656 46.386719 72.4375 46.164062 72.367188 C 44.375 71.84375 20.820312 64.875 19.980469 64.628906 L 18.851562 64.28125 L 18.851562 47.824219 C 18.851562 38.773438 18.878906 31.378906 18.917969 31.378906 C 18.960938 31.378906 24.867188 33.113281 32.046875 35.234375 Z M 76.148438 47.824219 L 76.148438 64.269531 L 75.5 64.488281 C 74.5625 64.792969 48.753906 72.421875 48.667969 72.421875 C 48.628906 72.421875 48.601562 65.011719 48.601562 55.960938 L 48.601562 39.519531 L 49.328125 39.296875 C 49.714844 39.1875 55.871094 37.355469 62.992188 35.234375 C 70.113281 33.125 75.980469 31.390625 76.050781 31.390625 C 76.109375 31.378906 76.148438 38.773438 76.148438 47.824219 Z M 76.148438 47.824219 "/>
</g>
</svg>
