<?xml version="1.0" encoding="utf-8"?>
<!-- Generator: Adobe Illustrator 24.3.0, SVG Export Plug-In . SVG Version: 6.00 Build 0)  -->
<svg version="1.1" id="Слой_1" xmlns="http://www.w3.org/2000/svg" xmlns:xlink="http://www.w3.org/1999/xlink" x="0px" y="0px"
	 viewBox="0 0 512 512" style="enable-background:new 0 0 512 512;" xml:space="preserve">
<style type="text/css">
	.st0{fill:none;stroke:#000000;stroke-width:15;stroke-miterlimit:10;}
</style>
<polygon class="st0" points="133,469.1 379,469.1 502,256 379,42.9 133,42.9 10,256 "/>
<g transform="translate(0.000000,512.000000) scale(0.100000,-0.100000)">
	<path d="M1736,3803c-615.4-182.6-815.8-245-825.5-256.8c-12.6-14.1-13.4-72-13.4-985.1c0-850,1.5-971.7,11.1-985.8
		c5.9-8.9,31.2-22.3,57.2-31.2c129.2-42.3,1581.2-468.4,1595.3-468.4c15.6,0,1574.5,458.8,1619.8,476.6
		c45.3,17.8,42.3-51.2,42.3,1008.8c0,913.1-0.7,971-12.6,985.8c-10.4,11.9-203.4,71.3-829.2,256.8
		c-448.4,132.9-818.8,241.3-824,240.5C2552.6,4044.3,2182.9,3935.2,1736,3803z M3248.9,3720.6c380.1-113.6,691.9-207.9,691.9-210.1
		s-310.3-96.5-690.4-210.1l-689.6-205.6l-533,158.9c-293.2,87.6-604.3,180.4-690.4,205.6c-86.9,26-158.1,49-158.1,51.2
		s308.1,95.8,685.2,208.6c376.4,112.8,685.9,205.6,688.1,206.4C2554.8,3926.3,2868,3834.2,3248.9,3720.6z M1727.1,3221
		c386.8-115.1,718.6-213.8,738.6-219.7l34.9-11.9v-886.3c0-841.8-0.7-887.1-12.6-883.4c-96.5,28.2-1365.9,403.8-1411.2,417.2
		l-60.9,18.6v887.1c0,487.7,1.5,886.3,3.7,886.3S1340.3,3335.4,1727.1,3221z M4104,2542.6v-886.3l-34.9-11.9
		c-50.5-16.3-1441.6-427.6-1446.1-427.6c-2.2,0-3.7,399.4-3.7,887.1v886.3l39.3,11.9c20.8,5.9,352.6,104.7,736.4,219
		c383.8,113.6,700,207.1,703.7,207.1C4101.8,3428.9,4104,3030.3,4104,2542.6z"/>
</g>
</svg>
