<?xml version="1.0" encoding="utf-8"?>
<!-- Generator: Adobe Illustrator 24.3.0, SVG Export Plug-In . SVG Version: 6.00 Build 0)  -->
<svg version="1.1" id="Слой_1" xmlns="http://www.w3.org/2000/svg" xmlns:xlink="http://www.w3.org/1999/xlink" x="0px" y="0px"
	 viewBox="0 0 512 512" style="enable-background:new 0 0 512 512;" xml:space="preserve">
<style type="text/css">
	.st0{fill:none;stroke:#000000;stroke-width:15;stroke-miterlimit:10;}
</style>
<polygon class="st0" points="133,469.1 379,469.1 502,256 379,42.9 133,42.9 10,256 "/>
<g transform="translate(0.000000,512.000000) scale(0.100000,-0.100000)">
	<path d="M1366.8,3993.5c-89.6-17.1-172.4-102.4-190.1-193.8c-8.5-45.1-8.5-2174.2,0-2219.2c12.8-65.8,59.7-132.2,118.8-167
		c51.2-29.2,82.9-33.5,268.7-33.5h171.2l800.7-249.8l800.1-249.8h74.3c69.5,0,75.6,1.2,110.3,18.3c43.3,21.3,94.4,73.1,112.1,112.1
		c16.5,38.4,638,2032.2,650.2,2086.4c7.9,36.6,8.5,51.8,3,84.7c-14,79.2-67.6,153.6-132.8,184c-16.5,7.9-216.9,72.5-444.8,143.8
		l-414.4,128.6l-3.7,85.3c-2.4,67-6.1,92-16.5,118.2c-29.2,73.1-92.6,129.2-168.8,149.3c-31.7,7.9-138.3,9.1-874.4,8.5
		C1770.2,3998.9,1381.4,3996.5,1366.8,3993.5z M3090,3865.5c28.6-12.8,59.1-45.1,68.2-71.9c6.1-17.7,7.9-245,7.9-1109.6V1596.3
		l-14.6-25.6c-18.3-31.7-48.7-53.6-85.9-62.2c-39.6-9.1-1627.6-9.1-1670.2,0c-21.3,4.9-39,14-56.1,29.2
		c-48.1,43.3-43.9-59.7-45.7,1130.3c-0.6,705.6,0.6,1077.9,4.9,1099.9c9.7,53,48.1,93.8,98.1,103.6c14.6,3,394.9,4.9,849.4,4.9
		C2986.4,3875.3,3071.1,3874,3090,3865.5z M3688.4,3384.7c214.5-66.4,400.3-126.7,412.5-132.8c34.1-17.7,57.3-55.5,60.3-96.9
		c1.8-32.3-21.9-111.5-297.4-995.1c-164.5-527.7-308.9-990.8-320.5-1028.6c-23.8-76.8-43.3-105.4-84.7-123.7
		c-13.4-6.1-35.3-11.6-48.7-11.6c-15.2,0-248.6,69.5-634.9,190.1l-610.6,190.7l467.4,3c429,3,469.8,3.7,494.8,14
		c73.1,28.6,130.4,89.6,152.3,161.5c12.2,38.4,12.2,59.1,12.2,995.1c0,525.9,1.8,956.1,3.7,956.1
		C3296.6,3506.6,3473.9,3451.8,3688.4,3384.7z"/>
	<path d="M2162.6,3068.5c-96.3-82.9-179.1-179.1-214.5-249.2c-53.6-106-15.2-218.8,84.1-245.6c34.1-9.1,117.6-4.3,142.6,8.5
		c10.4,6.1,19.5,7.9,19.5,4.9c0-3.7-19.5-51.8-43.3-107.9c-23.2-55.5-40.8-103-39-104.8c4.9-4.9,233.4-4.9,238.3,0
		c1.8,2.4-14,46.3-35.3,97.5c-21.9,51.2-42,99.3-44.5,107.2l-4.3,14l20.7-11c31.7-17.1,138.9-15.8,173.1,2.4
		c48.7,26.2,81.7,83.5,81.7,141.4c-0.6,60.9-54.2,153.6-146.2,251.7c-50,53.6-153.6,145-164.5,145
		C2227.8,3122.7,2196.7,3098.3,2162.6,3068.5z"/>
</g>
</svg>
