<?xml version="1.0" encoding="UTF-8"?>
<svg xmlns="http://www.w3.org/2000/svg" xmlns:xlink="http://www.w3.org/1999/xlink" width="95px" height="95px" viewBox="0 0 95 95" version="1.1">
<g id="surface1">
<path style="fill:none;stroke-width:15;stroke-linecap:butt;stroke-linejoin:miter;stroke:rgb(0%,0%,0%);stroke-opacity:1;stroke-miterlimit:10;" d="M 133.010526 469.094737 L 378.989474 469.094737 L 502 256 L 378.989474 42.905263 L 133.010526 42.905263 L 10 256 Z M 133.010526 469.094737 " transform="matrix(0.185547,0,0,0.185547,0,0)"/>
<path style=" stroke:none;fill-rule:nonzero;fill:rgb(0%,0%,0%);fill-opacity:1;" d="M 38.53125 22.613281 C 26.332031 26.808594 21.238281 28.632812 21.007812 28.847656 L 20.6875 29.15625 L 20.6875 65.832031 L 21.007812 66.140625 C 21.414062 66.53125 55.625 78.328125 56.332031 78.328125 C 56.601562 78.328125 60.597656 77.320312 65.234375 76.085938 C 72.257812 74.222656 73.707031 73.796875 73.988281 73.527344 L 74.308594 73.191406 L 74.308594 21.792969 L 73.988281 21.457031 C 73.707031 21.191406 72.257812 20.761719 65.234375 18.898438 C 60.597656 17.664062 56.574219 16.660156 56.28125 16.671875 C 55.945312 16.671875 49.28125 18.914062 38.53125 22.613281 Z M 63.9375 21.484375 C 68.09375 22.585938 71.523438 23.496094 71.5625 23.496094 C 71.605469 23.496094 71.628906 34.289062 71.628906 47.480469 L 71.628906 71.464844 L 71.335938 71.542969 C 71.160156 71.585938 67.742188 72.496094 63.71875 73.554688 L 56.414062 75.511719 L 46.386719 72.054688 C 40.878906 70.164062 36.414062 68.59375 36.480469 68.570312 C 36.558594 68.542969 40.714844 69.078125 45.742188 69.75 C 50.757812 70.40625 55.167969 70.953125 55.527344 70.953125 C 56.050781 70.953125 56.238281 70.886719 56.535156 70.605469 L 56.882812 70.246094 L 56.882812 26.234375 L 56.507812 25.871094 C 56.226562 25.605469 56 25.511719 55.597656 25.511719 C 55.289062 25.511719 50.234375 26.503906 44.335938 27.722656 C 38.449219 28.941406 33.585938 29.933594 33.546875 29.933594 C 33.492188 29.933594 33.304688 30.09375 33.101562 30.28125 L 32.753906 30.644531 L 32.753906 59.761719 L 28.167969 61.4375 C 25.648438 62.363281 23.542969 63.140625 23.476562 63.152344 C 23.421875 63.179688 23.382812 55.914062 23.398438 47.011719 L 23.4375 30.816406 L 39.859375 25.160156 C 48.898438 22.050781 56.308594 19.488281 56.335938 19.488281 C 56.347656 19.476562 59.78125 20.375 63.9375 21.484375 Z M 54.203125 48.3125 L 54.203125 68.03125 L 53.839844 67.964844 C 53.625 67.9375 47.78125 67.160156 40.835938 66.246094 C 33.878906 65.335938 28.195312 64.542969 28.195312 64.503906 C 28.195312 64.464844 29.683594 63.902344 31.492188 63.234375 C 33.625 62.46875 34.910156 61.933594 35.113281 61.71875 L 35.433594 61.398438 L 35.460938 46.917969 L 35.5 32.429688 L 44.683594 30.523438 C 49.738281 29.476562 53.945312 28.609375 54.039062 28.609375 C 54.164062 28.589844 54.203125 32.613281 54.203125 48.3125 Z M 54.203125 48.3125 "/>
</g>
</svg>
