<?xml version="1.0" encoding="utf-8"?>
<!-- Generator: Adobe Illustrator 24.3.0, SVG Export Plug-In . SVG Version: 6.00 Build 0)  -->
<svg version="1.1" id="Слой_1" xmlns="http://www.w3.org/2000/svg" xmlns:xlink="http://www.w3.org/1999/xlink" x="0px" y="0px"
	 viewBox="0 0 95 95" style="enable-background:new 0 0 95 95;" xml:space="preserve">
<style type="text/css">
	.st0{fill:none;stroke:#000000;stroke-width:2.7832;stroke-miterlimit:1.8555;}
	.st1{fill:none;stroke:#000000;stroke-width:3;stroke-linecap:round;stroke-linejoin:round;stroke-miterlimit:66.6667;}
</style>
<path class="st0" d="M24.7,87h45.6l22.8-39.5L70.3,8H24.7L1.9,47.5L24.7,87z"/>
<g>
	<path class="st1" d="M37.3,22.5c-11.2,0-20.2,9.1-20.2,20.2c0,6.5,3.1,12.3,7.8,16l0,0c-1.6-1.9-2.5-4.4-2.5-7.1
		c0-6.2,5.1-11.3,11.3-11.3h4.8c4.9,0,8.9-4,8.9-8.9s-4-8.9-8.9-8.9L37.3,22.5L37.3,22.5z"/>
	<path class="st1" d="M57.7,22.5c11.2,0,20.2,9.1,20.2,20.2c0,6.5-3.1,12.3-7.8,16l0,0c1.6-1.9,2.5-4.4,2.5-7.1
		c0-6.2-5.1-11.3-11.3-11.3h-4.8c-4.9,0-8.9-4-8.9-8.9s4-8.9,8.9-8.9L57.7,22.5L57.7,22.5z"/>
	<path class="st1" d="M25,58.7l18.2,18.2c2.4,2.4,6.3,2.4,8.7,0L70,58.7"/>
	<path class="st1" d="M27.6,61.3c5.6,5.6,14.7,5.6,20.3,0l8.1-8.1c2.8-2.8,4.3-6.5,4.3-10.4v-2.5"/>
	<path class="st1" d="M48.2,61l-7.8-7.8c-2.8-2.8-4.3-6.5-4.3-10.4v-2.5"/>
</g>
</svg>
