<?xml version="1.0" encoding="utf-8"?>
<!-- Generator: Adobe Illustrator 24.3.0, SVG Export Plug-In . SVG Version: 6.00 Build 0)  -->
<svg version="1.1" id="Слой_1" xmlns="http://www.w3.org/2000/svg" xmlns:xlink="http://www.w3.org/1999/xlink" x="0px" y="0px"
	 viewBox="0 0 512 512" style="enable-background:new 0 0 512 512;" xml:space="preserve">
<style type="text/css">
	.st0{fill:none;stroke:#000000;stroke-width:15;stroke-miterlimit:10;}
</style>
<polygon class="st0" points="133,469.1 379,469.1 502,256 379,42.9 133,42.9 10,256 "/>
<g transform="translate(0.000000,512.000000) scale(0.100000,-0.100000)">
	<path d="M1369.1,3945.4c-45.1-7.7-84.4-29.6-115.3-63.8c-55.4-61.2-50.9,61.8-49-1321.3l1.9-1227.3l18-36.1
		c30.9-63.8,90.2-107.6,162.3-121.1c49.6-9,1780.7-9.7,1813.5-0.6c32.9,9,699,675.8,708.7,708.7c9,31.6,9,1837.4,0,1893.4
		c-8.4,49.6-23.2,79.9-56,112.1c-32.2,32.9-62.5,47.7-112.1,56C3691.6,3953.2,1416.8,3953.2,1369.1,3945.4z M3738.6,3802.4
		c37.4-16.8,35.4,34.8,35.4-939.3v-895.5h-252.5h-253.2l-35.4-16.8c-47-21.9-74.7-49-97.3-96l-18.7-38.7V1563v-252.5l-862.6,1.3
		l-863.3,1.9l-20,19.3c-11,10.3-22.5,29-26.4,41.9c-4.5,14.8-5.8,414.9-4.5,1209.9l1.9,1188l21.3,18.7l20.6,18.7h1169.3
		C3445.5,3810.1,3725.8,3808.2,3738.6,3802.4z M3464.8,1623l-209.4-209.4l-1.9,49.6c-1.3,27.7-1.3,112.7,0,189.4
		c1.9,129.5,3.2,141.1,14.8,154c7.1,7.7,18.7,16.8,25.8,20c7.1,2.6,95.3,5.2,196.5,5.2l183.6,0.6L3464.8,1623z"/>
</g>
</svg>
