<?xml version="1.0" encoding="UTF-8"?>
<svg xmlns="http://www.w3.org/2000/svg" xmlns:xlink="http://www.w3.org/1999/xlink" width="95px" height="95px" viewBox="0 0 95 95" version="1.1">
<g id="surface1">
<path style="fill:none;stroke-width:2.7832;stroke-linecap:butt;stroke-linejoin:miter;stroke:rgb(0%,0%,0%);stroke-opacity:1;stroke-miterlimit:1.8555;" d="M 24.699219 87 L 70.300781 87 L 93.101562 47.5 L 70.300781 8 L 24.699219 8 L 1.898438 47.5 Z M 24.699219 87 "/>
<path style="fill:none;stroke-width:3;stroke-linecap:round;stroke-linejoin:round;stroke:rgb(0%,0%,0%);stroke-opacity:1;stroke-miterlimit:66.6667;" d="M 37.300781 22.5 C 26.101562 22.5 17.101562 31.601562 17.101562 42.699219 C 17.101562 49.199219 20.199219 55 24.898438 58.699219 C 23.300781 56.800781 22.398438 54.300781 22.398438 51.601562 C 22.398438 45.398438 27.5 40.300781 33.699219 40.300781 L 38.5 40.300781 C 43.398438 40.300781 47.398438 36.300781 47.398438 31.398438 C 47.398438 26.5 43.398438 22.5 38.5 22.5 Z M 37.300781 22.5 "/>
<path style="fill:none;stroke-width:3;stroke-linecap:round;stroke-linejoin:round;stroke:rgb(0%,0%,0%);stroke-opacity:1;stroke-miterlimit:66.6667;" d="M 57.699219 22.5 C 68.898438 22.5 77.898438 31.601562 77.898438 42.699219 C 77.898438 49.199219 74.800781 55 70.101562 58.699219 C 71.699219 56.800781 72.601562 54.300781 72.601562 51.601562 C 72.601562 45.398438 67.5 40.300781 61.300781 40.300781 L 56.5 40.300781 C 51.601562 40.300781 47.601562 36.300781 47.601562 31.398438 C 47.601562 26.5 51.601562 22.5 56.5 22.5 Z M 57.699219 22.5 "/>
<path style="fill:none;stroke-width:3;stroke-linecap:round;stroke-linejoin:round;stroke:rgb(0%,0%,0%);stroke-opacity:1;stroke-miterlimit:66.6667;" d="M 25 58.699219 L 43.199219 76.898438 C 45.601562 79.300781 49.5 79.300781 51.898438 76.898438 L 70 58.699219 "/>
<path style="fill:none;stroke-width:3;stroke-linecap:round;stroke-linejoin:round;stroke:rgb(0%,0%,0%);stroke-opacity:1;stroke-miterlimit:66.6667;" d="M 27.601562 61.300781 C 33.199219 66.898438 42.300781 66.898438 47.898438 61.300781 L 56 53.199219 C 58.800781 50.398438 60.300781 46.699219 60.300781 42.800781 L 60.300781 40.300781 "/>
<path style="fill:none;stroke-width:3;stroke-linecap:round;stroke-linejoin:round;stroke:rgb(0%,0%,0%);stroke-opacity:1;stroke-miterlimit:66.6667;" d="M 48.199219 61 L 40.398438 53.199219 C 37.601562 50.398438 36.101562 46.699219 36.101562 42.800781 L 36.101562 40.300781 "/>
</g>
</svg>
