<?xml version="1.0" encoding="UTF-8"?>
<svg xmlns="http://www.w3.org/2000/svg" xmlns:xlink="http://www.w3.org/1999/xlink" width="95px" height="95px" viewBox="0 0 95 95" version="1.1">
<g id="surface1">
<path style="fill:none;stroke-width:15;stroke-linecap:butt;stroke-linejoin:miter;stroke:rgb(0%,0%,0%);stroke-opacity:1;stroke-miterlimit:10;" d="M 133.010526 469.094737 L 378.989474 469.094737 L 502 256 L 378.989474 42.905263 L 133.010526 42.905263 L 10 256 Z M 133.010526 469.094737 " transform="matrix(0.185547,0,0,0.185547,0,0)"/>
<path style=" stroke:none;fill-rule:nonzero;fill:rgb(0%,0%,0%);fill-opacity:1;" d="M 46.988281 19.21875 C 46.457031 19.3125 45.515625 19.667969 44.796875 20.015625 C 43.75 20.53125 43.339844 20.835938 42.398438 21.78125 C 41.453125 22.722656 41.152344 23.132812 40.632812 24.179688 C 39.585938 26.316406 39.34375 28.730469 39.96875 30.707031 C 40.035156 30.933594 39.410156 30.949219 29.382812 30.972656 L 18.726562 31.011719 L 17.96875 31.382812 C 17.121094 31.808594 16.496094 32.445312 16.085938 33.320312 C 15.808594 33.929688 15.808594 33.996094 15.808594 46.867188 L 15.808594 59.804688 L 16.179688 60.5625 C 16.605469 61.410156 17.242188 62.035156 18.117188 62.445312 C 18.714844 62.710938 18.914062 62.722656 26.59375 62.761719 L 34.449219 62.800781 L 34.449219 63.238281 C 34.449219 63.890625 35.019531 66.039062 35.496094 67.179688 C 36.519531 69.621094 38.667969 72.183594 40.964844 73.667969 C 42.410156 74.597656 43.683594 75.15625 45.449219 75.632812 C 46.574219 75.925781 46.988281 75.964844 48.910156 75.964844 C 50.847656 75.964844 51.246094 75.925781 52.371094 75.632812 C 54.90625 74.957031 56.9375 73.773438 58.808594 71.890625 C 60.570312 70.125 61.78125 68.175781 62.46875 66.011719 C 62.640625 65.480469 62.800781 65.054688 62.839844 65.082031 C 62.878906 65.09375 63.476562 65.386719 64.167969 65.730469 C 66.554688 66.910156 68.851562 67.058594 71.386719 66.222656 C 73.800781 65.414062 76.214844 63.171875 77.289062 60.746094 C 78.03125 59.046875 78.019531 59.285156 78.058594 49.996094 C 78.097656 43.550781 78.074219 41.28125 77.953125 41.003906 C 77.621094 40.191406 78.429688 40.230469 62.308594 40.230469 L 47.582031 40.230469 L 47.582031 37.511719 L 48.566406 37.550781 C 50.011719 37.628906 51.523438 37.285156 53.023438 36.554688 C 54.070312 36.050781 54.46875 35.761719 55.425781 34.804688 C 56.378906 33.847656 56.671875 33.453125 57.175781 32.402344 C 58.527344 29.628906 58.527344 26.949219 57.1875 24.203125 C 55.332031 20.414062 51.207031 18.382812 46.988281 19.21875 Z M 50.265625 21.808594 C 53.261719 22.429688 55.546875 25.242188 55.546875 28.296875 C 55.546875 31.839844 52.492188 34.929688 48.988281 34.929688 C 47.78125 34.929688 47.636719 34.847656 47.464844 34.066406 C 47.054688 32.25 45.382812 30.949219 43.457031 30.949219 L 42.832031 30.949219 L 42.605469 30.3125 C 41.824219 28.042969 42.472656 25.417969 44.253906 23.640625 C 45.886719 22.007812 48.0625 21.339844 50.265625 21.808594 Z M 44.253906 33.789062 C 44.453125 33.894531 44.679688 34.132812 44.773438 34.332031 C 45 34.835938 45 58.902344 44.773438 59.410156 C 44.425781 60.164062 44.933594 60.136719 31.675781 60.136719 C 22.496094 60.136719 19.375 60.097656 19.125 59.976562 C 18.367188 59.632812 18.394531 60.152344 18.394531 46.84375 C 18.40625 33.707031 18.382812 34.171875 19.074219 33.789062 C 19.5625 33.523438 43.722656 33.523438 44.253906 33.789062 Z M 60.824219 53.132812 C 60.785156 63.242188 60.773438 63.402344 60.480469 64.453125 C 60.082031 65.925781 59.140625 67.769531 58.199219 68.960938 C 56.710938 70.820312 54.285156 72.386719 51.894531 73.035156 C 50.382812 73.433594 47.4375 73.433594 45.925781 73.035156 C 42.582031 72.132812 39.742188 69.808594 38.226562 66.730469 C 37.660156 65.578125 37.101562 63.773438 37.101562 63.109375 L 37.101562 62.804688 L 40.855469 62.765625 C 44.359375 62.726562 44.636719 62.714844 45.207031 62.449219 C 46.003906 62.078125 46.867188 61.214844 47.238281 60.417969 C 47.515625 59.820312 47.515625 59.6875 47.554688 51.34375 L 47.59375 42.890625 L 60.859375 42.890625 Z M 75.421875 50.613281 C 75.382812 58.242188 75.367188 58.359375 75.074219 59.128906 C 73.988281 62.035156 71.574219 63.878906 68.617188 64.078125 C 67.289062 64.160156 66.066406 63.894531 64.832031 63.242188 C 63.28125 62.433594 63.441406 63.613281 63.480469 52.535156 L 63.507812 42.886719 L 75.460938 42.886719 Z M 75.421875 50.613281 "/>
<path style=" stroke:none;fill-rule:nonzero;fill:rgb(0%,0%,0%);fill-opacity:1;" d="M 25.027344 40.234375 L 25.027344 41.5625 L 30.335938 41.5625 L 30.335938 54.828125 L 32.988281 54.828125 L 32.988281 41.5625 L 38.296875 41.5625 L 38.296875 38.910156 L 25.027344 38.910156 Z M 25.027344 40.234375 "/>
<path style=" stroke:none;fill-rule:nonzero;fill:rgb(0%,0%,0%);fill-opacity:1;" d="M 67.289062 24.472656 C 65.191406 24.871094 63.335938 26.503906 62.550781 28.640625 C 62.140625 29.765625 62.140625 32.128906 62.550781 33.257812 C 63.414062 35.59375 65.296875 37.117188 67.753906 37.476562 C 71.058594 37.96875 73.960938 36.28125 75.074219 33.257812 C 75.488281 32.128906 75.488281 29.765625 75.074219 28.640625 C 73.910156 25.46875 70.792969 23.796875 67.289062 24.472656 Z M 70.765625 27.40625 C 71.929688 28.003906 72.648438 29.144531 72.769531 30.617188 C 72.886719 32.261719 72.144531 33.722656 70.804688 34.464844 C 70.140625 34.824219 69.96875 34.863281 68.8125 34.863281 C 67.710938 34.851562 67.472656 34.808594 66.875 34.507812 C 65.683594 33.882812 64.976562 32.753906 64.859375 31.28125 C 64.699219 29.304688 65.882812 27.554688 67.671875 27.089844 C 68.46875 26.875 70.035156 27.046875 70.765625 27.40625 Z M 70.765625 27.40625 "/>
</g>
</svg>
