<?xml version="1.0" encoding="UTF-8"?>
<svg xmlns="http://www.w3.org/2000/svg" xmlns:xlink="http://www.w3.org/1999/xlink" width="95px" height="95px" viewBox="0 0 95 95" version="1.1">
<g id="surface1">
<path style="fill:none;stroke-width:2.7832;stroke-linecap:butt;stroke-linejoin:miter;stroke:rgb(0%,0%,0%);stroke-opacity:1;stroke-miterlimit:1.8555;" d="M 24.699219 87 L 70.300781 87 L 93.101562 47.5 L 70.300781 8 L 24.699219 8 L 1.898438 47.5 Z M 24.699219 87 "/>
<path style="fill:none;stroke-width:2.2266;stroke-linecap:round;stroke-linejoin:round;stroke:rgb(0%,0%,0%);stroke-opacity:1;stroke-miterlimit:10;" d="M 20.398438 34.800781 L 63.398438 25.898438 L 68.5 28.398438 L 73.601562 28.398438 L 73.601562 74 L 63.5 76.5 L 20.5 68.898438 L 20.5 34.800781 Z M 20.398438 34.800781 "/>
<path style="fill:none;stroke-width:2.2266;stroke-linecap:round;stroke-linejoin:round;stroke:rgb(0%,0%,0%);stroke-opacity:1;stroke-miterlimit:10;" d="M 30.5 43.699219 L 50.800781 39.898438 L 50.800781 62.699219 L 30.5 58.898438 Z M 30.5 43.699219 "/>
<path style="fill:none;stroke-width:2.2266;stroke-linecap:round;stroke-linejoin:round;stroke:rgb(0%,0%,0%);stroke-opacity:1;stroke-miterlimit:10;" d="M 30.5 51.300781 L 50.800781 51.300781 "/>
<path style="fill:none;stroke-width:2.2266;stroke-linecap:round;stroke-linejoin:round;stroke:rgb(0%,0%,0%);stroke-opacity:1;stroke-miterlimit:10;" d="M 39.398438 43.199219 L 39.398438 60 "/>
<path style="fill:none;stroke-width:2.2266;stroke-linecap:round;stroke-linejoin:round;stroke:rgb(0%,0%,0%);stroke-opacity:1;stroke-miterlimit:10;" d="M 50.800781 28.601562 C 50.800781 23 46.300781 18.5 40.699219 18.5 C 35.101562 18.5 30.601562 23 30.601562 28.601562 L 30.601562 32.800781 "/>
<path style="fill:none;stroke-width:2.2266;stroke-linecap:round;stroke-linejoin:round;stroke:rgb(0%,0%,0%);stroke-opacity:1;stroke-miterlimit:10;" d="M 55.199219 27.601562 C 53.300781 22.300781 47.5 19.601562 42.199219 21.5 C 38.199219 22.898438 35.601562 26.699219 35.5 30.898438 L 35.5 31.601562 "/>
</g>
</svg>
