<?xml version="1.0" encoding="utf-8"?>
<!-- Generator: Adobe Illustrator 24.3.0, SVG Export Plug-In . SVG Version: 6.00 Build 0)  -->
<svg version="1.1" id="Слой_1" xmlns="http://www.w3.org/2000/svg" xmlns:xlink="http://www.w3.org/1999/xlink" x="0px" y="0px"
	 viewBox="0 0 512 512" style="enable-background:new 0 0 512 512;" xml:space="preserve">
<style type="text/css">
	.st0{fill:none;stroke:#000000;stroke-width:15;stroke-miterlimit:10;}
</style>
<polygon class="st0" points="133,469.1 379,469.1 502,256 379,42.9 133,42.9 10,256 "/>
<g transform="translate(0.000000,500.000000) scale(0.100000,-0.100000)">
	<path d="M2532.4,3964.2c-28.6-5-79.4-24.3-118-42.9c-56.5-27.9-78.7-44.3-129.4-95.1c-50.8-50.8-67.2-72.9-95.1-129.4
		c-56.5-115.1-69.4-245.3-35.8-351.8c3.6-12.2-30-12.9-570.6-14.3l-574.2-2.1l-40.8-20c-45.8-22.9-79.4-57.2-101.5-104.4
		c-15-32.9-15-36.5-15-730.1v-697.2l20-40.8c22.9-45.8,57.2-79.4,104.4-101.5c32.2-14.3,42.9-15,456.9-17.2l423.3-2.1v-23.6
		c0-35,30.7-150.9,56.5-212.4c55.1-131.6,170.9-269.6,294.6-349.7c77.9-50.1,146.6-80.1,241.7-105.8c60.8-15.7,83-17.9,186.6-17.9
		c104.4,0,125.9,2.1,186.6,17.9c136.6,36.5,246,100.1,346.8,201.7c95.1,95.1,160.2,200.2,197.4,316.8c9.3,28.6,17.9,51.5,20,50.1
		c2.1-0.7,34.3-16.4,71.5-35c128.7-63.6,252.4-71.5,389-26.5c130.1,43.6,260.3,164.5,318.2,295.3c40,91.5,39.3,78.7,41.5,579.2
		c2.1,347.5,0.7,469.8-5.7,484.8c-17.9,43.6,25.7,41.5-843.1,41.5h-793.7v73.7v72.9l52.9-2.1c77.9-4.3,159.5,14.3,240.3,53.6
		c56.5,27.2,77.9,42.9,129.4,94.4s67.2,72.9,94.4,129.4c72.9,149.5,72.9,293.9,0.7,441.9C2982.2,3899.8,2759.8,4009.2,2532.4,3964.2
		z M2709,3824.7c161.6-33.6,284.6-185.2,284.6-349.7c0-190.9-164.5-357.5-353.3-357.5c-65.1,0-72.9,4.3-82.2,46.5
		c-22.2,98-112.3,168-216,168h-33.6l-12.2,34.3c-42.2,122.3-7.2,263.9,88.7,359.7C2473,3814,2590.3,3849.8,2709,3824.7z
		 M2385.1,3179c10.7-5.7,22.9-18.6,27.9-29.3c12.2-27.2,12.2-1324.3,0-1351.5c-18.6-40.8,8.6-39.3-705.8-39.3
		c-494.8,0-662.9,2.1-676.5,8.6c-40.8,18.6-39.3-9.3-39.3,707.9c0.7,707.9-0.7,682.9,36.5,703.6
		C1054.3,3193.3,2356.5,3193.3,2385.1,3179z M3278.2,2136.4c-2.1-544.9-2.9-553.5-18.6-610c-21.5-79.4-72.2-178.8-123-243.1
		c-80.1-100.1-211-184.5-339.7-219.5c-81.5-21.5-240.3-21.5-321.8,0c-180.2,48.6-333.2,173.8-414.8,339.7
		c-30.7,62.2-60.8,159.5-60.8,195.2v16.4l202.4,2.1c188.8,2.1,203.8,2.9,234.5,17.2c42.9,20,89.4,66.5,109.4,109.4
		c15,32.2,15,39.3,17.2,489.1l2.1,455.5h357.5h357.5L3278.2,2136.4z M4064.8,2272.3c-2.1-411.2-2.9-417.6-18.6-459.1
		c-58.6-156.6-188.8-256-348.2-266.7c-71.5-4.3-137.3,10-203.8,45.1c-83.7,43.6-75.1-20-72.9,577.1l1.4,519.9h322.5H4067
		L4064.8,2272.3z"/>
	<path d="M1348.9,2831.5V2760h143h143v-357.5v-357.5h71.5h71.5v357.5V2760h143h143v71.5v71.5h-357.5h-357.5V2831.5z"/>
	<path d="M3626.5,3681c-113-21.5-213.1-109.4-255.3-224.5c-22.2-60.8-22.2-188.1,0-248.9c46.5-125.9,148-208.1,280.3-227.4
		c178.1-26.5,334.7,64.4,394.7,227.4c22.2,60.8,22.2,188.1,0,248.9C3983.3,3627.4,3815.3,3717.5,3626.5,3681z M3813.8,3523
		c62.9-32.2,101.5-93.7,108-173.1c6.4-88.7-33.6-167.3-105.8-207.4c-35.8-19.3-45.1-21.5-107.3-21.5c-59.4,0.7-72.2,2.9-104.4,19.3
		c-64.4,33.6-102.3,94.4-108.7,173.8c-8.6,106.5,55.1,200.9,151.6,226C3690.1,3551.6,3774.5,3542.3,3813.8,3523z"/>
</g>
</svg>
