<?xml version="1.0" encoding="UTF-8"?>
<svg xmlns="http://www.w3.org/2000/svg" xmlns:xlink="http://www.w3.org/1999/xlink" width="95px" height="95px" viewBox="0 0 95 95" version="1.1">
<g id="surface1">
<path style="fill:none;stroke-width:15;stroke-linecap:butt;stroke-linejoin:miter;stroke:rgb(0%,0%,0%);stroke-opacity:1;stroke-miterlimit:10;" d="M 133.010526 469.094737 L 378.989474 469.094737 L 502 256 L 378.989474 42.905263 L 133.010526 42.905263 L 10 256 Z M 133.010526 469.094737 " transform="matrix(0.185547,0,0,0.185547,0,0)"/>
<path style=" stroke:none;fill-rule:nonzero;fill:rgb(0%,0%,0%);fill-opacity:1;" d="M 29.644531 28.335938 C 26.582031 28.988281 23.976562 30.382812 21.859375 32.511719 C 21.332031 33.042969 20.175781 34.464844 19.296875 35.675781 C 18.40625 36.902344 17.472656 38.058594 17.222656 38.253906 C 15.382812 39.644531 13.9375 41.847656 13.253906 44.226562 C 13.03125 45.019531 13.003906 45.730469 13.003906 51.105469 C 13.003906 56.941406 13.019531 57.125 13.324219 58.210938 C 14.632812 62.722656 18.199219 65.96875 22.738281 66.761719 C 23.976562 66.984375 29.324219 66.957031 30.902344 66.707031 C 35.480469 66.011719 39.59375 63.683594 42.628906 60.035156 C 43.003906 59.589844 43.742188 58.585938 44.273438 57.808594 C 45.484375 56.011719 45.902344 55.71875 47.320312 55.664062 C 48.882812 55.589844 49.367188 55.886719 50.566406 57.640625 C 53.101562 61.375 55.371094 63.433594 58.6875 65.035156 C 61.847656 66.570312 64.007812 66.957031 68.921875 66.875 C 72.53125 66.820312 73.003906 66.75 74.800781 66.023438 C 78.003906 64.730469 80.554688 61.820312 81.609375 58.28125 C 81.902344 57.292969 81.933594 56.945312 81.988281 51.804688 C 82.042969 45.902344 81.972656 45.066406 81.332031 43.214844 C 80.675781 41.390625 79.5625 39.816406 78.03125 38.519531 C 77.558594 38.128906 76.625 37.015625 75.636719 35.664062 C 74.757812 34.4375 73.5625 32.992188 73.003906 32.433594 C 71.152344 30.59375 68.714844 29.214844 65.996094 28.464844 L 64.8125 28.128906 L 47.824219 28.101562 C 31.789062 28.070312 30.757812 28.085938 29.644531 28.335938 Z M 64.949219 30.550781 C 67.917969 31.164062 70.6875 32.878906 72.554688 35.246094 L 73.195312 36.066406 L 21.746094 36.066406 L 22.386719 35.246094 C 24.226562 32.90625 27.011719 31.175781 29.921875 30.550781 C 31.023438 30.328125 32.277344 30.300781 47.402344 30.300781 C 62.761719 30.285156 63.765625 30.300781 64.949219 30.550781 Z M 73.988281 38.667969 C 76.160156 39.546875 77.804688 41.023438 78.808594 43.015625 C 79.742188 44.882812 79.808594 45.453125 79.753906 51.59375 L 79.699219 56.957031 L 79.335938 58.070312 C 78.929688 59.253906 78.25 60.492188 77.539062 61.328125 C 76.285156 62.789062 74.144531 64.085938 72.316406 64.476562 C 71.144531 64.726562 66.132812 64.753906 64.519531 64.53125 C 59.851562 63.890625 55.6875 61.21875 52.917969 57.09375 C 51.621094 55.171875 50.964844 54.476562 49.910156 53.917969 C 49.113281 53.503906 48.988281 53.472656 47.539062 53.472656 C 46.175781 53.472656 45.925781 53.515625 45.230469 53.835938 C 44.101562 54.363281 43.417969 55.046875 42.136719 56.941406 C 40.203125 59.8125 38.03125 61.71875 35.1875 63.085938 C 32.554688 64.339844 30.675781 64.683594 26.46875 64.683594 C 23.097656 64.683594 22.207031 64.53125 20.535156 63.722656 C 18.152344 62.554688 16.46875 60.632812 15.605469 58.070312 L 15.242188 56.957031 L 15.1875 51.59375 C 15.132812 45.453125 15.203125 44.882812 16.132812 43.03125 C 17.289062 40.71875 19.253906 39.117188 21.773438 38.433594 C 22.34375 38.28125 26.789062 38.253906 47.75 38.265625 L 73.027344 38.296875 Z M 73.988281 38.667969 "/>
</g>
</svg>
