<?xml version="1.0" encoding="utf-8"?>
<!-- Generator: Adobe Illustrator 24.3.0, SVG Export Plug-In . SVG Version: 6.00 Build 0)  -->
<svg version="1.1" id="Слой_1" xmlns="http://www.w3.org/2000/svg" xmlns:xlink="http://www.w3.org/1999/xlink" x="0px" y="0px"
	 viewBox="0 0 512 512" style="enable-background:new 0 0 512 512;" xml:space="preserve">
<style type="text/css">
	.st0{fill:none;stroke:#000000;stroke-width:15;stroke-miterlimit:10;}
</style>
<polygon class="st0" points="133,469.1 379,469.1 502,256 379,42.9 133,42.9 10,256 "/>
<g transform="translate(0.000000,512.000000) scale(0.100000,-0.100000)">
	<path d="M1597.7,3592.9c-165.1-35.3-305.5-110.3-419.6-225.2c-28.5-28.5-90.8-105.1-138.1-170.4c-48-66.1-98.3-128.4-111.8-138.9
		c-99.1-75.1-177.1-193.7-213.9-322c-12-42.8-13.5-81.1-13.5-370.8c0-314.5,0.8-324.3,17.3-382.8
		c70.6-243.2,262.7-418.1,507.4-460.9c66.8-12,355-10.5,439.9,3c246.9,37.5,468.4,162.9,632,359.5c20.3,24,60,78.1,88.6,120.1
		c65.3,96.8,87.8,112.6,164.4,115.6c84.1,3.8,110.3-12,174.9-106.6c136.6-201.2,259-312.3,437.6-398.6
		c170.4-82.6,286.7-103.6,551.7-99.1c194.4,3,219.9,6.8,316.8,45.8c172.6,69.8,310,226.7,367,417.3c15.8,53.3,17.3,72.1,20.3,349
		c3,318.3-0.8,363.3-35.3,463.1c-35.3,98.3-95.3,183.1-177.9,253c-25.5,21-75.8,81.1-129.1,153.9
		c-47.3,66.1-111.8,144.1-141.9,174.1c-99.8,99.1-231.2,173.4-377.6,213.9l-63.8,18l-915.7,1.5
		C1713.3,3607.1,1657.7,3606.4,1597.7,3592.9z M3500.5,3473.5c159.9-33,309.2-125.4,409.8-253l34.5-44.3H2558.5H1172.1l34.5,44.3
		c99.1,126.1,249.2,219.2,406.1,253c59.3,12,126.9,13.5,942,13.5C3382.6,3487.8,3436.7,3487,3500.5,3473.5z M3987.6,3035.9
		c117.1-47.3,205.7-126.9,259.7-234.2c50.3-100.6,54-131.4,51-462.4l-3-289l-19.5-60c-21.8-63.8-58.5-130.6-96.8-175.6
		c-67.6-78.8-183.1-148.6-281.5-169.6c-63.1-13.5-333.3-15-420.3-3c-251.5,34.5-475.9,178.6-625.3,400.8
		c-69.8,103.6-105.1,141.1-162.1,171.1c-42.8,22.5-49.5,24-127.6,24c-73.6,0-87.1-2.3-124.6-19.5c-60.8-28.5-97.6-65.3-166.6-167.4
		c-104.3-154.6-221.4-257.5-374.6-331c-141.9-67.6-243.2-86.3-469.9-86.3c-181.6,0-229.7,8.3-319.8,51.8
		c-128.4,63.1-219.2,166.6-265.7,304.7l-19.5,60l-3,289c-3,331,0.8,361.8,51,461.6c62.3,124.6,168.1,210.9,304,247.7
		c30.8,8.3,270.2,9.8,1399.9,9l1362.3-1.5L3987.6,3035.9z"/>
</g>
</svg>
