<?xml version="1.0" encoding="UTF-8"?>
<svg xmlns="http://www.w3.org/2000/svg" xmlns:xlink="http://www.w3.org/1999/xlink" width="95px" height="95px" viewBox="0 0 95 95" version="1.1">
<g id="surface1">
<path style="fill:none;stroke-width:15;stroke-linecap:butt;stroke-linejoin:miter;stroke:rgb(0%,0%,0%);stroke-opacity:1;stroke-miterlimit:10;" d="M 133.010526 469.094737 L 378.989474 469.094737 L 502 256 L 378.989474 42.905263 L 133.010526 42.905263 L 10 256 Z M 133.010526 469.094737 " transform="matrix(0.185547,0,0,0.185547,0,0)"/>
<path style=" stroke:none;fill-rule:nonzero;fill:rgb(0%,0%,0%);fill-opacity:1;" d="M 46.46875 17.148438 C 39.160156 17.367188 31.933594 20.414062 26.574219 25.550781 C 21.4375 30.46875 18.289062 36.679688 17.34375 43.714844 C 17.101562 45.5625 17.101562 49.484375 17.34375 51.332031 C 18.222656 57.875 21.023438 63.761719 25.53125 68.449219 C 30.449219 73.585938 36.65625 76.738281 43.691406 77.679688 C 45.539062 77.925781 49.464844 77.925781 51.308594 77.679688 C 57.054688 76.921875 62.539062 74.53125 66.867188 70.914062 C 72.828125 65.945312 76.625 59.039062 77.65625 51.332031 C 77.902344 49.449219 77.902344 45.550781 77.644531 43.714844 C 76.84375 37.960938 74.804688 33.132812 71.265625 28.574219 C 70.75 27.914062 70.246094 27.335938 70.15625 27.308594 C 70.054688 27.269531 67.71875 28.859375 64.8125 30.949219 L 59.664062 34.667969 L 60.164062 35.390625 C 60.4375 35.777344 60.796875 36.257812 60.953125 36.449219 L 61.25 36.8125 L 65.351562 33.84375 C 67.613281 32.203125 69.496094 30.875 69.546875 30.875 C 69.640625 30.875 70.953125 32.8125 71.613281 33.921875 C 72.414062 35.277344 73.511719 37.847656 74.054688 39.589844 C 77.035156 49.347656 74.296875 60.023438 66.980469 67.242188 C 63.828125 70.339844 60.292969 72.507812 56.175781 73.863281 C 50.363281 75.761719 44.632812 75.761719 38.824219 73.863281 C 30.496094 71.125 23.898438 64.53125 21.164062 56.203125 C 19.265625 50.394531 19.265625 44.660156 21.164062 38.851562 C 24.882812 27.492188 35.59375 19.757812 47.613281 19.773438 C 52.378906 19.773438 57.632812 21.230469 61.621094 23.632812 C 62.214844 23.992188 62.746094 24.289062 62.796875 24.289062 C 62.9375 24.289062 65.082031 22.714844 65.015625 22.664062 C 64.695312 22.339844 62.175781 20.867188 60.847656 20.222656 C 56.40625 18.050781 51.515625 17.007812 46.46875 17.148438 Z M 46.46875 17.148438 "/>
<path style=" stroke:none;fill-rule:nonzero;fill:rgb(0%,0%,0%);fill-opacity:1;" d="M 45.308594 35.84375 C 39.667969 36.976562 35.625 41.859375 35.625 47.523438 C 35.625 54.042969 40.980469 59.402344 47.5 59.402344 C 54.023438 59.402344 59.378906 54.042969 59.378906 47.523438 C 59.378906 40.953125 53.96875 35.59375 47.398438 35.660156 C 46.699219 35.660156 45.769531 35.75 45.308594 35.84375 Z M 49.925781 38.628906 C 53.941406 39.699219 56.703125 43.316406 56.703125 47.523438 C 56.703125 52.675781 52.652344 56.730469 47.5 56.730469 C 43.949219 56.730469 40.824219 54.804688 39.226562 51.628906 C 37.289062 47.785156 38.425781 42.800781 41.84375 40.230469 C 44.261719 38.410156 47.0625 37.855469 49.925781 38.628906 Z M 49.925781 38.628906 "/>
<path style=" stroke:none;fill-rule:nonzero;fill:rgb(0%,0%,0%);fill-opacity:1;" d="M 46.222656 42.4375 C 43.589844 43.148438 41.832031 45.769531 42.3125 48.300781 C 42.855469 51.230469 45.566406 53.21875 48.316406 52.714844 C 51.195312 52.171875 53.195312 49.449219 52.691406 46.75 C 52.289062 44.542969 50.84375 42.980469 48.726562 42.425781 C 47.796875 42.195312 47.140625 42.195312 46.222656 42.4375 Z M 48.945312 45.316406 C 49.761719 45.882812 50.019531 46.398438 50.019531 47.523438 C 50.019531 48.351562 49.964844 48.582031 49.707031 48.96875 C 49.140625 49.78125 48.625 50.039062 47.5 50.039062 C 46.375 50.039062 45.859375 49.78125 45.304688 48.96875 C 44.941406 48.453125 44.816406 47.265625 45.035156 46.59375 C 45.214844 46.066406 45.859375 45.367188 46.402344 45.109375 C 47.023438 44.839844 48.402344 44.941406 48.945312 45.316406 Z M 48.945312 45.316406 "/>
</g>
</svg>
