<?xml version="1.0" encoding="utf-8"?>
<!-- Generator: Adobe Illustrator 24.3.0, SVG Export Plug-In . SVG Version: 6.00 Build 0)  -->
<svg version="1.1" id="Слой_1" xmlns="http://www.w3.org/2000/svg" xmlns:xlink="http://www.w3.org/1999/xlink" x="0px" y="0px"
	 viewBox="0 0 512 512" style="enable-background:new 0 0 512 512;" xml:space="preserve">
<style type="text/css">
	.st0{fill:none;stroke:#000000;stroke-width:15;stroke-miterlimit:10;}
</style>
<polygon class="st0" points="133,469.1 379,469.1 502,256 379,42.9 133,42.9 10,256 "/>
<g transform="translate(0.000000,512.000000) scale(0.100000,-0.100000)">
	<path d="M2504.4,4195.8c-393.8-11.8-783.4-176-1072.1-452.9c-276.9-265.1-446.7-599.7-497.5-978.9c-13.2-99.5-13.2-311,0-410.5
		c47.3-352.7,198.3-670,441.1-922.6c265.1-276.9,599.7-446.7,978.9-497.5c99.5-13.2,311-13.2,410.5,0
		c309.6,41,605.3,169.8,838.4,364.6c321.4,267.9,526,640.1,581.6,1055.4c13.2,101.6,13.2,311.7-0.7,410.5
		c-43.1,310.3-153.1,570.5-343.7,816.1c-27.8,35.5-55,66.8-59.8,68.2c-5.6,2.1-131.5-83.5-288-196.2l-277.6-200.4l27.1-39
		c14.6-20.9,34.1-46.6,42.4-57.1l16-19.5l221.2,160c121.8,88.4,223.3,160,226.1,160c4.9,0,75.8-104.4,111.3-164.2
		c43.1-73.1,102.3-211.5,131.5-305.4c160.7-526,13.2-1101.4-381.3-1490.3c-169.8-167-360.4-283.9-582.3-356.9
		c-313.1-102.3-622-102.3-935.1,0c-448.8,147.5-804.3,503-951.8,951.8c-102.3,313.1-102.3,622,0,935.1
		c200.4,612.3,777.8,1029,1425.6,1028.3c256.7,0,539.9-78.6,754.9-208c32-19.5,60.5-35.5,63.3-35.5c7.7,0,123.1,84.9,119.7,87.7
		c-17.4,17.4-153.1,96.7-224.7,131.5C3040.1,4147.1,2776.4,4203.4,2504.4,4195.8z"/>
	<path d="M2441.8,3188.3c-304-61.2-521.8-324.2-521.8-629.6c0-351.3,288.7-640.1,640.1-640.1s640.1,288.7,640.1,640.1
		c0,354.1-291.5,642.9-645.6,639.4C2516.9,3198.1,2466.8,3193.2,2441.8,3188.3z M2690.8,3038.1c216.4-57.7,365.3-252.6,365.3-479.4
		c0-277.6-218.5-496.1-496.1-496.1c-191.3,0-359.7,103.7-446,274.8c-104.4,207.3-43.1,475.9,141.2,614.3
		C2385.4,3049.9,2536.4,3079.8,2690.8,3038.1z"/>
	<path d="M2491.2,2832.8c-141.9-38.3-236.6-179.5-210.8-315.9c29.2-157.9,175.3-265.1,323.5-237.9c155.2,29.2,263,176,235.9,321.4
		c-21.6,119-99.5,203.2-213.6,233.1C2576,2846,2540.6,2846,2491.2,2832.8z M2638,2677.7c43.8-30.6,57.7-58.4,57.7-119
		c0-44.5-2.8-57.1-16.7-77.9c-30.6-43.8-58.4-57.7-119-57.7s-88.4,13.9-118.3,57.7c-19.5,27.8-26.4,91.8-14.6,128
		c9.7,28.5,44.5,66.1,73.7,80C2534.3,2703.4,2608.7,2697.8,2638,2677.7z"/>
</g>
</svg>
