<?xml version="1.0" encoding="UTF-8"?>
<svg xmlns="http://www.w3.org/2000/svg" xmlns:xlink="http://www.w3.org/1999/xlink" width="95px" height="95px" viewBox="0 0 95 95" version="1.1">
<g id="surface1">
<path style="fill:none;stroke-width:15;stroke-linecap:butt;stroke-linejoin:miter;stroke:rgb(0%,0%,0%);stroke-opacity:1;stroke-miterlimit:10;" d="M 133.010526 469.094737 L 378.989474 469.094737 L 502 256 L 378.989474 42.905263 L 133.010526 42.905263 L 10 256 Z M 133.010526 469.094737 " transform="matrix(0.185547,0,0,0.185547,0,0)"/>
<path style="fill:none;stroke-width:8;stroke-linecap:butt;stroke-linejoin:miter;stroke:rgb(12.156863%,12.941176%,16.862745%);stroke-opacity:1;stroke-miterlimit:20;" d="M 150.989474 65.6 L 288.505263 435.494737 L 360 442.505263 L 222.505263 66.4 Z M 150.989474 65.6 " transform="matrix(0.185547,0,0,0.185547,0,0)"/>
<path style="fill:none;stroke-width:8;stroke-linecap:butt;stroke-linejoin:miter;stroke:rgb(12.156863%,12.941176%,16.862745%);stroke-opacity:1;stroke-miterlimit:20;" d="M 288.505263 247.410526 C 287.705263 245.094737 288.505263 66.294737 288.505263 66.294737 L 360 67.094737 L 361.810526 446.294737 " transform="matrix(0.185547,0,0,0.185547,0,0)"/>
<path style="fill:none;stroke-width:8;stroke-linecap:butt;stroke-linejoin:miter;stroke:rgb(12.156863%,12.941176%,16.862745%);stroke-opacity:1;stroke-miterlimit:20;" d="M 220.905263 252.105263 L 220.905263 434.694737 L 150.189474 441.705263 L 150.989474 65.6 " transform="matrix(0.185547,0,0,0.185547,0,0)"/>
<path style="fill:none;stroke-width:8;stroke-linecap:round;stroke-linejoin:miter;stroke:rgb(12.156863%,12.941176%,16.862745%);stroke-opacity:1;stroke-miterlimit:20;" d="M 172.189474 421.010526 L 172.189474 305.494737 " transform="matrix(0.185547,0,0,0.185547,0,0)"/>
<path style="fill:none;stroke-width:8;stroke-linecap:round;stroke-linejoin:miter;stroke:rgb(12.156863%,12.941176%,16.862745%);stroke-opacity:1;stroke-miterlimit:20;" d="M 339.494737 313.2 L 339.494737 166.610526 " transform="matrix(0.185547,0,0,0.185547,0,0)"/>
<path style="fill:none;stroke-width:8;stroke-linecap:round;stroke-linejoin:miter;stroke:rgb(12.156863%,12.941176%,16.862745%);stroke-opacity:1;stroke-miterlimit:20;" d="M 171.705263 284.8 L 171.705263 253.705263 " transform="matrix(0.185547,0,0,0.185547,0,0)"/>
<path style="fill:none;stroke-width:8;stroke-linecap:round;stroke-linejoin:miter;stroke:rgb(12.156863%,12.941176%,16.862745%);stroke-opacity:1;stroke-miterlimit:20;" d="M 339.494737 145.894737 L 339.494737 87.894737 " transform="matrix(0.185547,0,0,0.185547,0,0)"/>
<path style="fill:none;stroke-width:8;stroke-linecap:round;stroke-linejoin:miter;stroke:rgb(12.156863%,12.941176%,16.862745%);stroke-opacity:1;stroke-miterlimit:20;" d="M 171.705263 234 L 171.705263 174.4 " transform="matrix(0.185547,0,0,0.185547,0,0)"/>
</g>
</svg>
