<?xml version="1.0" encoding="UTF-8"?>
<svg id="_Слой_1" data-name="Слой_1" xmlns="http://www.w3.org/2000/svg" version="1.1" viewBox="0 0 95 95">
  <!-- Generator: Adobe Illustrator 29.1.0, SVG Export Plug-In . SVG Version: 2.1.0 Build 142)  -->
  <defs>
    <style>
      .st0 {
        stroke-miterlimit: 1.9;
        stroke-width: 2.8px;
      }

      .st0, .st1, .st2 {
        fill: none;
        stroke: #000;
      }

      .st1 {
        stroke-width: 2.5px;
      }

      .st1, .st2 {
        stroke-miterlimit: 10;
      }

      .st2 {
        stroke-width: 1.5px;
      }
    </style>
  </defs>
  <path class="st0" d="M24.7,87h45.6l22.8-39.5L70.3,8H24.7L1.9,47.5l22.8,39.5Z"/>
  <g>
    <path d="M23.8,54.5c.1,0,.3,0,.4,0q.2,0,.4,0t.4,0c.3,0,.6,0,.9,0,.4,0,.8,0,1.1,0,.4,0,.7,0,1.1,0,.1,0,.3,0,.4,0,1.1,0,1.9.3,2.8,1.1.6.7,1,1.5,1,2.4,0,.1,0,.3,0,.4,0,.1,0,.3,0,.4,0,.2,0,.3,0,.5,0,.4,0,.8,0,1.2,0,.3,0,.5,0,.8,0,.9,0,1.8,0,2.7,0,.8,0,1.7,0,2.5,0,.7,0,1.4,0,2.2,0,.4,0,.9,0,1.3,0,.4,0,.8,0,1.2,0,.2,0,.4,0,.6,0,1.1-.3,2.1-1,3-.7.6-1.4.9-2.3,1-.1,0-.3,0-.4,0-.1,0-.3,0-.4,0q-.2,0-.4,0c-.3,0-.6,0-.9,0-.4,0-.8,0-1.1,0-.4,0-.7,0-1.1,0-.1,0-.3,0-.4,0-1.2,0-2.1-.3-3-1.2-.5-.7-.8-1.4-.8-2.2,0-.1,0-.3,0-.4,0-.1,0-.3,0-.4,0-.2,0-.3,0-.5,0-.4,0-.8,0-1.3,0-.3,0-.5,0-.8,0-.9,0-1.8,0-2.7,0-.8,0-1.7,0-2.5,0-.7,0-1.5,0-2.2,0-.4,0-.9,0-1.3,0-.4,0-.8,0-1.2,0-.2,0-.4,0-.7,0-1.1.2-2,1-2.8.7-.6,1.4-1,2.4-1ZM23.2,57.3c-.2.4-.2.6-.2,1,0,.1,0,.2,0,.4,0,.1,0,.3,0,.4,0,.1,0,.3,0,.4,0,.4,0,.8,0,1.2,0,.3,0,.7,0,1,0,.8,0,1.5,0,2.3,0,.8,0,1.6,0,2.4,0,.7,0,1.4,0,2,0,.4,0,.8,0,1.2,0,.5,0,.9,0,1.4,0,.1,0,.3,0,.4,0,.1,0,.2,0,.4,0,.1,0,.2,0,.3,0,.4.2.6.4.8.3.2.6.2,1,.3.1,0,.2,0,.3,0,.1,0,.2,0,.3,0,.1,0,.2,0,.4,0,.2,0,.5,0,.7,0,.4,0,.8,0,1.1,0,.2,0,.5,0,.7,0q.2,0,.3,0,.7,0,1.3-.3c.4-.4.4-.7.4-1.2,0-.1,0-.2,0-.4,0-.1,0-.3,0-.4,0-.1,0-.3,0-.4,0-.4,0-.8,0-1.2,0-.2,0-.5,0-.7,0-.8,0-1.5,0-2.3,0-.9,0-1.7,0-2.6,0-.7,0-1.3,0-2,0-.4,0-.8,0-1.2,0-.4,0-.9,0-1.3,0-.1,0-.3,0-.4,0-.1,0-.2,0-.4,0-.1,0-.2,0-.3,0-.4-.3-.7-.6-1-.3-.2-.4-.2-.8-.2-.1,0-.2,0-.3,0q-.2,0-.3,0c-.1,0-.2,0-.4,0-.2,0-.5,0-.7,0-.4,0-.8,0-1.1,0-.2,0-.5,0-.7,0-.1,0-.2,0-.3,0q-.8,0-1.4.4Z"/>
    <path d="M66,19.4c.1,0,.3,0,.4,0q.2,0,.4,0t.4,0c.3,0,.6,0,.9,0,.4,0,.8,0,1.1,0,.4,0,.7,0,1.1,0,.1,0,.3,0,.4,0,1.1,0,1.9.3,2.8,1.1.7.8,1,1.6,1,2.7,0,0,0,.2,0,.3,0,.3,0,.6,0,.9,0,.2,0,.4,0,.7,0,.6,0,1.2,0,1.8,0,.4,0,.7,0,1.1,0,1.3,0,2.6,0,3.9,0,1.2,0,2.4,0,3.6,0,1,0,2.1,0,3.1,0,.6,0,1.2,0,1.9,0,.6,0,1.2,0,1.7,0,.2,0,.4,0,.6,0,.3,0,.6,0,.9,0,0,0,.2,0,.3,0,.6-.2.9-.6,1.3-.4.2-.7.2-1.1.1-.3-.2-.6-.4-.8-.8,0-.3,0-.6,0-.8,0,0,0-.2,0-.3,0-.3,0-.6,0-.9,0-.2,0-.4,0-.6,0-.5,0-.9,0-1.4,0-.7,0-1.5,0-2.2,0-2.1,0-4.1,0-6.2,0-1.1,0-2.3,0-3.4,0-.6,0-1.2,0-1.8,0-.6,0-1.1,0-1.7,0-.2,0-.4,0-.6,0-.3,0-.6,0-.9,0,0,0-.2,0-.3,0-.5,0-.8-.4-1.2-.4-.2-.4-.2-.9-.2-.1,0-.2,0-.3,0q-.2,0-.3,0c-.1,0-.2,0-.4,0-.2,0-.5,0-.7,0-.4,0-.8,0-1.1,0-.2,0-.5,0-.7,0-.1,0-.2,0-.3,0-.1,0-.2,0-.3,0,0,0-.2,0-.3,0-.3,0-.5,0-.7.2-.2.4-.2.7-.2,1.1,0,.1,0,.3,0,.4,0,.2,0,.3,0,.5,0,.2,0,.3,0,.5,0,.4,0,.7,0,1.1,0,.6,0,1.1,0,1.7,0,1.4,0,2.8,0,4.2,0,1.1,0,2.2,0,3.3,0,.6,0,1.1,0,1.7,0,.4,0,.7,0,1.1,0,.2,0,.3,0,.5,0,.2,0,.4,0,.7,0,.1,0,.2,0,.4,0,.5-.2.7-.5,1.1-.3.2-.6.2-1,.2-.4,0-.6-.2-.8-.5-.2-.3-.1-.6-.1-.9,0,0,0-.1,0-.2,0-.2,0-.5,0-.7,0-.2,0-.3,0-.5,0-.6,0-1.1,0-1.7,0-.2,0-.4,0-.6,0-.9,0-1.8,0-2.8,0-1.1,0-2.1,0-3.2,0-.8,0-1.6,0-2.5,0-.5,0-1,0-1.5,0-.5,0-.9,0-1.4,0-.2,0-.3,0-.5,0-1.2,0-2.3,1-3.2.7-.6,1.4-1,2.4-1Z"/>
    <path d="M38.1,45.1q.2,0,.3,0c.1,0,.2,0,.4,0q.2,0,.4,0c.3,0,.5,0,.8,0,.3,0,.5,0,.8,0,.4,0,.8,0,1.2,0,.1,0,.2,0,.4,0,1.2,0,2.2.3,3.1,1.2.4.5.6,1,.6,1.6,0,.4-.2.5-.5.8-.3.2-.5.2-.9.2-.5-.1-.6-.3-.9-.7q0-.2-.1-.3c-.6-.2-1.2-.3-1.8-.3q-.2,0-.3,0c-.2,0-.4,0-.6,0-.3,0-.7,0-1,0-.2,0-.4,0-.6,0,0,0-.2,0-.3,0-.6,0-1,0-1.6.4-.3.4-.3.8-.2,1.3,0,0,0,.2,0,.3,0,.3,0,.7,0,1,0,.2,0,.5,0,.7,0,.6,0,1.3,0,1.9,0,.7,0,1.3,0,2,0,1.1,0,2.3,0,3.4,0,1.3,0,2.6,0,3.9,0,1.1,0,2.2,0,3.4,0,.7,0,1.3,0,2,0,.6,0,1.3,0,1.9,0,.2,0,.5,0,.7,0,.3,0,.6,0,.9,0,0,0,.2,0,.3q0,.6.2,1.1c.3.2.6.2,1,.3.1,0,.2,0,.3,0,.1,0,.2,0,.3,0,.1,0,.2,0,.4,0,.2,0,.5,0,.7,0,.4,0,.8,0,1.1,0,.2,0,.5,0,.7,0q.2,0,.3,0t1.2-.3c0,0,.1-.2.2-.2q.6-.6,1.1-.7c.5,0,.7.2,1.1.6.2.4.2.8.1,1.2-.4.8-1.2,1.5-2,1.8-.6.1-1.2.1-1.7.1-.1,0-.3,0-.4,0-.3,0-.6,0-.9,0-.4,0-.8,0-1.1,0-.4,0-.7,0-1.1,0q-.2,0-.4,0c-1.1,0-2-.2-2.8-1-.7-.8-1-1.7-1-2.8,0-.1,0-.2,0-.3,0-.3,0-.7,0-1,0-.2,0-.5,0-.7,0-.7,0-1.3,0-2,0-.4,0-.8,0-1.3,0-1.2,0-2.3,0-3.5,0,0,0-.1,0-.2q0-.1,0-.2c0-.2,0-.3,0-.5,0,0,0-.1,0-.2,0-1.2,0-2.4,0-3.6,0-1.2,0-2.5,0-3.7,0-.7,0-1.4,0-2.1,0-.7,0-1.3,0-2,0-.2,0-.5,0-.7q0-2.6,1-3.7c.7-.7,1.7-1.1,2.7-1.1Z"/>
    <path d="M52.2,31c.1,0,.2,0,.3,0q.2,0,.4,0c.1,0,.2,0,.4,0,.3,0,.5,0,.8,0,.4,0,.8,0,1.2,0,.3,0,.5,0,.8,0q.2,0,.4,0c1.2,0,2.2.2,3.1,1,.9,1,1,1.9,1,3.2q0,.2,0,.4c0,.3,0,.5,0,.8,0,.4,0,.8,0,1.2,0,.3,0,.5,0,.8,0,.1,0,.2,0,.4,0,.7,0,1.1-.5,1.6-.4.2-.9.2-1.3.1-.3-.2-.5-.4-.7-.8,0-.2,0-.3,0-.5,0-.1,0-.2,0-.3q0-.2,0-.3c0-.2,0-.5,0-.7,0-.4,0-.7,0-1.1,0-.4,0-.7,0-1.1,0-.1,0-.2,0-.3q0-.8-.3-1.5c-.6-.3-1.2-.3-1.8-.3q-.2,0-.3,0c-.2,0-.4,0-.6,0-.3,0-.7,0-1,0-.2,0-.4,0-.6,0,0,0-.2,0-.3,0-.6,0-1,0-1.6.4-.3.4-.3.7-.2,1.2q0,.1,0,.3c0,.2,0,.4,0,.6,0,.3,0,.6,0,.9,0,.8,0,1.7,0,2.5,0,.5,0,1,0,1.5,0,.2,0,.4,0,.6,0,.3,0,.5,0,.8q0,.1,0,.2c0,.6-.2.9-.5,1.4-.3.2-.6.2-1,.2-.4,0-.6-.2-.8-.5-.2-.3-.1-.7-.1-1.1,0,0,0-.2,0-.3,0-.3,0-.6,0-.9,0-.1,0-.2,0-.3,0-.6,0-1.1,0-1.7,0-.5,0-.9,0-1.4,0-.6,0-1.1,0-1.7,0-.2,0-.4,0-.6,0-1.3,0-2.4.9-3.5.7-.7,1.6-1.1,2.6-1.1Z"/>
  </g>
  <circle class="st1" cx="60.4" cy="60.3" r="16.1"/>
  <path class="st2" d="M69.6,58.6h-7.4v-7.4c0-.7-.5-1.2-1.2-1.2h-1.1c-.7,0-1.2.5-1.2,1.2v7.4h-7.4c-.7,0-1.2.5-1.2,1.2v1.1c0,.7.5,1.2,1.2,1.2h7.4v7.4c0,.7.5,1.2,1.2,1.2h1.1c.7,0,1.2-.5,1.2-1.2v-7.4h7.4c.7,0,1.2-.5,1.2-1.2v-1.1c0-.7-.5-1.2-1.2-1.2Z"/>
</svg>