<?xml version="1.0" encoding="utf-8"?>
<!-- Generator: Adobe Illustrator 24.3.0, SVG Export Plug-In . SVG Version: 6.00 Build 0)  -->
<svg version="1.1" id="Слой_1" xmlns="http://www.w3.org/2000/svg" xmlns:xlink="http://www.w3.org/1999/xlink" x="0px" y="0px"
	 viewBox="0 0 512 512" style="enable-background:new 0 0 512 512;" xml:space="preserve">
<style type="text/css">
	.st0{fill:none;stroke:#000000;stroke-width:15;stroke-miterlimit:10;}
</style>
<polygon class="st0" points="133,469.1 379,469.1 502,256 379,42.9 133,42.9 10,256 "/>
<g transform="translate(0.000000,500.000000) scale(0.100000,-0.100000)">
	<path d="M2563.4,3655.6c-81.4-14.5-164.3-45.8-244.3-93.1c-106.1-62.5-160.7-112.7-263.9-239.9l-21.8-26.9l-47.3,14.5
		c-56,17.4-170.1,36.4-222.5,36.4c-58.9,0-157.8-19.6-218.8-44.3c-234.8-92.3-398.4-316.3-414.4-567.8l-4.4-69.8l-49.4-16
		c-143.2-46.5-259.5-154.1-339.5-312.6c-18.9-38.5-19.6-45.8-21.8-166.5c-2.9-141.8,1.5-167.9,40-244.3
		c72-141.8,181-243.6,313.3-292.3c59.6-22.5,170.1-30.5,421.7-30.5l170.1-0.7l37.1-33.4c48.7-42.9,156.3-96,212.3-104.7
		c26.9-4.4,458-7.3,1105.8-7.3h1062.2l46.5,23.3c64.7,32.7,143.2,112,172.3,173.8c39.3,82.2,48.7,129.4,48.7,242.8
		c0,88-2.2,109.1-17.4,154.9c-40,122.1-125,211.6-255.2,268.3l-54.5,23.3l-5.8,53.1c-7.3,64.7-38.5,159.2-71.2,214.5
		c-35.6,59.6-111.2,137.4-172.3,177.4c-53.8,35.6-143.2,74.2-192.7,82.9c-19.6,3.6-27.6,9.5-29.8,21.1
		c-24.7,127.2-53.1,218.8-96.7,306.1c-66.9,134.5-167.9,249.4-291.5,330.8c-138.1,91.6-261,130.1-430.4,134.5
		C2656.5,3665,2603.4,3662.9,2563.4,3655.6z M2876.8,3499.3c243.6-65.4,421.7-250.1,498-515.5c29.1-101.8,29.8-99.6-16-105.4
		c-21.1-2.9-62.5-11.6-91.6-19.6l-53.1-14.5l-54.5,49.4c-94.5,86.5-128.7,111.2-195.6,144c-85.1,40.7-140.3,53.8-247.2,59.6
		c-146.1,7.3-251.6-13.8-373.7-72.7c-145.4-71.2-273.4-245-329.3-447.1l-16.7-60.3l-82.9-25.4c-186.1-58.2-293.7-141-357.7-275.5
		c-30.5-64-42.9-122.9-42.9-207.9c0-66.9,16.7-167.2,36.4-219.6c8-20.4,14.5-38.5,14.5-39.3c0-3.6-170.1-1.5-295.2,4.4l-125,5.1
		l-56.7,28.4c-72,34.9-161.4,122.1-199.2,192.7l-25.4,47.3v123.6v123.6l32,52.3c58.2,94.5,134.5,153.4,244.3,188.3
		c70.5,22.5,102.5,41.4,117.1,69.8c6.5,12.4,13.8,56.7,18.2,105.4c8.7,106.9,21.8,158.5,61.8,234.8
		c56.7,109.8,146.1,191.2,263.2,240.6c49.4,20.4,66.2,24,138.9,26.9c95.2,3.6,157-5.1,245-35.6c91.6-31.3,115.6-21.1,199.2,88
		c103.2,135.2,247.2,231.2,396.2,264.6C2650,3525.5,2798.3,3520.4,2876.8,3499.3z M2857.2,2932.9c69.1-23.3,97.4-44.3,205.7-150.5
		c79.2-77.8,103.2-97.4,119.2-97.4c10.9,0,51.6,10.2,89.4,21.8c170.9,55.3,303.9,42.2,426-41.4c106.1-72.7,162.9-180.3,175.2-336.6
		c2.9-33.4,9.5-70.5,15.3-80.7c9.5-18.9,41.4-34.9,104.7-53.8c42.9-12.4,105.4-52.3,138.1-88.7c53.8-58.9,68.3-103.2,69.1-209.4
		c0-73.4-2.9-95.2-16.7-136.7c-21.1-60.3-52.3-103.2-99.6-134.5l-35.6-24l-1062.2,2.2l-1061.5,2.2l-56.7,26.9
		c-61.8,29.8-125,84.3-153.4,132.3c-37.1,64-51.6,130.1-51.6,240.6c0,101.1,0,101.8,24.7,151.2c48,96,138.1,157.8,291.5,202.1
		c126.5,36.4,147.6,56.7,173,165c47.3,202.1,178.8,355.5,354.1,410.8c53.8,17.4,69.8,18.9,192.7,16
		C2791,2948.9,2819.4,2945.3,2857.2,2932.9z"/>
</g>
</svg>
