<?xml version="1.0" encoding="UTF-8"?>
<svg xmlns="http://www.w3.org/2000/svg" xmlns:xlink="http://www.w3.org/1999/xlink" width="95px" height="95px" viewBox="0 0 95 95" version="1.1">
<g id="surface1">
<path style="fill:none;stroke-width:15;stroke-linecap:butt;stroke-linejoin:miter;stroke:rgb(0%,0%,0%);stroke-opacity:1;stroke-miterlimit:10;" d="M 133.010526 469.094737 L 378.989474 469.094737 L 502 256 L 378.989474 42.905263 L 133.010526 42.905263 L 10 256 Z M 133.010526 469.094737 " transform="matrix(0.185547,0,0,0.185547,0,0)"/>
<path style=" stroke:none;fill-rule:nonzero;fill:rgb(0%,0%,0%);fill-opacity:1;" d="M 47.5625 24.945312 C 46.054688 25.214844 44.515625 25.792969 43.03125 26.671875 C 41.0625 27.832031 40.046875 28.761719 38.132812 31.125 L 37.730469 31.621094 L 36.851562 31.355469 C 35.8125 31.03125 33.695312 30.679688 32.722656 30.679688 C 31.628906 30.679688 29.796875 31.042969 28.664062 31.5 C 24.304688 33.214844 21.269531 37.371094 20.972656 42.035156 L 20.890625 43.332031 L 19.976562 43.628906 C 17.320312 44.492188 15.160156 46.488281 13.675781 49.429688 C 13.324219 50.140625 13.3125 50.277344 13.273438 52.515625 C 13.21875 55.148438 13.300781 55.632812 14.015625 57.050781 C 15.351562 59.679688 17.371094 61.570312 19.828125 62.472656 C 20.933594 62.890625 22.984375 63.039062 27.652344 63.039062 L 30.808594 63.050781 L 31.496094 63.671875 C 32.398438 64.46875 34.398438 65.453125 35.4375 65.613281 C 35.933594 65.695312 43.933594 65.75 55.953125 65.75 L 75.664062 65.75 L 76.523438 65.316406 C 77.726562 64.710938 79.183594 63.238281 79.722656 62.09375 C 80.453125 60.566406 80.625 59.691406 80.625 57.589844 C 80.625 55.957031 80.585938 55.5625 80.304688 54.714844 C 79.5625 52.449219 77.984375 50.789062 75.566406 49.734375 L 74.554688 49.304688 L 74.449219 48.316406 C 74.3125 47.117188 73.734375 45.363281 73.128906 44.339844 C 72.46875 43.234375 71.0625 41.789062 69.929688 41.046875 C 68.933594 40.386719 67.273438 39.671875 66.355469 39.507812 C 65.992188 39.441406 65.84375 39.332031 65.800781 39.117188 C 65.34375 36.757812 64.816406 35.058594 64.007812 33.4375 C 62.765625 30.941406 60.894531 28.808594 58.597656 27.300781 C 56.035156 25.601562 53.757812 24.886719 50.613281 24.804688 C 49.289062 24.769531 48.304688 24.808594 47.5625 24.945312 Z M 53.378906 27.84375 C 57.898438 29.058594 61.203125 32.484375 62.617188 37.410156 C 63.160156 39.296875 63.171875 39.257812 62.320312 39.367188 C 61.929688 39.417969 61.160156 39.582031 60.621094 39.730469 L 59.636719 40 L 58.625 39.082031 C 56.871094 37.476562 56.238281 37.019531 54.996094 36.410156 C 53.417969 35.65625 52.394531 35.410156 50.410156 35.304688 C 47.699219 35.167969 45.742188 35.558594 43.476562 36.652344 C 40.777344 37.972656 38.402344 41.199219 37.367188 44.949219 L 37.054688 46.066406 L 35.515625 46.539062 C 32.0625 47.617188 30.066406 49.15625 28.878906 51.652344 C 28.316406 52.839844 28.085938 53.929688 28.085938 55.507812 C 28.085938 56.75 28.394531 58.609375 28.761719 59.582031 C 28.910156 59.960938 29.027344 60.296875 29.027344 60.3125 C 29.027344 60.378906 25.871094 60.339844 23.550781 60.230469 L 21.230469 60.136719 L 20.179688 59.609375 C 18.84375 58.960938 17.183594 57.34375 16.484375 56.035156 L 16.011719 55.15625 L 16.011719 50.570312 L 16.605469 49.597656 C 17.6875 47.84375 19.101562 46.753906 21.140625 46.105469 C 22.449219 45.6875 23.042969 45.335938 23.3125 44.808594 C 23.433594 44.578125 23.566406 43.757812 23.648438 42.855469 C 23.8125 40.871094 24.054688 39.914062 24.796875 38.496094 C 25.847656 36.460938 27.507812 34.949219 29.679688 34.03125 C 30.597656 33.65625 30.910156 33.585938 32.257812 33.535156 C 34.023438 33.46875 35.171875 33.628906 36.804688 34.195312 C 38.503906 34.773438 38.949219 34.585938 40.5 32.5625 C 42.414062 30.054688 45.085938 28.273438 47.851562 27.652344 C 49.171875 27.359375 51.921875 27.453125 53.378906 27.84375 Z M 53.015625 38.355469 C 54.296875 38.785156 54.820312 39.175781 56.832031 41.148438 C 58.300781 42.589844 58.746094 42.953125 59.042969 42.953125 C 59.246094 42.953125 60 42.765625 60.703125 42.550781 C 63.871094 41.523438 66.339844 41.765625 68.605469 43.316406 C 70.574219 44.667969 71.628906 46.664062 71.855469 49.5625 C 71.910156 50.183594 72.03125 50.871094 72.140625 51.0625 C 72.316406 51.410156 72.910156 51.707031 74.082031 52.058594 C 74.878906 52.289062 76.039062 53.03125 76.644531 53.703125 C 77.644531 54.796875 77.914062 55.621094 77.929688 57.589844 C 77.929688 58.953125 77.875 59.355469 77.617188 60.125 C 77.226562 61.246094 76.648438 62.042969 75.769531 62.621094 L 75.109375 63.066406 L 55.402344 63.027344 L 35.703125 62.984375 L 34.652344 62.488281 C 33.507812 61.933594 32.332031 60.921875 31.804688 60.03125 C 31.117188 58.84375 30.847656 57.617188 30.847656 55.566406 C 30.847656 53.691406 30.847656 53.679688 31.308594 52.761719 C 32.199219 50.980469 33.871094 49.835938 36.714844 49.011719 C 39.0625 48.335938 39.453125 47.960938 39.925781 45.949219 C 40.804688 42.199219 43.242188 39.355469 46.496094 38.328125 C 47.496094 38.003906 47.792969 37.976562 50.070312 38.03125 C 51.785156 38.058594 52.3125 38.125 53.015625 38.355469 Z M 53.015625 38.355469 "/>
</g>
</svg>
