<?xml version="1.0" encoding="UTF-8"?>
<svg xmlns="http://www.w3.org/2000/svg" xmlns:xlink="http://www.w3.org/1999/xlink" width="95px" height="95px" viewBox="0 0 95 95" version="1.1">
<defs>
<filter id="alpha" filterUnits="objectBoundingBox" x="0%" y="0%" width="100%" height="100%">
  <feColorMatrix type="matrix" in="SourceGraphic" values="0 0 0 0 1 0 0 0 0 1 0 0 0 0 1 0 0 0 1 0"/>
</filter>
<mask id="mask0">
  <g filter="url(#alpha)">
<rect x="0" y="0" width="95" height="95" style="fill:rgb(0%,0%,0%);fill-opacity:0.988235;stroke:none;"/>
  </g>
</mask>
<clipPath id="clip1">
  <rect x="0" y="0" width="95" height="95"/>
</clipPath>
<g id="surface5" clip-path="url(#clip1)">
<path style=" stroke:none;fill-rule:evenodd;fill:rgb(0%,0%,0%);fill-opacity:1;" d="M 51.527344 20.132812 C 51.914062 20.132812 52.324219 20.132812 52.714844 20.132812 C 52.878906 20.296875 53.046875 20.464844 53.195312 20.671875 C 53.25 22.285156 53.269531 23.898438 53.25 25.511719 C 59.96875 25.492188 66.667969 25.511719 73.382812 25.570312 C 74.050781 25.828125 74.515625 26.273438 74.773438 26.921875 C 74.773438 31.339844 74.773438 35.753906 74.773438 40.171875 C 74.496094 40.449219 74.496094 40.746094 74.773438 41.023438 C 74.773438 45.402344 74.773438 49.78125 74.773438 54.160156 C 74.496094 54.441406 74.496094 54.738281 74.773438 55.015625 C 74.773438 59.429688 74.773438 63.847656 74.773438 68.261719 C 74.515625 68.914062 74.03125 69.359375 73.382812 69.617188 C 66.667969 69.671875 59.96875 69.691406 53.25 69.671875 C 53.269531 70.933594 53.25 72.179688 53.195312 73.441406 C 53.011719 73.644531 52.804688 73.828125 52.601562 73.976562 C 52.25 73.976562 51.878906 73.976562 51.527344 73.976562 C 41.710938 72.066406 31.875 70.175781 22.023438 68.320312 C 21.542969 68.261719 21.171875 68.039062 20.949219 67.613281 C 20.949219 53.902344 20.949219 40.191406 20.949219 26.496094 C 21.171875 26.070312 21.542969 25.847656 22.023438 25.792969 C 31.878906 23.9375 41.710938 22.042969 51.527344 20.132812 Z M 50.5625 22.617188 C 50.746094 22.617188 50.914062 22.617188 51.097656 22.617188 C 51.097656 38.910156 51.097656 55.199219 51.097656 71.492188 C 41.765625 69.765625 32.433594 68.003906 23.101562 66.222656 C 23.101562 53.4375 23.101562 40.671875 23.101562 27.886719 C 32.285156 26.164062 41.433594 24.398438 50.5625 22.617188 Z M 53.25 27.664062 C 59.710938 27.664062 66.164062 27.664062 72.625 27.664062 C 72.625 31.617188 72.625 35.550781 72.625 39.503906 C 71.007812 39.484375 69.394531 39.503906 67.78125 39.558594 C 67.464844 39.6875 67.261719 39.929688 67.1875 40.265625 C 67.167969 49.335938 67.1875 58.429688 67.242188 67.5 C 62.585938 67.5 57.910156 67.5 53.25 67.5 C 53.25 64.996094 53.25 62.472656 53.25 59.96875 C 56.128906 59.96875 58.984375 59.96875 61.859375 59.96875 C 61.859375 59.246094 61.859375 58.539062 61.859375 57.816406 C 58.984375 57.816406 56.128906 57.816406 53.25 57.816406 C 53.25 56.738281 53.25 55.664062 53.25 54.585938 C 56.128906 54.585938 58.984375 54.585938 61.859375 54.585938 C 61.859375 53.863281 61.859375 53.160156 61.859375 52.433594 C 58.984375 52.433594 56.128906 52.433594 53.25 52.433594 C 53.25 51.359375 53.25 50.28125 53.25 49.207031 C 56.128906 49.207031 58.984375 49.207031 61.859375 49.207031 C 61.859375 48.484375 61.859375 47.777344 61.859375 47.054688 C 58.984375 47.054688 56.128906 47.054688 53.25 47.054688 C 53.25 45.976562 53.25 44.902344 53.25 43.828125 C 56.128906 43.828125 58.984375 43.828125 61.859375 43.828125 C 61.859375 43.101562 61.859375 42.398438 61.859375 41.671875 C 58.984375 41.671875 56.128906 41.671875 53.25 41.671875 C 53.25 40.597656 53.25 39.523438 53.25 38.445312 C 56.128906 38.445312 58.984375 38.445312 61.859375 38.445312 C 61.859375 37.722656 61.859375 37.015625 61.859375 36.292969 C 58.984375 36.292969 56.128906 36.292969 53.25 36.292969 C 53.25 33.417969 53.25 30.539062 53.25 27.664062 Z M 69.394531 41.671875 C 70.46875 41.671875 71.546875 41.671875 72.625 41.671875 C 72.625 45.625 72.625 49.558594 72.625 53.511719 C 71.546875 53.511719 70.46875 53.511719 69.394531 53.511719 C 69.394531 49.558594 69.394531 45.609375 69.394531 41.671875 Z M 69.394531 55.664062 C 70.46875 55.664062 71.546875 55.664062 72.625 55.664062 C 72.625 59.617188 72.625 63.550781 72.625 67.5 C 71.546875 67.5 70.46875 67.5 69.394531 67.5 C 69.394531 63.550781 69.394531 59.617188 69.394531 55.664062 Z M 69.394531 55.664062 "/>
</g>
<mask id="mask1">
  <g filter="url(#alpha)">
<rect x="0" y="0" width="95" height="95" style="fill:rgb(0%,0%,0%);fill-opacity:0.964706;stroke:none;"/>
  </g>
</mask>
<clipPath id="clip2">
  <rect x="0" y="0" width="95" height="95"/>
</clipPath>
<g id="surface8" clip-path="url(#clip2)">
<path style=" stroke:none;fill-rule:evenodd;fill:rgb(0%,0%,0%);fill-opacity:1;" d="M 27.960938 36.179688 C 29.429688 36.144531 30.914062 36.179688 32.378906 36.292969 C 34.921875 40.765625 37.480469 45.199219 40.078125 49.632812 C 40.132812 45.144531 40.152344 40.671875 40.132812 36.179688 C 41.433594 36.179688 42.710938 36.179688 44.011719 36.179688 C 44.011719 42.898438 44.011719 49.597656 44.011719 56.3125 C 42.582031 56.351562 41.171875 56.3125 39.761719 56.203125 C 37.070312 51.582031 34.417969 46.960938 31.804688 42.324219 C 31.859375 46.980469 31.878906 51.65625 31.859375 56.3125 C 30.558594 56.3125 29.28125 56.3125 27.980469 56.3125 C 27.960938 49.613281 27.960938 42.898438 27.960938 36.179688 Z M 27.960938 36.179688 "/>
</g>
</defs>
<g id="surface1">
<path style="fill:none;stroke-width:15;stroke-linecap:butt;stroke-linejoin:miter;stroke:rgb(0%,0%,0%);stroke-opacity:1;stroke-miterlimit:10;" d="M 133.010526 469.094737 L 378.989474 469.094737 L 502 256 L 378.989474 42.905263 L 133.010526 42.905263 L 10 256 Z M 133.010526 469.094737 " transform="matrix(0.185547,0,0,0.185547,0,0)"/>
<use xlink:href="#surface5" mask="url(#mask0)"/>
<use xlink:href="#surface8" mask="url(#mask1)"/>
</g>
</svg>
