<?xml version="1.0" encoding="utf-8"?>
<!-- Generator: Adobe Illustrator 24.3.0, SVG Export Plug-In . SVG Version: 6.00 Build 0)  -->
<svg version="1.1" id="Слой_1" xmlns="http://www.w3.org/2000/svg" xmlns:xlink="http://www.w3.org/1999/xlink" x="0px" y="0px"
	 viewBox="0 0 512 512" style="enable-background:new 0 0 512 512;" xml:space="preserve">
<style type="text/css">
	.st0{fill:none;stroke:#000000;stroke-width:15;stroke-miterlimit:10;}
	.st1{opacity:0.988;fill-rule:evenodd;clip-rule:evenodd;enable-background:new    ;}
	.st2{opacity:0.966;fill-rule:evenodd;clip-rule:evenodd;enable-background:new    ;}
</style>
<polygon class="st0" points="133,469.1 379,469.1 502,256 379,42.9 133,42.9 10,256 "/>
<g>
	<path class="st1" d="M277.7,108.5c2.1,0,4.3,0,6.4,0c0.9,0.9,1.8,1.8,2.6,2.9c0.3,8.7,0.4,17.4,0.3,26.1c36.2-0.1,72.3,0,108.5,0.3
		c3.6,1.4,6.1,3.8,7.5,7.3c0,23.8,0,47.6,0,71.4c-1.5,1.5-1.5,3.1,0,4.6c0,23.6,0,47.2,0,70.8c-1.5,1.5-1.5,3.1,0,4.6
		c0,23.8,0,47.6,0,71.4c-1.4,3.5-4,5.9-7.5,7.3c-36.2,0.3-72.3,0.4-108.5,0.3c0.1,6.8,0,13.5-0.3,20.3c-1,1.1-2.1,2.1-3.2,2.9
		c-1.9,0-3.9,0-5.8,0c-52.9-10.3-105.9-20.5-159-30.5c-2.6-0.3-4.6-1.5-5.8-3.8c0-73.9,0-147.8,0-221.6c1.2-2.3,3.2-3.5,5.8-3.8
		C171.8,129,224.8,118.8,277.7,108.5z M272.5,121.9c1,0,1.9,0,2.9,0c0,87.8,0,175.6,0,263.4c-50.3-9.3-100.6-18.8-150.9-28.4
		c0-68.9,0-137.7,0-206.6C174,141,223.3,131.5,272.5,121.9z M287,149.1c34.8,0,69.6,0,104.4,0c0,21.3,0,42.5,0,63.8
		c-8.7-0.1-17.4,0-26.1,0.3c-1.7,0.7-2.8,2-3.2,3.8c-0.1,48.9,0,97.9,0.3,146.8c-25.1,0-50.3,0-75.4,0c0-13.5,0-27.1,0-40.6
		c15.5,0,30.9,0,46.4,0c0-3.9,0-7.7,0-11.6c-15.5,0-30.9,0-46.4,0c0-5.8,0-11.6,0-17.4c15.5,0,30.9,0,46.4,0c0-3.9,0-7.7,0-11.6
		c-15.5,0-30.9,0-46.4,0c0-5.8,0-11.6,0-17.4c15.5,0,30.9,0,46.4,0c0-3.9,0-7.7,0-11.6c-15.5,0-30.9,0-46.4,0c0-5.8,0-11.6,0-17.4
		c15.5,0,30.9,0,46.4,0c0-3.9,0-7.7,0-11.6c-15.5,0-30.9,0-46.4,0c0-5.8,0-11.6,0-17.4c15.5,0,30.9,0,46.4,0c0-3.9,0-7.7,0-11.6
		c-15.5,0-30.9,0-46.4,0C287,180.1,287,164.6,287,149.1z M374,224.6c5.8,0,11.6,0,17.4,0c0,21.3,0,42.5,0,63.8c-5.8,0-11.6,0-17.4,0
		C374,267.1,374,245.8,374,224.6z M374,300c5.8,0,11.6,0,17.4,0c0,21.3,0,42.5,0,63.8c-5.8,0-11.6,0-17.4,0
		C374,342.5,374,321.3,374,300z"/>
</g>
<g>
	<path class="st2" d="M150.7,195c7.9-0.2,15.9,0,23.8,0.6c13.7,24.1,27.5,48,41.5,71.9c0.3-24.2,0.4-48.3,0.3-72.5
		c7,0,13.9,0,20.9,0c0,36.2,0,72.3,0,108.5c-7.7,0.2-15.3,0-22.9-0.6c-14.5-24.9-28.8-49.8-42.9-74.8c0.3,25.1,0.4,50.3,0.3,75.4
		c-7,0-13.9,0-20.9,0C150.7,267.4,150.7,231.2,150.7,195z"/>
</g>
</svg>
