<?xml version="1.0" encoding="utf-8"?>
<!-- Generator: Adobe Illustrator 24.3.0, SVG Export Plug-In . SVG Version: 6.00 Build 0)  -->
<svg version="1.1" id="Слой_1" xmlns="http://www.w3.org/2000/svg" xmlns:xlink="http://www.w3.org/1999/xlink" x="0px" y="0px"
	 viewBox="0 0 512 512" style="enable-background:new 0 0 512 512;" xml:space="preserve">
<style type="text/css">
	.st0{fill:none;stroke:#000000;stroke-width:15;stroke-miterlimit:10;}
</style>
<g>
	<polygon class="st0" points="133,469.1 379,469.1 502,256 379,42.9 133,42.9 10,256 	"/>
	<g transform="translate(0.000000,512.000000) scale(0.100000,-0.100000)">
		<path d="M1870,3835.3c-829.4-156.5-787.4-146.5-810.5-192c-11.8-23-11.8-39-11.8-1081s0-1058,11.8-1081
			c23-45.5-20.7-35.4,823.5-193.8l775.6-145.3l27.8,10.6c16.5,6.5,33.7,18.9,43.7,31.9l15.9,20.7l1.8,253.4l1.8,252.8l630.9,1.2
			l630.9,1.8l21.9,17.1c41.4,31.3,39-25.4,39,835.3v779.2l-13.6,20.1c-7.1,10.6-22.4,26-33.1,33.1l-20.1,13.6h-627.9H2749v245.7
			c0,215.6-1.2,248.1-9.5,266.4c-14.8,30.1-44.9,50.2-78,52.6C2643.9,3978.9,2364.5,3928.7,1870,3835.3z M2558.8,1958l-1.8-604.3
			l-587.8,110.5c-323.1,60.3-620.3,115.8-659.8,123.5l-72.7,13.6v961.1V3524l72.7,13c39.6,7.7,336.7,63.2,659.8,124.1l587.8,110.5
			l1.8-604.9C2559.4,2834.7,2559.4,2290.6,2558.8,1958z M3699.5,3221.6c-43.1-37.8-572.4-443-578.3-443c-5.3,0-91,51.4-190.2,114.6
			l-181.4,115.2l-0.6,108.1V3224h476.7C3487.4,3224,3700.7,3222.8,3699.5,3221.6z M3883.2,2512.1v-611.4h-567.1H2749v440.7
			c0,350.3,1.8,440.1,7.7,437.7c3.5-1.2,77.4-47.8,163.6-102.2c86.2-54.9,164.2-103.4,173.1-107.5c20.7-8.9,38.4-8.9,63.2-0.6
			c10.6,4.1,177.8,130,371.6,280.6c193.8,150.6,352.7,274.1,353.8,274.1C3882.6,3123.5,3883.2,2848.3,3883.2,2512.1z"/>
		<path d="M1818.6,3026.7c-140-31.9-257.6-130.5-327.8-275.3c-86.2-178.4-86.2-388.7,0-567.1c62.6-128.8,162.4-220.9,286.5-263.5
			c41.9-14.8,55.5-16.5,121.1-16.5c65.6,0,79.2,1.8,121.1,16.5c124.1,42.5,223.9,134.7,286.5,263.5c86.2,178.4,86.2,388.7,0,567.1
			c-63.2,129.4-163.6,222.1-286.5,263.5C1961.6,3033.7,1873.6,3039.1,1818.6,3026.7z M1958,2836.4c46.1-13.6,76.8-33.7,116.4-75.6
			c64.4-69.1,107.5-185.5,107.5-293c0-134.1-65-273.5-156.5-336.7c-33.1-22.4-90.4-41.4-127-41.4s-93.9,18.9-127,41.4
			c-91.6,63.2-156.5,202.6-156.5,336.7c0,135.9,69.7,283,162.4,341.4C1831.6,2843.5,1899,2853.6,1958,2836.4z"/>
	</g>
</g>
</svg>
