<?xml version="1.0" encoding="UTF-8"?>
<svg xmlns="http://www.w3.org/2000/svg" xmlns:xlink="http://www.w3.org/1999/xlink" width="95px" height="95px" viewBox="0 0 95 95" version="1.1">
<g id="surface1">
<path style="fill:none;stroke-width:15;stroke-linecap:butt;stroke-linejoin:miter;stroke:rgb(0%,0%,0%);stroke-opacity:1;stroke-miterlimit:10;" d="M 133.010526 469.094737 L 378.989474 469.094737 L 502 256 L 378.989474 42.905263 L 133.010526 42.905263 L 10 256 Z M 133.010526 469.094737 " transform="matrix(0.185547,0,0,0.185547,0,0)"/>
<path style=" stroke:none;fill-rule:nonzero;fill:rgb(0%,0%,0%);fill-opacity:1;" d="M 34.699219 23.835938 C 19.308594 26.742188 20.085938 26.554688 19.660156 27.398438 C 19.441406 27.828125 19.441406 28.125 19.441406 47.457031 C 19.441406 66.792969 19.441406 67.089844 19.660156 67.515625 C 20.085938 68.359375 19.273438 68.171875 34.9375 71.109375 L 49.328125 73.808594 L 49.84375 73.609375 C 50.152344 73.488281 50.46875 73.257812 50.65625 73.019531 L 50.953125 72.632812 L 50.984375 67.933594 L 51.019531 63.242188 L 62.722656 63.21875 L 74.429688 63.1875 L 74.835938 62.867188 C 75.605469 62.289062 75.558594 63.339844 75.558594 47.371094 L 75.558594 32.914062 L 75.308594 32.539062 C 75.175781 32.34375 74.890625 32.058594 74.695312 31.925781 L 74.320312 31.671875 L 51.007812 31.671875 L 51.007812 27.113281 C 51.007812 23.113281 50.984375 22.511719 50.832031 22.171875 C 50.554688 21.613281 49.996094 21.238281 49.382812 21.195312 C 49.058594 21.171875 43.871094 22.105469 34.699219 23.835938 Z M 47.476562 58.667969 L 47.445312 69.882812 L 36.539062 67.832031 C 30.542969 66.714844 25.027344 65.683594 24.296875 65.539062 L 22.945312 65.289062 L 22.945312 29.613281 L 24.296875 29.371094 C 25.03125 29.230469 30.542969 28.199219 36.539062 27.070312 L 47.445312 25.019531 L 47.476562 36.242188 C 47.488281 42.402344 47.488281 52.5 47.476562 58.667969 Z M 68.644531 35.222656 C 67.84375 35.925781 58.023438 43.445312 57.914062 43.445312 C 57.816406 43.445312 56.222656 42.488281 54.382812 41.316406 L 51.019531 39.179688 L 51.007812 37.175781 L 51.007812 35.179688 L 59.851562 35.179688 C 64.707031 35.179688 68.664062 35.203125 68.644531 35.222656 Z M 72.050781 48.390625 L 72.050781 59.734375 L 51.007812 59.734375 L 51.007812 51.554688 C 51.007812 45.054688 51.039062 43.390625 51.148438 43.433594 C 51.214844 43.457031 52.585938 44.320312 54.183594 45.332031 C 55.785156 46.347656 57.230469 47.25 57.398438 47.324219 C 57.78125 47.492188 58.109375 47.492188 58.570312 47.335938 C 58.765625 47.261719 61.867188 44.925781 65.464844 42.128906 C 69.0625 39.335938 72.007812 37.042969 72.03125 37.042969 C 72.039062 37.042969 72.050781 42.152344 72.050781 48.390625 Z M 72.050781 48.390625 "/>
<path style=" stroke:none;fill-rule:nonzero;fill:rgb(0%,0%,0%);fill-opacity:1;" d="M 33.742188 38.839844 C 31.144531 39.433594 28.964844 41.261719 27.660156 43.949219 C 26.0625 47.257812 26.0625 51.160156 27.660156 54.472656 C 28.824219 56.859375 30.675781 58.570312 32.976562 59.359375 C 33.753906 59.632812 34.007812 59.667969 35.222656 59.667969 C 36.441406 59.667969 36.695312 59.632812 37.472656 59.359375 C 39.773438 58.570312 41.625 56.859375 42.789062 54.472656 C 44.386719 51.160156 44.386719 47.257812 42.789062 43.949219 C 41.613281 41.546875 39.75 39.828125 37.472656 39.058594 C 36.398438 38.710938 34.765625 38.609375 33.742188 38.839844 Z M 36.332031 42.371094 C 37.183594 42.625 37.753906 42.996094 38.488281 43.773438 C 39.683594 45.054688 40.484375 47.214844 40.484375 49.210938 C 40.484375 51.699219 39.277344 54.285156 37.582031 55.457031 C 36.964844 55.875 35.902344 56.226562 35.222656 56.226562 C 34.546875 56.226562 33.480469 55.875 32.867188 55.457031 C 31.167969 54.285156 29.964844 51.699219 29.964844 49.210938 C 29.964844 46.6875 31.257812 43.960938 32.976562 42.875 C 33.984375 42.238281 35.234375 42.050781 36.332031 42.371094 Z M 36.332031 42.371094 "/>
</g>
</svg>
