<?xml version="1.0" encoding="utf-8"?>
<!-- Generator: Adobe Illustrator 24.3.0, SVG Export Plug-In . SVG Version: 6.00 Build 0)  -->
<svg version="1.1" id="Слой_1" xmlns="http://www.w3.org/2000/svg" xmlns:xlink="http://www.w3.org/1999/xlink" x="0px" y="0px"
	 viewBox="0 0 95 95" style="enable-background:new 0 0 95 95;" xml:space="preserve">
<style type="text/css">
	.st0{fill:none;stroke:#000000;stroke-width:2.7832;stroke-miterlimit:1.8555;}
</style>
<g>
	<path class="st0" d="M24.7,87h45.6l22.8-39.5L70.3,8H24.7L1.9,47.5L24.7,87z"/>
	<path d="M52.9,21.4v9c0,0.6,0.5,1.1,1.1,1.1l3.5,0c1.5,0,2.9,0,4.4,0c1,0,2.1,0,3.1,0c1.5,0,2.9,0,4.4,0c0.5,0,0.9,0,1.4,0
		c1,0,2,0,2.9,0.1c0.3,0,0.6,0.1,0.7,0.3c1.1,1.2,1,1.9,1,3.8c0,0.6,0,1.3,0,1.9c0,0.7,0,1.4,0,2.1c0,0.7,0,1.4,0,2.1
		c0,1.8,0,3.7,0,5.5c0,1.1,0,2.3,0,3.4c0,2.2,0,4.3,0,6.5c0,0.7,0,1.4,0,2.1c0,0.9,0,0.9,0,1.9c0,0.6,0,1.1,0,1.7
		c-0.1,1.2-0.1,1.3-1,2.1c-0.2,0.2-0.5,0.3-0.7,0.3c-1.5,0.1-2.9,0.1-4.3,0.1c-0.5,0-0.9,0-1.4,0c-1.5,0-3,0-4.5,0c-1,0-2,0-3.1,0
		c-2.1,0-4.3,0-6.4,0c-0.6,0-1.1,0.5-1.1,1.1v9c0,0.6-0.5,1.1-1.1,1.1c-4,0-4.1,0-6-0.3c-0.5-0.1-0.9-0.1-1.4-0.2
		c-0.7-0.1-0.7-0.1-1.5-0.2c-0.5-0.1-1-0.2-1.5-0.3c-1.1-0.2-2.1-0.4-3.2-0.5c-1.6-0.3-3.3-0.5-4.9-0.8c-1-0.2-2.1-0.3-3.1-0.5
		c-0.5-0.1-1-0.2-1.5-0.2c-0.5-0.1-0.9-0.2-1.4-0.2L26,72.8c-0.1,0-0.1,0-0.2,0c-1.3-0.4-2.1-0.8-3-1.7c-0.2-0.2-0.3-0.4-0.3-0.6
		c-0.2-1.3-0.3-2.5-0.2-3.9c0-0.4,0-0.9,0-1.3c0-1.4,0-2.9,0-4.3c0-1,0-2,0-3c0-2.1,0-4.2,0-6.3c0-2.7,0-5.4,0-8.1
		c0-2.1,0-4.1,0-6.2c0-1,0-2,0-3c0-1.4,0-2.8,0-4.2c0-0.4,0-0.8,0-1.2c0-1.7,0.1-2.7,1.1-3.9c0.1-0.1,0.2-0.2,0.4-0.3
		c1.1-0.5,2.1-0.8,3.4-1.1c0.5-0.1,0.9-0.2,1.4-0.2c0.7-0.1,0.7-0.1,1.5-0.2c0.5-0.1,1-0.2,1.5-0.3c1.1-0.2,2.2-0.4,3.2-0.5
		c1.6-0.3,3.3-0.5,4.9-0.8c1-0.2,2.1-0.3,3.1-0.5c0.5-0.1,1-0.2,1.5-0.2c0.7-0.1,0.7-0.1,1.4-0.2l1.2-0.2c0,0,0.1,0,0.1,0
		c1.6-0.2,3.2-0.1,4.8-0.1C52.4,20.3,52.9,20.8,52.9,21.4z M47.8,22.9c-0.7,0.1-0.7,0.1-1.5,0.2c-0.8,0.1-0.8,0.1-1.6,0.3
		c-0.5,0.1-1.1,0.2-1.6,0.3c-1.1,0.2-2.3,0.4-3.4,0.5c-1.7,0.3-3.5,0.6-5.2,0.8c-1.1,0.2-2.2,0.4-3.3,0.5c-0.5,0.1-1,0.2-1.6,0.3
		c-0.5,0.1-1,0.2-1.5,0.2c-0.6,0.1-0.6,0.1-1.3,0.2c-0.8,0.1-1,0.2-1.6,0.4c-0.4,0.2-0.6,0.6-0.6,1v41.1c0,0.5,0.4,1,0.8,1.1
		c7.8,1.9,15.8,2.9,23.7,4.1c0.7,0.1,1.3-0.4,1.3-1.1V23.7c0-0.7-0.6-1.2-1.2-1.1C48.9,22.7,48.3,22.8,47.8,22.9z M52.9,34.8v12.8
		c0,0.9,1.1,1.4,1.8,0.8l2.1-1.8c0.6-0.6,1.3-1.1,2-1.7c2.4-2.1,4.7-4.2,7-6.3c0.4-0.3,0.8-0.7,1.1-1.1c0.4-0.3,0.7-0.7,1.1-1
		c0.3-0.3,0.6-0.6,1-0.9c0,0,0,0,0,0c0.7-0.7,0.2-1.9-0.7-1.9H54C53.4,33.7,52.9,34.2,52.9,34.8z M70.5,37.2
		c-0.4,0.4-0.8,0.8-1.2,1.2c-0.4,0.4-0.9,0.8-1.3,1.2c-2.9,2.7-5.7,5.4-8.7,8c-0.4,0.4-0.5,1.1-0.1,1.5c1.3,1.7,2.8,3,4.5,4.4
		c2.7,2.2,5.3,4.4,7.8,6.8c0,0,0.1,0,0.1,0.1c0.9,0.9,0.9,0.9,1.6,0.9V37.3c0-1-1.2-1.5-1.9-0.8C70.9,36.8,70.7,37,70.5,37.2z
		 M53.1,52.6c-0.2,0.2-0.3,0.4-0.4,0.6c-0.3,1.6-0.2,3.2-0.1,4.8l0.2,3.9c0,0.6,0.5,1.1,1.1,1.1h13.9c0.9,0,1.5-1.1,0.8-1.8
		c-1.3-1.5-2.5-2.7-4.2-4c-2.3-1.9-4.6-3.8-6.9-5.8C55.9,49.8,54.6,51.3,53.1,52.6z"/>
	<path d="M40,39.9c2.9,1.3,4.6,2.6,5.6,5.1c0.1,1.1,0.1,2.1,0.1,3.2c0,0.6,0,1.1,0,1.7c-0.3,2.4-1.2,3.9-3.3,5.5
		c-2.3,1.3-4.2,1.6-7,1.2c-2.9-1.3-4.6-2.6-5.6-5.1c-0.1-1.1-0.1-2.1-0.1-3.2c0-0.8,0-0.8,0-1.7c0.3-2.4,1.2-3.9,3.3-5.5
		C35.3,39.9,37.2,39.6,40,39.9z M33.8,43.2c-1.6,2.3-2.1,4.4-1.7,7c0.7,2,1.2,3,3.2,4.2c2.3,0.6,3.5,0.3,5.7-0.5
		c2-1.7,2.2-3.2,2.4-5.5c0-2-0.6-3.5-1.8-5.2C38.5,41.5,37,41.5,33.8,43.2z"/>
</g>
</svg>
