<?xml version="1.0" encoding="utf-8"?>
<!-- Generator: Adobe Illustrator 24.3.0, SVG Export Plug-In . SVG Version: 6.00 Build 0)  -->
<svg version="1.1" id="Слой_1" xmlns="http://www.w3.org/2000/svg" xmlns:xlink="http://www.w3.org/1999/xlink" x="0px" y="0px"
	 viewBox="0 0 512 512" style="enable-background:new 0 0 512 512;" xml:space="preserve">
<style type="text/css">
	.st0{fill:none;stroke:#000000;stroke-width:15;stroke-miterlimit:10;}
	.st1{fill:none;stroke:#000000;stroke-width:12;stroke-miterlimit:10;}
</style>
<polygon class="st0" points="133,469.1 379,469.1 502,256 379,42.9 133,42.9 10,256 "/>
<g transform="matrix(1.3333334 0 0 1.3333334 0 0)">
</g>
<path class="st1" d="M115.4,241.5c41.4,22,96.7,14.3,135.5-9.2c14.6-8.8,27.7-20.5,38.2-33.9c3.2-4.1,8.1-13.7,14.7-10.6
	c10.1,4.7,0.3,15.4-3.8,20.4c-12.4,15.3-27.6,28.6-44.6,38.6c-31.6,18.5-68.9,25.5-105,20.4c-13.4-1.9-25.6-7-38.6-10.5
	c-5.2,27.9-1.7,58.4,10.1,84.3c3.2,7.1,6.6,16.7,12.6,22c8.9,7.8,26.1,9.8,37.4,11.9c46.9,9,97.7-5.8,133.7-36.9
	c18.6-16.1,33.5-36.3,43.2-59c2.2-5.3,6-17.5,14.1-12.5c7.5,4.6,0.8,15.9-1.9,21.5c-9.3,19.3-21,37.8-36.6,52.7
	c-45.7,43.2-110,62.4-171.3,45.1c10.3,13.4,28.6,23.8,44,30.4c55.1,23.7,120.4,12.4,163.3-30.4c49.8-49.8,55.4-128.7,17.1-186.6
	h-0.9c0,14.9,0.9,30.2-2.1,44.9c-1.4,6.7-9.5,12.6-13.9,4.4c-3.5-6.5,1.1-20.5,1.6-27.8c0.8-11.2,2.4-30.9-2.2-41.3
	c-4.2-9.5-22.1-21.4-31.8-24.2c-1.4,5.9-3.7,15.3-8.3,19.5c-3.9,3.5-10.1,1.7-11.6-3.3c-1.9-6.2,5.4-19,7.3-25.1
	c-15.7-9.7-30.8-22.5-31.3-42.2c-0.2-6.8,1.7-13.9,2.6-20.6c-17.9,2.4-36.6,13-52,21.8c-34.3,19.5-63.9,46.9-88.1,77.8
	C133.3,200.2,120.4,220.1,115.4,241.5z"/>
</svg>
