<?xml version="1.0" encoding="UTF-8"?>
<svg xmlns="http://www.w3.org/2000/svg" xmlns:xlink="http://www.w3.org/1999/xlink" width="95px" height="95px" viewBox="0 0 95 95" version="1.1">
<g id="surface1">
<path style="fill:none;stroke-width:15;stroke-linecap:butt;stroke-linejoin:miter;stroke:rgb(0%,0%,0%);stroke-opacity:1;stroke-miterlimit:10;" d="M 133.010526 469.094737 L 378.989474 469.094737 L 502 256 L 378.989474 42.905263 L 133.010526 42.905263 L 10 256 Z M 133.010526 469.094737 " transform="matrix(0.185547,0,0,0.185547,0,0)"/>
<path style="fill:none;stroke-width:12;stroke-linecap:butt;stroke-linejoin:miter;stroke:rgb(0%,0%,0%);stroke-opacity:1;stroke-miterlimit:10;" d="M 115.410526 241.494737 C 156.8 263.494737 212.105263 255.789474 250.905263 232.294737 C 265.494737 223.494737 278.610526 211.789474 289.094737 198.4 C 292.294737 194.294737 297.2 184.694737 303.789474 187.789474 C 313.894737 192.505263 304.105263 203.2 300 208.210526 C 287.6 223.494737 272.4 236.8 255.410526 246.8 C 223.789474 265.305263 186.505263 272.294737 150.4 267.2 C 137.010526 265.305263 124.8 260.210526 111.810526 256.694737 C 106.610526 284.589474 110.105263 315.094737 121.894737 341.010526 C 125.094737 348.105263 128.505263 357.705263 134.505263 362.989474 C 143.410526 370.8 160.589474 372.8 171.894737 374.905263 C 218.8 383.894737 269.6 369.094737 305.6 338 C 324.210526 321.894737 339.094737 301.705263 348.8 278.989474 C 350.989474 273.705263 354.8 261.494737 362.905263 266.505263 C 370.4 271.094737 363.705263 282.4 361.010526 288 C 351.705263 307.305263 340 325.810526 324.4 340.694737 C 278.694737 383.894737 214.4 403.094737 153.094737 385.810526 C 163.410526 399.2 181.705263 409.6 197.094737 416.210526 C 252.210526 439.894737 317.494737 428.589474 360.4 385.810526 C 410.210526 336 415.789474 257.094737 377.494737 199.2 L 376.610526 199.2 C 376.610526 214.105263 377.494737 229.389474 374.505263 244.105263 C 373.094737 250.8 365.010526 256.694737 360.610526 248.505263 C 357.094737 242 361.705263 228 362.210526 220.694737 C 363.010526 209.494737 364.610526 189.810526 360 179.410526 C 355.810526 169.894737 337.894737 158 328.210526 155.2 C 326.8 161.094737 324.505263 170.505263 319.894737 174.694737 C 316 178.210526 309.810526 176.4 308.294737 171.410526 C 306.4 165.2 313.705263 152.4 315.6 146.294737 C 299.894737 136.610526 284.8 123.810526 284.294737 104.105263 C 284.105263 97.305263 286 90.210526 286.905263 83.494737 C 269.010526 85.894737 250.294737 96.505263 234.905263 105.305263 C 200.610526 124.8 171.010526 152.210526 146.8 183.094737 C 133.305263 200.210526 120.4 220.105263 115.410526 241.494737 Z M 115.410526 241.494737 " transform="matrix(0.185547,0,0,0.185547,0,0)"/>
</g>
</svg>
