<?xml version="1.0" encoding="utf-8"?>
<!-- Generator: Adobe Illustrator 24.3.0, SVG Export Plug-In . SVG Version: 6.00 Build 0)  -->
<svg version="1.1" id="Слой_1" xmlns="http://www.w3.org/2000/svg" xmlns:xlink="http://www.w3.org/1999/xlink" x="0px" y="0px"
	 viewBox="0 0 512 512" style="enable-background:new 0 0 512 512;" xml:space="preserve">
<style type="text/css">
	.st0{fill:none;stroke:#000000;stroke-width:15;stroke-miterlimit:10;}
</style>
<polygon class="st0" points="133,469.1 379,469.1 502,256 379,42.9 133,42.9 10,256 "/>
<g transform="matrix(1.3333334 0 0 1.3333334 0 0)">
</g>
<g transform="translate(0.000000,512.000000) scale(0.100000,-0.100000)">
	<path d="M1695.6,4080.5c-54.2-9.3-139.5-40.3-193-71.4c-153.4-87.9-255.1-223.4-300.1-397.3c-19.2-74.7-17.8-228.7,2.6-299.4
		c27.8-97.8,72.7-183.8,130.9-251.8l22.5-25.8l-48.3-26.4c-273.7-148.1-466-390-540.7-680.2c-27.8-109.7-32.4-161.9-32.4-405.9v-232
		l17.2-15.9l17.2-15.9l439.6-2l439.6-2l-4.6-14.5c-5.9-18.5-12.6-422.4-7.3-444.2c2-8.6,10.6-22.5,18.5-29.7
		c14.5-13.2,17.8-13.2,1222.2-13.2h1207l18.5,13.9l17.8,14.5l-3.3,241.9c-3.3,269-6.6,296.8-54.9,450.1
		c-101.8,325.2-351.7,608.8-658.4,746.9l-50.2,22.5l35,38.3c130.9,141.5,193.7,362.9,158.6,563.2c-35.7,205.6-162.6,381.4-347,481.9
		c-80,43.6-158.6,67.4-255.8,77.3c-374.8,37-707.3-237.3-741.6-611.4c-17.2-188.4,38.3-364.2,161.3-509l35.7-41.6l-57.5-27.8
		c-333.8-160-574.4-452.1-668.9-811l-7.3-28.4h-405.9H856.2v182.4c0,220.1,10.6,298.1,56.2,427c83.9,234,281.6,445.5,506.3,541.4
		l44.3,19.2l62.8-32.4c89.9-45.6,154-62.1,259.8-65.4c99.8-3.3,165.3,7.3,247.9,39c60.8,23.1,75.4,37.7,75.4,73.4
		c0,20.5-4,29.7-18.5,42.3c-10.6,8.6-24.5,15.9-32.4,15.9c-7.3,0-44.9-10.6-83.3-23.8c-132.9-45.6-264.4-37-389.3,24.5
		c-99.2,48.9-175.8,125.6-226.1,227.4c-41,82-50.2,124.3-49.6,228c0.7,81.3,2,93.9,20.5,146.7c50.9,146.1,155.3,257.8,292.8,314
		c220.1,88.6,469.3,8.6,606.8-194.3c15.2-23.1,33.7-44.3,41-48.3c39.7-21.2,85.9,5.9,85.9,50.9c0,52.9-107.7,180.5-206.2,244.6
		c-105.8,69.4-215.5,101.1-342.4,100.5C1766.4,4086.4,1715.5,4083.8,1695.6,4080.5z M2987.9,3676.6
		c166.6-27.8,333.8-161.9,405.2-325.9c35.7-82.6,43.6-122.9,43.6-224.7c0-82-2.6-99.2-18.5-152c-34.4-112.4-100.5-210.2-189.7-281.6
		c-62.1-49.6-120.3-80-194.3-101.8c-351-102.5-709.9,165.3-711.2,530.8c-0.7,100.5,15.9,170.5,60.2,259.8
		c71.4,144.8,218.1,258.5,377.4,292.8C2841.1,3691.1,2898,3691.8,2987.9,3676.6z M2570.1,2525.1c185.7-99.8,421.7-101.1,613.4-4
		l65.4,33.1l49.6-19.8c322.6-128.2,577.7-411.8,664.3-740.3c32.4-122.3,34.4-137.5,37.7-331.8l3.3-190.4h-1125H1753.1l4,173.8
		c4.6,175.2,10.6,230,37.7,334.5c76,296.8,288.2,561.2,564.5,705.3c64.8,33.7,137.5,66.8,151.4,68.1
		C2513.3,2554.2,2539.7,2541,2570.1,2525.1z"/>
</g>
</svg>
