<?xml version="1.0" encoding="UTF-8"?>
<svg xmlns="http://www.w3.org/2000/svg" xmlns:xlink="http://www.w3.org/1999/xlink" width="95px" height="95px" viewBox="0 0 95 95" version="1.1">
<g id="surface1">
<path style="fill:none;stroke-width:15;stroke-linecap:butt;stroke-linejoin:miter;stroke:rgb(0%,0%,0%);stroke-opacity:1;stroke-miterlimit:10;" d="M 133.010526 469.094737 L 378.989474 469.094737 L 502 256 L 378.989474 42.905263 L 133.010526 42.905263 L 10 256 Z M 133.010526 469.094737 " transform="matrix(0.185547,0,0,0.185547,0,0)"/>
<path style=" stroke:none;fill-rule:nonzero;fill:rgb(0%,0%,0%);fill-opacity:1;" d="M 31.460938 19.289062 C 30.457031 19.460938 28.871094 20.035156 27.878906 20.613281 C 25.035156 22.242188 23.148438 24.757812 22.3125 27.984375 C 21.957031 29.371094 21.980469 32.226562 22.359375 33.539062 C 22.875 35.355469 23.710938 36.949219 24.789062 38.210938 L 25.207031 38.691406 L 24.308594 39.179688 C 19.230469 41.929688 15.664062 46.417969 14.277344 51.800781 C 13.761719 53.835938 13.675781 54.804688 13.675781 59.332031 L 13.675781 63.636719 L 13.996094 63.933594 L 14.316406 64.226562 L 22.472656 64.265625 L 30.628906 64.300781 L 30.542969 64.570312 C 30.433594 64.914062 30.308594 72.40625 30.40625 72.8125 C 30.445312 72.972656 30.605469 73.230469 30.75 73.363281 C 31.019531 73.609375 31.082031 73.609375 53.429688 73.609375 L 75.824219 73.609375 L 76.167969 73.351562 L 76.496094 73.082031 L 76.4375 68.59375 C 76.375 63.601562 76.3125 63.085938 75.417969 60.242188 C 73.527344 54.207031 68.890625 48.945312 63.199219 46.382812 L 62.269531 45.964844 L 62.917969 45.253906 C 65.347656 42.628906 66.511719 38.519531 65.863281 34.804688 C 65.199219 30.988281 62.84375 27.726562 59.421875 25.863281 C 57.9375 25.054688 56.480469 24.613281 54.675781 24.429688 C 47.722656 23.742188 41.554688 28.832031 40.917969 35.773438 C 40.597656 39.269531 41.628906 42.53125 43.910156 45.21875 L 44.570312 45.988281 L 43.503906 46.503906 C 37.3125 49.472656 32.847656 54.894531 31.09375 61.554688 L 30.957031 62.082031 L 15.886719 62.082031 L 15.886719 58.695312 C 15.886719 54.613281 16.082031 53.164062 16.929688 50.773438 C 18.484375 46.429688 22.15625 42.507812 26.324219 40.726562 L 27.144531 40.371094 L 28.3125 40.972656 C 29.980469 41.820312 31.167969 42.125 33.132812 42.1875 C 34.984375 42.246094 36.199219 42.050781 37.730469 41.460938 C 38.859375 41.035156 39.128906 40.761719 39.128906 40.101562 C 39.128906 39.71875 39.054688 39.550781 38.785156 39.316406 C 38.589844 39.15625 38.332031 39.019531 38.1875 39.019531 C 38.050781 39.019531 37.351562 39.21875 36.640625 39.460938 C 34.175781 40.308594 31.734375 40.148438 29.417969 39.007812 C 27.574219 38.101562 26.15625 36.675781 25.222656 34.789062 C 24.460938 33.265625 24.289062 32.480469 24.300781 30.558594 C 24.3125 29.050781 24.339844 28.816406 24.679688 27.835938 C 25.625 25.125 27.5625 23.050781 30.113281 22.007812 C 34.199219 20.367188 38.820312 21.851562 41.375 25.613281 C 41.65625 26.042969 42 26.4375 42.132812 26.511719 C 42.871094 26.90625 43.726562 26.402344 43.726562 25.566406 C 43.726562 24.585938 41.730469 22.21875 39.902344 21.027344 C 37.9375 19.742188 35.902344 19.152344 33.546875 19.164062 C 32.773438 19.179688 31.832031 19.226562 31.460938 19.289062 Z M 55.441406 26.78125 C 58.53125 27.296875 61.632812 29.785156 62.957031 32.828125 C 63.621094 34.363281 63.765625 35.109375 63.765625 37 C 63.765625 38.519531 63.71875 38.839844 63.421875 39.820312 C 62.785156 41.902344 61.558594 43.71875 59.902344 45.042969 C 58.75 45.964844 57.671875 46.527344 56.296875 46.933594 C 49.785156 48.835938 43.125 43.863281 43.101562 37.082031 C 43.089844 35.21875 43.398438 33.917969 44.21875 32.261719 C 45.542969 29.578125 48.265625 27.464844 51.222656 26.828125 C 52.714844 26.511719 53.773438 26.5 55.441406 26.78125 Z M 47.6875 48.148438 C 51.132812 50 55.511719 50.023438 59.070312 48.222656 L 60.28125 47.609375 L 61.203125 47.976562 C 67.1875 50.355469 71.921875 55.617188 73.527344 61.710938 C 74.128906 63.980469 74.167969 64.261719 74.226562 67.867188 L 74.289062 71.398438 L 32.527344 71.398438 L 32.601562 68.175781 C 32.6875 64.925781 32.800781 63.90625 33.300781 61.96875 C 34.710938 56.460938 38.648438 51.554688 43.777344 48.882812 C 44.976562 48.257812 46.328125 47.644531 46.585938 47.617188 C 46.632812 47.609375 47.125 47.851562 47.6875 48.148438 Z M 47.6875 48.148438 "/>
</g>
</svg>
