<?xml version="1.0" encoding="utf-8"?>
<!-- Generator: Adobe Illustrator 24.3.0, SVG Export Plug-In . SVG Version: 6.00 Build 0)  -->
<svg version="1.1" id="Слой_1" xmlns="http://www.w3.org/2000/svg" xmlns:xlink="http://www.w3.org/1999/xlink" x="0px" y="0px"
	 viewBox="0 0 512 512" style="enable-background:new 0 0 512 512;" xml:space="preserve">
<style type="text/css">
	.st0{fill:none;stroke:#000000;stroke-width:15;stroke-miterlimit:10;}
</style>
<polygon class="st0" points="133,469.1 379,469.1 502,256 379,42.9 133,42.9 10,256 "/>
<g transform="translate(0.000000,512.000000) scale(0.100000,-0.100000)">
	<path d="M1655.2,4382.5c-53.9-20.8-114.2-81.1-137.2-138.6l-17.2-43.1V2560V919.1L1518,876c23.7-58.9,83.3-117.8,139.3-138.6
		l41.7-15.8h861h861l41.7,15.8c56,20.8,115.6,79.7,139.3,138.6l17.2,43.1V2560v1640.9L3602,4244c-23.7,58.9-83.3,117.8-139.3,138.6
		l-41.7,15.8l-863.2-0.7C1697.6,4397.6,1694.7,4397.6,1655.2,4382.5z M3428.9,4260.5c20.1-11.5,39.5-30.9,50.3-50.3l18-30.9V2560
		V940.7l-18-30.9c-10.8-19.4-30.2-38.8-50.3-50.3l-32.3-19.4H2560h-836.6l-30.9,18c-19.4,10.8-38.8,30.2-50.3,50.3l-19.4,32.3V2560
		v1619.3l18,30.9c18.7,33,51.7,57.4,89,66.8c12.2,2.9,392.1,4.3,844.5,4.3l822.2-1.4L3428.9,4260.5z"/>
	<path d="M2336.7,4139.8c-6.5-3.6-15.8-16.5-20.8-28.7c-10.8-25.1,0-60.3,22.3-71.8c7.2-4.3,102-7.2,221.9-7.2s214.7,2.9,221.9,7.2
		c7.2,3.6,17.2,16.5,22.3,28.7c10.8,25.1,0,60.3-22.3,71.8C2765.4,4149.2,2351.8,4149.2,2336.7,4139.8z"/>
	<path d="M2502.6,1289.7c-54.6-18-97.7-56-121.4-108.4c-17.2-38.1-19.4-111.3-5-152.2c35.9-100.5,163.7-153,264.3-108.4
		c147.2,66.1,153,281.5,9.3,355.5C2618.9,1292.5,2534.1,1300.4,2502.6,1289.7z M2590.9,1166.2c25.1-12.9,40.9-36.6,40.9-63.9
		c0-32.3-16.5-56-47.4-68.9c-46-19.4-96.2,17.2-96.2,68.9C2488.9,1154.7,2544.9,1189.9,2590.9,1166.2z"/>
</g>
</svg>
