<?xml version="1.0" encoding="UTF-8"?>
<svg xmlns="http://www.w3.org/2000/svg" xmlns:xlink="http://www.w3.org/1999/xlink" width="95px" height="95px" viewBox="0 0 95 95" version="1.1">
<g id="surface1">
<path style="fill:none;stroke-width:15;stroke-linecap:butt;stroke-linejoin:miter;stroke:rgb(0%,0%,0%);stroke-opacity:1;stroke-miterlimit:10;" d="M 133.010526 469.094737 L 378.989474 469.094737 L 502 256 L 378.989474 42.905263 L 133.010526 42.905263 L 10 256 Z M 133.010526 469.094737 " transform="matrix(0.185547,0,0,0.185547,0,0)"/>
<path style=" stroke:none;fill-rule:nonzero;fill:rgb(0%,0%,0%);fill-opacity:1;" d="M 30.710938 13.683594 C 29.710938 14.070312 28.59375 15.1875 28.164062 16.253906 L 27.847656 17.054688 L 27.847656 77.945312 L 28.164062 78.746094 C 28.605469 79.839844 29.710938 80.933594 30.75 81.316406 L 31.523438 81.609375 L 63.476562 81.609375 L 64.25 81.316406 C 65.289062 80.933594 66.394531 79.839844 66.835938 78.746094 L 67.152344 77.945312 L 67.152344 17.054688 L 66.835938 16.253906 C 66.394531 15.160156 65.289062 14.066406 64.25 13.683594 L 63.476562 13.390625 L 47.460938 13.402344 C 31.5 13.402344 31.445312 13.402344 30.710938 13.683594 Z M 63.621094 15.949219 C 63.996094 16.160156 64.355469 16.519531 64.554688 16.882812 L 64.890625 17.453125 L 64.890625 77.546875 L 64.554688 78.117188 C 64.355469 78.480469 63.996094 78.839844 63.621094 79.050781 L 63.023438 79.414062 L 31.976562 79.414062 L 31.402344 79.078125 C 31.042969 78.878906 30.683594 78.519531 30.46875 78.144531 L 30.109375 77.546875 L 30.109375 17.453125 L 30.445312 16.882812 C 30.792969 16.269531 31.402344 15.816406 32.097656 15.640625 C 32.320312 15.585938 39.371094 15.5625 47.765625 15.5625 L 63.019531 15.585938 Z M 63.621094 15.949219 "/>
<path style=" stroke:none;fill-rule:nonzero;fill:rgb(0%,0%,0%);fill-opacity:1;" d="M 43.355469 18.1875 C 43.234375 18.253906 43.0625 18.492188 42.972656 18.71875 C 42.769531 19.183594 42.972656 19.839844 43.382812 20.050781 C 43.519531 20.132812 45.277344 20.1875 47.5 20.1875 C 49.726562 20.1875 51.484375 20.132812 51.617188 20.050781 C 51.753906 19.984375 51.9375 19.746094 52.03125 19.519531 C 52.234375 19.054688 52.03125 18.402344 51.617188 18.1875 C 51.3125 18.011719 43.636719 18.011719 43.355469 18.1875 Z M 43.355469 18.1875 "/>
<path style=" stroke:none;fill-rule:nonzero;fill:rgb(0%,0%,0%);fill-opacity:1;" d="M 46.433594 71.070312 C 45.421875 71.402344 44.621094 72.109375 44.183594 73.082031 C 43.863281 73.789062 43.824219 75.148438 44.089844 75.90625 C 44.753906 77.769531 47.128906 78.746094 48.992188 77.917969 C 51.726562 76.691406 51.832031 72.695312 49.167969 71.320312 C 48.59375 71.019531 47.019531 70.871094 46.433594 71.070312 Z M 48.074219 73.363281 C 48.539062 73.601562 48.832031 74.039062 48.832031 74.546875 C 48.832031 75.148438 48.527344 75.585938 47.953125 75.824219 C 47.097656 76.1875 46.167969 75.507812 46.167969 74.546875 C 46.179688 73.574219 47.21875 72.921875 48.074219 73.363281 Z M 48.074219 73.363281 "/>
</g>
</svg>
