<?xml version="1.0" encoding="utf-8"?>
<!-- Generator: Adobe Illustrator 24.3.0, SVG Export Plug-In . SVG Version: 6.00 Build 0)  -->
<svg version="1.1" id="Слой_1" xmlns="http://www.w3.org/2000/svg" xmlns:xlink="http://www.w3.org/1999/xlink" x="0px" y="0px"
	 viewBox="0 0 512 512" style="enable-background:new 0 0 512 512;" xml:space="preserve">
<style type="text/css">
	.st0{fill:none;stroke:#000000;stroke-width:15;stroke-miterlimit:10;}
</style>
<polygon class="st0" points="133,469.1 379,469.1 502,256 379,42.9 133,42.9 10,256 "/>
<g transform="translate(0.000000,512.000000) scale(0.100000,-0.100000)">
	<path d="M1637.5,3998.7c-76.3-14.8-150.1-75-186.3-151.3l-19.7-41.8l-1.8-838.8c-1.2-756.4-0.6-842.5,8.6-873.3
		c22.8-78.1,65.8-130.4,136.5-164.8l46.7-23.4h1122.3h1123l36.9,17.8c51,25.2,101.5,75,126.7,125.5l20.9,41.2v861v861l-20.9,43
		c-36.3,73.8-104.5,126.7-183.9,143.9C3806.5,4006.7,1680.5,4007.3,1637.5,3998.7z M3848.3,3851.1c18.4-9.2,38.1-25.8,49.2-41.8
		l18.4-26.4l1.8-615.6c1.2-603.3,1.2-615.6-9.8-603.9c-6.8,6.8-136.5,157.4-288.4,335.2s-282.3,327.8-288.4,333.3
		c-6.8,5.5-28.3,17.8-48,27.1c-32,14.8-41.2,16-89.2,13.5c-93.5-4.3-81.8,6.1-377.6-346.8c-141.4-168.5-260.8-312.4-265.7-319.2
		c-8.6-11.1-14.1-6.8-111.9,90.4c-59,57.8-115,108.2-131,116.2c-24,12.9-36.3,14.8-89.2,14.8c-52.3,0-65.8-2.5-92.2-14.8
		c-23.4-11.7-92.2-76.3-296.4-279.8l-266.3-264.4v740.4c0,490.8,2.5,749,6.1,763.8c12.3,42.4,54.7,81.8,99.6,90.4
		c14.8,3.1,503.7,4.9,1087.3,4.3l1061.5-0.6L3848.3,3851.1z M3245.7,3118.7c11.1-11.1,167.9-191.9,346.8-401.6l326.6-381.3v-97.2
		c0-105.8-4.9-127.3-35.7-160.5c-9.2-9.8-27.7-22.8-41.2-28.9c-23.4-11.1-66.4-11.7-1100.2-11.7c-1065.1,0-1076.2,0-1101.4,12.3
		c-14.1,6.8-31.4,18.4-38.7,26.4l-13.5,14.1l303.2,302.6c296.4,295.8,303.2,302.6,327.2,302.6c22.8,0,28.9-5.5,159.9-135.3
		c134.7-133.5,136.5-135.3,162.4-135.3c14.1,0,31.4,3.1,38.1,6.8c6.8,3.1,137.8,157.4,292.1,342.5
		c153.7,185.1,287.8,342.5,298.9,350.5C3197.1,3144.5,3219.8,3142,3245.7,3118.7z"/>
	<path d="M1219.3,2991.4c-17.8-4.3-30.7-12.3-41.2-25.8c-4.3-4.9-66.4-226.3-138.4-492l-130.4-482.1l-0.6-70.7
		c0-67,1.2-72.6,19.7-112.5c23.4-49.2,72-100.9,116.2-123c17.2-8.6,466.2-131.6,1066.4-292.7c962.4-257.7,1039.9-277.4,1086.1-277.4
		c54.1,0,100.2,12.3,141.4,38.7c38.7,24,86.1,80.6,100.2,118.1c19.7,52.3,117.5,419.4,117.5,440.3c0,27.7-34.4,60.9-64,60.9
		c-28.9,0-52.3-11.1-62.1-30.7c-4.3-8.6-32-103.9-61.5-212.2c-28.9-107.6-56.6-202.9-61.5-211.6c-19.7-37.5-68.9-68.3-109.5-68.3
		c-11.7,0-445.2,113.8-964.3,252.8c-1209.7,323.5-1118.6,298.3-1145.1,319.8c-26.4,22.1-47.4,63.3-47.4,94.1
		c0,12.3,57.8,239.8,129.1,504.9c71.3,264.4,129.1,492.6,129.1,506.1C1299.2,2969.8,1260.5,3000.6,1219.3,2991.4z"/>
</g>
</svg>
