<?xml version="1.0" encoding="UTF-8"?>
<svg xmlns="http://www.w3.org/2000/svg" xmlns:xlink="http://www.w3.org/1999/xlink" width="95px" height="95px" viewBox="0 0 95 95" version="1.1">
<g id="surface1">
<path style="fill:none;stroke-width:15;stroke-linecap:butt;stroke-linejoin:miter;stroke:rgb(0%,0%,0%);stroke-opacity:1;stroke-miterlimit:10;" d="M 133.010526 469.094737 L 378.989474 469.094737 L 502 256 L 378.989474 42.905263 L 133.010526 42.905263 L 10 256 Z M 133.010526 469.094737 " transform="matrix(0.185547,0,0,0.185547,0,0)"/>
<path style=" stroke:none;fill-rule:nonzero;fill:rgb(0%,0%,0%);fill-opacity:1;" d="M 30.382812 20.804688 C 28.96875 21.078125 27.597656 22.195312 26.925781 23.613281 L 26.5625 24.386719 L 26.527344 39.953125 C 26.503906 53.988281 26.515625 55.585938 26.6875 56.15625 C 27.109375 57.605469 27.90625 58.574219 29.21875 59.214844 L 30.085938 59.648438 L 71.746094 59.648438 L 72.433594 59.316406 C 73.378906 58.851562 74.316406 57.925781 74.78125 56.988281 L 75.171875 56.222656 L 75.171875 24.273438 L 74.78125 23.476562 C 74.109375 22.105469 72.84375 21.125 71.371094 20.804688 C 70.628906 20.65625 31.179688 20.644531 30.382812 20.804688 Z M 71.402344 23.542969 C 71.746094 23.714844 72.109375 24.023438 72.316406 24.320312 L 72.660156 24.808594 L 72.691406 36.230469 C 72.714844 47.425781 72.714844 47.652344 72.511719 47.4375 C 72.382812 47.3125 69.976562 44.515625 67.160156 41.21875 C 64.339844 37.917969 61.921875 35.136719 61.808594 35.03125 C 61.679688 34.929688 61.28125 34.703125 60.917969 34.53125 C 60.324219 34.253906 60.152344 34.234375 59.261719 34.28125 C 57.527344 34.359375 57.742188 34.167969 52.253906 40.714844 C 49.632812 43.839844 47.417969 46.511719 47.324219 46.636719 C 47.167969 46.84375 47.0625 46.761719 45.25 44.960938 C 44.15625 43.886719 43.117188 42.953125 42.820312 42.804688 C 42.375 42.5625 42.144531 42.527344 41.164062 42.527344 C 40.191406 42.527344 39.941406 42.574219 39.453125 42.804688 C 39.019531 43.019531 37.742188 44.21875 33.953125 47.996094 L 29.011719 52.902344 L 29.011719 39.164062 C 29.011719 30.058594 29.058594 25.265625 29.125 24.992188 C 29.355469 24.203125 30.140625 23.472656 30.972656 23.3125 C 31.246094 23.257812 40.320312 23.222656 51.148438 23.234375 L 70.84375 23.246094 Z M 60.222656 37.132812 C 60.429688 37.339844 63.339844 40.695312 66.65625 44.585938 L 72.71875 51.660156 L 72.71875 53.464844 C 72.71875 55.425781 72.625 55.824219 72.054688 56.441406 C 71.882812 56.625 71.542969 56.863281 71.289062 56.976562 C 70.855469 57.183594 70.058594 57.195312 50.878906 57.195312 C 31.113281 57.195312 30.910156 57.195312 30.441406 56.964844 C 30.179688 56.839844 29.859375 56.625 29.722656 56.476562 L 29.472656 56.214844 L 35.097656 50.601562 C 40.597656 45.113281 40.722656 44.984375 41.167969 44.984375 C 41.59375 44.984375 41.707031 45.085938 44.136719 47.496094 C 46.636719 49.972656 46.667969 50.007812 47.148438 50.007812 C 47.410156 50.007812 47.730469 49.949219 47.855469 49.878906 C 47.984375 49.824219 50.414062 46.960938 53.277344 43.527344 C 56.128906 40.089844 58.617188 37.171875 58.820312 37.023438 C 59.320312 36.65625 59.742188 36.699219 60.222656 37.132812 Z M 60.222656 37.132812 "/>
<path style=" stroke:none;fill-rule:nonzero;fill:rgb(0%,0%,0%);fill-opacity:1;" d="M 22.625 39.496094 C 22.292969 39.574219 22.054688 39.722656 21.859375 39.972656 C 21.78125 40.066406 20.628906 44.171875 19.292969 49.101562 L 16.871094 58.046875 L 16.859375 59.359375 C 16.859375 60.601562 16.882812 60.707031 17.226562 61.449219 C 17.660156 62.359375 18.5625 63.320312 19.382812 63.730469 C 19.703125 63.890625 28.03125 66.171875 39.167969 69.160156 C 57.027344 73.941406 58.464844 74.308594 59.320312 74.308594 C 60.324219 74.308594 61.179688 74.078125 61.945312 73.589844 C 62.664062 73.144531 63.542969 72.09375 63.804688 71.398438 C 64.167969 70.429688 65.984375 63.617188 65.984375 63.230469 C 65.984375 62.714844 65.347656 62.097656 64.796875 62.097656 C 64.261719 62.097656 63.828125 62.304688 63.644531 62.667969 C 63.566406 62.828125 63.050781 64.597656 62.503906 66.605469 C 61.96875 68.601562 61.453125 70.371094 61.363281 70.53125 C 60.996094 71.226562 60.082031 71.800781 59.332031 71.800781 C 59.113281 71.800781 51.070312 69.6875 41.4375 67.109375 C 18.992188 61.105469 20.683594 61.574219 20.191406 61.175781 C 19.703125 60.765625 19.3125 60 19.3125 59.429688 C 19.3125 59.199219 20.382812 54.980469 21.707031 50.058594 C 23.03125 45.15625 24.101562 40.921875 24.101562 40.671875 C 24.105469 39.894531 23.386719 39.324219 22.625 39.496094 Z M 22.625 39.496094 "/>
</g>
</svg>
