<?xml version="1.0" encoding="utf-8"?>
<!-- Generator: Adobe Illustrator 24.3.0, SVG Export Plug-In . SVG Version: 6.00 Build 0)  -->
<svg version="1.1" id="Слой_1" xmlns="http://www.w3.org/2000/svg" xmlns:xlink="http://www.w3.org/1999/xlink" x="0px" y="0px"
	 viewBox="0 0 512 512" style="enable-background:new 0 0 512 512;" xml:space="preserve">
<style type="text/css">
	.st0{fill:none;stroke:#000000;stroke-width:15;stroke-miterlimit:10;}
	.st1{stroke:#000000;stroke-width:0.2;stroke-miterlimit:10;}
</style>
<polygon class="st0" points="133,469.1 379,469.1 502,256 379,42.9 133,42.9 10,256 "/>
<g transform="translate(0.000000,512.000000) scale(0.100000,-0.100000)">
	<path class="st1" d="M1380.9,3862.1c-84.8-26.2-136.5-95.7-137-183c0-37.6,3.2-50.4,19.1-80.9c13.4-25.5,147.3-175.3,464.8-521
		l445.1-485.9l-24.9-26.2c-14.1-14.6-217.4-235.9-451.5-492.3c-292.7-319.5-429.8-473.8-439.3-494.1c-9.6-21-13.4-40.8-12.8-76.5
		c0-59.3,19.1-100.1,63.8-139.7c55.4-48.5-17.8-45.9,1054.6-44l959.6,1.9l34.4,19.1c28,15.3,123.1,116,545.2,575.7
		c366.7,399.1,515.8,566.8,529.9,592.3c16.6,31.9,19.1,42.7,19.1,87.3c0,40.1-3.2,57.4-14.1,77.8c-7.7,14.1-246.1,279.9-530.5,589.8
		c-415.1,452.7-523.5,567.5-550.2,582.8l-33.8,19.1l-962.7,1.3C1829.7,3866.6,1389.8,3864.7,1380.9,3862.1z M3210.1,3746.7
		c-36.3-45.3-965.9-1076.2-969.1-1075.6c-2.5,0.7-202.8,218.1-445.1,482.7c-455.2,496.7-461,503.7-450.8,543.8
		c5.1,20.5,33.8,54.9,51,61.8c7.7,3.2,422.1,5.7,921.3,5.7l908,0.7L3210.1,3746.7z M3562,3487.1
		c133.8-146.6,249.3-272.9,255.7-280.6l12.8-13.4l-788.7-886.9l-788.1-886.9h-421.4c-475.7,0-454-1.9-478.2,47.8
		c-17.3,35.7-11.4,65.7,19.1,100.7c12.8,14.6,226.3,247.3,473.8,517.8c247.3,269.7,682.9,750.5,967.3,1067.3
		c494.8,550.2,517.8,577.1,507.5,587.8c-6.4,7-8.9,12.1-7,12.1C3316.6,3753.1,3428.2,3633.2,3562,3487.1z M4120,2879
		c118.6-130.1,219.3-242.3,223.8-250c10.2-17.8,10.2-50.4,1.3-70.8c-10.9-23.6-1020.2-1121.6-1039.9-1131.1
		c-12.8-5.7-114.2-7.7-464.8-6.4l-447.6,1.9l751.7,846.1c413.2,465.4,753.7,846.7,755.5,846.7C3901.9,3115.5,4000.7,3009,4120,2879z
		"/>
</g>
<g transform="translate(0.000000,512.000000) scale(0.100000,-0.100000)">
	<path class="st1" d="M1329.4,3909.4c-87-26.8-140.1-98.2-140.6-187.8c0-38.6,3.3-51.7,19.7-83.1c13.8-26.2,151.1-179.9,477-534.5
		l456.7-498.6l-25.5-26.8c-14.4-15-223.1-242.1-463.3-505.2c-300.4-327.8-441-486.2-450.8-507.1c-9.8-21.6-13.8-41.9-13.1-78.5
		c0-60.9,19.7-102.7,65.4-143.3c56.9-49.7-18.3-47.1,1082.2-45.2l984.7,1.9l35.4,19.7c28.8,15.7,126.3,119.1,559.4,590.8
		c376.2,409.6,529.3,581.7,543.7,607.9c17.1,32.8,19.7,43.8,19.7,89.7c0,41.2-3.3,58.9-14.4,79.9c-7.9,14.4-252.6,287.3-544.4,605.3
		c-426,464.5-537.1,582.3-564.7,598l-34.7,19.7l-988,1.4C1790.1,3914,1338.6,3912.1,1329.4,3909.4z M3206.7,3791
		c-37.3-46.4-991.3-1104.5-994.5-1103.8c-2.6,0.7-208.1,223.8-456.7,495.3c-467.2,509.7-473.1,516.9-462.6,558.2
		c5.2,20.9,34.7,56.3,52.3,63.5c7.9,3.3,433.1,5.9,945.5,5.9l931.7,0.7L3206.7,3791z M3567.8,3524.7
		c137.4-150.5,255.9-280,262.4-287.9l13.1-13.8l-809.4-910.1l-808.7-910.1h-432.5c-488.1,0-465.9-1.9-490.7,49
		c-17.6,36.6-11.8,67.4,19.7,103.4c13.1,15,232.3,253.8,486.2,531.3c253.8,276.8,700.7,770.1,992.6,1095.3
		c507.8,564.7,531.3,592.2,520.9,603.2c-6.6,7.2-9.2,12.4-7.2,12.4C3315.9,3797.5,3430.4,3674.5,3567.8,3524.7z M4140.4,2900.5
		c121.7-133.5,225.1-248.6,229.7-256.5c10.5-18.3,10.5-51.7,1.4-72.6c-11.1-24.2-1046.9-1150.9-1067.2-1160.7
		c-13.1-5.9-117.1-7.9-477-6.6l-459.3,1.9l771.4,868.2c424,477.6,773.4,868.9,775.4,868.9C3916.6,3143.2,4018,3033.9,4140.4,2900.5z
		"/>
</g>
<g transform="translate(0.000000,512.000000) scale(0.100000,-0.100000)">
	<path class="st1" d="M1350.9,3888.8c-87-26.8-140.1-98.2-140.6-187.8c0-38.6,3.3-51.7,19.7-83.1c13.8-26.2,151.1-179.9,477-534.5
		l456.7-498.6l-25.5-26.8c-14.4-15-223.1-242.1-463.3-505.2c-300.4-327.8-441-486.2-450.8-507.1c-9.8-21.6-13.8-41.9-13.1-78.5
		c0-60.9,19.7-102.7,65.4-143.3c56.9-49.7-18.3-47.1,1082.2-45.2l984.7,1.9l35.4,19.7c28.8,15.7,126.3,119.1,559.4,590.8
		c376.3,409.6,529.3,581.7,543.7,607.9c17.1,32.8,19.7,43.8,19.7,89.7c0,41.2-3.3,58.9-14.4,79.9c-7.9,14.4-252.6,287.3-544.4,605.3
		c-426,464.5-537.1,582.3-564.7,598l-34.7,19.7l-988,1.4C1811.5,3893.4,1360.1,3891.4,1350.9,3888.8z M3228,3770.4
		c-37.3-46.4-991.3-1104.5-994.5-1103.8c-2.6,0.7-208.1,223.8-456.7,495.3c-467.2,509.7-473.1,516.9-462.6,558.2
		c5.2,20.9,34.7,56.3,52.3,63.5c7.9,3.3,433.1,5.9,945.5,5.9l931.7,0.7L3228,3770.4z M3589.3,3504.1
		c137.4-150.5,255.9-280,262.4-287.9l13.1-13.8l-809.4-910.1l-808.7-910.1h-432.5c-488.1,0-465.9-1.9-490.7,49
		c-17.6,36.6-11.8,67.4,19.7,103.4c13.1,15,232.3,253.8,486.2,531.3c253.8,276.8,700.7,770.1,992.6,1095.3
		c507.8,564.7,531.3,592.2,520.9,603.2c-6.6,7.2-9.2,12.4-7.2,12.4C3337.4,3776.9,3451.8,3653.9,3589.3,3504.1z M4161.8,2879.8
		c121.7-133.5,225.1-248.6,229.7-256.5c10.5-18.3,10.5-51.7,1.4-72.6c-11.1-24.2-1046.9-1150.9-1067.2-1160.7
		c-13.1-5.9-117.1-7.9-477-6.6l-459.3,1.9l771.4,868.2c424,477.6,773.4,868.9,775.4,868.9C3938,3122.6,4039.5,3013.4,4161.8,2879.8z
		"/>
</g>
</svg>
