<?xml version="1.0" encoding="UTF-8"?>
<svg xmlns="http://www.w3.org/2000/svg" xmlns:xlink="http://www.w3.org/1999/xlink" width="95px" height="95px" viewBox="0 0 95 95" version="1.1">
<g id="surface1">
<path style="fill:none;stroke-width:15;stroke-linecap:butt;stroke-linejoin:miter;stroke:rgb(0%,0%,0%);stroke-opacity:1;stroke-miterlimit:10;" d="M 133.010526 469.094737 L 378.989474 469.094737 L 502 256 L 378.989474 42.905263 L 133.010526 42.905263 L 10 256 Z M 133.010526 469.094737 " transform="matrix(0.185547,0,0,0.185547,0,0)"/>
<path style="fill-rule:nonzero;fill:rgb(0%,0%,0%);fill-opacity:1;stroke-width:0.2;stroke-linecap:butt;stroke-linejoin:miter;stroke:rgb(0%,0%,0%);stroke-opacity:1;stroke-miterlimit:10;" d="M 1380.842105 3862.105263 C 1296 3836 1244.421053 3766.315789 1244 3679.157895 C 1244 3641.473684 1247.157895 3628.631579 1262.947368 3598.105263 C 1276.421053 3572.631579 1410.315789 3422.947368 1727.789474 3077.263158 L 2172.842105 2591.368421 L 2148 2565.052632 C 2133.894737 2550.526316 1930.526316 2329.263158 1696.421053 2072.842105 C 1403.789474 1753.263158 1266.736842 1598.947368 1257.263158 1578.736842 C 1247.578947 1557.684211 1243.789474 1537.894737 1244.421053 1502.105263 C 1244.421053 1442.947368 1263.578947 1402.105263 1308.210526 1362.526316 C 1363.578947 1314.105263 1290.315789 1316.631579 2362.736842 1318.526316 L 3322.315789 1320.421053 L 3356.842105 1339.578947 C 3384.842105 1354.736842 3480 1455.578947 3901.894737 1915.157895 C 4268.631579 2314.315789 4417.894737 2482.105263 4432 2507.578947 C 4448.421053 2539.368421 4450.947368 2550.105263 4450.947368 2594.736842 C 4450.947368 2634.947368 4447.789474 2652.210526 4436.842105 2672.631579 C 4429.263158 2686.736842 4190.736842 2952.421053 3906.315789 3262.315789 C 3491.368421 3715.157895 3382.947368 3829.894737 3356.210526 3845.263158 L 3322.315789 3864.210526 L 2359.789474 3865.684211 C 1829.684211 3866.526316 1389.894737 3864.631579 1380.842105 3862.105263 Z M 3210.105263 3746.736842 C 3173.894737 3701.473684 2244.210526 2670.526316 2241.052632 2671.157895 C 2238.526316 2671.789474 2038.105263 2889.263158 1796 3153.894737 C 1340.631579 3650.526316 1334.947368 3657.473684 1345.052632 3697.684211 C 1350.105263 3718.105263 1378.947368 3752.421053 1396 3759.368421 C 1403.789474 3762.526316 1818.105263 3765.052632 2317.473684 3765.052632 L 3225.473684 3765.894737 Z M 3562.105263 3487.157895 C 3695.789474 3340.421053 3811.368421 3214.105263 3817.684211 3206.526316 L 3830.526316 3193.052632 L 3041.894737 2306.105263 L 2253.684211 1419.368421 L 1832.210526 1419.368421 C 1356.631579 1419.368421 1378.315789 1417.473684 1354.105263 1467.157895 C 1336.842105 1502.736842 1342.736842 1532.842105 1373.263158 1567.789474 C 1386.105263 1582.315789 1599.578947 1815.157895 1846.947368 2085.684211 C 2094.315789 2355.368421 2529.894737 2836 2814.315789 3152.842105 C 3309.052632 3703.157895 3332 3729.894737 3321.894737 3740.631579 C 3315.368421 3747.789474 3312.842105 3752.842105 3314.736842 3752.842105 C 3316.631579 3753.052632 3428.210526 3633.263158 3562.105263 3487.157895 Z M 4120 2878.947368 C 4238.526316 2748.842105 4339.368421 2636.631579 4343.789474 2629.052632 C 4354.105263 2611.157895 4354.105263 2578.526316 4345.052632 2558.105263 C 4334.105263 2534.526316 3324.842105 1436.631579 3305.263158 1427.157895 C 3292.421053 1421.473684 3190.947368 1419.368421 2840.421053 1420.631579 L 2392.842105 1422.526316 L 3144.421053 2268.631579 C 3557.684211 2734.105263 3898.105263 3115.368421 3900 3115.368421 C 3901.894737 3115.578947 4000.631579 3009.052632 4120 2878.947368 Z M 4120 2878.947368 " transform="matrix(0.0185547,0,0,-0.0185547,0,95)"/>
<path style="fill-rule:nonzero;fill:rgb(0%,0%,0%);fill-opacity:1;stroke-width:0.2;stroke-linecap:butt;stroke-linejoin:miter;stroke:rgb(0%,0%,0%);stroke-opacity:1;stroke-miterlimit:10;" d="M 1329.473684 3909.473684 C 1242.315789 3882.526316 1189.263158 3811.157895 1188.842105 3721.684211 C 1188.842105 3682.947368 1192 3669.894737 1208.421053 3638.526316 C 1222.315789 3612.210526 1359.578947 3458.526316 1685.473684 3104 L 2142.105263 2605.473684 L 2116.631579 2578.526316 C 2102.315789 2563.578947 1893.684211 2336.421053 1653.473684 2073.473684 C 1353.052632 1745.684211 1212.421053 1587.157895 1202.526316 1566.315789 C 1192.842105 1544.631579 1188.842105 1524.421053 1189.473684 1487.789474 C 1189.473684 1426.947368 1209.263158 1385.052632 1254.947368 1344.421053 C 1311.789474 1294.736842 1236.631579 1297.473684 2337.052632 1299.368421 L 3321.894737 1301.263158 L 3357.263158 1320.842105 C 3386.105263 1336.631579 3483.578947 1440 3916.631579 1911.789474 C 4292.842105 2321.263158 4445.894737 2493.473684 4460.210526 2519.578947 C 4477.473684 2552.421053 4480 2563.368421 4480 2609.263158 C 4480 2650.526316 4476.631579 2668.210526 4465.684211 2689.263158 C 4457.684211 2703.578947 4213.052632 2976.421053 3921.263158 3294.526316 C 3495.157895 3758.947368 3384 3876.842105 3356.421053 3892.421053 L 3321.894737 3912.210526 L 2333.894737 3913.684211 C 1790.105263 3914.105263 1338.526316 3912 1329.473684 3909.473684 Z M 3206.736842 3790.947368 C 3169.473684 3744.631579 2215.368421 2686.526316 2212.210526 2687.157895 C 2209.684211 2688 2004 2910.947368 1755.578947 3182.526316 C 1288.210526 3692.210526 1282.315789 3699.368421 1292.842105 3740.631579 C 1298.105263 3761.684211 1327.578947 3797.052632 1345.263158 3804.210526 C 1353.052632 3807.578947 1778.315789 3810.105263 2290.736842 3810.105263 L 3222.315789 3810.736842 Z M 3567.789474 3524.631579 C 3705.263158 3374.105263 3823.789474 3244.631579 3830.105263 3236.842105 L 3843.368421 3222.947368 L 3033.894737 2312.842105 L 2225.263158 1402.736842 L 1792.631579 1402.736842 C 1304.631579 1402.736842 1326.736842 1400.842105 1301.894737 1451.789474 C 1284.421053 1488.421053 1290.105263 1519.157895 1321.684211 1555.157895 C 1334.736842 1570.105263 1553.894737 1809.052632 1808 2086.526316 C 2061.684211 2363.368421 2508.631579 2856.631579 2800.421053 3181.894737 C 3308.210526 3746.526316 3331.789474 3773.894737 3321.473684 3785.052632 C 3314.736842 3792.210526 3312.210526 3797.473684 3314.105263 3797.473684 C 3316 3797.473684 3430.315789 3674.526316 3567.789474 3524.631579 Z M 4140.421053 2900.421053 C 4262.105263 2766.947368 4365.473684 2652 4370.105263 2644 C 4380.631579 2625.684211 4380.631579 2592.210526 4371.578947 2571.368421 C 4360.421053 2547.157895 3324.631579 1420.421053 3304.210526 1410.736842 C 3291.157895 1404.842105 3187.157895 1402.736842 2827.368421 1404 L 2368 1405.894737 L 3139.368421 2274.105263 C 3563.368421 2751.789474 3912.842105 3143.157895 3914.736842 3143.157895 C 3916.631579 3143.157895 4018.105263 3033.894737 4140.421053 2900.421053 Z M 4140.421053 2900.421053 " transform="matrix(0.0185547,0,0,-0.0185547,0,95)"/>
<path style="fill-rule:nonzero;fill:rgb(0%,0%,0%);fill-opacity:1;stroke-width:0.2;stroke-linecap:butt;stroke-linejoin:miter;stroke:rgb(0%,0%,0%);stroke-opacity:1;stroke-miterlimit:10;" d="M 1350.947368 3888.842105 C 1264 3861.894737 1210.736842 3790.526316 1210.315789 3701.052632 C 1210.315789 3662.315789 1213.684211 3649.263158 1230.105263 3617.894737 C 1243.789474 3591.789474 1381.052632 3437.894737 1706.947368 3083.368421 L 2163.789474 2584.842105 L 2138.105263 2557.894737 C 2123.789474 2542.947368 1915.157895 2316 1674.947368 2052.842105 C 1374.526316 1725.052632 1233.894737 1566.526316 1224 1545.684211 C 1214.315789 1524 1210.315789 1503.789474 1210.947368 1467.157895 C 1210.947368 1406.315789 1230.736842 1364.421053 1276.421053 1324 C 1333.263158 1274.105263 1258.105263 1276.842105 2358.526316 1278.736842 L 3343.368421 1280.631579 L 3378.736842 1300.210526 C 3407.578947 1316 3505.052632 1419.368421 3938.105263 1891.157895 C 4314.315789 2300.631579 4467.368421 2472.842105 4481.894737 2498.947368 C 4498.947368 2531.789474 4501.473684 2542.736842 4501.473684 2588.631579 C 4501.473684 2629.894737 4498.105263 2647.578947 4487.157895 2668.631579 C 4479.157895 2682.947368 4234.526316 2956 3942.736842 3273.894737 C 3516.631579 3738.315789 3405.684211 3856.210526 3378.105263 3872 L 3343.368421 3891.578947 L 2355.368421 3893.052632 C 1811.578947 3893.473684 1360 3891.368421 1350.947368 3888.842105 Z M 3228 3770.315789 C 3190.736842 3724 2236.631579 2665.894737 2233.473684 2666.526316 C 2230.947368 2667.368421 2025.473684 2890.315789 1776.842105 3161.894737 C 1309.684211 3671.578947 1303.789474 3678.736842 1314.105263 3720 C 1319.368421 3741.052632 1348.842105 3776.421053 1366.526316 3783.578947 C 1374.315789 3786.947368 1799.578947 3789.473684 2312 3789.473684 L 3243.789474 3790.105263 Z M 3589.263158 3504 C 3726.736842 3353.684211 3845.263158 3224 3851.789474 3216.210526 L 3864.842105 3202.315789 L 3055.368421 2292.210526 L 2246.736842 1382.105263 L 1814.105263 1382.105263 C 1326.105263 1382.105263 1348.210526 1380.210526 1323.578947 1431.157895 C 1305.894737 1467.789474 1311.789474 1498.526316 1343.157895 1534.526316 C 1356.210526 1549.684211 1575.578947 1788.421053 1829.473684 2065.894737 C 2083.157895 2342.736842 2530.105263 2836 2821.894737 3161.263158 C 3329.894737 3725.894737 3353.263158 3753.473684 3342.947368 3764.421053 C 3336.210526 3771.578947 3333.684211 3776.842105 3335.789474 3776.842105 C 3337.473684 3776.842105 3451.789474 3653.894737 3589.263158 3504 Z M 4161.894737 2879.789474 C 4283.578947 2746.315789 4386.947368 2631.157895 4391.578947 2623.368421 C 4402.105263 2605.052632 4402.105263 2571.578947 4392.842105 2550.736842 C 4381.894737 2526.526316 3345.894737 1399.789474 3325.684211 1389.894737 C 3312.631579 1384 3208.631579 1382.105263 2848.631579 1383.368421 L 2389.473684 1385.263158 L 3160.842105 2253.473684 C 3584.842105 2731.157895 3934.105263 3122.315789 3936.210526 3122.315789 C 3938.105263 3122.526316 4039.578947 3013.473684 4161.894737 2879.789474 Z M 4161.894737 2879.789474 " transform="matrix(0.0185547,0,0,-0.0185547,0,95)"/>
</g>
</svg>
