<?xml version="1.0" encoding="utf-8"?>
<!-- Generator: Adobe Illustrator 24.3.0, SVG Export Plug-In . SVG Version: 6.00 Build 0)  -->
<svg version="1.1" id="Слой_1" xmlns="http://www.w3.org/2000/svg" xmlns:xlink="http://www.w3.org/1999/xlink" x="0px" y="0px"
	 viewBox="0 0 512 512" style="enable-background:new 0 0 512 512;" xml:space="preserve">
<style type="text/css">
	.st0{fill:none;stroke:#000000;stroke-width:15;stroke-miterlimit:10;}
	.st1{stroke:#000000;stroke-width:4;stroke-miterlimit:10;}
</style>
<polygon class="st0" points="133,469.1 379,469.1 502,256 379,42.9 133,42.9 10,256 "/>
<path class="st1" d="M411.6,135.9c-0.8-2.7-4.9-6.9-7.7-7.7c-2.8-0.8-219.8-0.8-222.5,0c-2.4,0.8-6.6,5.1-7.4,7.6
	c-0.3,1-0.5,16.6-0.6,37.4c-44.6,0.1-82.5,0.3-83.6,0.6c-2.5,0.8-6.7,5.2-7.5,7.8c-0.9,3-0.9,150.6,0,153.6c0.8,2.8,5,7,7.8,7.8
	c1.6,0.5,13.3,0.6,47.6,0.6h45.5v8.1v8l-4.5,0.3c-5.4,0.3-9.8,2.1-13.4,5.5c-3.2,2.9-5.8,8.3-6.2,12.7c-0.3,3.1-0.2,3.5,1,4.7
	l1.3,1.3h42.2h42.2l1.3-1.3c1.2-1.2,1.3-1.5,1-4.7c-0.5-4.5-3-9.8-6.2-12.7c-3.7-3.5-8-5.2-13.4-5.5l-4.5-0.3v-8v-8.1h45.5
	c34.2,0,46-0.2,47.6-0.6c2.8-0.8,7-5,7.8-7.8c0.4-1.2,0.6-26.7,0.6-56.6h78.9l0,0c2.5,0,5.1-0.1,7.6-0.1
	C412.4,248.4,412.3,138.5,411.6,135.9z M231.7,368.7c2.3,0.7,7.4,5.3,7.4,6.7c0,0.7-3.6,0.8-35.5,0.8s-35.5-0.1-35.5-0.8
	c0-1.2,5.1-6,7.1-6.6C177.8,368,228.9,367.9,231.7,368.7z M191.4,360v-8.1v-8.1h12.2h12.2v8.1v8.1h-12.2H191.4z M317.2,330.3
	c0,2.3-0.2,3-1.3,4.1l-1.2,1.3H203.6H92.4l-1.2-1.3c-1.1-1-1.3-1.7-1.3-4.1v-2.8h113.6h113.6v2.8H317.2z M317.2,319.4H203.6H89.9
	v-67.7v-67.8l1.3-1.2l1.2-1.3h81.1c-0.1,34.8,0,79.7,0.3,97.4c2.7,0,5.4-0.1,8.1-0.1c0.1,0,0.3,0,0.4,0h134.9V319.4z M317.2,251.7
	v19.1H181.5v-89.4h22.1h111.2l1.2,1.3l1.3,1.2L317.2,251.7L317.2,251.7z M404.2,270.8h-78.8c0.1-41.3-0.2-87.4-0.6-89.1
	c-0.8-2.8-5-7-7.8-7.8c-1.6-0.5-73.1-0.7-135.5-0.6V138l1.2-1.2l1.2-1.2h217.9l1.2,1.2l1.2,1.2L404.2,270.8L404.2,270.8z"/>
</svg>
