<?xml version="1.0" encoding="utf-8"?>
<!-- Generator: Adobe Illustrator 24.3.0, SVG Export Plug-In . SVG Version: 6.00 Build 0)  -->
<svg version="1.1" id="Слой_1" xmlns="http://www.w3.org/2000/svg" xmlns:xlink="http://www.w3.org/1999/xlink" x="0px" y="0px"
	 viewBox="0 0 512 512" style="enable-background:new 0 0 512 512;" xml:space="preserve">
<style type="text/css">
	.st0{fill:none;stroke:#000000;stroke-width:15;stroke-miterlimit:10;}
	.st1{fill:none;stroke:#000000;stroke-width:13;stroke-miterlimit:10;}
	.st2{fill:none;stroke:#000000;stroke-width:11;stroke-miterlimit:10;}
</style>
<polygon class="st0" points="133,469.1 379,469.1 502,256 379,42.9 133,42.9 10,256 "/>
<g transform="matrix(1.3333334 0 0 1.3333334 0 0)">
</g>
<path class="st1" d="M203.3,90.1c-28.1,0-47.5,1.7-75.6,7.4c-25.7,5.1-17.9,45,11.1,38.7c29-6.3,50.8-8.4,64.5-8.4
	c13.8,0,89.9-3.7,143.8,39.7c53.9,43.4,66.6,80.9,69.8,104.8s-4.8,47.1-13.2,57.1c-16.3-14.8-100.5-99.4-100.5-99.4L153.1,378.5
	c0,0-11.1-4.3-17.4-10.6c9.5-7.4,78.3-76.6,78.3-76.6l-34.9-33.7c0,0-69.9,69.2-78.9,78.1c-10-15.4-15.9-24.6-15.9-52.3
	c0-16.5,9.6-49,31-72.2c22.9-24.9,33.2-29.3,43.4-35.4c8.1-4.8,5.7-13.2-5.1-8.3c-6.1,2.7-19.3,8.9-41.8,31.4
	C99.7,210.9,71,243.1,71,292.2c0,40.8,17.4,59.3,32.8,75.2c15.4,15.9,77.2,54.5,148.1,54.5s193.6-39.2,193.6-142.9
	C445.6,180,345.9,90.1,203.3,90.1z"/>
<circle class="st2" cx="258.3" cy="198" r="22.4"/>
</svg>
