<?xml version="1.0" encoding="UTF-8"?>
<svg xmlns="http://www.w3.org/2000/svg" xmlns:xlink="http://www.w3.org/1999/xlink" width="95px" height="95px" viewBox="0 0 95 95" version="1.1">
<g id="surface1">
<path style="fill:none;stroke-width:15;stroke-linecap:butt;stroke-linejoin:miter;stroke:rgb(0%,0%,0%);stroke-opacity:1;stroke-miterlimit:10;" d="M 133.010526 469.094737 L 378.989474 469.094737 L 502 256 L 378.989474 42.905263 L 133.010526 42.905263 L 10 256 Z M 133.010526 469.094737 " transform="matrix(0.185547,0,0,0.185547,0,0)"/>
<path style="fill:none;stroke-width:13;stroke-linecap:butt;stroke-linejoin:miter;stroke:rgb(0%,0%,0%);stroke-opacity:1;stroke-miterlimit:10;" d="M 203.305263 90.105263 C 175.2 90.105263 155.810526 91.789474 127.705263 97.494737 C 102 102.610526 109.810526 142.505263 138.8 136.189474 C 167.810526 129.894737 189.6 127.789474 203.305263 127.789474 C 217.094737 127.789474 293.2 124.105263 347.094737 167.494737 C 401.010526 210.905263 413.705263 248.4 416.905263 272.294737 C 420.105263 296.210526 412.105263 319.410526 403.705263 329.410526 C 387.410526 314.610526 303.2 230 303.2 230 L 153.094737 378.505263 C 153.094737 378.505263 142 374.189474 135.705263 367.894737 C 145.2 360.505263 214 291.305263 214 291.305263 L 179.094737 257.6 C 179.094737 257.6 109.2 326.8 100.189474 335.705263 C 90.189474 320.294737 84.294737 311.094737 84.294737 283.389474 C 84.294737 266.905263 93.894737 234.4 115.305263 211.2 C 138.189474 186.294737 148.505263 181.894737 158.694737 175.789474 C 166.8 170.989474 164.4 162.589474 153.6 167.494737 C 147.494737 170.189474 134.294737 176.4 111.789474 198.905263 C 99.705263 210.905263 70.989474 243.094737 70.989474 292.210526 C 70.989474 333.010526 88.4 351.494737 103.789474 367.410526 C 119.2 383.305263 181.010526 421.894737 251.894737 421.894737 C 322.8 421.894737 445.494737 382.694737 445.494737 278.989474 C 445.6 180 345.894737 90.105263 203.305263 90.105263 Z M 203.305263 90.105263 " transform="matrix(0.185547,0,0,0.185547,0,0)"/>
<path style="fill:none;stroke-width:11;stroke-linecap:butt;stroke-linejoin:miter;stroke:rgb(0%,0%,0%);stroke-opacity:1;stroke-miterlimit:10;" d="M 280.694737 198 C 280.694737 210.378947 270.673684 220.4 258.294737 220.4 C 245.936842 220.4 235.894737 210.378947 235.894737 198 C 235.894737 185.621053 245.936842 175.6 258.294737 175.6 C 270.673684 175.6 280.694737 185.621053 280.694737 198 Z M 280.694737 198 " transform="matrix(0.185547,0,0,0.185547,0,0)"/>
</g>
</svg>
