<?xml version="1.0" encoding="UTF-8"?>
<svg xmlns="http://www.w3.org/2000/svg" xmlns:xlink="http://www.w3.org/1999/xlink" width="95px" height="95px" viewBox="0 0 95 95" version="1.1">
<g id="surface1">
<path style="fill:none;stroke-width:15;stroke-linecap:butt;stroke-linejoin:miter;stroke:rgb(0%,0%,0%);stroke-opacity:1;stroke-miterlimit:10;" d="M 133.010526 469.094737 L 378.989474 469.094737 L 502 256 L 378.989474 42.905263 L 133.010526 42.905263 L 10 256 Z M 133.010526 469.094737 " transform="matrix(0.185547,0,0,0.185547,0,0)"/>
<path style=" stroke:none;fill-rule:nonzero;fill:rgb(0%,0%,0%);fill-opacity:1;" d="M 32.257812 19.597656 C 26.695312 20.441406 22.140625 24.164062 20.328125 29.367188 C 19.683594 31.203125 19.585938 31.839844 19.585938 34.285156 C 19.585938 36.382812 19.605469 36.601562 19.902344 37.726562 C 20.242188 39.050781 20.777344 40.425781 21.332031 41.441406 C 21.671875 42.054688 21.691406 42.128906 21.59375 42.644531 C 21.351562 43.898438 21.167969 46.019531 21.167969 47.503906 C 21.167969 59.152344 28.695312 69.304688 39.851562 72.734375 C 43.652344 73.890625 48.449219 74.15625 52.363281 73.410156 C 52.878906 73.3125 52.953125 73.324219 53.675781 73.730469 C 54.734375 74.308594 55.96875 74.789062 57.324219 75.128906 C 58.394531 75.402344 58.65625 75.421875 60.722656 75.421875 C 63.167969 75.421875 63.804688 75.324219 65.640625 74.679688 C 69.855469 73.207031 73.199219 69.863281 74.675781 65.644531 C 75.320312 63.808594 75.417969 63.175781 75.417969 60.726562 C 75.417969 58.628906 75.394531 58.410156 75.101562 57.285156 C 74.761719 55.960938 74.226562 54.585938 73.667969 53.570312 C 73.328125 52.957031 73.308594 52.882812 73.40625 52.367188 C 73.648438 51.113281 73.835938 48.992188 73.835938 47.507812 C 73.835938 40.394531 71.058594 33.738281 66 28.746094 C 61.0625 23.863281 54.496094 21.175781 47.5 21.175781 C 46.015625 21.175781 43.898438 21.359375 42.640625 21.601562 C 42.125 21.699219 42.050781 21.675781 41.4375 21.339844 C 40.378906 20.761719 39.230469 20.3125 37.886719 19.953125 C 36.738281 19.644531 36.457031 19.613281 34.609375 19.59375 C 33.492188 19.566406 32.441406 19.578125 32.257812 19.597656 Z M 36.847656 23.347656 C 38.089844 23.675781 39 24.058594 40.144531 24.734375 C 41.3125 25.433594 41.554688 25.46875 43.292969 25.117188 C 47.597656 24.242188 52.328125 24.757812 56.46875 26.546875 C 59.527344 27.878906 62.109375 29.738281 64.46875 32.316406 C 68.542969 36.796875 70.738281 43.144531 70.246094 49.066406 C 70.171875 49.917969 70.007812 51.109375 69.886719 51.710938 C 69.539062 53.445312 69.570312 53.6875 70.269531 54.855469 C 71.320312 56.628906 71.832031 58.265625 71.941406 60.191406 C 72.300781 66.757812 66.753906 72.308594 60.1875 71.945312 C 58.261719 71.835938 56.625 71.324219 54.851562 70.273438 C 53.683594 69.574219 53.441406 69.542969 51.707031 69.890625 C 47.402344 70.765625 42.671875 70.25 38.527344 68.460938 C 35.46875 67.128906 32.890625 65.269531 30.53125 62.691406 C 26.457031 58.214844 24.257812 51.863281 24.75 45.941406 C 24.824219 45.089844 24.992188 43.902344 25.109375 43.300781 C 25.457031 41.5625 25.425781 41.320312 24.726562 40.152344 C 23.679688 38.382812 23.164062 36.742188 23.054688 34.820312 C 22.75 29.226562 26.707031 24.265625 32.34375 23.183594 C 33.460938 22.976562 35.722656 23.050781 36.847656 23.347656 Z M 36.847656 23.347656 "/>
<path style=" stroke:none;fill-rule:nonzero;fill:rgb(0%,0%,0%);fill-opacity:1;" d="M 45.644531 32.929688 C 43.433594 33.335938 42.277344 33.730469 40.789062 34.601562 C 39.753906 35.203125 38.320312 36.582031 37.785156 37.488281 C 37.152344 38.570312 36.878906 39.464844 36.8125 40.6875 C 36.78125 41.519531 36.8125 41.945312 36.957031 42.4375 C 37.535156 44.457031 39.242188 46.011719 42.355469 47.332031 C 42.859375 47.550781 44.671875 48.226562 46.398438 48.828125 C 50.964844 50.445312 51.816406 50.804688 53.085938 51.667969 C 54.265625 52.46875 54.832031 53.4375 54.660156 54.359375 C 54.328125 56.171875 52.546875 57.65625 49.90625 58.335938 C 48.59375 58.671875 46.410156 58.671875 45.097656 58.335938 C 42.933594 57.777344 41.21875 56.597656 40.617188 55.242188 C 40.496094 54.96875 40.355469 54.410156 40.300781 53.996094 C 40.136719 52.882812 39.625 52.324219 38.664062 52.226562 C 38.214844 52.179688 38.027344 52.226562 37.632812 52.457031 C 36.925781 52.871094 36.75 53.320312 36.824219 54.488281 C 36.925781 56.191406 37.625 57.625 39.042969 59.035156 C 40.410156 60.386719 42.429688 61.4375 44.550781 61.898438 C 45.871094 62.179688 49.136719 62.179688 50.449219 61.898438 C 52.613281 61.425781 54.582031 60.410156 55.957031 59.035156 C 57.464844 57.546875 58.085938 56.183594 58.1875 54.269531 C 58.261719 52.425781 57.855469 51.332031 56.558594 49.964844 C 54.972656 48.292969 53.0625 47.355469 47.214844 45.34375 C 43.675781 44.121094 42.167969 43.421875 41.175781 42.527344 C 40.488281 41.902344 40.246094 41.398438 40.335938 40.765625 C 40.585938 38.921875 42.386719 37.378906 45.097656 36.679688 C 45.832031 36.484375 46.34375 36.441406 47.5 36.441406 C 48.660156 36.441406 49.171875 36.484375 49.90625 36.679688 C 52.070312 37.238281 53.785156 38.417969 54.386719 39.773438 C 54.507812 40.046875 54.648438 40.605469 54.703125 41.019531 C 54.867188 42.132812 55.378906 42.691406 56.339844 42.789062 C 56.789062 42.832031 56.976562 42.789062 57.371094 42.558594 C 58.078125 42.144531 58.253906 41.695312 58.179688 40.527344 C 58.078125 38.820312 57.378906 37.390625 55.960938 35.980469 C 54.617188 34.636719 52.652344 33.609375 50.5625 33.140625 C 49.761719 32.960938 46.285156 32.808594 45.644531 32.929688 Z M 45.644531 32.929688 "/>
</g>
</svg>
