<?xml version="1.0" encoding="utf-8"?>
<!-- Generator: Adobe Illustrator 24.3.0, SVG Export Plug-In . SVG Version: 6.00 Build 0)  -->
<svg version="1.1" id="Слой_1" xmlns="http://www.w3.org/2000/svg" xmlns:xlink="http://www.w3.org/1999/xlink" x="0px" y="0px"
	 viewBox="0 0 512 512" style="enable-background:new 0 0 512 512;" xml:space="preserve">
<style type="text/css">
	.st0{fill:none;stroke:#000000;stroke-width:15;stroke-miterlimit:10;}
</style>
<polygon class="st0" points="133,469.1 379,469.1 502,256 379,42.9 133,42.9 10,256 "/>
<g transform="translate(0.000000,512.000000) scale(0.100000,-0.100000)">
	<path d="M1738.5,4063.7c-299.7-45.3-545.3-246.1-643-526.5c-34.7-98.9-40-133.1-40-265c0-113.1,1.2-124.8,17.1-185.5
		c18.3-71.3,47.1-145.5,77.1-200.2c18.3-33,19.4-37.1,14.1-64.8c-13-67.7-23-182-23-262c0-627.7,405.7-1174.8,1007-1359.7
		c204.9-62.4,463.4-76.6,674.3-36.5c27.7,5.3,31.8,4.7,70.7-17.1c57.1-31.2,123.7-57.1,196.7-75.4c57.7-14.7,71.8-15.9,183.1-15.9
		c131.9,0,166.1,5.3,265,40c227.3,79.5,407.5,259.7,487,487c34.7,98.9,40,133.1,40,265c0,113.1-1.2,124.8-17.1,185.5
		c-18.3,71.3-47.1,145.5-77.1,200.2c-18.3,33-19.4,37.1-14.1,64.8c13,67.7,23,182,23,262c0,383.4-149.6,742-422.2,1011.1
		c-266.2,263.2-620.1,408.1-997,408.1c-80.1,0-194.3-10-262-23c-27.7-5.3-31.8-4.1-64.8,14.1c-57.1,31.2-119,55.4-191.4,74.8
		c-61.8,16.5-77.1,18.3-176.7,19.4C1805.1,4065.4,1748.5,4064.8,1738.5,4063.7z M1985.8,3861.7c67.1-17.7,116-38.3,177.8-74.8
		c63-37.7,76-39.5,169.6-20.6c232,47.1,487,19.4,710.2-77.1c164.9-71.8,303.9-172,431.1-310.9c219.6-241.4,338-583.6,311.5-902.7
		c-4.1-45.9-13-110.1-19.4-142.5c-18.8-93.6-17.1-106.6,20.6-169.6c56.5-95.4,84.2-183.7,90.1-287.4
		c19.4-353.9-279.7-653.1-633.6-633.6c-103.6,5.9-192,33.6-287.4,90.1c-63,37.7-76,39.5-169.6,20.6c-232-47.1-487-19.4-710.2,77.1
		c-164.9,71.8-303.9,172-431.1,310.9c-219.6,241.4-338,583.6-311.5,902.7c4.1,45.9,13,110.1,19.4,142.5
		c18.8,93.6,17.1,106.6-20.6,169.6c-56.5,95.4-84.2,183.7-90.1,287.4c-16.5,301.5,196.7,568.9,500.5,627.1
		C1803.3,3881.7,1925.2,3877.6,1985.8,3861.7z"/>
	<path d="M2459.9,3345.2c-119-21.8-181.4-43-261.5-90.1c-55.9-32.4-133.1-106.6-161.9-155.5c-34.2-58.3-48.9-106.6-52.4-172.5
		c-1.8-44.8,0-67.7,7.7-94.2c31.2-108.9,123.1-192.6,290.9-263.8c27.1-11.8,124.8-48.3,217.9-80.7
		c246.1-87.2,292.1-106.6,360.4-153.1c63.6-43,94.2-95.4,84.8-144.9c-17.7-97.8-113.7-177.8-256.2-214.3
		c-70.7-18.3-188.4-18.3-259.1,0c-116.6,30-209,93.6-241.4,166.7c-6.5,14.7-14.1,44.8-17.1,67.1c-8.8,60.1-36.5,90.1-88.3,95.4
		c-24.1,2.4-34.2,0-55.4-12.4c-38.3-22.4-47.7-46.5-43.6-109.5c5.3-91.9,43-169,119.5-245c73.6-73,182.6-129.6,296.8-154.3
		c71.3-15.3,247.3-15.3,318,0c116.6,25.3,222.6,80.1,296.8,154.3c81.3,80.1,114.8,153.7,120.1,256.7c4.1,99.5-17.7,158.4-87.7,232
		c-85.4,90.1-188.4,140.7-503.5,249.1c-190.8,66-272.1,103.6-325.6,151.9c-37.1,33.6-50.1,60.7-45.3,94.8
		c13.5,99.5,110.7,182.6,256.7,220.2c39.5,10.6,67.1,13,129.6,13s90.1-2.4,129.6-13c116.6-30,209-93.6,241.4-166.7
		c6.5-14.7,14.1-44.8,17.1-67.1c8.8-60.1,36.5-90.1,88.3-95.4c24.1-2.4,34.2,0,55.4,12.4c38.3,22.4,47.7,46.5,43.6,109.5
		c-5.3,91.9-43,169-119.5,245c-72.4,72.4-178.4,127.8-290.9,153.1C2681.9,3343.5,2494.6,3351.7,2459.9,3345.2z"/>
</g>
</svg>
