<?xml version="1.0" encoding="UTF-8"?>
<svg xmlns="http://www.w3.org/2000/svg" xmlns:xlink="http://www.w3.org/1999/xlink" width="95px" height="95px" viewBox="0 0 95 95" version="1.1">
<g id="surface1">
<path style="fill:none;stroke-width:15;stroke-linecap:butt;stroke-linejoin:miter;stroke:rgb(0%,0%,0%);stroke-opacity:1;stroke-miterlimit:10;" d="M 133.010526 469.094737 L 378.989474 469.094737 L 502 256 L 378.989474 42.905263 L 133.010526 42.905263 L 10 256 Z M 133.010526 469.094737 " transform="matrix(0.185547,0,0,0.185547,0,0)"/>
<path style=" stroke:none;fill-rule:nonzero;fill:rgb(0%,0%,0%);fill-opacity:1;" d="M 44.421875 10.769531 C 38.925781 12.003906 34.726562 15.957031 33.15625 21.40625 L 32.800781 22.621094 L 32.800781 50.175781 L 33.15625 51.390625 C 34.648438 56.53125 38.449219 60.335938 43.59375 61.828125 C 44.652344 62.136719 45.148438 62.183594 47.5 62.183594 C 49.855469 62.183594 50.351562 62.136719 51.410156 61.828125 C 56.554688 60.335938 60.355469 56.53125 61.847656 51.390625 L 62.203125 50.175781 L 62.203125 22.621094 L 61.847656 21.40625 C 60.371094 16.28125 56.585938 12.476562 51.488281 10.984375 C 49.992188 10.554688 45.960938 10.429688 44.421875 10.769531 Z M 50.117188 13.402344 C 50.792969 13.542969 51.902344 13.957031 52.808594 14.386719 C 55.457031 15.679688 57.136719 17.359375 58.429688 20.003906 C 59.628906 22.484375 59.707031 22.992188 59.78125 29.503906 L 59.84375 35.167969 L 51.195312 35.167969 L 51.195312 37.628906 L 59.816406 37.628906 L 59.816406 40.09375 L 51.195312 40.09375 L 51.195312 42.558594 L 59.816406 42.558594 L 59.816406 45.023438 L 51.195312 45.023438 L 51.195312 47.480469 L 59.660156 47.480469 L 59.660156 48.234375 C 59.660156 48.648438 59.613281 49.207031 59.566406 49.46875 L 59.472656 49.945312 L 51.191406 49.945312 L 51.191406 52.40625 L 54.886719 52.40625 C 56.917969 52.40625 58.578125 52.4375 58.578125 52.484375 C 58.578125 52.761719 57.703125 54.207031 57.039062 55.039062 C 55.390625 57.085938 52.882812 58.703125 50.359375 59.335938 C 48.710938 59.75 46.28125 59.75 44.632812 59.335938 C 42.109375 58.703125 39.597656 57.085938 37.953125 55.039062 C 37.292969 54.207031 36.414062 52.761719 36.414062 52.484375 C 36.414062 52.4375 38.074219 52.40625 40.109375 52.40625 L 43.800781 52.40625 L 43.800781 49.945312 L 35.535156 49.945312 L 35.429688 49.46875 C 35.382812 49.207031 35.335938 48.648438 35.335938 48.234375 L 35.335938 47.480469 L 43.800781 47.480469 L 43.800781 45.015625 L 35.179688 45.015625 L 35.179688 42.554688 L 43.800781 42.554688 L 43.800781 40.089844 L 35.179688 40.089844 L 35.179688 37.625 L 43.800781 37.625 L 43.800781 35.160156 L 35.148438 35.160156 L 35.226562 29.421875 C 35.289062 24.25 35.332031 23.570312 35.625 22.414062 C 36.535156 18.828125 38.828125 16.011719 42.199219 14.320312 C 44.589844 13.140625 47.253906 12.835938 50.117188 13.402344 Z M 50.117188 13.402344 "/>
<path style=" stroke:none;fill-rule:nonzero;fill:rgb(0%,0%,0%);fill-opacity:1;" d="M 27.796875 45.160156 C 27.796875 49.375 27.949219 50.65625 28.722656 53.070312 C 30.597656 58.917969 35.632812 63.9375 41.375 65.675781 L 42.574219 66.03125 L 42.574219 77.039062 L 38.570312 77.039062 C 34.769531 77.039062 34.554688 77.050781 34.261719 77.34375 C 33.96875 77.636719 33.953125 77.855469 33.953125 80.730469 C 33.953125 83.609375 33.96875 83.824219 34.261719 84.117188 C 34.570312 84.425781 34.769531 84.425781 47.5 84.425781 C 60.226562 84.425781 60.425781 84.425781 60.734375 84.117188 C 61.027344 83.824219 61.042969 83.609375 61.042969 80.730469 C 61.042969 77.855469 61.027344 77.636719 60.734375 77.34375 C 60.441406 77.050781 60.226562 77.039062 56.425781 77.039062 L 52.421875 77.039062 L 52.421875 66.03125 L 53.621094 65.675781 C 59.347656 63.953125 64.414062 58.902344 66.277344 53.070312 C 67.046875 50.65625 67.199219 49.375 67.199219 45.160156 L 67.199219 41.324219 L 64.734375 41.324219 L 64.734375 43.742188 C 64.734375 48.648438 64.273438 51.421875 63.058594 54.023438 C 60.886719 58.640625 56.761719 62.136719 51.882812 63.429688 C 43.894531 65.554688 35.476562 61.582031 31.933594 54.023438 C 30.71875 51.421875 30.257812 48.652344 30.257812 43.742188 L 30.257812 41.324219 L 27.792969 41.324219 L 27.792969 45.160156 Z M 49.960938 72.109375 L 49.960938 77.035156 L 45.039062 77.035156 L 45.039062 67.183594 L 49.960938 67.183594 Z M 58.582031 80.730469 L 58.582031 81.960938 L 36.417969 81.960938 L 36.417969 79.496094 L 58.582031 79.496094 Z M 58.582031 80.730469 "/>
</g>
</svg>
