<?xml version="1.0" encoding="utf-8"?>
<!-- Generator: Adobe Illustrator 24.3.0, SVG Export Plug-In . SVG Version: 6.00 Build 0)  -->
<svg version="1.1" id="Слой_1" xmlns="http://www.w3.org/2000/svg" xmlns:xlink="http://www.w3.org/1999/xlink" x="0px" y="0px"
	 viewBox="0 0 512 512" style="enable-background:new 0 0 512 512;" xml:space="preserve">
<style type="text/css">
	.st0{fill:none;stroke:#000000;stroke-width:15;stroke-miterlimit:10;}
</style>
<polygon class="st0" points="133,469.1 379,469.1 502,256 379,42.9 133,42.9 10,256 "/>
<g transform="translate(0.000000,512.000000) scale(0.100000,-0.100000)">
	<path d="M2394.1,4539.5c-296.2-66.4-522.6-279.6-607.2-573.2l-19.1-65.5v-742.5v-742.5l19.1-65.5c80.5-277.1,285.4-482,562.5-562.5
		c57.2-16.6,83.8-19.1,210.7-19.1s153.5,2.5,210.7,19.1c277.1,80.5,482,285.4,562.5,562.5l19.1,65.5v742.5v742.5l-19.1,65.5
		c-79.6,276.2-283.7,481.2-558.3,561.6C2694.4,4551.1,2477,4557.8,2394.1,4539.5z M2701,4397.7c36.5-7.5,96.2-29.9,145.2-53.1
		c142.7-69.7,233.1-160.1,302.8-302.8c64.7-133.6,68.9-160.9,73-511.8l3.3-305.3h-233.1h-233.1v-66.4v-66.4h232.3h232.3v-66.4v-66.4
		h-232.3h-232.3v-66.4v-66.4h232.3h232.3v-66.4v-66.4h-232.3h-232.3v-66.4V2561h228.1h228.1v-40.6c0-22.4-2.5-52.3-5-66.4l-5-25.7
		h-223.2h-223.2v-66.4v-66.4h199.1c109.5,0,199.1-1.7,199.1-4.1c0-14.9-47.3-92.9-83-137.7c-88.8-110.3-224-197.4-360-231.5
		c-88.8-22.4-219.8-22.4-308.6,0c-136.1,34-271.3,121.1-360,231.5c-35.7,44.8-83,122.8-83,137.7c0,2.5,89.6,4.1,199.1,4.1h199.1
		v66.4v66.4h-223.2h-222.3l-5.8,25.7c-2.5,14.1-5,44-5,66.4v40.6h228.1h228.1v66.4v66.4h-232.3h-232.3v66.4v66.4h232.3h232.3v66.4
		v66.4h-232.3h-232.3v66.4v66.4h232.3h232.3v66.4v66.4h-233.1h-233.1l4.1,309.4c3.3,278.7,5.8,315.2,21.6,377.5
		c48.9,193.3,172.6,345.1,354.2,436.4C2403.2,4411.8,2546.7,4428.3,2701,4397.7z"/>
	<path d="M1498.1,2686.2c0-227.3,8.3-296.2,49.8-426.4c101.2-315.2,372.5-585.7,681.9-679.4l64.7-19.1v-296.2v-297h-215.7
		c-204.9,0-216.5-0.8-232.3-16.6c-15.8-15.8-16.6-27.4-16.6-182.5s0.8-166.7,16.6-182.5c16.6-16.6,27.4-16.6,713.4-16.6
		s696.8,0,713.4,16.6c15.8,15.8,16.6,27.4,16.6,182.5s-0.8,166.7-16.6,182.5c-15.8,15.8-27.4,16.6-232.3,16.6h-215.7v297v296.2
		l64.7,19.1c308.6,92.9,581.5,365,681.9,679.4c41.5,130.2,49.8,199.1,49.8,426.4v206.6h-66.4h-66.4v-130.2
		c0-264.6-24.9-414-90.4-554.2c-117-248.9-339.3-437.2-602.3-506.9c-430.5-114.5-884.3,99.5-1075.1,506.9
		c-65.5,140.2-90.4,289.5-90.4,554.2v130.2h-66.4h-66.4V2686.2z M2692.7,1233.7V968.2H2560h-132.7v265.5v265.5H2560h132.7V1233.7z
		 M3157.3,769.1v-66.4H2560h-597.3v66.4v66.4H2560h597.3V769.1z"/>
</g>
</svg>
