<?xml version="1.0" encoding="utf-8"?>
<!-- Generator: Adobe Illustrator 24.3.0, SVG Export Plug-In . SVG Version: 6.00 Build 0)  -->
<svg version="1.1" id="Слой_1" xmlns="http://www.w3.org/2000/svg" xmlns:xlink="http://www.w3.org/1999/xlink" x="0px" y="0px"
	 viewBox="0 0 95 95" style="enable-background:new 0 0 95 95;" xml:space="preserve">
<style type="text/css">
	.st0{fill:none;stroke:#000000;stroke-width:2.7832;stroke-miterlimit:1.8555;}
</style>
<path class="st0" d="M24.7,87h45.6l22.8-39.5L70.3,8H24.7L1.9,47.5L24.7,87z"/>
<g transform="translate(0.000000,96.000000) scale(0.100000,-0.100000)">
	<path d="M257.5,688.7c-30-16.2-31.2-26.9-31.9-202.3c0-178.6,1.9-191.7,34.3-206.1c25.6-11.9,410.3-10.6,433.4,1.9
		c29.4,15,32.5,31.9,30.6,178l-1.9,134.3H500.4c-193,0-221.7-1.2-221.7-9.4c0-8.1,28.1-9.4,211.1-11.2l210.5-1.2V447.6
		c0-116.8-0.6-125.5-12.5-137.4s-20.6-12.5-212.3-12.5s-200.5,0.6-212.3,12.5c-11.9,11.9-12.5,20.6-12.5,174.9s0.6,163,12.5,174.9
		c11.9,11.9,20.6,12.5,209.8,12.5c116.2,0,201.7-2.5,208.6-6.2c6.2-3.1,14.4-14.4,17.5-25c7.5-20,18.1-24.4,23.7-9.4
		c6.2,15.6-10,46.8-29.4,56.2C669,701.2,280.6,701.2,257.5,688.7z"/>
	<path d="M340.5,502.6c-3.1-4.4,8.1-18.7,28.7-37.5l33.7-30l-34.3-30.6c-25.6-23.7-31.9-32.5-26.2-38.1c8.1-8.7,11.9-6.2,60,34.3
		c16.2,13.1,29.4,28.7,29.4,34.3c0,9.4-72.4,74.9-82.4,74.9C346.8,510.1,343,507,340.5,502.6z"/>
	<path d="M478.5,378.3c-9.4-14.4,8.7-18.7,69.3-16.9c50,1.2,61.8,3.7,61.8,11.2c0,7.5-11.9,10-63.7,11.2
		C504.1,385.2,481,383.3,478.5,378.3z"/>
</g>
</svg>
