<?xml version="1.0" encoding="UTF-8"?>
<svg xmlns="http://www.w3.org/2000/svg" xmlns:xlink="http://www.w3.org/1999/xlink" width="95px" height="95px" viewBox="0 0 95 95" version="1.1">
<g id="surface1">
<path style="fill:none;stroke-width:2.7832;stroke-linecap:butt;stroke-linejoin:miter;stroke:rgb(0%,0%,0%);stroke-opacity:1;stroke-miterlimit:1.8555;" d="M 24.699219 87 L 70.300781 87 L 93.101562 47.5 L 70.300781 8 L 24.699219 8 L 1.898438 47.5 Z M 24.699219 87 "/>
<path style=" stroke:none;fill-rule:nonzero;fill:rgb(0%,0%,0%);fill-opacity:1;" d="M 25.75 27.128906 C 22.75 28.75 22.628906 29.820312 22.558594 47.359375 C 22.558594 65.21875 22.75 66.53125 25.988281 67.96875 C 28.550781 69.160156 67.019531 69.03125 69.328125 67.78125 C 72.269531 66.28125 72.578125 64.589844 72.390625 49.980469 L 72.199219 36.550781 L 50.039062 36.550781 C 30.738281 36.550781 27.871094 36.671875 27.871094 37.488281 C 27.871094 38.300781 30.679688 38.429688 48.980469 38.609375 L 70.03125 38.730469 L 70.03125 51.238281 C 70.03125 62.921875 69.96875 63.789062 68.78125 64.980469 C 67.589844 66.171875 66.71875 66.230469 47.550781 66.230469 C 28.378906 66.230469 27.5 66.171875 26.320312 64.980469 C 25.128906 63.789062 25.070312 62.921875 25.070312 47.488281 C 25.070312 32.058594 25.128906 31.191406 26.320312 30 C 27.511719 28.808594 28.378906 28.75 47.300781 28.75 C 58.921875 28.75 67.46875 29 68.160156 29.371094 C 68.78125 29.679688 69.601562 30.808594 69.910156 31.871094 C 70.660156 33.871094 71.71875 34.308594 72.28125 32.808594 C 72.898438 31.25 71.28125 28.128906 69.339844 27.191406 C 66.898438 25.878906 28.058594 25.878906 25.75 27.128906 Z M 25.75 27.128906 "/>
<path style=" stroke:none;fill-rule:nonzero;fill:rgb(0%,0%,0%);fill-opacity:1;" d="M 34.050781 45.738281 C 33.738281 46.179688 34.859375 47.609375 36.921875 49.488281 L 40.289062 52.488281 L 36.859375 55.550781 C 34.300781 57.921875 33.671875 58.800781 34.238281 59.359375 C 35.050781 60.230469 35.429688 59.980469 40.238281 55.929688 C 41.859375 54.621094 43.179688 53.058594 43.179688 52.5 C 43.179688 51.558594 35.941406 45.011719 34.941406 45.011719 C 34.679688 44.988281 34.300781 45.300781 34.050781 45.738281 Z M 34.050781 45.738281 "/>
<path style=" stroke:none;fill-rule:nonzero;fill:rgb(0%,0%,0%);fill-opacity:1;" d="M 47.851562 58.171875 C 46.910156 59.609375 48.71875 60.039062 54.78125 59.859375 C 59.78125 59.738281 60.960938 59.488281 60.960938 58.738281 C 60.960938 57.988281 59.769531 57.738281 54.589844 57.621094 C 50.410156 57.480469 48.101562 57.671875 47.851562 58.171875 Z M 47.851562 58.171875 "/>
</g>
</svg>
