<?xml version="1.0" encoding="utf-8"?>
<!-- Generator: Adobe Illustrator 24.3.0, SVG Export Plug-In . SVG Version: 6.00 Build 0)  -->
<svg version="1.1" id="Слой_1" xmlns="http://www.w3.org/2000/svg" xmlns:xlink="http://www.w3.org/1999/xlink" x="0px" y="0px"
	 viewBox="0 0 512 512" style="enable-background:new 0 0 512 512;" xml:space="preserve">
<style type="text/css">
	.st0{fill:none;stroke:#000000;stroke-width:15;stroke-miterlimit:10;}
</style>
<polygon class="st0" points="133,469.1 379,469.1 502,256 379,42.9 133,42.9 10,256 "/>
<g transform="translate(0.000000,500.000000) scale(0.100000,-0.100000)">
	<path d="M3510.6,3787.7c-14.1-5.2-35.6-14.8-46.7-20.7c-11.1-5.9-304.5-299.3-651.9-651.2c-346.7-352.6-634.1-641.6-638.6-643
		c-4.4-0.7-31.1,22.2-59.3,51.9s-176.3,180.8-328.9,334.9c-205.9,207.4-286.7,284.5-310.4,294.8c-45.2,20-121.5,20-165.2-0.7
		c-23.7-11.1-104.5-87.4-286-269.7c-139.3-139.3-263.7-266.7-276.3-282.3c-48.9-63-56.3-151.1-17.8-223
		c31.1-57.8,1306.8-1350.5,1357.2-1375.7c48.2-23.7,124.5-23.7,172.6,0c49.6,23.7,1958,1961,1980.2,2009.1
		c20.7,45.9,20.7,124.5,0,171.1c-23,49.6-546,577.8-590.4,595.6C3606.9,3795.8,3542.4,3800.3,3510.6,3787.7z M3846.1,3388.4
		c141.5-143.7,259.3-268.9,261.5-278.6c3-9.6,1.5-24.4-3-33.3c-6.7-14.1-333.4-347.4-1588.3-1619.4
		c-299.3-303-319.3-322.3-343.7-322.3s-41.5,16.3-279.3,257.8c-139.3,142.2-256.3,264.5-260,272.6c-4.4,8.9-4.4,20.7,0,31.9
		c3.7,10.4,304.5,320.8,669,690.5c1227.6,1245.3,1243.8,1261.6,1266.1,1261.6C3585.4,3649.9,3630.6,3606.9,3846.1,3388.4z
		 M1500.7,2936.5c51.1-50.4,199.3-200.8,330.4-334.1l237.1-243L1880,2169c-103.7-104.5-230.4-233.4-281.5-286.7l-93.3-96.3
		l-320,324.5c-175.6,177.8-323,331.9-328.2,341.5c-4.4,10.4-5.9,26.7-3,36.3c2.2,10.4,115.6,131.1,261.5,278.6
		c199.3,201.5,261.5,260.8,275.6,260C1403.6,3026.8,1435.5,3000.9,1500.7,2936.5z"/>
</g>
</svg>
