<?xml version="1.0" encoding="UTF-8"?>
<svg xmlns="http://www.w3.org/2000/svg" xmlns:xlink="http://www.w3.org/1999/xlink" width="95px" height="95px" viewBox="0 0 95 95" version="1.1">
<g id="surface1">
<path style="fill:none;stroke-width:15;stroke-linecap:butt;stroke-linejoin:miter;stroke:rgb(0%,0%,0%);stroke-opacity:1;stroke-miterlimit:10;" d="M 133.010526 469.094737 L 378.989474 469.094737 L 502 256 L 378.989474 42.905263 L 133.010526 42.905263 L 10 256 Z M 133.010526 469.094737 " transform="matrix(0.185547,0,0,0.185547,0,0)"/>
<path style=" stroke:none;fill-rule:nonzero;fill:rgb(0%,0%,0%);fill-opacity:1;" d="M 65.136719 22.492188 C 64.875 22.589844 64.476562 22.769531 64.273438 22.878906 C 64.066406 22.988281 58.621094 28.429688 52.175781 34.960938 C 45.742188 41.503906 40.410156 46.867188 40.328125 46.890625 C 40.246094 46.90625 39.75 46.480469 39.226562 45.929688 C 38.703125 45.378906 35.957031 42.574219 33.125 39.714844 C 29.304688 35.867188 27.804688 34.4375 27.363281 34.246094 C 26.527344 33.875 25.109375 33.875 24.300781 34.257812 C 23.859375 34.464844 22.359375 35.878906 18.992188 39.261719 C 16.40625 41.847656 14.101562 44.210938 13.867188 44.5 C 12.957031 45.667969 12.820312 47.304688 13.535156 48.636719 C 14.113281 49.710938 37.78125 73.695312 38.71875 74.164062 C 39.613281 74.601562 41.027344 74.601562 41.921875 74.164062 C 42.839844 73.722656 78.25 37.777344 78.664062 36.886719 C 79.046875 36.03125 79.046875 34.574219 78.664062 33.710938 C 78.234375 32.789062 68.53125 22.988281 67.707031 22.660156 C 66.925781 22.34375 65.726562 22.261719 65.136719 22.492188 Z M 71.363281 29.902344 C 73.988281 32.570312 76.175781 34.890625 76.214844 35.070312 C 76.269531 35.25 76.242188 35.523438 76.160156 35.691406 C 76.035156 35.953125 69.972656 42.136719 46.6875 65.738281 C 41.136719 71.359375 40.765625 71.71875 40.3125 71.71875 C 39.859375 71.71875 39.542969 71.414062 35.128906 66.933594 C 32.546875 64.296875 30.375 62.027344 30.304688 61.875 C 30.222656 61.710938 30.222656 61.492188 30.304688 61.285156 C 30.375 61.089844 35.957031 55.332031 42.71875 48.472656 C 65.496094 25.367188 65.796875 25.0625 66.210938 25.0625 C 66.527344 25.050781 67.363281 25.847656 71.363281 29.902344 Z M 27.84375 38.289062 C 28.792969 39.222656 31.542969 42.011719 33.976562 44.488281 L 38.375 48.996094 L 34.882812 52.527344 C 32.957031 54.46875 30.609375 56.859375 29.660156 57.847656 L 27.929688 59.632812 L 21.992188 53.613281 C 18.734375 50.316406 15.996094 47.457031 15.902344 47.277344 C 15.820312 47.085938 15.792969 46.78125 15.84375 46.605469 C 15.886719 46.410156 17.992188 44.171875 20.699219 41.433594 C 24.394531 37.695312 25.550781 36.59375 25.8125 36.609375 C 26.042969 36.613281 26.636719 37.09375 27.84375 38.289062 Z M 27.84375 38.289062 "/>
</g>
</svg>
