<?xml version="1.0" encoding="utf-8"?>
<!-- Generator: Adobe Illustrator 24.3.0, SVG Export Plug-In . SVG Version: 6.00 Build 0)  -->
<svg version="1.1" id="Слой_1" xmlns="http://www.w3.org/2000/svg" xmlns:xlink="http://www.w3.org/1999/xlink" x="0px" y="0px"
	 viewBox="0 0 512 512" style="enable-background:new 0 0 512 512;" xml:space="preserve">
<style type="text/css">
	.st0{fill:none;stroke:#000000;stroke-width:15;stroke-miterlimit:10;}
</style>
<polygon class="st0" points="133,469.1 379,469.1 502,256 379,42.9 133,42.9 10,256 "/>
<g transform="translate(0.000000,512.000000) scale(0.100000,-0.100000)">
	<path d="M3654.9,4201.9c-19.9-4.8-607.1-144.4-1305.6-309.9c-719-170.3-1282.8-306.9-1299.6-314.7c-59-27.1-101.1-86.6-108.9-154
		c-3-29.5,3.6-62.6,60.2-284l63.8-251.5v-735.2c0-808.1-1.2-773.2,36.7-848.4c39.7-78.2,132.4-148.6,220.8-166.7
		c44.5-9,2384.4-9.6,2435.6,0c121.5,21.7,226.2,125.1,252.1,249.1c13.2,63.8,13.2,1607.7,0,1633.6c-20.5,39.1,78.2,36.1-1163.6,36.1
		c-620.3,0-1126.3,1.2-1125.1,3c3,2.4,219,52.3,574,132.4c49.9,11.4,228.6,51.7,397.1,90.3c332.7,75.8,326.1,74,661.8,150.4
		c125.8,28.3,309.9,70.4,409.1,92.7c99.3,22.9,188.9,43.3,199.8,45.7c22.9,4.8,48.1,28.3,52.9,49.9c4.2,21.1-105.3,442.2-127,486.8
		C3850.5,4187.4,3753.6,4227.2,3654.9,4201.9z M3745.2,4076.7c10.8-4.8,23.5-15,27.7-22.9c7.8-14.4,102.3-367,99.3-370
		c-1.2-1.2-60.8-15.6-133.6-31.9l-131.8-30.1l-176.3,175.7l-175.7,176.3l70.4,17.4c124.5,30.1,389.9,93.3,394.7,93.3
		C3722.3,4085.2,3733.7,4081.6,3745.2,4076.7z M3283.7,3764.5l176.3-176.3l-233.5-52.3c-128.2-28.9-237.7-52.9-242.5-52.3
		c-8.4,0-356.2,342.4-349,343.6c1.8,0,107.1,25.3,234.7,56.6c127.6,30.7,232.8,56,234.7,56.6
		C3106.2,3940.8,3186.8,3861.3,3283.7,3764.5z M2659.1,3618.9c93.9-93.9,169.7-172.1,168.5-173.3c-1.8-1.2-109.5-25.9-239.5-55.4
		l-236.5-53.5l-171.5,171.5L2009.3,3679l229.8,55.4c127,30.1,234.7,55.4,239.5,55.4C2483.5,3790.3,2564.7,3713.3,2659.1,3618.9z
		 M2191.6,3301.8c-6-2.4-113.7-27.7-238.9-56.6l-228.6-51.1l-166.7,166.7c-92.1,92.1-166.1,168.5-164.9,170.3
		c1.8,1.2,107.7,27.7,235.9,58.4l233.5,55.4l170.3-169.1C2169.4,3338.5,2200.1,3305.4,2191.6,3301.8z M1410.7,3327
		c92.7-92.7,166.1-168.5,163.7-168.5c-3,0-94.5-20.5-204-45.1c-109.5-24.7-203.4-45.1-209.4-45.1c-9,0-16.8,26.5-50.5,159.4
		c-21.7,87.8-39.7,168.5-39.7,180.5c0,36.7,22.9,54.2,93.3,71c33.1,8.4,64.4,15,69.2,15.6C1238,3495.5,1318,3419.7,1410.7,3327z
		 M1534,2923.9c0-3.6-42.1-90.3-93.3-192.5l-93.3-186.5h-78.2h-78.2v192.5v192.5h171.5C1473.8,2929.9,1534,2927.5,1534,2923.9z
		 M2177.8,2926.9c0-1.8-42.7-88.4-94.5-192.5l-95.1-189.5h-247.9c-136.6,0-248.5,1.2-248.5,3c0,4.8,181.1,366.4,187.7,374.8
		c4.8,5.4,62.6,7.2,252.1,7.2C2067.1,2929.9,2177.8,2928.7,2177.8,2926.9z M2725.3,2737.4l-96.3-192.5h-246.7
		c-136,0-246.7,1.2-246.7,3c0,1.8,42.7,88.4,94.5,192.5l95.1,189.5h247.9h248.5L2725.3,2737.4z M3369.1,2737.4l-96.3-192.5h-249.7
		h-249.7l96.3,192.5l96.3,192.5h249.7h249.7L3369.1,2737.4z M3886.6,2737.4v-192.5h-234.7h-234.7l96.3,192.5l96.3,192.5h138.4h138.4
		V2737.4z M3885.4,1902.9c-1.8-485.6-2.4-511.4-13.2-531.3c-22.9-43.3-51.7-71.6-92.7-91.5l-40.3-19.9H2541.8H1344.5l-33.1,15.6
		c-62,29.5-95.1,68-111.3,130c-7.8,28.9-9,109.5-9,520.5v486.2h1347.8h1347.8L3885.4,1902.9z"/>
</g>
</svg>
