<?xml version="1.0" encoding="UTF-8"?>
<svg xmlns="http://www.w3.org/2000/svg" xmlns:xlink="http://www.w3.org/1999/xlink" width="95px" height="95px" viewBox="0 0 95 95" version="1.1">
<g id="surface1">
<path style="fill:none;stroke-width:15;stroke-linecap:butt;stroke-linejoin:miter;stroke:rgb(0%,0%,0%);stroke-opacity:1;stroke-miterlimit:10;" d="M 133.010526 469.094737 L 378.989474 469.094737 L 502 256 L 378.989474 42.905263 L 133.010526 42.905263 L 10 256 Z M 133.010526 469.094737 " transform="matrix(0.185547,0,0,0.185547,0,0)"/>
<path style=" stroke:none;fill-rule:nonzero;fill:rgb(0%,0%,0%);fill-opacity:1;" d="M 67.816406 17.035156 C 67.445312 17.125 56.550781 19.714844 43.589844 22.785156 C 30.25 25.945312 19.789062 28.480469 19.476562 28.625 C 18.382812 29.128906 17.601562 30.230469 17.457031 31.480469 C 17.402344 32.027344 17.523438 32.644531 18.574219 36.75 L 19.757812 41.417969 L 19.757812 55.058594 C 19.757812 70.054688 19.734375 69.40625 20.4375 70.800781 C 21.175781 72.253906 22.894531 73.558594 24.535156 73.894531 C 25.359375 74.0625 68.777344 74.070312 69.726562 73.894531 C 71.980469 73.492188 73.921875 71.574219 74.40625 69.273438 C 74.648438 68.089844 74.648438 39.441406 74.40625 38.960938 C 74.023438 38.234375 75.855469 38.292969 52.8125 38.292969 C 41.304688 38.292969 31.914062 38.269531 31.9375 38.234375 C 31.992188 38.191406 36 37.265625 42.589844 35.777344 C 43.515625 35.566406 46.832031 34.820312 49.957031 34.105469 C 56.128906 32.695312 56.007812 32.730469 62.234375 31.3125 C 64.570312 30.789062 67.984375 30.007812 69.828125 29.59375 C 71.667969 29.167969 73.332031 28.789062 73.535156 28.746094 C 73.960938 28.65625 74.425781 28.21875 74.515625 27.820312 C 74.59375 27.425781 72.5625 19.613281 72.160156 18.785156 C 71.445312 17.304688 69.648438 16.566406 67.816406 17.035156 Z M 69.492188 19.359375 C 69.691406 19.445312 69.925781 19.636719 70.003906 19.78125 C 70.148438 20.050781 71.902344 26.59375 71.847656 26.648438 C 71.824219 26.671875 70.71875 26.9375 69.367188 27.238281 L 66.921875 27.796875 L 63.652344 24.539062 L 60.390625 21.265625 L 61.699219 20.945312 C 64.007812 20.386719 68.933594 19.214844 69.023438 19.214844 C 69.066406 19.199219 69.277344 19.265625 69.492188 19.359375 Z M 60.929688 25.152344 L 64.199219 28.421875 L 59.867188 29.390625 C 57.488281 29.929688 55.457031 30.375 55.367188 30.363281 C 55.210938 30.363281 48.757812 24.011719 48.890625 23.988281 C 48.925781 23.988281 50.878906 23.519531 53.246094 22.9375 C 55.613281 22.367188 57.566406 21.898438 57.601562 21.886719 C 57.632812 21.878906 59.128906 23.355469 60.929688 25.152344 Z M 49.339844 27.851562 C 51.082031 29.59375 52.488281 31.046875 52.464844 31.066406 C 52.433594 31.089844 50.433594 31.546875 48.019531 32.097656 L 43.632812 33.089844 L 37.28125 26.738281 L 41.546875 25.710938 C 43.902344 25.152344 45.902344 24.679688 45.988281 24.679688 C 46.082031 24.671875 47.585938 26.101562 49.339844 27.851562 Z M 40.664062 33.734375 C 40.554688 33.78125 38.554688 34.25 36.230469 34.785156 L 31.988281 35.734375 L 28.898438 32.640625 C 27.1875 30.933594 25.816406 29.515625 25.835938 29.480469 C 25.871094 29.460938 27.835938 28.96875 30.214844 28.398438 L 34.546875 27.371094 L 37.707031 30.507812 C 40.253906 33.054688 40.820312 33.667969 40.664062 33.734375 Z M 26.175781 33.269531 C 27.894531 34.988281 29.257812 36.394531 29.210938 36.394531 C 29.15625 36.394531 27.460938 36.773438 25.425781 37.230469 C 23.394531 37.691406 21.652344 38.070312 21.542969 38.070312 C 21.375 38.070312 21.230469 37.578125 20.605469 35.109375 C 20.203125 33.480469 19.867188 31.984375 19.867188 31.761719 C 19.867188 31.082031 20.292969 30.757812 21.597656 30.445312 C 22.214844 30.289062 22.792969 30.167969 22.882812 30.15625 C 22.96875 30.140625 24.453125 31.546875 26.175781 33.269531 Z M 28.460938 40.746094 C 28.460938 40.816406 27.683594 42.421875 26.730469 44.320312 L 25 47.78125 L 22.097656 47.78125 L 22.097656 40.636719 L 25.28125 40.636719 C 27.347656 40.636719 28.460938 40.679688 28.460938 40.746094 Z M 40.410156 40.691406 C 40.410156 40.726562 39.617188 42.332031 38.65625 44.265625 L 36.890625 47.78125 L 32.289062 47.78125 C 29.757812 47.78125 27.679688 47.757812 27.679688 47.722656 C 27.679688 47.636719 31.039062 40.925781 31.164062 40.769531 C 31.25 40.671875 32.324219 40.636719 35.839844 40.636719 C 38.355469 40.636719 40.410156 40.660156 40.410156 40.691406 Z M 50.566406 44.207031 L 48.78125 47.78125 L 44.203125 47.78125 C 41.679688 47.78125 39.625 47.757812 39.625 47.722656 C 39.625 47.691406 40.417969 46.085938 41.378906 44.152344 L 43.144531 40.636719 L 52.355469 40.636719 Z M 62.511719 44.207031 L 60.726562 47.78125 L 51.460938 47.78125 L 53.246094 44.207031 L 55.035156 40.636719 L 64.300781 40.636719 Z M 72.113281 44.207031 L 72.113281 47.78125 L 63.40625 47.78125 L 65.191406 44.207031 L 66.980469 40.636719 L 72.113281 40.636719 Z M 72.09375 59.691406 C 72.058594 68.703125 72.046875 69.179688 71.847656 69.550781 C 71.421875 70.355469 70.886719 70.878906 70.128906 71.25 L 69.378906 71.617188 L 24.945312 71.617188 L 24.332031 71.328125 C 23.183594 70.78125 22.566406 70.066406 22.265625 68.914062 C 22.121094 68.378906 22.101562 66.882812 22.101562 59.257812 L 22.101562 50.238281 L 72.117188 50.238281 Z M 72.09375 59.691406 "/>
</g>
</svg>
