<?xml version="1.0" encoding="UTF-8"?>
<svg xmlns="http://www.w3.org/2000/svg" xmlns:xlink="http://www.w3.org/1999/xlink" width="95px" height="95px" viewBox="0 0 95 95" version="1.1">
<g id="surface1">
<path style="fill:none;stroke-width:2.8;stroke-linecap:butt;stroke-linejoin:miter;stroke:rgb(0%,0%,0%);stroke-opacity:1;stroke-miterlimit:1.9;" d="M 24.699219 87 L 70.300781 87 L 93.101562 47.5 L 70.300781 8 L 24.699219 8 L 1.898438 47.5 Z M 24.699219 87 "/>
<path style=" stroke:none;fill-rule:nonzero;fill:rgb(0%,0%,0%);fill-opacity:1;" d="M 45.5 15.5 C 40.601562 15.699219 36.898438 19.5 36.898438 24.5 C 36.898438 29.5 37.199219 27.300781 38.800781 29.898438 C 39.5 31.101562 39.699219 31.699219 39.699219 32.300781 L 39.699219 33.199219 L 38.199219 33.199219 C 37.398438 33.199219 34 32.898438 30.699219 32.601562 L 24.601562 32 L 23.398438 32.601562 C 22.5 33.101562 22 33.5 21.601562 34.398438 L 21 35.5 L 21 53.101562 C 21 69.601562 21 70.699219 21.5 71.699219 C 22.101562 72.898438 22.601562 73.5 23.898438 74 C 24.699219 74.300781 27.601562 74.398438 46.300781 74.398438 L 67.699219 74.398438 C 67.699219 74.398438 68.699219 73.800781 68.699219 73.800781 C 70.5 72.800781 71.300781 70.300781 72 62.898438 C 72.300781 59.601562 72.199219 58.898438 71.300781 58.101562 C 70 56.898438 68 57.398438 65.101562 59.601562 C 62.398438 61.601562 60.5 62 58.101562 61.199219 C 52.398438 59.300781 52.398438 51.101562 58.101562 49.101562 C 60.398438 48.300781 62.101562 48.699219 65 50.601562 C 69.199219 53.398438 70.699219 53.5 71.898438 51.300781 C 72.300781 50.601562 72.300781 50.101562 71.898438 45.898438 C 71 35.601562 70.5 33.300781 68.898438 32.5 C 67.898438 32 67 32 58.699219 32.898438 C 55.699219 33.199219 53 33.398438 52.601562 33.300781 C 51.601562 33 51.800781 32 53.101562 29.800781 C 54.601562 27.300781 55.101562 25.5 54.898438 23.601562 C 54.5 19.898438 51.699219 16.601562 48 15.699219 C 47.601562 15.601562 46.398438 15.5 45.398438 15.601562 Z M 47.699219 18.199219 C 50.699219 19.199219 52.601562 21.601562 52.601562 24.5 C 52.601562 27.398438 52 27.199219 50.800781 28.898438 C 49.699219 30.601562 49.199219 32.199219 49.5 33.398438 C 49.800781 34.601562 51 35.601562 52.300781 35.800781 C 52.800781 35.898438 55.699219 35.800781 59 35.398438 C 68.199219 34.5 67.898438 34.5 68.101562 35 C 68.601562 36.199219 70 49.898438 69.699219 50.199219 C 69.398438 50.5 69 49.898438 68.199219 49.5 C 63.398438 46.398438 62.199219 46 59.601562 46.300781 C 56.398438 46.601562 53.5 48.601562 52.101562 51.5 C 51.300781 53.199219 51.300781 57 52.101562 58.800781 C 53 60.699219 54.601562 62.199219 56.5 63.199219 C 58.101562 64 58.398438 64 60.5 64 C 63.199219 64 64 63.699219 67.101562 61.5 C 69.199219 60.101562 69.800781 59.800781 69.800781 60.398438 C 69.800781 61 69 67.5 68.699219 69 C 68.5 69.898438 68.199219 70.898438 67.898438 71.199219 L 67.398438 71.800781 L 46.101562 71.800781 C 46.101562 71.800781 24.800781 71.800781 24.800781 71.800781 L 23.601562 70.601562 L 23.601562 53.101562 C 23.601562 36 23.601562 35.699219 24.101562 35.101562 C 24.601562 34.5 24.800781 34.601562 25 34.601562 C 25.199219 34.601562 28.5 34.898438 32.199219 35.300781 C 39.898438 36.101562 40.601562 36 41.699219 34.398438 C 42.699219 32.898438 42.5 31.5 40.898438 28.300781 C 39.699219 26 39.5 25.398438 39.5 24.199219 C 39.5 23 39.699219 22.398438 39.898438 21.898438 C 40.398438 20.699219 41.800781 19.199219 43 18.601562 C 44.101562 18 46.699219 17.800781 47.800781 18.101562 Z M 47.699219 18.199219 "/>
<path style=" stroke:none;fill-rule:nonzero;fill:rgb(0%,0%,0%);fill-opacity:1;" d="M 35 44 C 35.199219 44.101562 35.398438 44.300781 35.699219 44.398438 C 35.800781 44.398438 35.898438 44.5 36 44.601562 C 36.601562 44.898438 37.101562 45.300781 37.699219 45.601562 C 38.800781 46.199219 39.800781 46.800781 40.800781 47.398438 C 41.398438 47.800781 42 48.101562 42.601562 48.5 C 42.601562 48.5 42.667969 48.535156 42.800781 48.601562 C 43.101562 48.800781 43.398438 48.898438 43.699219 49.101562 C 44.601562 49.601562 45.398438 50.101562 45.800781 51.199219 C 46.101562 52.101562 45.898438 53 45.5 53.898438 C 44.898438 54.601562 44.199219 55.101562 43.398438 55.5 C 43.199219 55.601562 43 55.699219 42.800781 55.898438 C 42.699219 55.898438 42.601562 56 42.5 56.101562 C 42 56.398438 41.398438 56.699219 40.898438 57 C 40.800781 57 40.699219 57.101562 40.601562 57.199219 C 40.398438 57.300781 40.199219 57.398438 40 57.601562 C 39.5 57.898438 39 58.199219 38.398438 58.5 C 38.300781 58.5 38.199219 58.601562 38.101562 58.699219 C 37.5 59 37 59.398438 36.398438 59.699219 C 36.398438 59.699219 36.300781 59.699219 36.199219 59.800781 C 35.898438 60 35.601562 60.101562 35.300781 60.300781 C 34.699219 60.601562 34.101562 61 33.5 61.300781 C 32.800781 61.699219 31.699219 61.601562 31 61.398438 C 30.199219 61 29.601562 60.398438 29.300781 59.601562 C 29.199219 59.101562 29.199219 58.5 29.199219 58 C 29.199219 57.898438 29.199219 57.699219 29.199219 57.601562 C 29.199219 57.199219 29.199219 56.898438 29.199219 56.5 C 29.199219 56.199219 29.199219 55.898438 29.199219 55.601562 C 29.199219 54.898438 29.199219 54.101562 29.199219 53.398438 C 29.199219 52.601562 29.199219 51.898438 29.199219 51.101562 C 29.199219 50.398438 29.199219 49.800781 29.199219 49.101562 C 29.199219 48.699219 29.199219 48.300781 29.199219 47.898438 C 29.199219 47.5 29.199219 47 29.199219 46.601562 C 29.199219 46.5 29.199219 46.300781 29.199219 46.199219 C 29.199219 45.199219 29.5 44.5 30.101562 43.699219 C 31.699219 42.300781 33.398438 43.101562 35 44 Z M 32 45.699219 C 31.800781 46 31.800781 46.101562 31.800781 46.5 C 31.800781 46.601562 31.800781 46.699219 31.800781 46.800781 C 31.800781 46.898438 31.800781 47 31.800781 47.199219 C 31.800781 47.300781 31.800781 47.398438 31.800781 47.601562 C 31.800781 48 31.800781 48.398438 31.800781 48.800781 C 31.800781 49.101562 31.800781 49.398438 31.800781 49.601562 C 31.800781 50.199219 31.800781 50.800781 31.800781 51.398438 C 31.800781 52.101562 31.800781 52.800781 31.800781 53.398438 C 31.800781 54.101562 31.800781 54.699219 31.800781 55.398438 C 31.800781 55.699219 31.800781 56 31.800781 56.199219 C 31.800781 56.601562 31.800781 57 31.800781 57.398438 C 31.800781 57.5 31.800781 57.601562 31.800781 57.800781 C 31.800781 57.898438 31.800781 58 31.800781 58.101562 C 31.800781 58.101562 31.800781 58.300781 31.800781 58.398438 C 31.800781 58.601562 31.832031 58.765625 31.898438 58.898438 C 31.964844 59.035156 32.101562 59.066406 32.300781 59 C 32.5 58.933594 32.667969 58.832031 32.800781 58.699219 C 32.898438 58.699219 33 58.601562 33.101562 58.5 C 33.199219 58.5 33.300781 58.398438 33.5 58.300781 C 33.601562 58.300781 33.699219 58.199219 33.898438 58.101562 C 34.199219 58 34.398438 57.800781 34.699219 57.699219 C 35.101562 57.398438 35.601562 57.199219 36 56.898438 C 36.300781 56.699219 36.601562 56.5 36.898438 56.398438 C 37.035156 56.398438 37.132812 56.332031 37.199219 56.199219 C 37.300781 56.199219 37.398438 56.101562 37.5 56 C 37.898438 55.800781 38.300781 55.5 38.699219 55.300781 C 38.800781 55.300781 38.898438 55.199219 39 55.101562 C 39.601562 54.800781 40.101562 54.398438 40.699219 54.101562 C 40.898438 54 41.101562 53.898438 41.300781 53.800781 C 41.5 53.699219 41.699219 53.601562 41.800781 53.5 C 42.300781 53.199219 42.898438 52.898438 43.300781 52.398438 C 43.101562 52 42.898438 51.898438 42.601562 51.601562 C 42.601562 51.601562 42.5 51.601562 42.398438 51.5 C 42.199219 51.398438 42 51.199219 41.699219 51.101562 C 41.699219 51.101562 41.5 51 41.398438 50.898438 C 40.800781 50.601562 40.300781 50.199219 39.699219 49.898438 C 38.699219 49.300781 37.800781 48.800781 36.800781 48.199219 C 36.5 48 36.199219 47.800781 35.800781 47.601562 C 35.699219 47.601562 35.601562 47.5 35.5 47.398438 C 35.300781 47.300781 35.101562 47.199219 34.898438 47 C 34.398438 46.699219 34 46.5 33.5 46.199219 C 33.5 46.199219 33.398438 46.199219 33.300781 46.101562 C 33.199219 46.101562 33 45.898438 32.898438 45.898438 C 32.601562 45.699219 32.300781 45.601562 31.898438 45.601562 Z M 32 45.699219 "/>
</g>
</svg>
