<?xml version="1.0" encoding="utf-8"?>
<!-- Generator: Adobe Illustrator 24.3.0, SVG Export Plug-In . SVG Version: 6.00 Build 0)  -->
<svg version="1.1" id="Слой_1" xmlns="http://www.w3.org/2000/svg" xmlns:xlink="http://www.w3.org/1999/xlink" x="0px" y="0px"
	 viewBox="0 0 512 512" style="enable-background:new 0 0 512 512;" xml:space="preserve">
<style type="text/css">
	.st0{fill:none;stroke:#000000;stroke-width:15;stroke-miterlimit:10;}
	.st1{fill:none;stroke:#000000;stroke-width:13;stroke-miterlimit:10;}
</style>
<polygon class="st0" points="133,469.1 379,469.1 502,256 379,42.9 133,42.9 10,256 "/>
<g id="layer1">
	<path id="rect1420" class="st1" d="M287.2,122.1h85.7c10.1,0,18.3,7.4,18.3,16.5v43.6c0,9.1-8.2,16.5-18.3,16.5h-85.7
		c-10.1,0-18.3-7.4-18.3-16.5v-43.6C268.8,129.5,277,122.1,287.2,122.1z"/>
	<path id="rect1420-5-1" class="st1" d="M137.5,121.3h88.3c9.4,0,17.1,6.7,17.1,14.9v136.4c0,8.2-7.6,14.9-17.1,14.9h-88.3
		c-9.4,0-17.1-6.7-17.1-14.9V136.2C120.5,128,128.1,121.3,137.5,121.3z"/>
	<path id="rect1420-7" class="st1" d="M140.1,314.2h85.7c10.1,0,18.3,7.4,18.3,16.5v43.6c0,9.1-8.2,16.5-18.3,16.5h-85.7
		c-10.1,0-18.3-7.4-18.3-16.5v-43.6C121.7,321.6,130,314.2,140.1,314.2z"/>
	<path id="rect1420-5-1-0" class="st1" d="M286.2,223.8h88.3c9.4,0,17.1,6.7,17.1,14.9v136.4c0,8.2-7.6,14.9-17.1,14.9h-88.3
		c-9.4,0-17.1-6.7-17.1-14.9V238.7C269.1,230.5,276.8,223.8,286.2,223.8z"/>
</g>
</svg>
