<?xml version="1.0" encoding="utf-8"?>
<!-- Generator: Adobe Illustrator 24.3.0, SVG Export Plug-In . SVG Version: 6.00 Build 0)  -->
<svg version="1.1" id="Слой_1" xmlns="http://www.w3.org/2000/svg" xmlns:xlink="http://www.w3.org/1999/xlink" x="0px" y="0px"
	 viewBox="0 0 512 512" style="enable-background:new 0 0 512 512;" xml:space="preserve">
<style type="text/css">
	.st0{fill:none;stroke:#000000;stroke-width:15;stroke-miterlimit:10;}
</style>
<polygon class="st0" points="133,469.1 379,469.1 502,256 379,42.9 133,42.9 10,256 "/>
<g transform="translate(0.000000,512.000000) scale(0.100000,-0.100000)">
	<path d="M2373.4,4367c-222.2-27.5-404.9-76.9-579.9-156.6c-68.4-31.7-83.2-48-83.2-91c0-44.4,18.3-59.3,123.4-101.6
		c206-82.5,411.3-191.9,596.1-317.4c129.8-88.2,132.6-88.9,222.9-26.1c197.5,137.6,395,245.5,620.1,337.9
		c105.8,43.7,114.3,49.4,124.2,83.2c6.3,22.6,6.3,31-4.2,52.9c-10.6,21.2-21.9,30.3-73.4,54.3c-153.8,73.4-312.5,122-492.4,151.7
		C2760.6,4364.9,2434,4374.1,2373.4,4367z M2781.1,4204.9c41.6-5.6,104.4-16.9,139-24.7c71.2-16.2,201-56.4,201-62.8
		c-0.7-2.1-57.1-31-125.6-64.9c-146.7-71.2-219.4-112.9-342.1-193.3c-49.4-32.4-91.7-59.3-93.8-59.3c-1.4,0-36,21.9-75.5,48
		c-134,90.3-325.9,196.1-477.6,263.8l-24.7,10.6l67,21.9c118.5,37.4,254.7,62.8,402.1,74.8
		C2510.2,4223.9,2705.6,4215.4,2781.1,4204.9z"/>
	<path d="M1398.5,3962.1c-67.7-54.3-190.5-178.5-254.7-257.5c-200.3-247.6-324.5-524.1-379.5-843.7c-19-110-26.1-376-14.1-486.7
		c26.8-234.2,102.3-478.3,208.8-673.7c68.4-125.6,221.5-335.8,251.1-345c7.8-2.8,13.4-8.5,13.4-13.4c0-14.8,151.7-157.3,229.3-216.6
		c265.9-201.8,571.4-323.1,900.8-359.1c100.9-10.6,313.2-8.5,414.8,3.5c404.9,50.1,797.1,242.7,1060.2,519.2
		c38.1,40.2,81.8,86.1,96.6,101.6c92.4,96.6,225.7,313.2,293.5,476.2c58.5,141.8,105.1,320.3,126.3,484.6
		c16.9,130.5,12,383.7-10.6,510c-55.7,318.8-180.6,597.5-378.8,843c-61.4,76.2-225,239.1-270.2,268.8
		c-50.1,33.2-64.2,26.8-324.5-141.8c-163-105.8-464.2-319.6-509.3-361.9c-21.2-19.8-31-54.3-23.3-79c2.8-9.2,35.3-48,72-87.5
		c323.1-342.8,629.2-829.6,778.1-1238c26.8-73.4,77.6-241.3,77.6-256.8c0-4.2-12.7,17.6-27.5,49.4c-103,213-278.6,470.5-490.3,720.9
		c-143.9,170-498.7,519.2-625.7,616.5c-38.1,28.2-72.7,26.1-112.9-7.1c-95.2-80.4-251.8-226.4-371.8-347.1
		c-316-316.7-555.9-635.6-720.2-956.5c-45.9-89.6-47.3-86.1-13.4,31.7c88.9,313.2,265.2,654.6,526.2,1019.3
		c115,159.4,152.4,206,292,358.4c76.2,82.5,83.2,92.4,83.2,117.8c0,18.3-5.6,33.9-17.6,48c-38.1,45.9-470.5,347.1-688.5,480.4
		C1472.5,4011.5,1462.7,4012.9,1398.5,3962.1z M1533.2,3794.9c29.6-18.3,123.4-79,208.8-136.1c139.7-93.1,213.7-144.6,326.6-227.1
		l37.4-27.5l-62.8-68.4c-233.5-255.4-500.1-661-649-985.5c-100.2-220.1-179.9-472.6-201.8-641.9c-10.6-81.8-8.5-81.1-47.3-19.8
		c-55,86.8-129.1,243.4-164.4,347.8c-91.7,275.8-111.5,545.3-60,831.7c48,268.8,176.4,542.5,354.1,755.5
		c45.9,55,193.3,204.6,201,204.6C1478.2,3828.1,1503.6,3813.3,1533.2,3794.9z M3711.6,3745.5c141.1-139.7,238.4-275.8,326.6-457.1
		c91.7-187.6,141.1-361.9,162.2-574.2c28.9-289.9-32.4-613-167.2-886c-25.4-51.5-88.9-158.7-93.8-158.7c-2.8,0-8.5,26.1-13.4,58.5
		c-36,235.6-151.7,553-301.2,825.3c-155.2,282.2-362.6,579.9-540.4,774.6c-33.9,37.4-62.1,71.2-62.1,75.5
		c0,9.2,225.7,169.3,405.6,287.1c81.8,53.6,159.4,104.4,172.8,113.6c13.4,8.5,26.8,16.2,29.6,16.2
		C3632.5,3821,3669.2,3787.2,3711.6,3745.5z M2685.2,2927.2c457.8-418.3,788-852.1,963.6-1264.8c30.3-71.2,86.1-232.8,86.1-249
		c0-12.7-110.8-111.5-194-173.5c-413.4-309-947.4-408.4-1443.3-269.5c-240.5,67.7-473.3,197.5-658.9,367.5
		c-40.2,37.4-55.7,55.7-54.3,66.3c3.5,30.3,61.4,194,98.1,279.3c180.6,416.9,525.5,860.6,996.1,1282.5
		c70.5,62.8,81.8,70.5,92.4,62.8C2577.9,3023.9,2629.4,2978,2685.2,2927.2z"/>
</g>
</svg>
