<?xml version="1.0" encoding="UTF-8"?>
<svg xmlns="http://www.w3.org/2000/svg" xmlns:xlink="http://www.w3.org/1999/xlink" width="95px" height="95px" viewBox="0 0 95 95" version="1.1">
<g id="surface1">
<path style="fill:none;stroke-width:15;stroke-linecap:butt;stroke-linejoin:miter;stroke:rgb(0%,0%,0%);stroke-opacity:1;stroke-miterlimit:10;" d="M 133.010526 469.094737 L 378.989474 469.094737 L 502 256 L 378.989474 42.905263 L 133.010526 42.905263 L 10 256 Z M 133.010526 469.094737 " transform="matrix(0.185547,0,0,0.185547,0,0)"/>
<path style=" stroke:none;fill-rule:nonzero;fill:rgb(0%,0%,0%);fill-opacity:1;" d="M 44.039062 13.972656 C 39.914062 14.480469 36.523438 15.398438 33.277344 16.878906 C 32.007812 17.464844 31.734375 17.769531 31.734375 18.566406 C 31.734375 19.390625 32.074219 19.667969 34.023438 20.449219 C 37.847656 21.980469 41.65625 24.011719 45.085938 26.339844 C 47.492188 27.976562 47.542969 27.988281 49.21875 26.824219 C 52.882812 24.269531 56.550781 22.269531 60.726562 20.554688 C 62.6875 19.742188 62.847656 19.636719 63.03125 19.011719 C 63.148438 18.589844 63.148438 18.4375 62.953125 18.03125 C 62.753906 17.636719 62.546875 17.46875 61.589844 17.023438 C 58.738281 15.660156 55.792969 14.757812 52.453125 14.207031 C 51.222656 14.011719 45.164062 13.839844 44.039062 13.972656 Z M 51.601562 16.980469 C 52.375 17.082031 53.539062 17.292969 54.179688 17.4375 C 55.503906 17.738281 57.910156 18.484375 57.910156 18.601562 C 57.898438 18.640625 56.851562 19.179688 55.582031 19.808594 C 52.859375 21.128906 51.507812 21.902344 49.234375 23.394531 C 48.316406 23.996094 47.53125 24.492188 47.492188 24.492188 C 47.464844 24.492188 46.824219 24.085938 46.089844 23.601562 C 43.605469 21.929688 40.042969 19.964844 37.230469 18.707031 L 36.773438 18.511719 L 38.015625 18.105469 C 40.214844 17.410156 42.742188 16.941406 45.476562 16.71875 C 46.574219 16.625 50.203125 16.785156 51.601562 16.980469 Z M 51.601562 16.980469 "/>
<path style=" stroke:none;fill-rule:nonzero;fill:rgb(0%,0%,0%);fill-opacity:1;" d="M 25.949219 21.484375 C 24.691406 22.492188 22.414062 24.796875 21.222656 26.261719 C 17.507812 30.855469 15.203125 35.988281 14.179688 41.917969 C 13.828125 43.957031 13.695312 48.894531 13.917969 50.949219 C 14.417969 55.292969 15.816406 59.820312 17.792969 63.449219 C 19.0625 65.777344 21.902344 69.679688 22.453125 69.847656 C 22.597656 69.902344 22.703125 70.007812 22.703125 70.097656 C 22.703125 70.371094 25.515625 73.015625 26.957031 74.117188 C 31.890625 77.859375 37.558594 80.113281 43.671875 80.78125 C 45.542969 80.976562 49.480469 80.9375 51.367188 80.714844 C 58.878906 79.785156 66.15625 76.210938 71.039062 71.082031 C 71.746094 70.335938 72.554688 69.484375 72.832031 69.195312 C 74.546875 67.402344 77.019531 63.382812 78.277344 60.359375 C 79.363281 57.730469 80.226562 54.417969 80.621094 51.367188 C 80.933594 48.945312 80.84375 44.25 80.421875 41.90625 C 79.390625 35.992188 77.074219 30.820312 73.394531 26.265625 C 72.253906 24.851562 69.21875 21.828125 68.382812 21.277344 C 67.453125 20.660156 67.191406 20.78125 62.359375 23.90625 C 59.335938 25.871094 53.746094 29.835938 52.910156 30.621094 C 52.515625 30.988281 52.335938 31.628906 52.476562 32.089844 C 52.53125 32.257812 53.132812 32.980469 53.8125 33.710938 C 59.808594 40.074219 65.488281 49.105469 68.25 56.683594 C 68.75 58.042969 69.691406 61.160156 69.691406 61.449219 C 69.691406 61.527344 69.457031 61.121094 69.179688 60.53125 C 67.269531 56.578125 64.011719 51.800781 60.082031 47.15625 C 57.414062 44 50.832031 37.519531 48.472656 35.714844 C 47.765625 35.191406 47.125 35.230469 46.378906 35.847656 C 44.613281 37.339844 41.707031 40.046875 39.480469 42.289062 C 33.617188 48.164062 29.167969 54.082031 26.117188 60.035156 C 25.265625 61.699219 25.238281 61.632812 25.867188 59.449219 C 27.519531 53.636719 30.789062 47.300781 35.632812 40.535156 C 37.765625 37.578125 38.460938 36.710938 41.050781 33.882812 C 42.464844 32.355469 42.59375 32.171875 42.59375 31.699219 C 42.59375 31.359375 42.492188 31.070312 42.269531 30.808594 C 41.5625 29.957031 33.539062 24.367188 29.492188 21.894531 C 27.320312 20.566406 27.140625 20.542969 25.949219 21.484375 Z M 28.449219 24.585938 C 28.996094 24.925781 30.738281 26.050781 32.324219 27.113281 C 34.914062 28.839844 36.289062 29.796875 38.382812 31.324219 L 39.078125 31.835938 L 37.910156 33.105469 C 33.578125 37.84375 28.632812 45.371094 25.867188 51.390625 C 24.011719 55.476562 22.53125 60.160156 22.125 63.300781 C 21.929688 64.820312 21.96875 64.804688 21.246094 63.667969 C 20.226562 62.058594 18.851562 59.152344 18.195312 57.214844 C 16.496094 52.097656 16.128906 47.097656 17.082031 41.785156 C 17.972656 36.796875 20.355469 31.71875 23.652344 27.765625 C 24.503906 26.746094 27.238281 23.96875 27.382812 23.96875 C 27.425781 23.972656 27.898438 24.246094 28.449219 24.585938 Z M 68.867188 25.503906 C 71.484375 28.09375 73.292969 30.621094 74.925781 33.984375 C 76.628906 37.464844 77.546875 40.699219 77.9375 44.640625 C 78.472656 50.019531 77.335938 56.011719 74.835938 61.078125 C 74.363281 62.035156 73.183594 64.023438 73.09375 64.023438 C 73.042969 64.023438 72.9375 63.539062 72.847656 62.9375 C 72.179688 58.566406 70.03125 52.675781 67.257812 47.625 C 64.378906 42.386719 60.527344 36.863281 57.230469 33.25 C 56.601562 32.558594 56.078125 31.929688 56.078125 31.851562 C 56.078125 31.679688 60.265625 28.710938 63.605469 26.523438 C 65.121094 25.53125 66.5625 24.585938 66.808594 24.417969 C 67.058594 24.257812 67.308594 24.117188 67.359375 24.117188 C 67.398438 24.101562 68.082031 24.730469 68.867188 25.503906 Z M 49.824219 40.6875 C 58.316406 48.449219 64.445312 56.496094 67.703125 64.15625 C 68.265625 65.476562 69.300781 68.472656 69.300781 68.773438 C 69.300781 69.011719 67.242188 70.84375 65.699219 71.992188 C 58.03125 77.726562 48.121094 79.570312 38.921875 76.996094 C 34.457031 75.738281 30.136719 73.328125 26.695312 70.175781 C 25.949219 69.480469 25.660156 69.140625 25.6875 68.945312 C 25.753906 68.382812 26.828125 65.347656 27.507812 63.761719 C 30.859375 56.027344 37.257812 47.796875 45.988281 39.964844 C 47.296875 38.800781 47.507812 38.660156 47.703125 38.800781 C 47.832031 38.890625 48.789062 39.742188 49.824219 40.6875 Z M 49.824219 40.6875 "/>
</g>
</svg>
