<?xml version="1.0" encoding="UTF-8"?>
<svg xmlns="http://www.w3.org/2000/svg" xmlns:xlink="http://www.w3.org/1999/xlink" width="95px" height="95px" viewBox="0 0 95 95" version="1.1">
<g id="surface1">
<path style="fill:none;stroke-width:15;stroke-linecap:butt;stroke-linejoin:miter;stroke:rgb(0%,0%,0%);stroke-opacity:1;stroke-miterlimit:10;" d="M 133.010526 469.094737 L 378.989474 469.094737 L 502 256 L 378.989474 42.905263 L 133.010526 42.905263 L 10 256 Z M 133.010526 469.094737 " transform="matrix(0.185547,0,0,0.185547,0,0)"/>
<path style=" stroke:none;fill-rule:nonzero;fill:rgb(0%,0%,0%);fill-opacity:1;" d="M 44.699219 15.863281 C 44.660156 15.863281 44.640625 15.863281 44.625 15.863281 C 28.480469 17.3125 15.808594 30.914062 15.808594 47.445312 C 15.808594 64.941406 30.019531 79.15625 47.519531 79.15625 C 65.015625 79.15625 79.226562 64.941406 79.226562 47.445312 C 79.226562 43.640625 78.5625 39.984375 77.316406 36.589844 C 77.058594 35.867188 76.257812 35.515625 75.554688 35.773438 C 75.40625 35.828125 75.277344 35.902344 75.164062 35.996094 L 68.171875 41.5625 C 67.761719 41.898438 67.578125 42.433594 67.6875 42.9375 C 68.003906 44.382812 68.171875 45.886719 68.171875 47.425781 C 68.171875 58.875 58.929688 68.09375 47.5 68.09375 C 36.070312 68.09375 26.828125 58.855469 26.828125 47.425781 C 26.828125 36.867188 34.714844 28.183594 44.921875 26.921875 C 45.605469 26.828125 46.125 26.253906 46.125 25.550781 L 46.125 17.238281 C 46.125 16.476562 45.515625 15.863281 44.753906 15.863281 C 44.734375 15.863281 44.71875 15.863281 44.699219 15.863281 Z M 52.992188 16.253906 C 52.25 16.273438 51.636719 16.882812 51.636719 17.625 L 51.636719 35.828125 C 50.339844 35.367188 48.964844 35.03125 47.5 35.03125 C 40.671875 35.03125 35.085938 40.597656 35.085938 47.445312 C 35.085938 54.292969 40.652344 59.859375 47.5 59.859375 C 54.347656 59.859375 59.914062 54.292969 59.914062 47.445312 L 59.914062 31.042969 C 61.621094 32.339844 63.195312 33.789062 64.421875 35.53125 C 64.867188 36.164062 65.71875 36.292969 66.351562 35.867188 C 66.5 35.753906 66.628906 35.625 66.722656 35.476562 L 71.398438 28.09375 C 71.734375 27.574219 71.675781 26.90625 71.269531 26.441406 C 66.667969 21.246094 60.394531 17.570312 53.289062 16.273438 C 53.179688 16.253906 53.085938 16.234375 52.992188 16.253906 Z M 43.363281 18.890625 L 43.363281 24.457031 C 32.414062 26.421875 24.066406 35.921875 24.066406 47.425781 C 24.066406 60.359375 34.566406 70.859375 47.5 70.859375 C 60.433594 70.859375 70.933594 60.359375 70.933594 47.425781 C 70.933594 45.996094 70.730469 44.605469 70.46875 43.234375 L 75.203125 39.429688 C 75.945312 41.988281 76.425781 44.644531 76.425781 47.425781 C 76.425781 63.421875 63.476562 76.371094 47.480469 76.371094 C 31.488281 76.371094 18.535156 63.421875 18.535156 47.425781 C 18.554688 32.84375 29.351562 20.910156 43.363281 18.890625 Z M 54.382812 19.425781 C 59.839844 20.761719 64.699219 23.621094 68.449219 27.570312 L 65.351562 32.46875 C 63.585938 30.394531 61.582031 28.519531 59.207031 27.144531 C 58.558594 26.757812 57.703125 26.976562 57.316406 27.648438 C 57.1875 27.851562 57.128906 28.09375 57.128906 28.332031 L 57.128906 47.445312 C 57.128906 52.789062 52.824219 57.09375 47.480469 57.09375 C 42.136719 57.09375 37.832031 52.789062 37.832031 47.445312 C 37.832031 42.101562 42.136719 37.796875 47.480469 37.796875 C 49.246094 37.796875 50.878906 38.277344 52.304688 39.09375 C 52.957031 39.484375 53.808594 39.261719 54.199219 38.59375 C 54.328125 38.390625 54.382812 38.148438 54.382812 37.90625 Z M 54.382812 19.425781 "/>
</g>
</svg>
