<?xml version="1.0" encoding="utf-8"?>
<!-- Generator: Adobe Illustrator 24.3.0, SVG Export Plug-In . SVG Version: 6.00 Build 0)  -->
<svg version="1.1" id="Слой_1" xmlns="http://www.w3.org/2000/svg" xmlns:xlink="http://www.w3.org/1999/xlink" x="0px" y="0px"
	 viewBox="0 0 512 512" style="enable-background:new 0 0 512 512;" xml:space="preserve">
<style type="text/css">
	.st0{fill:none;stroke:#000000;stroke-width:15;stroke-miterlimit:10;}
</style>
<polygon class="st0" points="133,469.1 379,469.1 502,256 379,42.9 133,42.9 10,256 "/>
<path d="M240.9,85.5c-0.2,0-0.3,0-0.4,0c-87,7.8-155.3,81.1-155.3,170.2c0,94.3,76.6,170.9,170.9,170.9s170.9-76.6,170.9-170.9
	c0-20.5-3.6-40.2-10.3-58.5c-1.4-3.9-5.7-5.8-9.5-4.4c-0.8,0.3-1.5,0.7-2.1,1.2L367.4,224c-2.2,1.8-3.2,4.7-2.6,7.4
	c1.7,7.8,2.6,15.9,2.6,24.2c0,61.7-49.8,111.4-111.4,111.4s-111.4-49.8-111.4-111.4c0-56.9,42.5-103.7,97.5-110.5
	c3.7-0.5,6.5-3.6,6.5-7.4V92.9c0-4.1-3.3-7.4-7.4-7.4C241.1,85.5,241,85.5,240.9,85.5z M285.6,87.6c-4,0.1-7.3,3.4-7.3,7.4v34.4
	v11.1v52.6c-7-2.5-14.4-4.3-22.3-4.3c-36.8,0-66.9,30-66.9,66.9s30,66.9,66.9,66.9s66.9-30,66.9-66.9v-88.4
	c9.2,7,17.7,14.8,24.3,24.2c2.4,3.4,7,4.1,10.4,1.8c0.8-0.6,1.5-1.3,2-2.1l25.2-39.8c1.8-2.8,1.5-6.4-0.7-8.9
	c-24.8-28-58.6-47.8-96.9-54.8C286.6,87.6,286.1,87.5,285.6,87.6z M233.7,101.8v30c-59,10.6-104,61.8-104,123.8
	c0,69.7,56.6,126.3,126.3,126.3s126.3-56.6,126.3-126.3c0-7.7-1.1-15.2-2.5-22.6l25.5-20.5c4,13.8,6.6,28.1,6.6,43.1
	c0,86.2-69.8,156-156,156s-156-69.8-156-156C100,177,158.2,112.7,233.7,101.8z M293.1,104.7c29.4,7.2,55.6,22.6,75.8,43.9
	l-16.7,26.4c-9.5-11.2-20.3-21.3-33.1-28.7c-3.5-2.1-8.1-0.9-10.2,2.7c-0.7,1.1-1,2.4-1,3.7v103c0,28.8-23.2,52-52,52
	s-52-23.2-52-52s23.2-52,52-52c9.5,0,18.3,2.6,26,7c3.5,2.1,8.1,0.9,10.2-2.7c0.7-1.1,1-2.4,1-3.7v-63.7v-11.1V104.7z"/>
</svg>
