<svg xmlns="http://www.w3.org/2000/svg" width="96" height="96" viewBox="0 0 96 96"><g id="surface1"><path d="M50.879 11.52c3.605 3.609 4.324 6.043 4.351 11.085.016 1.254.032 2.504.047 3.797l-.011 4.078q.004 2.104.015 4.208a944 944 0 0 1-.008 8.8c-.015 3.754.008 7.508.04 11.262.023 2.895.019 5.79.011 8.684 0 1.382.008 2.77.02 4.152.02 1.937 0 3.871-.02 5.809v3.335c-.789 3.864-2.363 5.32-5.402 7.75-3.219.274-4.934-.335-7.508-2.273-1.926-1.703-3.754-3.473-5.574-5.285-1.25-1.223-2.504-2.438-3.758-3.656-.547-.54-1.094-1.082-1.656-1.641-5.074-4.707-8.992-4.832-15.707-4.762-4.153-.09-7.684-.5-10.836-3.535C2.348 58.738 3.027 53.086 3.12 48l-.07-3.7c.054-8.417.054-8.417 1.847-11.644 2.625-2.531 4.903-2.914 8.461-3.238q2.052.072 4.102.16c6.133-.035 9.516-.793 14.16-5.156a471 471 0 0 0 4.86-5.223c1.687-1.515 3.406-3 5.16-4.437.738-.63 1.48-1.254 2.242-1.899 2.668-1.633 3.93-1.996 6.996-1.343M42.66 24.059l-2.676 2.375c-2.496 2.222-2.496 2.222-4.246 4.402-3.898 4.398-7.297 5.074-12.972 5.434-2.48.09-4.953.128-7.434.144-3.59-.379-3.59-.379-4.773 1.027a78 78 0 0 0-.125 4.68c-.004.945-.004 1.89-.004 2.863L10.44 48l-.011 3.016c0 .945 0 1.89.004 2.863 0 .875 0 1.75.004 2.648-.106 2.02-.106 2.02 1.082 2.993l3.578-.168c8.48-.332 14.433-.004 20.906 5.906 2.309 2.34 4.55 4.726 6.687 7.226 1.676 1.782 1.676 1.782 5.309 3.356V20.16c-2.012 0-3.977 2.656-5.34 3.899m36.06-8.699c2.273.1 2.273.1 4.8.96 9.114 12.368 10.223 28.856 8.192 43.582-1.508 6.836-4.016 14.114-8.191 19.778-2.47.918-2.47.918-4.801.96-.633-.632-1.266-1.269-1.918-1.921.355-3.656 1.687-6.57 3.3-9.84 5.774-12.531 5.77-24.863 1.653-38.024-.965-2.613-2.031-5-3.332-7.457-1.621-3.238-1.621-3.238-1.305-5.3.645-1.778.645-1.778 1.602-2.739m0 0" style="stroke:none;fill-rule:nonzero;fill:#000;fill-opacity:1"/><path d="M71.04 23.04c2.308.929 3.6 1.558 4.987 3.66 5.535 13.019 5.887 25.046 1.735 38.581-1.086 2.586-2.176 4.426-3.84 6.719-1.426.477-1.426.477-2.883.96-.95-.632-1.898-1.269-2.879-1.92.399-3.833.934-6.653 2.399-10.259 3.558-9.144 2.64-18.058-.48-27.18q-.957-1.922-1.919-3.84c-.3-2.523-.3-2.523 0-4.8zm0 0" style="stroke:none;fill-rule:nonzero;fill:#000;fill-opacity:1"/><path d="M60.48 33.602c2.22.058 2.22.058 4.801.957 4.051 6.011 3.477 13.164 2.88 20.16-.602 2.89-1.196 4.222-2.88 6.722-2.582.899-2.582.899-4.8.957-1.083-1.558-1.083-1.558-1.922-3.84.64-1.917 1.28-3.84 1.921-5.757.41-4.621.368-8.95-1.082-13.38l-.84-2.94c.637-.95 1.27-1.903 1.922-2.88m0 0" style="stroke:none;fill-rule:nonzero;fill:#000;fill-opacity:1"/></g></svg>