<svg xmlns="http://www.w3.org/2000/svg" width="96" height="96"><path d="M24 14v8h8v-8c3.75-1.125 3.75-1.125 6 0v8h8v-8c3.75-1.125 3.75-1.125 6 0v8h8v-8c3.75-1.125 3.75-1.125 6 0v8h8v-8c3.75-1.125 3.75-1.125 6 0 .16 1.93.315 3.861.363 5.797.49 2.478.49 2.478 3.135 4.247 3.484 4.117 3.226 7.221 3.166 12.456l.015 2.768q.004 2.89-.027 5.779c-.027 2.944 0 5.884.032 8.828q-.006 2.813-.02 5.625l.03 2.658c-.085 4.497-.19 6.246-3.191 9.796L81 74c-.791 2.178-.791 2.178-.812 4.313L80 82c-3.75 1.125-3.75 1.125-6 0v-8h-8v8c-3.75 1.125-3.75 1.125-6 0v-8h-8v8c-3.75 1.125-3.75 1.125-6 0v-8h-8v8c-3.75 1.125-3.75 1.125-6 0v-8h-8v8c-3.75 1.125-3.75 1.125-6 0v-8l-2.312-.25C13 73 13 73 11.36 71.54c-2.08-3.882-1.829-7.601-1.83-11.942l-.023-2.772q-.015-2.9-.009-5.797c.001-2.953-.04-5.903-.085-8.855q-.008-2.82-.008-5.639l-.05-2.668c.05-4.45.222-6.31 2.994-9.963C15 22 15 22 18 22v-8c2.49-1.245 3.41-.777 6 0m-6.827 15.31c-1.96 2.823-1.6 6-1.571 9.315l-.01 2.252q-.002 2.355.017 4.71c.016 2.404 0 4.806-.02 7.21q.004 2.289.013 4.578l-.019 2.178c.019 3.788.019 3.788 1.59 7.136 2.543 1.825 4.329 1.692 7.444 1.7l3.489.028 3.769-.019 3.867.01q4.05.003 8.1-.017c3.46-.017 6.92-.007 10.38.01 3.301.014 6.602.005 9.903-.003l3.769.019 3.489-.029 3.075-.007c2.564-.187 2.564-.187 4.369-1.692 1.96-2.822 1.6-6 1.571-9.314l.01-2.252q.002-2.355-.017-4.71c-.016-2.404 0-4.806.02-7.21q-.004-2.289-.013-4.578l.019-2.178c-.019-3.788-.019-3.788-1.59-7.136-2.543-1.825-4.329-1.692-7.444-1.7l-3.489-.028-3.769.019-3.867-.01q-4.05-.003-8.1.017c-3.46.017-6.92.007-10.38-.01-3.301-.014-6.602-.005-9.903.003l-3.769-.019-3.489.029-3.075.007c-2.564.187-2.564.187-4.369 1.692"/><path d="M22 34h6v6h-6z"/></svg>