<svg xmlns="http://www.w3.org/2000/svg" width="96" height="96"><path d="M64.762 10.543C74.062 16.597 81.048 24.203 84 35c1.554 12.905-.31 23.84-8.062 34.5C58.5 90.402 58.5 90.402 48.188 92.938 41.885 92.385 37.377 87.128 33 83l-1.567-1.443c-9.52-8.814-19.054-19.294-19.867-32.924a152 152 0 0 1-.004-4.508l.03-2.396c.318-10.505 3.78-16.939 11.037-24.53 10.823-10.038 28.54-13.3 42.133-6.656M24 26c-5.622 7.767-5.698 15.679-5 25 2.433 11.065 10.98 19.487 19 27l2.04 2.02L42.124 82l1.883 1.813c1.949 1.427 1.949 1.427 4.369.962 2.947-.87 4.343-1.907 6.584-3.986l2.17-2.008 2.244-2.156 2.301-2.19c7.714-7.517 14.627-15.636 15.625-26.802.037-11.251-1.359-17.359-9.106-25.649-6.93-6.265-14.584-7.35-23.617-7.257C36.04 15.379 29.724 19.81 24 26"/><path d="m46 32 7.188-.312 2.235-.138c3.804-.08 5.463.365 8.526 2.657 2.743 3.736 2.785 5.916 2.524 10.41C66 47 66 47 64.063 50.125 59.946 52.645 56.703 52.461 52 52v8h-6zm6 6v8l6-1 1-5c-2.954-2.37-2.954-2.37-7-2m-18-6h6v28h-6z"/></svg>