<svg xmlns="http://www.w3.org/2000/svg" width="96" height="96" viewBox="0 0 96 96"><g id="surface1"><path d="M56.035 4.656c4.899 2.723 7.922 6.602 10.203 11.664.645 3.188.676 6.266.64 9.508l.013 2.692a445 445 0 0 1-.024 5.593c-.027 2.84 0 5.676.028 8.512q-.002 2.735-.016 5.465c.008.84.02 1.68.027 2.543-.113 6.008-1.68 9.969-5.465 14.648-5.18 4.809-9.453 5.137-16.304 5.07-5.285-.496-8.227-2.609-11.836-6.511-2.371-3.512-3.774-6.063-3.836-10.344l-.047-2.43c-.004-.855-.008-1.714-.016-2.601l-.023-2.703q-.023-2.834-.027-5.668a704 704 0 0 0-.106-8.614c-.012-1.84-.02-3.675-.023-5.515-.02-.852-.035-1.703-.055-2.578.043-6.035 1.484-10.106 5.39-14.746 6.102-5.532 13.657-6.793 21.477-3.985M38.641 14.88c-2.918 3.504-2.332 7.902-2.356 12.203-.004.773-.012 1.547-.015 2.344-.012 1.633-.016 3.27-.02 4.902-.012 2.496-.04 4.988-.07 7.484q-.011 2.385-.016 4.77l-.035 2.254c.023 5.824 1.394 8.797 5.39 12.902 3.415 2.098 5.415 2.114 9.36 1.621 3.059-1.457 5.508-3.152 7.68-5.757 1.203-3.61 1.136-7.004 1.156-10.766l.015-2.34c.012-1.637.016-3.27.02-4.906.012-2.492.04-4.988.07-7.48q.011-2.39.016-4.774l.035-2.25c-.023-5.387-1.289-8.27-4.59-12.375-5.586-4.375-11.886-1.906-16.64 2.168m0 0" style="stroke:none;fill-rule:nonzero;fill:#000;fill-opacity:1"/><path d="M19.2 41.281c2.519.36 2.519.36 4.8.957l.285 3.301C25.47 58.73 25.47 58.73 32.762 69.422 37.926 73.46 43.98 75.27 50.52 74.82c7.066-1.183 11.914-4.18 16.464-9.656 3.098-4.75 3.614-9.55 4.176-15.062.082-.758.164-1.516.25-2.293q.304-2.783.59-5.57c2.281-.598 2.281-.598 4.8-.958 2.602 2.602 2.208 4.047 2.22 7.68-.196 10.453-3.114 19.219-10.684 26.676-4.711 3.863-9.652 5.55-15.535 6.922-.09 1.007-.09 1.007-.176 2.035l-.246 2.644c-.078.871-.156 1.739-.234 2.633-.305 2.29-.305 2.29-1.266 4.207H45.12c-1.168-2.336-1.27-4.238-1.5-6.84l-.246-2.644c-.086-1.008-.086-1.008-.176-2.035-.886-.196-.886-.196-1.797-.391-8.742-2.227-14.863-6.27-19.742-13.95-4.37-8.062-5.262-15.85-4.379-25.019zm0 0" style="stroke:none;fill-rule:nonzero;fill:#000;fill-opacity:1"/></g></svg>