<svg xmlns="http://www.w3.org/2000/svg" width="96" height="96"><path d="M2 12h14v10l2.675-.02q12.47-.09 24.941-.135c4.275-.016 8.549-.037 12.823-.071 4.124-.033 8.248-.05 12.371-.059q2.363-.008 4.724-.032c2.203-.022 4.405-.025 6.608-.024l3.802-.02C87 22 87 22 88.904 23.251c1.366 2.18 1.476 3.514 1.484 6.081l.029 2.64-.019 2.84.01 2.926a858 858 0 0 1-.017 6.122c-.016 3.128 0 6.255.02 9.382q-.004 2.973-.013 5.946l.019 2.84-.029 2.64-.007 2.321c-.487 2.57-1.303 3.46-3.381 5.011-3.137.293-3.137.293-6.687.188l-3.575-.083L74 72v12H30V72H16v12c-4 1-4 1-6 0V18H2C.875 14.25.875 14.25 2 12m14 16v38c11.884.03 11.884.03 23.768.049q7.265.008 14.531.026 5.855.016 11.71.02 2.239.003 4.477.01 3.125.01 6.25.009l3.6.006c2.585.184 2.585.184 3.664-1.12.101-2.655.14-5.283.133-7.937l.003-2.41q0-2.528-.006-5.054-.005-3.882.007-7.763 0-2.45-.004-4.898l.006-2.362c.32-3.584.32-3.584-1.139-6.576a133 133 0 0 0-6.264-.114h-1.98c-2.17 0-4.34.009-6.51.016l-4.502.005q-5.936.006-11.871.024-7.116.016-14.232.023c-7.214.01-14.427.029-21.641.046m20 44v6h32v-6z"/><path d="M69 32c4.616 2.186 6.729 4.496 9 9 .829 5.548.724 10.471-1.687 15.563-3.102 3.269-5.697 5.196-10.215 5.87-6.149.009-10.411.014-15.098-4.433-3.89-5.441-3.79-10.519-3-17 4.36-9.206 11.651-10.14 21-9m-12.5 8.5c-2.122 3.536-2.291 6.479-1.5 10.5 1.333 2.667 1.333 2.667 4 4 4.021.791 6.964.622 10.5-1.5 2.122-3.536 2.291-6.479 1.5-10.5-1.333-2.667-1.333-2.667-4-4-4.021-.791-6.964-.622-10.5 1.5M22 50h18c1 4 1 4 0 6H22c-1-4-1-4 0-6m0-12h18c1 4 1 4 0 6H22c-1-4-1-4 0-6"/></svg>